#N canvas 2621 243 410 693 10;
#X obj 51 11 cnv 15 40 115 empty empty \$1 1 5 1 8 -257985 -1 0;
#X text 23 -16 KEPtype nomUnique;
#X obj 151 7 KEPface \$1;
#X obj 57 112 bng 10 250 50 0 empty empty empty 17 7 0 10 -4034 -1
-1;
#X obj 74 112 bng 10 250 50 0 empty empty empty 17 7 0 10 -258113 -1
-1;
#N canvas 2883 466 311 592 KEPboutons 0;
#X obj 32 163 KEPbus \$1 N1 -t1- t1;
#X obj 30 184 KEPbus \$1 N2 -t2- t2;
#X obj 32 251 KEPbus \$1 Rec -tL- tREC;
#X obj 31 206 KEPbus \$1 N4 -t3- t3;
#X obj 32 227 KEPbus \$1 N8 -t4- t4;
#X obj 27 55 KEPbus \$1 Phrases Phrases_vitesse b2;
#X obj 25 275 KEPbus \$1 l1 -l1- tl1;
#X obj 25 298 KEPbus \$1 l2 -l2- tl2;
#X obj 27 320 KEPbus \$1 l3 -l3- tl3;
#X obj 27 341 KEPbus \$1 l4 -l4- tl4;
#X obj 22 366 KEPbus \$1 lR -lR- tlREC;
#X obj 158 270 KEPbus \$1 lr -lr- lrouge;
#X obj 158 293 KEPbus \$1 lv -lv- lvert;
#X obj 26 78 KEPbus \$1 Couleur Couleur b3;
#X obj 28 34 KEPbus \$1 PosZ PosZ b1;
#X obj 26 100 KEPbus \$1 NbAnneau NbAnneau b4;
#X obj 25 121 KEPbus \$1 Assiette Assiette b5;
#X restore 174 404 pd KEPboutons;
#X obj 127 467 tgl 15 1 empty empty empty 17 7 0 10 -262144 -1 -1 1
1;
#X obj 126 485 switch~;
#X obj 137 150 cnv 15 336 250 \$1-seq0-STEPcan-snd \$1-seq0-STEPcan-rcv
empty 20 12 0 14 -260097 -233017 0;
#X obj 33 154 KEPCommon \$1 \$0;
#X obj 54 22 MASTERtypeNO_IN \$0;
#N canvas 1 1192 751 545 note_modulators 0;
#X msg 40 145 16 8 23 23 23 23 19 19 19 19 16 16 16 16 12 0 12 12;
#X msg 43 235 16 4 23 20 23 20 14 17 14 17 5 7 5 7 13 0 13 16;
#X msg 41 347 16 8 1 2 3 4 5 6 7 8 9 10 11 12 13 0 15 16;
#X msg 41 437 16 8 16 15 14 13 12 11 10 9 8 7 6 5 4 0 2 1;
#X msg 415 164 16 2 14 17 19 8 7 10 11 13 18 9 22 10 17 0 1 13;
#X msg 414 257 16 4 18 10 10 18 18 11 13 18 6 23 15 14 18 0 8 17;
#X msg 414 346 16 4 17 6 6 0 15 10 19 19 19 19 10 19 15 0 9 10;
#X msg 413 437 16 3 10 18 6 7 0 9 19 0 12 19 0 8 12 0 19 12;
#X obj 37 101 bng 15 250 50 0 empty empty initall 17 7 0 10 -262144
-1 -1;
#X obj 119 70 loadbang;
#X obj 40 192 notemod \$0 \$1 1;
#X obj 362 78 s \$1-notemods-rcv;
#X obj 355 56 list prepend -1;
#X msg 270 9 16 3 0 2 0 2 0 2 4 5 0 2 0 2 2 0 2 0;
#X msg 307 34 12 4 0 2 4 5 7 9 10 12 14 16 17 19;
#X msg 263 -17 16 4 0 4 2 5 4 7 5 9 7 10 9 12 10 14 12 16;
#X msg 197 8 1 1 1;
#X text 13 37 1°:mesure 2°:vitesse 3...:notes;
#X msg 14 -18 16 8 0 0 0 0 6 12 7 14 3 0 5 2 7 4 9 12;
#X obj 40 121 notemodinit \$0 \$1 1;
#X obj 42 216 notemodinit \$0 \$1 2;
#X obj 41 328 notemodinit \$0 \$1 3;
#X obj 41 418 notemodinit \$0 \$1 4;
#X obj 415 145 notemodinit \$0 \$1 5;
#X obj 414 238 notemodinit \$0 \$1 6;
#X obj 414 327 notemodinit \$0 \$1 7;
#X obj 413 417 notemodinit \$0 \$1 8;
#X obj 41 485 notemod \$0 \$1 4;
#X obj 43 296 notemod \$0 \$1 2;
#X obj 41 394 notemod \$0 \$1 3;
#X obj 415 215 notemod \$0 \$1 5;
#X obj 414 305 notemod \$0 \$1 6;
#X obj 414 394 notemod \$0 \$1 7;
#X obj 413 485 notemod \$0 \$1 8;
#X connect 0 0 10 0;
#X connect 1 0 28 0;
#X connect 2 0 29 0;
#X connect 3 0 27 0;
#X connect 4 0 30 0;
#X connect 5 0 31 0;
#X connect 6 0 32 0;
#X connect 7 0 33 0;
#X connect 8 0 19 0;
#X connect 9 0 8 0;
#X connect 12 0 11 0;
#X connect 13 0 12 0;
#X connect 14 0 12 0;
#X connect 15 0 12 0;
#X connect 16 0 12 0;
#X connect 18 0 12 0;
#X connect 19 0 0 0;
#X connect 20 0 1 0;
#X connect 21 0 2 0;
#X connect 22 0 3 0;
#X connect 23 0 4 0;
#X connect 24 0 5 0;
#X connect 25 0 6 0;
#X connect 26 0 7 0;
#X restore 163 425 pd note_modulators;
#N canvas 2279 526 852 538 KEPphrase_1>8 0;
#X obj 0 -532 cnv 15 847 480 empty empty empty 20 12 0 14 -1 -66577
0;
#X obj 214 -290 KEPphrase \$0 \$1 6;
#X obj 4 -528 KEPphrase \$0 \$1 1;
#X obj 425 -528 KEPphrase \$0 \$1 3;
#X obj 3 -290 KEPphrase \$0 \$1 5;
#X obj 214 -528 KEPphrase \$0 \$1 2;
#X obj 636 -528 KEPphrase \$0 \$1 4;
#X obj 425 -290 KEPphrase \$0 \$1 7;
#X obj 636 -290 KEPphrase \$0 \$1 8;
#X coords 0 538 1 537 85 60 0;
#X restore 142 155 pd KEPphrase_1>8;
#N canvas 2728 236 572 327 seq 1;
#X obj 229 115 t b;
#X obj 229 93 r SYNCHRO-clock;
#X obj 173 23 MORPHgroup \$1 FX;
#X floatatom 173 -13 5 0 0 0 - - -;
#X obj 348 119 r \$1-Vitesse-snd;
#X obj 348 199 nbx 5 14 -1e+37 1e+37 0 0 \$0-Tempo-snd \$0-Tempo-rcv
4/3 0 -8 0 10 -262144 -1 -1 0 256;
#X obj 348 164 m;
#X obj 363 141 r \$1-Vitesse_max-snd;
#X obj 328 94 param \$1 FX del1_time;
#X obj 166 175 s \$1-lvert;
#X obj 230 138 s \$1-lrouge;
#X obj 35 169 outlet;
#N canvas 2578 613 792 490 ALLSEQ 1;
#X obj 145 267 sel -1;
#X msg 145 289 0;
#X msg 178 289 100;
#X obj 124 357 pack;
#N canvas 569 252 465 435 gam-pitch 0;
#X obj 198 62 inlet;
#X obj 230 349 outlet;
#X obj 230 147 pack f f;
#X obj 251 124 t b f;
#X obj 252 47 pow 3;
#X obj 251 68 * 100;
#X obj 31 67 r \$0-pitch-snd;
#X obj 113 26 r \$0-gamprepost-snd;
#X obj 97 227 demux;
#X obj 211 112 +;
#X obj 211 90 t b f;
#X obj 230 322 +;
#X obj 216 298 t b f;
#X obj 31 89 * 49;
#X obj 31 110 - 25;
#X obj 31 153 sel -25;
#X msg 31 174 0;
#X obj 97 204 f;
#X obj 113 47 t b f;
#X obj 144 215 demux;
#X msg 144 195 0;
#X floatatom 49 243 5 0 0 0 - - -;
#X obj 31 129 i;
#X obj 251 103 m 1;
#X obj 280 103 != 0;
#X obj 230 275 +;
#X obj 281 300 t b f;
#X floatatom 311 323 5 0 0 0 - - -;
#X obj 281 269 r \$0-transgam;
#X obj 281 82 r \$0-ongam;
#X obj 337 39 inlet;
#X msg 364 13 1;
#X floatatom 348 111 5 0 0 0 - - -;
#X obj 241 7 r \$1-Note_adjust;
#X obj 230 175 gammeRound GAMME1;
#X connect 0 0 9 0;
#X connect 2 0 34 0;
#X connect 3 0 2 0;
#X connect 3 1 2 1;
#X connect 4 0 5 0;
#X connect 5 0 23 0;
#X connect 6 0 13 0;
#X connect 7 0 18 0;
#X connect 8 0 10 0;
#X connect 8 1 12 0;
#X connect 9 0 2 0;
#X connect 10 0 9 0;
#X connect 10 1 9 1;
#X connect 11 0 1 0;
#X connect 12 0 11 0;
#X connect 12 1 11 1;
#X connect 13 0 14 0;
#X connect 14 0 22 0;
#X connect 15 0 16 0;
#X connect 15 1 17 0;
#X connect 16 0 17 0;
#X connect 17 0 8 0;
#X connect 17 0 21 0;
#X connect 18 0 17 0;
#X connect 18 0 20 0;
#X connect 18 1 8 1;
#X connect 18 1 19 1;
#X connect 19 0 12 0;
#X connect 19 1 10 0;
#X connect 20 0 19 0;
#X connect 22 0 15 0;
#X connect 23 0 3 0;
#X connect 24 0 23 1;
#X connect 25 0 11 0;
#X connect 26 0 25 0;
#X connect 26 1 25 1;
#X connect 26 1 27 0;
#X connect 28 0 26 0;
#X connect 29 0 24 0;
#X connect 29 0 32 0;
#X connect 30 0 24 0;
#X connect 31 0 4 0;
#X connect 33 0 4 0;
#X connect 34 0 25 0;
#X restore 124 218 pd gam-pitch;
#X floatatom 135 155 5 0 0 0 - - -;
#X obj 124 45 * 80;
#X obj 124 67 ++;
#X obj 156 44 r \$1-Key;
#X obj 145 244 r \$1-Key;
#X obj 395 25 cnv 15 72 20 empty empty gam 0 4 1 12 -260818 -1 0;
#X obj 426 25 mknob 12 100 0 1 0 0 \$0-adj-snd \$0-adj-rcv adj -2 16
193 8 -44926 -1 -1 0 1;
#X obj 405 37 tgl 8 0 \$0-gamprepost-snd \$0-gamprepost-rcv empty 0
-6 0 8 -44926 -1 -1 0 1;
#X obj 443 25 mknob 12 100 0 1 0 0 \$0-gamnum-snd \$0-gamnum-rcv off
-2 16 193 8 -62784 -1 -1 0 1;
#X obj 396 1 cnv 15 35 20 empty empty pitch 0 5 1 10 -24198 -258699
0;
#X obj 403 8 mknob 15 100 0 1 0 0 \$0-pitch-snd \$0-pitch-rcv empty
-2 -6 192 8 -241291 -1 -262144 0 1;
#X floatatom 162 87 5 0 0 0 - - -;
#X obj 155 66 r \$1-Phrases;
#N canvas 541 1192 450 456 keyboardmono 0;
#X obj 74 -7764 tgl 15 0 empty empty empty 17 7 0 10 -262144 -1 -1
0 1;
#X obj 92 -7763 tgl 15 0 empty empty empty 17 7 0 10 -262144 -1 -1
0 1;
#X obj 110 -7763 tgl 15 0 empty empty empty 17 7 0 10 -262144 -1 -1
0 1;
#X obj 130 -7763 tgl 15 0 empty empty empty 17 7 0 10 -262144 -1 -1
0 1;
#X obj 101 -7738 * 2;
#X obj 73 -7738 * 1;
#X obj 165 -7717 t b f;
#X obj 160 -7695 +;
#X obj 117 -7689 t b f;
#X obj 112 -7667 +;
#X obj 72 -7670 t b f;
#X obj 56 -7647 +;
#X obj 136 -7738 * 4;
#X obj 171 -7738 * 8;
#X obj 56 -7626 sel 0;
#X obj 83 -7605 t b f;
#X obj 83 -7564 f;
#X msg 49 -7603 stop;
#X obj 83 -7584 del 25;
#X msg 24 -7583 -1;
#X obj 83 -7523 s \$1-keyboardmono;
#X obj 74 -7846 r \$1-N1;
#X obj 92 -7826 r \$1-N2;
#X obj 154 -7646 r \$1-keyboardmono;
#X obj 154 -7584 s \$1-Key;
#X obj 154 -7618 MR_table \$1 table5 \$1 \$2 \$3MR5 1 -1;
#X obj 361 -7644 r \$1-Rec;
#X floatatom 271 -7698 5 0 0 0 - - -;
#X obj 110 -7807 r \$1-N4;
#X obj 130 -7787 r \$1-N8;
#X floatatom 125 -7541 5 0 0 0 - - -;
#X connect 0 0 5 0;
#X connect 1 0 4 0;
#X connect 2 0 12 0;
#X connect 3 0 13 0;
#X connect 4 0 9 0;
#X connect 5 0 11 0;
#X connect 6 0 7 0;
#X connect 6 1 7 1;
#X connect 7 0 8 0;
#X connect 8 0 9 0;
#X connect 8 1 9 1;
#X connect 9 0 10 0;
#X connect 10 0 11 0;
#X connect 10 1 11 1;
#X connect 11 0 14 0;
#X connect 12 0 7 0;
#X connect 13 0 6 0;
#X connect 14 0 17 0;
#X connect 14 0 19 0;
#X connect 14 1 15 0;
#X connect 15 0 18 0;
#X connect 15 1 16 1;
#X connect 16 0 20 0;
#X connect 16 0 30 0;
#X connect 17 0 18 0;
#X connect 18 0 16 0;
#X connect 19 0 16 0;
#X connect 21 0 0 0;
#X connect 22 0 1 0;
#X connect 23 0 25 0;
#X connect 25 0 24 0;
#X connect 25 0 27 0;
#X connect 26 0 25 1;
#X connect 28 0 2 0;
#X connect 29 0 3 0;
#X restore 3 140 pd keyboardmono;
#X floatatom 257 87 5 0 0 0 - - -;
#X obj 124 129 ++;
#X obj 248 65 r \$1-Phrases_vitesse;
#X obj 226 204 r \$1-Note_adjust;
#X obj 145 315 f;
#N canvas 1 1259 381 330 Gamme 0;
#N canvas 495 74 450 382 i2l 0;
#X obj 221 41 inlet;
#X obj 221 243 outlet;
#X obj 221 90 for++ 0 11;
#X obj 221 62 t b f;
#X obj 251 133 f;
#X obj 251 156 & 1;
#X obj 280 133 >> 1;
#X obj 221 111 t f b;
#X obj 221 184 pack f f;
#X obj 145 243 print;
#X msg 167 71 1625;
#X msg 221 213 set \$1 \$2;
#X connect 0 0 3 0;
#X connect 2 0 7 0;
#X connect 3 0 2 0;
#X connect 3 1 4 1;
#X connect 4 0 5 0;
#X connect 4 0 6 0;
#X connect 5 0 8 1;
#X connect 6 0 4 1;
#X connect 7 0 8 0;
#X connect 7 1 4 0;
#X connect 8 0 11 0;
#X connect 10 0 3 0;
#X connect 11 0 1 0;
#X restore 19 177 pd i2l;
#X obj 19 56 r Gammes;
#X obj 19 154 unpack f f;
#X obj 177 16 r \$0-gamnum-snd;
#X obj 177 36 * 3.9;
#X obj 177 57 i;
#X msg 221 196 label \$1;
#X obj 221 218 s \$0-gamnum-rcv;
#X obj 177 76 change -1;
#X obj 221 175 makesymbol gam%s;
#X obj 177 96 sel 0 1;
#X obj 221 155 - 1;
#X msg 177 115 label off;
#X msg 199 135 label semi;
#X obj 80 222 tabread Gammestab;
#X obj 152 155 * 2;
#X obj 98 262 tabread Gammestab;
#X obj 98 242 + 1;
#X msg 99 154 4095 0;
#X obj 19 90 unwonk f;
#X obj 19 133 l;
#X floatatom 166 190 5 0 0 0 - - -;
#X msg 83 115 -1;
#X obj 122 114 sel 0 1;
#X obj 152 135 - 2;
#X obj 19 111 sel 0;
#X obj 19 198 s \$0-setgam;
#X obj 84 299 s \$0-transgam;
#X obj 256 95 s \$0-ongam;
#X connect 0 0 26 0;
#X connect 1 0 19 0;
#X connect 2 0 0 0;
#X connect 2 1 27 0;
#X connect 3 0 4 0;
#X connect 4 0 5 0;
#X connect 5 0 8 0;
#X connect 6 0 7 0;
#X connect 8 0 10 0;
#X connect 8 0 23 0;
#X connect 8 0 28 0;
#X connect 9 0 6 0;
#X connect 10 0 12 0;
#X connect 10 1 13 0;
#X connect 10 2 11 0;
#X connect 11 0 9 0;
#X connect 12 0 7 0;
#X connect 13 0 7 0;
#X connect 14 0 0 0;
#X connect 15 0 14 0;
#X connect 15 0 17 0;
#X connect 16 0 27 0;
#X connect 17 0 16 0;
#X connect 18 0 2 0;
#X connect 19 0 25 0;
#X connect 19 1 20 1;
#X connect 20 0 2 0;
#X connect 22 0 25 1;
#X connect 23 0 18 0;
#X connect 23 0 22 0;
#X connect 23 1 18 0;
#X connect 23 1 22 0;
#X connect 23 2 24 0;
#X connect 24 0 15 0;
#X connect 24 0 21 0;
#X connect 24 0 25 1;
#X connect 25 0 20 0;
#X restore 339 104 pd Gamme;
#X obj 26 107 s \$1-lvert;
#X obj 155 107 notemodrcvphrase \$0 \$1;
#X obj 329 149 l notemodrcv \$0 \$1;
#X obj 477 199 l param \$1 SETTING gamnum;
#X obj 477 154 l param \$1 FX f;
#X obj 477 176 l param \$1 FX env2f;
#X obj 477 112 l param \$1 FX a;
#X obj 476 133 l param \$1 FX r;
#X obj 124 433 outlet;
#X obj 124 19 r \$1-PosZ;
#X obj 195 141 loadbang;
#X msg 220 169 0;
#X obj 569 252 param \$1 FX R;
#X obj 906 7 l Rythmic/MAIN Rythmic4;
#X obj 569 275 param \$1 FX V;
#X obj 571 296 param \$1 FX B;
#X obj 570 320 param \$1 FX A;
#X obj 282 282 mknob 25 100 0 1 0 0 \$1-R-snd \$1-R-rcv R 0 -6 193
8 -258113 -228856 -1 1500 1;
#X obj 331 279 mknob 25 100 0 1 0 0 \$1-V-snd \$1-V-rcv V 0 -6 193
8 -4034 -228856 -1 4700 1;
#X obj 372 278 mknob 25 100 0 1 0 0 \$1-B-snd \$1-B-rcv B 0 -6 193
8 -4032 -228856 -1 1800 1;
#X obj 414 278 mknob 25 100 0 1 0 0 \$1-A-snd \$1-A-rcv A 0 -6 193
8 -228856 -1 -1 3800 1;
#X connect 0 0 1 0;
#X connect 0 1 2 0;
#X connect 1 0 23 0;
#X connect 2 0 23 0;
#X connect 3 0 33 0;
#X connect 4 0 3 0;
#X connect 6 0 7 0;
#X connect 7 0 20 0;
#X connect 8 0 7 1;
#X connect 8 0 25 0;
#X connect 9 0 0 0;
#X connect 17 0 16 0;
#X connect 17 0 26 0;
#X connect 20 0 4 0;
#X connect 20 0 5 0;
#X connect 21 0 19 0;
#X connect 21 0 26 1;
#X connect 22 0 4 1;
#X connect 23 0 3 1;
#X connect 26 0 20 1;
#X connect 34 0 6 0;
#X connect 35 0 36 0;
#X connect 36 0 4 1;
#X restore 55 101 pd ALLSEQ;
#X obj 103 123 unpack f f;
#X obj 160 150 sel 100;
#X obj 173 2 r \$1-Couleur;
#X connect 0 0 10 0;
#X connect 1 0 0 0;
#X connect 4 0 6 0;
#X connect 6 0 5 0;
#X connect 7 0 6 1;
#X connect 12 0 11 0;
#X connect 12 0 13 0;
#X connect 13 1 14 0;
#X connect 14 0 9 0;
#X connect 15 0 2 0;
#X connect 15 0 3 0;
#X restore 48 284 pd seq;
#X obj 27 317 unpack f f;
#X floatatom 14 352 5 0 0 0 - - -;
#X floatatom 82 352 5 0 0 0 - - -;
#X text 73 370 on/of-0-100;
#X text 5 369 control;
#X floatatom 261 510 5 0 0 0 - - -;
#X obj 260 482 r \$1-Assiette;
#X obj 115 592 Control2Net \$1;
#X connect 3 0 9 0;
#X connect 4 0 9 1;
#X connect 6 0 7 0;
#X connect 13 0 14 0;
#X connect 14 0 15 0;
#X connect 14 1 16 0;
#X connect 20 0 19 0;
#X coords 0 -1 1 1 42 117 2 50 10;
