#N canvas 1 82 1278 693 10;
#X obj 328 278 hsl 150 15 -1 1 0 0 \$0-shadContrast-snd \$0-shadContrast-rcv
contrast -2 -8 0 10 -260097 -1 -1 11450 1;
#X obj 328 250 hsl 150 15 -1 1 0 0 \$0-shadLum-snd \$0-shadLum-rcv
luminosite -2 -8 0 10 -257985 -1 -1 9600 1;
#X obj -22 26 loadbang;
#X obj -131 153 glsl_vertex;
#X obj -129 256 glsl_fragment;
#X obj -132 498 glsl_program;
#X obj -66 374 pack 0 0;
#X obj -48 344 t b f;
#X obj -52 279 change;
#X obj -65 178 change;
#X msg -76 405 link \$1 \$2;
#X floatatom -50 310 2 0 0 0 ID - -;
#X floatatom -65 201 2 0 0 0 ID - -;
#X obj -74 429 print linking;
#X msg 87 306 B \$1;
#X msg 86 360 C \$1;
#X obj 305 217 tgl 15 0 \$0-contrastOn-snd \$0-contrastOn-rcv on/off
17 7 0 10 -262144 -1 -1 1 1;
#X obj -182 90 demux 0 1;
#X floatatom 60 340 5 0 0 0 - - -;
#X obj 328 307 hsl 150 15 -1 1 0 0 \$0-shadSaturation-snd \$0-shadSaturation-rcv
saturation -2 -8 0 10 -4034 -1 -1 6500 1;
#X msg 78 396 S \$1;
#X floatatom 501 787 5 0 0 0 - - -;
#X obj 467 489 *;
#X obj 493 487 *;
#X obj 479 458 t f f f f f;
#X obj 518 485 *;
#X obj 543 485 *;
#X obj 441 214 bng 15 250 50 0 empty empty reset 17 7 0 10 -4032 -1
-1;
#X obj 467 676 *;
#X obj 493 674 *;
#X obj 479 645 t f f f f f;
#X obj 519 676 *;
#X obj 479 706 + 1;
#X obj 500 742 * 1;
#X obj 500 549 * 2;
#X obj 497 571 - 1;
#X obj 543 677 *;
#X obj 495 594 change;
#X msg 531 196 0;
#X obj 509 708 t b f;
#X obj 423 718 init 1;
#X obj 502 528 > 0;
#X obj 496 426 + 0.5;
#X obj 468 511 + 1;
#X obj 319 467 hsl 150 15 0 1 0 0 \$0-shadAlpha-snd \$0-shadAlpha-rcv
alphaGeneral -2 -8 0 10 -262130 -1 -1 14900 1;
#X msg 84 457 alpha \$1;
#X obj 480 405 * 1.5;
#X obj 480 618 * 3;
#X obj -182 46 inlet gemlist;
#X obj -182 538 outlet gemlist;
#X obj 8 303 inlet link;
#X obj 69 519 outlet link;
#X msg 560 195 1;
#X obj 585 254 t b;
#X obj -165 69 alpha;
#X obj -24 614 apsubmaster \$0 \$1 \$2;
#X obj -23 633 apf \$0 lum \$0-shadLum;
#X obj -23 654 apf \$0 contrast \$0-shadContrast;
#X obj -23 674 apf \$0 sat \$0-shadSaturation;
#X obj -23 719 api \$0 on \$0-shadOn;
#X obj -23 694 apf \$0 alpha \$0-shadAlpha;
#X obj 301 139 cnv 15 187 70 empty empty empty 20 12 0 14 -13330 -66577
0;
#X obj 371 144 vsl 15 60 0 2 0 0 \$0-teinteR-snd \$0-teinteR-rcv empty
0 -9 0 10 -258113 -1 -1 2950 1;
#X obj 388 144 vsl 15 60 0 2 0 0 \$0-teinteG-snd \$0-teinteG-rcv empty
0 -9 0 10 -4034 -1 -1 2950 1;
#X obj 406 144 vsl 15 60 0 2 0 0 \$0-teinteB-snd \$0-teinteB-rcv empty
0 -9 0 10 -4160 -1 -1 2950 1;
#X obj 306 149 tgl 15 0 \$0-teinteOn-snd \$0-teinteOn-rcv on/off 17
7 0 10 -262144 -1 -262144 1 1;
#X obj 433 167 bng 15 250 50 0 empty empty reset 17 7 0 10 -204800
-1 -262144;
#X msg 500 150 1;
#X obj 301 329 cnv 15 188 120 empty empty colorToAlpha 20 12 0 14 -261682
-66577 0;
#X obj 747 544 s \$0-toShader;
#X obj -166 405 r \$0-toShader;
#X obj 821 338 pack f f f;
#X obj 598 309 r \$0-teinteOn-snd;
#X msg 599 351 teinteOn \$1;
#X obj 816 237 r \$0-teinteR-snd;
#X obj 825 255 r \$0-teinteG-snd;
#X obj 873 273 r \$0-teinteB-snd;
#X obj 875 318 f;
#X obj 910 319 f;
#X obj 871 297 t b b f;
#X obj 823 292 t b f;
#X obj 831 422 r \$0-tolhaute-snd;
#X msg 835 462 tolhaute \$1;
#X obj 911 509 r \$0-tolbasse-snd;
#X msg 909 552 tolbasse \$1;
#X obj 809 146 pack f f f;
#X obj 885 102 f;
#X obj 913 104 f;
#X obj 874 82 t b b f;
#X obj 827 88 t b f;
#X msg 819 381 colorTeinte \$1 \$2 \$3;
#X msg 813 187 colorRGB \$1 \$2 \$3;
#X obj 302 349 tgl 15 0 \$0-colorToAlphaOn-snd \$0-colorToAlphaOn-rcv
on/off 17 7 0 10 -262144 -1 -66577 0 1;
#X obj 328 431 hsl 128 15 0 2 0 0 \$0-tolhaute-snd \$0-tolhaute-rcv
flou -2 -8 0 10 -257985 -1 -1 0 1;
#X obj 328 400 hsl 128 15 0 2 0 0 \$0-tolbasse-snd \$0-tolbasse-rcv
alpha -2 -8 0 10 -262130 -1 -1 0 1;
#X obj 326 369 nbx 3 14 0 255 0 0 \$0-colorR-snd \$0-colorR-rcv R -12
7 0 10 -260097 -45076 -1 0 256;
#X obj 378 369 nbx 3 14 0 255 0 0 \$0-colorG-snd \$0-colorG-rcv G -12
7 0 10 -4034 -1 -1 0 256;
#X obj 428 370 nbx 3 14 0 255 0 0 \$0-colorB-snd \$0-colorB-rcv B -12
7 0 10 -4032 -45076 -1 0 256;
#X obj 435 121 tgl 15 0 \$0-shadOn-snd \$0-shadOn-rcv on/off 17 7 0
10 -262144 -1 -1 0 1;
#X msg -116 126 open colorContrastAlpha.vert;
#X msg -104 224 open colorContrastAlpha.frag;
#X obj 602 406 r \$0-contrastOn-snd;
#X msg 604 448 contrastOn \$1;
#X obj 642 160 r \$0-colorToAlphaOn-snd;
#X msg 643 205 colorToAlphaOn \$1;
#X obj -25 744 api \$0 teinteOn \$0-teinteOn;
#X obj -23 768 api \$0 contrastOn \$0-contrastOn;
#X obj -27 789 api \$0 colorToAlphaOn \$0-colorToAlphaOn;
#X obj -25 817 apf \$0 teinteR \$0-teinteR;
#X obj -22 838 apf \$0 teinteG \$0-teinteG;
#X obj -25 860 apf \$0 teinteB \$0-teinteB;
#X obj 142 817 apf \$0 colorR \$0-colorR;
#X obj 144 837 apf \$0 colorG \$0-colorG;
#X obj 152 860 apf \$0 colorB \$0-colorB;
#X obj 322 834 apf \$0 tolhaute \$0-tolhaute;
#X obj 323 856 apf \$0 tolbasse \$0-tolbasse;
#X obj 811 17 r \$0-colorR-snd;
#X obj 826 40 r \$0-colorG-snd;
#X obj 873 60 r \$0-colorB-snd;
#X obj 254 394 init 1;
#X obj 508 82 loadbang;
#X obj 914 124 / 255;
#X obj 871 123 / 255;
#X obj 810 124 / 255;
#X obj 212 172 init 0;
#X obj -66 543 s \$0shaderLoaded;
#X obj 642 183 f;
#X obj 667 183 r \$0shaderLoaded;
#X obj 601 424 f;
#X obj 627 427 r \$0shaderLoaded;
#X obj 598 327 f;
#X obj 623 327 r \$0shaderLoaded;
#X obj 811 170 l;
#X obj 839 170 r \$0shaderLoaded;
#X obj 820 358 l;
#X obj 848 359 r \$0shaderLoaded;
#X obj 832 441 f;
#X obj 857 441 r \$0shaderLoaded;
#X obj 910 531 f;
#X obj 935 531 r \$0shaderLoaded;
#X obj 134 308 f;
#X obj 163 307 r \$0shaderLoaded;
#X obj 124 360 f;
#X obj 152 360 r \$0shaderLoaded;
#X obj 114 396 f;
#X obj 142 396 r \$0shaderLoaded;
#X obj 145 459 f;
#X obj 169 459 r \$0shaderLoaded;
#X msg 197 232 1;
#X obj -65 523 t b b;
#X connect 0 0 46 0;
#X connect 1 0 140 0;
#X connect 2 0 99 0;
#X connect 2 0 100 0;
#X connect 3 0 4 0;
#X connect 3 1 9 0;
#X connect 4 0 5 0;
#X connect 4 1 8 0;
#X connect 5 0 49 0;
#X connect 5 1 53 0;
#X connect 5 1 149 0;
#X connect 6 0 10 0;
#X connect 7 0 6 0;
#X connect 7 1 6 1;
#X connect 8 0 11 0;
#X connect 9 0 12 0;
#X connect 10 0 13 0;
#X connect 10 0 5 0;
#X connect 11 0 7 0;
#X connect 12 0 6 0;
#X connect 14 0 5 0;
#X connect 14 0 51 0;
#X connect 15 0 5 0;
#X connect 15 0 51 0;
#X connect 17 0 49 0;
#X connect 17 1 3 0;
#X connect 18 0 15 0;
#X connect 19 0 47 0;
#X connect 20 0 5 0;
#X connect 20 0 51 0;
#X connect 22 0 43 0;
#X connect 23 0 22 1;
#X connect 24 0 22 0;
#X connect 24 1 23 0;
#X connect 24 2 25 0;
#X connect 24 3 26 0;
#X connect 24 4 26 1;
#X connect 25 0 23 1;
#X connect 26 0 25 1;
#X connect 27 0 38 0;
#X connect 27 0 52 0;
#X connect 28 0 32 0;
#X connect 29 0 28 1;
#X connect 30 0 28 0;
#X connect 30 1 29 0;
#X connect 30 2 31 0;
#X connect 30 3 36 0;
#X connect 30 4 36 1;
#X connect 31 0 29 1;
#X connect 32 0 33 0;
#X connect 33 0 21 0;
#X connect 33 0 144 0;
#X connect 34 0 35 0;
#X connect 35 0 37 0;
#X connect 36 0 31 1;
#X connect 37 0 39 0;
#X connect 38 0 1 0;
#X connect 38 0 0 0;
#X connect 38 0 19 0;
#X connect 39 0 33 0;
#X connect 39 1 33 1;
#X connect 40 0 33 0;
#X connect 41 0 34 0;
#X connect 43 0 41 0;
#X connect 43 0 142 0;
#X connect 44 0 146 0;
#X connect 45 0 5 0;
#X connect 45 0 51 0;
#X connect 46 0 42 0;
#X connect 46 0 24 0;
#X connect 47 0 30 0;
#X connect 48 0 17 0;
#X connect 50 0 5 0;
#X connect 50 0 51 0;
#X connect 52 0 44 0;
#X connect 53 0 27 0;
#X connect 54 0 17 0;
#X connect 66 0 67 0;
#X connect 67 0 64 0;
#X connect 67 0 63 0;
#X connect 67 0 62 0;
#X connect 67 0 98 0;
#X connect 70 0 5 0;
#X connect 71 0 134 0;
#X connect 72 0 130 0;
#X connect 73 0 69 0;
#X connect 74 0 71 0;
#X connect 75 0 80 0;
#X connect 76 0 79 0;
#X connect 77 0 71 1;
#X connect 78 0 71 2;
#X connect 79 0 71 0;
#X connect 79 1 77 0;
#X connect 79 2 78 0;
#X connect 80 0 71 0;
#X connect 80 1 77 0;
#X connect 81 0 136 0;
#X connect 82 0 69 0;
#X connect 83 0 138 0;
#X connect 84 0 69 0;
#X connect 85 0 132 0;
#X connect 86 0 122 0;
#X connect 87 0 121 0;
#X connect 88 0 123 0;
#X connect 88 1 86 0;
#X connect 88 2 87 0;
#X connect 89 0 123 0;
#X connect 89 1 86 0;
#X connect 90 0 69 0;
#X connect 91 0 69 0;
#X connect 98 0 17 1;
#X connect 99 0 3 0;
#X connect 100 0 4 0;
#X connect 101 0 128 0;
#X connect 102 0 69 0;
#X connect 103 0 126 0;
#X connect 104 0 69 0;
#X connect 116 0 123 0;
#X connect 117 0 89 0;
#X connect 118 0 88 0;
#X connect 119 0 44 0;
#X connect 120 0 67 0;
#X connect 120 0 27 0;
#X connect 121 0 85 2;
#X connect 122 0 85 1;
#X connect 123 0 85 0;
#X connect 124 0 65 0;
#X connect 124 0 16 0;
#X connect 124 0 92 0;
#X connect 126 0 104 0;
#X connect 127 0 126 0;
#X connect 128 0 102 0;
#X connect 129 0 128 0;
#X connect 130 0 73 0;
#X connect 131 0 130 0;
#X connect 132 0 91 0;
#X connect 133 0 132 0;
#X connect 134 0 90 0;
#X connect 135 0 134 0;
#X connect 136 0 82 0;
#X connect 137 0 136 0;
#X connect 138 0 84 0;
#X connect 139 0 138 0;
#X connect 140 0 14 0;
#X connect 141 0 140 0;
#X connect 142 0 15 0;
#X connect 143 0 142 0;
#X connect 144 0 20 0;
#X connect 145 0 144 0;
#X connect 146 0 45 0;
#X connect 147 0 146 0;
#X connect 148 0 65 0;
#X connect 148 0 16 0;
#X connect 148 0 92 0;
#X connect 149 0 125 0;
#X connect 149 1 148 0;
#X coords 0 -1 1 1 190 390 1 300 100;
