#N canvas 558 248 645 580 10;
#X obj -51 24 loadbang;
#X obj -131 153 glsl_vertex;
#X obj -129 256 glsl_fragment;
#X obj -132 498 glsl_program;
#X obj -66 374 pack 0 0;
#X obj -48 344 t b f;
#X obj -52 279 change;
#X obj -65 178 change;
#X msg -66 396 link \$1 \$2;
#X floatatom -50 310 2 0 0 0 ID - -;
#X floatatom -65 201 2 0 0 0 ID - -;
#X obj 3 491 print linking;
#X obj 107 114 tgl 15 0 \$0-shadOn-snd \$0-shadOn-rcv on/off 17 7 0
10 -262144 -1 -1 1 1;
#X obj -182 90 demux 0 1;
#X obj -182 46 inlet gemlist;
#X obj -182 538 outlet gemlist;
#X obj 333 273 inlet link;
#X obj 184 503 outlet link;
#X obj -165 69 alpha;
#X msg 107 147 on \$1;
#X obj -66 57 symbol \$1;
#X msg -116 126 open \$1.vert;
#X obj -3 58 symbol \$2;
#X msg -3 220 open \$1.frag;
#X obj 17 22 bng 15 250 50 0 empty empty empty 17 7 0 10 -262144 -1
-1;
#X obj 333 304 route on reload;
#X obj 145 63 loadbang;
#X msg 144 86 1;
#X obj 77 305 b;
#X msg 73 385 linked;
#X obj 274 504 outlet linked;
#X obj 96 345 del 100;
#X connect 0 0 20 0;
#X connect 0 0 22 0;
#X connect 1 0 2 0;
#X connect 1 1 7 0;
#X connect 2 0 3 0;
#X connect 2 1 6 0;
#X connect 3 0 15 0;
#X connect 4 0 8 0;
#X connect 5 0 4 0;
#X connect 5 1 4 1;
#X connect 6 0 9 0;
#X connect 7 0 10 0;
#X connect 8 0 3 0;
#X connect 8 0 28 0;
#X connect 9 0 5 0;
#X connect 10 0 4 0;
#X connect 12 0 13 1;
#X connect 12 0 19 0;
#X connect 13 0 15 0;
#X connect 13 1 1 0;
#X connect 14 0 13 0;
#X connect 16 0 17 0;
#X connect 16 0 25 0;
#X connect 18 0 13 0;
#X connect 19 0 17 0;
#X connect 20 0 21 0;
#X connect 21 0 1 0;
#X connect 22 0 23 0;
#X connect 23 0 2 0;
#X connect 24 0 22 0;
#X connect 24 0 20 0;
#X connect 25 0 13 1;
#X connect 25 1 24 0;
#X connect 25 2 3 0;
#X connect 26 0 27 0;
#X connect 27 0 12 0;
#X connect 28 0 31 0;
#X connect 29 0 17 0;
#X connect 31 0 29 0;
#X connect 31 0 30 0;
#X coords 0 -1 1 1 30 30 1 100 100;
