#N canvas 586 178 645 580 10;
#X obj 120 153 hsl 150 15 -1 1 0 0 \$0-shadLum-snd \$0-shadLum-rcv
luminosite -2 -8 0 10 -257985 -1 -1 7450 1;
#X obj -114 18 loadbang;
#X obj -131 153 glsl_vertex;
#X obj -129 256 glsl_fragment;
#X obj -132 498 glsl_program;
#X msg -116 126 open texture.vert;
#X obj -66 374 pack 0 0;
#X obj -48 344 t b f;
#X obj -52 279 change;
#X obj -65 178 change;
#X msg -76 405 link \$1 \$2;
#X floatatom -50 310 2 0 0 0 ID - -;
#X floatatom -65 201 2 0 0 0 ID - -;
#X obj -74 429 print linking;
#X msg 64 345 B \$1;
#X msg 66 371 C \$1;
#X obj 107 120 tgl 15 0 \$0-shadOn-snd \$0-shadOn-rcv on/off 17 7 0
10 -262144 -1 -1 0 1;
#X obj -182 90 demux 0 1;
#X floatatom 140 348 5 0 0 0 - - -;
#X obj 120 211 hsl 150 15 0 3 0 0 \$0-shadSaturation-snd \$0-shadSaturation-rcv
saturation -2 -8 0 10 -4034 -1 -1 4967 1;
#X msg 78 396 S \$1;
#X floatatom 370 428 5 0 0 0 - - -;
#X obj 242 125 bng 15 250 50 0 empty empty reset 17 7 0 10 -4032 -1
-1;
#X msg 203 123 0;
#X obj 120 240 hsl 150 15 0 1 0 0 \$0-shadAlpha-snd \$0-shadAlpha-rcv
alphaGeneral -2 -8 0 10 -262130 -1 -1 14900 1;
#X msg 108 422 alpha \$1;
#X obj -182 46 inlet gemlist;
#X obj -182 538 outlet gemlist;
#X obj 333 273 inlet link;
#X obj 69 519 outlet link;
#X msg 268 111 1;
#X obj 239 62 t b;
#X obj -165 69 alpha;
#X msg -104 224 open contrast2.frag;
#X obj 333 304 route on;
#X msg 48 181 on \$1;
#X obj 122 185 hsl 150 15 0 3 0 0 \$0-shadContrast-snd \$0-shadContrast-rcv
contrast -2 -8 0 10 -260097 -1 -1 4967 1;
#X floatatom 207 543 5 0 0 0 - - -;
#X floatatom 116 490 5 0 0 0 - - -;
#X obj 209 454 * 1;
#X msg 280 149 1;
#X obj 209 477 pow 2;
#X obj 258 473 pow 2;
#X obj 307 485 *;
#X obj 333 483 *;
#X obj 319 454 t f f f f f;
#X obj 359 485 *;
#X obj 383 486 *;
#X obj 0 20 inlet l;
#X obj 57 24 inlet c;
#X obj 121 18 inlet s;
#X connect 0 0 45 0;
#X connect 1 0 5 0;
#X connect 1 0 33 0;
#X connect 2 0 3 0;
#X connect 2 1 9 0;
#X connect 3 0 4 0;
#X connect 3 1 8 0;
#X connect 4 0 27 0;
#X connect 4 1 31 0;
#X connect 5 0 2 0;
#X connect 6 0 10 0;
#X connect 7 0 6 0;
#X connect 7 1 6 1;
#X connect 8 0 11 0;
#X connect 9 0 12 0;
#X connect 10 0 13 0;
#X connect 10 0 4 0;
#X connect 11 0 7 0;
#X connect 12 0 6 0;
#X connect 14 0 4 0;
#X connect 14 0 29 0;
#X connect 15 0 4 0;
#X connect 15 0 29 0;
#X connect 16 0 17 1;
#X connect 16 0 35 0;
#X connect 17 0 27 0;
#X connect 17 1 2 0;
#X connect 18 0 15 0;
#X connect 19 0 42 0;
#X connect 20 0 4 0;
#X connect 20 0 29 0;
#X connect 22 0 23 0;
#X connect 22 0 30 0;
#X connect 22 0 40 0;
#X connect 23 0 0 0;
#X connect 24 0 25 0;
#X connect 25 0 4 0;
#X connect 25 0 29 0;
#X connect 26 0 17 0;
#X connect 28 0 29 0;
#X connect 28 0 34 0;
#X connect 30 0 24 0;
#X connect 31 0 22 0;
#X connect 32 0 17 0;
#X connect 33 0 3 0;
#X connect 34 0 17 1;
#X connect 34 1 4 0;
#X connect 35 0 29 0;
#X connect 36 0 39 0;
#X connect 39 0 41 0;
#X connect 40 0 36 0;
#X connect 40 0 19 0;
#X connect 41 0 15 0;
#X connect 41 0 37 0;
#X connect 42 0 20 0;
#X connect 44 0 43 1;
#X connect 45 0 43 0;
#X connect 45 1 44 0;
#X connect 45 2 46 0;
#X connect 45 3 47 0;
#X connect 45 4 47 1;
#X connect 46 0 44 1;
#X connect 46 0 14 0;
#X connect 47 0 46 1;
#X connect 48 0 0 0;
#X connect 49 0 36 0;
#X connect 50 0 19 0;
#X coords 0 -1 1 1 190 160 1 100 100;
