#N canvas 1977 334 450 300 10;
#X obj -2 49 hsl 128 15 0 1 0 0 empty empty empty -2 -8 0 10 -262144
-1 -1 5933 1;
#X floatatom 155 102 5 0 0 0 - - -;
#X obj 35 197 list prepend TALK _all_;
#X obj 31 226 s \$1-toserver;
#X obj 149 -3 inlet;
#X obj 46 131 list prepend gratin \$3;
#X connect 0 0 1 0;
#X connect 0 0 5 0;
#X connect 2 0 3 0;
#X connect 4 0 0 0;
#X connect 5 0 2 0;
