#N canvas 478 196 991 703 10;
#X declare -path ~/Documents/Fraise2.1/lib/Fraise/pd/;
#X declare -path ~/Pd/build/linux/;
#X declare -path ~/Pd/Demo;
#X declare -lib flatgui;
#X declare -path /usr/lib/pd-extended/extra/list-abs/;
#X declare -lib moonlib;
#X declare -path /usr/lib/pd-extended/extra/list-abs/;
#X declare -path /usr/lib/pd-extended/extra/list-abs/;
#X declare -path /usr/lib/pd-extended/extra/list-abs/;
#X declare -path /usr/lib/pd-extended/extra/list-abs/;
#X declare -path /usr/lib/pd-extended/extra/list-abs/;
#X declare -path /usr/lib/pd-extended/extra/list-abs/;
#X declare -path /usr/lib/pd-extended/extra/list-abs/;
#X declare -path /usr/lib/pd-extended/extra/list-abs/;
#X declare -path /usr/lib/pd-extended/extra/list-abs/;
#X obj 51 11 cnv 15 40 570 empty empty \$1 1 5 1 8 -257985 -1 0;
#X text 23 -16 KEPtype nomUnique;
#X obj 126 519 l MASTERtypeIN \$1 1;
#X obj 127 497 l MASTERtypeOUT\$1 1;
#X obj 112 5 l KEPface \$1;
#X obj 58 569 bng 10 250 50 0 empty empty empty 17 7 0 10 -4034 -1
-1;
#X obj 75 569 bng 10 250 50 0 empty empty empty 17 7 0 10 -258113 -1
-1;
#X obj 54 110 MASTERtypeOUT \$1 1;
#X obj 126 552 l MASTERtypeNO_IN;
#N canvas 1710 427 311 407 KEPboutons 0;
#X obj 188 142 tLock \$1 1/1;
#X obj 188 162 tLock \$1 1/2;
#X obj 189 182 tLock \$1 1/3;
#X obj 189 202 tLock \$1 1/4;
#X obj 8 30 KEPbus \$1 Phrases Phrases_max b2;
#X obj 8 97 KEPbus \$1 Volume Volume_max b5;
#X obj 9 139 KEPbus \$1 1/1 -t1- t1;
#X obj 7 160 KEPbus \$1 1/2 -t2- t2;
#X obj 8 182 KEPbus \$1 1/3 -t3- t3;
#X obj 9 203 KEPbus \$1 1/4 -t4- t4;
#X obj 9 227 KEPbus \$1 Lock -tL- tREC;
#X obj 15 265 KEPbus \$1 l1 -l1- tl1;
#X obj 15 288 KEPbus \$1 l2 -l2- tl2;
#X obj 17 310 KEPbus \$1 l3 -l3- tl3;
#X obj 17 331 KEPbus \$1 l4 -l4- tl4;
#X obj 12 356 KEPbus \$1 lR -lR- tlREC;
#X obj 148 260 KEPbus \$1 lr -lr- lrouge;
#X obj 148 283 KEPbus \$1 lv -lv- lvert;
#X obj 8 8 KEPbus \$1 LyreX LyreXmou b1;
#X obj 8 75 KEPbus \$1 LyreY LyreYmou b4;
#X obj 8 53 KEPbus \$1 LyreZ LyreZmou b3;
#X restore 150 463 pd KEPboutons;
#X obj 268 472 tgl 15 1 empty empty empty 17 7 0 10 -262144 -1 -1 1
1;
#X obj 267 490 switch~;
#X obj 105 27 KEPface \$1;
#X obj 54 22 MASTERtypeNO_IN \$0;
#X obj 34 611 KEPCommon \$1 \$0;
#X obj 130 431 declare -path ~/Documents/Fraise2.1/lib/Fraise/pd/;
#N canvas 1601 324 983 450 Serveur 0;
#X obj 50 59 PdClient \$0 Local;
#X obj 230 77 spigot;
#X obj 282 84 tgl 15 0 empty empty empty 17 7 0 10 -262144 -1 -1 0
1;
#X obj 230 105 print;
#X obj 230 47 r \$0-fromclients;
#X obj 55 177 route fader1;
#X obj 55 210 vsl 15 128 0 1 0 0 empty empty empty 0 -9 0 10 -262144
-1 -1 6350 1;
#X obj 57 404 s \$0-toclients;
#X msg 51 358 Local bonjour;
#X obj 244 175 r \$0-fromserver;
#X msg 75 379 _all_ bonjour;
#X obj 209 376 s \$0-toserver;
#X msg 208 344 TALK _all_ bonjour je suis Arsene;
#X msg 203 310 TALK _all_ BCF3000 fader1 101;
#X obj 244 223 route fader;
#X obj 177 230 spigot;
#X obj 229 237 tgl 15 0 empty empty empty 17 7 0 10 -262144 -1 -1 0
1;
#X obj 177 258 print;
#X obj 55 105 r \$0-fromserver;
#X obj 361 283 s \$0-toserver;
#X floatatom 369 225 5 0 0 0 - - -;
#X msg 355 255 TALK Synth note \$1;
#X obj 360 120 hsl 128 15 0 127 0 0 empty empty empty -2 -8 0 10 -262144
-1 -1 0 1;
#X obj 244 200 route BCF3000;
#X obj 472 29 r \$0-fromserver;
#X obj 472 54 route Lyre;
#X obj 471 75 route X Y;
#X floatatom 468 99 5 0 0 0 - - -;
#X floatatom 506 99 5 0 0 0 - - -;
#X obj 520 144 print;
#X obj 55 137 route nanokontrol;
#X msg 454 318 TALK _all_ Lyre setX \$1;
#X obj 465 292 hsl 128 15 0 1 0 0 empty empty empty -2 -8 0 10 -262144
-1 -1 0 1;
#X obj 461 351 hsl 128 15 0 1 0 0 empty empty empty -2 -8 0 10 -262144
-1 -1 0 1;
#X msg 450 377 TALK _all_ Lyre setY \$1;
#X connect 1 0 3 0;
#X connect 2 0 1 1;
#X connect 4 0 1 0;
#X connect 5 0 6 0;
#X connect 8 0 7 0;
#X connect 9 0 15 0;
#X connect 9 0 23 0;
#X connect 10 0 7 0;
#X connect 12 0 11 0;
#X connect 13 0 11 0;
#X connect 15 0 17 0;
#X connect 16 0 15 1;
#X connect 18 0 30 0;
#X connect 20 0 21 0;
#X connect 21 0 19 0;
#X connect 22 0 20 0;
#X connect 24 0 25 0;
#X connect 25 0 26 0;
#X connect 26 0 27 0;
#X connect 26 1 28 0;
#X connect 30 0 5 0;
#X connect 31 0 11 0;
#X connect 32 0 31 0;
#X connect 33 0 34 0;
#X connect 34 0 11 0;
#X restore 234 622 pd Serveur;
#X obj 134 408 declare -path ~/Pd/build/linux/;
#X obj 132 383 declare -path ~/Pd/Demo;
#X obj 146 327 s \$0-toserver;
#X msg 145 295 TALK _all_ bonjour je suis Arsene;
#X msg 140 261 TALK _all_ BCF3000 fader1 101;
#X msg 106 222 TALK _all_ Lyre setX \$1;
#X obj 117 196 hsl 128 15 0 1 0 0 empty empty empty -2 -8 0 10 -262144
-1 -1 8137 1;
#X obj 286 191 hsl 128 15 0 1 0 0 empty empty empty -2 -8 0 10 -262144
-1 -1 7696 1;
#X msg 282 217 TALK _all_ Lyre setY \$1;
#X obj 115 142 r \$1-LyreX;
#X floatatom 170 170 0 0 0 0 - - -;
#X floatatom 306 170 5 0 0 0 - - -;
#X obj 261 140 r \$1-LyreY;
#X obj 460 199 hsl 128 15 0 1 0 0 empty empty empty -2 -8 0 10 -262144
-1 -1 3645 1;
#X floatatom 471 178 5 0 0 0 - - -;
#X obj 472 222 maxlib/scale 0 1 400 1100;
#X floatatom 494 263 5 0 0 0 - - -;
#X obj 457 157 r \$1-LyreZ;
#X msg 459 312 TALK _all_ LyreScreen z \$1;
#X msg 440 92 0.432;
#X obj 448 28 bng 15 250 50 0 empty empty empty 17 7 0 10 -262144 -1
-1;
#X obj 537 46 r \$1-1/1;
#X msg 364 49 set \$1;
#X obj 357 122 s \$1-b1-rcv;
#X obj 437 120 s \$1-b4-rcv;
#X obj 519 120 s \$1-b3-rcv;
#X msg 465 409 TALK _all_ LyreScreen autox \$1;
#X obj 462 352 r \$1-1/2;
#X msg 467 376 0;
#X floatatom 549 453 5 0 0 0 - - -;
#X obj 471 586 s \$0-toclients;
#X msg 489 561 _all_ bonjour;
#X msg 465 539 KEPbouton \$1;
#X obj 593 581 s \$0-toserveur;
#X obj 671 233 r \$1-Phrases;
#X obj 523 646 print;
#X obj 410 606 r \$0-fromserveur;
#X msg 296 241 TALK _all_ Lyre setY \$1;
#X obj 645 621 print;
#X obj 592 525 list prepend TALK _all_;
#X obj 592 502 list prepend gratin b1;
#X obj 676 288 gratin \$0 gratin b1;
#X obj 699 151 nano \$0;
#X msg 361 94 0.482182;
#X msg 522 76 0.951;
#X obj 615 469 list prepend TALK _all_;
#X obj 615 446 list prepend gratin b1;
#X obj 658 333 r \$1-Volume;
#X obj 664 387 gratin \$0 gratin b5;
#X connect 5 0 14 0;
#X connect 6 0 14 1;
#X connect 10 0 11 0;
#X connect 20 0 19 0;
#X connect 21 0 19 0;
#X connect 22 0 19 0;
#X connect 23 0 22 0;
#X connect 24 0 25 0;
#X connect 24 0 54 0;
#X connect 26 0 27 0;
#X connect 26 0 23 0;
#X connect 29 0 28 0;
#X connect 29 0 24 0;
#X connect 30 0 32 0;
#X connect 32 0 33 0;
#X connect 32 0 35 0;
#X connect 34 0 31 0;
#X connect 34 0 30 0;
#X connect 35 0 19 0;
#X connect 36 0 41 0;
#X connect 37 0 60 0;
#X connect 37 0 36 0;
#X connect 37 0 61 0;
#X connect 38 0 37 0;
#X connect 44 0 45 0;
#X connect 45 0 43 0;
#X connect 48 0 47 0;
#X connect 49 0 47 0;
#X connect 51 0 46 0;
#X connect 51 0 58 0;
#X connect 54 0 19 0;
#X connect 56 0 50 0;
#X connect 57 0 56 0;
#X connect 60 0 40 0;
#X connect 61 0 42 0;
#X connect 63 0 62 0;
#X connect 64 0 65 0;
#X coords 0 -1 1 1 42 572 2 50 10;
