#N canvas 1600 64 1440 836 10;
#X declare -lib flatgui;
#X declare -path /usr/lib/pd-extended/extra/list-abs/;
#X declare -path /usr/lib/pd-extended/extra/list-abs/;
#X declare -path /usr/lib/pd-extended/extra/list-abs/;
#X declare -lib moonlib;
#X declare -path /usr/lib/pd-extended/extra/list-abs/;
#X declare -path /usr/lib/pd-extended/extra/list-abs/;
#X declare -path /usr/lib/pd-extended/extra/list-abs/;
#X declare -path /usr/lib/pd-extended/extra/list-abs/;
#X declare -path /usr/lib/pd-extended/extra/list-abs/;
#X declare -path /usr/lib/pd-extended/extra/list-abs/;
#X declare -path /usr/lib/pd-extended/extra/list-abs/;
#X obj 1755 371 r \$0-fromserver;
#X obj 1779 428 spigot;
#X obj 1634 482 print;
#X obj 1833 416 tgl 15 0 empty empty empty 17 7 0 10 -262144 -1 -1
0 1;
#X text 961 -343 comment;
#X obj 1646 446 route Lyre LyreScreen;
#X obj 266 159 import flatgui;
#X obj 93 -290 linkCtlToAction \$1;
#X obj 97 -211 linkCtlToAction \$1;
#X obj 91 -127 linkCtlToAction \$1;
#X obj 688 102 midi \$1 nanokontrol;
#X obj 391 139 lyre-mon \$1;
#X obj 94 -44 linkCtlToAction \$1;
#X obj 92 34 linkCtlToAction \$1;
#X obj 734 33 linkCtlToAction \$1;
#X obj 739 -46 linkCtlToAction \$1;
#X obj 737 -128 linkCtlToAction \$1;
#X obj 738 -218 linkCtlToAction \$1;
#X obj 736 -299 linkCtlToAction \$1;
#X connect 0 0 1 0;
#X connect 1 0 5 0;
#X connect 3 0 1 1;
#X connect 5 2 2 0;
