#N canvas 2436 321 467 756 10;
#X obj 1 1 cnv 15 40 570 empty empty \$1 1 5 1 8 -257985 -1 0;
#X floatatom -64 84 5 0 0 0 - - -;
#X obj -60 33 bng 15 250 50 0 empty empty empty 17 7 0 10 -262144 -1
-1;
#X obj -65 52 init 2;
#X text -27 -26 KEPtype nomUnique;
#X obj 95 563 vsl 15 128 0 1 0 0 \$1-del1_time-snd \$1-del1_time-rcv
del1_time 0 -9 0 10 -262144 -1 -1 11776 1;
#X obj 57 17 KEPface \$1;
#X obj 47 473 MORPHgroup \$1 FX;
#X obj 8 559 bng 10 250 50 0 empty empty empty 17 7 0 10 -4034 -1 -1
;
#X obj 25 559 bng 10 250 50 0 empty empty empty 17 7 0 10 -258113 -1
-1;
#X obj 172 545 param \$1 FX del1_time;
#X obj 4 100 MASTERtypeOUT \$1 1;
#X floatatom 47 432 5 0 0 0 - - -;
#X floatatom 165 434 5 0 0 0 - - -;
#X obj 4 12 MASTERtypeIN \$1 1 \$0;
#X obj -16 601 KEPCommon \$1 \$0;
#N canvas 1786 734 311 268 KEPboutons 0;
#X obj 8 8 KEPbus \$1 Bouton1 Bouton1_shift b1;
#X obj 8 30 KEPbus \$1 Bouton2 Bouton2_shift b2;
#X obj 8 53 KEPbus \$1 Effet1 Effet2 b3;
#X obj 8 75 KEPbus \$1 Bouton4 Bouton4_shift b4;
#X obj 8 97 KEPbus \$1 Volume Volume_shift b5;
#X obj 9 139 KEPbus \$1 tog1 -t1- t1;
#X obj 7 160 KEPbus \$1 tog2 -t2- t2;
#X obj 8 182 KEPbus \$1 tog3 -t3- t3;
#X obj 9 203 KEPbus \$1 tog4 -t4- t4;
#X obj 9 227 KEPbus \$1 togR -tR- tREC;
#X restore 55 128 pd KEPboutons;
#X obj 83 386 tgl 15 1 empty empty empty 17 7 0 10 -262144 -1 -1 1
1;
#X obj 82 404 switch~;
#X obj 180 158 t b;
#X obj 180 138 r SYNCHRO-clock;
#X obj 180 178 s \$1-lrouge-rcv;
#X obj 55 160 r \$1-tog1;
#X obj 55 181 s \$1-tl1-rcv;
#X obj 56 202 r \$1-tog2;
#X obj 56 223 s \$1-tl2-rcv;
#X obj 57 244 r \$1-tog3;
#X obj 57 265 s \$1-tl3-rcv;
#X obj 58 286 r \$1-tog4;
#X obj 58 307 s \$1-tl4-rcv;
#X obj 59 328 r \$1-togR;
#X obj 59 349 s \$1-tlREC-rcv;
#X obj 153 231 r \$1-Bouton1;
#X floatatom 153 254 5 0 0 0 - - -;
#X floatatom 190 278 5 0 0 0 - - -;
#X obj 190 255 r \$1-Bouton1_shift;
#X floatatom 170 335 5 0 0 0 - - -;
#X floatatom 207 359 5 0 0 0 - - -;
#X obj 170 312 r \$1-Volume;
#X obj 207 336 r \$1-Volume_shift;
#X obj 47 448 r \$1-Effet1;
#X obj 165 451 r \$1-Effet2;
#X obj 57 -5 l MASTERtypeIN \$1 2 \$0;
#X obj -76 115 Vmull~ 0 10;
#X obj 142 592 l orfilter \$1 FX orfilter1;
#X obj 142 612 orfilter \$1 FX orfilter1;
#X connect 1 0 43 1;
#X connect 2 0 3 0;
#X connect 3 0 1 0;
#X connect 8 0 15 0;
#X connect 9 0 15 1;
#X connect 14 0 43 0;
#X connect 17 0 18 0;
#X connect 19 0 21 0;
#X connect 20 0 19 0;
#X connect 22 0 23 0;
#X connect 24 0 25 0;
#X connect 26 0 27 0;
#X connect 28 0 29 0;
#X connect 30 0 31 0;
#X connect 32 0 33 0;
#X connect 35 0 34 0;
#X connect 38 0 36 0;
#X connect 39 0 37 0;
#X connect 40 0 7 0;
#X connect 40 0 12 0;
#X connect 41 0 13 0;
#X connect 43 0 11 0;
#X coords 0 -1 1 1 42 572 2 0 0;
