#N canvas 2260 171 562 727 10;
#X obj 51 11 cnv 15 40 115 empty empty \$1 1 5 1 8 -257985 -1 0;
#X text 23 -16 KEPtype nomUnique;
#X obj 199 506 l MASTERtypeIN \$1 1;
#X obj 200 484 l MASTERtypeOUT\$1 1;
#X obj 112 5 l KEPface \$1;
#X obj 58 111 bng 10 250 50 0 empty empty empty 17 7 0 10 -4034 -1
-1;
#X obj 75 111 bng 10 250 50 0 empty empty empty 17 7 0 10 -258113 -1
-1;
#X obj 199 539 l MASTERtypeNO_IN;
#N canvas 2005 466 311 407 KEPboutons 0;
#X obj 188 142 tLock \$1 1/1;
#X obj 188 162 tLock \$1 1/2;
#X obj 189 182 tLock \$1 1/3;
#X obj 189 202 tLock \$1 1/4;
#X obj 8 53 KEPbus \$1 Effet Decay b3;
#X obj 9 139 KEPbus \$1 1/1 -t1- t1;
#X obj 7 160 KEPbus \$1 1/2 -t2- t2;
#X obj 8 182 KEPbus \$1 1/3 -t3- t3;
#X obj 9 203 KEPbus \$1 1/4 -t4- t4;
#X obj 9 227 KEPbus \$1 Lock -tL- tREC;
#X obj 15 265 KEPbus \$1 l1 -l1- tl1;
#X obj 15 288 KEPbus \$1 l2 -l2- tl2;
#X obj 17 310 KEPbus \$1 l3 -l3- tl3;
#X obj 17 331 KEPbus \$1 l4 -l4- tl4;
#X obj 12 356 KEPbus \$1 lR -lR- tlREC;
#X obj 148 260 KEPbus \$1 lr -lr- lrouge;
#X obj 148 283 KEPbus \$1 lv -lv- lvert;
#X obj 8 97 KEPbus \$1 Volume Volume b5;
#X obj 8 8 KEPbus \$1 Vitesse Vitesse b1;
#X obj 8 30 KEPbus \$1 Phrases Phrases b2;
#X obj 8 75 KEPbus \$1 Reverb Reverb b4;
#X restore 200 419 pd KEPboutons;
#X obj 318 428 tgl 15 1 empty empty empty 17 7 0 10 -262144 -1 -1 1
1;
#X obj 317 446 switch~;
#X obj 178 143 cnv 15 336 250 \$1-seq0-STEPcan-snd \$1-seq0-STEPcan-rcv
empty 20 12 0 14 -24198 -262144 0;
#N canvas 1281 517 262 382 sel_color_STEP 0;
#X obj 52 -96 change;
#X obj 52 -142 + 0.5;
#X obj 52 -120 i;
#X obj 52 -167 * 8;
#X obj 103 -76 STEPcolor \$1 0;
#X obj 102 -54 STEPcolor \$1 1;
#X obj 103 -32 STEPcolor \$1 2;
#X obj 103 -10 STEPcolor \$1 3;
#X obj 104 12 STEPcolor \$1 4;
#X obj 104 35 STEPcolor \$1 5;
#X obj 103 57 STEPcolor \$1 6;
#X obj 104 79 STEPcolor \$1 7;
#X obj 105 103 STEPcolor \$1 8;
#X obj 51 -234 r \$1-Phrases;
#X obj 67 -212 r \$1-Phrases_max;
#X floatatom 128 -171 5 0 0 0 - - -;
#X obj 52 -189 m 1;
#X connect 0 0 4 0;
#X connect 0 0 5 0;
#X connect 0 0 6 0;
#X connect 0 0 7 0;
#X connect 0 0 8 0;
#X connect 0 0 9 0;
#X connect 0 0 10 0;
#X connect 0 0 11 0;
#X connect 0 0 12 0;
#X connect 1 0 2 0;
#X connect 2 0 0 0;
#X connect 2 0 15 0;
#X connect 3 0 1 0;
#X connect 13 0 16 0;
#X connect 14 0 16 1;
#X connect 16 0 3 0;
#X restore 202 398 pd sel_color_STEP;
#X obj 105 27 KEPface \$1;
#X obj 54 22 MASTERtypeNO_IN \$0;
#X obj 37 159 KEPCommon \$1 \$0;
#X obj 184 149 STEPseq \$1 seq1;
#X obj 349 149 STEPseq \$1 seq2;
#X obj 184 210 STEPseq \$1 seq3;
#X obj 349 210 STEPseq \$1 seq4;
#X obj 184 271 STEPseq \$1 seq5;
#X obj 349 271 STEPseq \$1 seq6;
#X obj 183 332 STEPseq \$1 seq7;
#X obj 349 332 STEPseq \$1 seq8;
#X obj 422 510 param;
#N canvas 1692 429 667 474 bang 0;
#X obj 231 -403 t b;
#X obj 231 -425 r SYNCHRO-clock;
#N canvas 2952 246 199 392 touches 0;
#X obj 51 46 ++;
#X obj 51 94 ++;
#X obj 51 70 ++;
#X obj 51 118 sel 0;
#X msg 51 144 -1;
#X obj 24 173 inlet;
#X obj 24 282 outlet;
#X obj 24 237 spigot;
#X obj 78 204 != -1;
#X obj 32 259 bng 15 250 50 0 empty empty empty 17 7 0 10 -262144 -1
-1;
#X obj 78 176 pipe 1;
#X obj 78 230 change;
#X obj 78 253 sel 1;
#X obj 78 286 bng 15 250 50 0 empty empty empty 17 7 0 10 -262144 -1
-1;
#X obj 51 2 r \$1-1/1-lock;
#X obj 66 24 r \$1-1/2-lock;
#X obj 82 48 r \$1-1/3-lock;
#X obj 80 73 r \$1-1/4-lock;
#X connect 0 0 2 0;
#X connect 1 0 3 0;
#X connect 2 0 1 0;
#X connect 3 0 4 0;
#X connect 3 1 10 0;
#X connect 4 0 10 0;
#X connect 5 0 7 0;
#X connect 7 0 6 0;
#X connect 7 0 9 0;
#X connect 8 0 7 1;
#X connect 8 0 11 0;
#X connect 10 0 8 0;
#X connect 11 0 12 0;
#X connect 12 0 6 0;
#X connect 12 0 13 0;
#X connect 14 0 0 0;
#X connect 15 0 0 1;
#X connect 16 0 2 1;
#X connect 17 0 1 1;
#X restore 55 -490 pd touches;
#N canvas 567 332 708 443 Vitesse 0;
#X obj 140 365 outlet;
#X obj 102 96 i;
#X obj 150 324 t a;
#X obj 99 131 change -1;
#X obj 408 54 i;
#X obj 376 295 t a;
#X obj 408 85 change -1;
#X obj 408 6 r \$0-Tempo-snd;
#X obj 66 319 bng 15 250 50 0 empty empty empty 17 7 0 10 -262144 -1
-1;
#X obj 102 16 r \$0-Tempo-snd;
#X obj 102 42 * 7.9;
#X msg 48 185 1;
#X msg 81 205 2;
#X msg 111 221 3;
#X msg 133 198 4;
#X msg 153 228 6;
#X msg 169 196 8;
#X msg 183 221 12;
#X msg 215 235 16;
#X obj 102 70 + 0;
#X obj 99 154 sel 0 1 2 3 4 5 6 7;
#X obj 407 113 sel 0 1 2 3 4 5 6 7;
#X msg 357 147 1;
#X msg 390 167 2;
#X msg 420 183 3;
#X msg 439 161 4;
#X msg 459 194 6;
#X msg 478 159 8;
#X msg 492 183 12;
#X msg 518 198 16;
#X obj 408 32 * 7.9;
#X msg 376 340 label \$1;
#X obj 376 361 s \$0-Tempo-rcv;
#X msg 376 340 label \$1;
#X obj 376 361 s \$0-Tempo-rcv;
#X obj 376 319 makesymbol %s;
#X connect 1 0 3 0;
#X connect 2 0 0 0;
#X connect 3 0 20 0;
#X connect 4 0 6 0;
#X connect 5 0 35 0;
#X connect 6 0 21 0;
#X connect 7 0 30 0;
#X connect 9 0 10 0;
#X connect 10 0 19 0;
#X connect 11 0 2 0;
#X connect 12 0 2 0;
#X connect 13 0 2 0;
#X connect 14 0 2 0;
#X connect 15 0 2 0;
#X connect 16 0 2 0;
#X connect 17 0 2 0;
#X connect 18 0 2 0;
#X connect 19 0 1 0;
#X connect 20 0 11 0;
#X connect 20 1 12 0;
#X connect 20 2 13 0;
#X connect 20 3 14 0;
#X connect 20 4 15 0;
#X connect 20 5 16 0;
#X connect 20 6 17 0;
#X connect 20 7 18 0;
#X connect 21 0 22 0;
#X connect 21 1 23 0;
#X connect 21 2 24 0;
#X connect 21 3 25 0;
#X connect 21 4 26 0;
#X connect 21 5 27 0;
#X connect 21 6 28 0;
#X connect 21 7 29 0;
#X connect 22 0 5 0;
#X connect 23 0 5 0;
#X connect 24 0 5 0;
#X connect 25 0 5 0;
#X connect 26 0 5 0;
#X connect 27 0 5 0;
#X connect 28 0 5 0;
#X connect 29 0 5 0;
#X connect 30 0 4 0;
#X connect 31 0 32 0;
#X connect 33 0 34 0;
#X connect 35 0 31 0;
#X restore 55 -560 pd Vitesse;
#N canvas 1852 353 740 507 trig 0;
#X obj 160 67 outlet;
#X obj 160 -97 NDmetro;
#X obj 160 44 sel 0;
#X obj 147 -207 spigot;
#X msg 264 -183 -1;
#X obj 265 -245 t f f;
#X obj 264 -206 sel 0;
#X msg 216 -209 \$2 \$1;
#X obj 216 -185 /;
#X obj 205 -128 pack 1 1;
#X obj 216 -162 t b f;
#X obj 161 9 tabread \$0-tt;
#X obj 399 -181 s \$0-tt;
#X msg 371 -248 8 0 1 0 1 0 0 1 0;
#X obj 161 -51 + 1;
#X obj 279 -43 tabread \$0-tt;
#X msg 279 -65 0;
#X obj 371 -223 t b a;
#X obj 183 -280 inlet ND;
#X obj 109 61 bng 15 250 50 0 empty empty empty 17 7 0 10 -262144 -1
-1;
#X obj 80 -155 bng 15 250 50 0 empty empty empty 17 7 0 10 -262144
-1 -1;
#X obj 341 -208 tgl 15 0 empty empty empty 17 7 0 10 -262144 -1 -1
1 1;
#X floatatom 308 -5 5 0 0 0 - - -;
#X floatatom 95 22 5 0 0 0 - - -;
#X msg 306 -99 set \$1;
#X symbolatom 510 -43 0 0 0 0 - - -;
#X obj 499 -115 change;
#X obj 499 -158 + 0.5;
#X obj 499 -136 i;
#X obj 499 -183 * 8;
#X floatatom 499 -92 5 0 0 0 - - -;
#X obj 279 -121 t b s;
#X obj 371 -160 symbol \$0-tt;
#X obj 374 -128 table \$0-tt 64;
#X obj 147 -239 r SYNCHRO-clock;
#X floatatom 89 -65 5 0 0 0 - - -;
#X floatatom 283 -151 5 0 0 0 - - -;
#X obj 265 -266 r \$0-onoff;
#X floatatom 116 105 5 0 0 0 - - -;
#X floatatom 49 -27 5 0 0 0 - - -;
#X obj 398 -202 list prepend O;
#X obj 500 -69 makesymbol \$1-STEP-seq%s;
#X obj 506 -13 table \$1-STEP-seq0 64;
#X obj 506 7 table \$1-STEP-seq1 64;
#X obj 505 27 table \$1-STEP-seq2 64;
#X obj 505 47 table \$1-STEP-seq3 64;
#X obj 505 67 table \$1-STEP-seq4 64;
#X obj 505 87 table \$1-STEP-seq5 64;
#X obj 504 107 table \$1-STEP-seq6 64;
#X obj 504 127 table \$1-STEP-seq7 64;
#X obj 504 149 table \$1-STEP-seq8 64;
#X obj 131 -85 bng 15 250 50 0 empty empty empty 17 7 0 10 -262144
-1 -1;
#X obj 597 -106 s \$1-STEP-seq0;
#X obj 597 -162 loadbang;
#X msg 597 -137 const 1 \, 0 64 \, 1 0;
#X obj 498 -250 r \$1-Phrases;
#X obj 514 -228 r \$1-Phrases_max;
#X obj 251 124 s \$1-toNet;
#X obj 166 -26 t f f;
#X obj 221 55 pack f f;
#X obj 219 34 == 0;
#X msg 215 83 step \$2 \$1;
#X msg 291 81 nd \$2 \$1;
#X floatatom 554 -176 5 0 0 0 - - -;
#X floatatom 551 -200 5 0 0 0 - - -;
#X obj 500 -206 m 1;
#X obj 160 -73 spigot;
#X obj 219 -98 unpack f f;
#X obj 218 -77 != 0;
#N canvas 684 128 460 394 calctab 0;
#X obj 154 5 inlet;
#X obj 178 131 tabread \$0-tt;
#X msg 188 52 set \$1;
#X msg 171 81 1 \, 2 \, 3 \, 4 \, 5 \, 6 \, 7 \, 8 \, 9 \, 10;
#X obj 153 26 t b b s b;
#X obj 171 104 t f f;
#X obj 193 153 - 1;
#X obj 178 173 <<;
#X obj 179 198 +;
#X obj 208 198 f;
#X msg 222 174 0;
#X obj 167 223 f;
#X obj 167 246 outlet;
#X connect 0 0 4 0;
#X connect 1 0 7 0;
#X connect 2 0 1 0;
#X connect 3 0 5 0;
#X connect 4 0 11 0;
#X connect 4 1 3 0;
#X connect 4 2 2 0;
#X connect 4 3 10 0;
#X connect 5 0 1 0;
#X connect 5 1 6 0;
#X connect 6 0 7 1;
#X connect 7 0 8 0;
#X connect 8 0 9 0;
#X connect 8 0 11 1;
#X connect 9 0 8 1;
#X connect 10 0 9 0;
#X connect 11 0 12 0;
#X restore 367 68 pd calctab;
#X msg 367 89 tab \$1;
#X connect 1 0 66 0;
#X connect 2 0 0 0;
#X connect 3 0 1 0;
#X connect 3 0 35 0;
#X connect 4 0 1 0;
#X connect 5 0 6 0;
#X connect 5 1 3 1;
#X connect 5 1 21 0;
#X connect 6 0 4 0;
#X connect 7 0 8 0;
#X connect 8 0 10 0;
#X connect 9 0 1 1;
#X connect 10 0 9 0;
#X connect 10 1 9 1;
#X connect 10 1 36 0;
#X connect 11 0 2 0;
#X connect 11 0 38 0;
#X connect 11 0 60 0;
#X connect 13 0 17 0;
#X connect 14 0 23 0;
#X connect 14 0 58 0;
#X connect 15 0 22 0;
#X connect 16 0 15 0;
#X connect 17 0 32 0;
#X connect 17 1 40 0;
#X connect 18 0 1 1;
#X connect 18 0 62 0;
#X connect 18 0 67 0;
#X connect 24 0 15 0;
#X connect 24 0 11 0;
#X connect 26 0 30 0;
#X connect 27 0 28 0;
#X connect 28 0 26 0;
#X connect 29 0 27 0;
#X connect 30 0 41 0;
#X connect 31 0 16 0;
#X connect 31 1 24 0;
#X connect 34 0 3 0;
#X connect 37 0 5 0;
#X connect 40 0 12 0;
#X connect 41 0 25 0;
#X connect 41 0 31 0;
#X connect 41 0 69 0;
#X connect 53 0 54 0;
#X connect 54 0 52 0;
#X connect 55 0 65 0;
#X connect 56 0 64 0;
#X connect 56 0 65 1;
#X connect 58 0 11 0;
#X connect 58 1 59 1;
#X connect 59 0 61 0;
#X connect 60 0 59 0;
#X connect 61 0 57 0;
#X connect 62 0 57 0;
#X connect 65 0 29 0;
#X connect 66 0 14 0;
#X connect 67 0 68 0;
#X connect 68 0 66 1;
#X connect 69 0 70 0;
#X connect 70 0 57 0;
#X restore 55 -512 pd trig;
#X obj 173 -512 MORPHgroup \$1 FX;
#X floatatom 173 -561 5 0 0 0 - - -;
#N canvas 2104 485 313 391 vitesse_push 0;
#X obj 56 278 outlet;
#X obj 74 11 inlet;
#X obj 132 93 ++;
#X obj 147 66 * 2;
#X obj 132 160 ++;
#X obj 147 139 * 3;
#X obj 147 206 * 4;
#X obj 132 230 ++;
#X obj 74 221 t b f;
#X obj 56 253 pack f 1;
#X floatatom 132 265 5 0 0 0 - - -;
#X obj 169 342 s \$1-STEPnum;
#X obj 132 11 r \$1-1/1-lock;
#X obj 147 43 r \$1-1/2-lock;
#X obj 147 114 r \$1-1/3-lock;
#X obj 147 182 r \$1-1/4-lock;
#X connect 1 0 8 0;
#X connect 2 0 4 0;
#X connect 3 0 2 1;
#X connect 4 0 7 0;
#X connect 5 0 4 1;
#X connect 6 0 7 1;
#X connect 7 0 10 0;
#X connect 7 0 9 0;
#X connect 7 0 11 0;
#X connect 8 0 9 0;
#X connect 8 1 9 1;
#X connect 9 0 0 0;
#X connect 12 0 2 0;
#X connect 13 0 3 0;
#X connect 14 0 5 0;
#X connect 15 0 6 0;
#X restore 55 -537 pd vitesse_push;
#X obj 348 -349 nbx 5 14 -1e+37 1e+37 0 0 \$0-Tempo-snd \$0-Tempo-rcv
6 5 -8 0 10 -262144 -1 -1 0.521515 256;
#X obj -12 -405 tgl 15 1 empty empty empty 17 7 0 10 -262144 -1 -1
1 1;
#N canvas 2813 593 592 300 led 0;
#X obj 113 -125 tgl 15 0 empty empty empty 17 7 0 10 -262144 -1 -1
0 1;
#X obj 33 -126 tgl 15 0 empty empty empty 17 7 0 10 -262144 -1 -1 0
1;
#X obj 19 -236 change;
#X obj 111 -234 change;
#X obj 202 -233 change;
#X obj 292 -231 change;
#X obj 382 -233 change;
#X obj 207 -113 tgl 15 0 empty empty empty 17 7 0 10 -262144 -1 -1
0 1;
#X obj 19 -193 s \$1-tl1-rcv;
#X obj 111 -193 s \$1-tl2-rcv;
#X obj 202 -193 s \$1-tl3-rcv;
#X obj 292 -193 s \$1-tl4-rcv;
#X obj 382 -192 s \$1-tlREC-rcv;
#X obj 382 -271 r \$1-Lock;
#X obj 19 -271 r \$1-1/1-lock;
#X obj 111 -271 r \$1-1/2-lock;
#X obj 202 -271 r \$1-1/3-lock;
#X obj 292 -271 r \$1-1/4-lock;
#X connect 0 0 9 0;
#X connect 2 0 8 0;
#X connect 3 0 9 0;
#X connect 4 0 10 0;
#X connect 5 0 11 0;
#X connect 6 0 12 0;
#X connect 7 0 8 0;
#X connect 7 0 9 0;
#X connect 7 0 10 0;
#X connect 7 0 11 0;
#X connect 13 0 6 0;
#X connect 14 0 1 0;
#X connect 14 0 2 0;
#X connect 15 0 3 0;
#X connect 16 0 4 0;
#X connect 17 0 5 0;
#X restore 252 -317 pd led;
#X obj 348 -384 m 1;
#X obj 348 -429 r \$1-Vitesse;
#X obj 363 -407 r \$1-Vitesse_max;
#X obj 173 -545 r \$1-Effet;
#X obj 134 -341 tgl 15 0 \$1-mute-reverse-snd \$1-mute-reverse-rcv
mute-reverse 17 7 0 10 -262144 -1 -1 1 1;
#X obj 161 -291 param \$1 SETTING mute-reverse;
#X obj 231 -381 s \$1-lrouge;
#X obj -34 -429 s \$1-lvert;
#N canvas 1615 174 381 330 Gamme 0;
#N canvas 493 1192 450 382 i2l 0;
#X obj 221 41 inlet;
#X obj 221 243 outlet;
#X obj 221 90 for++ 0 11;
#X obj 221 62 t b f;
#X obj 251 133 f;
#X obj 251 156 & 1;
#X obj 280 133 >> 1;
#X obj 221 111 t f b;
#X obj 221 184 pack f f;
#X obj 145 243 print;
#X msg 167 71 1625;
#X msg 221 213 set \$1 \$2;
#X connect 0 0 3 0;
#X connect 2 0 7 0;
#X connect 3 0 2 0;
#X connect 3 1 4 1;
#X connect 4 0 5 0;
#X connect 4 0 6 0;
#X connect 5 0 8 1;
#X connect 6 0 4 1;
#X connect 7 0 8 0;
#X connect 7 1 4 0;
#X connect 8 0 11 0;
#X connect 10 0 3 0;
#X connect 11 0 1 0;
#X restore 19 177 pd i2l;
#X obj 19 56 r Gammes;
#X obj 19 154 unpack f f;
#X obj 177 16 r \$0-gamnum-snd;
#X obj 177 36 * 3.9;
#X obj 177 57 i;
#X msg 221 196 label \$1;
#X obj 221 218 s \$0-gamnum-rcv;
#X obj 177 76 change -1;
#X obj 221 175 makesymbol gam%s;
#X obj 177 96 sel 0 1;
#X obj 221 155 - 1;
#X msg 177 115 label off;
#X msg 199 135 label semi;
#X obj 80 222 tabread Gammestab;
#X obj 152 155 * 2;
#X obj 98 262 tabread Gammestab;
#X obj 98 242 + 1;
#X msg 99 154 4095 0;
#X obj 19 90 unwonk f;
#X obj 19 133 l;
#X floatatom 166 190 5 0 0 0 - - -;
#X msg 83 115 -1;
#X obj 122 114 sel 0 1;
#X obj 152 135 - 2;
#X obj 19 111 sel 0;
#X obj 19 198 s \$0-setgam;
#X obj 84 299 s \$0-transgam;
#X obj 256 95 s \$0-ongam;
#X floatatom 288 58 5 0 0 0 - - -;
#X connect 0 0 26 0;
#X connect 1 0 19 0;
#X connect 2 0 0 0;
#X connect 2 1 27 0;
#X connect 3 0 4 0;
#X connect 4 0 5 0;
#X connect 5 0 8 0;
#X connect 5 0 29 0;
#X connect 6 0 7 0;
#X connect 8 0 10 0;
#X connect 8 0 23 0;
#X connect 8 0 28 0;
#X connect 9 0 6 0;
#X connect 10 0 12 0;
#X connect 10 1 13 0;
#X connect 10 2 11 0;
#X connect 11 0 9 0;
#X connect 12 0 7 0;
#X connect 13 0 7 0;
#X connect 14 0 0 0;
#X connect 15 0 14 0;
#X connect 15 0 17 0;
#X connect 16 0 27 0;
#X connect 17 0 16 0;
#X connect 18 0 2 0;
#X connect 19 0 25 0;
#X connect 19 1 20 1;
#X connect 20 0 2 0;
#X connect 22 0 25 1;
#X connect 23 0 18 0;
#X connect 23 0 22 0;
#X connect 23 1 18 0;
#X connect 23 1 22 0;
#X connect 23 2 24 0;
#X connect 24 0 15 0;
#X connect 24 0 21 0;
#X connect 24 0 25 1;
#X connect 25 0 20 0;
#X restore 424 -296 pd Gamme;
#X obj 360 -265 cnv 15 72 20 empty empty gam 0 4 1 12 -260818 -1 0
;
#X obj 391 -265 mknob 12 100 0 1 0 0 \$0-adj-snd \$0-adj-rcv adj -2
16 193 8 -44926 -1 -1 0 1;
#X obj 370 -253 tgl 8 0 \$0-gamprepost-snd \$0-gamprepost-rcv empty
0 -6 0 8 -44926 -1 -1 0 1;
#X obj 408 -265 mknob 12 100 0 1 0 0 \$0-gamnum-snd \$0-gamnum-rcv
gam1 -2 16 193 8 -62784 -1 -1 0 1;
#X obj 361 -289 cnv 15 35 20 empty empty pitch 0 5 1 10 -24198 -258699
0;
#X obj 368 -282 mknob 15 100 0 1 0 0 \$0-pitch-snd \$0-pitch-rcv empty
-2 -6 192 8 -241291 -1 -262144 0 1;
#X obj 161 -270 param \$1 SETTING gamnum;
#X msg 366 -319 0.5;
#X msg 401 -319 0.5;
#X msg 273 -551 \$1 50;
#X obj 317 -552 line;
#X obj 89 -403 outlet;
#X obj -2 -378 s \$0-onoff;
#X obj 425 -225 param \$1 FX R;
#X obj 425 -202 param \$1 FX V;
#X obj 427 -181 param \$1 FX B;
#X obj 426 -157 param \$1 FX A;
#X obj 138 -195 mknob 25 100 0 1 0 0 \$1-R-snd \$1-R-rcv R 0 -6 193
8 -258113 -228856 -1 5000 1;
#X obj 187 -198 mknob 25 100 0 1 0 0 \$1-V-snd \$1-V-rcv V 0 -6 193
8 -4034 -228856 -1 3900 1;
#X obj 228 -199 mknob 25 100 0 1 0 0 \$1-B-snd \$1-B-rcv B 0 -6 193
8 -4032 -228856 -1 3600 1;
#X obj 270 -199 mknob 25 100 0 1 0 0 \$1-A-snd \$1-A-rcv A 0 -6 193
8 -228856 -1 -1 1800 1;
#X connect 0 0 17 0;
#X connect 1 0 0 0;
#X connect 2 0 18 0;
#X connect 2 0 31 0;
#X connect 3 0 7 0;
#X connect 4 0 2 0;
#X connect 7 0 4 0;
#X connect 9 0 32 0;
#X connect 11 0 8 0;
#X connect 12 0 11 0;
#X connect 13 0 11 1;
#X connect 14 0 6 0;
#X connect 14 0 5 0;
#X connect 27 0 25 0;
#X connect 28 0 21 0;
#X connect 29 0 30 0;
#X restore 73 284 pd bang;
#X obj 100 325 bng 15 250 50 0 empty empty empty 17 7 0 10 -262144
-1 -1;
#X obj 115 592 Control2Net \$1;
#X connect 5 0 15 0;
#X connect 6 0 15 1;
#X connect 9 0 10 0;
#X connect 25 0 26 0;
#X coords 0 -1 1 1 42 117 2 50 10;
