#N canvas 2660 318 361 675 10;
#X obj 1 1 cnv 15 40 654 empty empty \$1 1 5 1 8 -257985 -1 0;
#X text -27 -26 KEPtype nomUnique;
#X obj 9 662 KEPCommon \$1;
#X obj 8 643 bng 10 250 50 0 empty empty empty 17 7 0 10 -4034 -1 -1
;
#X obj 25 643 bng 10 250 50 0 empty empty empty 17 7 0 10 -258113 -1
-1;
#X obj 4 12 MASTERtypeIN \$1 1;
#X obj 57 0 KEPface \$1;
#X obj 4 100 MASTERtypeOUT \$1 1;
#X obj 115 120 r \$1-Volume;
#X obj 115 142 Vcurve;
#X obj 82 165 mull~ 0 10;
#X floatatom 198 155 5 0 0 0 - - -, f 5;
#X floatatom 231 124 5 0 0 0 - - -, f 5;
#N canvas 2001 479 311 407 KEPboutons 0;
#X obj 188 142 tLock \$1 1/1;
#X obj 188 162 tLock \$1 1/2;
#X obj 189 182 tLock \$1 1/3;
#X obj 189 202 tLock \$1 1/4;
#X obj 9 139 KEPbus \$1 1/1 -t1- t1;
#X obj 7 160 KEPbus \$1 1/2 -t2- t2;
#X obj 8 182 KEPbus \$1 1/3 -t3- t3;
#X obj 9 203 KEPbus \$1 1/4 -t4- t4;
#X obj 9 227 KEPbus \$1 Lock -tL- tREC;
#X obj 15 265 KEPbus \$1 l1 -l1- tl1;
#X obj 15 288 KEPbus \$1 l2 -l2- tl2;
#X obj 17 310 KEPbus \$1 l3 -l3- tl3;
#X obj 17 331 KEPbus \$1 l4 -l4- tl4;
#X obj 12 356 KEPbus \$1 lR -lR- tlREC;
#X obj 148 260 KEPbus \$1 lr -lr- lrouge;
#X obj 148 283 KEPbus \$1 lv -lv- lvert;
#X obj 8 97 KEPbus \$1 Volume Volume b5;
#X obj 8 8 KEPbus \$1 - - b1;
#X obj 8 30 KEPbus \$1 - - b2;
#X obj 8 53 KEPbus \$1 - - b3;
#X obj 8 75 KEPbus \$1 - - b4;
#X restore 127 432 pd KEPboutons;
#X connect 3 0 2 0;
#X connect 4 0 2 1;
#X connect 5 0 10 0;
#X connect 8 0 9 0;
#X connect 8 0 12 0;
#X connect 9 0 10 1;
#X connect 9 0 11 0;
#X connect 10 0 7 0;
#X coords 0 -1 1 1 42 656 2 0 0;
