#N canvas 147 519 227 99 10;
#X obj 6 5 inlet;
#X obj 6 52 outlet;
#N canvas 132 82 404 404 \$0-plan 1;
#X obj 1 0 cnv 15 400 400 empty empty empty 20 12 0 14 -233017 -66577
0;
#X obj 283 282 bng 15 250 50 0 \$0-1snd \$0-1rcv empty 0 -6 1 12 -258699
-1 -1;
#X restore 56 53 pd \$0-plan;
#X obj 174 8 bng 10 250 50 0 empty empty empty 0 -6 0 8 -241291 -1
-1;
#X obj 133 55 showtab \$0-plan;
#X obj 133 8 inlet;
#N canvas 605 158 337 527 guts 0;
#X msg 17 30 1;
#X obj 17 55 tgl 15 0 empty empty empty 0 -6 0 8 -262144 -1 -1 0 1
;
#X obj 32 95 sel 0;
#X msg 32 115 0;
#X obj 61 186 unpack;
#X obj 13 217 -;
#X obj 155 249 -;
#X obj 22 238 * 1024;
#X obj 165 268 * 768;
#X obj 17 76 nimouse;
#X obj 17 140 t a a a;
#X obj 61 161 spigot;
#X obj 13 186 unpack;
#X msg 72 140 0;
#X obj 13 280 +;
#X obj 155 311 +;
#X obj 13 258 / 400;
#X obj 155 289 / 400;
#X obj 13 304 clip 0 1;
#X obj 155 331 clip 0 1;
#X obj 96 412 * 390;
#X obj 146 413 * 390;
#X obj 13 469 outlet;
#X obj 13 448 pack f f;
#X obj 153 118 inlet;
#X obj 152 186 unpack f f;
#X obj 17 8 r \$0-1snd;
#X obj 96 472 s \$0-1rcv;
#X msg 96 453 pos \$1 \$2;
#X obj 96 433 pack f f;
#X obj 13 332 nbx 5 14 -1e+37 1e+37 0 0 \$0-x-snd \$0-x-rcv x 0 -6
0 10 -262144 -1 -1 0.7275 256;
#X obj 155 360 nbx 5 14 -1e+37 1e+37 0 0 \$0-y-snd \$0-y-rcv y 0 -6
0 10 -262144 -1 -1 0.725 256;
#X obj 153 141 route set;
#X obj 231 186 unpack f f;
#X obj 231 209 clip 0 1;
#X obj 296 209 clip 0 1;
#X obj 136 51 l apf \$1 \$2x \$0-x;
#X obj 135 75 l apf \$1 \$2y \$0-y;
#X connect 0 0 1 0;
#X connect 0 0 11 1;
#X connect 1 0 9 0;
#X connect 2 0 3 0;
#X connect 3 0 1 0;
#X connect 4 0 5 1;
#X connect 4 1 6 1;
#X connect 5 0 16 0;
#X connect 6 0 17 0;
#X connect 7 0 16 0;
#X connect 8 0 17 0;
#X connect 9 0 10 0;
#X connect 9 1 2 0;
#X connect 10 0 4 0;
#X connect 10 1 13 0;
#X connect 10 1 12 0;
#X connect 10 2 11 0;
#X connect 11 0 4 0;
#X connect 12 0 5 0;
#X connect 12 1 6 0;
#X connect 13 0 11 1;
#X connect 14 0 18 0;
#X connect 15 0 19 0;
#X connect 16 0 14 0;
#X connect 17 0 15 0;
#X connect 18 0 30 0;
#X connect 19 0 31 0;
#X connect 20 0 29 0;
#X connect 21 0 29 1;
#X connect 23 0 22 0;
#X connect 24 0 32 0;
#X connect 25 0 18 0;
#X connect 25 1 19 0;
#X connect 26 0 0 0;
#X connect 28 0 27 0;
#X connect 29 0 28 0;
#X connect 30 0 23 0;
#X connect 30 0 20 0;
#X connect 30 0 14 1;
#X connect 31 0 15 1;
#X connect 31 0 21 0;
#X connect 31 0 23 1;
#X connect 32 0 33 0;
#X connect 32 1 25 0;
#X connect 33 0 34 0;
#X connect 33 1 35 0;
#X connect 34 0 20 0;
#X connect 35 0 21 0;
#X restore 6 27 pd guts;
#X msg 133 34 0 \, 1;
#X connect 0 0 6 0;
#X connect 3 0 7 0;
#X connect 5 0 7 0;
#X connect 6 0 1 0;
#X connect 7 0 4 0;
#X coords 0 0 1 1 50 10 1;
