#N canvas 49 188 511 572 10;
#X msg 79 139 1;
#X obj 79 162 tgl 15 0 empty empty empty 0 -6 0 8 -262144 -1 -1 0 1
;
#X obj 42 105 sel 0;
#X msg 42 125 0;
#X obj 71 189 unpack;
#X obj 23 212 -;
#X obj 166 226 -;
#X obj 27 150 t a a a;
#X obj 23 270 spigot;
#X obj 23 188 unpack;
#X obj 23 333 +;
#X obj 166 299 +;
#X obj 23 458 pack f f;
#X obj 162 196 unpack f f;
#X msg 180 480 pos \$1 \$2;
#X obj 180 460 pack f f;
#X obj 23 411 nbx 5 14 -1e+37 1e+37 0 0 \$0-x-snd \$0-x-rcv x 0 -6
0 10 -262144 -1 -1 0.375 256;
#X obj 166 370 nbx 5 14 -1e+37 1e+37 0 0 \$0-y-snd \$0-y-rcv y 0 -6
0 10 -262144 -1 -1 0.34 256;
#X obj 163 151 route set;
#X obj 241 196 unpack f f;
#X obj 241 219 clip 0 1;
#X obj 306 219 clip 0 1;
#X obj 180 416 * 190;
#X obj 230 417 * 190;
#X obj 166 277 / 200;
#X obj 23 311 / 200;
#X obj 122 151 tgl 15 0 empty empty empty 0 -6 0 8 -262144 -1 -1 0
1;
#X obj 23 382 clip 0 1;
#X obj 23 358 f;
#X obj 166 346 clip 0 1;
#X obj 166 322 f;
#X obj 244 446 + 15;
#X obj 180 499 s \$1-\$2-rcv;
#X obj 79 117 r \$1-\$2-snd;
#X obj 27 58 r \$1-mouse;
#X obj 42 83 r \$1-mouseb;
#X obj 23 481 list prepend \$2;
#X obj 23 502 list trim;
#X obj 23 532 s \$1-B-snd;
#X obj 163 110 r \$1-B-rcv;
#X obj 163 130 route \$2;
#X obj 119 531 print;
#X obj 275 147 bng 15 250 50 0 empty empty empty 17 7 0 10 -262144
-1 -1;
#X obj 262 64 apf \$1 \$2x \$0-x;
#X obj 262 86 apf \$1 \$2y \$0-y;
#X obj 166 251 spigot;
#X obj 93 346 f;
#X obj 294 342 f;
#X obj 80 219 t f f;
#X obj 91 249 sel 1;
#X connect 0 0 1 0;
#X connect 1 0 48 0;
#X connect 2 0 3 0;
#X connect 3 0 1 0;
#X connect 4 0 5 1;
#X connect 4 1 6 1;
#X connect 5 0 8 0;
#X connect 6 0 45 0;
#X connect 7 0 4 0;
#X connect 7 1 9 0;
#X connect 8 0 25 0;
#X connect 9 0 5 0;
#X connect 9 1 6 0;
#X connect 10 0 28 0;
#X connect 11 0 30 0;
#X connect 12 0 36 0;
#X connect 13 0 10 1;
#X connect 13 0 16 0;
#X connect 13 1 11 1;
#X connect 13 1 17 0;
#X connect 14 0 32 0;
#X connect 15 0 14 0;
#X connect 16 0 22 0;
#X connect 16 0 12 0;
#X connect 16 0 46 1;
#X connect 17 0 12 1;
#X connect 17 0 23 0;
#X connect 17 0 47 1;
#X connect 18 0 19 0;
#X connect 18 1 13 0;
#X connect 19 0 20 0;
#X connect 19 1 21 0;
#X connect 20 0 22 0;
#X connect 20 0 46 0;
#X connect 21 0 23 0;
#X connect 21 0 47 0;
#X connect 22 0 15 0;
#X connect 23 0 31 0;
#X connect 24 0 11 0;
#X connect 25 0 10 0;
#X connect 27 0 16 0;
#X connect 28 0 10 1;
#X connect 28 0 27 0;
#X connect 29 0 17 0;
#X connect 30 0 11 1;
#X connect 30 0 29 0;
#X connect 31 0 15 1;
#X connect 33 0 0 0;
#X connect 34 0 7 0;
#X connect 35 0 2 0;
#X connect 36 0 37 0;
#X connect 37 0 38 0;
#X connect 39 0 40 0;
#X connect 40 0 18 0;
#X connect 45 0 24 0;
#X connect 46 0 10 1;
#X connect 47 0 11 1;
#X connect 48 0 8 1;
#X connect 48 0 45 1;
#X connect 48 1 49 0;
#X connect 49 0 46 0;
#X connect 49 0 47 0;
