#N canvas 446 81 532 250 10;
#X obj 236 6 inlet;
#X obj 235 141 outlet;
#X obj 0 15 cnv 15 200 200 empty empty empty 20 12 0 14 -233017 -66577
0;
#X obj 104 80 bng 10 250 50 0 \$0-1-snd \$0-1-rcv empty 0 -6 1 12 -258699
-1 -1;
#X obj 245 27 r \$1-\$2-rcv;
#X obj 246 115 s \$1-\$2-snd;
#X obj 234 174 2dposB \$0 1;
#X obj 354 59 nimouse;
#X obj 354 36 init 1;
#X obj 354 17 bng 15 250 50 0 empty empty empty 17 7 0 10 -262144 -1
-1;
#X obj 354 102 s \$0-mouse;
#X obj 367 80 s \$0-mouseb;
#X obj 236 49 s \$0-B-rcv;
#X obj 235 86 r \$0-B-snd;
#X connect 0 0 12 0;
#X connect 4 0 12 0;
#X connect 7 0 10 0;
#X connect 7 1 11 0;
#X connect 8 0 7 0;
#X connect 9 0 8 0;
#X connect 13 0 5 0;
#X connect 13 0 1 0;
#X coords 0 0 1 1 200 215 1 0 0;
