#N canvas 187 73 276 72 10;
#X obj 0 0 cnv 15 40 26 empty empty ???? 1 5 0 14 -233017 -66577 0
;
#X obj 11 25 unsig~;
#X obj 11 5 inlet~;
#X floatatom 11 44 0 0 0 0 - - -;
#X obj 109 39 outlet;
#X connect 1 0 3 0;
#X connect 1 0 4 0;
#X connect 2 0 1 0;
#X coords 0 0 1 1 20 20 1;
