#N canvas 1647 130 646 688 10;
#X obj 152 -14 inlet;
#X obj 72 633 outlet;
#X msg 182 210 set \$1;
#X obj 152 78 change;
#X obj 152 35 + 0.5;
#X obj 152 57 i;
#X floatatom 152 101 5 0 0 0 - - -, f 5;
#X obj 155 188 t b s;
#X obj 209 62 speedlim 5;
#X obj 222 93 bng 15 250 50 0 empty empty empty 17 7 0 10 -262144 -1
-1;
#X obj 122 441 ndmetro 4 4;
#X obj 60 321 t a a;
#X obj 60 345 route -1;
#X msg 60 368 0;
#X msg 184 278 1;
#X msg 154 297 0;
#X obj 154 257 t b b;
#X obj 152 390 pack f f;
#X msg 151 411 nd \$1 \$2 \, bang;
#X obj 125 527 + 2;
#X obj 182 298 tabread;
#X obj 155 320 tabread;
#X obj 125 551 tabread;
#X obj 183 236 s \$0-tabname;
#X obj 230 296 r \$0-tabname;
#X obj 208 319 r \$0-tabname;
#X obj 177 550 r \$0-tabname;
#X floatatom 216 -1 5 0 0 0 - - -, f 5;
#X obj 13 392 bng 15 250 50 0 empty empty empty 17 7 0 10 -262144 -1
-1;
#X floatatom 176 583 5 0 0 0 - - -, f 5;
#X obj 155 167 makesymbol \$2-notemod-%s;
#X obj 217 24 r \$2-notemod-changed;
#X obj 426 43 inlet;
#X obj 77 9 loadbang;
#X msg 78 32 0;
#X obj 128 143 sel 0;
#X obj 125 466 spigot;
#X obj 180 467 != 0;
#X obj 151 121 t f f;
#X obj 214 390 * 1;
#X obj 216 355 t b b f;
#X msg 479 267 1.5;
#X msg 447 269 1;
#X msg 509 267 2;
#X obj 396 324 f;
#X floatatom 389 371 5 0 0 0 - - -, f 5;
#X msg 539 267 3;
#X msg 411 268 0.75;
#X msg 377 269 0.5;
#X msg 342 267 0.25;
#X obj 83 73 bng 15 250 50 0 empty empty empty 17 7 0 10 -262144 -1
-1;
#X msg 566 266 4;
#X obj 392 79 * 8;
#X obj 392 102 + 0.5;
#X obj 395 134 i;
#X obj 392 162 change;
#X obj 391 185 sel 0 1 2 3 4 5 6 7;
#X msg 472 374 0.333;
#X symbolatom 263 209 0 0 0 0 - - -;
#X obj 60 293 r SYNCHRO-clock;
#X obj 152 10 * 8;
#X obj 226 126 s \$2-selKEProll;
#N canvas 3038 823 450 300 timer 0;
#X obj 64 29 inlet;
#X obj 71 246 outlet;
#X obj 64 133 timer;
#X obj 64 52 t b;
#X obj 64 75 i;
#X obj 93 75 + 1;
#X obj 123 76 != 2;
#X obj 64 108 sel 0 1;
#X floatatom 76 172 5 0 0 0 - - -, f 5;
#X connect 0 0 3 0;
#X connect 2 0 8 0;
#X connect 3 0 4 0;
#X connect 4 0 5 0;
#X connect 4 0 7 0;
#X connect 5 0 6 0;
#X connect 6 0 4 1;
#X connect 7 0 2 0;
#X connect 7 1 2 1;
#X restore 427 544 pd timer;
#X obj 99 578 - 24;
#X obj 99 599 abs;
#X floatatom 149 627 5 0 0 0 - - -, f 5;
#X obj 217 660 outlet;
#X obj 441 598 change;
#X floatatom 329 630 5 0 0 0 - - -, f 5;
#X obj 267 541 r \$2-Key;
#X floatatom 238 492 5 0 0 0 - - -, f 5;
#X obj 282 476 pack f f;
#X msg 285 492 step \$2 \$1;
#X msg 361 457 nd \$2 \$1;
#X obj 354 528 s \$2-toNet;
#X obj 125 490 t f f;
#X obj 235 613 t b f;
#X obj 217 635 &&;
#X obj 268 562 != -1;
#X obj 207 613 != 0;
#N canvas 678 143 460 394 calctab 0;
#X obj 76 6 inlet;
#X obj 106 214 tabread \$0-tt;
#X msg 110 103 set \$1;
#X obj 75 77 t b b s b;
#X obj 93 155 t f f;
#X obj 89 297 outlet;
#X obj 181 249 list;
#X msg 244 250 list;
#X obj 89 274 list;
#X msg 54 223 list;
#X obj 91 179 + 2;
#X obj 75 35 symbol;
#X obj 167 313 print;
#X obj 149 11 bng 15 250 50 0 empty empty empty 17 7 0 10 -262144 -1
-1;
#X msg 92 132 0 \, 1 \, 2 \, 3 \, 4 \, 5 \, 6 \, 7 \, 8 \, 9 \, 10
\, 11 \, 12 \, 13 \, 14 \, 15;
#X obj 101 249 list prepend;
#X connect 0 0 11 0;
#X connect 1 0 15 0;
#X connect 2 0 1 0;
#X connect 3 0 9 0;
#X connect 3 1 14 0;
#X connect 3 2 2 0;
#X connect 3 3 7 0;
#X connect 4 0 10 0;
#X connect 6 0 15 1;
#X connect 7 0 6 0;
#X connect 8 0 5 0;
#X connect 9 0 8 0;
#X connect 10 0 1 0;
#X connect 11 0 3 0;
#X connect 13 0 11 0;
#X connect 14 0 4 0;
#X connect 15 0 6 0;
#X connect 15 0 8 1;
#X restore 436 458 pd calctab;
#X obj 435 479 list prepend tab;
#X floatatom 288 92 5 0 0 0 - - -, f 5;
#X obj 314 66 print;
#X obj 399 646 outlet;
#X connect 0 0 60 0;
#X connect 2 0 23 0;
#X connect 3 0 6 0;
#X connect 3 0 61 0;
#X connect 4 0 5 0;
#X connect 5 0 3 0;
#X connect 6 0 38 0;
#X connect 7 0 16 0;
#X connect 7 1 2 0;
#X connect 8 0 6 0;
#X connect 10 0 36 0;
#X connect 11 0 12 0;
#X connect 11 1 10 0;
#X connect 12 0 13 0;
#X connect 13 0 1 0;
#X connect 14 0 20 0;
#X connect 15 0 21 0;
#X connect 16 0 15 0;
#X connect 16 1 14 0;
#X connect 17 0 18 0;
#X connect 17 0 73 0;
#X connect 18 0 10 0;
#X connect 19 0 22 0;
#X connect 19 0 84 0;
#X connect 20 0 39 0;
#X connect 21 0 17 0;
#X connect 22 0 29 0;
#X connect 22 0 63 0;
#X connect 22 0 71 0;
#X connect 24 0 20 0;
#X connect 25 0 21 0;
#X connect 26 0 22 0;
#X connect 27 0 4 0;
#X connect 30 0 7 0;
#X connect 30 0 58 0;
#X connect 30 0 80 0;
#X connect 31 0 6 0;
#X connect 32 0 52 0;
#X connect 33 0 34 0;
#X connect 34 0 60 0;
#X connect 35 0 13 0;
#X connect 35 1 30 0;
#X connect 36 0 75 0;
#X connect 37 0 36 1;
#X connect 38 0 35 0;
#X connect 38 1 37 0;
#X connect 39 0 17 1;
#X connect 40 0 17 0;
#X connect 40 1 39 0;
#X connect 40 2 39 1;
#X connect 41 0 44 0;
#X connect 42 0 44 0;
#X connect 43 0 44 0;
#X connect 44 0 40 0;
#X connect 44 0 45 0;
#X connect 46 0 44 0;
#X connect 47 0 44 0;
#X connect 48 0 44 0;
#X connect 49 0 44 0;
#X connect 50 0 6 0;
#X connect 51 0 44 0;
#X connect 52 0 53 0;
#X connect 53 0 54 0;
#X connect 54 0 55 0;
#X connect 55 0 56 0;
#X connect 56 0 49 0;
#X connect 56 1 48 0;
#X connect 56 2 47 0;
#X connect 56 3 42 0;
#X connect 56 4 41 0;
#X connect 56 5 43 0;
#X connect 56 6 46 0;
#X connect 56 7 51 0;
#X connect 59 0 11 0;
#X connect 59 0 28 0;
#X connect 60 0 4 0;
#X connect 63 0 64 0;
#X connect 64 0 1 0;
#X connect 64 0 65 0;
#X connect 64 0 79 0;
#X connect 69 0 78 0;
#X connect 71 0 72 0;
#X connect 72 0 74 0;
#X connect 73 0 74 0;
#X connect 75 0 19 0;
#X connect 75 1 71 1;
#X connect 76 0 77 0;
#X connect 76 1 77 1;
#X connect 77 0 66 0;
#X connect 78 0 76 0;
#X connect 79 0 77 0;
#X connect 80 0 81 0;
#X connect 81 0 74 0;
