#N canvas 543 330 717 474 10;
#X obj 103 122 flatgui/popup 124 25 #ffffff popup arrets baroque1 blues
blues-mineur blues-mineur-haché blues-mineur-haché-test boys circulation
pop portes reverbere reverbere-plan tango tango2 wetbush wetbush2;
#X obj 289 13 loadbang;
#X obj 289 39 symbol \$2;
#X obj 265 17 bng 15 250 50 0 empty empty empty 17 7 0 10 -262144 -1
-1;
#X msg 103 77 0;
#X obj 103 52 t b a;
#X obj 103 171 route bang;
#X floatatom 106 228 5 0 0 0 - - -, f 5;
#X obj 160 275 list split;
#X obj 160 198 t b f;
#X obj 160 250 list;
#X obj 188 298 list split 1;
#X symbolatom 198 326 10 0 0 0 - - -, f 10;
#X obj 289 72 sel i s;
#N canvas 75 378 305 438 listSongs 1;
#X obj 62 185 folder_list;
#X obj 62 132 getdir;
#X msg 62 160 symbol \$1/../absGAMME/Seq/*;
#X obj 62 215 split_path;
#X obj 119 257 list prepend;
#X obj 219 258 list;
#X msg 219 230 list;
#X obj 39 297 list;
#X obj 38 20 inlet init;
#X obj 11 399 outlet popup;
#X obj 163 354 outlet outlist;
#X obj 11 354 list prepend options;
#X obj 11 377 list trim;
#X obj 39 94 t b b b;
#X connect 0 0 3 0;
#X connect 1 0 2 0;
#X connect 2 0 0 0;
#X connect 3 1 4 0;
#X connect 4 0 5 0;
#X connect 4 0 7 1;
#X connect 5 0 4 1;
#X connect 6 0 5 0;
#X connect 7 0 11 0;
#X connect 7 0 10 0;
#X connect 8 0 13 0;
#X connect 11 0 12 0;
#X connect 12 0 9 0;
#X connect 13 0 7 0;
#X connect 13 1 1 0;
#X connect 13 2 6 0;
#X restore 389 130 pd listSongs;
#N canvas 0 330 803 450 listInstrus 0;
#X msg 120 96 list Rythmic1 Rythmic2 Rythmic3 Melodic1 Paf1 BasseR1
Poly1 Rodey1;
#X obj 120 67 b;
#X obj 139 174 list split 1;
#X obj 217 243 list;
#X msg 217 220 list;
#X obj 120 269 list;
#X obj 218 174 list;
#X obj 136 243 list append;
#X obj 120 297 list prepend options;
#X obj 120 320 list trim;
#X obj 120 136 t b a b;
#X obj 120 44 inlet init;
#X obj 119 348 outlet popup;
#X obj 223 347 outlet outlist;
#X obj 136 199 ../GEM360/nomInstrus;
#X connect 0 0 10 0;
#X connect 1 0 0 0;
#X connect 2 0 14 0;
#X connect 2 1 6 0;
#X connect 3 0 7 1;
#X connect 4 0 3 0;
#X connect 5 0 8 0;
#X connect 6 0 2 0;
#X connect 7 0 3 0;
#X connect 7 0 5 1;
#X connect 8 0 9 0;
#X connect 9 0 12 0;
#X connect 10 0 5 0;
#X connect 10 1 2 0;
#X connect 10 1 13 0;
#X connect 10 2 4 0;
#X connect 11 0 1 0;
#X connect 14 0 7 0;
#X restore 289 130 pd listInstrus;
#X floatatom 67 198 5 0 0 0 - - -, f 5;
#X obj 188 345 s PL-gui-\$1-snd;
#X obj 86 349 plscommon \$1;
#X obj 66 130 bng 15 250 50 0 empty empty empty 17 7 0 10 -262144 -1
-1;
#X symbolatom 328 309 12 0 0 0 - PL-gui-#1-rcv PL-gui-#1-snd, f 12
;
#X obj 36 16 r PL-gui-\$1-rcv;
#X msg 36 42 name \$1;
#X connect 0 0 6 0;
#X connect 0 0 16 0;
#X connect 1 0 2 0;
#X connect 2 0 13 0;
#X connect 3 0 2 0;
#X connect 4 0 0 0;
#X connect 5 0 4 0;
#X connect 5 1 0 0;
#X connect 6 1 7 0;
#X connect 6 1 9 0;
#X connect 8 1 11 0;
#X connect 9 0 10 0;
#X connect 9 1 8 1;
#X connect 10 0 8 0;
#X connect 11 0 12 0;
#X connect 11 0 17 0;
#X connect 13 0 15 0;
#X connect 13 1 14 0;
#X connect 14 0 5 0;
#X connect 14 1 10 1;
#X connect 15 0 5 0;
#X connect 15 1 10 1;
#X connect 21 0 22 0;
#X connect 22 0 0 0;
#X coords 0 -1 1 1 130 50 1 100 100;
