#N canvas 312 135 450 300 10;
#X obj 245 49 r PL-gui-current;
#X obj 106 233 sarray PL-\$1 20;
#X obj 106 93 r PL-gui-\$1-snd;
#X obj 106 130 spigot 1;
#X obj 245 78 t b f b;
#X msg 106 206 set \$2 \$1;
#X obj 106 182 pack s f;
#X msg 264 162 get \$1;
#X msg 210 122 1;
#X msg 238 121 0;
#X obj 106 263 s PL-gui-\$1-rcv;
#X obj 106 157 symbol;
#X connect 0 0 4 0;
#X connect 1 0 10 0;
#X connect 2 0 3 0;
#X connect 3 0 11 0;
#X connect 4 0 8 0;
#X connect 4 1 7 0;
#X connect 4 1 6 1;
#X connect 4 2 9 0;
#X connect 5 0 1 0;
#X connect 6 0 5 0;
#X connect 7 0 1 0;
#X connect 8 0 3 1;
#X connect 9 0 3 1;
#X connect 11 0 6 0;
