#N canvas 749 259 754 493 10;
#X obj 76 30 *~ 1;
#X obj 81 455 outlet;
#X obj 76 8 inlet~;
#X obj 535 13 loadbang;
#X obj 520 15 bng 15 250 50 0 empty empty empty 17 7 0 10 -262144 -1
-1;
#X obj 520 30 metro 100;
#X obj 570 237 max 0;
#X obj 569 305 change;
#X obj 183 47 bf-bark 30 0.5 0;
#X obj 570 322 t f f;
#X obj 194 64 bf-bark 150 1.5 1;
#X obj 203 81 bf-bark 250 2.5 2;
#X obj 210 98 bf-bark 350 3.5 3;
#X obj 218 115 bf-bark 450 4 4;
#X obj 229 132 bf-bark 570 4.75 5;
#X obj 240 149 bf-bark 700 5 6;
#X obj 249 166 bf-bark 840 5.6 7;
#X obj 256 183 bf-bark 1000 6.25 8;
#X obj 264 200 bf-bark 1170 6.15 9;
#X obj 272 217 bf-bark 1370 6.5 10;
#X obj 283 234 bf-bark 1600 6.6 11;
#X obj 292 251 bf-bark 1850 6.6 12;
#X obj 299 268 bf-bark 2150 6.7 13;
#X obj 307 285 bf-bark 2500 7 14;
#X obj 314 302 bf-bark 2900 8 15;
#X obj 325 319 bf-bark 3400 9 16;
#X obj 334 336 bf-bark 4000 10 17;
#X obj 341 353 bf-bark 4800 11 18;
#X obj 349 370 bf-bark 5800 12 19;
#X obj 359 387 bf-bark 7000 13 20;
#X obj 368 404 bf-bark 8500 14 21;
#X obj 375 421 bf-bark 10500 15 22;
#X obj 383 438 bf-bark 13500 16 23;
#X obj 569 271 float 0;
#X obj 569 254 t b f;
#X obj 569 288 - 1e-05;
#X connect 0 0 8 0;
#X connect 0 0 10 0;
#X connect 0 0 11 0;
#X connect 0 0 12 0;
#X connect 0 0 13 0;
#X connect 0 0 14 0;
#X connect 0 0 15 0;
#X connect 0 0 16 0;
#X connect 0 0 17 0;
#X connect 0 0 18 0;
#X connect 0 0 19 0;
#X connect 0 0 20 0;
#X connect 0 0 21 0;
#X connect 0 0 22 0;
#X connect 0 0 23 0;
#X connect 0 0 24 0;
#X connect 0 0 25 0;
#X connect 0 0 26 0;
#X connect 0 0 27 0;
#X connect 0 0 28 0;
#X connect 0 0 29 0;
#X connect 0 0 30 0;
#X connect 0 0 31 0;
#X connect 0 0 32 0;
#X connect 2 0 0 0;
#X connect 3 0 5 0;
#X connect 4 0 5 0;
#X connect 5 0 8 1;
#X connect 5 0 10 1;
#X connect 5 0 11 1;
#X connect 5 0 12 1;
#X connect 5 0 13 1;
#X connect 5 0 14 1;
#X connect 5 0 15 1;
#X connect 5 0 16 1;
#X connect 5 0 17 1;
#X connect 5 0 18 1;
#X connect 5 0 19 1;
#X connect 5 0 20 1;
#X connect 5 0 21 1;
#X connect 5 0 22 1;
#X connect 5 0 23 1;
#X connect 5 0 24 1;
#X connect 5 0 25 1;
#X connect 5 0 26 1;
#X connect 5 0 27 1;
#X connect 5 0 28 1;
#X connect 5 0 29 1;
#X connect 5 0 30 1;
#X connect 5 0 31 1;
#X connect 5 0 32 1;
#X connect 6 0 34 0;
#X connect 7 0 9 0;
#X connect 8 0 1 0;
#X connect 8 1 6 0;
#X connect 9 0 8 2;
#X connect 9 0 10 2;
#X connect 9 0 11 2;
#X connect 9 0 12 2;
#X connect 9 0 13 2;
#X connect 9 0 14 2;
#X connect 9 0 15 2;
#X connect 9 0 16 2;
#X connect 9 0 17 2;
#X connect 9 0 18 2;
#X connect 9 0 19 2;
#X connect 9 0 20 2;
#X connect 9 0 21 2;
#X connect 9 0 22 2;
#X connect 9 0 23 2;
#X connect 9 0 24 2;
#X connect 9 0 25 2;
#X connect 9 0 26 2;
#X connect 9 0 27 2;
#X connect 9 0 28 2;
#X connect 9 0 29 2;
#X connect 9 0 30 2;
#X connect 9 0 31 2;
#X connect 9 0 32 2;
#X connect 9 1 6 1;
#X connect 10 0 1 0;
#X connect 10 1 6 0;
#X connect 11 0 1 0;
#X connect 11 1 6 0;
#X connect 12 0 1 0;
#X connect 12 1 6 0;
#X connect 13 0 1 0;
#X connect 13 1 6 0;
#X connect 14 0 1 0;
#X connect 14 1 6 0;
#X connect 15 0 1 0;
#X connect 15 1 6 0;
#X connect 16 0 1 0;
#X connect 16 1 6 0;
#X connect 17 0 1 0;
#X connect 17 1 6 0;
#X connect 18 0 1 0;
#X connect 18 1 6 0;
#X connect 19 0 1 0;
#X connect 19 1 6 0;
#X connect 20 0 1 0;
#X connect 20 1 6 0;
#X connect 21 0 1 0;
#X connect 21 1 6 0;
#X connect 22 0 1 0;
#X connect 22 1 6 0;
#X connect 23 0 1 0;
#X connect 23 1 6 0;
#X connect 24 0 1 0;
#X connect 24 1 6 0;
#X connect 25 0 1 0;
#X connect 25 1 6 0;
#X connect 26 0 1 0;
#X connect 26 1 6 0;
#X connect 27 0 1 0;
#X connect 27 1 6 0;
#X connect 28 0 1 0;
#X connect 28 1 6 0;
#X connect 29 0 1 0;
#X connect 29 1 6 0;
#X connect 30 0 1 0;
#X connect 30 1 6 0;
#X connect 31 0 1 0;
#X connect 31 1 6 0;
#X connect 32 0 1 0;
#X connect 32 1 6 0;
#X connect 33 0 35 0;
#X connect 34 0 33 0;
#X connect 34 1 33 1;
#X connect 35 0 7 0;
