#N canvas 980 463 754 493 10;
#X obj 76 30 *~ 1;
#X obj 81 455 outlet;
#X obj 76 8 inlet~;
#X obj 535 13 loadbang;
#X obj 520 15 bng 15 250 50 0 empty empty empty 17 7 0 10 -262144 -1
-1;
#X obj 520 30 metro 100;
#X obj 570 237 max 0;
#X obj 569 305 change;
#X obj 570 322 t f f;
#X obj 569 271 float 0;
#X obj 569 254 t b f;
#X obj 194 64 bf-bark 350 2 1;
#X obj 218 115 bf-bark 1000 5.5 4;
#X obj 269 185 bf-bark 3400 8 8;
#X obj 282 202 bf-bark 4800 10 9;
#X obj 569 288 - 1e-05;
#X obj 288 219 bf-bark 7000 15 10;
#X obj 301 236 bf-bark 10500 16 11;
#X obj 236 151 bf-bark 1850 6 6;
#X obj 256 168 bf-bark 2500 7 7;
#X obj 183 47 bf-bark 100 2 0;
#X obj 203 81 bf-bark 570 4 2;
#X obj 210 98 bf-bark 840 5 3;
#X obj 226 132 bf-bark 1370 6 5;
#X connect 0 0 11 0;
#X connect 0 0 12 0;
#X connect 0 0 13 0;
#X connect 0 0 14 0;
#X connect 0 0 16 0;
#X connect 0 0 17 0;
#X connect 0 0 18 0;
#X connect 0 0 19 0;
#X connect 0 0 20 0;
#X connect 0 0 21 0;
#X connect 0 0 22 0;
#X connect 0 0 23 0;
#X connect 2 0 0 0;
#X connect 3 0 5 0;
#X connect 4 0 5 0;
#X connect 5 0 11 1;
#X connect 5 0 12 1;
#X connect 5 0 13 1;
#X connect 5 0 14 1;
#X connect 5 0 16 1;
#X connect 5 0 17 1;
#X connect 5 0 18 1;
#X connect 5 0 19 1;
#X connect 5 0 20 1;
#X connect 5 0 21 1;
#X connect 5 0 22 1;
#X connect 5 0 23 1;
#X connect 6 0 10 0;
#X connect 7 0 8 0;
#X connect 8 0 11 2;
#X connect 8 0 12 2;
#X connect 8 0 13 2;
#X connect 8 0 14 2;
#X connect 8 0 16 2;
#X connect 8 0 17 2;
#X connect 8 0 18 2;
#X connect 8 0 19 2;
#X connect 8 0 20 2;
#X connect 8 0 21 2;
#X connect 8 0 22 2;
#X connect 8 0 23 2;
#X connect 8 1 6 1;
#X connect 9 0 15 0;
#X connect 10 0 9 0;
#X connect 10 1 9 1;
#X connect 11 0 1 0;
#X connect 11 1 6 0;
#X connect 12 0 1 0;
#X connect 12 1 6 0;
#X connect 13 0 1 0;
#X connect 13 1 6 0;
#X connect 14 0 1 0;
#X connect 14 1 6 0;
#X connect 15 0 7 0;
#X connect 16 0 1 0;
#X connect 16 1 6 0;
#X connect 17 0 1 0;
#X connect 17 1 6 0;
#X connect 18 0 1 0;
#X connect 18 1 6 0;
#X connect 19 0 1 0;
#X connect 19 1 6 0;
#X connect 20 0 1 0;
#X connect 20 1 6 0;
#X connect 21 0 1 0;
#X connect 21 1 6 0;
#X connect 22 0 1 0;
#X connect 22 1 6 0;
#X connect 23 0 1 0;
#X connect 23 1 6 0;
