#N canvas 3 510 447 567 10;
#X obj 131 100 fiddle~;
#X obj 104 66 inlet~;
#X obj 211 33 loadbang;
#X obj 271 35 bng 15 250 50 0 empty empty empty 17 7 0 10 -262144 -1
-1;
#X obj 211 50 float \$1;
#X obj 211 67 sig~;
#X obj 104 134 dbtorms;
#X obj 58 513 pack f f;
#X obj 58 493 float \$3;
#X obj 58 530 outlet;
#X obj 58 259 float 0;
#X obj 153 242 inlet;
#X obj 336 293 outlet;
#X obj 229 306 inlet;
#X obj 58 323 / 1;
#X obj 104 83 vcf~ \$2;
#X obj 58 276 t f f;
#X obj 58 476 t b f;
#X obj 58 408 clip 0 1;
#X obj 58 374 +;
#X obj 139 391 f;
#X obj 58 340 moses 999999;
#X obj 104 117 env~;
#X obj 104 189 expr $f1/(24-\\\$3);
#X obj 58 357 * 0.6;
#X obj 84 374 * 0.4;
#X connect 1 0 15 0;
#X connect 2 0 4 0;
#X connect 3 0 4 0;
#X connect 4 0 5 0;
#X connect 5 0 15 1;
#X connect 6 0 23 0;
#X connect 6 0 10 1;
#X connect 7 0 9 0;
#X connect 8 0 7 0;
#X connect 10 0 16 0;
#X connect 11 0 10 0;
#X connect 13 0 14 1;
#X connect 14 0 21 0;
#X connect 15 0 0 0;
#X connect 15 0 22 0;
#X connect 16 0 14 0;
#X connect 16 1 12 0;
#X connect 17 0 8 0;
#X connect 17 1 7 1;
#X connect 18 0 17 0;
#X connect 19 0 20 0;
#X connect 20 0 21 1;
#X connect 20 0 18 0;
#X connect 20 0 25 0;
#X connect 21 0 24 0;
#X connect 21 1 20 0;
#X connect 22 0 6 0;
#X connect 24 0 19 0;
#X connect 25 0 19 1;
