#N canvas 28 719 667 307 10;
#X symbolatom 102 102 10 0 0 0 - - -, f 10;
#X obj 22 42 r refreshOthersNames;
#X obj 102 76 symbol \$3;
#X text 142 166 make gui;
#X obj 22 248 t b b;
#X msg 10 265 init 0;
#X obj 296 12 r to-\$5-others;
#X obj 346 121 s to-\$5-others-\$4-ask-gui;
#X obj 10 282 s to-\$5-others-\$4-ask-gui;
#X obj 148 265 bf-util/bf-util-makeotherscompoout \$4 \$5 \$6 \$7;
#N canvas 0 50 450 300 \$5-others-\$4-gui 0;
#X obj 100 110 bf-util/bf-util-array instru2-others-instru1/meters/activity-ask
0 24 45 10;
#X coords 0 -1 1 1 100 40 2 100 100;
#X restore 100 120 pd \$5-others-\$4-gui;
#X obj 189 282 s pd-\$5-others-\$4-gui;
#X obj 22 59 t b b;
#X obj 101 117 cnv 15 98 10 empty empty empty 20 12 0 14 -262144 -66577
0;
#X obj 260 46 unpack f f f f f f f f f f f f f f f f f f f f f f f
f;
#X msg 185 63 0 \$1;
#X msg 221 63 1 \$1;
#X msg 257 63 2 \$1;
#X msg 293 63 3 \$1;
#X msg 329 63 4 \$1;
#X msg 365 63 5 \$1;
#X msg 400 63 6 \$1;
#X msg 235 84 8 \$1;
#X msg 271 84 9 \$1;
#X msg 307 84 10 \$1;
#X msg 350 84 11 \$1;
#X msg 392 84 12 \$1;
#X msg 435 84 13 \$1;
#X msg 436 63 7 \$1;
#X msg 480 84 14 \$1;
#X msg 524 84 15 \$1;
#X msg 277 104 16 \$1;
#X msg 320 104 17 \$1;
#X msg 362 104 18 \$1;
#X msg 405 104 19 \$1;
#X msg 450 104 20 \$1;
#X msg 495 104 21 \$1;
#X msg 539 104 22 \$1;
#X msg 582 104 23 \$1;
#X obj 296 29 route /\$4/multiset;
#X connect 1 0 12 0;
#X connect 2 0 0 0;
#X connect 4 0 5 0;
#X connect 4 1 9 0;
#X connect 5 0 8 0;
#X connect 6 0 39 0;
#X connect 9 0 11 0;
#X connect 12 0 4 0;
#X connect 12 1 2 0;
#X connect 14 0 15 0;
#X connect 14 1 16 0;
#X connect 14 2 17 0;
#X connect 14 3 18 0;
#X connect 14 4 19 0;
#X connect 14 5 20 0;
#X connect 14 6 21 0;
#X connect 14 7 28 0;
#X connect 14 8 22 0;
#X connect 14 9 23 0;
#X connect 14 10 24 0;
#X connect 14 11 25 0;
#X connect 14 12 26 0;
#X connect 14 13 27 0;
#X connect 14 14 29 0;
#X connect 14 15 30 0;
#X connect 14 16 31 0;
#X connect 14 17 32 0;
#X connect 14 18 33 0;
#X connect 14 19 34 0;
#X connect 14 20 35 0;
#X connect 14 21 36 0;
#X connect 14 22 37 0;
#X connect 14 23 38 0;
#X connect 15 0 7 0;
#X connect 16 0 7 0;
#X connect 17 0 7 0;
#X connect 18 0 7 0;
#X connect 19 0 7 0;
#X connect 20 0 7 0;
#X connect 21 0 7 0;
#X connect 22 0 7 0;
#X connect 23 0 7 0;
#X connect 24 0 7 0;
#X connect 25 0 7 0;
#X connect 26 0 7 0;
#X connect 27 0 7 0;
#X connect 28 0 7 0;
#X connect 29 0 7 0;
#X connect 30 0 7 0;
#X connect 31 0 7 0;
#X connect 32 0 7 0;
#X connect 33 0 7 0;
#X connect 34 0 7 0;
#X connect 35 0 7 0;
#X connect 36 0 7 0;
#X connect 37 0 7 0;
#X connect 38 0 7 0;
#X connect 39 0 14 0;
#X coords 0 -1 1 1 100 60 2 100 100;
