#N canvas 9 328 681 495 10;
#X symbolatom 103 102 10 0 0 0 - - -, f 10;
#X obj 172 105 tgl 10 0 empty empty empty 17 7 0 10 -204786 -1 -1 0
1;
#X text 184 101 < permission;
#X obj 39 68 r refreshOthersNames;
#X obj 11 341 s toBoeuf;
#X obj 39 85 symbol \$3;
#X obj 146 34 route /\$4/set /\$4/grant;
#X text 206 135 < ask;
#X obj 333 133 until 1;
#X obj 333 184 pack f 0;
#X obj 333 150 float 0;
#X obj 333 167 t f f;
#X obj 379 150 + 1;
#X obj 333 99 t b b;
#X msg 390 116 0;
#X obj 333 116 float \$6;
#X obj 444 118 until 1;
#X obj 444 169 pack f 0;
#X obj 444 135 float 0;
#X obj 444 152 t f f;
#X obj 490 135 + 1;
#X obj 444 84 t b b;
#X msg 501 101 0;
#X obj 444 101 float \$6;
#X text 206 121 < value;
#X obj 232 367 r refreshOthersNames;
#X obj 205 150 hradio 10 1 0 6 empty empty empty 0 -8 0 10 -262144
-1 -1 1;
#X text 205 158 x;
#X text 215 159 1;
#X text 235 159 3;
#X text 225 159 2;
#X text 245 159 4;
#X text 255 159 5;
#X floatatom 268 150 3 0 1e+07 0 - - -, f 3;
#X msg 251 197 set \$1;
#X obj 104 180 r asked-\$5;
#X obj 104 197 route 0;
#X obj 252 180 t f f, f 6;
#X obj 63 51 s to-\$5-others-\$4-ask-gui;
#X obj 322 37 r asked-\$5-others-\$4-ask-gui;
#X obj 322 54 s to-\$5-others-\$4-gui;
#X obj 476 418 s pd-\$5-others-\$4-gui;
#N canvas 0 50 491 307 \$5-others-\$4-gui 0;
#X obj 100 105 bf-util/bf-util-hcont instru1-others-instru2/parameters/pitch-ask
0 98 10 10;
#X obj 100 125 bf-util/bf-util-hcont instru1-others-instru2/parameters/pitch
0 98 15 0;
#X coords 0 -1 1 1 100 45 2 100 100;
#X restore 103 120 pd \$5-others-\$4-gui;
#X obj 11 256 r from-\$5-others-\$4-gui;
#X obj 178 256 r asked-\$5-others-\$4-gui;
#X obj 281 401 bf-util/bf-util-makeotherscompo \$4 \$5 \$6 \$7;
#X obj 333 203 s ask-\$5-others-\$4-gui;
#X obj 444 186 s ask-\$5-others-\$4-ask-gui;
#X obj 146 7 r to-\$5-others;
#X obj 104 214 s to-\$5-others-\$4-gui;
#X obj 217 369 bng 15 250 50 0 empty empty empty 17 7 0 10 -262144
-1 -1;
#X msg 236 401 init 0;
#X obj 233 384 t b b b;
#X msg 192 401 init 0;
#X obj 192 418 s to-\$5-others-\$4-ask-gui;
#X obj 346 418 s to-\$5-others-\$4-gui;
#X obj 176 290 unpack f f;
#X msg 11 324 sendtyped \$1 ffs \$2 \$3 \$4;
#X obj 11 273 t b a b;
#X obj 250 290 symbol \$5;
#X obj 11 307 pack s f f s;
#X obj 11 290 symbol /boeuf/\$1/\$4/ask;
#X connect 3 0 5 0;
#X connect 5 0 0 0;
#X connect 6 0 38 0;
#X connect 6 1 1 0;
#X connect 8 0 10 0;
#X connect 9 0 46 0;
#X connect 10 0 11 0;
#X connect 11 0 9 0;
#X connect 11 1 12 0;
#X connect 12 0 10 1;
#X connect 13 0 15 0;
#X connect 13 1 14 0;
#X connect 14 0 10 1;
#X connect 15 0 8 0;
#X connect 16 0 18 0;
#X connect 17 0 47 0;
#X connect 18 0 19 0;
#X connect 19 0 17 0;
#X connect 19 1 20 0;
#X connect 20 0 18 1;
#X connect 21 0 23 0;
#X connect 21 1 22 0;
#X connect 22 0 18 1;
#X connect 23 0 16 0;
#X connect 25 0 52 0;
#X connect 26 0 33 0;
#X connect 33 0 37 0;
#X connect 34 0 26 0;
#X connect 35 0 36 0;
#X connect 36 0 49 0;
#X connect 37 0 36 1;
#X connect 37 1 34 0;
#X connect 39 0 40 0;
#X connect 43 0 58 0;
#X connect 44 0 58 0;
#X connect 45 0 41 0;
#X connect 48 0 6 0;
#X connect 50 0 52 0;
#X connect 51 0 55 0;
#X connect 52 0 53 0;
#X connect 52 1 51 0;
#X connect 52 2 45 0;
#X connect 53 0 54 0;
#X connect 56 0 60 1;
#X connect 56 1 60 2;
#X connect 57 0 4 0;
#X connect 58 0 61 0;
#X connect 58 1 56 0;
#X connect 58 2 59 0;
#X connect 59 0 60 3;
#X connect 60 0 57 0;
#X connect 61 0 60 0;
#X coords 0 -1 1 1 190 75 2 100 100;
