#N canvas 162 23 508 422 10;
#X obj 64 83 symbol;
#X obj 101 123 r clear-\$1-others;
#X obj 65 174 value \$1-curOtherPos;
#X obj 81 66 r \$1-curOtherFullName;
#X obj 65 191 t f f f;
#X obj 159 255 + 1;
#X obj 64 41 inlet;
#X obj 65 238 tabread \$1-others\$2sNum;
#X obj 274 105 table \$1-others\$2sNum;
#X obj 274 129 r clear-\$1-others;
#X msg 274 163 \; \$1 const 0;
#X obj 274 146 symbol \$1-others\$2sNum;
#X obj 23 373 outlet;
#X obj 23 238 * \$5;
#X obj 23 261 + \$3;
#X obj 65 287 * \$6;
#X obj 65 310 + \$4;
#X obj 159 272 tabwrite \$1-others\$2sNum;
#X obj 65 263 t f f;
#X obj 65 373 outlet;
#X obj 65 157 t b b;
#X obj 65 106 t a b;
#X obj 65 140 bf-util/bf-util-symbolmap \$1-\$2s;
#X connect 0 0 21 0;
#X connect 1 0 22 1;
#X connect 2 0 4 0;
#X connect 3 0 0 1;
#X connect 4 0 13 0;
#X connect 4 1 7 0;
#X connect 4 2 17 1;
#X connect 5 0 17 0;
#X connect 6 0 0 0;
#X connect 7 0 18 0;
#X connect 9 0 11 0;
#X connect 11 0 10 0;
#X connect 13 0 14 0;
#X connect 14 0 12 0;
#X connect 15 0 16 0;
#X connect 16 0 19 0;
#X connect 18 0 15 0;
#X connect 18 1 5 0;
#X connect 20 0 2 0;
#X connect 21 0 22 0;
#X connect 22 1 20 0;
