#N canvas 5 407 632 349 10;
#X obj 448 237 t b f;
#X obj 394 254 float 0;
#X obj 448 220 spigot;
#X obj 480 203 > 0;
#X obj 413 186 t f f f;
#X obj 19 49 r refreshOthersNames;
#X symbolatom 103 102 10 0 0 0 - - -, f 10;
#X obj 102 172 hradio 10 1 0 6 empty empty empty 0 -8 0 10 -262144
-1 -1 1;
#X text 102 181 x;
#X text 112 181 1;
#X text 132 181 3;
#X text 122 181 2;
#X text 142 181 4;
#X text 152 181 5;
#X floatatom 166 172 5 0 1e+07 0 - - -, f 5;
#X msg 102 209 set \$1;
#X text 335 47 make gui;
#X obj 336 83 t b b;
#X msg 234 100 init 0;
#X obj 146 24 route /\$4/set;
#X obj 101 83 symbol \$3;
#X obj 394 288 s watched-\$5;
#X obj 146 41 t a a;
#X obj 394 271 pack f f f;
#X obj 278 203 unpack f f;
#X obj 102 327 s toBoeuf;
#X msg 102 310 sendtyped /boeuf/\$1/\$2/outputs/\$3/watch ffs \$4 \$5
\$2;
#X obj 102 276 symbol \$1;
#X obj 160 276 symbol \$2;
#X obj 218 276 symbol \$3;
#X obj 102 293 pack s s s 0 f s;
#X obj 102 259 t b b b f b;
#X obj 276 276 symbol \$5;
#X text 164 183 < watch;
#X obj 146 7 r to-\$5-others;
#X obj 146 58 s to-\$5-others-\$4-ask-gui;
#X obj 386 117 s pd-\$5-others-\$4-gui;
#X obj 234 117 s to-\$5-others-\$4-ask-gui;
#X obj 345 100 bf-util/bf-util-makeotherscompoout \$4 \$5 \$6 \$7;
#N canvas 0 22 450 300 \$5-others-\$4-gui 0;
#X obj 100 100 bf-util/bf-util-bang instru2-others-instru1/outputs/onsets-ask
0 95 45 10;
#X coords 0 -1 1 1 100 50 2 100 100;
#X restore 103 118 pd \$5-others-\$4-gui;
#X obj 19 66 t b b;
#X obj 336 68 bng 15 250 50 0 empty empty empty 17 7 0 10 -262144 -1
-1;
#X connect 0 0 1 0;
#X connect 0 1 23 1;
#X connect 1 0 23 0;
#X connect 2 0 0 0;
#X connect 3 0 2 1;
#X connect 4 0 31 0;
#X connect 4 1 1 1;
#X connect 4 2 3 0;
#X connect 5 0 40 0;
#X connect 7 0 14 0;
#X connect 14 0 15 0;
#X connect 14 0 4 0;
#X connect 15 0 7 0;
#X connect 17 0 18 0;
#X connect 17 1 38 0;
#X connect 18 0 37 0;
#X connect 19 0 22 0;
#X connect 20 0 6 0;
#X connect 22 0 35 0;
#X connect 22 1 24 0;
#X connect 23 0 21 0;
#X connect 24 0 2 0;
#X connect 24 1 23 2;
#X connect 26 0 25 0;
#X connect 27 0 30 0;
#X connect 28 0 30 1;
#X connect 29 0 30 2;
#X connect 30 0 26 0;
#X connect 31 0 27 0;
#X connect 31 1 28 0;
#X connect 31 2 29 0;
#X connect 31 3 30 4;
#X connect 31 4 32 0;
#X connect 32 0 30 5;
#X connect 34 0 19 0;
#X connect 38 0 36 0;
#X connect 40 0 20 0;
#X connect 40 1 17 0;
#X connect 41 0 17 0;
#X coords 0 -1 1 1 110 100 2 100 100;
