#N canvas 21 35 639 368 10;
#X obj 44 45 inlet;
#X obj 44 300 outlet, f 7;
#X msg 7 79 clear;
#X obj 44 181 float 0;
#X obj 90 181 + 1, f 4;
#X obj 44 164 until 1;
#X obj 44 215 expr $f1*$f2+100;
#X obj 44 198 t f f f;
#X obj 44 62 t b b;
#X obj 44 147 t f f b;
#X msg 90 147 0;
#X obj 44 249 t a a;
#X obj 170 130 moses 2;
#X obj 339 266 t a a;
#X obj 155 184 t b b f f;
#X obj 44 232 pack f s s f f;
#X obj 339 249 pack s s;
#X obj 339 147 t b b;
#X obj 262 215 symbol bf-util/bf-util-\$4;
#X obj 339 188 symbol bf-util/bf-util-h\$4;
#X obj 170 113 float \$3;
#X obj 144 215 symbol \$2-others-\$1;
#X obj 499 188 symbol \$2-others-\$1;
#X obj 122 79 symbol \$4;
#X obj 122 96 select cont midi;
#X obj 44 113 t b;
#X obj 44 130 float \$3;
#X msg 44 266 obj \$1 115 \$2 \$3 \$4 \$5 30 0;
#X msg 71 283 obj \$1 100 \$2 \$3-ask \$4 \$5 15 10;
#X obj 123 164 expr min(45 \, 98/$f1);
#X msg 339 283 obj 100 125 \$1 \$2 0 98 15 0;
#X msg 351 300 obj 100 105 \$1 \$2-ask 0 98 10 10;
#X connect 0 0 8 0;
#X connect 2 0 1 0;
#X connect 3 0 7 0;
#X connect 4 0 3 1;
#X connect 5 0 3 0;
#X connect 6 0 15 0;
#X connect 7 0 4 0;
#X connect 7 1 6 0;
#X connect 7 2 15 3;
#X connect 8 0 23 0;
#X connect 8 1 2 0;
#X connect 9 0 5 0;
#X connect 9 1 29 0;
#X connect 9 2 10 0;
#X connect 10 0 3 1;
#X connect 11 0 27 0;
#X connect 11 1 28 0;
#X connect 12 0 17 0;
#X connect 12 1 9 0;
#X connect 13 0 30 0;
#X connect 13 1 31 0;
#X connect 14 0 18 0;
#X connect 14 1 21 0;
#X connect 14 2 6 1;
#X connect 14 3 15 4;
#X connect 15 0 11 0;
#X connect 16 0 13 0;
#X connect 17 0 19 0;
#X connect 17 1 22 0;
#X connect 18 0 15 1;
#X connect 19 0 16 0;
#X connect 20 0 12 0;
#X connect 21 0 15 2;
#X connect 22 0 16 1;
#X connect 23 0 24 0;
#X connect 24 0 20 0;
#X connect 24 1 20 0;
#X connect 24 2 25 0;
#X connect 25 0 26 0;
#X connect 26 0 9 0;
#X connect 27 0 1 0;
#X connect 28 0 1 0;
#X connect 29 0 14 0;
#X connect 30 0 1 0;
#X connect 31 0 1 0;
