#N canvas 37 452 450 300 10;
#X obj 99 52 route \$2;
#X obj 100 173 float \$2;
#X obj 221 122 route \$2;
#X obj 100 190 pack f 0;
#X obj 100 156 t b f f;
#X obj 99 18 r to-\$1-gui;
#X obj 99 69 s \$1-\$2-gui;
#X obj 100 207 s from-\$1-gui;
#X obj 221 190 s asked-\$1-gui;
#X obj 221 105 r ask-\$1-gui;
#X obj 221 156 float \$2;
#X obj 221 173 pack f 0;
#X obj 221 139 t b;
#X obj 100 100 bng 45 250 50 0 \$1-\$2-guiout \$1-\$2-gui empty 17
7 0 10 -262144 -1 -1;
#X obj 20 264 s \$1-\$2-gui;
#X obj 20 141 float \$3;
#X obj 20 230 t f b f;
#X msg 371 247 dirty 0;
#X obj 99 35 route init;
#X obj 248 55 namecanvas \$0-bang;
#X obj 94 264 s \$0-bang;
#X msg 94 247 donecanvasdialog 0 0 2 0 0 1 1 \$1 \$1 100 100;
#X msg 20 247 size \$1;
#X obj 20 52 t b b;
#X obj 30 103 s \$1-\$2-gui;
#X obj 30 69 float \$5;
#X msg 30 86 color \$1;
#X connect 0 0 6 0;
#X connect 1 0 3 0;
#X connect 2 0 12 0;
#X connect 3 0 7 0;
#X connect 4 0 1 0;
#X connect 4 1 3 1;
#X connect 4 2 11 1;
#X connect 5 0 18 0;
#X connect 9 0 2 0;
#X connect 10 0 11 0;
#X connect 11 0 8 0;
#X connect 12 0 10 0;
#X connect 13 0 4 0;
#X connect 15 0 16 0;
#X connect 16 0 22 0;
#X connect 16 1 17 0;
#X connect 16 2 21 0;
#X connect 17 0 20 0;
#X connect 18 0 23 0;
#X connect 18 1 0 0;
#X connect 21 0 20 0;
#X connect 22 0 14 0;
#X connect 23 0 15 0;
#X connect 23 1 25 0;
#X connect 25 0 26 0;
#X connect 26 0 24 0;
#X coords 0 0 1 1 45 45 2 100 100;
