#N canvas 15 23 579 344 10;
#X obj 44 20 inlet;
#X obj 44 315 outlet, f 7;
#X msg 7 54 clear;
#X obj 44 156 float 0;
#X obj 90 156 + 1, f 4;
#X obj 44 139 until 1;
#X obj 152 88 float \$3;
#X obj 44 190 expr $f1*$f2+100;
#X obj 44 173 t f f f;
#X obj 44 37 t b b;
#X obj 44 122 t f f b;
#X msg 90 122 0;
#X obj 144 190 symbol \$1-\$2;
#X obj 44 264 t a a;
#X obj 325 281 t a a;
#X obj 344 156 symbol \$1-\$2;
#X obj 325 139 symbol bf-util/bf-util-h\$4;
#X obj 220 190 symbol bf-util/bf-util-\$4;
#X obj 325 122 t b b b;
#X obj 44 247 pack f s s f f f;
#X obj 155 159 t b b f f f;
#X obj 153 230 min 30;
#X obj 220 230 min 15;
#X msg 44 281 obj \$1 100 \$2 \$3 \$4 \$5 30 0;
#X msg 71 298 obj \$1 130 \$2 \$3-ask \$4 \$6 15 10;
#X obj 56 54 symbol \$4;
#X obj 56 71 select cont midi;
#X obj 152 105 moses 2;
#X text 292 101 horizontal cont and midi sliders;
#X obj 325 264 pack s s;
#X obj 44 105 float \$3;
#X obj 44 88 t b;
#X obj 155 139 expr 98/$f1;
#X msg 325 298 obj 100 105 \$1 \$2 0 98 15 0;
#X msg 352 315 obj 100 130 \$1 \$2-ask 0 98 10 10;
#X connect 0 0 9 0;
#X connect 2 0 1 0;
#X connect 3 0 8 0;
#X connect 4 0 3 1;
#X connect 5 0 3 0;
#X connect 6 0 27 0;
#X connect 7 0 19 0;
#X connect 8 0 4 0;
#X connect 8 1 7 0;
#X connect 8 2 19 3;
#X connect 9 0 25 0;
#X connect 9 1 2 0;
#X connect 10 0 5 0;
#X connect 10 1 32 0;
#X connect 10 2 11 0;
#X connect 11 0 3 1;
#X connect 12 0 19 2;
#X connect 13 0 23 0;
#X connect 13 1 24 0;
#X connect 14 0 33 0;
#X connect 14 1 34 0;
#X connect 15 0 29 1;
#X connect 16 0 29 0;
#X connect 17 0 19 1;
#X connect 18 0 16 0;
#X connect 18 1 15 0;
#X connect 19 0 13 0;
#X connect 20 0 17 0;
#X connect 20 1 12 0;
#X connect 20 2 7 1;
#X connect 20 3 21 0;
#X connect 20 4 22 0;
#X connect 21 0 19 4;
#X connect 22 0 19 5;
#X connect 23 0 1 0;
#X connect 24 0 1 0;
#X connect 25 0 26 0;
#X connect 26 0 6 0;
#X connect 26 1 6 0;
#X connect 26 2 31 0;
#X connect 27 0 18 0;
#X connect 27 1 10 0;
#X connect 29 0 14 0;
#X connect 30 0 10 0;
#X connect 31 0 30 0;
#X connect 32 0 20 0;
#X connect 33 0 1 0;
#X connect 34 0 1 0;
