#N canvas 706 381 450 354 10;
#X obj 35 9 inlet;
#X obj 48 315 outlet;
#X obj 208 314 outlet;
#X obj 48 177 select test;
#X obj 49 104 qlist;
#X msg -34 86 rewind;
#X obj 34 229 float 0;
#X msg 136 212 0;
#X obj -33 125 r \$1-list;
#X msg 82 212 1;
#X obj 217 69 pack s s;
#X obj 262 35 loadbang;
#X obj 262 52 symbol \$1-list;
#X obj 169 238 select 0 1;
#X msg 217 86 add \$2 \$1;
#X msg 153 71 clear;
#X obj 48 160 symbol test;
#X obj 217 48 symbol;
#X obj -65 67 t b b;
#X obj -64 189 float 0;
#X msg -65 154 0;
#X obj -6 199 + 1;
#X obj 48 288 float 0;
#X obj 48 194 t b b;
#X obj 169 10 inlet;
#X obj 35 30 symbol test;
#X obj 35 52 t b b b a b a a;
#X obj -33 142 t a b;
#X obj -63 239 t f f f;
#X obj 110 281 float 0;
#X obj 110 298 + 1;
#X obj 169 33 t b b;
#X msg 140 259 -1;
#X obj 169 264 t b b;
#X msg 135 116 print;
#X connect 0 0 25 0;
#X connect 3 0 23 0;
#X connect 5 0 4 0;
#X connect 6 0 13 0;
#X connect 7 0 6 1;
#X connect 8 0 27 0;
#X connect 9 0 6 1;
#X connect 10 0 14 0;
#X connect 11 0 12 0;
#X connect 12 0 10 1;
#X connect 13 0 33 0;
#X connect 14 0 4 0;
#X connect 15 0 4 0;
#X connect 16 0 3 0;
#X connect 17 0 10 0;
#X connect 18 0 20 0;
#X connect 18 1 5 0;
#X connect 19 0 28 0;
#X connect 20 0 19 1;
#X connect 21 0 19 1;
#X connect 22 0 1 0;
#X connect 23 0 22 0;
#X connect 23 1 9 0;
#X connect 24 0 31 0;
#X connect 25 0 26 0;
#X connect 26 0 6 0;
#X connect 26 1 4 0;
#X connect 26 2 18 0;
#X connect 26 3 3 1;
#X connect 26 4 7 0;
#X connect 26 6 17 1;
#X connect 27 0 16 0;
#X connect 27 1 19 0;
#X connect 28 0 22 1;
#X connect 28 1 29 1;
#X connect 28 2 21 0;
#X connect 29 0 30 0;
#X connect 30 0 2 0;
#X connect 31 0 15 0;
#X connect 31 1 32 0;
#X connect 32 0 29 1;
#X connect 33 0 29 0;
#X connect 33 1 17 0;
#X connect 34 0 4 0;
