#N canvas 99 324 450 381 10;
#X obj 99 55 route \$2;
#X obj 170 173 float \$2;
#X obj 291 122 route \$2;
#X obj 170 190 pack f 0;
#X obj 170 156 t b f f;
#X obj 99 21 r to-\$1-gui;
#X obj 99 72 s \$1-\$2-gui;
#X obj 170 207 s from-\$1-gui;
#X obj 291 190 s asked-\$1-gui;
#X obj 291 105 r ask-\$1-gui;
#X obj 291 156 float \$2;
#X obj 291 173 pack f 0;
#X obj 291 139 t b;
#X obj 103 100 hsl 95 15 0 127 0 0 \$1-\$2-guiout \$1-\$2-gui empty
-2 -8 0 10 -262144 -1 -1 0 0;
#X obj 170 139 int;
#X obj 20 321 s \$1-\$2-gui;
#X obj 20 131 float \$3;
#X msg 94 321 dirty 0;
#X obj 39 148 float \$4;
#X msg 94 304 donecanvasdialog 0 0 2 0 0 1 1 \$1 \$2 100 100;
#X obj 94 287 pack f f;
#X msg 20 304 size \$1 \$2;
#X obj 20 287 pack f f;
#X obj 20 253 t f b f;
#X obj 39 219 t f f;
#X obj 20 55 t b b b;
#X obj 59 165 float \$5;
#X msg 59 182 color \$1;
#X obj 59 199 s \$1-\$2-gui;
#X obj 20 270 - 5;
#X obj 99 38 route init;
#X obj 236 25 namecanvas \$0-midi;
#X obj 94 338 s \$0-midi;
#X connect 0 0 6 0;
#X connect 1 0 3 0;
#X connect 2 0 12 0;
#X connect 3 0 7 0;
#X connect 4 0 1 0;
#X connect 4 1 3 1;
#X connect 4 2 11 1;
#X connect 5 0 30 0;
#X connect 9 0 2 0;
#X connect 10 0 11 0;
#X connect 11 0 8 0;
#X connect 12 0 10 0;
#X connect 13 0 14 0;
#X connect 14 0 4 0;
#X connect 16 0 23 0;
#X connect 17 0 32 0;
#X connect 18 0 24 0;
#X connect 19 0 32 0;
#X connect 20 0 19 0;
#X connect 21 0 15 0;
#X connect 22 0 21 0;
#X connect 23 0 29 0;
#X connect 23 1 17 0;
#X connect 23 2 20 0;
#X connect 24 0 22 1;
#X connect 24 1 20 1;
#X connect 25 0 16 0;
#X connect 25 1 18 0;
#X connect 25 2 26 0;
#X connect 26 0 27 0;
#X connect 27 0 28 0;
#X connect 29 0 22 0;
#X connect 30 0 25 0;
#X connect 30 1 0 0;
#X coords 0 0 1 1 100 15 2 100 100;
