#N canvas 94 259 445 361 10;
#X obj 99 52 route \$2;
#X obj 140 173 float \$2;
#X obj 231 122 route \$2;
#X obj 140 190 pack f 0;
#X obj 140 156 t b f f;
#X obj 99 18 r to-\$1-gui;
#X obj 99 69 s \$1-\$2-gui;
#X obj 140 207 s from-\$1-gui;
#X obj 231 190 s asked-\$1-gui;
#X obj 231 105 r ask-\$1-gui;
#X obj 231 156 float \$2;
#X obj 231 173 pack f 0;
#X obj 231 139 t b;
#X obj 103 100 hsl 95 45 0 1 0 0 \$1-\$2-guiout \$1-\$2-gui empty -2
-8 0 10 -233017 -1 -1 0 0;
#X obj 99 35 route init;
#X obj 20 321 s \$1-\$2-gui;
#X obj 20 131 float \$3;
#X obj 94 338 s \$0-cont;
#X msg 94 321 dirty 0;
#X obj 39 148 float \$4;
#X msg 94 304 donecanvasdialog 0 0 2 0 0 1 1 \$1 \$2 100 100;
#X obj 94 287 pack f f;
#X msg 20 304 size \$1 \$2;
#X obj 20 287 pack f f;
#X obj 20 253 t f b f;
#X obj 39 219 t f f;
#X obj 20 52 t b b b;
#X obj 59 165 float \$5;
#X msg 59 182 color \$1;
#X obj 59 199 s \$1-\$2-gui;
#X obj 252 46 namecanvas \$0-cont;
#X obj 20 270 - 5;
#X connect 0 0 6 0;
#X connect 1 0 3 0;
#X connect 2 0 12 0;
#X connect 3 0 7 0;
#X connect 4 0 1 0;
#X connect 4 1 3 1;
#X connect 4 2 11 1;
#X connect 5 0 14 0;
#X connect 9 0 2 0;
#X connect 10 0 11 0;
#X connect 11 0 8 0;
#X connect 12 0 10 0;
#X connect 13 0 4 0;
#X connect 14 0 26 0;
#X connect 14 1 0 0;
#X connect 16 0 24 0;
#X connect 18 0 17 0;
#X connect 19 0 25 0;
#X connect 20 0 17 0;
#X connect 21 0 20 0;
#X connect 22 0 15 0;
#X connect 23 0 22 0;
#X connect 24 0 31 0;
#X connect 24 1 18 0;
#X connect 24 2 21 0;
#X connect 25 0 23 1;
#X connect 25 1 21 1;
#X connect 26 0 16 0;
#X connect 26 1 19 0;
#X connect 26 2 27 0;
#X connect 27 0 28 0;
#X connect 28 0 29 0;
#X connect 31 0 23 0;
#X coords 0 0 1 1 100 45 2 100 100;
