#N canvas 10 369 670 342 10;
#X obj 44 24 inlet;
#X obj 44 308 outlet, f 7;
#X msg 17 78 clear;
#X obj 44 202 float 0;
#X obj 90 202 + 1, f 4;
#X obj 44 185 until 1;
#X obj 44 236 expr $f1*$f2+100;
#X obj 44 219 t f f f;
#X obj 44 41 t b b;
#X obj 44 168 t f f b;
#X msg 90 168 0;
#X obj 155 219 t b b f f;
#X obj 44 253 pack f s s f f;
#X obj 452 270 pack s s;
#X obj 452 126 t b b;
#X obj 246 160 pack s s f;
#X obj 246 126 t b b b;
#X obj 246 143 symbol bf-util/bf-util-array;
#X obj 536 143 float \$3;
#X obj 144 236 symbol \$2-others-\$1;
#X obj 479 209 symbol \$2-others-\$1;
#X obj 262 236 symbol bf-util/bf-util-\$4;
#X obj 452 192 symbol bf-util/bf-util-h\$4;
#X obj 418 143 symbol \$2-others-\$1;
#X obj 174 92 float \$3;
#X obj 174 109 moses 2;
#X obj 44 121 t b;
#X obj 74 58 symbol \$4;
#X obj 74 75 select cont midi;
#X obj 44 138 float \$3;
#X msg 246 291 obj 100 110 \$1 \$2-ask 0 \$3 45 10;
#X msg 44 291 obj \$1 100 \$2 \$3-ask \$4 \$5 45 10;
#X msg 452 291 obj 100 100 \$1 \$2-ask 0 98 45 10;
#X obj 123 185 expr min(45 \, 98/$f1);
#X connect 0 0 8 0;
#X connect 2 0 1 0;
#X connect 3 0 7 0;
#X connect 4 0 3 1;
#X connect 5 0 3 0;
#X connect 6 0 12 0;
#X connect 7 0 4 0;
#X connect 7 1 6 0;
#X connect 7 2 12 3;
#X connect 8 0 27 0;
#X connect 8 1 2 0;
#X connect 9 0 5 0;
#X connect 9 1 33 0;
#X connect 9 2 10 0;
#X connect 10 0 3 1;
#X connect 11 0 21 0;
#X connect 11 1 19 0;
#X connect 11 2 6 1;
#X connect 11 3 12 4;
#X connect 12 0 31 0;
#X connect 13 0 32 0;
#X connect 14 0 22 0;
#X connect 14 1 20 0;
#X connect 15 0 30 0;
#X connect 16 0 17 0;
#X connect 16 1 23 0;
#X connect 16 2 18 0;
#X connect 17 0 15 0;
#X connect 18 0 15 2;
#X connect 19 0 12 2;
#X connect 20 0 13 1;
#X connect 21 0 12 1;
#X connect 22 0 13 0;
#X connect 23 0 15 1;
#X connect 24 0 25 0;
#X connect 25 0 14 0;
#X connect 25 1 16 0;
#X connect 26 0 29 0;
#X connect 27 0 28 0;
#X connect 28 0 24 0;
#X connect 28 1 24 0;
#X connect 28 2 26 0;
#X connect 29 0 9 0;
#X connect 30 0 1 0;
#X connect 31 0 1 0;
#X connect 32 0 1 0;
#X connect 33 0 11 0;
