#N canvas 72 125 895 581 10;
#X obj 388 280 t b;
#X obj 388 218 f;
#X obj 388 311 f;
#X msg 388 188 bang;
#X obj 495 271 t b f;
#X obj 247 294 dbtorms;
#X msg 263 239 set \$1;
#X obj 247 351 line~;
#X obj 247 323 pack 0 50;
#X obj 13 430 outlet~;
#X floatatom 102 122 0 0 0 0 - - -;
#X obj 105 102 hsl 132 15 -60 10 0 0 empty empty empty -2 -8 0 10 -204786
-1 -1 7500 1;
#X text 156 122 dB(FS);
#X obj 247 267 + 100;
#X obj 102 173 s \$0-level;
#X obj 247 211 r \$0-level;
#X obj 460 181 r \$0-level;
#X obj 388 341 s \$0-level;
#X obj 460 227 moses -60;
#X msg 495 302 -100;
#X obj 388 250 moses -60;
#X obj 39 390 *~;
#X obj 16 15 inlet~;
#X text 61 124 comment;
#X text -26 507 This patch has applies dbFS volume to a signal \, and
has a mute button that remembers state;
#X obj 200 123 tgl 15 0 empty empty Mute 17 7 0 10 -261234 -1 -1 1
1;
#X obj 211 21 inlet;
#X text 252 21 gain in dB;
#X obj 245 424 outlet~;
#X text 301 425 linear gain as an audio signal;
#X text 65 19 audio in;
#X text 67 428 gain-adjusted audio;
#X text 653 90 This object provides control of gain in decibels \,
as well as a quick mute function. Luke Dahl 2016;
#X obj 529 427 outlet;
#X text 579 428 linear gain;
#X connect 0 0 2 0;
#X connect 1 0 20 0;
#X connect 2 0 17 0;
#X connect 3 0 1 0;
#X connect 4 0 19 0;
#X connect 5 0 8 0;
#X connect 5 0 33 0;
#X connect 6 0 10 0;
#X connect 7 0 21 1;
#X connect 7 0 28 0;
#X connect 8 0 7 0;
#X connect 10 0 14 0;
#X connect 11 0 10 0;
#X connect 13 0 5 0;
#X connect 15 0 6 0;
#X connect 15 0 13 0;
#X connect 16 0 1 1;
#X connect 16 0 18 0;
#X connect 18 1 2 1;
#X connect 19 0 17 0;
#X connect 20 0 0 0;
#X connect 20 1 4 0;
#X connect 21 0 9 0;
#X connect 22 0 21 0;
#X connect 25 0 3 0;
#X connect 26 0 11 0;
#X coords 0 -1 1 1 142 42 1 100 100;
