#N canvas 279 140 410 730 10;
#X obj 51 11 cnv 15 40 570 empty empty \$1 1 5 1 8 -257985 -1 0;
#X text 23 -16 KEPtype nomUnique;
#X obj 151 7 KEPface \$1;
#X obj 58 569 bng 10 250 50 0 empty empty empty 17 7 0 10 -4034 -1
-1;
#X obj 75 569 bng 10 250 50 0 empty empty empty 17 7 0 10 -258113 -1
-1;
#X obj 54 110 MASTERtypeOUT \$1 1;
#N canvas 1131 244 311 308 KEPboutons 1;
#X obj 27 55 KEPbus \$1 Note Note b2;
#X obj 27 34 KEPbus \$1 Cutoff Cutoff b1;
#X obj 26 78 KEPbus \$1 Reso Reso b3;
#X obj 26 100 KEPbus \$1 PWM PWM b4;
#X obj 25 122 KEPbus \$1 Volume Volume b5;
#X obj 33 163 KEPbus \$1 SIN SIN t1;
#X obj 30 184 KEPbus \$1 TRI TRI t2;
#X obj 31 206 KEPbus \$1 SAW SAW t3;
#X obj 32 227 KEPbus \$1 SQU SQU t4;
#X obj 31 249 KEPbus \$1 Play Play- tREC;
#X restore 170 378 pd KEPboutons;
#N canvas 336 165 887 614 son 1;
#X obj 130 433 Vmull~ 0 10;
#X obj 131 459 outlet~;
#X obj 355 44 t b;
#X obj 355 22 r SYNCHRO-clock;
#X obj 355 66 s \$1-lrouge-rcv;
#X obj 41 365 s \$1-lvert-rcv;
#X obj 63 406 s \$0-onoff;
#X obj 63 389 tgl 15 1 empty empty empty 17 7 0 10 -262144 -1 -1 1
1;
#X obj 161 369 r \$1-Volume;
#X obj 262 424 r \$1-Volume_max;
#X obj 130 341 hip~ 10;
#X obj 214 14 r \$1-Note;
#X obj 196 404 r \$1-Play;
#X obj 218 434 tgl 15 0 empty empty empty 17 7 0 10 -262144 -1 -1 0
1;
#X floatatom 79 217 7 0 0 0 - - -;
#X obj 213 91 mtof;
#X obj 173 236 osc~;
#X msg 209 120 \$1 10;
#X obj 208 141 line~;
#X obj 52 280 lop~ 2000;
#X obj 161 412 m 0;
#X obj 255 235 blosc~ saw;
#X msg 483 174 0;
#X obj 442 184 *~ -1;
#X obj 386 162 +~;
#X obj 386 253 *~ 2;
#X obj 386 275 -~ 1;
#X obj 386 299 clip~ 0 1;
#X obj 470 250 *~ 2;
#X obj 470 272 -~ 1;
#X obj 470 296 clip~ 0 1;
#X obj 623 141 phasor~;
#X obj 623 317 blosc~ comparator;
#X obj 623 289 -~ 0.5;
#X floatatom 693 271 5 0 0 0 - - -;
#X obj 696 253 hsl 50 15 0.01 0.99 0 0 empty empty empty -2 -6 0 8
-262144 -1 -1 3636 1;
#X msg 693 232 0.5;
#X obj 385 218 phasor~;
#X obj 469 216 phasor~;
#X obj 713 143 r \$1-PWM;
#X obj 715 168 * 0.499;
#X obj 715 192 + 0.5;
#X obj 622 370 *~;
#X obj 651 349 r \$0-mode;
#X obj 402 343 *~;
#X obj 457 321 r \$0-mode;
#X obj 266 289 *~;
#X obj 295 268 r \$0-mode;
#X obj 145 286 *~;
#X obj 174 265 r \$0-mode;
#X obj 175 287 == 0;
#X obj 422 416 r \$1-SIN;
#X obj 422 438 sel 1;
#X msg 422 459 0;
#X obj 482 441 sel 1;
#X obj 540 442 sel 1;
#X obj 600 445 sel 1;
#X obj 482 419 r \$1-TRI;
#X obj 297 290 == 2;
#X obj 458 343 == 1;
#X msg 483 462 1;
#X obj 541 420 r \$1-SAW;
#X msg 540 463 2;
#X obj 652 371 == 3;
#X obj 600 423 r \$1-SQU;
#X msg 600 466 3;
#X floatatom 469 496 5 0 0 0 - - -;
#X obj 469 528 s \$0-mode;
#X obj 214 65 - 20;
#X obj 214 40 * 150;
#X connect 0 0 1 0;
#X connect 2 0 4 0;
#X connect 3 0 2 0;
#X connect 7 0 6 0;
#X connect 8 0 20 0;
#X connect 10 0 0 0;
#X connect 11 0 69 0;
#X connect 12 0 13 0;
#X connect 12 0 20 1;
#X connect 15 0 17 0;
#X connect 15 0 14 0;
#X connect 16 0 48 0;
#X connect 17 0 18 0;
#X connect 18 0 21 0;
#X connect 18 0 16 0;
#X connect 18 0 24 0;
#X connect 18 0 31 0;
#X connect 20 0 0 1;
#X connect 21 0 46 0;
#X connect 22 0 37 1;
#X connect 22 0 38 1;
#X connect 23 0 38 0;
#X connect 24 0 23 0;
#X connect 24 0 37 0;
#X connect 25 0 26 0;
#X connect 26 0 27 0;
#X connect 27 0 44 0;
#X connect 28 0 29 0;
#X connect 29 0 30 0;
#X connect 30 0 44 0;
#X connect 31 0 33 0;
#X connect 32 0 42 0;
#X connect 33 0 32 0;
#X connect 34 0 33 1;
#X connect 35 0 34 0;
#X connect 36 0 35 0;
#X connect 37 0 25 0;
#X connect 38 0 28 0;
#X connect 39 0 40 0;
#X connect 40 0 41 0;
#X connect 41 0 35 0;
#X connect 42 0 10 0;
#X connect 43 0 63 0;
#X connect 44 0 10 0;
#X connect 45 0 59 0;
#X connect 46 0 10 0;
#X connect 47 0 58 0;
#X connect 48 0 10 0;
#X connect 49 0 50 0;
#X connect 50 0 48 1;
#X connect 51 0 52 0;
#X connect 52 0 53 0;
#X connect 53 0 66 0;
#X connect 54 0 60 0;
#X connect 55 0 62 0;
#X connect 56 0 65 0;
#X connect 57 0 54 0;
#X connect 58 0 46 1;
#X connect 59 0 44 1;
#X connect 60 0 66 0;
#X connect 61 0 55 0;
#X connect 62 0 66 0;
#X connect 63 0 42 1;
#X connect 64 0 56 0;
#X connect 65 0 66 0;
#X connect 66 0 67 0;
#X connect 68 0 15 0;
#X connect 69 0 68 0;
#X restore 172 185 pd son;
#X obj 127 467 tgl 15 1 empty empty empty 17 7 0 10 -262144 -1 -1 1
1;
#X obj 126 485 switch~;
#X obj 34 611 KEPCommon \$1 \$0;
#X obj 54 22 MASTERtypeNO_IN \$0;
#X connect 3 0 10 0;
#X connect 4 0 10 1;
#X connect 7 0 5 0;
#X connect 8 0 9 0;
#X coords 0 -1 1 1 42 572 2 50 10;
