#N canvas 387 251 972 611 10;
#X declare -path AutoPreset -stdpath moonlib -stdpath iemlib -lib zexy
;
#N canvas 464 572 450 300 config 0;
#X obj 100 157 apmaster config;
#X obj 100 200 bng 15 250 50 0 empty empty load 17 7 0 10 -4034 -1
-1;
#X obj 159 101 bng 30 250 50 0 empty empty save 3 15 0 10 -258113 -1
-1;
#X obj 100 179 loadbang;
#X obj 100 224 apmasterfile \$1-config presets/config.txt;
#X connect 1 0 4 0;
#X connect 2 0 4 1;
#X connect 3 0 1 0;
#X coords 0 -1 1 1 90 32 1 100 100;
#X restore 113 19 pd config;
#N canvas 0 81 450 300 declares 0;
#X obj 38 16 declare -path AutoPreset -stdpath moonlib -stdpath iemlib
-lib zexy;
#X restore 20 21 pd declares;
#N canvas 4 326 542 366 masterMain 0;
#X obj 184 42 mull~ 1 10;
#X obj 349 33 mull~ 1 10;
#X obj 91 34 mull~ 1 10;
#X obj 122 133 lim~;
#X obj 158 133 lim~;
#X obj 170 133 lim~;
#X obj 105 135 vsl 15 80 0 1 0 1 empty empty IN 0 -9 0 10 -262130 -1
-1 7900 1;
#X obj 105 222 pow 2;
#X obj 105 244 * 4;
#X obj 141 135 vsl 15 80 0 1 0 1 empty empty OUT 0 -9 0 10 -262130
-1 -1 5500 1;
#X obj 141 222 pow 2;
#X obj 141 244 * 4;
#X obj 312 126 loadbang;
#X msg 312 148 \; pd dsp 1;
#X obj 73 1 inlet~;
#X obj 173 288 outlet~;
#X obj 237 291 outlet~;
#X obj 184 10 catch~ \$0-Main-out1;
#X obj 350 5 catch~ \$0-Main-out2;
#X obj 82 306 s~ \$0-Main-in1;
#X connect 0 0 4 0;
#X connect 1 0 5 0;
#X connect 2 0 3 0;
#X connect 3 0 19 0;
#X connect 4 0 15 0;
#X connect 5 0 16 0;
#X connect 6 0 7 0;
#X connect 7 0 8 0;
#X connect 8 0 2 1;
#X connect 9 0 10 0;
#X connect 10 0 11 0;
#X connect 11 0 0 1;
#X connect 11 0 1 1;
#X connect 12 0 13 0;
#X connect 14 0 2 0;
#X connect 17 0 0 0;
#X connect 18 0 1 0;
#X coords 0 -1 1 1 85 120 1 100 100;
#X restore 104 194 pd masterMain;
#X floatatom 215 228 5 0 0 0 - - -, f 5;
#X obj 227 273 *~ 0.3;
#X obj 272 272 *~ 0.3;
#X obj 215 183 key;
#X obj 215 205 spigot;
#X obj 248 184 tgl 15 0 empty empty empty 17 7 0 10 -262144 -1 -1 0
1;
#X msg 296 208 smooth \$1;
#X floatatom 296 188 5 1 200 0 - - -, f 5;
#X obj 64 331 outlet~ l;
#X obj 167 360 outlet~ r;
#X obj 105 170 inlet~ in;
#X obj 373 434 out \$0-Main;
#X obj 374 347 out \$0-Main;
#X obj 374 245 out \$0-Main;
#X obj 213 324 out \$0-Main;
#X obj 374 271 l fragseq fs2 \$1-sample \$1;
#X obj 373 370 l stretcher str1 \$1-sample;
#X obj 374 169 fragseq \$1-fs1 \$1-sample \$1;
#X obj 215 247 player \$1-sample-1;
#X obj 610 59 decoupeur_ctl \$1-config \$1-dctl \$1;
#X obj 17 164 *~ 0.2;
#X obj 17 187 out \$0-Main;
#X obj 291 59 decoupeur \$1-sample-1 \$1-dctl;
#X obj 292 110 decoupeur \$1-sample-3 \$1-dctl;
#X obj 292 135 decoupeur \$1-sample-4 \$1-dctl;
#X obj 291 84 decoupeur \$1-sample-2 \$1-dctl;
#N canvas 699 244 609 443 Mode 0;
#X obj 131 87 i;
#X obj 131 109 change;
#X obj 131 131 t f f f;
#X obj 131 275 min 3;
#X floatatom 73 159 5 0 0 0 - - -, f 5;
#X obj 131 65 * 7.9;
#X obj 131 45 r \$1-Mode;
#X obj 314 59 route label;
#X symbolatom 356 235 15 0 0 0 - - -, f 15;
#X obj 314 81 symbol;
#X obj 150 196 change;
#X obj 150 218 + 1;
#X obj 217 168 change;
#X obj 217 147 max 0;
#X obj 217 190 + 0;
#X floatatom 430 131 5 0 0 0 - - -, f 5;
#X obj 446 58 == 2;
#X obj 314 103 pack s f f;
#X obj 314 147 route 0 1;
#X msg 345 189 symbol \$1;
#X msg 413 188 symbol \$1/\$2;
#X msg 314 125 \$2 list \$1 \$3;
#X msg 358 266 label \$1;
#X obj 217 212 s \$1-fs1-fragdenum-rcv;
#X obj 150 240 s \$1-fs1-timemode-rcv;
#X obj 131 297 s \$1-fs1-mode-rcv;
#X obj 314 37 r \$1-fs1-mode-rcv;
#X obj 446 36 r \$1-fs1-timemode-snd;
#X obj 397 100 r \$1-fs1-fragdenum;
#X obj 344 293 s \$1-b2-info;
#X floatatom 275 179 5 0 0 0 - - -, f 5;
#X floatatom 86 230 5 0 0 0 - - -, f 5;
#X obj 150 173 > 3;
#X obj 256 376 moses 7;
#X msg 255 397 1;
#X msg 206 400 0;
#X obj 206 423 f;
#X obj 206 376 moses 3;
#X obj 217 125 - 3;
#X connect 0 0 1 0;
#X connect 1 0 2 0;
#X connect 1 0 4 0;
#X connect 2 0 3 0;
#X connect 2 1 37 0;
#X connect 2 2 38 0;
#X connect 3 0 25 0;
#X connect 5 0 0 0;
#X connect 6 0 5 0;
#X connect 7 0 9 0;
#X connect 8 0 22 0;
#X connect 9 0 17 0;
#X connect 10 0 11 0;
#X connect 11 0 24 0;
#X connect 12 0 14 0;
#X connect 13 0 12 0;
#X connect 14 0 23 0;
#X connect 14 0 30 0;
#X connect 16 0 17 1;
#X connect 17 0 21 0;
#X connect 18 0 19 0;
#X connect 18 1 20 0;
#X connect 19 0 8 0;
#X connect 20 0 8 0;
#X connect 21 0 18 0;
#X connect 22 0 29 0;
#X connect 26 0 7 0;
#X connect 27 0 16 0;
#X connect 28 0 15 0;
#X connect 28 0 17 2;
#X connect 32 0 10 0;
#X connect 32 0 31 0;
#X connect 33 0 34 0;
#X connect 33 1 35 0;
#X connect 34 0 36 0;
#X connect 35 0 36 0;
#X connect 36 0 10 0;
#X connect 37 0 35 0;
#X connect 37 1 33 0;
#X connect 38 0 13 0;
#X restore 631 321 pd Mode;
#X obj 606 347 r \$1-Rec1;
#X obj 606 369 sel 1;
#X obj 503 471 bng 15 250 50 0 empty empty empty 17 7 0 10 -262144
-1 -1;
#X obj 661 527 s \$1-config-\$1-arec1-auto;
#X msg 606 391 1;
#X obj 676 369 sel 1;
#X obj 747 371 sel 1;
#X obj 818 369 sel 1;
#X obj 676 347 r \$1-Rec2;
#X obj 747 349 r \$1-Rec3;
#X obj 818 347 r \$1-Rec4;
#X msg 676 391 2;
#X msg 747 393 3;
#X msg 818 391 4;
#X obj 685 428 f;
#X msg 667 490 1;
#X obj 685 450 t b f;
#X obj 722 502 s \$1-config-\$1-arec1-sampnum;
#X obj 718 472 - 1;
#X obj 17 57 l sample \$1-sample-1 60;
#X obj 17 83 l sample \$1-sample-2 60;
#X obj 17 109 l sample \$1-sample-3 60;
#X obj 16 135 l sample \$1-sample-4 60;
#X obj 27 404 l autorec \$1-config \$1-arec1 \$1-sample \$1;
#X connect 2 0 11 0;
#X connect 2 1 12 0;
#X connect 3 0 21 0;
#X connect 4 0 17 1;
#X connect 5 0 17 0;
#X connect 6 0 7 0;
#X connect 7 0 3 0;
#X connect 8 0 7 1;
#X connect 9 0 21 1;
#X connect 10 0 9 0;
#X connect 13 0 2 0;
#X connect 20 0 16 0;
#X connect 20 1 16 1;
#X connect 21 0 4 0;
#X connect 21 0 17 0;
#X connect 21 1 5 0;
#X connect 21 1 17 1;
#X connect 23 0 24 0;
#X connect 23 0 24 1;
#X connect 30 0 31 0;
#X connect 31 0 34 0;
#X connect 34 0 44 0;
#X connect 35 0 41 0;
#X connect 36 0 42 0;
#X connect 37 0 43 0;
#X connect 38 0 35 0;
#X connect 39 0 36 0;
#X connect 40 0 37 0;
#X connect 41 0 44 0;
#X connect 42 0 44 0;
#X connect 43 0 44 0;
#X connect 45 0 33 0;
#X connect 46 0 45 0;
#X connect 46 1 48 0;
#X connect 48 0 47 0;
#X connect 49 0 23 0;
#X connect 50 0 23 0;
#X connect 51 0 23 0;
#X connect 52 0 23 0;
