#N canvas 15 87 903 673 10;
#X obj 170 31 inlet;
#X obj 170 53 route sample;
#X text 54 3 autorec apref [sample];
#X obj 170 75 s \$0-sample;
#X obj 286 73 s \$0-sample;
#X obj 286 22 loadbang;
#X obj 286 44 symbol \$2;
#X obj 284 95 r \$0-sample;
#X obj 284 117 print sample;
#X obj 410 65 apf;
#X obj 33 87 inlet~;
#X msg 72 537 stop;
#X obj 120 463 timer;
#X obj 367 456 samplerate~;
#X floatatom 367 479 5 0 0 0 - - -, f 5;
#X obj 367 433 loadbang;
#X obj 351 511 *;
#X msg 248 346 20;
#X obj 248 324 moses 0.01;
#X obj 140 503 / 1000;
#X obj 158 437 delay 100;
#X obj 427 434 bng 15 250 50 0 empty empty empty 20 8 0 8 -262144 -1
-1;
#X obj 128 318 sel 1 0;
#X msg 159 342 stop;
#X msg 207 134 0;
#X obj 186 396 * 1000;
#X obj 86 342 t b b b;
#X obj 186 373 f;
#X obj 306 280 switch~ 0;
#X obj 324 675 s \$0-insamplength;
#X obj 402 601 symbol \$0-lesample;
#X obj 351 624 pack f s;
#N canvas 68 402 393 364 autorec 0;
#X obj 54 147 inlet;
#X obj 190 308 outlet;
#X obj 174 9 inlet~;
#X obj 174 31 env~;
#X msg 208 209 stop;
#X obj 208 254 0;
#X obj 190 280 change;
#X obj 76 310 switch~;
#X msg 100 262 0;
#X obj 179 94 > 75;
#X obj 179 139 sel 0 1;
#X obj 181 254 1;
#X obj 208 231 delay 1000;
#X obj 179 115 change;
#X floatatom 211 33 5 0 0 0 - - -, f 5;
#X obj 225 9 inlet;
#X obj 273 10 inlet;
#X obj 273 40 * 1000;
#X obj 179 63 * 1;
#X obj 234 68 r \$0-dontrec;
#X obj 234 94 != 1;
#X obj 201 164 spigot;
#X obj 54 183 sel 0 1;
#X msg 76 204 1;
#X obj 137 218 != 1;
#X obj 100 239 spigot;
#X obj 22 290 tgl 15 0 empty empty empty 0 -6 0 8 -262144 -1 -1 0 1
;
#X obj 139 130 bng 15 250 50 0 empty empty empty 0 -6 0 8 -262144 -1
-1;
#X obj 22 309 outlet;
#X obj 252 309 outlet;
#X connect 0 0 22 0;
#X connect 0 0 24 0;
#X connect 0 0 21 1;
#X connect 2 0 3 0;
#X connect 3 0 18 0;
#X connect 4 0 12 0;
#X connect 5 0 6 0;
#X connect 5 0 29 0;
#X connect 6 0 1 0;
#X connect 8 0 7 0;
#X connect 8 0 26 0;
#X connect 9 0 13 0;
#X connect 10 0 12 0;
#X connect 10 0 25 0;
#X connect 10 0 27 0;
#X connect 10 1 21 0;
#X connect 11 0 6 0;
#X connect 12 0 5 0;
#X connect 13 0 10 0;
#X connect 14 0 9 1;
#X connect 15 0 14 0;
#X connect 16 0 17 0;
#X connect 17 0 12 1;
#X connect 18 0 9 0;
#X connect 19 0 20 0;
#X connect 20 0 18 1;
#X connect 21 0 4 0;
#X connect 21 0 11 0;
#X connect 22 1 23 0;
#X connect 23 0 7 0;
#X connect 23 0 26 0;
#X connect 24 0 25 1;
#X connect 25 0 8 0;
#X connect 26 0 28 0;
#X restore 401 268 pd autorec;
#X obj 306 256 ||;
#X obj 306 234 t b f;
#X obj 282 503 f;
#X obj 140 548 t b f;
#X obj 351 572 spigot;
#X obj 409 537 != 1;
#X obj 402 582 loadbang;
#X obj 461 586 bng 15 250 50 0 empty empty empty 20 8 0 8 -262144 -1
-1;
#X obj 140 526 - 0;
#X obj 432 357 * 0.9;
#X obj 512 517 spigot;
#X obj 509 569 s \$0-reverse;
#X msg 511 548 1;
#X obj 282 529 t f f;
#X obj 337 434 f;
#X floatatom 337 595 8 0 0 0 - - -, f 8;
#X obj 388 331 t f f f;
#X obj 418 393 sel 1;
#X obj 388 506 sel 0;
#X obj 340 541 f;
#X obj 451 636 bng 15 250 50 0 empty empty empty 20 8 0 8 -262144 -1
-1;
#X obj 72 517 delay 10;
#X obj 186 416 + 100;
#X obj 374 168 tgl 15 0 empty empty rec 17 7 0 10 -258113 -1 -1 0 1
;
#X obj 426 168 tgl 15 0 empty empty auto 17 7 0 10 -257985 -1 -1 0
1;
#X msg 239 304 60;
#X obj 239 283 loadbang;
#X text 263 304 max(sec);
#X obj 479 168 nbx 5 14 10 100 0 0 empty empty seuil 0 -8 0 10 -260097
-1 -1 90 256;
#X obj 548 170 hsl 60 12 0.1 3 0 0 empty empty wait:0.8s -2 -8 0 10
-4032 -1 -1 1600 1;
#X obj 636 165 * 10;
#X obj 636 187 i;
#X obj 636 209 / 10;
#X msg 636 231 label wait:\$1s;
#X obj 33 213 delwrite~ \$0-indel 100;
#X obj 37 260 delread~ \$0-indel 12;
#X obj 56 289 r \$0-sample;
#X obj 38 559 tabwrite~;
#X msg 56 311 set \$1;
#X floatatom 341 652 8 0 0 0 - - -, f 8;
#X floatatom 300 703 5 0 0 0 - - -, f 5;
#X obj 401 237 change;
#X obj 290 179 change;
#X obj 140 571 samplerate~;
#X obj 140 592 *;
#X floatatom 65 660 8 0 0 0 - - -, f 8;
#X obj 140 618 pack f s;
#X obj 185 597 r \$0-sample;
#X msg 140 640 \; \$2-setlen \$1;
#X obj 350 22 bng 15 250 50 0 empty empty empty 17 7 0 10 -262144 -1
-1;
#X obj 545 330 - 0.05;
#X connect 0 0 1 0;
#X connect 1 0 3 0;
#X connect 5 0 6 0;
#X connect 6 0 4 0;
#X connect 7 0 8 0;
#X connect 10 0 32 1;
#X connect 10 0 67 0;
#X connect 11 0 70 0;
#X connect 12 0 19 0;
#X connect 12 0 24 0;
#X connect 13 0 14 0;
#X connect 14 0 16 1;
#X connect 15 0 13 0;
#X connect 16 0 35 1;
#X connect 16 0 37 0;
#X connect 16 0 52 1;
#X connect 17 0 27 1;
#X connect 17 0 47 1;
#X connect 18 0 17 0;
#X connect 18 1 27 1;
#X connect 18 1 47 1;
#X connect 19 0 41 0;
#X connect 20 0 12 1;
#X connect 20 0 54 0;
#X connect 21 0 13 0;
#X connect 22 0 26 0;
#X connect 22 1 23 0;
#X connect 22 1 12 1;
#X connect 23 0 20 0;
#X connect 23 0 70 0;
#X connect 24 0 56 0;
#X connect 25 0 55 0;
#X connect 26 0 70 0;
#X connect 26 1 12 0;
#X connect 26 2 27 0;
#X connect 27 0 25 0;
#X connect 27 0 16 0;
#X connect 30 0 31 1;
#X connect 32 0 34 0;
#X connect 32 1 56 0;
#X connect 32 2 57 0;
#X connect 33 0 28 0;
#X connect 34 0 33 0;
#X connect 34 1 33 1;
#X connect 35 0 46 0;
#X connect 36 0 35 0;
#X connect 36 0 76 0;
#X connect 36 1 16 0;
#X connect 36 1 77 1;
#X connect 37 0 31 0;
#X connect 37 0 48 0;
#X connect 37 0 53 0;
#X connect 38 0 37 1;
#X connect 39 0 30 0;
#X connect 40 0 30 0;
#X connect 41 0 36 0;
#X connect 42 0 41 1;
#X connect 45 0 44 0;
#X connect 46 0 43 0;
#X connect 46 1 29 0;
#X connect 46 1 72 0;
#X connect 46 1 73 0;
#X connect 47 0 16 0;
#X connect 49 0 51 0;
#X connect 49 1 38 0;
#X connect 49 2 42 0;
#X connect 49 2 50 0;
#X connect 50 0 47 0;
#X connect 51 0 52 0;
#X connect 52 0 31 0;
#X connect 54 0 11 0;
#X connect 55 0 20 0;
#X connect 56 0 33 0;
#X connect 56 0 75 0;
#X connect 57 0 49 0;
#X connect 57 0 43 1;
#X connect 57 0 74 0;
#X connect 58 0 18 0;
#X connect 59 0 58 0;
#X connect 61 0 32 2;
#X connect 62 0 63 0;
#X connect 62 0 32 3;
#X connect 62 0 83 0;
#X connect 63 0 64 0;
#X connect 64 0 65 0;
#X connect 65 0 66 0;
#X connect 66 0 62 0;
#X connect 68 0 70 0;
#X connect 69 0 71 0;
#X connect 71 0 70 0;
#X connect 74 0 32 0;
#X connect 75 0 22 0;
#X connect 76 0 77 0;
#X connect 77 0 78 0;
#X connect 77 0 79 0;
#X connect 79 0 81 0;
#X connect 80 0 79 1;
#X connect 82 0 6 0;
#X connect 83 0 42 1;
