#N canvas 136 689 575 421 10;
#X obj 106 114 hsl 80 15 0 1 0 0 \$0-seuil-snd \$0-seuil-rcv seuil:5dB
85 7 0 10 -257985 -1 -1 1037 1;
#X obj 105 133 hsl 80 15 0 1 0 0 \$0-lmin-snd \$0-lmin-rcv lmin:23.22ms
85 7 0 10 -4032 -1 -1 1516 1;
#X obj 105 150 hsl 80 15 0 1 0 0 \$0-hmin-snd \$0-hmin-rcv hmin:23.22ms
85 7 0 10 -260097 -1 -1 1436 1;
#X obj 70 212 * 99;
#X obj 70 234 i;
#X obj 70 278 s \$0-thres-rcv;
#X msg 70 256 label seuil:\$1dB;
#X obj 49 303 s \$2-thres;
#X obj 219 192 r \$0-lmin-snd;
#X obj 219 345 s \$0-lmin-rcv;
#X obj 219 213 * 8;
#X obj 219 235 pow 2;
#X obj 219 257 i;
#X obj 219 279 * 512;
#X obj 219 301 / 44.1;
#X msg 218 322 label lmin:\$1ms;
#X obj 185 374 s \$2-lmin;
#X obj 363 211 * 8;
#X obj 363 233 pow 2;
#X obj 363 255 i;
#X obj 363 277 * 512;
#X obj 363 299 / 44.1;
#X obj 363 190 r \$0-hmin-snd;
#X msg 363 321 label hmin:\$1ms;
#X obj 363 343 s \$0-hmin-rcv;
#X obj 329 372 s \$2-hmin;
#X obj 70 191 r \$0-seuil-snd;
#X obj 313 97 r \$3-Seuil-snd;
#X obj 106 24 l apf \$1 \$2-seuil \$0-seuil;
#X obj 442 86 s \$3-Seuil-rcv;
#X obj 106 45 l apf \$1 \$2-lmin \$0-lmin;
#X obj 106 67 l apf \$1 \$2-hmin \$0-hmin;
#X obj 313 116 r \$3-Lmin-snd;
#X obj 313 133 r \$3-Hmin-snd;
#X obj 66 329 s \$3-Seuil-rcv;
#X obj 258 397 s \$3-Lmin-rcv;
#X obj 423 373 s \$3-Hmin-rcv;
#X connect 3 0 4 0;
#X connect 4 0 6 0;
#X connect 4 0 7 0;
#X connect 6 0 5 0;
#X connect 6 0 34 0;
#X connect 8 0 10 0;
#X connect 10 0 11 0;
#X connect 11 0 12 0;
#X connect 12 0 13 0;
#X connect 12 0 16 0;
#X connect 13 0 14 0;
#X connect 14 0 15 0;
#X connect 15 0 9 0;
#X connect 15 0 35 0;
#X connect 17 0 18 0;
#X connect 18 0 19 0;
#X connect 19 0 20 0;
#X connect 19 0 25 0;
#X connect 20 0 21 0;
#X connect 21 0 23 0;
#X connect 22 0 17 0;
#X connect 23 0 24 0;
#X connect 23 0 36 0;
#X connect 26 0 3 0;
#X connect 27 0 0 0;
#X connect 32 0 1 0;
#X connect 33 0 2 0;
#X coords 0 -1 1 1 180 70 1 100 100;
