#N canvas 165 453 575 421 10;
#X obj 106 114 hsl 80 15 0 1 0 0 \$0-seuil-snd \$0-seuil-rcv seuil:2dB
85 7 0 10 -257985 -1 -1 1580 1;
#X obj 105 133 hsl 80 15 0 1 0 0 \$0-lmin-snd \$0-lmin-rcv lmin:23.22ms
85 7 0 10 -4032 -1 -1 1580 1;
#X obj 105 150 hsl 80 15 0 1 0 0 \$0-hmin-snd \$0-hmin-rcv hmin:23.22ms
85 7 0 10 -260097 -1 -1 1580 1;
#X obj 70 234 i;
#X msg 70 289 label seuil:\$1dB;
#X obj 49 336 s \$2-thres;
#X obj 219 192 r \$0-lmin-snd;
#X obj 219 345 s \$0-lmin-rcv;
#X obj 219 213 * 8;
#X obj 219 235 pow 2;
#X obj 219 257 i;
#X obj 219 279 * 512;
#X obj 219 301 / 44.1;
#X msg 218 322 label lmin:\$1ms;
#X obj 185 374 s \$2-lmin;
#X obj 363 211 * 8;
#X obj 363 233 pow 2;
#X obj 363 255 i;
#X obj 363 277 * 512;
#X obj 363 299 / 44.1;
#X obj 363 190 r \$0-hmin-snd;
#X msg 363 321 label hmin:\$1ms;
#X obj 363 343 s \$0-hmin-rcv;
#X obj 329 372 s \$2-hmin;
#X obj 70 191 r \$0-seuil-snd;
#X obj 313 97 r \$3-Seuil-snd;
#X obj 442 86 s \$3-Seuil-rcv;
#X obj 313 116 r \$3-Lmin-snd;
#X obj 313 133 r \$3-Hmin-snd;
#X obj 66 362 s \$3-Seuil-rcv;
#X obj 258 397 s \$3-Lmin-rcv;
#X obj 423 373 s \$3-Hmin-rcv;
#X obj 63 27 apf \$3-SETTING Seuil \$0-seuil 2;
#X obj 63 48 apf \$3-SETTING Lmin \$0-lmin 2;
#X obj 63 69 apf \$3-SETTING Hmin \$0-hmin 2;
#X floatatom 29 251 5 0 0 0 - - -, f 5;
#X obj 70 312 s \$0-seuil-rcv;
#X obj 70 212 * 100;
#X obj 70 256 / 10;
#X msg 331 52 0.2;
#X obj 331 26 loadbang;
#X connect 3 0 38 0;
#X connect 4 0 36 0;
#X connect 6 0 8 0;
#X connect 8 0 9 0;
#X connect 9 0 10 0;
#X connect 10 0 11 0;
#X connect 10 0 14 0;
#X connect 11 0 12 0;
#X connect 12 0 13 0;
#X connect 13 0 7 0;
#X connect 15 0 16 0;
#X connect 16 0 17 0;
#X connect 17 0 18 0;
#X connect 17 0 23 0;
#X connect 18 0 19 0;
#X connect 19 0 21 0;
#X connect 20 0 15 0;
#X connect 21 0 22 0;
#X connect 24 0 35 0;
#X connect 24 0 37 0;
#X connect 37 0 3 0;
#X connect 38 0 4 0;
#X connect 38 0 5 0;
#X connect 39 0 0 0;
#X connect 39 0 1 0;
#X connect 39 0 2 0;
#X connect 40 0 39 0;
#X coords 0 -1 1 1 180 70 1 100 100;
