#N canvas 24 92 654 190 10;
#X obj 1 18 cnv 30 610 80 empty empty empty 20 12 0 14 -99865 -66577
0;
#X obj 36 22 cnv 20 133 70 empty empty sin 5 7 1 12 -241291 -258699
0;
#X obj 157 47 vsl 8 40 0 1.2 0 0 \$0-sinvolsnd \$0-sinvolrcv vol -3
-8 1 8 -258699 -1 -1 3500 1;
#X obj 39 48 nbx 3 14 -24 24 0 0 \$0-sintonsnd \$0-sintonrcv ton 0
-4 0 10 -262144 -1 -1 1 256;
#X obj 40 73 nbx 2 14 -8 8 0 0 \$0-sinocsnd \$0-sinocrcv oct 0 -4 0
10 -262144 -1 -1 1 256;
#X obj 144 80 tgl 10 0 \$0-sinonsnd \$0-sinonrcv empty 0 -6 0 8 -258699
-1 -1 0 1;
#X obj 173 22 cnv 20 195 70 empty empty synth 2 7 1 12 -24198 -258699
0;
#X obj 356 47 vsl 8 40 0 1.2 0 0 \$0-synvolsnd \$0-synvolrcv vol -3
-8 1 8 -258699 -1 -1 0 1;
#X obj 343 80 tgl 10 0 \$0-synonsnd \$0-synonrcv empty 0 -6 0 8 -258699
-1 -1 0 1;
#X obj 214 30 cnv 15 35 56 empty empty empty 20 12 0 14 -257472 -66577
0;
#X obj 217 41 vsl 8 40 0 500 0 0 \$0-synAsnd \$0-synArcv A 1 -8 1 8
-260818 -1 -1 1700 1;
#X obj 228 41 vsl 8 40 0 1500 0 0 \$0-synDsnd \$0-synDrcv D 1 -8 1
8 -241291 -1 -1 2200 1;
#X obj 239 41 vsl 8 40 0 1 0 0 \$0-synSsnd \$0-synSrcv S 1 -8 1 8 -44926
-1 -1 2400 1;
#X obj 76 36 cnv 15 35 56 empty empty empty 20 12 0 14 -257472 -66577
0;
#X obj 78 47 vsl 8 40 0 500 0 0 \$0-sinAsnd \$0-sinArcv A 1 -8 1 8
-260818 -1 -1 2900 1;
#X obj 89 47 vsl 8 40 0 1500 0 0 \$0-sinDsnd \$0-sinDrcv D 1 -8 1 8
-241291 -1 -1 3900 1;
#X obj 100 47 vsl 8 40 0 1 0 0 \$0-sinSsnd \$0-sinSrcv S 1 -8 1 8 -44926
-1 -1 1700 1;
#X obj 285 30 cnv 15 25 60 empty empty lfo1 3 7 1 10 -262144 -258699
0;
#X obj 288 55 vsl 8 30 0 5 0 0 \$0-synlfo1fsnd \$0-synlfo1frcv f 1
-6 1 8 -241291 -1 -1 0 1;
#X obj 299 55 vsl 8 30 0 1 0 0 \$0-synlfo1asnd \$0-synlfo1arcv a 1
-6 1 8 -24198 -1 -1 0 1;
#X obj 255 30 cnv 15 25 60 empty empty filter 2 7 1 10 -262144 -258699
0;
#X obj 258 55 vsl 8 30 0 130 0 0 \$0-synfsnd \$0-synfrcv f 1 -8 1 8
-261681 -1 -1 1300 1;
#X obj 269 55 vsl 8 30 0.28 1 0 0 \$0-synrsnd \$0-synrrcv r 1 -8 1
8 -250685 -1 -1 1600 1;
#X obj 315 30 cnv 15 25 60 empty empty lfo2 3 7 1 10 -262144 -258699
0;
#X obj 318 55 vsl 8 30 0 5 0 0 \$0-synlfo2fsnd \$0-synlfo2frcv f 1
-6 1 8 -241291 -1 -1 0 1;
#X obj 329 55 vsl 8 30 0 1 0 0 \$0-synlfo2asnd \$0-synlfo2arcv a 1
-6 1 8 -24198 -1 -1 0 1;
#X obj 176 49 nbx 3 14 -24 24 0 0 \$0-syntonsnd \$0-syntonrcv ton 0
-4 0 10 -262144 -1 -1 9 256;
#X obj 177 74 nbx 2 14 -8 8 0 0 \$0-synocsnd \$0-synocrcv oct 0 -4
0 10 -262144 -1 -1 0 256;
#X obj 115 30 cnv 15 25 60 empty empty lfo 3 7 1 10 -262144 -258699
0;
#X obj 118 55 vsl 8 30 0 5 0 0 \$0-sinlfo1fsnd \$0-sinlfo1frcv f 1
-6 1 8 -241291 -1 -1 600 1;
#X obj 129 55 vsl 8 30 0 1 0 0 \$0-sinlfo1asnd \$0-sinlfo1arcv a 1
-6 1 8 -24198 -1 -1 800 1;
#X obj 11 34 vsl 8 40 0 2 0 0 \$0-thressnd \$0-thresrcv thres -5 -8
1 10 -250685 -1 -262144 1600 1;
#X obj 372 22 cnv 20 30 70 empty empty frag 2 6 1 12 -44926 -258699
0;
#X obj 387 47 vsl 8 40 0 1.4 0 0 \$0-fragvolsnd \$0-fragvolrcv vol
-1 -6 1 8 -258699 -1 -1 0 1;
#X obj 374 80 tgl 10 0 \$0-fragonsnd \$0-fragonrcv empty 0 -6 0 8 -258699
-1 -1 0 1;
#X obj 22 43 tgl 10 0 \$0-thresonsnd \$0-thresonrcv empty 0 -6 0 8
-258699 -1 -1 1 1;
#N canvas 335 262 695 441 all 0;
#X obj 165 380 Out --;
#X obj 260 19 r~ inl;
#N canvas 80 257 540 402 detect_note 0;
#N canvas 0 152 450 300 fiddle 0;
#X obj 67 33 inlet~;
#X obj 115 97 outlet;
#X obj 68 97 outlet;
#X obj 21 97 outlet;
#X obj 230 225 switch~ 64 1 0.25;
#X obj 254 142 loadbang;
#X msg 254 163 1;
#X obj 230 91 inlet;
#X obj 67 66 fiddle~ 512;
#X connect 0 0 8 0;
#X connect 5 0 6 0;
#X connect 6 0 4 0;
#X connect 7 0 4 0;
#X connect 8 0 3 0;
#X connect 8 1 2 0;
#X connect 8 2 1 0;
#X restore 40 211 pd fiddle;
#X obj 82 271 f;
#X obj 98 248 unpack f f;
#X obj 227 76 delta;
#X obj 197 54 t f f;
#X obj 172 103 *;
#X obj 168 24 env~ 2048;
#X obj 172 122 max 0;
#X obj 135 55 dbtorms;
#X obj 135 76 * 50;
#X obj 172 162 change;
#X floatatom 224 128 5 0 0 0 - - -;
#X obj 173 182 sel 1;
#X obj 172 142 > 60;
#X obj 147 271 f;
#X obj 271 89 pow 4;
#X obj 271 111 * 100;
#X obj 40 2 inlet~;
#X obj 82 301 outlet;
#X obj 147 299 outlet;
#X obj 271 68 subdial orange thres 0 2 1 0.820513;
#X obj 216 301 outlet;
#X obj 289 301 outlet;
#X obj 173 209 delay 70;
#X obj 271 39 r \$0-thressnd;
#X obj 362 200 switch~;
#X obj 362 153 r \$0-thresonsnd;
#X obj 362 177 subtoggle 1 1;
#X connect 0 2 2 0;
#X connect 1 0 18 0;
#X connect 2 0 1 1;
#X connect 2 1 14 1;
#X connect 3 0 5 1;
#X connect 4 1 3 0;
#X connect 5 0 7 0;
#X connect 6 0 4 0;
#X connect 6 0 8 0;
#X connect 7 0 13 0;
#X connect 8 0 9 0;
#X connect 8 0 22 0;
#X connect 9 0 5 0;
#X connect 10 0 12 0;
#X connect 11 0 13 1;
#X connect 12 0 21 0;
#X connect 12 0 23 0;
#X connect 13 0 10 0;
#X connect 14 0 19 0;
#X connect 15 0 16 0;
#X connect 16 0 11 0;
#X connect 17 0 6 0;
#X connect 17 0 0 0;
#X connect 20 0 15 0;
#X connect 23 0 1 0;
#X connect 23 0 14 0;
#X connect 24 0 20 0;
#X connect 26 0 27 0;
#X connect 27 0 25 0;
#X restore 260 46 pd detect_note;
#X obj 258 181 t f b;
#N canvas 501 286 553 417 synth(2) 0;
#X obj 186 348 *~;
#X obj 202 297 subadsr;
#SUB settings 1.28 38.4615 500 0.0512821 0;
#N canvas 56 313 450 300 swa 0;
#X obj 159 22 inlet;
#X obj 159 45 mtof;
#X obj 239 21 inlet;
#X obj 174 125 plus 0 0.5;
#X obj 148 182 phasor~;
#X obj 208 182 phasor~;
#X obj 177 229 outlet~;
#X obj 280 22 inlet;
#X obj 239 102 plus 0 0.5;
#X obj 137 101 minus 0 0.5;
#X obj 85 124 plus 0 0;
#X obj 149 204 -~;
#X connect 0 0 1 0;
#X connect 1 0 3 0;
#X connect 1 0 10 0;
#X connect 2 0 8 0;
#X connect 2 0 9 0;
#X connect 3 0 5 0;
#X connect 4 0 11 0;
#X connect 5 0 11 1;
#X connect 7 0 8 1;
#X connect 7 0 9 1;
#X connect 8 0 3 1;
#X connect 9 0 10 1;
#X connect 10 0 4 0;
#X connect 11 0 6 0;
#X restore 186 133 pd swa;
#X obj 133 12 inlet;
#X obj 186 376 outlet~;
#N canvas 0 0 450 300 amp 0;
#X obj 109 64 inlet~;
#X obj 131 128 mull~ 0 50;
#X msg 342 44 1;
#X obj 182 68 pow 4;
#X obj 130 176 outlet~;
#X obj 182 44 subdial red 0 2 1 1;
#X obj 182 108 m;
#X obj 244 69 inlet;
#X connect 0 0 1 0;
#X connect 1 0 4 0;
#X connect 2 0 5 0;
#X connect 3 0 6 0;
#X connect 5 0 3 0;
#X connect 5 1 2 0;
#X connect 6 0 1 1;
#X connect 7 0 6 1;
#X restore 186 154 pd amp;
#X obj 204 11 subdial red 0 1.2 1 0;
#X obj 205 32 pow 3;
#X msg 202 278 1;
#X obj 341 128 * 2;
#X obj 239 106 * 20;
#X obj 341 170 random 50;
#X obj 341 191 / 50;
#X obj 340 149 b;
#X obj 341 211 + 0.2;
#X obj 340 251 line;
#X obj 401 38 != 0;
#X obj 448 101 switch~;
#X obj 376 9 != 1;
#X msg 339 231 \$1 50;
#X obj 340 270 spigot;
#X obj 391 249 tgl 15 0 empty empty empty 0 -6 0 8 -262144 -1 -1 0
1;
#X floatatom 491 33 5 0 0 0 - - -;
#X obj 466 50 sel 50;
#X obj 466 12 r \$0-key;
#X obj 204 -10 r \$0-synvolsnd;
#X obj 10 220 r \$0-synlfo1asnd;
#X obj 10 263 r \$0-synlfo1fsnd;
#X obj 10 240 get_direct \$0 level lfo2;
#X obj 10 283 get_direct \$0 freq lfo2;
#X obj 13 331 get_direct \$0 level lfo3;
#X obj 13 374 get_direct \$0 freq lfo3;
#X obj 13 311 r \$0-synlfo2asnd;
#X obj 13 354 r \$0-synlfo2fsnd;
#X obj 239 56 sublfo \$0 lfo2;
#SUB settings 2.06897 3.945 0.275862;
#X obj 341 80 sublfo \$0 lfo3;
#SUB settings 1.37931 3.945 0.482759;
#X obj 448 78 sndrcv_inv \$0-synon;
#X obj 401 57 change;
#X msg 358 310 a \$1;
#X msg 396 328 d \$1;
#X obj 358 291 r \$0-synAsnd;
#X obj 396 309 r \$0-synDsnd;
#X obj 407 346 r \$0-synSsnd;
#X obj 240 165 r \$0-synfsnd;
#X obj 245 183 r \$0-synrsnd;
#N canvas 0 76 450 300 vcf 0;
#X obj 56 75 inlet~;
#X obj 99 247 outlet~;
#X obj 132 82 mtof;
#X obj 132 27 f2s;
#X msg 133 46 ll \$1;
#X obj 185 113 pow 4;
#X obj 185 135 * 100;
#X obj 184 90 subdial red Reso 0.28 1 1 0.677241;
#X obj 133 62 subdial blue Freq --- 0 130 1 58.2759;
#X obj 191 5 inlet;
#X obj 123 139 m 1;
#X obj 123 179 clip 5 15000;
#X obj 99 212 lp2~ 0 1 20;
#X obj 145 3 inlet;
#X obj 238 3 inlet;
#X connect 0 0 12 0;
#X connect 2 0 3 0;
#X connect 2 0 10 0;
#X connect 3 0 4 0;
#X connect 4 0 8 0;
#X connect 5 0 6 0;
#X connect 6 0 12 2;
#X connect 7 0 5 0;
#X connect 8 0 2 0;
#X connect 9 0 10 1;
#X connect 10 0 11 0;
#X connect 11 0 12 1;
#X connect 12 0 1 0;
#X connect 13 0 8 0;
#X connect 14 0 7 0;
#X restore 186 204 pd vcf;
#X floatatom 90 175 5 0 0 0 - - -;
#X obj 10 74 ++;
#X obj 36 51 * 12;
#X obj 186 112 ++;
#X obj 10 10 r \$0-syntonsnd;
#X obj 36 31 r \$0-synocsnd;
#X msg 407 365 s \$1;
#X connect 0 0 4 0;
#X connect 1 0 0 1;
#X connect 2 0 5 0;
#X connect 3 0 8 0;
#X connect 3 0 13 0;
#X connect 3 0 49 0;
#X connect 5 0 45 0;
#X connect 6 0 7 0;
#X connect 6 0 16 0;
#X connect 6 1 18 0;
#X connect 7 0 5 1;
#X connect 8 0 1 0;
#X connect 9 0 2 2;
#X connect 10 0 2 1;
#X connect 11 0 12 0;
#X connect 12 0 14 0;
#X connect 13 0 11 0;
#X connect 14 0 19 0;
#X connect 15 0 20 0;
#X connect 16 0 37 0;
#X connect 18 0 6 0;
#X connect 19 0 15 0;
#X connect 20 0 45 2;
#X connect 21 0 20 1;
#X connect 23 0 36 0;
#X connect 24 0 22 0;
#X connect 24 0 23 0;
#X connect 25 0 6 0;
#X connect 26 0 28 0;
#X connect 27 0 29 0;
#X connect 32 0 30 0;
#X connect 33 0 31 0;
#X connect 34 0 10 0;
#X connect 35 0 9 0;
#X connect 36 0 17 0;
#X connect 37 0 36 0;
#X connect 38 0 1 0;
#X connect 39 0 1 0;
#X connect 40 0 38 0;
#X connect 41 0 39 0;
#X connect 42 0 52 0;
#X connect 43 0 45 1;
#X connect 44 0 45 3;
#X connect 45 0 0 0;
#X connect 46 0 28 0;
#X connect 47 0 49 1;
#X connect 48 0 47 1;
#X connect 49 0 2 0;
#X connect 50 0 47 0;
#X connect 51 0 48 0;
#X connect 52 0 1 0;
#X restore 258 227 pd synth(2);
#N canvas 142 52 568 405 synth(sin) 0;
#X obj 133 142 mtof;
#X obj 105 163 osc~;
#X obj 274 253 *~;
#X obj 290 202 subadsr;
#SUB settings 2.74 0 461.538 0 0;
#X obj 105 141 +;
#X obj 98 120 * 20;
#X obj 133 12 inlet;
#X obj 275 272 outlet~;
#N canvas 0 0 450 300 amp 0;
#X obj 109 64 inlet~;
#X obj 131 128 mull~ 0 50;
#X msg 342 44 1;
#X obj 182 68 pow 4;
#X obj 130 176 outlet~;
#X obj 182 44 subdial red 0 2 1 1.15;
#X obj 182 108 m;
#X obj 244 69 inlet;
#X connect 0 0 1 0;
#X connect 1 0 4 0;
#X connect 2 0 5 0;
#X connect 3 0 6 0;
#X connect 5 0 3 0;
#X connect 5 1 2 0;
#X connect 6 0 1 1;
#X connect 7 0 6 1;
#X restore 105 184 pd amp;
#X obj 346 10 subdial red 0 1.2 1 1.07692;
#X obj 346 31 pow 3;
#X msg 290 180 1;
#X obj 410 29 != 0;
#X obj 465 130 switch~;
#X obj 496 10 != 1;
#X obj 194 68 subdial yellow --- -12 12 1 1;
#X msg 193 49 0;
#X obj 194 87 i;
#X msg 193 32 hl \$1;
#X obj 193 13 makesymbol;
#X msg 238 132 0;
#X obj 239 170 i;
#X msg 238 115 hl \$1;
#X obj 238 96 makesymbol;
#X obj 239 151 subdial orange --- -8 8 1 1;
#X obj 239 191 * 12;
#X obj 209 211 ++;
#X obj 133 122 ++;
#X obj 465 88 sel 49;
#X floatatom 490 71 5 0 0 0 - - -;
#X obj 465 50 r \$0-key;
#X obj 346 -10 r \$0-sinvolsnd;
#X obj 465 108 sndrcv_inv \$0-sinon;
#X obj 410 48 change;
#X obj 210 -11 r \$0-sintonsnd;
#X obj 335 112 r \$0-sinocsnd;
#X obj 422 179 r \$0-sinAsnd;
#X msg 422 198 a \$1;
#X obj 460 197 r \$0-sinDsnd;
#X msg 460 216 d \$1;
#X obj 471 234 r \$0-sinSsnd;
#X obj 50 72 sublfo \$0 lfo1;
#SUB settings 1.2069 3.945 0.62069;
#X obj 25 271 get_direct \$0 level lfo1;
#X obj 25 251 r \$0-sinlfo1asnd;
#X obj 25 298 r \$0-sinlfo1fsnd;
#X obj 25 318 get_direct \$0 freq lfo1;
#X msg 471 253 s \$1;
#X connect 0 0 4 1;
#X connect 1 0 8 0;
#X connect 2 0 7 0;
#X connect 3 0 2 1;
#X connect 4 0 1 0;
#X connect 5 0 4 0;
#X connect 6 0 11 0;
#X connect 6 0 27 0;
#X connect 8 0 2 0;
#X connect 9 0 10 0;
#X connect 9 0 12 0;
#X connect 9 1 14 0;
#X connect 10 0 8 1;
#X connect 11 0 3 0;
#X connect 12 0 33 0;
#X connect 14 0 9 0;
#X connect 15 0 17 0;
#X connect 15 1 16 0;
#X connect 16 0 15 0;
#X connect 17 0 19 0;
#X connect 17 0 26 0;
#X connect 18 0 15 0;
#X connect 19 0 18 0;
#X connect 20 0 24 0;
#X connect 21 0 23 0;
#X connect 21 0 25 0;
#X connect 22 0 24 0;
#X connect 23 0 22 0;
#X connect 24 0 21 0;
#X connect 24 1 20 0;
#X connect 25 0 26 1;
#X connect 26 0 27 1;
#X connect 27 0 0 0;
#X connect 28 0 32 0;
#X connect 30 0 29 0;
#X connect 30 0 28 0;
#X connect 31 0 9 0;
#X connect 32 0 13 0;
#X connect 33 0 32 0;
#X connect 34 0 15 0;
#X connect 35 0 24 0;
#X connect 36 0 37 0;
#X connect 37 0 3 0;
#X connect 38 0 39 0;
#X connect 39 0 3 0;
#X connect 40 0 46 0;
#X connect 41 0 5 0;
#X connect 43 0 42 0;
#X connect 44 0 45 0;
#X connect 46 0 3 0;
#X restore 123 227 pd synth(sin);
#X obj 258 142 i;
#X obj 260 105 + 0.5;
#X obj 258 204 fifo 2;
#N canvas 492 188 450 300 playfrag 0;
#X obj 209 148 spigot;
#X obj 158 70 inlet;
#X obj 260 149 r \$0-nbfrag;
#X obj 209 174 mod;
#N canvas 482 232 286 237 player 0;
#X obj 113 88 i;
#X obj 143 89 != 1;
#X obj 83 119 demux;
#X obj 83 66 t f b;
#X obj 83 10 inlet;
#X obj 128 9 r \$0-nbfrag;
#X obj 83 38 min;
#X obj 56 145 vox \$0;
#X obj 113 145 vox \$0;
#X obj 87 187 throw~ \$1-out;
#X connect 0 0 1 0;
#X connect 0 0 2 1;
#X connect 1 0 0 1;
#X connect 2 0 7 0;
#X connect 2 0 8 1;
#X connect 2 1 7 1;
#X connect 2 1 8 0;
#X connect 3 0 2 0;
#X connect 3 1 0 0;
#X connect 4 0 6 0;
#X connect 5 0 6 1;
#X connect 6 0 3 0;
#X connect 7 0 9 0;
#X connect 8 0 9 0;
#X restore 209 202 pd player;
#X obj 273 67 sel 51;
#X floatatom 334 47 5 0 0 0 - - -;
#X obj 273 44 r \$0-key;
#X obj 60 197 s \$0-voxvol;
#X obj 60 152 r \$0-fragvolsnd;
#X obj 273 92 sndrcv_inv \$0-fragon;
#X obj 60 173 pow 4;
#X connect 0 0 3 0;
#X connect 1 0 0 0;
#X connect 2 0 3 1;
#X connect 3 0 4 0;
#X connect 5 0 10 0;
#X connect 7 0 6 0;
#X connect 7 0 5 0;
#X connect 9 0 11 0;
#X connect 10 0 0 1;
#X connect 11 0 8 0;
#X restore 340 186 pd playfrag;
#X obj 135 106 s \$0-thresbangrcv;
#N canvas 479 4 450 300 echo 0;
#X obj 18 98 inlet~;
#X obj 214 116 pow 4;
#X obj 165 92 pow 4;
#X obj 174 235 outlet~;
#X obj 214 159 line~;
#X msg 214 138 \$1 50;
#X obj 165 137 line~;
#X msg 165 115 \$1 50;
#N canvas 382 329 600 400 echo 0;
#X obj 141 116 vd~ \$0-delay;
#X obj 83 32 inlet~;
#X obj 123 183 *~;
#X obj 233 188 outlet~;
#X obj 198 90 inlet~;
#X obj 83 215 delwrite~ \$0-delay 5000;
#X obj 141 92 inlet~;
#X obj 84 245 block~ 1;
#X connect 0 0 2 0;
#X connect 0 0 3 0;
#X connect 1 0 5 0;
#X connect 2 0 5 0;
#X connect 4 0 2 1;
#X connect 6 0 0 0;
#X restore 123 174 pd echo;
#X obj 97 65 pow 4;
#X obj 97 110 line~;
#X obj 174 208 *~;
#X msg 97 88 \$1 100;
#X obj 302 127 != 0;
#X obj 302 200 switch~;
#X obj 97 43 r \$0-echotimesnd;
#X obj 165 70 r \$0-echofeedsnd;
#X obj 214 93 r \$0-echovolsnd;
#X obj 302 174 sndrcv_inv \$0-echoon;
#X obj 302 149 change;
#X connect 0 0 8 0;
#X connect 1 0 5 0;
#X connect 2 0 7 0;
#X connect 4 0 11 1;
#X connect 5 0 4 0;
#X connect 6 0 8 2;
#X connect 7 0 6 0;
#X connect 8 0 11 0;
#X connect 9 0 12 0;
#X connect 10 0 8 1;
#X connect 11 0 3 0;
#X connect 12 0 10 0;
#X connect 13 0 19 0;
#X connect 15 0 9 0;
#X connect 16 0 2 0;
#X connect 17 0 1 0;
#X connect 17 0 13 0;
#X connect 18 0 14 0;
#X connect 19 0 18 0;
#X restore 102 331 pd echo;
#N canvas 683 110 272 656 config 0;
#X obj 17 8 r \$0-preset_dosave;
#X obj 17 877 s \$0-preset_donesave;
#X obj 17 38 savfloat \$0 thres \$0-thres;
#X obj 17 58 savfloat \$0 threson \$0-threson;
#X obj 17 86 savfloat \$0 sinon \$0-sinon;
#X obj 17 105 savfloat \$0 sinoc \$0-sinoc;
#X obj 17 125 savfloat \$0 sinton \$0-sinton;
#X obj 17 149 savfloat \$0 sinA \$0-sinA;
#X obj 17 168 savfloat \$0 sinD \$0-sinD;
#X obj 17 187 savfloat \$0 sinS \$0-sinS;
#X obj 17 209 savfloat \$0 sinlfo1f \$0-sinlfo1f;
#X obj 17 228 savfloat \$0 sinlfo1a \$0-sinlfo1a;
#X obj 17 247 savfloat \$0 sinvol \$0-sinvol;
#X obj 17 276 savfloat \$0 synon \$0-synon;
#X obj 17 295 savfloat \$0 synoc \$0-synoc;
#X obj 17 315 savfloat \$0 synton \$0-synton;
#X obj 17 336 savfloat \$0 synA \$0-synA;
#X obj 17 355 savfloat \$0 synD \$0-synD;
#X obj 17 374 savfloat \$0 synS \$0-synS;
#X obj 17 434 savfloat \$0 synlfo1f \$0-synlfo1f;
#X obj 17 453 savfloat \$0 synlfo1a \$0-synlfo1a;
#X obj 17 512 savfloat \$0 synvol \$0-synvol;
#X obj 17 472 savfloat \$0 synlfo2f \$0-synlfo2f;
#X obj 17 491 savfloat \$0 synlfo2a \$0-synlfo2a;
#X obj 17 396 savfloat \$0 synf \$0-synf;
#X obj 17 415 savfloat \$0 synr \$0-synr;
#X obj 17 562 savfloat \$0 fragvol \$0-fragvol;
#X obj 17 543 savfloat \$0 fragon \$0-fragon;
#X obj 17 589 savfloat \$0 echoon \$0-echoon;
#X obj 17 646 savfloat \$0 echovol \$0-echovol;
#X obj 17 608 savfloat \$0 echotime \$0-echotime;
#X obj 17 627 savfloat \$0 echofeed \$0-echofeed;
#X obj 17 693 savfloat \$0 dirlfo1f \$0-dirlfo1f;
#X obj 17 712 savfloat \$0 dirlfo1a \$0-dirlfo1a;
#X obj 17 734 savfloat \$0 direchotime \$0-direchotime;
#X obj 17 753 savfloat \$0 direchofeed \$0-direchofeed;
#X obj 17 772 savfloat \$0 direchovol \$0-direchovol;
#X obj 17 835 savfloat \$0 dirdistg \$0-dirdistg;
#X obj 17 855 savfloat \$0 dirdistv \$0-dirdistv;
#X obj 17 671 savfloat \$0 diron \$0-diron;
#X obj 17 794 savfloat \$0 dirf \$0-dirf;
#X obj 17 813 savfloat \$0 dirr \$0-dirr;
#X connect 0 0 2 0;
#X connect 2 0 3 0;
#X connect 3 0 4 0;
#X connect 4 0 5 0;
#X connect 5 0 6 0;
#X connect 6 0 7 0;
#X connect 7 0 8 0;
#X connect 8 0 9 0;
#X connect 9 0 10 0;
#X connect 10 0 11 0;
#X connect 11 0 12 0;
#X connect 12 0 13 0;
#X connect 13 0 14 0;
#X connect 14 0 15 0;
#X connect 15 0 16 0;
#X connect 16 0 17 0;
#X connect 17 0 18 0;
#X connect 18 0 24 0;
#X connect 19 0 20 0;
#X connect 20 0 22 0;
#X connect 21 0 27 0;
#X connect 22 0 23 0;
#X connect 23 0 21 0;
#X connect 24 0 25 0;
#X connect 25 0 19 0;
#X connect 26 0 28 0;
#X connect 27 0 26 0;
#X connect 28 0 30 0;
#X connect 29 0 39 0;
#X connect 30 0 31 0;
#X connect 31 0 29 0;
#X connect 32 0 33 0;
#X connect 33 0 34 0;
#X connect 34 0 35 0;
#X connect 35 0 36 0;
#X connect 36 0 40 0;
#X connect 37 0 38 0;
#X connect 38 0 1 0;
#X connect 39 0 32 0;
#X connect 40 0 41 0;
#X connect 41 0 37 0;
#X restore 446 92 pd config;
#X msg 447 26 save;
#X msg 451 46 load;
#X obj 447 67 saveload \$0 \$1 \$2;
#N canvas 235 387 262 318 samplestuff 0;
#X obj 10 43 s \$0-samplelen;
#X obj 12 244 s \$0-sampletab;
#X obj 12 290 s \$0-peakstab;
#X obj 12 203 bng 15 250 50 0 empty empty empty 0 -6 0 8 -262144 -1
-1;
#X obj 10 111 s \$0-voxsmooth;
#X obj 37 203 loadbang;
#X obj 10 22 f;
#X obj 12 269 symbol \$1-peaks;
#X obj 12 224 symbol \$1-lesample;
#X obj 11 91 r \$1-smooth;
#X obj 10 0 r \$1-insamplength;
#X obj 10 137 r \$1-nbfrag;
#X obj 10 157 s \$0-nbfrag;
#X obj 174 10 inlet;
#X obj 174 31 bng 15 250 50 0 empty empty empty 0 -6 0 8 -262144 -1
-1;
#X connect 3 0 7 0;
#X connect 3 0 8 0;
#X connect 5 0 3 0;
#X connect 6 0 0 0;
#X connect 7 0 2 0;
#X connect 8 0 1 0;
#X connect 9 0 4 0;
#X connect 10 0 6 0;
#X connect 11 0 12 0;
#X connect 13 0 14 0;
#X connect 14 0 6 0;
#X connect 14 0 3 0;
#X restore 451 139 pd samplestuff;
#X obj 481 204 r \$0-onsnd;
#X obj 481 225 switch~;
#N canvas 7 325 450 329 echo 0;
#X obj 197 14 r~ inl;
#X obj 197 105 subdist;
#SUB settings 2.51724 0;
#X obj 195 235 Out -;
#X obj 52 81 switch~;
#X obj 52 59 tgl 15 0 empty empty empty 0 -6 0 8 -262144 -1 -1 1 1
;
#X floatatom 371 78 5 0 0 0 - - -;
#X obj 325 74 + 1.2;
#X obj 52 39 subtoggle 1 1;
#X obj 10 17 sndrcv_inv \$0-diron;
#X obj 325 27 sublfo \$0 lfo4;
#SUB settings 0.862069 3.945 0.793103;
#X obj 7 105 r \$0-dirlfo1asnd;
#X obj 7 125 get_direct \$0 level lfo4;
#X obj 7 167 get_direct \$0 freq lfo4;
#X obj 7 147 r \$0-dirlfo1fsnd;
#X obj 197 34 subvcf \$0 vcf1;
#SUB settings 89.6552 0.577931;
#X obj 256 119 r \$0-dirdistgsnd;
#X obj 256 102 r \$0-dirdistvsnd;
#X obj 198 150 subecho \$0 ech1;
#SUB settings 3.08028 0.965517 1;
#X obj 7 198 r \$0-direchotimesnd;
#X obj 6 218 get_direct \$0 time ech1;
#X obj 7 238 r \$0-direchofeedsnd;
#X obj 6 258 get_direct \$0 feed ech1;
#X obj 6 278 r \$0-direchovolsnd;
#X obj 6 298 get_direct \$0 vol ech1;
#X obj 257 244 r \$0-dirfsnd;
#X obj 257 263 get_direct \$0 freq vcf1;
#X obj 257 283 r \$0-dirrsnd;
#X obj 257 302 get_direct \$0 reso vcf1;
#X connect 0 0 14 0;
#X connect 1 0 17 0;
#X connect 4 0 3 0;
#X connect 6 0 14 1;
#X connect 7 0 4 0;
#X connect 7 0 8 0;
#X connect 8 0 7 0;
#X connect 9 0 6 0;
#X connect 10 0 11 0;
#X connect 13 0 12 0;
#X connect 14 0 1 0;
#X connect 15 0 1 1;
#X connect 16 0 1 2;
#X connect 17 0 2 0;
#X connect 17 0 2 1;
#X connect 18 0 19 0;
#X connect 20 0 21 0;
#X connect 22 0 23 0;
#X connect 24 0 25 0;
#X connect 26 0 27 0;
#X restore 389 232 pd echo;
#X connect 1 0 2 0;
#X connect 2 0 7 0;
#X connect 2 0 10 0;
#X connect 2 2 6 0;
#X connect 3 0 8 0;
#X connect 3 1 8 0;
#X connect 4 0 0 1;
#X connect 4 0 0 2;
#X connect 4 0 11 0;
#X connect 5 0 0 2;
#X connect 5 0 11 0;
#X connect 6 0 5 0;
#X connect 6 0 3 0;
#X connect 6 0 9 0;
#X connect 7 0 6 1;
#X connect 8 0 4 0;
#X connect 11 0 0 0;
#X connect 13 0 15 0;
#X connect 14 0 15 0;
#X connect 17 0 18 0;
#X restore 180 0 pd all;
#X obj 22 56 bng 10 250 50 0 \$0-thresbangsnd \$0-thresbangrcv empty
0 -6 0 8 -24198 -1 -1;
#X obj 406 23 cnv 20 47 70 empty empty echo 2 6 1 12 -261681 -258699
0;
#X obj 441 47 vsl 8 30 0 1.2 0 0 \$0-echovolsnd \$0-echovolrcv vol
-1 -6 1 8 -258699 -1 -1 0 1;
#X obj 441 83 tgl 8 0 \$0-echoonsnd \$0-echoonrcv empty 0 -6 0 8 -258699
-1 -1 0 1;
#X obj 427 47 vsl 8 40 0 1 0 0 \$0-echofeedsnd \$0-echofeedrcv fed
-1 -6 1 8 -241291 -1 -1 2300 1;
#X obj 410 47 vsl 8 40 0.6 8 0 0 \$0-echotimesnd \$0-echotimercv tim
-1 -6 1 8 -24198 -1 -1 2900 1;
#X obj 11 82 tgl 15 0 \$0-onsnd \$0-onrcv empty 0 -6 0 8 -258699 -1
-1 1 1;
#X obj 457 23 cnv 20 150 70 empty empty direct 5 3 1 10 -250685 -241291
0;
#X obj 459 83 tgl 8 0 \$0-dironsnd \$0-dironrcv empty 0 -6 0 8 -258699
-1 -1 0 1;
#X obj 472 32 cnv 15 25 60 empty empty lfo 3 7 1 10 -262144 -258699
0;
#X obj 475 57 vsl 8 30 0 5 0 0 \$0-dirlfo1fsnd \$0-dirlfo1frcv f 1
-6 1 8 -241291 -1 -1 0 1;
#X obj 486 57 vsl 8 30 0 1 0 0 \$0-dirlfo1asnd \$0-dirlfo1arcv a 1
-6 1 8 -24198 -1 -1 0 1;
#X obj 501 32 cnv 15 25 60 empty empty disto 2 7 1 10 -262144 -258699
0;
#X obj 504 57 vsl 8 30 0 1 0 0 \$0-dirdistgsnd \$0-dirdistgrcv g 1
-6 1 8 -250685 -1 -1 0 1;
#X obj 515 57 vsl 8 30 0 1 0 0 \$0-dirdistvsnd \$0-dirdistvrcv v 1
-6 1 8 -258699 -1 -1 0 1;
#X obj 530 32 cnv 20 47 60 empty empty echo 5 6 1 10 -262144 -258699
0;
#X obj 565 56 vsl 8 30 0 1.2 0 0 \$0-direchovolsnd \$0-direchovolrcv
vol -1 -6 1 8 -258699 -1 -1 2200 1;
#X obj 551 56 vsl 8 30 0 1 0 0 \$0-direchofeedsnd \$0-direchofeedrcv
fed -1 -6 1 8 -241291 -1 -1 2000 1;
#X obj 534 56 vsl 8 30 0.6 8 0 0 \$0-direchotimesnd \$0-direchotimercv
tim -1 -6 1 8 -24198 -1 -1 0 1;
#X obj 581 32 cnv 15 25 60 empty empty filter 2 7 1 10 -262144 -258699
0;
#X obj 584 57 vsl 8 30 0 130 0 0 \$0-dirfsnd \$0-dirfrcv f 1 -8 1 8
-261681 -1 -1 0 1;
#X obj 595 57 vsl 8 30 0.28 1 0 0 \$0-dirrsnd \$0-dirrrcv r 1 -8 1
8 -250685 -1 -1 0 1;
#X coords 0 0 1 1 610 97 1 0 0;
