#N canvas 1 115 465 333 10;
#X obj 111 36 inlet~;
#X obj 151 73 limiter~;
#X obj 111 73 z~ 64;
#X obj 111 100 *~;
#X obj 111 122 outlet~;
#X obj 201 202 vu 8 80 empty empty -1 -8 0 10 -66577 -1 0 0;
#X obj 200 97 env~;
#X obj 200 118 - 100;
#X obj 200 140 + 12;
#X connect 0 0 1 0;
#X connect 0 0 2 0;
#X connect 1 0 3 1;
#X connect 2 0 3 0;
#X connect 3 0 4 0;
#X connect 3 0 6 0;
#X connect 6 0 7 0;
#X connect 7 0 8 0;
#X connect 8 0 5 0;
#X connect 8 0 5 1;
#X coords 0 -1 1 1 10 85 2 200 200;
