#N canvas 21 136 554 616 10;
#X obj 230 158 -;
#X obj 189 40 t f f;
#X obj 97 267 pack f f f;
#X obj 97 175 t f f;
#X msg 97 292 \$2 \, \$1 \$3;
#X obj 97 317 line~;
#X obj 284 507 line~;
#X obj 97 504 *~;
#X obj 97 87 + 1;
#X floatatom 373 376 5 0 0 0 - - -, f 5;
#X msg 284 485 \$1 \$2;
#X msg 284 442 0;
#X obj 284 416 delay;
#X obj 274 298 outlet;
#X obj 189 7 inlet;
#X obj 274 279 delay;
#X obj 436 -6 inlet;
#X obj 97 133 min;
#X obj 245 136 max 0;
#X obj 97 153 - 500;
#X obj 245 116 - 0;
#X obj 173 401 1;
#X obj 173 379 t b;
#X obj 274 258 max 20;
#X obj 275 224 s \$1-longfrag;
#X obj 199 379 r \$1-voxvol;
#X obj 97 527 outlet~;
#X msg 200 342 set \$1;
#X obj 124 133 r \$1-samplelen;
#X msg 254 72 set \$1;
#X obj 245 95 tabread;
#X obj 350 347 r \$1-voxsmooth;
#X obj 308 73 r \$1-voxpitch;
#X obj 97 109 tabread;
#X text 232 6 play fragment;
#X text 478 -5 stop;
#X obj 366 570 switch~;
#X msg 366 542 0;
#X obj 366 478 route 0;
#X obj 366 508 delay;
#X msg 398 542 1;
#X msg 436 237 stop;
#X obj 284 463 pack f 5;
#X obj 284 396 - 5;
#X obj 345 113 samplerate~;
#X obj 345 134 / 1000;
#X obj 345 92 loadbang;
#X obj 308 155 * 44.1;
#X obj 230 184 / 44.1;
#X floatatom 435 571 5 0 0 0 - - -, f 5;
#X obj 161 295 symbol;
#X obj 211 317 symbol;
#X obj 194 273 r \$1-sample;
#X obj 254 52 r \$1-peakstab;
#X obj 167 272 b;
#X obj 161 317 sel sel;
#X floatatom 147 10 5 0 0 0 - - -, f 5;
#X obj 97 395 tabread4~;
#X obj 416 85 bng 15 250 50 0 empty empty empty 17 7 0 10 -262144 -1
-1;
#X msg 210 298 symbol sel;
#X connect 0 0 48 0;
#X connect 1 0 8 0;
#X connect 1 1 30 0;
#X connect 1 1 54 0;
#X connect 2 0 4 0;
#X connect 2 0 22 0;
#X connect 3 0 2 0;
#X connect 3 1 0 0;
#X connect 4 0 5 0;
#X connect 5 0 57 0;
#X connect 6 0 7 1;
#X connect 7 0 26 0;
#X connect 8 0 33 0;
#X connect 10 0 6 0;
#X connect 10 0 38 0;
#X connect 11 0 42 0;
#X connect 12 0 11 0;
#X connect 14 0 1 0;
#X connect 15 0 13 0;
#X connect 16 0 11 0;
#X connect 16 0 41 0;
#X connect 17 0 19 0;
#X connect 18 0 0 1;
#X connect 18 0 2 1;
#X connect 19 0 3 0;
#X connect 20 0 18 0;
#X connect 21 0 42 0;
#X connect 22 0 21 0;
#X connect 23 0 15 0;
#X connect 25 0 21 1;
#X connect 27 0 57 0;
#X connect 28 0 17 1;
#X connect 29 0 30 0;
#X connect 29 0 33 0;
#X connect 30 0 20 0;
#X connect 31 0 9 0;
#X connect 31 0 42 1;
#X connect 31 0 43 1;
#X connect 32 0 47 0;
#X connect 33 0 17 0;
#X connect 37 0 36 0;
#X connect 37 0 49 0;
#X connect 38 0 39 0;
#X connect 38 1 40 0;
#X connect 39 0 37 0;
#X connect 40 0 36 0;
#X connect 40 0 49 0;
#X connect 41 0 15 0;
#X connect 42 0 10 0;
#X connect 43 0 12 0;
#X connect 44 0 45 0;
#X connect 45 0 47 1;
#X connect 46 0 44 0;
#X connect 47 0 48 1;
#X connect 48 0 2 2;
#X connect 48 0 24 0;
#X connect 48 0 23 0;
#X connect 48 0 43 0;
#X connect 50 0 55 0;
#X connect 51 0 55 1;
#X connect 52 0 50 1;
#X connect 53 0 29 0;
#X connect 54 0 50 0;
#X connect 55 1 51 0;
#X connect 55 1 27 0;
#X connect 56 0 1 0;
#X connect 57 0 7 0;
#X connect 58 0 44 0;
#X connect 59 0 55 1;
