#N canvas 1783 251 624 771 10;
#X obj 1 1 cnv 15 40 654 empty empty \$1 2 5 1 8 -4032 -1 0;
#X obj -76 149 mull~ 0 10;
#X floatatom -64 118 5 0 0 0 - - -, f 5;
#X obj -60 67 bng 15 250 50 0 empty empty empty 17 7 0 10 -262144 -1
-1;
#X obj -65 86 init 2;
#X text -27 -26 KEPtype nomUnique;
#X obj 439 322 vsl 15 128 0 1 0 0 \$1-del1_time-snd \$1-del1_time-rcv
del1_time 0 -9 0 10 -262144 -1 -1 12700 1;
#X obj -122 4 l MASTERtypeIN \$1 1;
#X obj -122 216 l MASTERtypeOUT\$1 1;
#X obj 62 -5 l KEPface \$1;
#X obj 161 468 MORPHgroup \$1 FX;
#X obj 7 643 bng 10 250 50 0 empty empty empty 17 7 0 10 -4034 -1 -1
;
#X obj 24 643 bng 10 250 50 0 empty empty empty 17 7 0 10 -258113 -1
-1;
#X obj 326 234 param \$1 FX del1_time;
#X obj 325 34 KEPface \$1;
#X obj 250 204 r \$1-Vitesse;
#X floatatom 248 226 5 0 0 0 - - -, f 5;
#N canvas 1914 450 631 737 FX 0;
#X obj 28 432 lop~ 3000;
#X obj 30 649 outlet~;
#X obj 402 71 s \$0-caninstru;
#X obj 403 28 r \$0-visu;
#X msg 403 50 vis 1;
#X obj 29 527 +~;
#X obj 29 628 hip~ 10;
#X obj 427 376 mull~ 1 10;
#X obj 27 291 apdisto \$1 FX disto1;
#X obj 27 351 orfilter \$1 FX ortho1;
#X obj 45 25 namecanvas \$0-caninstru;
#X obj 455 337 m 1;
#X obj 455 296 r \$1-Reverb;
#X obj 470 316 r \$1-Reverb_max;
#X obj 30 56 inlet~;
#X obj 233 36 l param \$1 FX volnoise;
#X obj 235 88 l param \$1 FX r;
#X obj 235 114 l param \$1 FX f;
#X obj 239 141 l param \$1 FX env2f;
#X obj 81 56 hsl 128 15 0 1 0 0 \$1-lp-snd \$1-lp-rcv lp -2 -8 0 10
-261234 -1 -1 12700 1;
#X obj 70 105 mtof;
#X obj 103 106 f2s;
#X symbolatom 131 107 10 0 0 0 - - -, f 10;
#X obj 89 172 hsl 128 15 0 135 0 0 \$1-hp-snd \$1-hp-rcv hp -2 -8 0
10 -204786 -1 -1 0 1;
#X obj 87 215 mtof;
#X obj 120 216 f2s;
#X symbolatom 148 217 10 0 0 0 - - -, f 10;
#X obj 29 131 lp8_cheb~ 20000;
#X obj 28 457 apecho \$1 ECHO echo1;
#X obj 165 459 aprev \$1 REV rev1;
#X obj 78 79 * 135;
#X obj 86 191 * 135;
#X obj 261 224 param \$1 FILT lp;
#X obj 260 246 param \$1 FILT hp;
#X obj 63 246 hp8_cheb~ 2000;
#X obj 131 555 hsl 128 15 0 1 0 0 empty empty empty -2 -8 0 10 -262144
-1 -1 12700 1;
#X obj 131 531 r \$1-Volume;
#X obj 101 666 Vcurve 0 10;
#X obj 30 601 mull~ 0 10;
#X obj 58 579 Vcurve;
#X obj 30 553 *~ 5;
#X connect 0 0 28 0;
#X connect 0 0 29 0;
#X connect 3 0 4 0;
#X connect 4 0 2 0;
#X connect 5 0 40 0;
#X connect 6 0 1 0;
#X connect 8 0 9 0;
#X connect 9 0 0 0;
#X connect 11 0 7 1;
#X connect 12 0 11 0;
#X connect 13 0 11 1;
#X connect 14 0 27 0;
#X connect 19 0 30 0;
#X connect 20 0 21 0;
#X connect 20 0 27 1;
#X connect 21 0 22 0;
#X connect 23 0 31 0;
#X connect 24 0 25 0;
#X connect 24 0 34 1;
#X connect 25 0 26 0;
#X connect 27 0 8 0;
#X connect 28 0 5 0;
#X connect 29 0 5 1;
#X connect 30 0 20 0;
#X connect 31 0 24 0;
#X connect 35 0 39 0;
#X connect 36 0 35 0;
#X connect 38 0 6 0;
#X connect 39 0 38 1;
#X connect 40 0 38 0;
#X restore 94 177 pd FX;
#N canvas 1884 727 311 407 KEPboutons 0;
#X obj 188 142 tLock \$1 1/1;
#X obj 188 162 tLock \$1 1/2;
#X obj 189 182 tLock \$1 1/3;
#X obj 189 202 tLock \$1 1/4;
#X obj 8 53 KEPbus \$1 Effet Decay b3;
#X obj 9 139 KEPbus \$1 1/1 -t1- t1;
#X obj 7 160 KEPbus \$1 1/2 -t2- t2;
#X obj 8 182 KEPbus \$1 1/3 -t3- t3;
#X obj 9 203 KEPbus \$1 1/4 -t4- t4;
#X obj 9 227 KEPbus \$1 Lock -tL- tREC;
#X obj 15 265 KEPbus \$1 l1 -l1- tl1;
#X obj 15 288 KEPbus \$1 l2 -l2- tl2;
#X obj 17 310 KEPbus \$1 l3 -l3- tl3;
#X obj 17 331 KEPbus \$1 l4 -l4- tl4;
#X obj 12 356 KEPbus \$1 lR -lR- tlREC;
#X obj 148 260 KEPbus \$1 lr -lr- lrouge;
#X obj 148 283 KEPbus \$1 lv -lv- lvert;
#X obj 8 97 KEPbus \$1 Volume Volume b5;
#X obj 8 75 KEPbus \$1 Reverb Reverb b4;
#X obj 8 7 KEPbus \$1 Filtre Filtre b1;
#X obj 8 30 KEPbus \$1 Echo Echo b2;
#X restore 71 261 pd KEPboutons;
#X obj 163 431 r \$1-Effet;
#X floatatom 254 440 5 0 0 0 - - -, f 5;
#X floatatom 254 546 5 0 0 0 - - -, f 5;
#X obj 161 574 MORPHgroup \$1 REV;
#X obj 163 537 r \$1-Reverb;
#X floatatom 252 648 5 0 0 0 - - -, f 5;
#X obj 162 639 r \$1-Echo;
#X obj 159 676 MORPHgroup \$1 ECHO;
#X floatatom 242 316 5 0 0 0 - - -, f 5;
#X obj 151 307 r \$1-Filtre;
#X obj 149 344 MORPHgroup \$1 FILT;
#X obj 4 100 MASTERtypeOUT \$1 1;
#X obj 7 663 KEPCommon \$1 \$0;
#X obj 4 12 FXtypeIN \$1 1 \$0;
#X connect 2 0 1 1;
#X connect 3 0 4 0;
#X connect 4 0 2 0;
#X connect 11 0 31 0;
#X connect 12 0 31 1;
#X connect 15 0 16 0;
#X connect 17 0 30 0;
#X connect 19 0 10 0;
#X connect 19 0 20 0;
#X connect 23 0 21 0;
#X connect 23 0 22 0;
#X connect 25 0 24 0;
#X connect 25 0 26 0;
#X connect 28 0 27 0;
#X connect 28 0 29 0;
#X connect 32 0 17 0;
#X coords 0 -1 1 1 42 656 2 0 0;
