#N canvas 726 79 640 689 10;
#X declare -path absGAMME -path ../absGAMME;
#X declare -stdpath SyncJams/pure-data -stdpath moonlib;
#X obj 430 488 r /BPM;
#X floatatom 430 510 5 0 0 0 - - -;
#X obj 433 459 s /BPM;
#X floatatom 415 427 5 0 0 0 - - -;
#X msg 465 428 120;
#X msg 520 453 150;
#X obj 39 87 route tick;
#X obj 187 476 r /BPM;
#X obj 187 521 /;
#X obj 375 177 r /GAMME;
#X floatatom 375 199 5 0 0 0 - - -;
#X obj 114 545 pack f f;
#X obj 375 159 s /GAMME;
#X msg 381 135 145;
#X msg 415 137 2741;
#X obj 436 181 GAMMEKBV /BASS 1;
#X obj 436 117 GAMMEKBV /GAMME;
#X obj 436 244 GAMMEKBV /CHORD;
#X obj 441 333 GAMMEKBV /CHORD;
#X obj 376 262 s /CHORD;
#X obj 376 281 r /CHORD;
#X msg 376 244 145;
#X floatatom 376 305 5 0 0 0 - - -;
#X obj 38 15 declare -path absGAMME -path ../absGAMME;
#X obj 38 35 declare -stdpath SyncJams/pure-data -stdpath moonlib;
#X floatatom 120 87 5 0 0 0 - - -;
#X msg 187 546 tempo \$1 \, bang;
#X obj 232 468 s /BPM;
#X msg 187 499 60000 \$1;
#X obj 32 414 unpack f f;
#X obj 114 652 s CLOCK;
#X obj 114 575 ndmetro 128 1;
#X obj 114 612 pack f f;
#X msg 81 590 -1;
#X floatatom 47 458 7 0 0 0 - - -;
#X obj 39 129 r /BPM;
#X obj 39 150 change;
#X obj 39 66 l syncjams \$0/syncer \, bpm 10 \, namespace syncjams
\, port 23232;
#N canvas 715 411 651 357 SYNC 0;
#X obj 75 97 route set-state;
#X obj 94 223 spigot 0;
#X obj 75 279 t f f;
#X obj 75 257 netsend -u;
#X obj 75 303 tgl 15 0 empty empty empty 17 7 0 10 -262144 -1 -1 0
1;
#X msg 75 202 disconnect;
#X obj 75 118 list prepend send;
#X obj 75 139 list trim;
#X msg 114 183 connect 255.255.255.255 17010;
#X obj 223 306 print;
#X obj 469 81 netreceive -u 17010;
#X obj 469 124 list trim;
#X obj 497 47 loadbang;
#X obj 469 103 list prepend state null;
#X obj 75 160 t b a b;
#X obj 75 71 r SYNCER;
#X obj 469 146 s SYNCER/r;
#X obj 307 54 loadbang;
#X obj 307 117 t b f;
#X obj 307 137 tgl 15 0 empty empty empty 17 7 0 10 -262144 -1 -1 1
1;
#X msg 307 256 /SIG \$1;
#X obj 307 211 list prepend \$1;
#X obj 289 55 bng 15 250 50 0 empty empty empty 17 7 0 10 -262144 -1
-1;
#X obj 307 190 metro 10000;
#X obj 307 232 route symbol;
#X obj 307 96 + 2800;
#X obj 307 75 random 700;
#X obj 430 175 route /SIG;
#X obj 430 196 s /SIG;
#X obj 375 19 r domoNet-sendSIG;
#X obj 307 163 && 1;
#X obj 375 128 t b f;
#X connect 0 0 6 0;
#X connect 1 0 3 0;
#X connect 2 0 4 0;
#X connect 2 1 1 1;
#X connect 3 0 2 0;
#X connect 5 0 3 0;
#X connect 6 0 7 0;
#X connect 7 0 14 0;
#X connect 8 0 3 0;
#X connect 10 0 13 0;
#X connect 10 0 27 0;
#X connect 11 0 16 0;
#X connect 13 0 11 0;
#X connect 14 0 5 0;
#X connect 14 1 1 0;
#X connect 14 2 8 0;
#X connect 15 0 0 0;
#X connect 17 0 26 0;
#X connect 18 0 19 0;
#X connect 18 1 23 1;
#X connect 19 0 30 0;
#X connect 20 0 6 0;
#X connect 21 0 24 0;
#X connect 23 0 21 0;
#X connect 24 0 20 0;
#X connect 25 0 18 0;
#X connect 26 0 25 0;
#X connect 27 0 28 0;
#X connect 29 0 31 0;
#X connect 30 0 23 0;
#X connect 31 0 30 0;
#X connect 31 1 30 1;
#X restore 229 93 pd SYNC;
#X obj 241 574 loadbang;
#X msg 241 595 0 500;
#N canvas 1 135 342 271 change 0;
#X obj 71 30 inlet;
#X obj 71 52 t f f;
#X obj 98 78 -;
#X obj 98 99 abs;
#X obj 98 120 > 0.01;
#X obj 71 150 list prepend;
#X obj 71 171 route 1;
#X obj 71 192 t f f;
#X obj 71 213 outlet;
#X connect 0 0 1 0;
#X connect 1 0 5 0;
#X connect 1 1 2 0;
#X connect 2 0 3 0;
#X connect 3 0 4 0;
#X connect 4 0 5 1;
#X connect 5 0 6 0;
#X connect 6 0 7 0;
#X connect 7 0 8 0;
#X connect 7 1 2 1;
#X restore 232 439 pd change;
#X floatatom 113 134 5 0 0 0 - - -;
#X obj 229 115 linkSJ SYNCER /BPM-;
#X obj 229 137 linkSJ SYNCER /GAMME;
#X obj 229 157 linkSJ SYNCER /BASS;
#X obj 229 178 linkSJ SYNCER /CHORD;
#X msg 311 249 tempo \$1;
#X msg 100 250 resolution \$1;
#X msg 203 270 reset \$1 \$2;
#X obj 203 249 pack f f;
#X floatatom 210 368 8 0 0 1 beat_time - -;
#X floatatom 173 386 5 0 0 1 phase - -;
#X floatatom 136 408 5 0 0 1 step - -;
#X floatatom 247 347 5 0 0 1 tempo - -;
#X obj 23 230 tgl 15 1 empty empty empty 17 7 0 10 -262144 -1 -1 1
1;
#X floatatom 311 230 5 0 0 2 tempo - -;
#X floatatom 248 230 5 0 0 2 quantum - -;
#X floatatom 203 230 5 0 0 2 beat - -;
#X floatatom 100 230 5 0 0 2 resolution - -;
#X msg 23 250 connect \$1;
#X floatatom 266 418 5 0 0 0 - - -;
#X obj 266 396 r #abl_link_num_peers;
#X obj 64 195 l Carabiner/Carabiner;
#X obj 172 650 s SYNCHRO-clock;
#X obj 421 543 r CLOCK;
#X obj 421 565 ndmetro 4 4;
#X obj 421 587 == 0;
#X obj 421 609 change;
#X obj 421 629 s TEMPOLED;
#X obj 378 582 print;
#X floatatom 86 514 5 0 0 0 - - -;
#X obj 136 448 b;
#X obj 136 469 f;
#X obj 136 322 abl_link~ 1 0 4 134;
#X msg 294 310 offset \$1;
#X floatatom 295 294 5 0 0 0 - - -;
#X obj 295 274 r linkOffset;
#X connect 0 0 1 0;
#X connect 3 0 2 0;
#X connect 4 0 2 0;
#X connect 5 0 2 0;
#X connect 6 0 25 0;
#X connect 7 0 28 0;
#X connect 8 0 11 1;
#X connect 8 0 26 0;
#X connect 8 0 32 1;
#X connect 9 0 10 0;
#X connect 11 0 31 0;
#X connect 13 0 12 0;
#X connect 14 0 12 0;
#X connect 20 0 22 0;
#X connect 21 0 19 0;
#X connect 26 0 31 0;
#X connect 28 0 8 0;
#X connect 29 0 34 0;
#X connect 31 0 32 0;
#X connect 31 0 71 0;
#X connect 31 1 32 0;
#X connect 32 0 30 0;
#X connect 32 0 64 0;
#X connect 33 0 30 0;
#X connect 35 0 36 0;
#X connect 36 0 42 0;
#X connect 36 0 56 0;
#X connect 37 0 6 0;
#X connect 39 0 40 0;
#X connect 40 0 30 0;
#X connect 41 0 27 0;
#X connect 47 0 74 0;
#X connect 48 0 74 0;
#X connect 49 0 74 0;
#X connect 50 0 49 0;
#X connect 54 0 41 0;
#X connect 55 0 60 0;
#X connect 56 0 47 0;
#X connect 57 0 50 1;
#X connect 58 0 50 0;
#X connect 59 0 48 0;
#X connect 60 0 74 0;
#X connect 62 0 61 0;
#X connect 63 0 29 0;
#X connect 65 0 66 0;
#X connect 66 0 67 0;
#X connect 67 0 68 0;
#X connect 68 0 69 0;
#X connect 72 0 73 0;
#X connect 73 0 11 0;
#X connect 74 0 53 0;
#X connect 74 0 72 0;
#X connect 74 1 52 0;
#X connect 74 2 51 0;
#X connect 74 2 73 1;
#X connect 74 3 54 0;
#X connect 75 0 74 0;
#X connect 76 0 75 0;
#X connect 77 0 76 0;
