#N canvas 0 79 1179 566 10;
#X obj 50 151 s MASTERSvol;
#X obj 51 16 vsl 15 128 0 1 0 0 empty empty empty 0 -9 0 10 -262144
-1 -1 10707 1;
#X obj 74 12 r Hur2A-snd;
#X obj 76 31 route b6;
#X msg 79 53 1 \$1;
#X obj 79 74 -;
#X obj 413 41 Hurface2/Hurface2Master;
#X obj 256 168 r HurFace;
#X obj 256 192 route a;
#X msg 256 213 \$2 \$1;
#X obj 256 236 route 1;
#N canvas 1 92 450 300 leds 0;
#X obj 25 44 t b f;
#X obj 25 109 t f f;
#X obj 25 174 pack f f;
#X obj 55 148 ==;
#X obj 25 222 outlet;
#X msg 25 66 0 \, 1 \, 2 \, 3 \, 4 \, 5 \, 6 \, 7 \, 8 \, 9 \, 10 \,
11 \, 12 \, 13 \, 14 \, 15;
#X obj 24 19 inlet;
#X connect 0 0 5 0;
#X connect 0 1 3 1;
#X connect 1 0 2 0;
#X connect 1 1 3 0;
#X connect 2 0 4 0;
#X connect 3 0 2 1;
#X connect 5 0 1 0;
#X connect 6 0 0 0;
#X restore 255 366 pd leds;
#X obj 255 279 s Hur2A-SelectCache-rcv;
#X msg 255 388 al \$1 \$2;
#X obj 255 411 s 2HurFace;
#X obj 403 167 r HurFace;
#X msg 403 212 \$2 \$1;
#X obj 403 235 route 1;
#N canvas 1 97 450 300 leds 0;
#X obj 25 44 t b f;
#X obj 25 109 t f f;
#X obj 25 174 pack f f;
#X obj 55 148 ==;
#X obj 25 222 outlet;
#X msg 25 66 0 \, 1 \, 2 \, 3 \, 4 \, 5 \, 6 \, 7 \, 8 \, 9 \, 10 \,
11 \, 12 \, 13 \, 14 \, 15;
#X obj 24 19 inlet;
#X connect 0 0 5 0;
#X connect 0 1 3 1;
#X connect 1 0 2 0;
#X connect 1 1 3 0;
#X connect 2 0 4 0;
#X connect 3 0 2 1;
#X connect 5 0 1 0;
#X connect 6 0 0 0;
#X restore 402 365 pd leds;
#X obj 402 410 s 2HurFace;
#X obj 403 191 route b;
#X obj 402 278 s Hur2B-SelectCache-rcv;
#X msg 402 387 bl \$1 \$2;
#X obj 560 123 r Hur2A-rcv;
#X obj 560 347 route label;
#X obj 493 446 s 2HurFace;
#X msg 493 418 lcdclear;
#X obj 583 304 route label;
#X obj 605 259 route label;
#X obj 630 221 route label;
#X obj 653 178 route label;
#N canvas 736 89 538 684 lcdtext 0;
#X obj 223 33 inlet;
#X obj 128 72 t a a;
#X obj 116 114 unwonk f f;
#X obj 314 141 a2l;
#X obj 314 162 l2s;
#X obj 208 325 f2char;
#X obj 266 411 f2char;
#X obj 41 244 bng 15 250 50 0 empty empty empty 17 7 0 10 -262144 -1
-1;
#X msg 67 203 128;
#X obj 65 165 t f f;
#X obj 65 188 > 128;
#X obj 355 64 l;
#X obj 223 111 unwonk f f f f;
#X text 261 33 side line start len string;
#X obj 117 268 symbol;
#X obj 37 99 * 40;
#X obj 87 112 * 64;
#X obj 81 61 t f f;
#X obj 223 145 pack f f f f;
#X obj 208 216 t a a;
#X msg 208 240 \$2;
#X obj 208 262 > 1;
#X obj 208 441 pack s s;
#X obj 208 283 + 128;
#X obj 266 240 unpack f f f f;
#X obj 305 319 +;
#X obj 303 270 % 2;
#X obj 303 292 * 64;
#X obj 266 343 +;
#X floatatom 238 367 5 0 0 0 - - -, f 5;
#X floatatom 180 310 5 0 0 0 - - -, f 5;
#X obj 136 512 outlet;
#X msg 394 124 symbol L\$1;
#X obj 266 381 + 128;
#X obj 266 267 * 20;
#X obj 81 605 print;
#X msg 85 579 \$1---;
#X obj 317 210 makesymbol L%-5s;
#X msg 117 215 \$4;
#X obj 117 236 t b f;
#X obj 181 189 t a a;
#X msg 79 419 \$1;
#X floatatom 140 399 5 0 0 0 - - -, f 5;
#X msg 149 454 L\$1;
#X obj 107 311 change;
#X msg 209 466 L\$1\$2;
#X msg 107 334 symbol L%-\$1s;
#X obj 14 357 makesymbol L%-5s;
#X obj 334 493 f2char;
#X obj 392 505 f2char;
#X obj 334 535 pack s s;
#X obj 334 470 + 128;
#X msg 335 560 L\$1\$2;
#X msg 392 482 1;
#X obj 357 423 t f b;
#X msg 364 391 0 \, 1;
#X text 364 371 clear;
#X connect 0 0 12 0;
#X connect 3 0 4 0;
#X connect 4 0 14 1;
#X connect 5 0 22 0;
#X connect 6 0 22 1;
#X connect 9 0 10 0;
#X connect 12 0 18 0;
#X connect 12 1 18 1;
#X connect 12 2 18 2;
#X connect 12 3 18 3;
#X connect 12 4 3 0;
#X connect 14 0 47 0;
#X connect 18 0 40 0;
#X connect 19 0 20 0;
#X connect 19 1 24 0;
#X connect 20 0 21 0;
#X connect 21 0 23 0;
#X connect 22 0 45 0;
#X connect 23 0 5 0;
#X connect 24 0 34 0;
#X connect 24 1 26 0;
#X connect 24 2 25 1;
#X connect 25 0 28 1;
#X connect 26 0 27 0;
#X connect 27 0 25 0;
#X connect 28 0 33 0;
#X connect 33 0 6 0;
#X connect 34 0 28 0;
#X connect 36 0 35 0;
#X connect 38 0 39 0;
#X connect 39 0 14 0;
#X connect 39 1 44 0;
#X connect 40 0 38 0;
#X connect 40 1 19 0;
#X connect 41 0 31 0;
#X connect 43 0 31 0;
#X connect 44 0 46 0;
#X connect 45 0 31 0;
#X connect 46 0 47 1;
#X connect 47 0 41 0;
#X connect 48 0 50 0;
#X connect 49 0 50 1;
#X connect 50 0 52 0;
#X connect 51 0 48 0;
#X connect 52 0 31 0;
#X connect 53 0 49 0;
#X connect 54 0 51 0;
#X connect 54 1 53 0;
#X connect 55 0 54 0;
#X restore 560 423 pd lcdtext;
#X obj 560 400 t a;
#X obj 256 324 route float;
#X obj 403 325 route float;
#X obj 256 304 r Hur2A-SelectCache-snd;
#X obj 403 303 r Hur2B-SelectCache-snd;
#X msg 742 174 Volume;
#X obj 672 116 bng 15 250 50 0 empty empty empty 17 7 0 10 -262144
-1 -1;
#X obj 859 350 route label;
#X obj 882 307 route label;
#X obj 904 262 route label;
#X obj 929 224 route label;
#X obj 952 181 route label;
#X obj 859 403 t a;
#X msg 1054 178 Volume;
#X obj 971 119 bng 15 250 50 0 empty empty empty 17 7 0 10 -262144
-1 -1;
#X obj 859 126 r Hur2B-rcv;
#X obj 653 198 list prepend 0 3 10 10;
#X obj 630 240 list prepend 0 1 10 10;
#X obj 583 324 list prepend 0 3 0 10;
#X obj 560 368 list prepend 0 1 0 10;
#X obj 859 371 list prepend 1 1 0 10;
#X obj 882 327 list prepend 1 3 0 10;
#X obj 929 243 list prepend 1 1 10 10;
#X obj 952 201 list prepend 1 3 10 10;
#X obj 560 150 route b1 b2 b3 b4 b5 instru;
#X obj 693 373 list prepend 0 0 0 20;
#X obj 859 153 route b1 b2 b3 b4 b5 instru;
#X obj 805 168 print;
#X obj 605 280 list prepend 0 2 5 15;
#X obj 904 283 list prepend 1 2 5 15;
#X obj 37 205 r HurFace;
#X floatatom 502 205 5 0 0 0 - - -, f 5;
#X obj 38 294 s Main-vol-rcv;
#X msg 38 249 1 \$1;
#X obj 38 271 -;
#X msg 129 266 0;
#X msg 105 267 1;
#X obj 135 299 s clockon-rcv;
#X obj 37 226 route km plusa moinsa ia;
#X obj 177 352 t f f;
#X obj 175 382 -;
#X obj 220 454 +;
#X obj 175 405 moses -3;
#X obj 220 429 moses 3;
#X obj 1020 329 list prepend 1 0 0 10;
#X obj 1021 430 list prepend 1 0 17 3;
#X obj 1021 378 r SYNCHRO-bpm-snd;
#X obj 247 453 r SYNCHRO-bpm-snd;
#X obj 220 480 s SYNCHRO-bpm-rcv;
#X floatatom 971 458 5 0 0 0 - - -, f 5;
#X msg 298 84 lcdclear;
#X obj 1021 400 i;
#X obj 297 105 s toHurf2;
#X obj 476 476 fruit/send2 Hur2A;
#N canvas 542 254 607 462 fruit-MasterVol 0;
#X msg 280 216 c 21 c \$1;
#X msg 289 189 1;
#X msg 254 189 0;
#X text 287 173 K1_AN;
#X obj 274 380 fruit/send Hur2A;
#X connect 0 0 4 0;
#X connect 1 0 0 0;
#X connect 2 0 0 0;
#X restore 76 127 pd fruit-MasterVol;
#X obj 255 256 + 0;
#X obj 402 255 + 0;
#X obj 256 347 - 0;
#X obj 403 346 - 0;
#X symbolatom 673 473 10 0 0 0 - - -, f 10;
#X obj 675 448 symbol;
#X symbolatom 779 475 10 0 0 0 - - -, f 10;
#X obj 781 450 symbol;
#N canvas 0 91 581 370 instru 0;
#X obj 187 19 inlet;
#X obj 187 268 outlet;
#X obj 57 53 unpack s f;
#X obj 57 75 list fromsymbol;
#X obj 57 125 list tosymbol;
#X obj 57 147 pack s f;
#X msg 57 169 symbol \$1\$2;
#X obj 57 97 list split 6;
#X obj 187 70 list fromsymbol;
#X obj 187 184 list split 6;
#X obj 219 113 list length;
#X obj 187 157 list split;
#X obj 219 135 - 1;
#X obj 187 242 list tosymbol;
#X obj 187 218 list append;
#X obj 187 41 symbol;
#X obj 187 92 t a a;
#X connect 0 0 15 0;
#X connect 2 0 3 0;
#X connect 2 1 5 1;
#X connect 3 0 7 0;
#X connect 4 0 5 0;
#X connect 5 0 6 0;
#X connect 7 0 4 0;
#X connect 7 2 4 0;
#X connect 8 0 16 0;
#X connect 9 0 14 0;
#X connect 9 2 14 0;
#X connect 10 0 12 0;
#X connect 11 0 9 0;
#X connect 11 1 14 1;
#X connect 12 0 11 1;
#X connect 13 0 1 0;
#X connect 14 0 13 0;
#X connect 15 0 8 0;
#X connect 16 0 11 0;
#X connect 16 1 10 0;
#X restore 1047 300 pd instru;
#N canvas 0 91 581 370 instru 0;
#X obj 187 19 inlet;
#X obj 187 268 outlet;
#X obj 57 53 unpack s f;
#X obj 57 75 list fromsymbol;
#X obj 57 125 list tosymbol;
#X obj 57 147 pack s f;
#X msg 57 169 symbol \$1\$2;
#X obj 57 97 list split 6;
#X obj 187 70 list fromsymbol;
#X obj 187 184 list split 6;
#X obj 219 113 list length;
#X obj 187 157 list split;
#X obj 219 135 - 1;
#X obj 187 242 list tosymbol;
#X obj 187 218 list append;
#X obj 187 41 symbol;
#X obj 187 92 t a a;
#X connect 0 0 15 0;
#X connect 2 0 3 0;
#X connect 2 1 5 1;
#X connect 3 0 7 0;
#X connect 4 0 5 0;
#X connect 5 0 6 0;
#X connect 7 0 4 0;
#X connect 7 2 4 0;
#X connect 8 0 16 0;
#X connect 9 0 14 0;
#X connect 9 2 14 0;
#X connect 10 0 12 0;
#X connect 11 0 9 0;
#X connect 11 1 14 1;
#X connect 12 0 11 1;
#X connect 13 0 1 0;
#X connect 14 0 13 0;
#X connect 15 0 8 0;
#X connect 16 0 11 0;
#X connect 16 1 10 0;
#X restore 693 349 pd instru;
#X connect 1 0 0 0;
#X connect 2 0 3 0;
#X connect 3 0 4 0;
#X connect 4 0 5 0;
#X connect 5 0 1 0;
#X connect 7 0 8 0;
#X connect 8 0 9 0;
#X connect 9 0 10 0;
#X connect 10 0 87 0;
#X connect 11 0 13 0;
#X connect 13 0 14 0;
#X connect 15 0 20 0;
#X connect 16 0 17 0;
#X connect 17 0 88 0;
#X connect 18 0 22 0;
#X connect 20 0 16 0;
#X connect 22 0 19 0;
#X connect 23 0 56 0;
#X connect 24 0 51 0;
#X connect 26 0 25 0;
#X connect 27 0 50 0;
#X connect 28 0 60 0;
#X connect 29 0 49 0;
#X connect 30 0 48 0;
#X connect 31 0 85 1;
#X connect 32 0 31 0;
#X connect 33 0 89 0;
#X connect 34 0 90 0;
#X connect 35 0 33 0;
#X connect 36 0 34 0;
#X connect 37 0 48 0;
#X connect 38 0 30 0;
#X connect 39 0 52 0;
#X connect 40 0 53 0;
#X connect 41 0 61 0;
#X connect 42 0 54 0;
#X connect 43 0 55 0;
#X connect 44 0 31 0;
#X connect 45 0 55 0;
#X connect 46 0 43 0;
#X connect 47 0 58 0;
#X connect 48 0 32 0;
#X connect 49 0 32 0;
#X connect 50 0 32 0;
#X connect 51 0 32 0;
#X connect 52 0 44 0;
#X connect 53 0 44 0;
#X connect 54 0 44 0;
#X connect 55 0 44 0;
#X connect 56 0 24 0;
#X connect 56 1 27 0;
#X connect 56 2 28 0;
#X connect 56 3 29 0;
#X connect 56 4 30 0;
#X connect 56 5 94 0;
#X connect 56 5 96 0;
#X connect 57 0 32 0;
#X connect 58 0 39 0;
#X connect 58 1 40 0;
#X connect 58 2 41 0;
#X connect 58 3 42 0;
#X connect 58 4 43 0;
#X connect 58 5 95 0;
#X connect 60 0 32 0;
#X connect 61 0 44 0;
#X connect 62 0 70 0;
#X connect 65 0 66 0;
#X connect 66 0 64 0;
#X connect 67 0 69 0;
#X connect 68 0 69 0;
#X connect 70 0 65 0;
#X connect 70 1 68 0;
#X connect 70 2 67 0;
#X connect 70 3 71 0;
#X connect 71 0 72 1;
#X connect 71 1 72 0;
#X connect 72 0 74 0;
#X connect 73 0 80 0;
#X connect 74 1 75 0;
#X connect 75 0 73 0;
#X connect 76 0 44 0;
#X connect 77 0 44 0;
#X connect 78 0 81 0;
#X connect 78 0 83 0;
#X connect 79 0 73 1;
#X connect 82 0 84 0;
#X connect 83 0 77 0;
#X connect 87 0 12 0;
#X connect 88 0 21 0;
#X connect 89 0 11 0;
#X connect 90 0 18 0;
#X connect 92 0 91 0;
#X connect 94 0 93 0;
#X connect 95 0 76 0;
#X connect 96 0 57 0;
