#N canvas 52 586 542 286 10;
#X declare -path KEP/AutoAbstractions;
#X declare -path KEP/AutoPreset;
#X declare -path KEP/absKEP;
#X declare -path KEP/absGAMME;
#X declare -path KEP/absTL;
#X declare -path KEP/rj;
#X declare -path KEP/HurFace;
#X declare -stdpath Fraise;
#X declare -path KEP;
#X declare -path KEP/PdTl;
#X declare -path KEP/abs;
#X declare -stdpath iemlib -stdlib iemlib;
#X declare -stdpath moocow -stdlib moocow;
#X declare -stdpath readdir -stdlib readdir;
#X declare -stdpath flatgui -stdlib flatgui;
#X declare -stdpath cxc -stdlib cxc;
#X declare -stdpath mrpeach -stdlib mrpeach;
#X declare -stdpath zexy -stdlib zexy;
#X declare -stdpath maxlib -stdlib maxlib;
#X declare -stdpath ggee -stdlib ggee;
#X declare -stdpath creb -stdlib creb;
#X declare -stdpath hcs -stdlib hcs;
#X declare -stdpath motex -stdlib motex;
#X declare -stdpath moonlib -stdlib moonlib;
#X declare -stdpath osc -stdlib osc;
#X declare -stdpath mrpeach -stdlib mrpeach;
#X declare -path KEP/absXtouch-XR18;
#X declare -stdpath pd-autotuned-master -stdlib pd-autotuned-master
;
#N canvas 1707 765 450 300 CPU 0;
#X obj 1 1 cnv 15 35 30 empty empty empty 20 12 0 14 -1 -66577 0;
#X obj 79 29 cputime;
#X obj 79 -111 loadbang;
#X obj 79 -27 metro 1000;
#X msg 79 -83 1;
#X floatatom 79 -55 0 0 0 0 - - -;
#X obj 79 1 t b b;
#X obj 79 89 * 0.1;
#X obj 79 58 int;
#X text 164 -19 <-- on/off;
#X obj 2 17 nbx 3 14 -1e+37 1e+37 0 0 empty empty CPU 2 -8 1 10 -262144
-1 -262144 43 256;
#X connect 1 0 8 0;
#X connect 2 0 4 0;
#X connect 3 0 6 0;
#X connect 4 0 5 0;
#X connect 5 0 3 0;
#X connect 6 0 1 0;
#X connect 6 1 1 1;
#X connect 7 0 10 0;
#X connect 8 0 7 0;
#X coords 0 -1 1 1 37 32 2 0 0;
#X restore 44 172 pd CPU;
#N canvas 442 144 677 643 CACHEnoguis 1;
#X obj 93 220 CACHE KEPcontrol 1109;
#X obj 282 18 CACHE KEPcontrol 1201;
#X obj 11 16 CACHE KEPcontrol 1101;
#X obj 11 118 CACHE KEPcontrol 1102;
#X obj 11 220 CACHE KEPcontrol 1103;
#X obj 11 322 CACHE KEPcontrol 1104;
#X obj 11 424 CACHE KEPcontrol 1105;
#X obj 11 526 CACHE KEPcontrol 1106;
#X obj 93 16 CACHE KEPcontrol 1107;
#X obj 93 118 CACHE KEPcontrol 1108;
#X obj 93 322 CACHE KEPcontrol 1110;
#X obj 93 424 CACHE KEPcontrol 1111;
#X obj 93 526 CACHE KEPcontrol 1112;
#X obj 175 16 CACHE KEPcontrol 1113;
#X obj 175 118 CACHE KEPcontrol 1114;
#X obj 175 220 CACHE KEPcontrol 1115;
#X obj 175 322 CACHE KEPcontrol 1116;
#X obj 175 424 CACHE KEPcontrol 1117;
#X obj 175 526 CACHE KEPcontrol 1118;
#X obj 282 122 CACHE KEPcontrol 1202;
#X obj 282 225 CACHE KEPcontrol 1203;
#X obj 282 328 CACHE KEPcontrol 1204;
#X obj 282 431 CACHE KEPcontrol 1205;
#X obj 369 18 CACHE KEPcontrol 1206;
#X obj 369 122 CACHE KEPcontrol 1207;
#X obj 369 224 CACHE KEPcontrol 1208;
#X obj 369 329 CACHE KEPcontrol 1209;
#X obj 370 433 CACHE KEPcontrol 12010;
#X obj 458 19 CACHE KEPcontrol 12011;
#X obj 462 133 CACHE KEPcontrol 12012;
#X obj 466 233 CACHE KEPcontrol 12013;
#X obj 462 328 CACHE KEPcontrol 12014;
#X obj 460 429 CACHE KEPcontrol 12015;
#X obj 457 543 CACHE KEPcontrol 12016;
#X coords 0 643 1 642 85 60 0;
#X restore 183 183 pd CACHEnoguis;
#X obj 184 209 l idees;
#X obj 236 209 r MASTERSvol;
#X obj 335 206 bng 15 250 50 0 reloadRegie empty reloadRegie 17 7 0
12 -260097 -1 -1;
#N canvas 207 799 1016 639 declare 0;
#X obj 10 550 l declare -path /usr/lib/pd-extended/extra/iemlib/;
#X obj 793 81 moonlib/mknob 25 100 0 127 0 0 -233017 empty empty -2
-6 0 8 1.46041e+08 3.13176e+08 1.46041e+08 0 1;
#X obj 576 515 l /home/al1/pd-externals/Bidouille/PdPatchs/0Morsso0/alternateur
;
#X obj 2 310 declare -path KEP/AutoAbstractions;
#X obj 3 331 declare -path KEP/AutoPreset;
#X obj 4 352 declare -path KEP/absKEP;
#X obj 4 410 declare -path KEP/absGAMME;
#X obj 6 433 declare -path KEP/absTL;
#X obj 550 365 l declare -path KEP/absIEMLIB;
#X obj 7 477 declare -path KEP/rj;
#X obj 7 499 declare -path KEP/HurFace;
#X obj 278 412 declare -stdpath Fraise;
#X obj 13 574 l declare -path ./SyncJams-master/pure-data;
#X obj 11 601 l declare -path ./pd-net-sync-master;
#X obj 2 266 declare -path KEP;
#X obj 4 378 declare -path KEP/PdTl;
#X obj 3 289 declare -path KEP/abs;
#X obj 738 221 l syncjams;
#X obj 799 271 l uid;
#X obj 264 34 declare -stdpath iemlib -stdlib iemlib;
#X obj 263 55 l declare -stdpath cyclone -stdlib cyclone;
#X obj 264 124 l declare -stdpath unauthorized -stdlib unauthorized
;
#X obj 269 247 declare -stdpath moocow -stdlib moocow;
#X obj 270 271 declare -stdpath readdir -stdlib readdir;
#X obj 268 293 declare -stdpath flatgui -stdlib flatgui;
#X obj 554 319 l declare -stdpath arraysize;
#X obj 554 342 l declare -stdpath comport;
#X obj 734 341 l declare -stdlib comport;
#X obj 734 318 l declare -stdlib arraysize;
#X obj 277 361 declare -stdpath cxc -stdlib cxc;
#X obj 278 382 declare -stdpath mrpeach -stdlib mrpeach;
#X obj 267 99 declare -stdpath zexy -stdlib zexy;
#X obj 266 150 declare -stdpath maxlib -stdlib maxlib;
#X obj 261 74 declare -stdpath ggee -stdlib ggee;
#X obj 267 222 declare -stdpath creb -stdlib creb;
#X obj 265 199 declare -stdpath hcs -stdlib hcs;
#X obj 267 175 declare -stdpath motex -stdlib motex;
#X obj 640 206 ead~;
#X obj 260 12 declare -stdpath moonlib -stdlib moonlib;
#X obj 556 389 l declare -path KEP/FraisePd;
#X obj 569 12 declare -stdpath osc -stdlib osc;
#X obj 582 45 declare -stdpath mrpeach -stdlib mrpeach;
#X obj 11 522 declare -path KEP/absXtouch-XR18;
#X obj 548 157 declare -stdpath pd-autotuned-master -stdlib pd-autotuned-master
, f 56;
#X restore 304 76 pd declare;
#X obj 328 123 l AutoAffectMonitor;
#X obj 298 181 l Send2Gem;
#X obj 386 180 l Playlist360;
#N canvas 1820 619 420 401 MASTERS 1;
#X obj 4 3 cnv 15 347 393 empty empty empty 20 12 1 14 -1 -262144 0
;
#N canvas 790 998 343 237 SaveMaster 0;
#X obj 11 11 cnv 15 99 122 empty empty MASTERS 5 12 1 14 -260097 -1
0;
#X obj 34 203 apmaster MASTERS;
#X obj 38 54 bng 25 250 50 0 empty empty save 3 -7 1 10 -258113 -1
-1;
#X obj 34 171 bng 15 250 50 0 empty empty load 17 7 1 10 -4034 -1 -1
;
#X obj 89 171 bng 15 250 50 0 empty empty save_as 17 7 1 10 -258113
-1 -1;
#N canvas 1033 1208 351 454 apmaster_autoload 0;
#X obj 84 34 route loaded saved;
#X obj 29 162 loadbang;
#X msg 84 397 loadfile \$1;
#X obj 84 78 symbol;
#X obj 84 369 symbol;
#X obj 29 184 del 100;
#X msg 84 196 set \$1;
#X msg 84 223 MASTERS;
#X obj 84 12 r MASTERS-apmaster-snd;
#X obj 84 422 s MASTERS-apmaster-rcv;
#X obj 27 119 split_path;
#X obj 84 319 pack s s;
#X obj 84 274 t b a;
#X obj 84 249 symbol;
#X obj 207 280 print;
#X obj 207 230 bng 15 250 50 0 empty empty empty 17 7 0 10 -262144
-1 -1;
#X obj 207 259 getdir 5;
#X obj 84 296 getdir 5;
#X obj 84 343 makesymbol %s/KEPSETTINGS/ConfigMaster/%s;
#X connect 0 0 3 0;
#X connect 0 1 3 0;
#X connect 1 0 5 0;
#X connect 2 0 9 0;
#X connect 3 0 10 0;
#X connect 4 0 2 0;
#X connect 5 0 7 0;
#X connect 6 0 7 0;
#X connect 7 0 13 0;
#X connect 8 0 0 0;
#X connect 10 1 6 0;
#X connect 11 0 18 0;
#X connect 12 0 17 0;
#X connect 12 1 11 1;
#X connect 13 0 12 0;
#X connect 15 0 16 0;
#X connect 16 0 14 0;
#X connect 17 0 11 0;
#X connect 18 0 4 0;
#X restore 152 69 pd apmaster_autoload;
#N canvas 1754 680 284 213 apmaster_symbol 0;
#X obj 75 38 route loaded saved;
#X obj 75 155 outlet;
#X obj 75 67 symbol;
#X obj 75 16 r MASTERS-apmaster-snd;
#X obj 75 100 split_path;
#X connect 0 0 2 0;
#X connect 0 1 2 0;
#X connect 2 0 4 0;
#X connect 3 0 0 0;
#X connect 4 1 1 0;
#X restore 154 18 pd apmaster_symbol;
#X symbolatom 154 43 0 0 0 0 - - -;
#X obj 160 166 s MASTERS-apmaster-rcv;
#X msg 160 143 savein;
#X obj 38 104 bng 15 250 50 0 empty empty reload 17 7 1 10 -4034 -1
-1;
#X msg 107 143 loadin;
#X connect 2 0 9 0;
#X connect 3 0 1 0;
#X connect 4 0 1 1;
#X connect 6 0 7 0;
#X connect 9 0 8 0;
#X connect 10 0 11 0;
#X connect 11 0 8 0;
#X coords 0 -1 1 1 101 124 2 10 10;
#X restore 245 9 pd SaveMaster;
#X obj 72 137 cnv 15 177 124 empty empty MONITORS_OUT 20 10 0 14 -257985
-1 0;
#X obj 10 265 cnv 15 279 124 empty empty IN_LEVELS 20 10 0 14 -4160
-257985 0;
#X obj 14 283 INvu 1;
#X obj 48 283 INvu 2;
#X obj 82 283 INvu 3;
#X obj 116 283 INvu 4;
#X obj 150 283 INvu 5;
#X obj 184 283 INvu 6;
#X obj 218 283 INvu 7;
#X obj 252 283 INvu 8;
#X obj 254 137 cnv 15 91 124 empty empty FX_LEVELS 10 10 0 14 -4032
-1 0;
#X obj 258 155 FXvu 1;
#X obj 279 155 FXvu 2;
#X obj 300 155 FXvu 3;
#X obj 321 155 FXvu 4;
#X obj 10 137 cnv 15 61 124 empty empty STEREO 2 10 0 14 -4034 -1 0
;
#X obj 10 9 cnv 15 177 124 empty empty VCA 20 10 0 14 -260097 -1 0
;
#X obj 15 26 VCAvu 1;
#X obj 14 155 OUTvu 1;
#X obj 43 155 OUTvu 2;
#X obj 72 155 OUTvuM 3;
#X obj 101 155 OUTvuM 4;
#X obj 130 155 OUTvuM 5;
#X obj 159 155 OUTvuM 6;
#X obj 188 155 OUTvuM 7;
#X obj 217 155 OUTvuM 8;
#X obj 191 9 MASTERSvol;
#X obj 293 265 REC-16;
#X obj 125 10 tgl 14 0 XtouchVCAon-snd XtouchVCAon-rcv Xtouch 17 7
0 10 -258699 -258699 -233017 0 1;
#X obj 78 26 VCAvu 4;
#X obj 36 26 VCAvu 2;
#X obj 57 26 VCAvu 3;
#X obj 99 26 VCAvu 5;
#X obj 120 26 VCAvu 6;
#X obj 141 26 VCAvu 7;
#X obj 162 26 VCAvu 8;
#X obj 209 400 tgl 15 0 MASTER-DSPswitchOffWhenMuted MASTER-DSPswitchOffWhenMuted
DSPswitchOffWhenMuted 17 7 0 10 -262144 -1 -1 0 1;
#X restore 258 109 pd MASTERS;
#X obj 184 237 ../KEP_INSTRUMENTS;
#N canvas 510 127 252 769 CACHEguis 1;
#N canvas 776 552 266 261 SaveKEPcontrol 0;
#X obj 1 1 cnv 15 232 60 empty empty KEPcontrol 8 12 1 14 -162280 -1
0;
#X obj 3 45 bng 13 250 50 0 empty empty load 17 7 1 10 -4034 -1 -1
;
#X obj 3 25 bng 13 250 50 0 empty empty save_as 17 7 1 10 -258113 -1
-1;
#X symbolatom 66 42 0 0 0 0 - - -;
#N canvas 597 299 288 475 apmaster_autoload 0;
#X obj 67 57 route loaded saved;
#X obj 12 130 loadbang;
#X msg 67 371 loadfile \$1;
#X obj 67 98 symbol;
#X obj 67 343 symbol;
#X obj 12 152 del 100;
#X msg 67 164 set \$1;
#X obj 67 285 pack s s;
#X msg 67 191 KEPctl-demo;
#X obj 67 240 t b a;
#X obj 67 215 symbol;
#X obj 67 121 split_path;
#X obj 66 30 r KEPcontrol-apmaster-snd;
#X obj 67 399 s KEPcontrol-apmaster-rcv;
#X obj 67 309 makesymbol %s/KEPSETTINGS/ConfigKEPcontrol/%s;
#X obj 161 261 print;
#X obj 162 205 bng 15 250 50 0 empty empty empty 17 7 0 10 -262144
-1 -1;
#X obj 161 239 getdir 4;
#X obj 67 262 getdir 4;
#X connect 0 0 3 0;
#X connect 0 1 3 0;
#X connect 1 0 5 0;
#X connect 2 0 13 0;
#X connect 3 0 11 0;
#X connect 4 0 2 0;
#X connect 5 0 8 0;
#X connect 6 0 8 0;
#X connect 7 0 14 0;
#X connect 8 0 10 0;
#X connect 9 0 18 0;
#X connect 9 1 7 1;
#X connect 10 0 9 0;
#X connect 11 1 6 0;
#X connect 12 0 0 0;
#X connect 14 0 4 0;
#X connect 16 0 17 0;
#X connect 17 0 15 0;
#X connect 18 0 7 0;
#X restore 133 157 pd apmaster_autoload;
#N canvas 586 202 272 246 apmaster_symbol 0;
#X obj 75 38 route loaded saved;
#X obj 75 79 symbol;
#X obj 75 149 symbol;
#X obj 75 171 outlet;
#X obj 75 100 split_path;
#X obj 75 16 r KEPcontrol-apmaster-snd;
#X connect 0 0 1 0;
#X connect 0 1 1 0;
#X connect 1 0 4 0;
#X connect 2 0 3 0;
#X connect 4 1 2 0;
#X connect 5 0 0 0;
#X restore 66 177 pd apmaster_symbol;
#X obj 10 224 tgl 13 0 KEPcontrol-save_tog-snd KEPcontrol-save_tog-rcv
sessions 90 -16 1 10 -258113 -1 -1 0 1;
#X obj 3 136 apmaster KEPcontrol;
#N canvas 1766 522 450 300 patterns 1;
#X msg 37 41 \$1;
#X obj 213 46 tgl 15 0 empty empty empty 0 -6 0 8 -262144 -1 -1 0 1
;
#X obj 213 77 sel 0 1;
#X msg 213 98 color 0 22 22;
#X msg 236 122 color 13 22 22;
#X obj 81 98 demux;
#X obj 111 122 t f f b;
#X msg 174 155 0;
#X msg 38 152 load \$1;
#X msg 117 155 store \$1;
#X obj 88 208 list trim;
#X obj 88 184 list prepend _all_;
#X obj 88 231 s KEPcontrol-pattern-snd;
#X obj 37 11 r KEPcontrol-pattern_but-snd;
#X obj 213 148 s KEPcontrol-pattern_but-rcv;
#X obj 213 20 r KEPcontrol-save_tog-snd;
#X obj 214 182 s KEPcontrol-save_tog-rcv;
#X connect 0 0 5 0;
#X connect 1 0 2 0;
#X connect 1 0 5 1;
#X connect 2 0 3 0;
#X connect 2 1 4 0;
#X connect 3 0 14 0;
#X connect 4 0 14 0;
#X connect 5 0 8 0;
#X connect 5 1 6 0;
#X connect 6 1 9 0;
#X connect 6 2 7 0;
#X connect 7 0 16 0;
#X connect 8 0 11 0;
#X connect 9 0 11 0;
#X connect 10 0 12 0;
#X connect 11 0 10 0;
#X connect 13 0 0 0;
#X connect 15 0 1 0;
#X restore 124 115 pd patterns;
#X obj 87 12 bng 25 250 50 0 empty empty save 3 -7 1 10 -258113 -1
-1;
#X msg 87 64 savein;
#X obj 87 87 s KEPcontrol-apmaster-rcv;
#X obj 26 224 hradio 13 1 0 16 KEPcontrol-pattern_but-snd KEPcontrol-pattern_but-rcv
_1_.2_.3_.4_.5_.6_.7_.8_.9.10.11.12.13.14.15.16 0 -4 1 9 -262144 -1
-1 0;
#X connect 1 0 7 0;
#X connect 2 0 7 1;
#X connect 5 0 3 0;
#X connect 9 0 10 0;
#X connect 10 0 11 0;
#X coords 0 -1 1 1 234 62 1 0 0;
#X restore 10 8 pd SaveKEPcontrol;
#X obj 10 72 CACHEgui KEPcontrol 1001;
#X obj 10 190 CACHEgui KEPcontrol 1002;
#X obj 10 308 CACHEgui KEPcontrol 1003;
#X obj 9 426 CACHEgui KEPcontrol 1004;
#X obj 9 544 CACHEgui KEPcontrol 1005;
#X obj 9 662 CACHEgui KEPcontrol 1006;
#X restore 184 163 pd CACHEguis;
#N canvas 1052 1024 309 388 SONG 0;
#N canvas 869 427 343 197 SaveKEPsong 0;
#X obj 1 1 cnv 15 300 60 empty empty KEPsong 8 12 1 14 -261234 -45076
0;
#X obj 3 46 bng 13 250 50 0 empty empty load 17 7 1 10 -4034 -1 -1
;
#X obj 3 26 bng 13 250 50 0 empty empty save_as 17 7 1 10 -258113 -1
-1;
#N canvas 572 397 314 475 apmaster_autoload 0;
#X obj 61 55 route loaded saved;
#X obj 6 128 loadbang;
#X msg 61 369 loadfile \$1;
#X obj 61 96 symbol;
#X obj 61 341 symbol;
#X obj 6 150 del 100;
#X msg 61 162 set \$1;
#X obj 61 283 pack s s;
#X msg 61 189 KEPsong;
#X obj 61 238 t b a;
#X obj 61 213 symbol;
#X obj 61 119 split_path;
#X obj 60 28 r KEPsong-apmaster-snd;
#X obj 61 397 s KEPsong-apmaster-rcv;
#X obj 164 241 print;
#X obj 166 197 bng 15 250 50 0 empty empty empty 17 7 0 10 -262144
-1 -1;
#X obj 61 307 makesymbol %s/KEPSETTINGS/ConfigSong/%s;
#X obj 165 220 getdir 4;
#X obj 61 260 getdir 4;
#X connect 0 0 3 0;
#X connect 0 1 3 0;
#X connect 1 0 5 0;
#X connect 2 0 13 0;
#X connect 3 0 11 0;
#X connect 4 0 2 0;
#X connect 5 0 8 0;
#X connect 6 0 8 0;
#X connect 7 0 16 0;
#X connect 8 0 10 0;
#X connect 9 0 18 0;
#X connect 9 1 7 1;
#X connect 10 0 9 0;
#X connect 11 1 6 0;
#X connect 12 0 0 0;
#X connect 15 0 17 0;
#X connect 16 0 4 0;
#X connect 17 0 14 0;
#X connect 18 0 7 0;
#X restore 179 141 pd apmaster_autoload;
#N canvas 666 549 272 246 apmaster_symbol 0;
#X obj 75 38 route loaded saved;
#X obj 75 79 symbol;
#X obj 75 149 symbol;
#X obj 75 171 outlet;
#X obj 75 100 split_path;
#X obj 75 16 r KEPsong-apmaster-snd;
#X connect 0 0 1 0;
#X connect 0 1 1 0;
#X connect 1 0 4 0;
#X connect 2 0 3 0;
#X connect 4 1 2 0;
#X connect 5 0 0 0;
#X restore 81 69 pd apmaster_symbol;
#X obj 48 46 tgl 13 0 KEPsong-save_tog-snd KEPsong-save_tog-rcv patterns
90 -16 1 10 -258113 -1 -1 0 1;
#N canvas 1761 546 450 300 patterns 0;
#X msg 37 41 \$1;
#X obj 213 46 tgl 15 0 empty empty empty 0 -6 0 8 -262144 -1 -1 0 1
;
#X obj 213 77 sel 0 1;
#X msg 213 98 color 0 22 22;
#X msg 236 122 color 13 22 22;
#X obj 81 98 demux;
#X obj 111 122 t f f b;
#X msg 174 155 0;
#X msg 38 152 load \$1;
#X msg 117 155 store \$1;
#X obj 88 208 list trim;
#X obj 88 184 list prepend _all_;
#X obj 37 11 r KEPsong-pattern_but-snd;
#X obj 213 20 r KEPsong-save_tog-snd;
#X obj 214 182 s KEPsong-save_tog-rcv;
#X obj 88 231 s KEPsong-pattern-snd;
#X obj 213 148 s KEPsong-pattern_but-rcv;
#X connect 0 0 5 0;
#X connect 1 0 2 0;
#X connect 1 0 5 1;
#X connect 2 0 3 0;
#X connect 2 1 4 0;
#X connect 3 0 16 0;
#X connect 4 0 16 0;
#X connect 5 0 8 0;
#X connect 5 1 6 0;
#X connect 6 1 9 0;
#X connect 6 2 7 0;
#X connect 7 0 14 0;
#X connect 8 0 11 0;
#X connect 9 0 11 0;
#X connect 10 0 15 0;
#X connect 11 0 10 0;
#X connect 12 0 0 0;
#X connect 13 0 1 0;
#X restore 209 91 pd patterns;
#X obj 274 14 bng 25 250 50 0 empty empty save 3 -7 1 10 -258113 -1
-1;
#X msg 140 94 savein;
#X obj 64 46 hradio 13 1 0 16 KEPsong-pattern_but-snd KEPsong-pattern_but-rcv
_1_.2_.3_.4_.5_.6_.7_.8_.9.10.11.12.13.14.15.16 0 -4 1 9 -262144 -1
-1 0;
#X symbolatom 71 4 0 0 0 0 - - -;
#X obj 5 143 apmaster KEPsong;
#X obj 140 117 s KEPsong-apmaster-rcv;
#X obj 16 69 loadbang;
#X msg 16 112 0;
#X obj 16 90 del 100;
#X connect 1 0 11 0;
#X connect 2 0 11 1;
#X connect 4 0 10 0;
#X connect 7 0 8 0;
#X connect 8 0 12 0;
#X connect 13 0 15 0;
#X connect 14 0 9 0;
#X connect 15 0 14 0;
#X coords 0 -1 1 1 302 62 1 0 0;
#X restore 4 6 pd SaveKEPsong;
#X obj 4 70 SYNCHRO KEPsong SYNCHRO;
#N canvas 425 415 282 203 gammes 0;
#X obj 88 164 s \$0-g1-snd;
#X obj 210 164 s \$0-g2-snd;
#X obj 33 -11 r \$0-g1-rcv;
#X obj 155 -11 r \$0-g2-rcv;
#X obj 11 11 cnv 15 242 148 empty empty empty 20 12 0 14 -260818 -66577
0;
#X obj 15 15 cnv 15 130 140 empty empty game1 40 12 1 14 -24198 -66577
0;
#X obj 33 36 gamme 90 40 1 0 1 0 1 1 0 1 0 1 0 1;
#X obj 149 15 cnv 15 100 110 empty empty game2 20 12 1 14 -24198 -66577
0;
#X obj 155 36 gamme 90 40 1 0 0 0 1 0 0 0 0 1 0 0;
#X obj 116 127 mknob 25 100 0 127 0 0 -355 \$0-g1f-rcv fine -2 -6 0
8 3.15065e+08 3.13176e+08 3.14334e+08 78 1;
#X obj 175 92 mknob 25 100 0 127 0 0 -355 \$0-g2f-rcv fine2 -2 -6 0
8 3.15065e+08 3.13176e+08 3.14334e+08 78 1;
#X obj 20 129 mknob 25 100 0 127 0 0 -355 \$0-g1trans-rcv Transp -2
-6 0 8 3.15065e+08 3.13176e+08 3.14334e+08 0 1;
#X obj 63 129 mknob 25 100 0 127 0 0 -355 \$0-g1mode-rcv Mode -2 -6
0 8 3.15065e+08 3.13176e+08 3.14334e+08 0 1;
#X obj 20 81 cnv 10 120 30 empty empty empty 20 12 0 14 -241291 -66577
0;
#X obj 47 92 mknob 25 100 0 127 0 0 -355 \$0-g1in-rcv InNb:1 -2 -6
0 8 3.15065e+08 3.13176e+08 3.14334e+08 0 1;
#X obj 107 91 bng 10 250 50 0 \$0-g1raz-snd \$0-g1raz-rcv Raz -5 -6
1 8 -258699 -1 -258699;
#X obj 78 86 mknob 25 100 0 127 0 0 -355 \$0-g1notes-rcv notes:7 -2
-6 0 8 3.15065e+08 3.13176e+08 3.14334e+08 0 1;
#X obj 21 87 mknob 25 100 0 127 0 0 -355 \$0-g1thres-rcv seuil -2 -6
0 8 3.15065e+08 3.13176e+08 3.14334e+08 0 1;
#X obj 123 93 tgl 10 0 \$0-g1learn-snd \$0-g1learn-rcv learn -7 14
1 8 -262144 -1 -1 0 1;
#N canvas 759 480 369 296 guts 0;
#X obj 10 258 table Gammestab;
#N canvas 244 187 719 685 g1 0;
#X obj 6 23 inlet;
#X obj 58 9 inlet;
#N canvas 826 555 450 382 l2i 0;
#X obj 161 26 inlet;
#X obj 161 54 unpack f f;
#X obj 161 143 demux;
#X obj 182 230 f;
#X obj 161 122 <<;
#X msg 161 101 1 \$1;
#X obj 191 188 |;
#X obj 121 214 &;
#X floatatom 277 237 5 0 0 0 - - -, f 5;
#X obj 121 190 -;
#X msg 121 169 4095 \$1;
#X obj 107 90 - 1;
#X obj 182 323 outlet;
#X obj 193 279 f;
#X obj 294 25 inlet;
#X obj 294 46 b;
#X connect 0 0 1 0;
#X connect 1 0 5 0;
#X connect 1 1 2 1;
#X connect 2 0 10 0;
#X connect 2 1 6 0;
#X connect 3 0 6 1;
#X connect 3 0 7 1;
#X connect 3 0 13 1;
#X connect 3 0 8 0;
#X connect 3 0 12 0;
#X connect 4 0 2 0;
#X connect 5 0 4 0;
#X connect 6 0 3 0;
#X connect 7 0 3 0;
#X connect 9 0 7 0;
#X connect 10 0 9 0;
#X connect 14 0 15 0;
#X connect 15 0 13 0;
#X restore 6 50 pd l2i;
#X obj 15 132 s Gammes;
#X obj 15 82 pack f f;
#X obj 58 52 t b f;
#X obj 58 32 - 0.5;
#X msg 15 110 0 \$1 \$2;
#X obj 81 132 s Gammestab;
#X obj 6 153 s \$0-g1g-snd;
#X obj 26 387 r \$0-g1g-snd;
#X obj 10 408 f;
#X obj 10 476 +;
#X obj 10 455 >>;
#X obj 113 459 <<;
#X obj 129 394 <<;
#X msg 129 373 1 \$1;
#X obj 129 414 - 1;
#X obj 113 436 &;
#X obj 129 351 -;
#X msg 129 330 12 \$1;
#X obj 10 435 t f f;
#X obj 10 359 t b f;
#X obj 135 306 mod 12;
#X obj 8 314 t f f;
#X obj 10 338 -;
#X obj 10 498 s \$0-g1g-rcv;
#X obj 8 229 speedlim 100;
#X obj 8 209 r \$0-g1trans-snd;
#X obj 8 250 * 12;
#X obj 8 270 i;
#X obj 8 291 change;
#X obj 263 315 gamme 90 40 1 0 1 0 1 0 0 0 0 0 0 0;
#N canvas 495 74 450 382 i2l 0;
#X obj 221 41 inlet;
#X obj 221 243 outlet;
#X obj 221 62 t b f;
#X obj 251 133 f;
#X obj 251 156 & 1;
#X obj 280 133 >> 1;
#X obj 221 111 t f b;
#X obj 221 184 pack f f;
#X obj 145 243 print;
#X msg 167 71 1625;
#X msg 77 215 set \$1 \$2;
#X obj 221 90 for+ 0 11;
#X connect 0 0 2 0;
#X connect 2 0 11 0;
#X connect 2 1 3 1;
#X connect 3 0 4 0;
#X connect 3 0 5 0;
#X connect 4 0 7 1;
#X connect 5 0 3 1;
#X connect 6 0 7 0;
#X connect 6 1 3 0;
#X connect 7 0 1 0;
#X connect 9 0 2 0;
#X connect 11 0 6 0;
#X restore 293 265 pd i2l;
#N canvas 411 303 450 382 l2i 0;
#X obj 161 26 inlet;
#X obj 161 54 unpack f f;
#X obj 161 143 demux;
#X obj 182 230 f;
#X obj 161 122 <<;
#X msg 161 101 1 \$1;
#X obj 191 188 |;
#X obj 121 214 &;
#X floatatom 277 237 5 0 0 0 - - -, f 5;
#X obj 121 190 -;
#X msg 121 169 4095 \$1;
#X obj 107 90 - 1;
#X obj 182 323 outlet;
#X obj 193 279 f;
#X obj 294 25 inlet;
#X obj 337 71 b;
#X msg 334 114 0;
#X connect 0 0 1 0;
#X connect 1 0 5 0;
#X connect 1 1 2 1;
#X connect 2 0 10 0;
#X connect 2 1 6 0;
#X connect 3 0 6 1;
#X connect 3 0 7 1;
#X connect 3 0 13 1;
#X connect 3 0 8 0;
#X connect 3 0 12 0;
#X connect 4 0 2 0;
#X connect 5 0 4 0;
#X connect 6 0 3 0;
#X connect 7 0 3 0;
#X connect 9 0 7 0;
#X connect 10 0 9 0;
#X connect 14 0 3 0;
#X restore 248 456 pd l2i;
#X msg 293 285 set \$1 \$2;
#X obj 293 246 r \$0-g1g-snd;
#X obj 269 191 f;
#X obj 210 262 +;
#X msg 210 285 get 0 \$1;
#X obj 210 212 for+ 0 11;
#X obj 210 233 t f f;
#X obj 264 388 spigot;
#X obj 301 369 == 0;
#X obj 248 409 -;
#X obj 234 367 t f f;
#X msg 248 430 \$1 1;
#X msg 285 430 0;
#X obj 181 187 t b b f;
#X obj 211 478 f;
#X obj 286 169 - 1;
#X obj 179 51 t f b;
#X obj 211 500 s \$0-g1g-rcv;
#X obj 179 141 t f f;
#X obj 181 165 -;
#X obj 179 28 speedlim 100;
#X obj 179 4 r \$0-g1mode-snd;
#X obj 179 71 *;
#X obj 179 96 i;
#X obj 179 117 change;
#X obj 575 4 r \$0-g1notes-snd;
#X obj 431 61 r \$0-g1in-snd;
#X msg 431 195 set \$1;
#X floatatom 444 383 5 0 0 0 - - -, f 5;
#X obj 431 81 * 7.9;
#X obj 431 101 i;
#X obj 431 121 change -1;
#X obj 431 141 + 1;
#X obj 406 269 i;
#X msg 488 225 label \$1;
#X obj 488 203 makesymbol InNb:%s;
#X floatatom 506 96 5 0 0 0 - - -, f 5;
#X obj 488 246 s \$0-g1in-rcv;
#X obj 412 340 spigot;
#X obj 449 244 <;
#X obj 575 43 i;
#X obj 575 63 change -1;
#X obj 575 83 + 1;
#X obj 575 23 * 11.9;
#X obj 575 102 makesymbol notes:%s;
#X msg 575 123 label \$1;
#X obj 575 144 s \$0-g1notes-rcv;
#X msg 637 557 0;
#X obj 643 473 t b b;
#X msg 650 577 1;
#X obj 497 640 s \$0-g1g-rcv;
#X msg 497 621 0;
#X obj 412 360 mod 12;
#X obj 412 381 + 1;
#X obj 412 422 s \$0-g1-rcv;
#X msg 412 402 set \$1 1;
#X obj 546 445 change;
#X obj 546 467 sel 0 1;
#X obj 554 511 del 50;
#X msg 554 489 stop;
#X msg 589 489 1;
#X msg 554 531 0;
#X obj 554 553 f;
#X obj 546 423 > 68;
#X obj 569 403 * 110;
#X obj 546 324 makesymbol %s-fidelenv;
#X msg 546 344 set \$1;
#X obj 569 383 r \$0-g1thres-snd;
#X obj 449 318 m;
#X msg 388 535 color 13 18 22;
#X obj 366 515 sel 0 1;
#X obj 366 576 s \$0-g1thres-rcv;
#X msg 366 554 color 14 22 22;
#X obj 406 242 - 0.5;
#X obj 431 163 makesymbol %s-fidelpitch;
#X obj 449 296 m;
#X obj 467 273 r \$0-g1learn-snd;
#X obj 497 601 r \$0-g1raz-snd;
#X obj 554 574 s \$0-detect;
#X floatatom 358 447 5 0 0 0 - - -, f 5;
#X obj 362 424 print;
#X obj 367 296 moses 20;
#X obj 381 318 moses 100;
#X obj 406 222 iem_r;
#X obj 546 363 iem_r;
#X connect 0 0 2 0;
#X connect 1 0 6 0;
#X connect 2 0 4 0;
#X connect 2 0 9 0;
#X connect 4 0 7 0;
#X connect 5 0 4 0;
#X connect 5 1 4 1;
#X connect 6 0 5 0;
#X connect 7 0 3 0;
#X connect 7 0 8 0;
#X connect 10 0 11 1;
#X connect 11 0 21 0;
#X connect 12 0 26 0;
#X connect 13 0 12 0;
#X connect 14 0 12 1;
#X connect 15 0 17 0;
#X connect 16 0 15 0;
#X connect 17 0 18 1;
#X connect 18 0 14 0;
#X connect 19 0 16 0;
#X connect 19 0 13 1;
#X connect 20 0 19 0;
#X connect 21 0 13 0;
#X connect 21 1 18 0;
#X connect 22 0 11 0;
#X connect 22 1 23 0;
#X connect 23 0 20 0;
#X connect 23 0 14 1;
#X connect 24 0 25 1;
#X connect 24 1 25 0;
#X connect 25 0 22 0;
#X connect 27 0 29 0;
#X connect 28 0 27 0;
#X connect 29 0 30 0;
#X connect 30 0 31 0;
#X connect 31 0 24 0;
#X connect 32 0 45 0;
#X connect 32 1 50 0;
#X connect 32 1 74 0;
#X connect 33 0 35 0;
#X connect 34 0 49 1;
#X connect 35 0 32 0;
#X connect 36 0 33 0;
#X connect 37 0 40 1;
#X connect 37 0 57 1;
#X connect 38 0 39 0;
#X connect 39 0 32 0;
#X connect 40 0 41 0;
#X connect 41 0 38 0;
#X connect 41 1 43 0;
#X connect 42 0 44 1;
#X connect 43 0 42 1;
#X connect 44 0 46 0;
#X connect 45 0 44 0;
#X connect 45 1 42 0;
#X connect 46 0 34 0;
#X connect 47 0 34 1;
#X connect 48 0 49 0;
#X connect 48 1 40 0;
#X connect 48 2 38 1;
#X connect 49 0 52 0;
#X connect 50 0 37 1;
#X connect 51 0 57 0;
#X connect 51 1 37 0;
#X connect 51 1 47 0;
#X connect 53 0 54 1;
#X connect 53 1 54 0;
#X connect 54 0 48 0;
#X connect 55 0 51 0;
#X connect 56 0 55 0;
#X connect 57 0 58 0;
#X connect 58 0 59 0;
#X connect 59 0 53 0;
#X connect 60 0 78 0;
#X connect 61 0 64 0;
#X connect 61 0 71 0;
#X connect 62 0 118 0;
#X connect 64 0 65 0;
#X connect 65 0 66 0;
#X connect 66 0 67 0;
#X connect 67 0 70 0;
#X connect 67 0 100 0;
#X connect 67 0 109 0;
#X connect 68 0 116 0;
#X connect 69 0 72 0;
#X connect 70 0 69 0;
#X connect 73 0 87 0;
#X connect 74 0 110 0;
#X connect 75 0 76 0;
#X connect 76 0 77 0;
#X connect 77 0 79 0;
#X connect 77 0 74 1;
#X connect 78 0 75 0;
#X connect 79 0 80 0;
#X connect 80 0 81 0;
#X connect 86 0 85 0;
#X connect 87 0 88 0;
#X connect 88 0 90 0;
#X connect 88 0 63 0;
#X connect 90 0 89 0;
#X connect 91 0 92 0;
#X connect 92 0 93 0;
#X connect 92 1 94 0;
#X connect 92 1 95 0;
#X connect 93 0 96 0;
#X connect 94 0 93 0;
#X connect 95 0 97 0;
#X connect 96 0 97 0;
#X connect 97 0 103 1;
#X connect 97 0 105 0;
#X connect 97 0 113 0;
#X connect 98 0 91 0;
#X connect 99 0 98 1;
#X connect 100 0 101 0;
#X connect 101 0 119 0;
#X connect 102 0 99 0;
#X connect 103 0 73 1;
#X connect 104 0 106 0;
#X connect 105 0 107 0;
#X connect 105 1 104 0;
#X connect 107 0 106 0;
#X connect 108 0 68 0;
#X connect 109 0 62 0;
#X connect 110 0 103 0;
#X connect 111 0 110 1;
#X connect 112 0 86 0;
#X connect 116 1 117 0;
#X connect 117 0 73 0;
#X connect 118 0 108 0;
#X connect 119 0 98 0;
#X restore 33 151 pd g1;
#N canvas 344 334 450 387 g2 0;
#X obj 119 78 inlet;
#X obj 173 76 inlet;
#N canvas 514 241 450 382 l2i 0;
#X obj 161 26 inlet;
#X obj 161 54 unpack f f;
#X obj 161 143 demux;
#X obj 182 230 f;
#X obj 161 122 <<;
#X msg 161 101 1 \$1;
#X obj 191 188 |;
#X obj 121 214 &;
#X floatatom 277 237 5 0 0 0 - - -, f 5;
#X obj 121 190 -;
#X msg 121 169 4095 \$1;
#X obj 107 90 - 1;
#X obj 182 323 outlet;
#X obj 193 279 f;
#X obj 294 25 inlet;
#X obj 294 46 b;
#X connect 0 0 1 0;
#X connect 1 0 5 0;
#X connect 1 1 2 1;
#X connect 2 0 10 0;
#X connect 2 1 6 0;
#X connect 3 0 6 1;
#X connect 3 0 7 1;
#X connect 3 0 13 1;
#X connect 3 0 8 0;
#X connect 3 0 12 0;
#X connect 4 0 2 0;
#X connect 5 0 4 0;
#X connect 6 0 3 0;
#X connect 7 0 3 0;
#X connect 9 0 7 0;
#X connect 10 0 9 0;
#X connect 14 0 15 0;
#X connect 15 0 13 0;
#X restore 119 147 pd l2i;
#X obj 127 264 s Gammes;
#X obj 128 179 pack f f;
#X obj 173 148 t b f;
#X obj 173 119 - 0.5;
#X obj 195 267 s Gammestab;
#X msg 127 207 1 \$1 \$2;
#X msg 195 242 2 \$1 \$2;
#X obj 36 178 s \$0-g2g-snd;
#X connect 0 0 2 0;
#X connect 1 0 6 0;
#X connect 2 0 4 0;
#X connect 2 0 10 0;
#X connect 4 0 8 0;
#X connect 4 0 9 0;
#X connect 5 0 4 0;
#X connect 5 1 4 1;
#X connect 6 0 5 0;
#X connect 8 0 3 0;
#X connect 9 0 7 0;
#X restore 219 149 pd g2;
#N canvas 495 74 450 382 i2l 0;
#X obj 221 41 inlet;
#X obj 221 209 outlet;
#X obj 221 62 t b f;
#X obj 251 133 f;
#X obj 251 156 & 1;
#X obj 280 133 >> 1;
#X obj 221 111 t f b;
#X obj 221 184 pack f f;
#X obj 145 243 print;
#X msg 167 71 1625;
#X msg 112 209 set \$1 \$2;
#X obj 221 90 for+ 0 11;
#X connect 0 0 2 0;
#X connect 2 0 11 0;
#X connect 2 1 3 1;
#X connect 3 0 4 0;
#X connect 3 0 5 0;
#X connect 4 0 7 1;
#X connect 5 0 3 1;
#X connect 6 0 7 0;
#X connect 6 1 3 0;
#X connect 7 0 1 0;
#X connect 9 0 2 0;
#X connect 11 0 6 0;
#X restore 203 37 pd i2l;
#X obj 203 17 r \$0-g2g-rcv;
#N canvas 495 74 450 382 i2l 0;
#X obj 221 41 inlet;
#X obj 221 243 outlet;
#X obj 221 62 t b f;
#X obj 251 133 f;
#X obj 251 156 & 1;
#X obj 280 133 >> 1;
#X obj 221 111 t f b;
#X obj 221 184 pack f f;
#X obj 145 243 print;
#X msg 167 71 1625;
#X msg 77 215 set \$1 \$2;
#X obj 221 90 for+ 0 11;
#X connect 0 0 2 0;
#X connect 2 0 11 0;
#X connect 2 1 3 1;
#X connect 3 0 4 0;
#X connect 3 0 5 0;
#X connect 4 0 7 1;
#X connect 5 0 3 1;
#X connect 6 0 7 0;
#X connect 6 1 3 0;
#X connect 7 0 1 0;
#X connect 9 0 2 0;
#X connect 11 0 6 0;
#X restore 13 40 pd i2l;
#X obj 59 14 r \$0-g1g-rcv;
#X obj 68 89 s \$0-g1-rcv;
#X obj 223 86 s \$0-g2-rcv;
#X obj 33 109 r \$0-g1-snd;
#X obj 219 107 r \$0-g2-snd;
#X obj 249 128 r \$0-g2f-snd;
#X obj 63 130 r \$0-g1f-snd;
#X obj 8 182 apf \$0 g1g \$0-g1g;
#X obj 8 203 apf \$0 g1f \$0-g1f;
#X obj 213 180 apf \$0 g2g \$0-g2g;
#X obj 213 201 apf \$0 g2f \$0-g2f;
#X msg 42 64 set \$1 \$2;
#X msg 203 59 set \$1 \$2;
#N canvas 495 1192 543 628 test 0;
#X obj 334 307 gamme 90 40 1 0 1 0 1 0 0 0 0 0 0 0;
#N canvas 495 74 450 382 i2l 0;
#X obj 221 41 inlet;
#X obj 221 243 outlet;
#X obj 221 62 t b f;
#X obj 251 133 f;
#X obj 251 156 & 1;
#X obj 280 133 >> 1;
#X obj 221 111 t f b;
#X obj 221 184 pack f f;
#X obj 145 243 print;
#X msg 167 71 1625;
#X msg 77 215 set \$1 \$2;
#X obj 221 90 for+ 0 11;
#X connect 0 0 2 0;
#X connect 2 0 11 0;
#X connect 2 1 3 1;
#X connect 3 0 4 0;
#X connect 3 0 5 0;
#X connect 4 0 7 1;
#X connect 5 0 3 1;
#X connect 6 0 7 0;
#X connect 6 1 3 0;
#X connect 7 0 1 0;
#X connect 9 0 2 0;
#X connect 11 0 6 0;
#X restore 334 257 pd i2l;
#N canvas 411 303 450 382 l2i 0;
#X obj 161 26 inlet;
#X obj 161 54 unpack f f;
#X obj 161 143 demux;
#X obj 182 230 f;
#X obj 161 122 <<;
#X msg 161 101 1 \$1;
#X obj 191 188 |;
#X obj 121 214 &;
#X floatatom 277 237 5 0 0 0 - - -, f 5;
#X obj 121 190 -;
#X msg 121 169 4095 \$1;
#X obj 107 90 - 1;
#X obj 182 323 outlet;
#X obj 193 279 f;
#X obj 294 25 inlet;
#X obj 337 71 b;
#X msg 334 114 0;
#X connect 0 0 1 0;
#X connect 1 0 5 0;
#X connect 1 1 2 1;
#X connect 2 0 10 0;
#X connect 2 1 6 0;
#X connect 3 0 6 1;
#X connect 3 0 7 1;
#X connect 3 0 13 1;
#X connect 3 0 8 0;
#X connect 3 0 12 0;
#X connect 4 0 2 0;
#X connect 5 0 4 0;
#X connect 6 0 3 0;
#X connect 7 0 3 0;
#X connect 9 0 7 0;
#X connect 10 0 9 0;
#X connect 14 0 3 0;
#X restore 319 448 pd l2i;
#X obj 48 265 r \$0-g1g-snd;
#X obj 32 286 f;
#X obj 32 354 +;
#X obj 32 333 >>;
#X obj 135 337 <<;
#X obj 151 272 <<;
#X msg 151 251 1 \$1;
#X obj 151 292 - 1;
#X obj 135 314 &;
#X obj 151 229 -;
#X msg 151 208 12 \$1;
#X obj 32 313 t f f;
#X obj 32 237 t b f;
#X msg 334 277 set \$1 \$2;
#X floatatom 75 28 5 0 100 0 - - -, f 5;
#X obj 157 184 mod 12;
#X obj 30 192 t f f;
#X obj 32 216 -;
#X obj 32 376 s \$0-g1g-rcv;
#X obj 30 107 speedlim 100;
#X obj 334 238 r \$0-g1g-snd;
#X obj 325 187 f;
#X obj 266 258 +;
#X msg 266 281 get 0 \$1;
#X obj 266 208 for+ 0 11;
#X obj 266 229 t f f;
#X obj 335 380 spigot;
#X obj 372 361 == 0;
#X obj 319 401 -;
#X obj 305 359 t f f;
#X msg 319 422 \$1 1;
#X msg 356 422 0;
#X obj 237 183 t b b f;
#X obj 282 470 f;
#X obj 342 165 - 1;
#X obj 235 47 t f b;
#X msg 435 238 get 0 \$1;
#X obj 282 492 s \$0-g1g-rcv;
#X obj 235 137 t f f;
#X obj 237 161 -;
#X obj 235 24 speedlim 100;
#X obj 30 80 r \$0-g1trans-snd;
#X obj 235 0 r \$0-g1mode-snd;
#X obj 235 67 *;
#X obj 30 128 * 12;
#X obj 235 92 i;
#X obj 235 113 change;
#X obj 30 148 i;
#X obj 30 169 change;
#X connect 0 0 32 0;
#X connect 0 1 37 0;
#X connect 1 0 16 0;
#X connect 2 0 36 1;
#X connect 3 0 4 1;
#X connect 4 0 14 0;
#X connect 5 0 21 0;
#X connect 6 0 5 0;
#X connect 7 0 5 1;
#X connect 8 0 10 0;
#X connect 9 0 8 0;
#X connect 10 0 11 1;
#X connect 11 0 7 0;
#X connect 12 0 9 0;
#X connect 12 0 6 1;
#X connect 13 0 12 0;
#X connect 14 0 6 0;
#X connect 14 1 11 0;
#X connect 15 0 4 0;
#X connect 15 1 18 0;
#X connect 16 0 0 0;
#X connect 18 0 13 0;
#X connect 18 0 7 1;
#X connect 19 0 20 1;
#X connect 19 1 20 0;
#X connect 20 0 15 0;
#X connect 22 0 47 0;
#X connect 23 0 1 0;
#X connect 24 0 27 1;
#X connect 24 0 46 1;
#X connect 25 0 26 0;
#X connect 26 0 0 0;
#X connect 27 0 28 0;
#X connect 28 0 25 0;
#X connect 28 1 30 0;
#X connect 29 0 31 1;
#X connect 30 0 29 1;
#X connect 31 0 33 0;
#X connect 32 0 31 0;
#X connect 32 1 29 0;
#X connect 33 0 2 0;
#X connect 34 0 2 1;
#X connect 35 0 36 0;
#X connect 35 1 27 0;
#X connect 35 2 25 1;
#X connect 36 0 40 0;
#X connect 37 0 24 1;
#X connect 38 0 46 0;
#X connect 38 1 24 0;
#X connect 38 1 34 0;
#X connect 39 0 0 0;
#X connect 41 0 42 1;
#X connect 41 1 42 0;
#X connect 42 0 35 0;
#X connect 43 0 38 0;
#X connect 46 0 48 0;
#X connect 47 0 50 0;
#X connect 48 0 49 0;
#X connect 49 0 41 0;
#X connect 50 0 51 0;
#X connect 51 0 19 0;
#X restore 310 12 pd test;
#X msg 81 41 setb \$1;
#X connect 3 0 18 0;
#X connect 3 0 2 0;
#X connect 4 0 3 0;
#X connect 5 0 1 0;
#X connect 6 0 20 0;
#X connect 9 0 1 0;
#X connect 10 0 2 0;
#X connect 11 0 2 1;
#X connect 12 0 1 1;
#X connect 17 0 7 0;
#X connect 18 0 8 0;
#X connect 20 0 7 0;
#X restore 29 165 pd guts;
#X obj 150 125 bng 15 250 50 0 empty empty empty 17 7 0 10 -262144
-1 -1;
#X obj 164 163 init 1;
#X connect 2 0 6 0;
#X connect 3 0 8 0;
#X connect 6 2 0 0;
#X connect 8 2 1 0;
#X connect 9 0 10 0;
#X connect 20 0 21 0;
#X connect 21 0 9 0;
#X coords 0 -1 1 1 244 150 1 10 10;
#X restore 4 154 pd gammes;
#X obj 192 108 GamSeq \$0;
#X obj 204 86 l KEPgamme \$0;
#X obj 30 314 GAMMEKB GAMME1 1;
#X obj 134 314 GAMMEKB GAMME2 2;
#X symbolatom 192 134 0 0 0 0 - - -;
#X connect 3 0 7 0;
#X restore 184 121 pd SONG;
#N canvas 489 75 947 553 USB 0;
#X obj 23 154 KEMfruit 1 KEG1 20 KE;
#X obj 28 254 KEMfruit 1 KEG6 25 KE;
#X obj 22 191 KEMfruit 1 KEG3 22 KE;
#X obj 26 233 KEMfruit 1 KEG5 24 KE;
#X obj 24 171 KEMfruit 1 KEG2 21 KE;
#X obj 25 211 KEMfruit 1 KEG4 23 KE;
#X obj 16 10 pied/pied 0 12346;
#X obj 218 48 Hurface;
#X obj 92 93 KEPfruit 1 Hur2A 50 HURFMUSIC-A;
#X obj 92 113 KEPfruit 1 Hur2B 51 HURFMUSIC-B;
#X obj 191 155 l KEMfruit 1 Pingnip 16 KE;
#X obj 190 173 l KEMfruit 1 Fluvita 17 KE;
#X obj 192 193 l KEMfruit 1 Espagnole 18 KE;
#N canvas 190 1145 996 554 XR18>midi 0;
#X floatatom 283 51 3 0 0 0 - - -, f 3;
#X floatatom 381 80 3 0 0 0 - - -, f 3;
#X obj 266 22 ctlin 28 1;
#X obj 368 98 ctlout 0 1;
#X floatatom 330 83 5 0 0 0 - - -, f 5;
#X obj 369 58 ctlin 14 1;
#X obj 58 241 XR18slider-midi 2 1 3 13 3;
#X obj 11 205 XR18slider-midi 3 1 4 13 4;
#X obj 32 205 XR18slider-midi 4 1 5 13 5;
#X obj 53 205 XR18slider-midi 5 1 6 13 6;
#X obj 74 205 XR18slider-midi 6 1 7 13 7;
#X obj 95 205 XR18slider-midi 7 1 8 13 8;
#X obj 116 205 XR18slider-midi 8 1 9 12 1;
#X obj 137 205 XR18slider-midi 9 1 10 12 2;
#X obj 158 205 XR18slider-midi 10 1 11 12 3;
#X obj 179 205 XR18slider-midi 11 1 12 12 4;
#X obj 200 205 XR18slider-midi 12 1 13 12 5;
#X obj 221 205 XR18slider-midi 13 1 14 12 6;
#X obj 242 205 XR18slider-midi 14 1 15 12 7;
#X obj 263 205 XR18slider-midi 15 1 16 12 8;
#X obj 36 140 XR18slider-midi 1 1 2 1 1;
#X obj 19 75 XR18slider-midi 0 1 1 0 1;
#X text 249 490 updated for Pd version 0.34;
#X msg 34 364 240 \, 45 \, 93 \, 3 \, 65 \, 1 \, 2 \, 3 \, 4 \, 247
;
#X text 27 325 You can format your own SYSEX messages as shown:;
#X text 23 439 and receive SYSEX via:;
#X msg 486 302 F0 0 20 32 32 TEXT F7;
#X msg 521 344 240 0 32 50 50 TEXT 247;
#X obj 34 394 midiout;
#X obj 237 471 print;
#X obj 470 488 print;
#X msg 122 402 1;
#X obj 245 433 sysexin 240 0 32 50 50 TEXT 247;
#X obj 754 17 tgl 15 0 XtouchXR18on-snd XtouchXR18on-rcv empty 17 7
0 10 -258699 -258699 -233017 0 1;
#X obj 514 83 sel 0 1;
#X msg 514 110 color 13 13 10;
#X msg 534 132 color 16 16 0;
#X obj 523 49 tgl 15 0 empty empty empty 17 7 0 10 -262144 -1 -1 0
1;
#X obj 502 25 r XtouchXR18on-snd;
#X obj 514 156 s XtouchXR18on-rcv;
#X obj 786 352 Xtouch-TrancheXR18 1 0;
#X connect 2 0 0 0;
#X connect 4 0 3 0;
#X connect 5 0 1 0;
#X connect 23 0 28 0;
#X connect 26 0 28 0;
#X connect 27 0 28 0;
#X connect 31 0 28 1;
#X connect 34 0 35 0;
#X connect 34 1 36 0;
#X connect 35 0 39 0;
#X connect 36 0 39 0;
#X connect 37 0 34 0;
#X connect 38 0 34 0;
#X restore 303 39 pd XR18>midi;
#X obj 415 37 Xtouch;
#X obj 340 289 XtouchVCA;
#X restore 184 93 pd USB;
#X obj 44 61 bng 20 250 50 0 show-INSTRUMENTS empty INSTRUMENTS 22
10 0 10 -257985 -1 -1;
#N canvas 4 75 450 300 show 0;
#X obj 58 123 r show-INSTRUMENTS;
#X msg 58 146 \; pd-KEP_INSTRUMENTS.pd vis 1;
#X obj 54 37 r show-USB;
#X msg 54 60 \; pd-USB vis 1;
#X obj 163 34 r show-SONG;
#X msg 163 57 \; pd-SONG vis 1;
#X obj 257 35 r show-CACHES;
#X msg 257 58 \; pd-CACHEguis vis 1 \; pd-CACHEnoguis vis 1;
#X obj 277 130 r show-MASTERS;
#X msg 277 153 \; pd-MASTERS vis 1;
#X connect 0 0 1 0;
#X connect 2 0 3 0;
#X connect 4 0 5 0;
#X connect 6 0 7 0;
#X connect 8 0 9 0;
#X restore 196 36 pd show;
#X obj 44 83 bng 20 250 50 0 show-USB empty USB 22 10 0 10 -4034 -1
-1;
#X obj 44 105 bng 20 250 50 0 show-SONG empty SONG 22 10 0 10 -159808
-1 -1;
#X obj 44 127 bng 20 250 50 0 show-CACHES empty CACHES 22 10 0 10 -4032
-1 -1;
#X obj 44 149 bng 20 250 50 0 show-MASTERS empty MASTERS 22 10 0 10
-258113 -1 -1;
#N canvas 52 229 473 401 MAINDIR 0;
#X obj 128 55 loadbang;
#X obj 128 77 del 500;
#X symbolatom 128 121 0 0 0 0 - - -;
#X obj 97 71 bng 15 250 50 0 empty empty empty 17 7 0 10 -262144 -1
-1;
#X obj 128 99 getdir 2;
#X obj 129 182 r KEP_MAINDIR;
#X msg 129 204 symbol \$1/KEPSETTINGS;
#X obj 128 143 s KEP_MAINDIR;
#X obj 129 228 s KEP_SETTINGSDIR;
#X obj 128 261 r KEP_MAINDIR;
#X msg 128 283 symbol \$1/DATAS;
#X obj 128 307 s KEP_DATASDIR;
#X connect 0 0 1 0;
#X connect 1 0 4 0;
#X connect 2 0 7 0;
#X connect 3 0 4 0;
#X connect 4 0 2 0;
#X connect 5 0 6 0;
#X connect 6 0 8 0;
#X connect 9 0 10 0;
#X connect 10 0 11 0;
#X restore 405 54 pd MAINDIR;
#X coords 0 -1 1 1 100 170 1 40 40;
