#N canvas 569 278 604 490 10;
#X obj 176 235 metro 2000;
#X obj 177 172 t f f;
#X msg 268 246 disconnect;
#X obj 268 224 sel 0;
#X obj 154 354 == 0;
#X obj 211 203 t b f;
#X obj 50 184 spigot;
#X obj 50 160 r \$1-toserver;
#X obj 50 250 list prepend send;
#X obj 50 228 list prepend \$2;
#X obj 160 401 route _all_ \$2;
#X obj 160 428 s \$1-fromserver;
#X obj 355 153 r \$1-fromserver;
#X obj 355 176 route echo disconnect;
#X obj 355 236 s \$1-toserver;
#X obj 114 114 cnv 15 70 15 empty \$0-crcv empty 20 12 0 14 -24198
-24198 0;
#X obj 102 114 tgl 15 0 empty empty empty 17 7 0 10 -262144 -1 -1 1
1;
#X obj 344 380 route 0 1;
#X msg 374 400 color 16 16 16;
#X obj 354 452 s \$0-crcv;
#X msg 344 422 color 10 10 10;
#X obj 280 416 loadbang;
#X msg 292 174 0;
#X obj 102 64 inlet;
#X obj 176 203 && 1;
#X obj 50 274 list trim;
#X obj 355 202 list prepend echo;
#X text 101 44 PdClient \$0 Name;
#X obj 176 324 netsend;
#X obj 214 60 loadbang;
#X msg 214 83 1;
#X msg 248 314 disconnect \, connect 192.168.0.10 424242;
#X obj 322 105 symbol \$3;
#X obj 176 257 symbol \$3;
#X msg 176 288 disconnect \, connect \$1 424242;
#X connect 0 0 33 0;
#X connect 1 0 3 0;
#X connect 1 1 24 0;
#X connect 2 0 28 0;
#X connect 3 0 2 0;
#X connect 4 0 5 0;
#X connect 5 0 24 0;
#X connect 5 1 24 1;
#X connect 6 0 9 0;
#X connect 7 0 6 0;
#X connect 8 0 25 0;
#X connect 9 0 8 0;
#X connect 10 0 11 0;
#X connect 10 1 11 0;
#X connect 12 0 13 0;
#X connect 13 0 26 0;
#X connect 16 0 1 0;
#X connect 17 0 20 0;
#X connect 17 1 18 0;
#X connect 18 0 19 0;
#X connect 20 0 19 0;
#X connect 21 0 20 0;
#X connect 22 0 16 0;
#X connect 23 0 16 0;
#X connect 24 0 0 0;
#X connect 25 0 28 0;
#X connect 26 0 14 0;
#X connect 28 0 6 1;
#X connect 28 0 17 0;
#X connect 28 0 4 0;
#X connect 28 1 10 0;
#X connect 29 0 30 0;
#X connect 30 0 16 0;
#X connect 33 0 34 0;
#X connect 34 0 28 0;
#X coords 0 -1 1 1 85 30 1 100 100;
