#N canvas 742 310 486 350 10;
#X obj 6 5 cnv 15 51 124 empty empty REC-16 2 10 0 14 -260097 -1 0
;
#X obj 21 59 bng 20 250 50 0 load-REC16-snd load-REC16-rcv load 3 10
0 10 -1 -203904 -257985;
#X obj 24 22 tgl 30 0 REC16-snd REC16-rcv REC 6 15 0 10 -250685 -250685
-241291 0 1;
#N canvas 1725 367 338 278 color_rec 0;
#X obj 23 100 sel 0 1;
#X obj 23 174 s REC16-rcv;
#X msg 46 125 color 13 13 15;
#X msg 23 150 color 19 19 15;
#X obj 122 28 metro 400;
#X obj 23 44 t f f;
#X obj 122 51 i;
#X obj 151 51 + 1;
#X obj 122 72 mod 2;
#X obj 157 118 sel 0 1;
#X obj 157 192 s REC16-rcv;
#X msg 157 168 color 9 9 13;
#X msg 180 143 color 13 13 15;
#X obj 23 17 inlet;
#X connect 0 0 3 0;
#X connect 0 1 2 0;
#X connect 2 0 1 0;
#X connect 3 0 1 0;
#X connect 4 0 6 0;
#X connect 5 0 0 0;
#X connect 5 1 4 0;
#X connect 6 0 7 0;
#X connect 6 0 8 0;
#X connect 7 0 6 1;
#X connect 8 0 9 0;
#X connect 9 0 11 0;
#X connect 9 1 12 0;
#X connect 11 0 10 0;
#X connect 12 0 10 0;
#X connect 13 0 5 0;
#X restore 376 297 pd color_rec;
#X msg 353 224 open \$1;
#X msg 330 246 start;
#X msg 280 149 stop;
#X obj 330 134 savepanel;
#X obj 307 52 sel 0 1;
#N canvas 633 346 505 357 writesf~ 0;
#X obj 18 114 inlet;
#X obj 62 113 catch~ REC-1;
#X obj 81 134 catch~ REC-2;
#X obj 96 156 catch~ REC-3;
#X obj 116 176 catch~ REC-4;
#X obj 139 197 catch~ REC-5;
#X obj 158 218 catch~ REC-6;
#X obj 173 240 catch~ REC-7;
#X obj 193 260 catch~ REC-8;
#X obj 239 111 catch~ REC-9;
#X obj 259 132 catch~ REC-10;
#X obj 274 154 catch~ REC-11;
#X obj 294 174 catch~ REC-12;
#X obj 317 195 catch~ REC-13;
#X obj 336 216 catch~ REC-14;
#X obj 351 238 catch~ REC-15;
#X obj 371 258 catch~ REC-16;
#X obj 61 286 writesf~ 16, f 48;
#X obj 104 51 adc~ 1 2 3 4 5 6 7 8 9 10 11;
#X connect 0 0 17 0;
#X connect 12 0 17 11;
#X connect 13 0 17 12;
#X connect 14 0 17 13;
#X connect 15 0 17 14;
#X connect 16 0 17 15;
#X connect 18 0 17 0;
#X connect 18 1 17 1;
#X connect 18 2 17 2;
#X connect 18 3 17 3;
#X connect 18 4 17 4;
#X connect 18 5 17 5;
#X connect 18 6 17 6;
#X connect 18 7 17 7;
#X connect 18 8 17 8;
#X connect 18 9 17 9;
#X connect 18 10 17 10;
#X restore 330 268 pd writesf~;
#N canvas 1780 620 493 376 readsf~ 0;
#X obj 21 17 inlet;
#X obj 21 38 readsf~ 16, f 40;
#X obj 34 299 OUT 1;
#X obj 121 302 OUT 2;
#X obj 298 299 +~;
#X obj 35 271 mull~ 0 10;
#X obj 121 271 mull~ 0 10;
#X obj 20 61 /~ 1.41421;
#X obj 38 81 /~ 1.41421;
#X obj 55 101 /~ 1.41421;
#X obj 72 121 /~ 1.41421;
#X obj 298 70 outlet;
#X obj 86 141 /~ 1.41421;
#X obj 104 161 /~ 1.41421;
#X obj 116 181 /~ 1.41421;
#X obj 138 201 /~ 1.41421;
#X obj 313 254 r vol-readsf-snd;
#X connect 0 0 1 0;
#X connect 1 0 7 0;
#X connect 1 1 8 0;
#X connect 1 2 9 0;
#X connect 1 3 10 0;
#X connect 1 4 12 0;
#X connect 1 5 13 0;
#X connect 1 6 14 0;
#X connect 1 7 15 0;
#X connect 1 8 5 0;
#X connect 1 9 6 0;
#X connect 1 10 5 0;
#X connect 1 11 6 0;
#X connect 1 12 5 0;
#X connect 1 13 6 0;
#X connect 1 14 5 0;
#X connect 1 15 6 0;
#X connect 1 16 11 0;
#X connect 5 0 2 0;
#X connect 6 0 3 0;
#X connect 7 0 5 0;
#X connect 7 0 6 0;
#X connect 8 0 5 0;
#X connect 8 0 6 0;
#X connect 9 0 5 0;
#X connect 9 0 6 0;
#X connect 10 0 6 0;
#X connect 10 0 5 0;
#X connect 12 0 5 0;
#X connect 12 0 6 0;
#X connect 13 0 5 0;
#X connect 13 0 6 0;
#X connect 14 0 5 0;
#X connect 14 0 6 0;
#X connect 15 0 5 0;
#X connect 15 0 6 0;
#X connect 16 0 6 1;
#X connect 16 0 5 1;
#X restore 42 275 pd readsf~;
#X msg 51 248 open \$1;
#X msg 10 182 0;
#X msg 42 204 1;
#X obj 137 140 openpanel;
#X obj 8 41 vsl 8 60 0 1 0 0 vol-readsf-snd vol-readsf-rcv empty 0
-9 0 10 -4032 -1 -1 2300 1;
#X symbolatom 149 199 10 0 0 0 - - -;
#X obj 149 219 split_path;
#X symbolatom 5 109 0 0 0 0 - - -;
#N canvas 2516 316 338 278 color_play 0;
#X obj 23 100 sel 0 1;
#X obj 122 35 metro 400;
#X obj 23 44 t f f;
#X obj 122 58 i;
#X obj 151 58 + 1;
#X obj 122 79 mod 2;
#X obj 157 118 sel 0 1;
#X msg 157 168 color 9 9 13;
#X obj 24 174 s playREC16-rcv;
#X obj 157 192 s playREC16-rcv;
#X msg 46 125 color 16 16 15;
#X msg 180 143 color 16 16 15;
#X msg 23 150 color 22 229 15;
#X obj 23 11 r playREC16-snd;
#X connect 0 0 12 0;
#X connect 0 1 10 0;
#X connect 1 0 3 0;
#X connect 2 0 0 0;
#X connect 2 1 1 0;
#X connect 3 0 4 0;
#X connect 3 0 5 0;
#X connect 4 0 3 1;
#X connect 5 0 6 0;
#X connect 6 0 7 0;
#X connect 6 1 11 0;
#X connect 7 0 9 0;
#X connect 10 0 8 0;
#X connect 11 0 9 0;
#X connect 12 0 8 0;
#X connect 13 0 2 0;
#X restore 323 19 pd color_play;
#X obj 21 82 tgl 20 0 playREC16-snd playREC16-rcv play 3 10 0 10 -1
-250685 -241291 0 1;
#X obj 19 133 sel 0 1;
#X obj 42 182 t b b;
#X msg 93 86 0;
#X obj 407 181 print;
#X obj 330 182 t b s b;
#X msg 376 203 1;
#X obj 280 96 t b b;
#X msg 294 124 0;
#X obj 137 162 t b s;
#X msg 94 111 1, f 2;
#X obj 65 29 apf MASTERS vol-readsf vol-readsf 2;
#X obj 137 119 makesymbol %s/DATAS/REC;
#X obj 330 113 makesymbol %s/DATAS/REC;
#X obj 137 79 getdir 3;
#X obj 330 73 getdir 3;
#X connect 1 0 34 0;
#X connect 2 0 8 0;
#X connect 4 0 9 0;
#X connect 5 0 9 0;
#X connect 6 0 9 0;
#X connect 7 0 24 0;
#X connect 7 0 25 0;
#X connect 8 0 27 0;
#X connect 8 1 35 0;
#X connect 10 0 23 0;
#X connect 11 0 10 0;
#X connect 12 0 10 0;
#X connect 13 0 10 0;
#X connect 14 0 29 0;
#X connect 16 0 11 0;
#X connect 16 0 17 0;
#X connect 17 1 18 0;
#X connect 20 0 21 0;
#X connect 21 0 12 0;
#X connect 21 1 22 0;
#X connect 22 0 13 0;
#X connect 22 1 16 0;
#X connect 23 0 20 0;
#X connect 25 0 5 0;
#X connect 25 1 4 0;
#X connect 25 1 16 0;
#X connect 25 2 26 0;
#X connect 26 0 3 0;
#X connect 27 0 6 0;
#X connect 27 1 28 0;
#X connect 28 0 3 0;
#X connect 29 0 30 0;
#X connect 29 1 16 0;
#X connect 30 0 20 0;
#X connect 32 0 14 0;
#X connect 33 0 7 0;
#X connect 34 0 32 0;
#X connect 35 0 33 0;
#X coords 0 -1 1 1 52 124 1 5 5;
