#N canvas 534 219 721 400 10;
#N canvas 445 369 532 408 test 1;
#X obj 128 105 pianoroll pianoroll1 240 120 0 24 24 16 0 0 0;
#X msg 120 74 pitch 3 \$1;
#X floatatom 130 30 5 0 0 0 - - -;
#X obj 194 6 loadbang;
#X obj 192 40 del 1000;
#X msg 193 64 5;
#X obj 270 45 metro 500;
#X obj 266 72 random 10;
#X obj 279 19 tgl 15 0 empty empty empty 17 7 0 10 -262144 -1 -1 0
1;
#X connect 1 0 0 0;
#X connect 2 0 1 0;
#X connect 4 0 5 0;
#X connect 5 0 2 0;
#X connect 6 0 7 0;
#X connect 7 0 2 0;
#X connect 8 0 6 0;
#X restore 180 108 pd test;
#X text 165 185 Faut voir.;
#X obj 344 159 pianoroll pianoroll1 240 120 0 24 24 16 0 0 0;
#X msg 336 128 pitch 3 \$1;
#X floatatom 346 84 5 0 0 0 - - -;
#X obj 405 70 loadbang;
#X obj 408 94 del 1000;
#X msg 409 118 5;
#X obj 499 48 metro 500;
#X obj 495 75 random 10;
#X obj 508 22 tgl 15 0 empty empty empty 17 7 0 10 -262144 -1 -1 0
1;
#X connect 3 0 2 0;
#X connect 4 0 3 0;
#X connect 5 0 6 0;
#X connect 6 0 7 0;
#X connect 7 0 4 0;
#X connect 8 0 9 0;
#X connect 9 0 4 0;
#X connect 10 0 8 0;
