#N canvas 210 204 834 561 10;
#X msg 398 467 c \$1 c \$2;
#X obj 17 5 fruit/receive \$2;
#X obj 198 524 fruit/send2 \$2;
#X msg 398 443 12 \$1;
#N canvas 332 322 594 292 bin------------------- 0;
#X obj 31 48 inlet;
#X obj 31 117 +;
#X obj 57 115 t b f;
#X obj 31 81 * 128;
#X obj 96 48 inlet;
#X obj 96 117 +;
#X obj 122 115 t b f;
#X obj 162 49 inlet;
#X obj 162 118 +;
#X obj 188 116 t b f;
#X obj 227 49 inlet;
#X obj 227 118 +;
#X obj 253 116 t b f;
#X obj 294 52 inlet;
#X obj 294 121 +;
#X obj 320 119 t b f;
#X obj 359 52 inlet;
#X obj 359 121 +;
#X obj 385 119 t b f;
#X obj 425 53 inlet;
#X obj 425 122 +;
#X obj 451 120 t b f;
#X obj 490 53 inlet;
#X obj 96 81 * 64;
#X obj 162 82 * 32;
#X obj 227 82 * 16;
#X obj 294 85 * 8;
#X obj 359 85 * 4;
#X obj 425 86 * 2;
#X obj 490 86 * 1;
#X obj 31 191 outlet;
#X connect 0 0 3 0;
#X connect 1 0 30 0;
#X connect 2 0 1 0;
#X connect 2 1 1 1;
#X connect 3 0 1 0;
#X connect 4 0 23 0;
#X connect 5 0 2 0;
#X connect 6 0 5 0;
#X connect 6 1 5 1;
#X connect 7 0 24 0;
#X connect 8 0 6 0;
#X connect 9 0 8 0;
#X connect 9 1 8 1;
#X connect 10 0 25 0;
#X connect 11 0 9 0;
#X connect 12 0 11 0;
#X connect 12 1 11 1;
#X connect 13 0 26 0;
#X connect 14 0 12 0;
#X connect 15 0 14 0;
#X connect 15 1 14 1;
#X connect 16 0 27 0;
#X connect 17 0 15 0;
#X connect 18 0 17 0;
#X connect 18 1 17 1;
#X connect 19 0 28 0;
#X connect 20 0 18 0;
#X connect 21 0 20 0;
#X connect 21 1 20 1;
#X connect 22 0 29 0;
#X connect 23 0 5 0;
#X connect 24 0 8 0;
#X connect 25 0 11 0;
#X connect 26 0 14 0;
#X connect 27 0 17 0;
#X connect 28 0 20 0;
#X connect 29 0 21 0;
#X restore 398 371 pd bin-------------------;
#N canvas 381 304 696 562 numeric 0;
#X obj 183 14 inlet;
#X obj 245 392 outlet;
#X obj 183 117 unwonk f;
#X obj 272 236 l;
#X obj 183 168 moses 100;
#X obj 245 191 - 100;
#X obj 245 214 t f b;
#X obj 272 259 unwonk f f;
#X obj 272 282 * 256;
#X obj 272 305 +;
#X obj 245 363 pack f f;
#X obj 183 53 route list;
#X obj 245 168 moses 150;
#X obj 274 36 outlet;
#X obj 122 460 outlet;
#X obj 60 238 unwonk f;
#X obj 149 379 l;
#X obj 122 357 t f b;
#X obj 122 435 pack f f;
#X obj 60 311 moses 1;
#X obj 149 402 unwonk f;
#X obj 272 327 / 16383;
#X obj 122 311 moses 20;
#X obj 122 334 - 0;
#X floatatom 183 236 5 0 0 0 - - -, f 5;
#X obj 511 138 print;
#X obj 350 319 list;
#X connect 0 0 11 0;
#X connect 2 0 4 0;
#X connect 2 1 3 1;
#X connect 3 0 7 0;
#X connect 4 1 12 0;
#X connect 5 0 6 0;
#X connect 5 0 24 0;
#X connect 6 0 10 0;
#X connect 6 1 3 0;
#X connect 7 0 8 0;
#X connect 7 1 9 1;
#X connect 7 2 26 0;
#X connect 8 0 9 0;
#X connect 9 0 21 0;
#X connect 10 0 1 0;
#X connect 11 0 15 0;
#X connect 11 0 2 0;
#X connect 11 1 13 0;
#X connect 12 0 5 0;
#X connect 15 0 19 0;
#X connect 15 1 16 1;
#X connect 16 0 20 0;
#X connect 17 0 18 0;
#X connect 17 1 16 0;
#X connect 18 0 14 0;
#X connect 19 1 22 0;
#X connect 20 0 18 1;
#X connect 20 1 15 0;
#X connect 21 0 10 1;
#X connect 22 0 23 0;
#X connect 23 0 17 0;
#X connect 26 0 2 0;
#X restore 17 30 pd numeric;
#N canvas 325 75 963 628 switches 0;
#N canvas 4 353 434 510 bin 0;
#X obj 59 -1764 & 1;
#X obj 59 -1743 != 0;
#X obj 98 -1763 & 2;
#X obj 134 -1762 & 4;
#X obj 173 -1761 & 8;
#X obj 208 -1761 & 16;
#X obj 247 -1760 & 32;
#X obj 59 -1722 != 1;
#X obj 97 -1742 != 0;
#X obj 97 -1721 != 1;
#X obj 134 -1740 != 0;
#X obj 134 -1719 != 1;
#X obj 172 -1739 != 0;
#X obj 172 -1718 != 1;
#X obj 210 -1739 != 0;
#X obj 210 -1718 != 1;
#X obj 248 -1738 != 0;
#X obj 248 -1717 != 1;
#X obj 45 -1543 tgl 15 0 empty empty empty 17 7 0 10 -262144 -1 -1
0 1;
#X obj 230 -1536 tgl 15 0 empty empty empty 17 7 0 10 -262144 -1 -1
0 1;
#X obj 194 -1536 tgl 15 0 empty empty empty 17 7 0 10 -262144 -1 -1
0 1;
#X obj 150 -1541 tgl 15 0 empty empty empty 17 7 0 10 -262144 -1 -1
0 1;
#X obj 114 -1541 tgl 15 0 empty empty empty 17 7 0 10 -262144 -1 -1
0 1;
#X obj 80 -1543 tgl 15 0 empty empty empty 17 7 0 10 -262144 -1 -1
0 1;
#X obj 59 -1681 change;
#X obj 97 -1676 change;
#X obj 140 -1677 change;
#X obj 171 -1651 change;
#X obj 208 -1676 change;
#X obj 249 -1669 change;
#X obj 170 -1844 inlet;
#X msg 55 -1642 0 \$1;
#X msg 104 -1618 1 \$1;
#X msg 145 -1598 2 \$1;
#X msg 168 -1623 3 \$1;
#X msg 220 -1619 4 \$1;
#X msg 263 -1615 5 \$1;
#X obj 294 -1733 != 0;
#X obj 294 -1712 != 1;
#X obj 332 -1732 != 0;
#X obj 332 -1711 != 1;
#X obj 292 -1670 change;
#X obj 338 -1660 change;
#X msg 304 -1613 6 \$1;
#X msg 347 -1609 7 \$1;
#X obj 307 -1543 tgl 15 0 empty empty empty 17 7 0 10 -262144 -1 -1
0 1;
#X obj 271 -1543 tgl 15 0 empty empty empty 17 7 0 10 -262144 -1 -1
0 1;
#X obj 160 -1492 outlet;
#X obj 292 -1755 & 64;
#X obj 331 -1754 & 128;
#X connect 0 0 1 0;
#X connect 1 0 7 0;
#X connect 2 0 8 0;
#X connect 3 0 10 0;
#X connect 4 0 12 0;
#X connect 5 0 14 0;
#X connect 6 0 16 0;
#X connect 7 0 24 0;
#X connect 8 0 9 0;
#X connect 9 0 25 0;
#X connect 10 0 11 0;
#X connect 11 0 26 0;
#X connect 12 0 13 0;
#X connect 13 0 27 0;
#X connect 14 0 15 0;
#X connect 15 0 28 0;
#X connect 16 0 17 0;
#X connect 17 0 29 0;
#X connect 24 0 31 0;
#X connect 24 0 18 0;
#X connect 25 0 32 0;
#X connect 25 0 23 0;
#X connect 26 0 33 0;
#X connect 26 0 22 0;
#X connect 27 0 34 0;
#X connect 27 0 21 0;
#X connect 28 0 35 0;
#X connect 28 0 20 0;
#X connect 29 0 36 0;
#X connect 29 0 19 0;
#X connect 30 0 0 0;
#X connect 30 0 2 0;
#X connect 30 0 3 0;
#X connect 30 0 4 0;
#X connect 30 0 5 0;
#X connect 30 0 6 0;
#X connect 30 0 48 0;
#X connect 30 0 49 0;
#X connect 31 0 47 0;
#X connect 32 0 47 0;
#X connect 33 0 47 0;
#X connect 34 0 47 0;
#X connect 35 0 47 0;
#X connect 36 0 47 0;
#X connect 37 0 38 0;
#X connect 38 0 41 0;
#X connect 39 0 40 0;
#X connect 40 0 42 0;
#X connect 41 0 43 0;
#X connect 41 0 46 0;
#X connect 42 0 44 0;
#X connect 42 0 45 0;
#X connect 43 0 47 0;
#X connect 44 0 47 0;
#X connect 48 0 37 0;
#X connect 49 0 39 0;
#X restore 150 111 pd bin;
#N canvas 1 1225 434 510 bin 0;
#X obj 59 -1764 & 1;
#X obj 59 -1743 != 0;
#X obj 98 -1763 & 2;
#X obj 134 -1762 & 4;
#X obj 173 -1761 & 8;
#X obj 208 -1761 & 16;
#X obj 247 -1760 & 32;
#X obj 59 -1722 != 1;
#X obj 97 -1742 != 0;
#X obj 97 -1721 != 1;
#X obj 134 -1740 != 0;
#X obj 134 -1719 != 1;
#X obj 172 -1739 != 0;
#X obj 172 -1718 != 1;
#X obj 210 -1739 != 0;
#X obj 210 -1718 != 1;
#X obj 248 -1738 != 0;
#X obj 248 -1717 != 1;
#X obj 45 -1543 tgl 15 0 empty empty empty 17 7 0 10 -262144 -1 -1
0 1;
#X obj 230 -1536 tgl 15 0 empty empty empty 17 7 0 10 -262144 -1 -1
0 1;
#X obj 194 -1536 tgl 15 0 empty empty empty 17 7 0 10 -262144 -1 -1
0 1;
#X obj 150 -1541 tgl 15 0 empty empty empty 17 7 0 10 -262144 -1 -1
0 1;
#X obj 114 -1541 tgl 15 0 empty empty empty 17 7 0 10 -262144 -1 -1
0 1;
#X obj 80 -1543 tgl 15 0 empty empty empty 17 7 0 10 -262144 -1 -1
0 1;
#X obj 59 -1681 change;
#X obj 97 -1676 change;
#X obj 140 -1677 change;
#X obj 171 -1651 change;
#X obj 208 -1676 change;
#X obj 249 -1669 change;
#X obj 170 -1844 inlet;
#X msg 55 -1642 0 \$1;
#X msg 104 -1618 1 \$1;
#X msg 145 -1598 2 \$1;
#X msg 168 -1623 3 \$1;
#X msg 220 -1619 4 \$1;
#X msg 263 -1615 5 \$1;
#X obj 294 -1733 != 0;
#X obj 294 -1712 != 1;
#X obj 332 -1732 != 0;
#X obj 332 -1711 != 1;
#X obj 292 -1670 change;
#X obj 338 -1660 change;
#X msg 304 -1613 6 \$1;
#X msg 347 -1609 7 \$1;
#X obj 307 -1543 tgl 15 0 empty empty empty 17 7 0 10 -262144 -1 -1
0 1;
#X obj 271 -1543 tgl 15 0 empty empty empty 17 7 0 10 -262144 -1 -1
0 1;
#X obj 160 -1492 outlet;
#X obj 292 -1755 & 64;
#X obj 331 -1754 & 128;
#X connect 0 0 1 0;
#X connect 1 0 7 0;
#X connect 2 0 8 0;
#X connect 3 0 10 0;
#X connect 4 0 12 0;
#X connect 5 0 14 0;
#X connect 6 0 16 0;
#X connect 7 0 24 0;
#X connect 8 0 9 0;
#X connect 9 0 25 0;
#X connect 10 0 11 0;
#X connect 11 0 26 0;
#X connect 12 0 13 0;
#X connect 13 0 27 0;
#X connect 14 0 15 0;
#X connect 15 0 28 0;
#X connect 16 0 17 0;
#X connect 17 0 29 0;
#X connect 24 0 31 0;
#X connect 24 0 18 0;
#X connect 25 0 32 0;
#X connect 25 0 23 0;
#X connect 26 0 33 0;
#X connect 26 0 22 0;
#X connect 27 0 34 0;
#X connect 27 0 21 0;
#X connect 28 0 35 0;
#X connect 28 0 20 0;
#X connect 29 0 36 0;
#X connect 29 0 19 0;
#X connect 30 0 0 0;
#X connect 30 0 2 0;
#X connect 30 0 3 0;
#X connect 30 0 4 0;
#X connect 30 0 5 0;
#X connect 30 0 6 0;
#X connect 30 0 48 0;
#X connect 30 0 49 0;
#X connect 31 0 47 0;
#X connect 32 0 47 0;
#X connect 33 0 47 0;
#X connect 34 0 47 0;
#X connect 35 0 47 0;
#X connect 36 0 47 0;
#X connect 37 0 38 0;
#X connect 38 0 41 0;
#X connect 39 0 40 0;
#X connect 40 0 42 0;
#X connect 41 0 43 0;
#X connect 41 0 46 0;
#X connect 42 0 44 0;
#X connect 42 0 45 0;
#X connect 43 0 47 0;
#X connect 44 0 47 0;
#X connect 48 0 37 0;
#X connect 49 0 39 0;
#X restore 218 111 pd bin;
#X obj 150 81 route 10 11 12;
#X obj 150 142 unpack f f;
#X obj 218 143 unpack f f;
#X obj 150 202 pack f f;
#X obj 218 165 + 8;
#N canvas 4 353 434 510 bin 0;
#X obj 59 -1764 & 1;
#X obj 59 -1743 != 0;
#X obj 98 -1763 & 2;
#X obj 134 -1762 & 4;
#X obj 173 -1761 & 8;
#X obj 208 -1761 & 16;
#X obj 247 -1760 & 32;
#X obj 59 -1722 != 1;
#X obj 97 -1742 != 0;
#X obj 97 -1721 != 1;
#X obj 134 -1740 != 0;
#X obj 134 -1719 != 1;
#X obj 172 -1739 != 0;
#X obj 172 -1718 != 1;
#X obj 210 -1739 != 0;
#X obj 210 -1718 != 1;
#X obj 248 -1738 != 0;
#X obj 248 -1717 != 1;
#X obj 45 -1543 tgl 15 0 empty empty empty 17 7 0 10 -262144 -1 -1
0 1;
#X obj 230 -1536 tgl 15 0 empty empty empty 17 7 0 10 -262144 -1 -1
0 1;
#X obj 194 -1536 tgl 15 0 empty empty empty 17 7 0 10 -262144 -1 -1
0 1;
#X obj 150 -1541 tgl 15 0 empty empty empty 17 7 0 10 -262144 -1 -1
0 1;
#X obj 114 -1541 tgl 15 0 empty empty empty 17 7 0 10 -262144 -1 -1
0 1;
#X obj 80 -1543 tgl 15 0 empty empty empty 17 7 0 10 -262144 -1 -1
0 1;
#X obj 59 -1681 change;
#X obj 97 -1676 change;
#X obj 140 -1677 change;
#X obj 171 -1651 change;
#X obj 208 -1676 change;
#X obj 249 -1669 change;
#X obj 170 -1844 inlet;
#X msg 55 -1642 0 \$1;
#X msg 104 -1618 1 \$1;
#X msg 145 -1598 2 \$1;
#X msg 168 -1623 3 \$1;
#X msg 220 -1619 4 \$1;
#X msg 263 -1615 5 \$1;
#X obj 294 -1733 != 0;
#X obj 294 -1712 != 1;
#X obj 332 -1732 != 0;
#X obj 332 -1711 != 1;
#X obj 292 -1670 change;
#X obj 338 -1660 change;
#X msg 304 -1613 6 \$1;
#X msg 347 -1609 7 \$1;
#X obj 307 -1543 tgl 15 0 empty empty empty 17 7 0 10 -262144 -1 -1
0 1;
#X obj 271 -1543 tgl 15 0 empty empty empty 17 7 0 10 -262144 -1 -1
0 1;
#X obj 160 -1492 outlet;
#X obj 292 -1755 & 64;
#X obj 331 -1754 & 128;
#X connect 0 0 1 0;
#X connect 1 0 7 0;
#X connect 2 0 8 0;
#X connect 3 0 10 0;
#X connect 4 0 12 0;
#X connect 5 0 14 0;
#X connect 6 0 16 0;
#X connect 7 0 24 0;
#X connect 8 0 9 0;
#X connect 9 0 25 0;
#X connect 10 0 11 0;
#X connect 11 0 26 0;
#X connect 12 0 13 0;
#X connect 13 0 27 0;
#X connect 14 0 15 0;
#X connect 15 0 28 0;
#X connect 16 0 17 0;
#X connect 17 0 29 0;
#X connect 24 0 31 0;
#X connect 24 0 18 0;
#X connect 25 0 32 0;
#X connect 25 0 23 0;
#X connect 26 0 33 0;
#X connect 26 0 22 0;
#X connect 27 0 34 0;
#X connect 27 0 21 0;
#X connect 28 0 35 0;
#X connect 28 0 20 0;
#X connect 29 0 36 0;
#X connect 29 0 19 0;
#X connect 30 0 0 0;
#X connect 30 0 2 0;
#X connect 30 0 3 0;
#X connect 30 0 4 0;
#X connect 30 0 5 0;
#X connect 30 0 6 0;
#X connect 30 0 48 0;
#X connect 30 0 49 0;
#X connect 31 0 47 0;
#X connect 32 0 47 0;
#X connect 33 0 47 0;
#X connect 34 0 47 0;
#X connect 35 0 47 0;
#X connect 36 0 47 0;
#X connect 37 0 38 0;
#X connect 38 0 41 0;
#X connect 39 0 40 0;
#X connect 40 0 42 0;
#X connect 41 0 43 0;
#X connect 41 0 46 0;
#X connect 42 0 44 0;
#X connect 42 0 45 0;
#X connect 43 0 47 0;
#X connect 44 0 47 0;
#X connect 48 0 37 0;
#X connect 49 0 39 0;
#X restore 312 115 pd bin;
#X obj 312 230 tgl 15 0 empty empty empty 17 7 0 10 -262144 -1 -1 0
1;
#X obj 312 176 route 7 6 5 4 3 2 1 0;
#X obj 349 232 tgl 15 0 empty empty empty 17 7 0 10 -262144 -1 -1 0
1;
#X obj 390 232 tgl 15 0 empty empty empty 17 7 0 10 -262144 -1 -1 0
1;
#X obj 427 234 tgl 15 0 empty empty empty 17 7 0 10 -262144 -1 -1 0
1;
#X obj 467 231 tgl 15 0 empty empty empty 17 7 0 10 -262144 -1 -1 0
1;
#X obj 504 233 tgl 15 0 empty empty empty 17 7 0 10 -262144 -1 -1 0
1;
#X obj 545 233 tgl 15 0 empty empty empty 17 7 0 10 -262144 -1 -1 0
1;
#X obj 582 235 tgl 15 0 empty empty empty 17 7 0 10 -262144 -1 -1 0
1;
#X obj 29 80 route 1;
#N canvas 4 353 434 510 bin 0;
#X obj 59 -1764 & 1;
#X obj 59 -1743 != 0;
#X obj 98 -1763 & 2;
#X obj 134 -1762 & 4;
#X obj 173 -1761 & 8;
#X obj 208 -1761 & 16;
#X obj 247 -1760 & 32;
#X obj 59 -1722 != 1;
#X obj 97 -1742 != 0;
#X obj 97 -1721 != 1;
#X obj 134 -1740 != 0;
#X obj 134 -1719 != 1;
#X obj 172 -1739 != 0;
#X obj 172 -1718 != 1;
#X obj 210 -1739 != 0;
#X obj 210 -1718 != 1;
#X obj 248 -1738 != 0;
#X obj 248 -1717 != 1;
#X obj 45 -1543 tgl 15 0 empty empty empty 17 7 0 10 -262144 -1 -1
0 1;
#X obj 230 -1536 tgl 15 0 empty empty empty 17 7 0 10 -262144 -1 -1
0 1;
#X obj 194 -1536 tgl 15 0 empty empty empty 17 7 0 10 -262144 -1 -1
0 1;
#X obj 150 -1541 tgl 15 0 empty empty empty 17 7 0 10 -262144 -1 -1
0 1;
#X obj 114 -1541 tgl 15 0 empty empty empty 17 7 0 10 -262144 -1 -1
0 1;
#X obj 80 -1543 tgl 15 0 empty empty empty 17 7 0 10 -262144 -1 -1
0 1;
#X obj 59 -1681 change;
#X obj 97 -1676 change;
#X obj 140 -1677 change;
#X obj 171 -1651 change;
#X obj 208 -1676 change;
#X obj 249 -1669 change;
#X obj 170 -1844 inlet;
#X msg 55 -1642 0 \$1;
#X msg 104 -1618 1 \$1;
#X msg 145 -1598 2 \$1;
#X msg 168 -1623 3 \$1;
#X msg 220 -1619 4 \$1;
#X msg 263 -1615 5 \$1;
#X obj 294 -1733 != 0;
#X obj 294 -1712 != 1;
#X obj 332 -1732 != 0;
#X obj 332 -1711 != 1;
#X obj 292 -1670 change;
#X obj 338 -1660 change;
#X msg 304 -1613 6 \$1;
#X msg 347 -1609 7 \$1;
#X obj 307 -1543 tgl 15 0 empty empty empty 17 7 0 10 -262144 -1 -1
1 1;
#X obj 271 -1543 tgl 15 0 empty empty empty 17 7 0 10 -262144 -1 -1
0 1;
#X obj 160 -1492 outlet;
#X obj 292 -1755 & 64;
#X obj 331 -1754 & 128;
#X connect 0 0 1 0;
#X connect 1 0 7 0;
#X connect 2 0 8 0;
#X connect 3 0 10 0;
#X connect 4 0 12 0;
#X connect 5 0 14 0;
#X connect 6 0 16 0;
#X connect 7 0 24 0;
#X connect 8 0 9 0;
#X connect 9 0 25 0;
#X connect 10 0 11 0;
#X connect 11 0 26 0;
#X connect 12 0 13 0;
#X connect 13 0 27 0;
#X connect 14 0 15 0;
#X connect 15 0 28 0;
#X connect 16 0 17 0;
#X connect 17 0 29 0;
#X connect 24 0 31 0;
#X connect 24 0 18 0;
#X connect 25 0 32 0;
#X connect 25 0 23 0;
#X connect 26 0 33 0;
#X connect 26 0 22 0;
#X connect 27 0 34 0;
#X connect 27 0 21 0;
#X connect 28 0 35 0;
#X connect 28 0 20 0;
#X connect 29 0 36 0;
#X connect 29 0 19 0;
#X connect 30 0 0 0;
#X connect 30 0 2 0;
#X connect 30 0 3 0;
#X connect 30 0 4 0;
#X connect 30 0 5 0;
#X connect 30 0 6 0;
#X connect 30 0 48 0;
#X connect 30 0 49 0;
#X connect 31 0 47 0;
#X connect 32 0 47 0;
#X connect 33 0 47 0;
#X connect 34 0 47 0;
#X connect 35 0 47 0;
#X connect 36 0 47 0;
#X connect 37 0 38 0;
#X connect 38 0 41 0;
#X connect 39 0 40 0;
#X connect 40 0 42 0;
#X connect 41 0 43 0;
#X connect 41 0 46 0;
#X connect 42 0 44 0;
#X connect 42 0 45 0;
#X connect 43 0 47 0;
#X connect 44 0 47 0;
#X connect 48 0 37 0;
#X connect 49 0 39 0;
#X restore 29 109 pd bin;
#X obj 29 136 list prepend t\$1;
#X obj 150 224 list prepend \$1;
#X msg 582 256 rec \$1;
#X msg 504 255 tia0 \$1;
#X obj 312 140 spigot;
#X obj 410 34 loadbang;
#X obj 410 56 symbol \$1;
#X obj 410 78 sel a b;
#X msg 410 100 1;
#X obj 390 34 bng 15 250 50 0 empty empty empty 17 7 0 10 -262144 -1
-1;
#X msg 438 100 1;
#X obj 651 232 tgl 15 0 empty empty empty 17 7 0 10 -262144 -1 -1 0
1;
#X obj 651 178 route 7 6 5 4 3 2 1 0;
#X obj 688 234 tgl 15 0 empty empty empty 17 7 0 10 -262144 -1 -1 0
1;
#X obj 729 234 tgl 15 0 empty empty empty 17 7 0 10 -262144 -1 -1 0
1;
#X obj 766 236 tgl 15 0 empty empty empty 17 7 0 10 -262144 -1 -1 0
1;
#X obj 806 233 tgl 15 0 empty empty empty 17 7 0 10 -262144 -1 -1 0
1;
#X obj 843 235 tgl 15 0 empty empty empty 17 7 0 10 -262144 -1 -1 0
1;
#X obj 884 235 tgl 15 0 empty empty empty 17 7 0 10 -262144 -1 -1 0
1;
#X obj 921 237 tgl 15 0 empty empty empty 17 7 0 10 -262144 -1 -1 0
1;
#X obj 651 145 spigot;
#X floatatom 401 142 5 0 0 0 - - -, f 5;
#X msg 469 279 tia1 \$1;
#X msg 428 255 tia2 \$1;
#X msg 390 286 tia3 \$1;
#X obj 469 312 t a;
#X obj 758 350 t a;
#X obj 29 32 inlet;
#X obj 402 609 outlet;
#X msg 659 270 mode \$1;
#X msg 708 270 func2 \$1;
#X msg 729 290 func1 \$1;
#X msg 782 314 tib3 \$1;
#X msg 820 283 tib2 \$1;
#X msg 861 307 tib1 \$1;
#X msg 896 283 tib0 \$1;
#X obj 55 311 route 2 4 3 5 6;
#X floatatom 51 345 5 0 0 0 - - -, f 5;
#X floatatom 86 342 5 0 0 0 - - -, f 5;
#X floatatom 126 345 5 0 0 0 - - -, f 5;
#X floatatom 161 342 5 0 0 0 - - -, f 5;
#X floatatom 200 344 5 0 0 0 - - -, f 5;
#N canvas 4 353 434 510 bin 0;
#X obj 59 -1764 & 1;
#X obj 59 -1743 != 0;
#X obj 98 -1763 & 2;
#X obj 134 -1762 & 4;
#X obj 173 -1761 & 8;
#X obj 208 -1761 & 16;
#X obj 247 -1760 & 32;
#X obj 59 -1722 != 1;
#X obj 97 -1742 != 0;
#X obj 97 -1721 != 1;
#X obj 134 -1740 != 0;
#X obj 134 -1719 != 1;
#X obj 172 -1739 != 0;
#X obj 172 -1718 != 1;
#X obj 210 -1739 != 0;
#X obj 210 -1718 != 1;
#X obj 248 -1738 != 0;
#X obj 248 -1717 != 1;
#X obj 45 -1543 tgl 15 0 empty empty empty 17 7 0 10 -262144 -1 -1
0 1;
#X obj 230 -1536 tgl 15 0 empty empty empty 17 7 0 10 -262144 -1 -1
0 1;
#X obj 194 -1536 tgl 15 0 empty empty empty 17 7 0 10 -262144 -1 -1
0 1;
#X obj 150 -1541 tgl 15 0 empty empty empty 17 7 0 10 -262144 -1 -1
0 1;
#X obj 114 -1541 tgl 15 0 empty empty empty 17 7 0 10 -262144 -1 -1
0 1;
#X obj 80 -1543 tgl 15 0 empty empty empty 17 7 0 10 -262144 -1 -1
0 1;
#X obj 59 -1681 change;
#X obj 97 -1676 change;
#X obj 140 -1677 change;
#X obj 171 -1651 change;
#X obj 208 -1676 change;
#X obj 249 -1669 change;
#X obj 170 -1844 inlet;
#X msg 55 -1642 0 \$1;
#X msg 104 -1618 1 \$1;
#X msg 145 -1598 2 \$1;
#X msg 168 -1623 3 \$1;
#X msg 220 -1619 4 \$1;
#X msg 263 -1615 5 \$1;
#X obj 294 -1733 != 0;
#X obj 294 -1712 != 1;
#X obj 332 -1732 != 0;
#X obj 332 -1711 != 1;
#X obj 292 -1670 change;
#X obj 338 -1660 change;
#X msg 304 -1613 6 \$1;
#X msg 347 -1609 7 \$1;
#X obj 307 -1543 tgl 15 0 empty empty empty 17 7 0 10 -262144 -1 -1
0 1;
#X obj 271 -1543 tgl 15 0 empty empty empty 17 7 0 10 -262144 -1 -1
0 1;
#X obj 160 -1492 outlet;
#X obj 292 -1755 & 64;
#X obj 331 -1754 & 128;
#X connect 0 0 1 0;
#X connect 1 0 7 0;
#X connect 2 0 8 0;
#X connect 3 0 10 0;
#X connect 4 0 12 0;
#X connect 5 0 14 0;
#X connect 6 0 16 0;
#X connect 7 0 24 0;
#X connect 8 0 9 0;
#X connect 9 0 25 0;
#X connect 10 0 11 0;
#X connect 11 0 26 0;
#X connect 12 0 13 0;
#X connect 13 0 27 0;
#X connect 14 0 15 0;
#X connect 15 0 28 0;
#X connect 16 0 17 0;
#X connect 17 0 29 0;
#X connect 24 0 31 0;
#X connect 24 0 18 0;
#X connect 25 0 32 0;
#X connect 25 0 23 0;
#X connect 26 0 33 0;
#X connect 26 0 22 0;
#X connect 27 0 34 0;
#X connect 27 0 21 0;
#X connect 28 0 35 0;
#X connect 28 0 20 0;
#X connect 29 0 36 0;
#X connect 29 0 19 0;
#X connect 30 0 0 0;
#X connect 30 0 2 0;
#X connect 30 0 3 0;
#X connect 30 0 4 0;
#X connect 30 0 5 0;
#X connect 30 0 6 0;
#X connect 30 0 48 0;
#X connect 30 0 49 0;
#X connect 31 0 47 0;
#X connect 32 0 47 0;
#X connect 33 0 47 0;
#X connect 34 0 47 0;
#X connect 35 0 47 0;
#X connect 36 0 47 0;
#X connect 37 0 38 0;
#X connect 38 0 41 0;
#X connect 39 0 40 0;
#X connect 40 0 42 0;
#X connect 41 0 43 0;
#X connect 41 0 46 0;
#X connect 42 0 44 0;
#X connect 42 0 45 0;
#X connect 43 0 47 0;
#X connect 44 0 47 0;
#X connect 48 0 37 0;
#X connect 49 0 39 0;
#X restore 27 392 pd bin;
#X obj 28 466 tgl 15 0 empty empty empty 17 7 0 10 -262144 -1 -1 0
1;
#X obj 28 412 route 7 6 5 4 3 2 1 0;
#X obj 65 468 tgl 15 0 empty empty empty 17 7 0 10 -262144 -1 -1 0
1;
#X obj 106 468 tgl 15 0 empty empty empty 17 7 0 10 -262144 -1 -1 0
1;
#X obj 143 470 tgl 15 0 empty empty empty 17 7 0 10 -262144 -1 -1 0
1;
#X obj 183 467 tgl 15 0 empty empty empty 17 7 0 10 -262144 -1 -1 0
1;
#X obj 220 469 tgl 15 0 empty empty empty 17 7 0 10 -262144 -1 -1 0
1;
#X obj 261 469 tgl 15 0 empty empty empty 17 7 0 10 -262144 -1 -1 0
1;
#X obj 298 471 tgl 15 0 empty empty empty 17 7 0 10 -262144 -1 -1 0
1;
#X msg 49 525 ia \$1;
#X msg 286 539 plusa \$1;
#X msg 344 540 moinsa \$1;
#X msg 165 536 plusb \$1;
#X msg 224 537 moinsb \$1;
#X msg 105 528 ib \$1;
#X obj 176 571 t a;
#X connect 0 0 3 0;
#X connect 1 0 4 0;
#X connect 2 0 0 0;
#X connect 2 1 1 0;
#X connect 2 2 7 0;
#X connect 2 3 55 0;
#X connect 3 0 5 0;
#X connect 3 1 5 1;
#X connect 4 0 6 0;
#X connect 4 1 5 1;
#X connect 5 0 20 0;
#X connect 6 0 5 0;
#X connect 7 0 23 0;
#X connect 7 0 39 0;
#X connect 9 0 8 0;
#X connect 9 1 10 0;
#X connect 9 2 11 0;
#X connect 9 3 12 0;
#X connect 9 4 13 0;
#X connect 9 5 14 0;
#X connect 9 6 15 0;
#X connect 9 7 16 0;
#X connect 11 0 43 0;
#X connect 12 0 42 0;
#X connect 13 0 41 0;
#X connect 14 0 22 0;
#X connect 16 0 21 0;
#X connect 17 0 18 0;
#X connect 17 1 2 0;
#X connect 18 0 19 0;
#X connect 19 0 47 0;
#X connect 20 0 47 0;
#X connect 21 0 44 0;
#X connect 22 0 44 0;
#X connect 23 0 9 0;
#X connect 24 0 25 0;
#X connect 25 0 26 0;
#X connect 26 0 27 0;
#X connect 26 1 29 0;
#X connect 27 0 23 1;
#X connect 27 0 40 0;
#X connect 28 0 25 0;
#X connect 29 0 39 1;
#X connect 30 0 48 0;
#X connect 31 0 30 0;
#X connect 31 1 32 0;
#X connect 31 2 33 0;
#X connect 31 3 34 0;
#X connect 31 4 35 0;
#X connect 31 5 36 0;
#X connect 31 6 37 0;
#X connect 31 7 38 0;
#X connect 32 0 49 0;
#X connect 33 0 50 0;
#X connect 35 0 51 0;
#X connect 36 0 52 0;
#X connect 37 0 53 0;
#X connect 38 0 54 0;
#X connect 39 0 31 0;
#X connect 41 0 44 0;
#X connect 42 0 44 0;
#X connect 43 0 44 0;
#X connect 44 0 47 0;
#X connect 45 0 47 0;
#X connect 46 0 17 0;
#X connect 48 0 45 0;
#X connect 49 0 45 0;
#X connect 50 0 45 0;
#X connect 51 0 45 0;
#X connect 52 0 45 0;
#X connect 53 0 45 0;
#X connect 54 0 45 0;
#X connect 55 0 56 0;
#X connect 55 0 61 0;
#X connect 55 1 57 0;
#X connect 55 2 58 0;
#X connect 55 3 59 0;
#X connect 55 4 60 0;
#X connect 57 0 76 0;
#X connect 58 0 71 0;
#X connect 61 0 63 0;
#X connect 63 0 62 0;
#X connect 63 1 64 0;
#X connect 63 2 65 0;
#X connect 63 3 66 0;
#X connect 63 4 67 0;
#X connect 63 5 68 0;
#X connect 63 6 69 0;
#X connect 63 7 70 0;
#X connect 67 0 74 0;
#X connect 68 0 75 0;
#X connect 69 0 72 0;
#X connect 70 0 73 0;
#X connect 71 0 77 0;
#X connect 72 0 77 0;
#X connect 73 0 77 0;
#X connect 74 0 77 0;
#X connect 75 0 77 0;
#X connect 76 0 77 0;
#X connect 77 0 47 0;
#X restore 17 63 pd switches;
#X obj 17 119 s fromHurf2;
#N canvas 1138 171 220 243 analog 0;
#X obj 29 32 inlet;
#X obj 29 193 outlet;
#X obj 29 83 route 5;
#X obj 68 108 list prepend k\$1;
#X obj 29 157 list prepend km;
#X connect 0 0 2 0;
#X connect 2 0 4 0;
#X connect 2 1 3 0;
#X connect 3 0 1 0;
#X connect 4 0 1 0;
#X restore 97 64 pd analog;
#X obj 16 156 r toHurf2;
#X obj 440 285 spigot;
#X obj 543 159 loadbang;
#X obj 543 181 symbol \$1;
#X obj 543 203 sel a b;
#X msg 543 225 1;
#X obj 523 159 bng 15 250 50 0 empty empty empty 17 7 0 10 -262144
-1 -1;
#X msg 571 225 1;
#X obj 594 284 spigot;
#X obj 16 321 unpack f f;
#X obj 16 343 + 100;
#X obj 16 365 pack f f;
#X msg 16 387 c \$1 i \$2;
#X obj 73 344 * 16383;
#X obj 440 333 route 3 2 1 0;
#X obj 440 309 route tial recl;
#X obj 128 323 unpack f f;
#X obj 128 368 pack f f;
#X obj 128 345 moses 8;
#X obj 198 368 pack f f;
#X obj 198 349 - 8;
#N canvas 333 320 594 292 ff2bin 0;
#X obj 31 9 inlet;
#X obj 31 163 +;
#X obj 57 161 t b f;
#X obj 31 137 * 128;
#X obj 96 163 +;
#X obj 122 161 t b f;
#X obj 162 164 +;
#X obj 188 162 t b f;
#X obj 227 164 +;
#X obj 253 162 t b f;
#X obj 294 167 +;
#X obj 320 165 t b f;
#X obj 359 167 +;
#X obj 385 165 t b f;
#X obj 425 168 +;
#X obj 472 168 t b f;
#X obj 96 137 * 64;
#X obj 162 138 * 32;
#X obj 227 138 * 16;
#X obj 294 141 * 8;
#X obj 359 141 * 4;
#X obj 425 142 * 2;
#X obj 472 142 * 1;
#X obj 31 191 outlet;
#X obj 31 31 route 7 6 5 4 3 2 1 0;
#X connect 0 0 24 0;
#X connect 1 0 23 0;
#X connect 2 0 1 0;
#X connect 2 1 1 1;
#X connect 3 0 1 0;
#X connect 4 0 2 0;
#X connect 5 0 4 0;
#X connect 5 1 4 1;
#X connect 6 0 5 0;
#X connect 7 0 6 0;
#X connect 7 1 6 1;
#X connect 8 0 7 0;
#X connect 9 0 8 0;
#X connect 9 1 8 1;
#X connect 10 0 9 0;
#X connect 11 0 10 0;
#X connect 11 1 10 1;
#X connect 12 0 11 0;
#X connect 13 0 12 0;
#X connect 13 1 12 1;
#X connect 14 0 13 0;
#X connect 15 0 14 0;
#X connect 15 1 14 1;
#X connect 16 0 4 0;
#X connect 17 0 6 0;
#X connect 18 0 8 0;
#X connect 19 0 10 0;
#X connect 20 0 12 0;
#X connect 21 0 14 0;
#X connect 22 0 15 0;
#X connect 24 0 3 0;
#X connect 24 1 16 0;
#X connect 24 2 17 0;
#X connect 24 3 18 0;
#X connect 24 4 19 0;
#X connect 24 5 20 0;
#X connect 24 6 21 0;
#X connect 24 7 22 0;
#X restore 128 391 pd ff2bin;
#N canvas 333 320 594 292 ff2bin 0;
#X obj 31 9 inlet;
#X obj 31 163 +;
#X obj 57 161 t b f;
#X obj 31 137 * 128;
#X obj 96 163 +;
#X obj 122 161 t b f;
#X obj 162 164 +;
#X obj 188 162 t b f;
#X obj 227 164 +;
#X obj 253 162 t b f;
#X obj 294 167 +;
#X obj 320 165 t b f;
#X obj 359 167 +;
#X obj 385 165 t b f;
#X obj 425 168 +;
#X obj 472 168 t b f;
#X obj 96 137 * 64;
#X obj 162 138 * 32;
#X obj 227 138 * 16;
#X obj 294 141 * 8;
#X obj 359 141 * 4;
#X obj 425 142 * 2;
#X obj 472 142 * 1;
#X obj 31 191 outlet;
#X obj 31 31 route 7 6 5 4 3 2 1 0;
#X connect 0 0 24 0;
#X connect 1 0 23 0;
#X connect 2 0 1 0;
#X connect 2 1 1 1;
#X connect 3 0 1 0;
#X connect 4 0 2 0;
#X connect 5 0 4 0;
#X connect 5 1 4 1;
#X connect 6 0 5 0;
#X connect 7 0 6 0;
#X connect 7 1 6 1;
#X connect 8 0 7 0;
#X connect 9 0 8 0;
#X connect 9 1 8 1;
#X connect 10 0 9 0;
#X connect 11 0 10 0;
#X connect 11 1 10 1;
#X connect 12 0 11 0;
#X connect 13 0 12 0;
#X connect 13 1 12 1;
#X connect 14 0 13 0;
#X connect 15 0 14 0;
#X connect 15 1 14 1;
#X connect 16 0 4 0;
#X connect 17 0 6 0;
#X connect 18 0 8 0;
#X connect 19 0 10 0;
#X connect 20 0 12 0;
#X connect 21 0 14 0;
#X connect 22 0 15 0;
#X connect 24 0 3 0;
#X connect 24 1 16 0;
#X connect 24 2 17 0;
#X connect 24 3 18 0;
#X connect 24 4 19 0;
#X connect 24 5 20 0;
#X connect 24 6 21 0;
#X connect 24 7 22 0;
#X restore 198 391 pd ff2bin;
#X msg 128 439 c 10 c \$1;
#X msg 198 438 c 11 c \$1;
#N canvas 333 320 594 292 bin------------------- 0;
#X obj 31 48 inlet;
#X obj 31 117 +;
#X obj 57 115 t b f;
#X obj 31 81 * 128;
#X obj 96 48 inlet;
#X obj 96 117 +;
#X obj 122 115 t b f;
#X obj 162 49 inlet;
#X obj 162 118 +;
#X obj 188 116 t b f;
#X obj 227 49 inlet;
#X obj 227 118 +;
#X obj 253 116 t b f;
#X obj 294 52 inlet;
#X obj 294 121 +;
#X obj 320 119 t b f;
#X obj 359 52 inlet;
#X obj 359 121 +;
#X obj 385 119 t b f;
#X obj 425 53 inlet;
#X obj 425 122 +;
#X obj 451 120 t b f;
#X obj 490 53 inlet;
#X obj 96 81 * 64;
#X obj 162 82 * 32;
#X obj 227 82 * 16;
#X obj 294 85 * 8;
#X obj 359 85 * 4;
#X obj 425 86 * 2;
#X obj 490 86 * 1;
#X obj 31 191 outlet;
#X connect 0 0 3 0;
#X connect 1 0 30 0;
#X connect 2 0 1 0;
#X connect 2 1 1 1;
#X connect 3 0 1 0;
#X connect 4 0 23 0;
#X connect 5 0 2 0;
#X connect 6 0 5 0;
#X connect 6 1 5 1;
#X connect 7 0 24 0;
#X connect 8 0 6 0;
#X connect 9 0 8 0;
#X connect 9 1 8 1;
#X connect 10 0 25 0;
#X connect 11 0 9 0;
#X connect 12 0 11 0;
#X connect 12 1 11 1;
#X connect 13 0 26 0;
#X connect 14 0 12 0;
#X connect 15 0 14 0;
#X connect 15 1 14 1;
#X connect 16 0 27 0;
#X connect 17 0 15 0;
#X connect 18 0 17 0;
#X connect 18 1 17 1;
#X connect 19 0 28 0;
#X connect 20 0 18 0;
#X connect 21 0 20 0;
#X connect 21 1 20 1;
#X connect 22 0 29 0;
#X connect 23 0 5 0;
#X connect 24 0 8 0;
#X connect 25 0 11 0;
#X connect 26 0 14 0;
#X connect 27 0 17 0;
#X connect 28 0 20 0;
#X connect 29 0 21 0;
#X restore 594 373 pd bin-------------------;
#X obj 722 334 route 3 2 1 0;
#X msg 301 439 c 4 c \$1;
#X obj 398 420 speedlim 10;
#X obj 198 417 speedlim 10;
#X obj 128 415 speedlim 10;
#N canvas 335 316 594 292 ff2bin 0;
#X obj 31 9 inlet;
#X obj 31 163 +;
#X obj 57 161 t b f;
#X obj 31 137 * 128;
#X obj 96 163 +;
#X obj 122 161 t b f;
#X obj 162 164 +;
#X obj 188 162 t b f;
#X obj 227 164 +;
#X obj 253 162 t b f;
#X obj 294 167 +;
#X obj 320 165 t b f;
#X obj 359 167 +;
#X obj 385 165 t b f;
#X obj 425 168 +;
#X obj 472 168 t b f;
#X obj 96 137 * 64;
#X obj 162 138 * 32;
#X obj 227 138 * 16;
#X obj 294 141 * 8;
#X obj 359 141 * 4;
#X obj 425 142 * 2;
#X obj 472 142 * 1;
#X obj 31 191 outlet;
#X obj 31 31 route 7 6 5 4 3 2 1 0;
#X connect 0 0 24 0;
#X connect 1 0 23 0;
#X connect 2 0 1 0;
#X connect 2 1 1 1;
#X connect 3 0 1 0;
#X connect 4 0 2 0;
#X connect 5 0 4 0;
#X connect 5 1 4 1;
#X connect 6 0 5 0;
#X connect 7 0 6 0;
#X connect 7 1 6 1;
#X connect 8 0 7 0;
#X connect 9 0 8 0;
#X connect 9 1 8 1;
#X connect 10 0 9 0;
#X connect 11 0 10 0;
#X connect 11 1 10 1;
#X connect 12 0 11 0;
#X connect 13 0 12 0;
#X connect 13 1 12 1;
#X connect 14 0 13 0;
#X connect 15 0 14 0;
#X connect 15 1 14 1;
#X connect 16 0 4 0;
#X connect 17 0 6 0;
#X connect 18 0 8 0;
#X connect 19 0 10 0;
#X connect 20 0 12 0;
#X connect 21 0 14 0;
#X connect 22 0 15 0;
#X connect 24 0 3 0;
#X connect 24 1 16 0;
#X connect 24 2 17 0;
#X connect 24 3 18 0;
#X connect 24 4 19 0;
#X connect 24 5 20 0;
#X connect 24 6 21 0;
#X connect 24 7 22 0;
#X restore 301 393 pd ff2bin;
#X obj 301 415 speedlim 10;
#X obj 594 311 route model func2l func1l tibl;
#X obj 440 248 t a;
#X obj 16 206 route k\$1 \$1l t\$1l led\$1 ledm;
#X msg 339 362 6 \$1;
#X msg 262 366 5 \$1;
#X obj 17 91 list trim;
#N canvas 1 87 477 379 lcd 0;
#X obj 100 31 inlet;
#X obj 100 55 list split 4;
#X obj 100 80 unpack f f f f;
#X floatatom 54 167 5 0 0 0 - - -, f 5;
#X floatatom 268 168 5 0 0 0 - - -, f 5;
#X obj 96 113 / 7;
#X obj 157 125 / 7;
#X text 154 305 side line start len string;
#X text 192 77 x1 y1 w h;
#X floatatom 122 113 5 0 0 0 - - -, f 5;
#X floatatom 184 120 5 0 0 0 - - -, f 5;
#X obj 96 157 i;
#X obj 157 164 i;
#X obj 75 205 div 20;
#X obj 96 179 t f f;
#X obj 139 203 mod 20;
#X obj 103 232 pack f f f f;
#X obj 103 254 list append;
#X obj 120 290 print;
#N canvas 741 91 538 684 lcdtext 0;
#X obj 223 33 inlet;
#X obj 128 72 t a a;
#X obj 116 114 unwonk f f;
#X obj 314 141 a2l;
#X obj 314 162 l2s;
#X obj 208 325 f2char;
#X obj 266 411 f2char;
#X obj 41 244 bng 15 250 50 0 empty empty empty 17 7 0 10 -262144 -1
-1;
#X msg 67 203 128;
#X obj 65 165 t f f;
#X obj 65 188 > 128;
#X obj 355 64 l;
#X obj 223 111 unwonk f f f f;
#X text 261 33 side line start len string;
#X obj 117 268 symbol;
#X obj 37 99 * 40;
#X obj 87 112 * 64;
#X obj 81 61 t f f;
#X obj 223 145 pack f f f f;
#X obj 208 216 t a a;
#X msg 208 240 \$2;
#X obj 208 262 > 1;
#X obj 208 441 pack s s;
#X obj 208 283 + 128;
#X obj 266 240 unpack f f f f;
#X obj 305 319 +;
#X obj 303 270 % 2;
#X obj 303 292 * 64;
#X obj 266 343 +;
#X floatatom 238 367 5 0 0 0 - - -, f 5;
#X floatatom 180 310 5 0 0 0 - - -, f 5;
#X obj 136 512 outlet;
#X msg 394 124 symbol L\$1;
#X obj 266 381 + 128;
#X obj 266 267 * 20;
#X obj 81 605 print;
#X msg 85 579 \$1---;
#X obj 317 210 makesymbol L%-5s;
#X msg 117 215 \$4;
#X obj 117 236 t b f;
#X obj 181 189 t a a;
#X msg 79 419 \$1;
#X floatatom 140 399 5 0 0 0 - - -, f 5;
#X msg 149 454 L\$1;
#X obj 107 311 change;
#X msg 209 466 L\$1\$2;
#X msg 107 334 symbol L%-\$1s;
#X obj 14 357 makesymbol L%-5s;
#X obj 334 493 f2char;
#X obj 392 505 f2char;
#X obj 334 535 pack s s;
#X obj 334 470 + 128;
#X msg 335 560 L\$1\$2;
#X msg 392 482 1;
#X obj 357 423 t f b;
#X msg 364 391 0 \, 1;
#X text 364 371 clear;
#X obj 384 299 inlet clear;
#X connect 0 0 12 0;
#X connect 3 0 4 0;
#X connect 4 0 14 1;
#X connect 5 0 22 0;
#X connect 6 0 22 1;
#X connect 9 0 10 0;
#X connect 12 0 18 0;
#X connect 12 1 18 1;
#X connect 12 2 18 2;
#X connect 12 3 18 3;
#X connect 12 4 3 0;
#X connect 14 0 47 0;
#X connect 18 0 40 0;
#X connect 19 0 20 0;
#X connect 19 1 24 0;
#X connect 20 0 21 0;
#X connect 21 0 23 0;
#X connect 22 0 45 0;
#X connect 23 0 5 0;
#X connect 24 0 34 0;
#X connect 24 1 26 0;
#X connect 24 2 25 1;
#X connect 25 0 28 1;
#X connect 26 0 27 0;
#X connect 27 0 25 0;
#X connect 28 0 33 0;
#X connect 33 0 6 0;
#X connect 34 0 28 0;
#X connect 36 0 35 0;
#X connect 38 0 39 0;
#X connect 39 0 14 0;
#X connect 39 1 44 0;
#X connect 40 0 38 0;
#X connect 40 1 19 0;
#X connect 41 0 31 0;
#X connect 43 0 31 0;
#X connect 44 0 46 0;
#X connect 45 0 31 0;
#X connect 46 0 47 1;
#X connect 47 0 41 0;
#X connect 48 0 50 0;
#X connect 49 0 50 1;
#X connect 50 0 52 0;
#X connect 51 0 48 0;
#X connect 52 0 31 0;
#X connect 53 0 49 0;
#X connect 54 0 51 0;
#X connect 54 1 53 0;
#X connect 55 0 54 0;
#X connect 57 0 55 0;
#X restore 103 328 pd lcdtext;
#X obj 103 353 outlet;
#X obj 314 67 inlet clear;
#X connect 0 0 1 0;
#X connect 1 0 2 0;
#X connect 1 1 17 1;
#X connect 2 0 5 0;
#X connect 2 1 9 0;
#X connect 2 2 6 0;
#X connect 2 3 10 0;
#X connect 5 0 3 0;
#X connect 5 0 11 0;
#X connect 6 0 4 0;
#X connect 6 0 12 0;
#X connect 9 0 16 1;
#X connect 11 0 14 0;
#X connect 12 0 16 3;
#X connect 13 0 16 0;
#X connect 14 0 13 0;
#X connect 14 1 15 0;
#X connect 15 0 16 2;
#X connect 16 0 17 0;
#X connect 17 0 19 0;
#X connect 19 0 20 0;
#X connect 21 0 19 1;
#X restore 527 462 pd lcd;
#X obj 237 116 print;
#X obj 527 410 route lcdtext lcdclear;
#X connect 0 0 2 0;
#X connect 1 0 5 0;
#X connect 3 0 0 0;
#X connect 4 0 37 0;
#X connect 5 0 6 0;
#X connect 5 1 8 0;
#X connect 6 0 47 0;
#X connect 8 0 47 0;
#X connect 9 0 44 0;
#X connect 10 0 24 0;
#X connect 11 0 12 0;
#X connect 12 0 13 0;
#X connect 13 0 14 0;
#X connect 13 1 16 0;
#X connect 14 0 10 1;
#X connect 15 0 12 0;
#X connect 16 0 17 1;
#X connect 17 0 42 0;
#X connect 18 0 19 0;
#X connect 18 1 22 0;
#X connect 19 0 20 0;
#X connect 20 0 21 0;
#X connect 21 0 2 0;
#X connect 22 0 20 1;
#X connect 23 0 4 2;
#X connect 23 1 4 3;
#X connect 23 2 4 4;
#X connect 23 3 4 5;
#X connect 24 0 23 0;
#X connect 24 1 4 7;
#X connect 24 2 50 0;
#X connect 25 0 27 0;
#X connect 25 1 26 1;
#X connect 25 1 28 1;
#X connect 26 0 30 0;
#X connect 27 0 26 0;
#X connect 27 1 29 0;
#X connect 28 0 31 0;
#X connect 29 0 28 0;
#X connect 30 0 39 0;
#X connect 31 0 38 0;
#X connect 32 0 2 0;
#X connect 33 0 2 0;
#X connect 34 0 37 0;
#X connect 35 0 34 4;
#X connect 35 1 34 5;
#X connect 35 2 34 6;
#X connect 35 3 34 7;
#X connect 36 0 2 0;
#X connect 37 0 3 0;
#X connect 38 0 33 0;
#X connect 39 0 32 0;
#X connect 40 0 41 0;
#X connect 41 0 36 0;
#X connect 42 0 34 0;
#X connect 42 1 34 1;
#X connect 42 2 34 2;
#X connect 42 3 35 0;
#X connect 43 0 10 0;
#X connect 43 0 17 0;
#X connect 44 0 18 0;
#X connect 44 1 25 0;
#X connect 44 2 46 0;
#X connect 44 3 40 0;
#X connect 44 4 45 0;
#X connect 44 5 43 0;
#X connect 45 0 40 0;
#X connect 46 0 40 0;
#X connect 47 0 7 0;
#X connect 48 0 2 1;
#X connect 50 0 48 0;
#X connect 50 1 48 1;
