#N canvas 836 329 498 417 10;
#X declare -path Hurface2/Fraise;
#N canvas 264 525 450 300 HurfaceCtl 0;
#X msg 187 196 \; \$1-SelectCache-rcv \$2;
#X obj 228 173 s MASTERSvol;
#X obj 235 28 vsl 15 128 0 1 0 0 empty empty empty 0 -9 0 10 -262144
-1 -1 0 1;
#X obj 258 24 r Hur2A-snd;
#X obj 260 43 route b6;
#X msg 263 65 1 \$1;
#X obj 263 86 -;
#N canvas 760 262 611 573 Center 0;
#X obj 252 24 r KEP0-snd;
#X obj 258 77 route 2 3 4 5;
#X floatatom 249 121 5 0 0 0 - - -, f 5;
#X floatatom 288 125 5 0 0 0 - - -, f 5;
#X floatatom 321 125 5 0 0 0 - - -, f 5;
#X floatatom 360 129 5 0 0 0 - - -, f 5;
#X obj 258 52 route sw;
#X obj 97 201 & 1;
#X obj 97 222 != 0;
#X obj 136 202 & 2;
#X obj 172 203 & 4;
#X obj 211 204 & 8;
#X obj 246 204 & 16;
#X obj 285 205 & 32;
#X obj 97 243 != 1;
#X obj 135 223 != 0;
#X obj 135 244 != 1;
#X obj 172 225 != 0;
#X obj 172 246 != 1;
#X obj 210 226 != 0;
#X obj 210 247 != 1;
#X obj 248 226 != 0;
#X obj 248 247 != 1;
#X obj 286 227 != 0;
#X obj 286 248 != 1;
#X obj 108 265 tgl 15 0 empty empty empty 17 7 0 10 -262144 -1 -1 0
1;
#X obj 293 272 tgl 15 0 empty empty empty 17 7 0 10 -262144 -1 -1 0
1;
#X obj 257 272 tgl 15 0 empty empty empty 17 7 0 10 -262144 -1 -1 0
1;
#X obj 213 267 tgl 15 0 empty empty empty 17 7 0 10 -262144 -1 -1 0
1;
#X obj 177 267 tgl 15 0 empty empty empty 17 7 0 10 -262144 -1 -1 0
1;
#X obj 143 265 tgl 15 0 empty empty empty 17 7 0 10 -262144 -1 -1 0
1;
#X obj 97 284 change;
#X obj 135 289 change;
#X obj 178 288 change;
#X obj 209 314 change;
#X obj 246 289 change;
#X obj 292 299 change;
#X msg 245 341 tREC \$1;
#X msg 297 346 tSHIFT \$1;
#X obj 99 358 tgl 15 0 empty empty empty 17 7 0 10 -262144 -1 -1 0
1;
#X obj 219 156 f;
#X obj 340 235 != 0;
#X obj 340 256 != 1;
#X obj 347 280 tgl 15 0 empty empty empty 17 7 0 10 -262144 -1 -1 0
1;
#X obj 346 307 change;
#X msg 373 349 tSHIFT \$1;
#X obj 432 223 != 0;
#X obj 432 244 != 1;
#X obj 439 268 tgl 15 0 empty empty empty 17 7 0 10 -262144 -1 -1 0
1;
#X obj 438 295 change;
#X msg 458 350 tSHIFT \$1;
#X obj 339 213 & 64;
#X obj 431 201 & 128;
#X obj 238 422 t a;
#X msg 142 347 CVA \$1;
#X msg 110 318 CRA \$1;
#X msg 206 342 CVB \$1;
#X msg 183 367 CRB \$1;
#X msg 375 165 incrA \$1;
#X msg 441 166 incrB \$1;
#X obj 238 461 s HurfaceCenter;
#X connect 1 0 2 0;
#X connect 1 0 40 0;
#X connect 1 1 3 0;
#X connect 1 1 58 0;
#X connect 1 2 4 0;
#X connect 1 2 59 0;
#X connect 1 3 5 0;
#X connect 6 0 1 0;
#X connect 7 0 8 0;
#X connect 8 0 14 0;
#X connect 9 0 15 0;
#X connect 10 0 17 0;
#X connect 11 0 19 0;
#X connect 12 0 21 0;
#X connect 13 0 23 0;
#X connect 14 0 25 0;
#X connect 14 0 31 0;
#X connect 15 0 16 0;
#X connect 16 0 30 0;
#X connect 16 0 32 0;
#X connect 17 0 18 0;
#X connect 18 0 29 0;
#X connect 18 0 33 0;
#X connect 19 0 20 0;
#X connect 20 0 28 0;
#X connect 20 0 34 0;
#X connect 21 0 22 0;
#X connect 22 0 27 0;
#X connect 22 0 35 0;
#X connect 23 0 24 0;
#X connect 24 0 26 0;
#X connect 24 0 36 0;
#X connect 31 0 55 0;
#X connect 31 0 39 0;
#X connect 32 0 54 0;
#X connect 33 0 57 0;
#X connect 34 0 56 0;
#X connect 35 0 37 0;
#X connect 36 0 38 0;
#X connect 37 0 53 0;
#X connect 38 0 53 0;
#X connect 40 0 7 0;
#X connect 40 0 9 0;
#X connect 40 0 10 0;
#X connect 40 0 11 0;
#X connect 40 0 12 0;
#X connect 40 0 13 0;
#X connect 40 0 51 0;
#X connect 40 0 52 0;
#X connect 41 0 42 0;
#X connect 42 0 43 0;
#X connect 42 0 44 0;
#X connect 44 0 45 0;
#X connect 45 0 53 0;
#X connect 46 0 47 0;
#X connect 47 0 48 0;
#X connect 47 0 49 0;
#X connect 49 0 50 0;
#X connect 50 0 53 0;
#X connect 51 0 41 0;
#X connect 52 0 46 0;
#X connect 54 0 53 0;
#X connect 55 0 53 0;
#X connect 56 0 53 0;
#X connect 57 0 53 0;
#X connect 58 0 53 0;
#X connect 59 0 53 0;
#X restore 118 25 pd Center;
#N canvas 792 120 644 358 incrs 0;
#X obj 296 30 r HurfaceCenter;
#X obj 296 58 route incrA incrB;
#X obj 195 89 t f f;
#X obj 194 125 -;
#X obj 337 305 s 2Gem;
#X msg 344 278 turnSphere \$1;
#X floatatom 353 84 5 0 0 0 - - -, f 5;
#X obj 345 106 t f f;
#X obj 346 132 -;
#X obj 344 245 +;
#X floatatom 308 275 5 0 0 0 - - -, f 5;
#X obj 345 153 + 128;
#X obj 346 177 mod 256;
#X obj 346 199 - 128;
#X obj 382 246 f;
#X obj 21 55 r SYNCHRO-bpm-snd;
#X obj 21 248 s HurfaceScreen;
#X obj 21 218 list trim;
#X msg 22 172 bpm=\$1;
#X obj 20 81 * 100;
#X obj 19 103 i;
#X obj 21 125 change;
#X obj 22 146 / 100;
#X obj 21 194 list prepend raw 0 0 0 20;
#X obj 186 244 +;
#X obj 187 152 + 128;
#X obj 188 176 mod 256;
#X obj 188 198 - 128;
#X obj 216 245 r SYNCHRO-bpm-snd;
#X obj 189 317 s SYNCHRO-bpm-rcv;
#X obj 190 221 * 0.1;
#X obj 348 222 * 2;
#X obj 475 58 r 2Gem;
#X obj 476 107 route hurfA;
#X obj 476 128 route tog;
#X obj 470 163 & 1;
#X obj 476 82 list trim;
#X obj 470 186 != 0;
#X obj 535 232 tgl 15 0 empty empty empty 17 7 0 10 -262144 -1 -1 0
1;
#X obj 501 260 s SYNCHRO-on_off-rcv;
#X obj 474 210 change;
#X connect 1 0 2 0;
#X connect 1 1 6 0;
#X connect 1 1 7 0;
#X connect 2 0 3 1;
#X connect 2 1 3 0;
#X connect 3 0 25 0;
#X connect 5 0 4 0;
#X connect 7 0 8 1;
#X connect 7 1 8 0;
#X connect 8 0 11 0;
#X connect 9 0 5 0;
#X connect 9 0 10 0;
#X connect 9 0 14 0;
#X connect 11 0 12 0;
#X connect 12 0 13 0;
#X connect 13 0 31 0;
#X connect 14 0 9 1;
#X connect 15 0 19 0;
#X connect 17 0 16 0;
#X connect 18 0 23 0;
#X connect 19 0 20 0;
#X connect 20 0 21 0;
#X connect 21 0 22 0;
#X connect 22 0 18 0;
#X connect 23 0 17 0;
#X connect 24 0 29 0;
#X connect 25 0 26 0;
#X connect 26 0 27 0;
#X connect 27 0 30 0;
#X connect 28 0 24 1;
#X connect 30 0 24 0;
#X connect 31 0 9 0;
#X connect 32 0 36 0;
#X connect 33 0 34 0;
#X connect 34 0 35 0;
#X connect 35 0 37 0;
#X connect 36 0 33 0;
#X connect 37 0 40 0;
#X connect 40 0 39 0;
#X connect 40 0 38 0;
#X restore 80 211 pd incrs;
#N canvas 532 266 607 462 fruit-set-MasterVol 0;
#X msg 280 216 c 21 c \$1;
#X msg 289 189 1;
#X msg 254 189 0;
#X text 287 173 K1_AN;
#X obj 274 380 fruit/send Hur2A;
#X connect 0 0 4 0;
#X connect 1 0 0 0;
#X connect 2 0 0 0;
#X restore 312 111 pd fruit-set-MasterVol;
#X connect 3 0 4 0;
#X connect 4 0 5 0;
#X connect 5 0 6 0;
#X connect 6 0 2 0;
#X restore 239 42 pd HurfaceCtl;
#N canvas 320 259 334 445 mode 0;
#X obj 65 27 inlet;
#N canvas 28 316 483 257 pg_leds 0;
#X obj 15 13 inlet;
#X obj 15 77 drip;
#X obj 15 34 t b f;
#X obj 15 99 t f f;
#X obj 15 164 pack f f;
#X obj 45 138 ==;
#X obj 95 112 - 10;
#X obj 15 212 outlet;
#X msg 15 56 0 1 2 3 4 5 6 7 8 9 10 11 12 13 14 15;
#X obj 159 119 drip;
#X obj 159 76 t b f;
#X obj 159 141 t f f;
#X obj 159 206 pack f f;
#X obj 189 180 ==;
#X obj 239 154 - 10;
#X msg 159 230 bl \$1 \$2;
#X msg 159 98 0 1 2 3 4 5 6 7 8 9 10 11 12 13 14 15;
#X msg 15 188 al \$1 \$2;
#X obj 159 34 - 16;
#X connect 0 0 2 0;
#X connect 0 0 18 0;
#X connect 1 0 3 0;
#X connect 2 0 8 0;
#X connect 2 1 5 1;
#X connect 3 0 4 0;
#X connect 3 1 5 0;
#X connect 4 0 17 0;
#X connect 5 0 4 1;
#X connect 8 0 1 0;
#X connect 9 0 11 0;
#X connect 10 0 16 0;
#X connect 10 1 13 1;
#X connect 11 0 12 0;
#X connect 11 1 13 0;
#X connect 12 0 15 0;
#X connect 13 0 12 1;
#X connect 15 0 7 0;
#X connect 16 0 9 0;
#X connect 17 0 7 0;
#X connect 18 0 10 0;
#X restore 176 356 pd pg_leds;
#X obj 28 384 outlet;
#X obj 65 177 != 1;
#X msg 164 76 \$2 \$1;
#X obj 164 96 route 1;
#X obj 115 217 i;
#X obj 164 143 spigot;
#X obj 176 189 i;
#X obj 81 141 sel 0 1;
#X obj 114 72 b;
#X obj 33 103 tgl 15 0 empty empty empty 0 -6 0 8 -262144 -1 -1 0 1
;
#X obj 176 378 outlet;
#X obj 176 210 t f f;
#X obj 115 293 t f f;
#X obj 65 49 route mode updateall a b;
#X msg 218 76 \$2 \$1;
#X obj 218 96 route 1;
#X obj 218 116 + 16;
#X msg 115 314 GenMode \$1;
#X msg 115 258 -10 \, \$1;
#X msg 206 234 \$1 \, -10;
#X obj 28 202 spigot 1;
#X floatatom 153 297 5 0 0 0 - - -, f 5;
#X obj 225 201 route GenMode;
#X obj 225 180 r HurFace;
#X connect 0 0 15 0;
#X connect 0 0 22 0;
#X connect 1 0 12 0;
#X connect 3 0 22 1;
#X connect 4 0 5 0;
#X connect 5 0 7 0;
#X connect 6 0 20 0;
#X connect 7 0 6 1;
#X connect 7 0 8 0;
#X connect 8 0 13 0;
#X connect 9 0 6 0;
#X connect 9 1 8 0;
#X connect 10 0 6 0;
#X connect 13 0 1 0;
#X connect 13 1 21 0;
#X connect 14 0 19 0;
#X connect 14 1 23 0;
#X connect 15 0 3 0;
#X connect 15 0 9 0;
#X connect 15 0 7 1;
#X connect 15 0 11 0;
#X connect 15 1 10 0;
#X connect 15 2 4 0;
#X connect 15 3 16 0;
#X connect 16 0 17 0;
#X connect 17 0 18 0;
#X connect 18 0 7 0;
#X connect 19 0 2 0;
#X connect 20 0 14 0;
#X connect 21 0 14 0;
#X connect 22 0 2 0;
#X connect 24 0 8 1;
#X connect 25 0 24 0;
#X restore 295 173 pd mode;
#X obj 295 148 r fromHurf2;
#X obj 334 194 s toHurf2;
#X obj 353 218 tgl 15 0 empty empty empty 17 7 0 10 -262144 -1 -1 0
1;
#X obj 295 241 s HurFace;
#X obj 295 219 spigot 1;
#X obj 294 277 r 2HurFace;
#X obj 340 310 tgl 15 0 empty empty empty 17 7 0 10 -262144 -1 -1 0
1;
#X obj 294 331 spigot 1;
#X obj 294 361 s toHurf2;
#X obj 266 246 tgl 15 0 empty empty empty 17 7 0 10 -262144 -1 -1 0
1;
#X obj 208 269 print;
#X obj 207 247 spigot;
#X obj 26 340 fruit/send Hur2B;
#X obj 119 289 tgl 15 0 empty empty empty 17 7 0 10 -262144 -1 -1 0
1;
#X msg 120 315 S\$1;
#X obj 214 367 print;
#X obj 213 345 spigot;
#X obj 259 349 tgl 15 0 empty empty empty 17 7 0 10 -262144 -1 -1 0
1;
#X msg 26 316 c 20 c 0;
#X obj 239 64 HurfCtl a Hur2A;
#X obj 23 170 l fruit/fruit 1 Hur2B 51 FraiseKE;
#X obj 28 11 declare -path Hurface2/Fraise;
#X obj 22 121 l fruit/fruit 1 Hur2A 50 FraiseKE;
#X obj 239 86 HurfCtl b Hur2B;
#X obj 23 45 l pied/pied 0 12346;
#X connect 1 0 6 0;
#X connect 1 1 3 0;
#X connect 2 0 1 0;
#X connect 4 0 6 1;
#X connect 6 0 5 0;
#X connect 6 0 13 0;
#X connect 7 0 9 0;
#X connect 7 0 18 0;
#X connect 8 0 9 1;
#X connect 9 0 10 0;
#X connect 11 0 13 1;
#X connect 13 0 12 0;
#X connect 15 0 16 0;
#X connect 16 0 14 1;
#X connect 18 0 17 0;
#X connect 19 0 18 1;
#X connect 20 0 14 0;
