#N canvas 240 182 588 460 10;
#X msg 400 223 print;
#X symbolatom 274 146 10 0 0 0 - - -;
#X symbolatom 274 88 10 0 0 0 - - -;
#X obj 237 174 symbol;
#X obj 237 148 bng 15 250 50 0 empty empty empty 0 -6 0 8 -258699 -1
-1;
#X obj 237 231 s \$0-savechar;
#X obj 283 116 s \$0-loadchar;
#X obj 13 4 r \$0-char;
#X obj 13 27 s2l _;
#X msg 354 268 print;
#X symbolatom 13 412 0 0 0 0 - - -;
#X obj 363 12 inlet;
#X obj 363 38 route update reload load;
#X obj 400 244 sarray \$1-syms 200;
#X obj 401 269 sarray \$1-pixs 200;
#N canvas 0 0 581 300 savechar 0;
#X msg 57 119 find \$1;
#X obj 58 164 sel -1;
#X obj 214 257 s \$0-char;
#X obj 57 55 r \$0-savechar;
#X msg 214 217 set \$1 \$2;
#X obj 214 197 pack f s;
#X obj 57 97 t s s;
#X obj 58 185 symbol;
#X msg 58 205 add \$1;
#X obj 56 142 sarray \$1-syms 200;
#X obj 58 227 sarray \$1-syms 200;
#X obj 214 237 sarray \$1-pixs 200;
#X obj 57 76 unpack s s s;
#X obj 356 261 s \$0-char;
#X msg 356 221 set \$1 \$2;
#X obj 356 201 pack f s;
#X obj 356 241 sarray \$1-pixs2 200;
#X connect 0 0 9 0;
#X connect 1 0 7 0;
#X connect 1 1 5 0;
#X connect 1 1 15 0;
#X connect 3 0 12 0;
#X connect 4 0 11 0;
#X connect 5 0 4 0;
#X connect 6 0 0 0;
#X connect 6 1 7 1;
#X connect 7 0 8 0;
#X connect 8 0 10 0;
#X connect 9 1 1 0;
#X connect 10 1 5 0;
#X connect 10 1 15 0;
#X connect 11 0 2 0;
#X connect 12 0 6 0;
#X connect 12 1 5 1;
#X connect 12 2 15 1;
#X connect 14 0 16 0;
#X connect 15 0 14 0;
#X connect 16 0 13 0;
#X restore 402 170 pd savechar;
#N canvas 0 0 454 217 loadchar 0;
#X obj 13 21 r \$0-loadchar;
#X msg 13 43 find \$1;
#X obj 98 86 sel -1;
#X msg 98 108 get \$1;
#X obj 98 148 s \$0-char;
#X obj 13 64 sarray \$1-syms 200;
#X obj 98 128 sarray \$1-pixs 200;
#X obj 264 123 sarray \$1-pixs2 200;
#X obj 264 143 s \$0-char2;
#X connect 0 0 1 0;
#X connect 1 0 5 0;
#X connect 2 1 3 0;
#X connect 3 0 6 0;
#X connect 3 0 7 0;
#X connect 5 1 2 0;
#X connect 6 0 4 0;
#X connect 7 0 8 0;
#X restore 401 146 pd loadchar;
#N canvas 144 334 640 586 saveloadpolice 0;
#X obj 120 61 for++ 0 199;
#X msg 255 108 get \$1;
#X msg 120 124 get \$1;
#X obj 120 167 route bang;
#X obj 120 83 t f f;
#X obj 255 150 route bang;
#X msg 255 171 symbol 0_0;
#X obj 120 337 textfile;
#X msg 220 235 clear;
#X msg 283 259 print;
#X obj 68 7 bng 15 250 50 0 empty empty empty 0 -6 0 8 -262144 -1 -1
;
#X obj 352 309 until;
#X msg 352 289 200;
#X obj 241 556 s \$0-char;
#X msg 241 516 set \$1 \$2;
#X obj 241 496 pack f s;
#X msg 120 450 add \$1;
#X floatatom 171 524 5 0 0 0 - - -;
#X msg 406 366 reset;
#X obj 185 402 symbol;
#X obj 292 434 a2l;
#X obj 352 267 t b s;
#X msg 257 297 rewind;
#X obj 292 475 symbol;
#X msg 292 455 \$2;
#X obj 120 359 t a a;
#X obj 120 381 route list;
#X obj 120 423 makesymbol %s;
#X obj 199 2 bng 15 250 50 0 empty empty save 0 -6 1 8 -258699 -1 -1
;
#X obj 352 221 bng 15 250 50 1 \$0-load-snd \$0-load-rcv load 0 -6
1 8 -24198 -1 -1;
#X obj 121 38 t b b;
#X msg 415 335 clear \, read \$1.police \, rewind;
#X obj 352 240 symbol \$2;
#X obj 483 80 symbol \$2;
#X msg 483 99 write \$1.police;
#X obj 255 128 sarray \$1-pixs 200;
#X obj 120 145 sarray \$1-syms 200;
#X obj 241 536 sarray \$1-pixs 200;
#X obj 120 472 sarray \$1-syms 200;
#X msg 390 106 get \$1;
#X obj 390 148 route bang;
#X msg 390 169 symbol 0_0;
#X obj 390 126 sarray \$1-pixs2 200;
#X obj 120 212 pack s s s;
#X msg 380 515 set \$1 \$2;
#X obj 380 495 pack f s;
#X obj 431 474 symbol;
#X obj 380 555 s \$0-char2;
#X msg 431 454 \$3;
#X msg 120 234 add \$1 \$2 \$3;
#X obj 380 535 sarray \$1-pixs2 200;
#X connect 0 0 4 0;
#X connect 0 1 33 0;
#X connect 1 0 35 0;
#X connect 2 0 36 0;
#X connect 3 1 43 0;
#X connect 4 0 2 0;
#X connect 4 1 1 0;
#X connect 4 1 39 0;
#X connect 5 0 6 0;
#X connect 5 1 43 1;
#X connect 6 0 43 1;
#X connect 7 0 25 0;
#X connect 7 1 11 1;
#X connect 8 0 7 0;
#X connect 9 0 7 0;
#X connect 11 0 7 0;
#X connect 12 0 11 0;
#X connect 14 0 37 0;
#X connect 15 0 14 0;
#X connect 16 0 38 0;
#X connect 18 0 37 0;
#X connect 18 0 38 0;
#X connect 19 0 16 0;
#X connect 20 0 24 0;
#X connect 20 0 48 0;
#X connect 21 0 12 0;
#X connect 21 1 18 0;
#X connect 21 1 31 0;
#X connect 22 0 7 0;
#X connect 23 0 15 1;
#X connect 24 0 23 0;
#X connect 25 0 26 0;
#X connect 25 1 20 0;
#X connect 26 0 27 0;
#X connect 26 1 19 0;
#X connect 27 0 16 0;
#X connect 28 0 30 0;
#X connect 29 0 32 0;
#X connect 30 0 0 0;
#X connect 30 1 8 0;
#X connect 31 0 7 0;
#X connect 32 0 21 0;
#X connect 33 0 34 0;
#X connect 34 0 7 0;
#X connect 35 0 5 0;
#X connect 36 0 3 0;
#X connect 37 0 13 0;
#X connect 38 1 15 0;
#X connect 38 1 45 0;
#X connect 39 0 42 0;
#X connect 40 0 41 0;
#X connect 40 1 43 2;
#X connect 41 0 43 2;
#X connect 42 0 40 0;
#X connect 43 0 49 0;
#X connect 44 0 50 0;
#X connect 45 0 44 0;
#X connect 46 0 45 1;
#X connect 48 0 46 0;
#X connect 49 0 7 0;
#X connect 50 0 47 0;
#X restore 400 194 pd saveloadpolice;
#X obj 417 87 s \$0-load-rcv;
#X obj 417 64 b;
#X obj 402 296 sarray \$1-pixs2 200;
#X msg 357 296 print;
#X obj 14 46 char8x16 \$0 c1;
#X obj 219 27 s2l _;
#X obj 219 4 r \$0-char2;
#X obj 13 388 makesymbol %s_%s_%s_%s_%s_%s_%s_%s;
#X obj 237 208 pack s s s;
#X obj 219 412 makesymbol %s_%s_%s_%s_%s_%s_%s_%s;
#X symbolatom 219 434 0 0 0 0 - - -;
#X connect 0 0 13 0;
#X connect 1 0 3 1;
#X connect 2 0 6 0;
#X connect 2 0 1 0;
#X connect 3 0 26 0;
#X connect 4 0 3 0;
#X connect 7 0 8 0;
#X connect 8 0 22 0;
#X connect 9 0 14 0;
#X connect 11 0 12 0;
#X connect 12 1 19 0;
#X connect 19 0 18 0;
#X connect 21 0 20 0;
#X connect 22 0 25 0;
#X connect 22 1 27 0;
#X connect 23 0 22 1;
#X connect 24 0 23 0;
#X connect 25 0 10 0;
#X connect 25 0 26 1;
#X connect 26 0 5 0;
#X connect 27 0 26 2;
#X connect 27 0 28 0;
#X coords 0 0 0.012987 0.00606061 20 160 0;
