#N canvas 148 265 587 687 10;
#X obj 292 219 unpack f f f f;
#X text 368 176 (x1 \, y1)#############;
#X text 417 187 #############;
#X msg 336 598 lcddata \$1;
#X obj 263 343 i;
#X obj 290 343 + 1;
#X obj 317 343 moses;
#X obj 347 323 *;
#X msg 279 317 0;
#X obj 276 395 mod;
#X obj 377 440 div;
#X obj 377 460 +;
#X obj 276 417 +;
#X obj 263 365 t f f;
#X text 298 176 x1 y1 w h;
#X text 417 198 #############;
#X text 512 187 h;
#X text 455 208 w;
#X obj 276 460 mod 61;
#X obj 325 460 div 61;
#X obj 276 437 t f f;
#X obj 307 490 pack f f f;
#N canvas 613 28 450 300 change? 0;
#X obj 166 12 inlet;
#X obj 46 100 unpack f f f;
#X obj 25 152 -;
#X obj 166 35 t a a b;
#X obj 186 232 spigot;
#X msg 233 209 0;
#X msg 205 209 1;
#X obj 186 254 outlet;
#X obj 24 127 t f f;
#X obj 25 173 sel 1;
#X obj 78 130 change -1;
#X obj 148 130 change -1;
#X msg 267 55 set -1;
#X obj 267 19 inlet;
#X text 265 4 reset;
#X connect 0 0 3 0;
#X connect 1 0 8 0;
#X connect 1 1 10 0;
#X connect 1 2 11 0;
#X connect 2 0 9 0;
#X connect 3 0 4 0;
#X connect 3 1 1 0;
#X connect 3 2 5 0;
#X connect 4 0 7 0;
#X connect 5 0 4 1;
#X connect 6 0 4 1;
#X connect 8 0 2 1;
#X connect 8 1 2 0;
#X connect 9 1 6 0;
#X connect 10 0 6 0;
#X connect 11 0 6 0;
#X connect 12 0 11 0;
#X connect 12 0 10 0;
#X connect 13 0 12 0;
#X restore 307 514 pd change?;
#X obj 103 354 t f b;
#X obj 81 72 inlet;
#X obj 103 324 spigot;
#X msg 140 300 1;
#X msg 168 300 0;
#X obj 332 377 + 1;
#X text 390 646 cote \, page \, colomne;
#X msg 392 626 lcdlocate \$2 \$3 \$1;
#X obj 336 625 l2s;
#X obj 81 126 t b a b;
#X obj 104 614 repack 4000;
#X obj 442 265 -;
#X obj 442 286 * -1;
#X msg 31 200 255;
#X obj 442 306 - 1;
#X text 397 328 reste avant fin de ligne;
#N canvas 84 150 437 310 getchar 0;
#X msg 86 123 find \$1;
#X obj 222 173 sel -1;
#X msg 222 196 get \$1;
#X obj 28 10 inlet;
#X obj 222 237 s2l _;
#X obj 86 60 f2char;
#X obj 86 40 init 32;
#X obj 86 20 bng 15 250 50 0 empty empty empty 0 -6 0 8 -262144 -1
-1;
#X obj 28 86 sel space;
#X msg 28 147 0 0;
#X msg 178 110 print;
#X obj 303 173 r \$0-pixsname;
#X obj 160 64 r \$0-symsname;
#X msg 160 84 setarray \$1;
#X msg 303 192 setarray \$1;
#X obj 86 144 sarray \$0-Maigre6x8-syms 200;
#X obj 222 215 sarray \$0-Maigre6x8-pixs 200;
#X obj 114 291 outlet;
#X connect 0 0 15 0;
#X connect 1 1 2 0;
#X connect 2 0 16 0;
#X connect 3 0 8 0;
#X connect 4 0 17 0;
#X connect 5 0 8 1;
#X connect 6 0 5 0;
#X connect 7 0 6 0;
#X connect 8 0 9 0;
#X connect 8 1 0 0;
#X connect 9 0 17 0;
#X connect 10 0 15 0;
#X connect 11 0 14 0;
#X connect 12 0 13 0;
#X connect 13 0 15 0;
#X connect 14 0 16 0;
#X connect 15 1 1 0;
#X connect 16 0 4 0;
#X restore 103 238 pd getchar;
#X msg 9 48 Bonjour;
#X obj 103 196 dripchar;
#X obj 103 174 l2s;
#X obj 103 155 a2l;
#X obj 103 217 drip;
#X obj 103 302 drip;
#N canvas 69 167 253 329 passerligne 0;
#X obj 50 77 length;
#X obj 20 55 t a a;
#X obj 120 146 i;
#X obj 120 201 until;
#X msg 120 222 0;
#X text 105 129 fin de ligne;
#X obj 20 29 inlet;
#X obj 20 293 outlet;
#X obj 136 27 inlet;
#X text 138 10 longu.restante;
#X obj 50 124 -;
#X obj 50 147 * -1;
#X obj 50 168 moses 0;
#X obj 50 187 b;
#X obj 120 173 min 150;
#X connect 0 0 10 0;
#X connect 1 0 7 0;
#X connect 1 1 0 0;
#X connect 2 0 14 0;
#X connect 3 0 4 0;
#X connect 4 0 7 0;
#X connect 6 0 1 0;
#X connect 8 0 10 1;
#X connect 8 0 2 1;
#X connect 10 0 11 0;
#X connect 11 0 12 0;
#X connect 12 0 13 0;
#X connect 13 0 2 0;
#X connect 14 0 3 0;
#X restore 103 269 pd passerligne;
#X msg 58 28 Hey!;
#X obj 17 448 t b b;
#N canvas 0 0 200 274 effacer_fin_dernier 0;
#X obj 29 32 inlet;
#X obj 73 237 outlet;
#X obj 29 60 i;
#X obj 29 108 -;
#X obj 29 82 t f f;
#X obj 29 152 moses 1;
#X obj 29 131 * -1;
#X obj 73 195 until;
#X obj 73 173 min 1000;
#X msg 73 216 0;
#X obj 83 33 inlet;
#X text 82 15 nb de datas;
#X connect 0 0 2 0;
#X connect 2 0 4 0;
#X connect 3 0 6 0;
#X connect 4 0 3 1;
#X connect 4 1 3 0;
#X connect 5 1 8 0;
#X connect 6 0 5 0;
#X connect 7 0 9 0;
#X connect 8 0 7 0;
#X connect 9 0 1 0;
#X connect 10 0 2 1;
#X restore 47 471 pd effacer_fin_dernier;
#N canvas 0 330 316 221 inverse/souligne 0;
#X msg 118 71 255 \$1;
#X obj 118 94 -;
#X obj 88 50 demux;
#X obj 88 117 f;
#X obj 88 153 | 0;
#X obj 120 153 * 128;
#X obj 179 38 inlet;
#X obj 226 37 inlet;
#X obj 88 182 outlet;
#X obj 88 24 inlet;
#X connect 0 0 1 0;
#X connect 1 0 3 0;
#X connect 2 0 3 0;
#X connect 2 1 0 0;
#X connect 3 0 4 0;
#X connect 4 0 8 0;
#X connect 5 0 4 1;
#X connect 6 0 2 1;
#X connect 7 0 5 0;
#X connect 9 0 2 0;
#X restore 104 520 pd inverse/souligne;
#X obj 292 26 inlet;
#X obj 292 52 route locate reverse souligne;
#X obj 292 196 pack \$3 \$4 \$5 \$6;
#X obj 187 132 tgl 15 0 empty empty empty 0 -6 0 8 -262144 -1 -1 0
1;
#X obj 260 135 tgl 15 0 empty empty empty 0 -6 0 8 -262144 -1 -1 0
1;
#X obj 187 104 init \$7;
#X obj 260 106 init \$8;
#N canvas 382 601 450 300 init 0;
#X obj 132 45 loadbang;
#X obj 225 111 symbol \$2;
#X obj 162 134 pack f s;
#X obj 162 112 float \$1;
#X obj 162 89 t b b;
#X obj 162 155 makesymbol %s-%s;
#X obj 230 193 makesymbol %s-syms;
#X obj 97 192 makesymbol %s-pixs;
#X obj 230 215 s \$0-symsname;
#X obj 97 212 s \$0-pixsname;
#X obj 132 66 t b b;
#X obj 217 45 bng 15 250 50 0 empty empty empty 0 -6 0 8 -262144 -1
-1;
#X connect 0 0 10 0;
#X connect 1 0 2 1;
#X connect 2 0 5 0;
#X connect 3 0 2 0;
#X connect 4 0 3 0;
#X connect 4 1 1 0;
#X connect 5 0 7 0;
#X connect 5 0 6 0;
#X connect 6 0 8 0;
#X connect 7 0 9 0;
#X connect 10 1 4 0;
#X connect 11 0 10 0;
#X restore 159 29 pd init;
#X obj 236 641 print;
#X floatatom 443 391 5 0 0 0 - - -;
#X msg 196 245 200;
#X obj 104 663 outlet;
#X text 305 555 cote \, page \, colomne;
#X msg 307 535 lcd \$2 \$3 \$1;
#X obj 135 567 t a b;
#X obj 104 639 route list;
#X connect 0 0 8 0;
#X connect 0 0 12 1;
#X connect 0 1 11 1;
#X connect 0 2 7 0;
#X connect 0 2 9 1;
#X connect 0 2 10 1;
#X connect 0 2 34 1;
#X connect 0 3 7 1;
#X connect 3 0 31 0;
#X connect 4 0 5 0;
#X connect 4 0 13 0;
#X connect 4 0 49 1;
#X connect 5 0 6 0;
#X connect 6 0 4 1;
#X connect 6 1 27 0;
#X connect 7 0 6 1;
#X connect 8 0 4 1;
#X connect 9 0 12 0;
#X connect 9 0 34 0;
#X connect 10 0 11 0;
#X connect 11 0 21 2;
#X connect 12 0 20 0;
#X connect 13 0 9 0;
#X connect 13 1 10 0;
#X connect 18 0 21 0;
#X connect 19 0 21 1;
#X connect 20 0 18 0;
#X connect 20 1 19 0;
#X connect 21 0 22 0;
#X connect 22 0 64 0;
#X connect 23 0 50 0;
#X connect 23 1 4 0;
#X connect 24 0 32 0;
#X connect 25 0 23 0;
#X connect 26 0 25 1;
#X connect 27 0 25 1;
#X connect 30 0 31 0;
#X connect 32 0 48 0;
#X connect 32 1 43 0;
#X connect 32 2 26 0;
#X connect 32 2 53 0;
#X connect 32 2 61 0;
#X connect 33 0 66 0;
#X connect 34 0 35 0;
#X connect 35 0 37 0;
#X connect 36 0 25 0;
#X connect 37 0 46 1;
#X connect 39 0 46 0;
#X connect 40 0 32 0;
#X connect 41 0 44 0;
#X connect 42 0 41 0;
#X connect 43 0 42 0;
#X connect 44 0 39 0;
#X connect 45 0 25 0;
#X connect 46 0 45 0;
#X connect 47 0 32 0;
#X connect 48 0 33 0;
#X connect 48 1 49 0;
#X connect 49 0 25 0;
#X connect 50 0 33 0;
#X connect 51 0 52 0;
#X connect 52 0 53 0;
#X connect 52 1 54 0;
#X connect 52 2 55 0;
#X connect 53 0 0 0;
#X connect 54 0 50 1;
#X connect 55 0 50 2;
#X connect 56 0 54 0;
#X connect 57 0 55 0;
#X connect 61 0 46 1;
#X connect 64 0 65 0;
#X connect 65 0 33 0;
#X connect 65 1 33 0;
#X connect 66 0 62 0;
#X coords 0 0 0.012987 0.00606061 20 160 0;
