#N canvas 502 377 1001 736 10;
#X declare -stdpath moonlib;
#X declare -stdpath hcs;
#X declare -stdpath ggee;
#X declare -stdpath zexy;
#X declare -lib zexy;
#X declare -path Hurface2/Fraise;
#X declare -path ../Fraise;
#X declare -stdpath moonlib;
#X declare -stdpath maxlib;
#X declare -stdpath creb;
#X declare -stdlib creb;
#X declare -stdlib maxlib;
#X obj 22 237 analog/parse;
#X obj 22 262 route 0 1 2 3;
#X floatatom 22 371 8 0 0 0 - - -, f 8;
#X floatatom 40 345 8 0 0 0 - - -, f 8;
#X floatatom 59 319 8 0 0 0 - - -, f 8;
#X floatatom 78 293 8 0 0 0 - - -, f 8;
#X obj 22 207 fruit/receive fruit1;
#X obj 447 694 fruit/send2 fruit1;
#X obj 21 38 pied/pied 0 41424;
#X obj 80 384 tgl 15 0 empty empty empty 17 7 0 10 -257985 -1 -1 0
1;
#X text 102 382 <- switch this on \, then touch the pins of connector
K1 to drive the led on., f 30;
#X msg 225 611 c 120 c 4 i \$1;
#X obj 228 587 hsl 128 15 -1023 1023 0 0 empty empty empty -2 -8 0
10 -262144 -1 -1 0 1;
#X obj 228 649 hsl 128 15 -1023 1023 0 0 empty empty empty -2 -8 0
10 -262144 -1 -1 0 1;
#X msg 225 673 c 121 c 4 i \$1;
#X msg 208 560 0;
#X obj 146 260 route P;
#X floatatom 148 283 5 0 0 0 - - -, f 5;
#X obj 585 301 t b b;
#X obj 585 348 del 50;
#X msg 532 371 0;
#X obj 532 349 del 100;
#X obj 585 370 f;
#X obj 630 371 f;
#X obj 630 344 * -1;
#X obj 638 322 f;
#X floatatom 638 298 5 0 0 0 - - -, f 5;
#X obj 558 326 * 2;
#X obj 555 304 f;
#X floatatom 544 280 5 0 0 0 - - -, f 5;
#X msg 543 256 20;
#X obj 542 236 loadbang;
#X obj 647 231 loadbang;
#X msg 648 251 100;
#X obj 602 199 bng 15 250 50 0 empty empty empty 17 7 0 10 -262144
-1 -1;
#X obj 585 405 f;
#X floatatom 608 432 5 0 0 0 - - -, f 5;
#X obj 602 143 tgl 15 0 empty empty empty 17 7 0 10 -262144 -1 -1 0
1;
#X msg 615 575 c 10 i \$1;
#X obj 608 526 f 1000;
#X floatatom 666 495 8 0 0 0 - - -, f 8;
#X floatatom 681 119 5 0 0 0 - - -, f 5;
#X obj 740 341 *~;
#X obj 781 360 osc~ 4000;
#X obj 748 436 dac~;
#X obj 733 320 ead~ 1 10;
#X obj 660 471 * 100;
#X floatatom 660 442 5 0 0 0 - - -, f 5;
#X obj 714 533 hsl 128 15 300 6000 1 0 empty empty empty -2 -8 0 10
-262144 -1 -1 0 1;
#X msg 748 482 3000;
#X obj 307 74 openpanel;
#X obj 307 120 t b s;
#X obj 277 151 del 100;
#X msg 332 193 0 \, open \$1;
#X msg 277 177 1;
#X obj 305 276 *~;
#X obj 346 278 *~;
#X obj 431 226 line~;
#X obj 433 160 hsl 128 15 0 1 0 0 empty empty empty -2 -8 0 10 -262144
-1 -1 0 1;
#X obj 430 180 pow 2;
#X msg 430 202 \$1 10;
#X obj 305 325 dac~;
#X msg 253 199 0;
#X obj 307 96 symbol;
#X obj 332 152 del 1;
#X obj 332 173 symbol;
#X obj 307 54 symbol;
#X obj 307 25 bng 15 250 50 0 empty empty empty 17 7 0 10 -262144 -1
-1;
#X obj 340 13 loadbang;
#X obj 271 63 bng 15 250 50 0 empty empty empty 17 7 0 10 -262144 -1
-1;
#X msg 767 124 \; pd dsp 1;
#X obj 767 94 loadbang;
#X obj 411 107 l2s;
#X obj 405 275 b;
#X obj 405 297 del 10;
#X obj 402 342 +~;
#X floatatom 261 522 5 0 0 0 - - -, f 5;
#X obj 402 386 abs~;
#X obj 428 542 bng 15 250 50 0 empty empty empty 17 7 0 10 -262144
-1 -1;
#X obj 517 561 bng 15 250 50 0 empty empty empty 17 7 0 10 -262144
-1 -1;
#X obj 261 500 envrms~;
#X obj 397 481 rmstodb~;
#X obj 402 414 lop~ 100;
#X obj 401 438 lop~ 100;
#X floatatom 440 563 5 0 0 0 - - -, f 5;
#X obj 400 509 threshold~ 85 1 70 150;
#X msg 434 321 80;
#X msg 467 320 8000;
#X floatatom 476 354 5 0 0 0 - - -, f 5;
#X floatatom 470 290 5 0 0 0 - - -, f 5;
#X obj 472 268 mtof;
#X floatatom 469 242 5 0 0 0 - - -, f 5;
#X obj 427 590 t f f;
#X obj 427 626 pack f f;
#X msg 413 650 set \$1 10 \$2 50;
#X obj 472 605 - 6;
#X obj 20 127 fruit/fruit 1 fruit1 10 toner;
#X obj 32 477 ../Hurface2/Hurface2Master;
#X obj 12 515 fruit/fruit 1 Hur2A 50 FraiseKE;
#X obj 13 564 fruit/fruit 1 Hur2B 51 FraiseKE;
#X obj 758 579 r HurFace;
#X obj 758 622 route 0 1 2 3 4;
#X floatatom 763 653 5 0 0 0 - - -, f 5;
#X floatatom 824 657 5 0 0 0 - - -, f 5;
#X obj 827 675 pow 2;
#X obj 827 697 * 6000;
#X obj 827 719 + 1;
#X obj 583 580 f2s;
#N canvas 737 87 538 684 lcdtext 0;
#X obj 223 33 inlet;
#X obj 128 72 t a a;
#X obj 116 114 unwonk f f;
#X obj 314 141 a2l;
#X obj 314 162 l2s;
#X obj 208 325 f2char;
#X obj 266 411 f2char;
#X obj 41 244 bng 15 250 50 0 empty empty empty 17 7 0 10 -262144 -1
-1;
#X msg 67 203 128;
#X obj 65 165 t f f;
#X obj 65 188 > 128;
#X obj 355 64 l;
#X obj 223 111 unwonk f f f f;
#X text 261 33 side line start len string;
#X obj 117 268 symbol;
#X obj 37 99 * 40;
#X obj 87 112 * 64;
#X obj 81 61 t f f;
#X obj 223 145 pack f f f f;
#X obj 208 216 t a a;
#X msg 208 240 \$2;
#X obj 208 262 > 1;
#X obj 208 441 pack s s;
#X obj 208 283 + 128;
#X obj 266 240 unpack f f f f;
#X obj 305 319 +;
#X obj 303 270 % 2;
#X obj 303 292 * 64;
#X obj 266 343 +;
#X floatatom 238 367 5 0 0 0 - - -, f 5;
#X floatatom 180 310 5 0 0 0 - - -, f 5;
#X obj 136 512 outlet;
#X msg 394 124 symbol L\$1;
#X obj 266 381 + 128;
#X obj 266 267 * 20;
#X obj 81 605 print;
#X msg 85 579 \$1---;
#X obj 317 210 makesymbol L%-5s;
#X msg 117 215 \$4;
#X obj 117 236 t b f;
#X obj 181 189 t a a;
#X msg 79 419 \$1;
#X floatatom 140 399 5 0 0 0 - - -, f 5;
#X msg 149 454 L\$1;
#X obj 107 311 change;
#X msg 209 466 L\$1\$2;
#X msg 107 334 symbol L%-\$1s;
#X obj 14 357 makesymbol L%-5s;
#X obj 334 493 f2char;
#X obj 392 505 f2char;
#X obj 334 535 pack s s;
#X obj 334 470 + 128;
#X msg 335 560 L\$1\$2;
#X msg 392 482 1;
#X obj 357 423 t f b;
#X msg 364 391 0 \, 1;
#X text 364 371 clear;
#X connect 0 0 12 0;
#X connect 3 0 4 0;
#X connect 4 0 14 1;
#X connect 5 0 22 0;
#X connect 6 0 22 1;
#X connect 9 0 10 0;
#X connect 12 0 18 0;
#X connect 12 1 18 1;
#X connect 12 2 18 2;
#X connect 12 3 18 3;
#X connect 12 4 3 0;
#X connect 14 0 47 0;
#X connect 18 0 40 0;
#X connect 19 0 20 0;
#X connect 19 1 24 0;
#X connect 20 0 21 0;
#X connect 21 0 23 0;
#X connect 22 0 45 0;
#X connect 23 0 5 0;
#X connect 24 0 34 0;
#X connect 24 1 26 0;
#X connect 24 2 25 1;
#X connect 25 0 28 1;
#X connect 26 0 27 0;
#X connect 27 0 25 0;
#X connect 28 0 33 0;
#X connect 33 0 6 0;
#X connect 34 0 28 0;
#X connect 36 0 35 0;
#X connect 38 0 39 0;
#X connect 39 0 14 0;
#X connect 39 1 44 0;
#X connect 40 0 38 0;
#X connect 40 1 19 0;
#X connect 41 0 31 0;
#X connect 43 0 31 0;
#X connect 44 0 46 0;
#X connect 45 0 31 0;
#X connect 46 0 47 1;
#X connect 47 0 41 0;
#X connect 48 0 50 0;
#X connect 49 0 50 1;
#X connect 50 0 52 0;
#X connect 51 0 48 0;
#X connect 52 0 31 0;
#X connect 53 0 49 0;
#X connect 54 0 51 0;
#X connect 54 1 53 0;
#X connect 55 0 54 0;
#X restore 591 644 pd lcdtext;
#X obj 498 669 fruit/send2 Hur2A;
#X msg 588 621 1 1 0 10 f=\$1;
#X symbolatom 605 604 10 0 0 0 - - -, f 10;
#X msg 624 688 1 3 0 10 thr=\$1;
#X obj 750 721 i;
#X obj 601 173 metro 400;
#X obj 719 190 t b b;
#X msg 719 212 1;
#X obj 719 234 f;
#X obj 751 210 del 30;
#X msg 751 232 0;
#X obj 720 275 s 2HurFace;
#X msg 719 255 tal \$1 \, tbl \$1 \, ledm \$1;
#X obj 758 599 route kb tb;
#X obj 882 618 route 0 1 2 3 4;
#X obj 890 644 sel 1;
#X obj 722 4 declare -path ../Fraise;
#X obj 305 227 readsf~ 2 1e+06;
#X obj 723 25 declare -stdpath moonlib;
#X obj 749 58 declare -stdpath maxlib;
#X obj 778 77 declare -stdpath creb;
#X obj 937 75 declare -stdlib creb;
#X obj 924 53 declare -stdlib maxlib;
#X msg 340 33 symbol;
#X symbolatom 490 104 0 0 0 0 - - -;
#X msg 393 60 /home/al1/Dropbox/KEP/Demo/07Rm1x01.wav;
#X obj 748 414 *~ 0.1;
#X obj 450 129 adc~;
#X obj 750 677 * 80;
#X obj 750 699 + 20;
#X obj 402 364 bp~ 80 100;
#X obj 716 655 * 132;
#X obj 316 454 hip~ 10;
#X connect 0 0 1 0;
#X connect 0 1 16 0;
#X connect 1 0 2 0;
#X connect 1 1 3 0;
#X connect 1 2 4 0;
#X connect 1 3 5 0;
#X connect 6 0 0 0;
#X connect 11 0 7 0;
#X connect 12 0 11 0;
#X connect 13 0 14 0;
#X connect 14 0 7 0;
#X connect 15 0 12 0;
#X connect 15 0 13 0;
#X connect 16 0 17 0;
#X connect 18 0 19 0;
#X connect 18 0 21 0;
#X connect 18 1 23 0;
#X connect 19 0 22 0;
#X connect 20 0 35 0;
#X connect 21 0 20 0;
#X connect 22 0 35 0;
#X connect 23 0 35 0;
#X connect 24 0 22 1;
#X connect 25 0 24 0;
#X connect 25 0 23 1;
#X connect 26 0 25 0;
#X connect 27 0 21 1;
#X connect 28 0 27 0;
#X connect 28 0 19 1;
#X connect 29 0 28 0;
#X connect 30 0 29 0;
#X connect 31 0 30 0;
#X connect 32 0 33 0;
#X connect 33 0 26 0;
#X connect 34 0 39 0;
#X connect 34 0 45 0;
#X connect 34 0 115 0;
#X connect 35 0 36 0;
#X connect 35 0 11 0;
#X connect 37 0 114 0;
#X connect 38 0 7 0;
#X connect 39 0 38 0;
#X connect 40 0 39 1;
#X connect 41 0 114 1;
#X connect 42 0 135 0;
#X connect 43 0 42 1;
#X connect 45 0 42 0;
#X connect 46 0 40 0;
#X connect 47 0 46 0;
#X connect 48 0 40 0;
#X connect 50 0 63 0;
#X connect 51 0 52 0;
#X connect 51 0 64 0;
#X connect 51 1 65 1;
#X connect 52 0 54 0;
#X connect 53 0 126 0;
#X connect 54 0 126 0;
#X connect 55 0 61 0;
#X connect 56 0 61 1;
#X connect 57 0 56 1;
#X connect 57 0 55 1;
#X connect 58 0 59 0;
#X connect 59 0 60 0;
#X connect 60 0 57 0;
#X connect 62 0 126 0;
#X connect 63 0 51 0;
#X connect 63 0 133 0;
#X connect 64 0 65 0;
#X connect 65 0 53 0;
#X connect 66 0 50 0;
#X connect 67 0 66 0;
#X connect 68 0 132 0;
#X connect 69 0 63 0;
#X connect 71 0 70 0;
#X connect 72 0 51 0;
#X connect 73 0 74 0;
#X connect 74 0 134 0;
#X connect 75 0 139 0;
#X connect 77 0 82 0;
#X connect 78 0 34 0;
#X connect 80 0 76 0;
#X connect 81 0 85 0;
#X connect 82 0 83 0;
#X connect 83 0 81 0;
#X connect 84 0 92 0;
#X connect 85 0 78 0;
#X connect 85 1 79 0;
#X connect 86 0 139 1;
#X connect 87 0 139 1;
#X connect 88 0 139 2;
#X connect 89 0 107 0;
#X connect 89 0 139 1;
#X connect 90 0 89 0;
#X connect 91 0 90 0;
#X connect 92 0 93 0;
#X connect 92 1 95 0;
#X connect 93 0 94 0;
#X connect 94 0 85 0;
#X connect 95 0 93 1;
#X connect 100 0 122 0;
#X connect 101 0 102 0;
#X connect 101 0 140 0;
#X connect 101 1 137 0;
#X connect 101 4 103 0;
#X connect 101 4 104 0;
#X connect 104 0 105 0;
#X connect 105 0 106 0;
#X connect 106 0 48 0;
#X connect 107 0 110 0;
#X connect 107 0 111 0;
#X connect 108 0 109 1;
#X connect 110 0 108 0;
#X connect 112 0 108 0;
#X connect 113 0 112 0;
#X connect 113 0 92 0;
#X connect 114 0 34 0;
#X connect 115 0 116 0;
#X connect 115 1 118 0;
#X connect 116 0 117 0;
#X connect 117 0 121 0;
#X connect 118 0 119 0;
#X connect 119 0 117 0;
#X connect 121 0 120 0;
#X connect 122 0 101 0;
#X connect 122 1 123 0;
#X connect 123 0 124 0;
#X connect 124 0 34 0;
#X connect 126 0 55 0;
#X connect 126 0 75 0;
#X connect 126 1 56 0;
#X connect 126 1 75 1;
#X connect 126 2 73 0;
#X connect 132 0 66 1;
#X connect 134 0 72 0;
#X connect 135 0 44 0;
#X connect 135 0 44 1;
#X connect 136 0 75 0;
#X connect 137 0 138 0;
#X connect 138 0 113 0;
#X connect 139 0 77 0;
#X connect 140 0 91 0;
