#N canvas 385 79 410 689 10;
#X obj 51 11 cnv 15 40 654 empty empty \$1 1 5 1 8 -257985 -1 0;
#X text 97 7 KEPtype nomUnique;
#X obj 152 29 KEPface \$1;
#X obj 57 653 bng 10 250 50 0 empty empty empty 17 7 0 10 -4034 -1
-1;
#X obj 74 653 bng 10 250 50 0 empty empty empty 17 7 0 10 -258113 -1
-1;
#N canvas 20 176 311 592 KEPboutons 0;
#X obj 26 78 KEPbus \$1 Effet Decay b3;
#X obj 32 251 KEPbus \$1 Rec -tL- tREC;
#X obj 32 227 KEPbus \$1 N8 -t4- t4;
#X obj 25 275 KEPbus \$1 l1 -l1- tl1;
#X obj 25 298 KEPbus \$1 l2 -l2- tl2;
#X obj 27 320 KEPbus \$1 l3 -l3- tl3;
#X obj 27 341 KEPbus \$1 l4 -l4- tl4;
#X obj 22 366 KEPbus \$1 lR -lR- tlREC;
#X obj 26 408 KEPbus \$1 lr -lr- lrouge;
#X obj 26 431 KEPbus \$1 lv -lv- lvert;
#X obj 25 121 KEPbus \$1 Volume Volume b5;
#X obj 26 100 KEPbus \$1 Reverb Reverb b4;
#X obj 27 55 KEPbus \$1 Note Note_adjust b2;
#X obj 27 34 KEPbus \$1 Vibrato Vibrato_speed b1;
#X obj 32 163 KEPbus \$1 N1 gam0 t1;
#X obj 30 184 KEPbus \$1 N2 gam1 t2;
#X obj 31 206 KEPbus \$1 N4 gam2 t3;
#X restore 177 171 pd KEPboutons;
#N canvas 794 441 572 327 son 1;
#X obj 96 207 Vmull~ 0 10;
#X obj 97 233 outlet~;
#X obj 270 135 t b;
#X obj 270 113 r SYNCHRO-clock;
#X obj 214 43 MORPHgroup \$1 FX;
#X floatatom 171 19 5 0 0 0 - - -;
#X obj 382 129 param \$1 FX del1_time;
#X obj 29 180 s \$0-onoff;
#X obj 29 163 tgl 15 1 empty empty empty 17 7 0 10 -262144 -1 -1 1
1;
#X obj 127 153 r \$1-Volume;
#X obj 214 23 r \$1-Effet;
#X obj 7 139 s \$1-lvert;
#X obj 271 158 s \$1-lrouge;
#N canvas 261 79 664 689 ALLSOUND_Uku 0;
#X obj 34 594 lop~ 3000;
#X obj 33 768 outlet~;
#X obj 33 334 *~;
#X obj 35 75 mknob 25 100 0 1 0 0 empty \$0-Note f -2 -6 1 8 -262144
-1 -1 0 1;
#X obj 78 186 mtof;
#X obj 191 514 namecanvas \$0-caninstru;
#X obj 191 493 s \$0-caninstru;
#X obj 192 451 r \$0-visu;
#X msg 192 473 vis 1;
#N canvas 20 775 619 341 env 0;
#X obj 110 248 outlet~;
#X obj 58 188 s \$0-LED;
#N canvas 183 225 244 216 shiftcon 0;
#X obj 30 40 inlet;
#X obj 135 32 inlet;
#X text 136 15 shift;
#X obj 135 53 t f f;
#X obj 30 106 f;
#X obj 128 98 spigot;
#X obj 67 109 == 0;
#X obj 30 132 spigot;
#X obj 165 75 != 0;
#X obj 45 180 outlet;
#X obj 79 79 sel 0;
#X text 25 22 normal;
#X obj 128 122 scale 0 1 0 0.7;
#X connect 0 0 4 0;
#X connect 1 0 3 0;
#X connect 3 0 5 0;
#X connect 3 0 10 0;
#X connect 3 1 8 0;
#X connect 3 1 6 0;
#X connect 4 0 7 0;
#X connect 5 0 12 0;
#X connect 6 0 7 1;
#X connect 7 0 9 0;
#X connect 8 0 5 1;
#X connect 10 0 4 0;
#X connect 12 0 9 0;
#X restore 211 101 pd shiftcon;
#X obj 242 78 r \$0-env-snd;
#X obj 190 20 r \$0-envoff-snd;
#X obj 101 24 != -1;
#X obj 101 45 change;
#X obj 100 68 sel 0 1;
#X msg 132 90 start;
#X msg 96 89 stop;
#X floatatom 37 40 5 0 0 0 - - -;
#X obj 109 120 ear~ 1 1;
#X obj 101 4 r \$1-Key;
#X connect 3 0 2 1;
#X connect 5 0 6 0;
#X connect 6 0 7 0;
#X connect 6 0 1 0;
#X connect 7 0 9 0;
#X connect 7 1 8 0;
#X connect 8 0 11 0;
#X connect 9 0 11 0;
#X connect 11 0 0 0;
#X connect 12 0 5 0;
#X connect 12 0 10 0;
#X restore 150 30 pd env;
#X obj 52 489 mtof;
#X obj 34 554 vcf~ 1;
#X floatatom 112 550 5 0 0 0 - - -;
#X obj 78 238 -~ 0.5;
#X obj 52 434 mknob 25 100 0 1 0 0 \$1-vcff-snd \$1-vcff-rcv vcff -2
-6 1 10 -262144 -1 -1 8700 1;
#X obj 102 436 mknob 25 100 0 1 0 0 \$1-vcfres-snd \$1-vcfres-rcv vcfres
-2 -6 1 10 -262144 -1 -1 0 1;
#X obj 52 529 line~;
#X msg 52 509 \$1 20;
#X obj 102 485 + 1.5;
#X obj 102 465 * 4;
#X obj 168 234 osc~ 80;
#X obj 176 275 mull~ 0 20;
#X obj 362 210 mknob 25 100 0 1 0 0 \$1-vx2-snd \$1-vx2-rcv vx2 -2
-6 1 10 -262144 -1 -1 0 1;
#X obj 235 246 mknob 25 100 0 1 0 0 \$1-vx1-snd \$1-vx1-rcv vx1 -2
-6 1 10 -262144 -1 -1 4400 1;
#X obj 283 104 mknob 25 100 0 1 0 0 \$1-vx2trans-snd \$1-vx2trans-rcv
vx2trans -2 -6 1 10 -262144 -1 -1 4950 1;
#X obj 227 133 mknob 25 100 0 1 0 0 \$1-vx1trans-snd \$1-vx1trans-rcv
vx1trans -2 -6 1 10 -262144 -1 -1 4950 1;
#X obj 315 284 *~;
#X obj 18 172 s \$0-freq;
#X obj 362 240 pow 2;
#X obj 283 192 mtof;
#X obj 283 304 *~;
#X obj 362 261 * 4;
#X msg 227 96 0.5;
#X msg 283 70 0.5;
#X obj 52 467 * 128;
#X obj 272 262 lop~ 3000;
#X obj 51 672 mull~ 0 10;
#X obj 33 629 *~ 2;
#X obj 76 339 *~;
#X obj 83 271 mknob 25 100 0 1 0 0 \$1-vx2-1-snd \$1-vx2-1-rcv vx2-1
-2 -6 1 10 -262144 -1 -1 0 1;
#X obj 83 300 * 4;
#X obj 184 336 *~;
#X obj 227 306 mknob 25 100 0 1 0 0 \$1-vx2-3-snd \$1-vx2-3-rcv vx2-3
-2 -6 1 10 -262144 -1 -1 0 1;
#X obj 272 218 *~ 1;
#X obj 183 356 +~ 1;
#X obj 258 335 mknob 25 100 0 1 0 0 \$0-vx3off-snd \$0-vx3off-rcv vx3off
-2 -6 1 10 -262144 -1 -1 0 1;
#X obj 258 425 * 2;
#X obj 258 386 sel 0;
#X msg 258 405 0.5;
#X obj 200 28 mknob 25 100 0 1 0 0 \$1-envoff-snd \$1-envoff-rcv envoff
-2 -6 1 10 -262144 -1 -1 0 1;
#X obj 121 317 r \$0-LED;
#X obj 93 320 m;
#X obj 215 336 pow 4;
#X obj 215 357 * 100;
#X floatatom 211 411 5 0 0 0 - - -;
#X obj 19 147 ++;
#X obj 50 114 r \$0-Key;
#X obj 20 112 * 80;
#X obj 80 643 mknob 25 100 0 1 0 0 \$0-revsnd-snd \$0-revsnd-rcv revsnd
-2 -6 1 10 -262144 -1 -1 0 1;
#X msg 456 111 setb \$1;
#X obj 456 47 f;
#N canvas 363 644 451 298 numbernotes 0;
#X obj 171 9 inlet;
#X obj 102 111 sel 0;
#X obj 171 42 t f b;
#X obj 202 158 i;
#X obj 202 135 +;
#X msg 242 121 0;
#X obj 192 194 i;
#X floatatom 238 246 5 0 0 0 - - -;
#X obj 202 107 & 1;
#X obj 175 84 t f f;
#X obj 160 113 >> 1;
#X obj 192 221 outlet;
#X floatatom 89 65 5 0 0 0 - - -;
#X obj 101 29 bng 15 250 50 0 empty empty empty 17 7 0 10 -262144 -1
-1;
#X connect 0 0 2 0;
#X connect 0 0 12 0;
#X connect 1 0 6 0;
#X connect 1 1 9 0;
#X connect 2 0 1 0;
#X connect 2 1 5 0;
#X connect 3 0 4 1;
#X connect 3 0 6 1;
#X connect 4 0 3 0;
#X connect 5 0 3 0;
#X connect 6 0 11 0;
#X connect 8 0 4 0;
#X connect 9 0 10 0;
#X connect 9 1 8 0;
#X connect 10 0 1 0;
#X restore 477 70 pd numbernotes;
#X obj 456 133 s \$0-setgam;
#X obj 477 91 s \$0-gamlen;
#N canvas 100 389 515 379 lfo 0;
#N canvas 916 228 450 435 lfo 0;
#X obj 24 38 inlet freq;
#X obj 155 40 inlet amp;
#X obj 155 89 > 0.01;
#X obj 106 215 +;
#X obj 80 215 f;
#X floatatom 116 240 5 0 0 0 - - -;
#X obj 187 63 hsl 128 15 0 1 0 0 empty empty empty -2 -8 0 10 -262144
-1 -1 0 1;
#X obj 52 13 hsl 128 15 0 1 0 0 empty empty empty -2 -8 0 10 -262144
-1 -1 0 1;
#X obj 155 61 f;
#X obj 24 63 f;
#X obj 114 272 * 6.283;
#X obj 24 85 pow 2;
#X obj 121 345 *;
#X obj 155 168 sel 0;
#X obj 114 298 sin;
#X msg 154 187 0;
#X obj 155 140 change;
#X obj 80 169 metro 10;
#X obj 121 373 outlet lfo;
#X obj 24 133 * 0.1;
#X obj 218 141 pow 3;
#X obj 218 170 * 3;
#X obj 84 109 maxlib/scale 0 1 0.01 0.1;
#X obj 132 215 creb/fmod 1;
#X connect 0 0 9 0;
#X connect 1 0 8 0;
#X connect 2 0 16 0;
#X connect 3 0 23 0;
#X connect 4 0 3 0;
#X connect 4 0 10 0;
#X connect 6 0 8 0;
#X connect 7 0 9 0;
#X connect 8 0 2 0;
#X connect 8 0 20 0;
#X connect 9 0 11 0;
#X connect 10 0 14 0;
#X connect 11 0 22 0;
#X connect 12 0 18 0;
#X connect 13 0 15 0;
#X connect 14 0 12 0;
#X connect 15 0 4 0;
#X connect 16 0 13 0;
#X connect 16 0 17 0;
#X connect 17 0 4 0;
#X connect 19 0 3 1;
#X connect 20 0 21 0;
#X connect 21 0 12 1;
#X connect 22 0 3 1;
#X connect 23 0 4 1;
#X restore 58 214 pd lfo;
#X floatatom 116 185 5 0 0 0 - - -;
#X floatatom 219 324 5 0 0 0 - - -;
#X obj 219 300 m 1;
#X floatatom 239 274 5 0 0 0 - - -;
#X obj 186 75 r \$2-vibfreqmaster-snd;
#X floatatom 346 23 5 0 0 0 - - -;
#X obj 77 110 t f f;
#X obj 58 139 m 1;
#X obj 365 299 r \$2-vibfreqmaster-snd;
#X obj 103 134 - 1;
#X obj 147 103 r \$2-vibfixfreq-snd;
#X obj 143 132 * -1;
#X floatatom 10 220 5 0 0 0 - - -;
#X obj 37 45 hsl 128 15 0 1 0 0 empty empty empty -2 -8 0 10 -262144
-1 -1 0 1;
#X obj 58 165 ++;
#X obj 104 155 m -0.4;
#X floatatom 162 188 5 0 0 0 - - -;
#X obj 219 144 r \$1-Key;
#X obj 219 165 != -1;
#X floatatom 33 262 5 0 0 0 - - -;
#X obj 58 237 s \$0-lfo;
#X obj 267 255 r \$1-Vibrato;
#X obj 58 78 r \$1-Vibrato_speed;
#X obj 175 5 loadbang;
#X msg 176 25 0.7;
#X obj 219 207 sel 0 1;
#X msg 219 232 0;
#X obj 219 253 line;
#X obj 319 145 r \$0-setgam;
#X msg 250 232 0 \, 1 350;
#X connect 0 0 21 0;
#X connect 3 0 0 1;
#X connect 4 0 3 0;
#X connect 5 0 7 0;
#X connect 7 0 8 1;
#X connect 7 1 10 0;
#X connect 8 0 15 0;
#X connect 10 0 16 0;
#X connect 11 0 12 0;
#X connect 12 0 16 1;
#X connect 14 0 8 0;
#X connect 15 0 13 0;
#X connect 15 0 0 0;
#X connect 16 0 15 1;
#X connect 16 0 1 0;
#X connect 18 0 19 0;
#X connect 19 0 17 0;
#X connect 19 0 26 0;
#X connect 22 0 3 1;
#X connect 23 0 8 0;
#X connect 24 0 25 0;
#X connect 25 0 8 0;
#X connect 26 0 27 0;
#X connect 26 1 30 0;
#X connect 27 0 28 0;
#X connect 28 0 3 0;
#X connect 29 0 30 0;
#X connect 30 0 28 0;
#X restore 545 142 pd lfo;
#X obj 32 362 apdisto \$1 FX disto1;
#X obj 457 214 param \$1 FX vcfres;
#X obj 461 335 param \$1 FX vx2-1;
#X obj 461 317 param \$1 FX vx2;
#X obj 461 278 param \$1 FX vx1;
#X obj 461 297 param \$1 FX vx1trans;
#X obj 460 373 param \$1 FX vx2trans;
#X obj 461 354 param \$1 FX vx2-3;
#X obj 458 174 param \$1 FX envoff;
#X obj 462 394 param \$1 FX vx3off;
#X obj 457 234 param \$1 FX revsnd;
#X obj 50 694 aprev \$1 FX rev1;
#X obj 111 577 apecho \$1 FX echo1;
#X obj 457 194 param \$1 FX vcff;
#N canvas 92 146 735 551 MECANIC 0;
#X obj 213 22 inlet;
#X floatatom 114 282 5 0 0 0 - - -;
#X obj 465 431 hsl 128 15 0 1 0 0 empty empty empty -2 -8 0 10 -262144
-1 -1 0 1;
#N canvas 1366 236 377 287 servo 0;
#X obj 133 1 inlet;
#X floatatom 135 166 8 0 0 0 - - -;
#X obj 138 140 hsl 128 15 0 40000 0 0 empty empty empty -2 -8 0 10
-262144 -1 -1 1900 1;
#X obj 133 50 unpack f f;
#X msg 133 25 \$1 0;
#X msg 96 98 0;
#X obj 105 75 sel -1;
#X obj 221 31 inlet;
#X obj 261 31 inlet;
#X obj 261 54 t b f;
#X obj 134 94 f;
#X obj 214 56 t b f;
#X obj 135 191 pack f 0;
#X obj 135 213 outlet;
#X obj 135 118 maxlib/scale 0 1 3300 4000;
#X connect 0 0 4 0;
#X connect 1 0 12 0;
#X connect 2 0 1 0;
#X connect 3 0 6 0;
#X connect 3 1 12 1;
#X connect 4 0 3 0;
#X connect 5 0 12 0;
#X connect 6 0 5 0;
#X connect 6 1 10 0;
#X connect 7 0 11 0;
#X connect 8 0 9 0;
#X connect 9 0 10 0;
#X connect 9 1 14 4;
#X connect 10 0 14 0;
#X connect 11 0 10 0;
#X connect 11 1 14 3;
#X connect 12 0 13 0;
#X connect 14 0 2 0;
#X restore 462 489 pd servo;
#X obj 487 452 hsl 128 15 0 20000 0 1 empty empty empty -2 -8 0 10
-262144 -1 -1 3800 1;
#X obj 487 468 hsl 128 15 0 20000 0 1 empty empty empty -2 -8 0 10
-262144 -1 -1 5000 1;
#X obj 199 436 hsl 128 15 0 1 0 0 empty empty empty -2 -8 0 10 -262144
-1 -1 0 1;
#X obj 295 415 hsl 128 15 0 25000 0 0 empty empty empty -2 -8 0 10
-262144 -1 -1 2429 1;
#X obj 282 361 mtof;
#X floatatom 211 335 5 0 0 0 - - -;
#X obj 314 361 hsl 128 15 0.01 10 1 1 empty empty empty -2 -8 0 10
-262144 -1 -1 11400 1;
#X obj 292 388 m;
#X obj 231 239 sel -1;
#X obj 390 212 != -1;
#X obj 390 259 sel 0 1;
#X msg 390 320 0;
#X msg 440 298 1;
#X msg 399 279 stop;
#X obj 421 319 change;
#X obj 409 50 random 10;
#X obj 409 114 gamme 90 40 1 0 1 0 1 1 1 0 0 1 0 1;
#X obj 409 70 + 3;
#X obj 241 212 f;
#X obj 409 25 r \$0-donote;
#X obj 486 38 bng 15 250 50 0 empty empty empty 17 7 0 10 -262144 -1
-1;
#X msg 140 225 -1;
#X obj 331 302 del 2000;
#X msg 332 323 0;
#X msg 358 322 -1;
#X floatatom 228 387 8 0 0 0 - - -;
#X obj 462 375 * 0.5;
#X obj 437 68 hradio 15 1 0 12 empty empty empty 0 -8 0 10 -262144
-1 -1 0;
#X msg 474 253 10;
#X msg 466 231 150;
#X obj 469 93 r \$0-gamme;
#X msg 409 92 get 5 \$1;
#X msg 475 273 300;
#X obj 390 236 change;
#X obj 390 300 del 1;
#X obj 482 344 t b f;
#X obj 241 135 r \$0-allnoteu;
#X floatatom 167 88 5 0 0 0 - - -;
#X obj 119 121 sel -1;
#X obj 320 339 bng 15 250 50 0 empty empty empty 17 7 0 10 -262144
-1 -1;
#X obj 161 201 spigot;
#X obj 213 72 pipe 1;
#X obj 194 173 != -1;
#X obj 460 406 change;
#X obj 211 311 r \$0-accordage-snd;
#X floatatom 144 372 5 0 0 0 - - -;
#X obj 102 24 r \$1-Key;
#X obj 482 299 r \$1-Reverb;
#X obj 176 314 ++;
#X msg 317 270 4.93075;
#X obj 17 409 StrobeGratte \$0 Uku2 1 80 1000;
#X obj 242 515 PwmSpeedServo Uku2 132 131 20;
#X msg 541 388 6614.17;
#X msg 617 386 7716.54;
#X obj 176 344 + 24;
#X obj 33 150 s \$0-Key;
#X connect 0 0 45 0;
#X connect 2 0 3 0;
#X connect 3 0 55 2;
#X connect 4 0 3 1;
#X connect 5 0 3 2;
#X connect 6 0 55 0;
#X connect 7 0 55 1;
#X connect 8 0 11 0;
#X connect 10 0 11 1;
#X connect 11 0 7 0;
#X connect 12 1 52 0;
#X connect 13 0 37 0;
#X connect 14 0 38 0;
#X connect 14 1 17 0;
#X connect 14 1 16 0;
#X connect 15 0 18 0;
#X connect 16 0 18 0;
#X connect 17 0 26 0;
#X connect 17 0 38 0;
#X connect 18 0 30 0;
#X connect 19 0 21 0;
#X connect 21 0 35 0;
#X connect 22 0 12 0;
#X connect 22 0 13 0;
#X connect 23 0 19 0;
#X connect 24 0 19 0;
#X connect 25 0 22 0;
#X connect 26 0 27 0;
#X connect 26 0 28 0;
#X connect 27 0 55 1;
#X connect 28 0 3 0;
#X connect 30 0 47 0;
#X connect 31 0 19 1;
#X connect 32 0 38 1;
#X connect 33 0 38 1;
#X connect 34 0 20 0;
#X connect 35 0 20 0;
#X connect 36 0 38 1;
#X connect 37 0 14 0;
#X connect 38 0 15 0;
#X connect 38 0 26 0;
#X connect 39 0 30 0;
#X connect 39 1 30 1;
#X connect 40 0 22 0;
#X connect 42 0 25 0;
#X connect 43 0 10 0;
#X connect 44 0 22 0;
#X connect 45 0 44 0;
#X connect 46 0 44 1;
#X connect 47 0 2 0;
#X connect 48 0 52 1;
#X connect 48 0 9 0;
#X connect 50 0 1 0;
#X connect 50 0 42 0;
#X connect 50 0 46 0;
#X connect 50 0 59 0;
#X connect 51 0 39 0;
#X connect 52 0 54 0;
#X connect 52 0 58 0;
#X connect 53 0 10 0;
#X connect 56 0 4 0;
#X connect 57 0 5 0;
#X connect 58 0 8 0;
#X restore 99 162 pd MECANIC;
#N canvas 98 775 553 407 Gamme 0;
#X obj 156 227 r GAMME1;
#X obj 235 227 r GAMME2;
#X obj 156 248 f;
#X obj 235 248 f;
#X obj 156 269 spigot;
#X obj 235 271 spigot;
#X msg 84 230 4095;
#X obj 84 339 outlet;
#X obj 84 249 spigot;
#X obj 90 208 t b f;
#X obj 90 187 == 0;
#X obj 162 206 t b f;
#X obj 241 206 t b f;
#X obj 162 185 == 1;
#X obj 241 185 == 2;
#X floatatom 90 148 5 0 0 0 - - -;
#X obj 90 62 r \$1-gam0;
#X obj 90 85 sel 1;
#X msg 90 106 0;
#X obj 157 85 sel 1;
#X obj 221 85 sel 1;
#X obj 157 62 r \$1-gam1;
#X obj 221 62 r \$1-gam2;
#X msg 157 106 1;
#X msg 221 106 2;
#X obj 320 108 loadbang;
#X msg 320 129 0 \, 1;
#X connect 0 0 2 0;
#X connect 1 0 3 0;
#X connect 2 0 4 0;
#X connect 3 0 5 0;
#X connect 4 0 7 0;
#X connect 5 0 7 0;
#X connect 6 0 8 0;
#X connect 8 0 7 0;
#X connect 9 0 6 0;
#X connect 9 1 8 1;
#X connect 10 0 9 0;
#X connect 11 0 2 0;
#X connect 11 1 4 1;
#X connect 12 0 3 0;
#X connect 12 1 5 1;
#X connect 13 0 11 0;
#X connect 14 0 12 0;
#X connect 15 0 10 0;
#X connect 15 0 13 0;
#X connect 15 0 14 0;
#X connect 16 0 17 0;
#X connect 17 0 18 0;
#X connect 18 0 15 0;
#X connect 19 0 23 0;
#X connect 20 0 24 0;
#X connect 21 0 19 0;
#X connect 22 0 20 0;
#X connect 23 0 15 0;
#X connect 24 0 15 0;
#X connect 25 0 26 0;
#X connect 26 0 15 0;
#X restore 456 26 pd Gamme;
#X obj 78 215 blosc~ saw 80;
#X obj 168 204 mtof;
#X obj 272 240 blosc~ saw 80;
#X obj 387 442 hsl 128 15 -1 1 0 1 \$0-accordage-snd \$0-accordage-rcv
Accordage -2 -8 0 10 -258113 -1 -1 4396 1;
#X obj 79 139 MeloGamme \$0 10 81 15 \$1;
#X obj 168 176 MeloGamme \$0 10 81 15 \$1;
#X obj 283 145 MeloGamme \$0 10 81 15 \$1;
#X connect 0 0 37 0;
#X connect 2 0 65 0;
#X connect 3 0 57 0;
#X connect 4 0 81 0;
#X connect 7 0 8 0;
#X connect 8 0 6 0;
#X connect 9 0 2 1;
#X connect 9 0 26 0;
#X connect 10 0 17 0;
#X connect 11 0 0 0;
#X connect 11 0 77 0;
#X connect 13 0 2 0;
#X connect 14 0 34 0;
#X connect 15 0 19 0;
#X connect 16 0 11 1;
#X connect 17 0 16 0;
#X connect 18 0 11 2;
#X connect 19 0 18 0;
#X connect 20 0 21 0;
#X connect 20 0 38 0;
#X connect 20 0 41 0;
#X connect 21 0 2 0;
#X connect 22 0 28 0;
#X connect 23 0 21 1;
#X connect 24 0 87 0;
#X connect 25 0 86 0;
#X connect 26 0 30 1;
#X connect 28 0 31 0;
#X connect 29 0 43 1;
#X connect 30 0 11 0;
#X connect 31 0 26 1;
#X connect 32 0 25 0;
#X connect 33 0 24 0;
#X connect 34 0 10 0;
#X connect 35 0 30 0;
#X connect 36 0 76 0;
#X connect 37 0 1 0;
#X connect 37 0 36 0;
#X connect 38 0 2 1;
#X connect 39 0 40 0;
#X connect 40 0 51 0;
#X connect 41 0 44 0;
#X connect 42 0 52 0;
#X connect 43 0 83 0;
#X connect 44 0 43 0;
#X connect 45 0 47 0;
#X connect 46 0 44 1;
#X connect 47 0 48 0;
#X connect 47 1 46 0;
#X connect 48 0 46 0;
#X connect 50 0 51 1;
#X connect 51 0 38 1;
#X connect 52 0 53 0;
#X connect 53 0 41 1;
#X connect 55 0 27 0;
#X connect 56 0 55 1;
#X connect 57 0 55 0;
#X connect 58 0 36 1;
#X connect 59 0 62 0;
#X connect 60 0 59 0;
#X connect 60 0 61 0;
#X connect 61 0 63 0;
#X connect 65 0 11 0;
#X connect 76 0 1 0;
#X connect 77 0 0 0;
#X connect 80 0 60 0;
#X connect 81 0 13 0;
#X connect 82 0 20 0;
#X connect 83 0 35 0;
#X connect 85 0 4 0;
#X connect 85 0 79 0;
#X connect 86 0 82 0;
#X connect 87 0 29 0;
#X restore 97 126 pd ALLSOUND_Uku;
#N canvas 550 775 450 456 keyboardmono 0;
#X obj 74 109 tgl 15 0 empty empty empty 17 7 0 10 -262144 -1 -1 0
1;
#X obj 92 110 tgl 15 0 empty empty empty 17 7 0 10 -262144 -1 -1 0
1;
#X obj 110 110 tgl 15 0 empty empty empty 17 7 0 10 -262144 -1 -1 0
1;
#X obj 130 110 tgl 15 0 empty empty empty 17 7 0 10 -262144 -1 -1 0
1;
#X obj 101 135 * 2;
#X obj 73 135 * 1;
#X obj 165 156 t b f;
#X obj 160 178 +;
#X obj 117 184 t b f;
#X obj 112 206 +;
#X obj 72 203 t b f;
#X obj 56 226 +;
#X obj 136 135 * 4;
#X obj 171 135 * 8;
#X obj 56 247 sel 0;
#X obj 83 268 t b f;
#X obj 83 309 f;
#X msg 49 270 stop;
#X obj 83 289 del 25;
#X msg 24 290 -1;
#X obj 83 350 s \$1-keyboardmono;
#X obj 74 27 r \$1-N1;
#X obj 92 47 r \$1-N2;
#X obj 154 227 r \$1-keyboardmono;
#X obj 154 289 s \$1-Key;
#X obj 154 255 MR_table \$1 table5 \$1 \$2 \$3MR5 1 -1;
#X obj 361 229 r \$1-Rec;
#X floatatom 271 175 5 0 0 0 - - -;
#X obj 110 66 r \$1-N4;
#X obj 130 86 r \$1-N8;
#X floatatom 125 332 5 0 0 0 - - -;
#X connect 0 0 5 0;
#X connect 1 0 4 0;
#X connect 2 0 12 0;
#X connect 3 0 13 0;
#X connect 4 0 9 0;
#X connect 5 0 11 0;
#X connect 6 0 7 0;
#X connect 6 1 7 1;
#X connect 7 0 8 0;
#X connect 8 0 9 0;
#X connect 8 1 9 1;
#X connect 9 0 10 0;
#X connect 10 0 11 0;
#X connect 10 1 11 1;
#X connect 11 0 14 0;
#X connect 12 0 7 0;
#X connect 13 0 6 0;
#X connect 14 0 17 0;
#X connect 14 0 19 0;
#X connect 14 1 15 0;
#X connect 15 0 18 0;
#X connect 15 1 16 1;
#X connect 16 0 20 0;
#X connect 16 0 30 0;
#X connect 17 0 18 0;
#X connect 18 0 16 0;
#X connect 19 0 16 0;
#X connect 21 0 0 0;
#X connect 22 0 1 0;
#X connect 23 0 25 0;
#X connect 25 0 24 0;
#X connect 25 0 27 0;
#X connect 26 0 25 1;
#X connect 28 0 2 0;
#X connect 29 0 3 0;
#X restore 218 208 pd keyboardmono;
#X connect 0 0 1 0;
#X connect 2 0 12 0;
#X connect 3 0 2 0;
#X connect 8 0 7 0;
#X connect 9 0 0 1;
#X connect 10 0 4 0;
#X connect 10 0 5 0;
#X connect 13 0 0 0;
#X restore 106 67 pd son;
#X obj 57 675 KEPCommon \$1 \$0;
#X obj 54 22 MASTERtypeNO_IN \$0;
#X obj 54 110 MASTERtypeOUT \$1 1;
#X obj 177 223 tgl 15 1 empty empty empty 17 7 0 10 -262144 -1 -1 1
1;
#X obj 176 241 switch~;
#X obj 177 200 mainDSPswitch \$1;
#X obj 176 275 Instru2Net \$1;
#X obj 176 315 fruit/fruit 1 Uku2 104 Uku2;
#X connect 3 0 7 0;
#X connect 4 0 7 1;
#X connect 6 0 9 0;
#X connect 10 0 11 0;
#X connect 12 0 10 0;
#X coords 0 -1 1 1 42 656 2 50 10;
