#N canvas 681 79 499 689 10;
#X declare -lib aubio -path aubio;
#X obj 1 1 cnv 15 40 654 empty empty \$1 1 5 1 8 -257985 -1 0;
#X text -27 -26 KEPtype nomUnique;
#X obj 9 662 KEPCommon \$1;
#X obj 8 643 bng 10 250 50 0 empty empty empty 17 7 0 10 -4034 -1 -1
;
#X obj 25 643 bng 10 250 50 0 empty empty empty 17 7 0 10 -258113 -1
-1;
#X obj 4 12 MASTERtypeIN \$1 1;
#N canvas 510 755 347 661 KEPboutons 0;
#X obj 26 78 KEPbus \$1 Effet Dir-in b3;
#X obj 25 100 KEPbus \$1 Reverb Reverb_max b4;
#X obj 25 122 KEPbus \$1 Volume Volume_max b5;
#X obj 31 163 KEPbus \$1 Recloop -t1- t1;
#X obj 31 184 KEPbus \$1 1way -t2- t2;
#X obj 32 205 KEPbus \$1 Ajoute -t3- t3;
#X obj 33 227 KEPbus \$1 tOver -t4- t4;
#X obj 32 251 KEPbus \$1 REC -tR- tREC;
#X obj 35 285 KEPbus \$1 l1 -l1- tl1;
#X obj 35 308 KEPbus \$1 l2 -l2- tl2;
#X obj 37 330 KEPbus \$1 l3 -l3- tl3;
#X obj 37 351 KEPbus \$1 l4 -l4- tl4;
#X obj 32 376 KEPbus \$1 lR -lR- tlREC;
#X obj 168 280 KEPbus \$1 lr -lr- lrouge;
#X obj 168 303 KEPbus \$1 lv -lv- lvert;
#X obj 27 55 KEPbus \$1 VolMix ___ b2;
#X obj 27 34 KEPbus \$1 Tss Vitesse_max b1;
#X restore 91 335 pd KEPboutons;
#X obj 57 0 KEPface \$1;
#X obj 4 100 MASTERtypeOUT \$1 1;
#X obj 115 95 r \$1-Volume;
#X obj 115 116 Vcurve;
#X obj 115 138 m;
#X obj 168 121 r \$1-Volume_max;
#X obj 82 165 mull~ 0 10;
#X obj 105 293 bng 15 250 50 0 empty empty empty 17 7 0 10 -262144
-1 -1;
#X obj 86 240 aubiotempo~ 0.3;
#X floatatom 188 299 5 0 0 0 - - -;
#X obj 97 474 dirac~;
#X obj 151 428 s aubiotempo;
#X msg 119 446 10;
#X obj 219 251 bng 15 250 50 0 empty empty empty 17 7 0 10 -262144
-1 -1;
#X msg 118 209 0;
#X msg 280 257 0.1;
#X msg 281 283 1;
#X msg 290 305 10;
#X msg 286 337 0.3;
#X msg 294 358 0.2;
#X obj 229 590 bonk~;
#X obj 212 221 aubioonset~ 0.3;
#X obj 163 483 dirac~;
#X obj 182 531 lop~ 5000;
#X obj 80 535 mull~ 0.5 10;
#X obj 242 135 r \$1-VolMix;
#X floatatom 258 455 5 0 0 0 - - -;
#X obj 171 163 mull~ 0 10;
#X obj 166 702 r \$1-Tss;
#X obj 130 724 mull~ 0 10;
#X obj 98 597 aubioquiet~ 0.3;
#X obj 95 629 bng 15 250 50 0 empty empty empty 17 7 0 10 -262144 -1
-1;
#X obj 200 621 bng 15 250 50 0 empty empty empty 17 7 0 10 -262144
-1 -1;
#X obj 176 646 aubiozcr~ 0.3;
#X obj 195 668 aubiopitch~ 0.3;
#X obj 314 54 tgl 15 1 empty empty empty 17 7 0 10 -262144 -1 -1 1
1;
#X obj 313 72 switch~;
#X obj 314 31 mainDSPswitch \$1;
#X obj 221 483 declare -lib aubio -path aubio;
#X connect 3 0 2 0;
#X connect 4 0 2 1;
#X connect 5 0 34 0;
#X connect 5 0 15 0;
#X connect 5 0 28 0;
#X connect 5 0 37 0;
#X connect 9 0 10 0;
#X connect 10 0 11 0;
#X connect 11 0 13 1;
#X connect 12 0 11 1;
#X connect 13 0 8 0;
#X connect 14 0 29 0;
#X connect 15 0 14 0;
#X connect 15 1 16 0;
#X connect 17 0 31 0;
#X connect 19 0 17 0;
#X connect 20 0 17 0;
#X connect 21 0 15 1;
#X connect 22 0 15 1;
#X connect 23 0 15 1;
#X connect 24 0 15 1;
#X connect 25 0 15 1;
#X connect 26 0 15 1;
#X connect 28 0 20 0;
#X connect 29 0 30 0;
#X connect 30 0 13 0;
#X connect 31 0 13 0;
#X connect 32 0 34 1;
#X connect 34 0 13 0;
#X connect 35 0 36 1;
#X connect 36 0 8 0;
#X connect 37 0 38 0;
#X connect 37 1 39 0;
#X connect 42 0 43 0;
#X connect 44 0 42 0;
#X coords 0 -1 1 1 42 656 2 0 0;
