#N canvas 956 79 410 689 10;
#X obj 51 11 cnv 15 40 654 empty empty \$1 1 5 1 8 -257985 -1 0;
#X text 23 -16 KEPtype nomUnique;
#X obj 151 7 KEPface \$1;
#X obj 58 653 bng 10 250 50 0 empty empty empty 17 7 0 10 -4034 -1
-1;
#X obj 75 653 bng 10 250 50 0 empty empty empty 17 7 0 10 -258113 -1
-1;
#N canvas 938 1190 311 592 KEPboutons 0;
#X obj 26 78 KEPbus \$1 Effet Decay b3;
#X obj 32 163 KEPbus \$1 N1 -t1- t1;
#X obj 30 184 KEPbus \$1 N2 -t2- t2;
#X obj 32 251 KEPbus \$1 Rec -tL- tREC;
#X obj 31 206 KEPbus \$1 N4 -t3- t3;
#X obj 32 227 KEPbus \$1 N8 -t4- t4;
#X obj 27 34 KEPbus \$1 Note Note_adjust b1;
#X obj 27 55 KEPbus \$1 Phrases Phrases_vitesse b2;
#X obj 25 275 KEPbus \$1 l1 -l1- tl1;
#X obj 25 298 KEPbus \$1 l2 -l2- tl2;
#X obj 27 320 KEPbus \$1 l3 -l3- tl3;
#X obj 27 341 KEPbus \$1 l4 -l4- tl4;
#X obj 22 366 KEPbus \$1 lR -lR- tlREC;
#X obj 158 270 KEPbus \$1 lr -lr- lrouge;
#X obj 158 293 KEPbus \$1 lv -lv- lvert;
#X obj 26 100 KEPbus \$1 Reverb Reverb b4;
#X obj 25 121 KEPbus \$1 Volume Volume b5;
#X restore 174 404 pd KEPboutons;
#N canvas 1800 142 572 327 son 0;
#N canvas 1968 84 739 813 ALLSOUND 0;
#X obj 19 317 lop~ 3000;
#X obj 21 766 outlet~;
#X obj 16 117 inlet;
#X obj 18 429 +~;
#X obj 19 455 *~ 2;
#X obj 20 745 hip~ 10;
#X obj 201 588 *~ 20;
#X obj 114 438 r \$1-Reverb;
#X msg 392 297 100;
#X floatatom 349 163 5 0 0 0 - - -;
#X obj 338 27 r \$1-Note;
#X obj 338 53 * 80;
#X obj 338 75 ++;
#X obj 370 52 r \$1-Key;
#X obj 609 33 cnv 15 72 20 empty empty gam 0 4 1 12 -260818 -1 0;
#X obj 640 33 mknob 12 100 0 1 0 0 \$0-adj-snd \$0-adj-rcv adj -2 16
1 8 -44926 -1 -1 0 1;
#X obj 619 45 tgl 8 0 \$0-gamprepost-snd \$0-gamprepost-rcv empty 0
-6 0 8 -44926 -1 -1 0 1;
#X obj 657 33 mknob 12 100 0 1 0 0 \$0-gamnum-snd \$0-gamnum-rcv off
-2 16 1 8 -62784 -1 -1 0 1;
#X obj 610 9 cnv 15 35 20 empty empty pitch 0 5 1 10 -24198 -258699
0;
#X obj 617 16 mknob 15 100 0 1 0 0 \$0-pitch-snd \$0-pitch-rcv empty
-2 -6 0 8 -241291 -1 -262144 0 1;
#X floatatom 376 95 5 0 0 0 - - -;
#X obj 369 74 r \$1-Phrases;
#N canvas 541 1192 450 456 keyboardmono 0;
#X obj 74 -7764 tgl 15 0 empty empty empty 17 7 0 10 -262144 -1 -1
0 1;
#X obj 92 -7763 tgl 15 0 empty empty empty 17 7 0 10 -262144 -1 -1
0 1;
#X obj 110 -7763 tgl 15 0 empty empty empty 17 7 0 10 -262144 -1 -1
0 1;
#X obj 130 -7763 tgl 15 0 empty empty empty 17 7 0 10 -262144 -1 -1
0 1;
#X obj 101 -7738 * 2;
#X obj 73 -7738 * 1;
#X obj 165 -7717 t b f;
#X obj 160 -7695 +;
#X obj 117 -7689 t b f;
#X obj 112 -7667 +;
#X obj 72 -7670 t b f;
#X obj 56 -7647 +;
#X obj 136 -7738 * 4;
#X obj 171 -7738 * 8;
#X obj 56 -7626 sel 0;
#X obj 83 -7605 t b f;
#X obj 83 -7564 f;
#X msg 49 -7603 stop;
#X obj 83 -7584 del 25;
#X msg 24 -7583 -1;
#X obj 83 -7523 s \$1-keyboardmono;
#X obj 74 -7846 r \$1-N1;
#X obj 92 -7826 r \$1-N2;
#X obj 154 -7646 r \$1-keyboardmono;
#X obj 154 -7584 s \$1-Key;
#X obj 154 -7618 MR_table \$1 table5 \$1 \$2 \$3MR5 1 -1;
#X obj 361 -7644 r \$1-Rec;
#X floatatom 271 -7698 5 0 0 0 - - -;
#X obj 110 -7807 r \$1-N4;
#X obj 130 -7787 r \$1-N8;
#X floatatom 125 -7541 5 0 0 0 - - -;
#X connect 0 0 5 0;
#X connect 1 0 4 0;
#X connect 2 0 12 0;
#X connect 3 0 13 0;
#X connect 4 0 9 0;
#X connect 5 0 11 0;
#X connect 6 0 7 0;
#X connect 6 1 7 1;
#X connect 7 0 8 0;
#X connect 8 0 9 0;
#X connect 8 1 9 1;
#X connect 9 0 10 0;
#X connect 10 0 11 0;
#X connect 10 1 11 1;
#X connect 11 0 14 0;
#X connect 12 0 7 0;
#X connect 13 0 6 0;
#X connect 14 0 17 0;
#X connect 14 0 19 0;
#X connect 14 1 15 0;
#X connect 15 0 18 0;
#X connect 15 1 16 1;
#X connect 16 0 20 0;
#X connect 16 0 30 0;
#X connect 17 0 18 0;
#X connect 18 0 16 0;
#X connect 19 0 16 0;
#X connect 21 0 0 0;
#X connect 22 0 1 0;
#X connect 23 0 25 0;
#X connect 25 0 24 0;
#X connect 25 0 27 0;
#X connect 26 0 25 1;
#X connect 28 0 2 0;
#X connect 29 0 3 0;
#X restore 217 148 pd keyboardmono;
#N canvas 1726 485 450 300 env&juste 0;
#X obj 232 141 > 0.95;
#X obj 232 164 change;
#X obj 232 187 + 2;
#X obj 233 208 / 3;
#X obj 235 235 s \$1-gamnum-rcv;
#X obj 232 120 r \$1-juste-snd;
#X obj 41 135 r Gammes;
#X obj 40 177 del 1;
#X obj 41 157 b;
#X obj 40 198 s \$1-juste-rcv;
#X obj 63 43 mknob 25 100 0 1 0 0 \$1-juste-snd \$1-juste-rcv juste
-2 -6 1 8 -262144 -1 -1 9900 1;
#X obj 115 30 r \$1-setap-snd;
#X obj 117 56 route _loaded_;
#X obj 118 78 b;
#X obj 117 98 init 1;
#X obj 25 43 mknob 25 100 0 1 0 0 \$1-env-snd \$1-env-rcv env -2 -6
1 8 -262144 -1 -1 0 1;
#X obj 29 77 init 0;
#X obj 236 25 param \$1 SETTING env;
#X obj 237 49 param \$1 SETTING juste;
#X connect 0 0 1 0;
#X connect 1 0 2 0;
#X connect 2 0 3 0;
#X connect 3 0 4 0;
#X connect 5 0 0 0;
#X connect 6 0 8 0;
#X connect 7 0 9 0;
#X connect 8 0 7 0;
#X connect 11 0 12 0;
#X connect 12 0 13 0;
#X connect 13 0 14 0;
#X connect 14 0 10 0;
#X connect 16 0 15 0;
#X coords 0 -1 1 1 85 60 1 10 10;
#X restore 210 368 pd env&juste;
#N canvas 244 392 991 295 MRTABLES 0;
#X floatatom 40 183 5 0 0 0 - - -;
#X obj 105 191 hsl 128 15 0 1 0 0 empty empty empty -2 -6 0 8 -262144
-1 -1 0 1;
#X obj 459 95 r \$1-Reverb-snd;
#X obj 678 92 r \$1-Select-snd;
#X obj 894 100 r \$1-Vol-snd;
#X obj 894 126 s \$1-Vol;
#X obj 678 154 s \$1-Select;
#X obj 460 155 s \$1-Reverb;
#X obj 17 44 r \$1-Play-snd;
#X obj 15 150 s \$1-Play;
#X obj 239 36 r \$1-Note-snd;
#X obj 304 169 s \$1-Note;
#N canvas 109 389 382 377 keybd 0;
#X obj 19 23 inlet;
#X obj 146 19 r \$0-keyboardmono;
#X obj 146 43 != -1;
#X obj 189 238 tgl 15 0 empty empty empty 0 -6 0 8 -262144 -1 -1 0
1;
#X obj 189 289 f;
#X obj 44 336 outlet;
#X obj 44 295 line;
#X msg 233 139 stop;
#X msg 217 290 1;
#X obj 146 67 t f f;
#X obj 63 204 f;
#X obj 176 91 sel 1 0;
#X msg 189 140 set 0;
#X obj 189 261 sel 0 1;
#X obj 282 72 r \$1-clock;
#X obj 231 235 spigot;
#X obj 109 87 tgl 15 0 empty empty empty 0 -6 0 8 -262144 -1 -1 0 1
;
#X obj 231 213 b;
#X msg 63 226 \$1 \, 1 100;
#X obj 281 200 unpack f f;
#X obj 189 314 pack f 125;
#X obj 317 226 / 4;
#X obj 231 169 ndmetro 2 8;
#X obj 231 190 sel 1;
#X connect 0 0 4 1;
#X connect 0 0 6 0;
#X connect 0 0 10 1;
#X connect 1 0 2 0;
#X connect 2 0 9 0;
#X connect 3 0 13 0;
#X connect 4 0 20 0;
#X connect 6 0 5 0;
#X connect 7 0 6 0;
#X connect 8 0 20 0;
#X connect 9 0 15 1;
#X connect 9 0 16 0;
#X connect 9 1 11 0;
#X connect 10 0 18 0;
#X connect 11 0 10 0;
#X connect 11 1 7 0;
#X connect 11 1 12 0;
#X connect 12 0 3 0;
#X connect 13 0 4 0;
#X connect 13 1 8 0;
#X connect 14 0 19 0;
#X connect 14 0 22 0;
#X connect 15 0 3 0;
#X connect 17 0 15 0;
#X connect 18 0 6 0;
#X connect 19 1 21 0;
#X connect 20 0 6 0;
#X connect 21 0 20 1;
#X connect 22 0 23 0;
#X connect 23 0 17 0;
#X restore 17 75 pd keybd;
#N canvas 1 1220 239 239 keyb 0;
#X obj 84 18 r \$0-keyboardmono;
#X obj 20 18 inlet;
#X obj 84 201 outlet;
#X obj 132 53 sel -1;
#X obj 169 75 / 28;
#X obj 169 97 - 0.25;
#X obj 84 60 != -1;
#X obj 84 80 metro 125;
#X obj 84 39 t f f;
#X obj 84 103 t b b;
#X msg 114 124 -2;
#X obj 84 170 + 0.5;
#X connect 0 0 8 0;
#X connect 1 0 2 0;
#X connect 1 0 11 1;
#X connect 3 1 4 0;
#X connect 4 0 5 0;
#X connect 5 0 11 0;
#X connect 6 0 7 0;
#X connect 7 0 9 0;
#X connect 8 0 6 0;
#X connect 8 1 3 0;
#X connect 9 0 11 0;
#X connect 9 1 10 0;
#X connect 10 0 2 0;
#X connect 11 0 2 0;
#X restore 239 65 pd keyb;
#X obj 239 146 moses -0.5;
#X obj 589 206 r \$1-keyboardmono;
#X obj 589 268 s \$1-Key;
#X obj 460 121 MR_table \$1 table3 \$1 \$2 \$3MR3;
#X obj 589 234 MR_table \$1 table5 \$1 \$2 \$3MR5 1 -1;
#X obj 17 123 MR_table \$1 table1 \$1 \$2 \$3MR1 1;
#X obj 239 121 MR_table \$1 table2 \$1 \$2 \$3MR2 1;
#X obj 678 120 MR_table \$1 table4 \$1 \$2 \$3MR4 1;
#X obj 371 35 r \$1-Rec;
#X connect 0 0 1 0;
#X connect 2 0 17 0;
#X connect 3 0 21 0;
#X connect 4 0 5 0;
#X connect 8 0 12 0;
#X connect 10 0 13 0;
#X connect 12 0 19 0;
#X connect 13 0 20 0;
#X connect 14 1 11 0;
#X connect 15 0 18 0;
#X connect 17 0 7 0;
#X connect 18 0 16 0;
#X connect 19 0 9 0;
#X connect 20 0 14 0;
#X connect 21 0 6 0;
#X connect 22 0 17 1;
#X connect 22 0 18 1;
#X connect 22 0 19 1;
#X connect 22 0 20 1;
#X connect 22 0 21 1;
#X restore 90 744 pd MRTABLES;
#X floatatom 471 95 5 0 0 0 - - -;
#X obj 338 137 ++;
#X obj 462 73 r \$1-Phrases_vitesse;
#X obj 407 205 r \$1-Note_adjust;
#N canvas 1 1259 381 330 Gamme 0;
#N canvas 495 74 450 382 i2l 0;
#X obj 221 41 inlet;
#X obj 221 243 outlet;
#X obj 221 90 for++ 0 11;
#X obj 221 62 t b f;
#X obj 251 133 f;
#X obj 251 156 & 1;
#X obj 280 133 >> 1;
#X obj 221 111 t f b;
#X obj 221 184 pack f f;
#X obj 145 243 print;
#X msg 167 71 1625;
#X msg 221 213 set \$1 \$2;
#X connect 0 0 3 0;
#X connect 2 0 7 0;
#X connect 3 0 2 0;
#X connect 3 1 4 1;
#X connect 4 0 5 0;
#X connect 4 0 6 0;
#X connect 5 0 8 1;
#X connect 6 0 4 1;
#X connect 7 0 8 0;
#X connect 7 1 4 0;
#X connect 8 0 11 0;
#X connect 10 0 3 0;
#X connect 11 0 1 0;
#X restore 19 177 pd i2l;
#X obj 19 56 r Gammes;
#X obj 19 154 unpack f f;
#X obj 177 16 r \$0-gamnum-snd;
#X obj 177 36 * 3.9;
#X obj 177 57 i;
#X msg 221 196 label \$1;
#X obj 221 218 s \$0-gamnum-rcv;
#X obj 177 76 change -1;
#X obj 221 175 makesymbol gam%s;
#X obj 177 96 sel 0 1;
#X obj 221 155 - 1;
#X msg 177 115 label off;
#X msg 199 135 label semi;
#X obj 80 222 tabread Gammestab;
#X obj 152 155 * 2;
#X obj 98 262 tabread Gammestab;
#X obj 98 242 + 1;
#X msg 99 154 4095 0;
#X obj 19 90 unwonk f;
#X obj 19 133 l;
#X floatatom 166 190 5 0 0 0 - - -;
#X msg 83 115 -1;
#X obj 122 114 sel 0 1;
#X obj 152 135 - 2;
#X obj 19 111 sel 0;
#X obj 19 198 s \$0-setgam;
#X obj 84 299 s \$0-transgam;
#X obj 256 95 s \$0-ongam;
#X connect 0 0 26 0;
#X connect 1 0 19 0;
#X connect 2 0 0 0;
#X connect 2 1 27 0;
#X connect 3 0 4 0;
#X connect 4 0 5 0;
#X connect 5 0 8 0;
#X connect 6 0 7 0;
#X connect 8 0 10 0;
#X connect 8 0 23 0;
#X connect 8 0 28 0;
#X connect 9 0 6 0;
#X connect 10 0 12 0;
#X connect 10 1 13 0;
#X connect 10 2 11 0;
#X connect 11 0 9 0;
#X connect 12 0 7 0;
#X connect 13 0 7 0;
#X connect 14 0 0 0;
#X connect 15 0 14 0;
#X connect 15 0 17 0;
#X connect 16 0 27 0;
#X connect 17 0 16 0;
#X connect 18 0 2 0;
#X connect 19 0 25 0;
#X connect 19 1 20 1;
#X connect 20 0 2 0;
#X connect 22 0 25 1;
#X connect 23 0 18 0;
#X connect 23 0 22 0;
#X connect 23 1 18 0;
#X connect 23 1 22 0;
#X connect 23 2 24 0;
#X connect 24 0 15 0;
#X connect 24 0 21 0;
#X connect 24 0 25 1;
#X connect 25 0 20 0;
#X restore 143 82 pd Gamme;
#X obj 240 115 s \$1-lvert;
#X obj 369 115 notemodrcvphrase \$0 \$1;
#X obj 543 157 l notemodrcv \$0 \$1;
#X obj 20 483 mull~ 1 10;
#X floatatom 204 324 5 0 0 0 - - -;
#X obj 55 614 mull~ 1 10;
#X obj 19 587 +~;
#X obj 21 720 +~;
#X obj 67 506 mull~ 1 10;
#X obj 566 301 l param \$1 SETTING gamnum;
#X obj 564 193 l param \$1 FX volnoise;
#X obj 566 256 l param \$1 FX f;
#X obj 566 278 l param \$1 FX env2f;
#N canvas 1648 463 450 300 env 0;
#X obj 32 16 inlet~;
#X obj 36 279 outlet~;
#X obj 80 188 ead~ 1 100;
#X obj 154 128 mknob 25 100 0 1 0 0 \$1-r-snd \$1-r-rcv r -2 -6 1 8
-262144 -1 -1 9900 1;
#X obj 109 131 mknob 25 100 0 1 0 0 \$1-a-snd \$1-a-rcv a -2 -6 1 8
-262144 -1 -1 0 1;
#N canvas 2047 495 294 218 shiftcon 0;
#X obj 30 40 inlet;
#X obj 135 32 inlet;
#X text 136 15 shift;
#X obj 135 53 t f f;
#X obj 30 106 f;
#X obj 128 98 spigot;
#X obj 67 109 == 0;
#X obj 30 132 spigot;
#X obj 165 75 != 0;
#X obj 45 180 outlet;
#X obj 79 79 sel 0;
#X text 25 22 normal;
#X obj 128 122 maxlib/scale 0 1 0.01 1;
#X connect 0 0 4 0;
#X connect 1 0 3 0;
#X connect 3 0 5 0;
#X connect 3 0 10 0;
#X connect 3 1 8 0;
#X connect 3 1 6 0;
#X connect 4 0 7 0;
#X connect 5 0 12 0;
#X connect 6 0 7 1;
#X connect 7 0 9 0;
#X connect 8 0 5 1;
#X connect 10 0 4 0;
#X connect 12 0 9 0;
#X restore 187 172 pd shiftcon;
#X floatatom 245 199 5 0 0 0 - - -;
#X obj 57 231 *~;
#X obj 226 36 inlet;
#X obj 84 29 inlet;
#X floatatom 192 240 5 0 0 0 - - -;
#X obj 187 201 * 10000;
#X obj 266 95 param \$1 SETTING a;
#X obj 267 116 param \$1 SETTING r;
#X obj 111 68 init 0;
#X obj 311 166 r \$1-setap-snd;
#X obj 313 192 route _loaded_;
#X obj 314 214 b;
#X obj 313 234 init 1;
#X obj 103 163 * 500;
#X obj 31 122 hip~ 40;
#X connect 0 0 20 0;
#X connect 2 0 7 1;
#X connect 3 0 5 0;
#X connect 4 0 19 0;
#X connect 5 0 6 0;
#X connect 5 0 11 0;
#X connect 7 0 1 0;
#X connect 8 0 5 1;
#X connect 9 0 2 0;
#X connect 11 0 2 2;
#X connect 11 0 10 0;
#X connect 14 0 4 0;
#X connect 15 0 16 0;
#X connect 16 0 17 0;
#X connect 17 0 18 0;
#X connect 18 0 3 0;
#X connect 19 0 2 1;
#X connect 20 0 7 0;
#X coords 0 -1 1 1 85 60 1 100 100;
#X restore 337 699 pd env;
#X obj 415 676 r \$1-Decay;
#X obj 375 673 sel 1;
#X obj 566 214 l param \$1 FX a;
#X obj 565 235 l param \$1 FX r;
#X obj 492 350 l MeloGamme \$0 20 77 15;
#X obj 501 405 r Basse;
#X floatatom 510 436 5 0 0 0 - - -;
#X floatatom 437 374 5 0 0 0 - - -;
#X floatatom 515 498 5 0 0 0 - - -;
#N canvas 70 330 450 452 phasor1 0;
#N canvas 563 307 465 435 gam-pitch 0;
#X obj 198 62 inlet;
#X obj 230 349 outlet;
#X obj 230 147 pack f f;
#X obj 251 124 t b f;
#X obj 252 47 pow 3;
#X obj 251 68 * 100;
#X obj 31 67 r \$0-pitch-snd;
#X obj 113 26 r \$0-gamprepost-snd;
#X obj 97 227 demux;
#X obj 211 112 +;
#X obj 211 90 t b f;
#X obj 230 322 +;
#X obj 216 298 t b f;
#X obj 31 89 * 49;
#X obj 31 110 - 25;
#X obj 31 153 sel -25;
#X msg 31 174 0;
#X obj 97 204 f;
#X obj 113 47 t b f;
#X obj 144 215 demux;
#X msg 144 195 0;
#X floatatom 49 243 5 0 0 0 - - -;
#X obj 31 129 i;
#X obj 251 103 m 1;
#X obj 280 103 != 0;
#X obj 230 275 +;
#X obj 281 300 t b f;
#X floatatom 311 323 5 0 0 0 - - -;
#X obj 281 269 r \$0-transgam;
#X obj 281 82 r \$0-ongam;
#X obj 337 39 inlet;
#X msg 364 13 1;
#X floatatom 348 111 5 0 0 0 - - -;
#X obj 241 7 r \$1-Note_adjust;
#X obj 230 175 gammeRound GAMME2;
#X connect 0 0 9 0;
#X connect 2 0 34 0;
#X connect 3 0 2 0;
#X connect 3 1 2 1;
#X connect 4 0 5 0;
#X connect 5 0 23 0;
#X connect 6 0 13 0;
#X connect 7 0 18 0;
#X connect 8 0 10 0;
#X connect 8 1 12 0;
#X connect 9 0 2 0;
#X connect 10 0 9 0;
#X connect 10 1 9 1;
#X connect 11 0 1 0;
#X connect 12 0 11 0;
#X connect 12 1 11 1;
#X connect 13 0 14 0;
#X connect 14 0 22 0;
#X connect 15 0 16 0;
#X connect 15 1 17 0;
#X connect 16 0 17 0;
#X connect 17 0 8 0;
#X connect 17 0 21 0;
#X connect 18 0 17 0;
#X connect 18 0 20 0;
#X connect 18 1 8 1;
#X connect 18 1 19 1;
#X connect 19 0 12 0;
#X connect 19 1 10 0;
#X connect 20 0 19 0;
#X connect 22 0 15 0;
#X connect 23 0 3 0;
#X connect 24 0 23 1;
#X connect 25 0 11 0;
#X connect 26 0 25 0;
#X connect 26 1 25 1;
#X connect 26 1 27 0;
#X connect 28 0 26 0;
#X connect 29 0 24 0;
#X connect 29 0 32 0;
#X connect 30 0 24 0;
#X connect 31 0 4 0;
#X connect 33 0 4 0;
#X connect 34 0 25 0;
#X restore 105 -20 pd gam-pitch;
#X obj 99 32 mtof;
#X obj 101 55 phasor~;
#X obj 101 79 lop~ 800;
#X obj 101 103 apmull~ \$1 FX mull~1;
#X obj 99 5 + 0;
#X obj 103 -50 inlet;
#X obj 103 170 outlet~;
#X obj 161 28 r \$1-Key;
#X floatatom 214 2 5 0 0 0 - - -;
#X connect 0 0 5 0;
#X connect 1 0 2 0;
#X connect 2 0 3 0;
#X connect 3 0 4 0;
#X connect 4 0 7 0;
#X connect 5 0 1 0;
#X connect 6 0 0 0;
#X connect 8 0 4 1;
#X coords 0 -1 1 1 85 60 1 100 100;
#X restore 299 462 pd phasor1;
#N canvas 73 323 450 452 phasor2 0;
#N canvas 569 1192 465 435 gam-pitch 0;
#X obj 198 62 inlet;
#X obj 230 349 outlet;
#X obj 230 147 pack f f;
#X obj 251 124 t b f;
#X obj 252 47 pow 3;
#X obj 251 68 * 100;
#X obj 31 67 r \$0-pitch-snd;
#X obj 113 26 r \$0-gamprepost-snd;
#X obj 97 227 demux;
#X obj 211 112 +;
#X obj 211 90 t b f;
#X obj 230 322 +;
#X obj 216 298 t b f;
#X obj 31 89 * 49;
#X obj 31 110 - 25;
#X obj 31 153 sel -25;
#X msg 31 174 0;
#X obj 97 204 f;
#X obj 113 47 t b f;
#X obj 144 215 demux;
#X msg 144 195 0;
#X floatatom 49 243 5 0 0 0 - - -;
#X obj 31 129 i;
#X obj 251 103 m 1;
#X obj 280 103 != 0;
#X obj 230 275 +;
#X obj 281 300 t b f;
#X floatatom 311 323 5 0 0 0 - - -;
#X obj 281 269 r \$0-transgam;
#X obj 281 82 r \$0-ongam;
#X obj 337 39 inlet;
#X msg 364 13 1;
#X floatatom 348 111 5 0 0 0 - - -;
#X obj 241 7 r \$1-Note_adjust;
#X obj 230 175 gammeRound GAMME2;
#X connect 0 0 9 0;
#X connect 2 0 34 0;
#X connect 3 0 2 0;
#X connect 3 1 2 1;
#X connect 4 0 5 0;
#X connect 5 0 23 0;
#X connect 6 0 13 0;
#X connect 7 0 18 0;
#X connect 8 0 10 0;
#X connect 8 1 12 0;
#X connect 9 0 2 0;
#X connect 10 0 9 0;
#X connect 10 1 9 1;
#X connect 11 0 1 0;
#X connect 12 0 11 0;
#X connect 12 1 11 1;
#X connect 13 0 14 0;
#X connect 14 0 22 0;
#X connect 15 0 16 0;
#X connect 15 1 17 0;
#X connect 16 0 17 0;
#X connect 17 0 8 0;
#X connect 17 0 21 0;
#X connect 18 0 17 0;
#X connect 18 0 20 0;
#X connect 18 1 8 1;
#X connect 18 1 19 1;
#X connect 19 0 12 0;
#X connect 19 1 10 0;
#X connect 20 0 19 0;
#X connect 22 0 15 0;
#X connect 23 0 3 0;
#X connect 24 0 23 1;
#X connect 25 0 11 0;
#X connect 26 0 25 0;
#X connect 26 1 25 1;
#X connect 26 1 27 0;
#X connect 28 0 26 0;
#X connect 29 0 24 0;
#X connect 29 0 32 0;
#X connect 30 0 24 0;
#X connect 31 0 4 0;
#X connect 33 0 4 0;
#X connect 34 0 25 0;
#X restore -2 -95 pd gam-pitch;
#X obj 0 -68 mtof;
#X obj 2 -45 phasor~;
#X obj 2 -21 lop~ 800;
#X obj 4 -150 inlet;
#X obj 4 70 outlet~;
#X obj 62 -72 r \$1-Key;
#X obj 1 -125 + 4;
#X floatatom 112 -12 5 0 0 0 - - -;
#X obj 2 3 apmull~ \$1 FX mull~2;
#X connect 0 0 1 0;
#X connect 1 0 2 0;
#X connect 2 0 3 0;
#X connect 3 0 9 0;
#X connect 4 0 7 0;
#X connect 6 0 9 1;
#X connect 7 0 0 0;
#X connect 9 0 5 0;
#X coords 0 -1 1 1 85 60 1 0 0;
#X restore 395 529 pd phasor2;
#N canvas 2795 457 450 452 phasor3 0;
#N canvas 569 1192 465 435 gam-pitch 0;
#X obj 198 62 inlet;
#X obj 230 349 outlet;
#X obj 230 147 pack f f;
#X obj 251 124 t b f;
#X obj 252 47 pow 3;
#X obj 251 68 * 100;
#X obj 31 67 r \$0-pitch-snd;
#X obj 113 26 r \$0-gamprepost-snd;
#X obj 97 227 demux;
#X obj 211 112 +;
#X obj 211 90 t b f;
#X obj 230 322 +;
#X obj 216 298 t b f;
#X obj 31 89 * 49;
#X obj 31 110 - 25;
#X obj 31 153 sel -25;
#X msg 31 174 0;
#X obj 97 204 f;
#X obj 113 47 t b f;
#X obj 144 215 demux;
#X msg 144 195 0;
#X floatatom 49 243 5 0 0 0 - - -;
#X obj 31 129 i;
#X obj 251 103 m 1;
#X obj 280 103 != 0;
#X obj 230 275 +;
#X obj 281 300 t b f;
#X floatatom 311 323 5 0 0 0 - - -;
#X obj 281 269 r \$0-transgam;
#X obj 281 82 r \$0-ongam;
#X obj 337 39 inlet;
#X msg 364 13 1;
#X floatatom 348 111 5 0 0 0 - - -;
#X obj 241 7 r \$1-Note_adjust;
#X obj 230 175 gammeRound GAMME2;
#X connect 0 0 9 0;
#X connect 2 0 34 0;
#X connect 3 0 2 0;
#X connect 3 1 2 1;
#X connect 4 0 5 0;
#X connect 5 0 23 0;
#X connect 6 0 13 0;
#X connect 7 0 18 0;
#X connect 8 0 10 0;
#X connect 8 1 12 0;
#X connect 9 0 2 0;
#X connect 10 0 9 0;
#X connect 10 1 9 1;
#X connect 11 0 1 0;
#X connect 12 0 11 0;
#X connect 12 1 11 1;
#X connect 13 0 14 0;
#X connect 14 0 22 0;
#X connect 15 0 16 0;
#X connect 15 1 17 0;
#X connect 16 0 17 0;
#X connect 17 0 8 0;
#X connect 17 0 21 0;
#X connect 18 0 17 0;
#X connect 18 0 20 0;
#X connect 18 1 8 1;
#X connect 18 1 19 1;
#X connect 19 0 12 0;
#X connect 19 1 10 0;
#X connect 20 0 19 0;
#X connect 22 0 15 0;
#X connect 23 0 3 0;
#X connect 24 0 23 1;
#X connect 25 0 11 0;
#X connect 26 0 25 0;
#X connect 26 1 25 1;
#X connect 26 1 27 0;
#X connect 28 0 26 0;
#X connect 29 0 24 0;
#X connect 29 0 32 0;
#X connect 30 0 24 0;
#X connect 31 0 4 0;
#X connect 33 0 4 0;
#X connect 34 0 25 0;
#X restore -2 -95 pd gam-pitch;
#X obj 0 -68 mtof;
#X obj 2 -45 phasor~;
#X obj 2 -21 lop~ 800;
#X obj 4 -150 inlet;
#X obj 4 70 outlet~;
#X obj 62 -72 r \$1-Key;
#X obj 1 -125 + 7;
#X obj 3 3 apmull~ \$1 FX mull~3;
#X connect 0 0 1 0;
#X connect 1 0 2 0;
#X connect 2 0 3 0;
#X connect 3 0 8 0;
#X connect 4 0 7 0;
#X connect 6 0 8 1;
#X connect 7 0 0 0;
#X connect 8 0 5 0;
#X coords 0 -1 1 1 85 60 1 0 0;
#X restore 494 535 pd phasor3;
#N canvas 2793 468 450 452 phasor4 0;
#N canvas 569 1192 465 435 gam-pitch 0;
#X obj 198 62 inlet;
#X obj 230 349 outlet;
#X obj 230 147 pack f f;
#X obj 251 124 t b f;
#X obj 252 47 pow 3;
#X obj 251 68 * 100;
#X obj 31 67 r \$0-pitch-snd;
#X obj 113 26 r \$0-gamprepost-snd;
#X obj 97 227 demux;
#X obj 211 112 +;
#X obj 211 90 t b f;
#X obj 230 322 +;
#X obj 216 298 t b f;
#X obj 31 89 * 49;
#X obj 31 110 - 25;
#X obj 31 153 sel -25;
#X msg 31 174 0;
#X obj 97 204 f;
#X obj 113 47 t b f;
#X obj 144 215 demux;
#X msg 144 195 0;
#X floatatom 49 243 5 0 0 0 - - -;
#X obj 31 129 i;
#X obj 251 103 m 1;
#X obj 280 103 != 0;
#X obj 230 275 +;
#X obj 281 300 t b f;
#X floatatom 311 323 5 0 0 0 - - -;
#X obj 281 269 r \$0-transgam;
#X obj 281 82 r \$0-ongam;
#X obj 337 39 inlet;
#X msg 364 13 1;
#X floatatom 348 111 5 0 0 0 - - -;
#X obj 241 7 r \$1-Note_adjust;
#X obj 230 175 gammeRound GAMME2;
#X connect 0 0 9 0;
#X connect 2 0 34 0;
#X connect 3 0 2 0;
#X connect 3 1 2 1;
#X connect 4 0 5 0;
#X connect 5 0 23 0;
#X connect 6 0 13 0;
#X connect 7 0 18 0;
#X connect 8 0 10 0;
#X connect 8 1 12 0;
#X connect 9 0 2 0;
#X connect 10 0 9 0;
#X connect 10 1 9 1;
#X connect 11 0 1 0;
#X connect 12 0 11 0;
#X connect 12 1 11 1;
#X connect 13 0 14 0;
#X connect 14 0 22 0;
#X connect 15 0 16 0;
#X connect 15 1 17 0;
#X connect 16 0 17 0;
#X connect 17 0 8 0;
#X connect 17 0 21 0;
#X connect 18 0 17 0;
#X connect 18 0 20 0;
#X connect 18 1 8 1;
#X connect 18 1 19 1;
#X connect 19 0 12 0;
#X connect 19 1 10 0;
#X connect 20 0 19 0;
#X connect 22 0 15 0;
#X connect 23 0 3 0;
#X connect 24 0 23 1;
#X connect 25 0 11 0;
#X connect 26 0 25 0;
#X connect 26 1 25 1;
#X connect 26 1 27 0;
#X connect 28 0 26 0;
#X connect 29 0 24 0;
#X connect 29 0 32 0;
#X connect 30 0 24 0;
#X connect 31 0 4 0;
#X connect 33 0 4 0;
#X connect 34 0 25 0;
#X restore -2 -95 pd gam-pitch;
#X obj 0 -68 mtof;
#X obj 2 -45 phasor~;
#X obj 2 -21 lop~ 800;
#X obj 4 -150 inlet;
#X obj 4 70 outlet~;
#X obj 62 -72 r \$1-Key;
#X obj 3 -124 + 12;
#X obj 2 3 apmull~ \$1 FX mull~4;
#X connect 0 0 1 0;
#X connect 1 0 2 0;
#X connect 2 0 3 0;
#X connect 3 0 8 0;
#X connect 4 0 7 0;
#X connect 6 0 8 1;
#X connect 7 0 0 0;
#X connect 8 0 5 0;
#X coords 0 -1 1 1 85 60 1 0 0;
#X restore 603 530 pd phasor4;
#X obj 18 382 hip~ 40;
#X obj 18 175 apdisto \$1 FX disto1;
#X obj 18 235 orfilter \$1 FX ortho1;
#X obj 67 527 apecho \$1 FX echo1;
#X obj 55 637 aprev \$1 FX rev1;
#X connect 0 0 57 0;
#X connect 3 0 4 0;
#X connect 4 0 33 0;
#X connect 5 0 1 0;
#X connect 7 0 38 1;
#X connect 7 0 35 1;
#X connect 10 0 11 0;
#X connect 11 0 12 0;
#X connect 12 0 26 0;
#X connect 13 0 12 1;
#X connect 13 0 30 0;
#X connect 21 0 20 0;
#X connect 21 0 31 0;
#X connect 26 0 9 0;
#X connect 26 0 53 0;
#X connect 26 0 54 0;
#X connect 26 0 55 0;
#X connect 26 0 56 0;
#X connect 27 0 25 0;
#X connect 27 0 31 1;
#X connect 31 0 26 1;
#X connect 31 1 33 1;
#X connect 31 1 45 0;
#X connect 33 0 36 0;
#X connect 33 0 38 0;
#X connect 33 0 35 0;
#X connect 35 0 61 0;
#X connect 36 0 37 0;
#X connect 37 0 5 0;
#X connect 38 0 60 0;
#X connect 43 0 58 0;
#X connect 44 0 43 2;
#X connect 45 0 43 1;
#X connect 49 0 50 0;
#X connect 53 0 43 0;
#X connect 54 0 43 0;
#X connect 55 0 43 0;
#X connect 56 0 43 0;
#X connect 57 0 3 0;
#X connect 58 0 59 0;
#X connect 59 0 0 0;
#X connect 60 0 36 1;
#X connect 61 0 37 1;
#X restore 55 101 pd ALLSOUND;
#X obj 55 187 Vmull~ 0 10;
#X obj 56 213 outlet~;
#X obj 229 115 t b;
#X obj 229 93 r SYNCHRO-clock;
#X obj 173 23 MORPHgroup \$1 FX;
#X floatatom 173 -13 5 0 0 0 - - -;
#X obj 348 119 r \$1-Vitesse-snd;
#X obj 348 199 nbx 5 14 -1e+37 1e+37 0 0 \$0-Tempo-snd \$0-Tempo-rcv
4/3 0 -8 0 10 -262144 -1 -1 0 256;
#X obj 348 164 m;
#X obj 363 141 r \$1-Vitesse_max-snd;
#X obj 328 94 param \$1 FX del1_time;
#X obj -12 160 s \$0-onoff;
#X obj -12 143 tgl 15 1 empty empty empty 17 7 0 10 -262144 -1 -1 1
1;
#X obj 86 123 r \$1-Volume;
#X obj 173 3 r \$1-Effet;
#X obj -34 119 s \$1-lvert;
#X obj 230 138 s \$1-lrouge;
#X connect 0 0 1 0;
#X connect 1 0 2 0;
#X connect 3 0 17 0;
#X connect 4 0 3 0;
#X connect 7 0 9 0;
#X connect 9 0 8 0;
#X connect 10 0 9 1;
#X connect 13 0 12 0;
#X connect 14 0 1 1;
#X connect 15 0 5 0;
#X connect 15 0 6 0;
#X restore 100 47 pd son;
#X obj 105 147 cnv 15 336 250 \$1-seq0-STEPcan-snd \$1-seq0-STEPcan-rcv
empty 20 12 0 14 -260097 -233017 0;
#X obj 54 22 MASTERtypeNO_IN \$0;
#N canvas 1 452 751 545 note_modulators 0;
#X msg 40 145 8 2 23 24 21 24 14 24 19 24 16 24 19 24 12 12 11 24;
#X msg 43 235 12 6 21 23 24 24 24 5 24 0 21 19 18 24 24 12 16 15;
#X msg 41 347 16 2 13 1 1 24 13 18 1 24 2 18 13 24 9 12 3 24;
#X msg 41 437 14 7 6 24 24 24 8 24 24 24 12 24 13 24 10 12 24 24;
#X msg 415 164 16 8 14 17 19 8 7 10 11 13 18 9 22 10 17 12 1 13;
#X msg 414 257 16 8 18 10 10 24 24 11 13 24 6 23 15 14 24 12 8 17;
#X msg 414 346 7 7 17 6 6 0 15 10 19 19 19 24 10 24 15 12 9 10;
#X msg 413 437 5 5 10 18 6 7 0 9 24 0 0 24 0 8 24 12 24 12;
#X obj 37 101 bng 15 250 50 0 empty empty initall 17 7 0 10 -262144
-1 -1;
#X obj 119 70 loadbang;
#X obj 40 192 notemod \$0 \$1 1;
#X obj 362 78 s \$1-notemods-rcv;
#X obj 355 56 list prepend -1;
#X msg 270 9 16 3 0 2 0 2 0 2 4 5 0 2 0 2 2 0 2 0;
#X msg 307 34 12 4 0 2 4 5 7 9 10 12 14 16 17 19;
#X msg 263 -17 16 4 0 4 2 5 4 7 5 9 7 10 9 12 10 14 12 16;
#X msg 197 8 1 1 1;
#X text 13 37 1°:mesure 2°:vitesse 3...:notes;
#X msg 14 -18 16 8 0 0 0 0 6 12 7 14 3 0 5 2 7 4 9 12;
#X obj 40 121 notemodinit \$0 \$1 1;
#X obj 42 216 notemodinit \$0 \$1 2;
#X obj 41 328 notemodinit \$0 \$1 3;
#X obj 41 418 notemodinit \$0 \$1 4;
#X obj 415 145 notemodinit \$0 \$1 5;
#X obj 414 238 notemodinit \$0 \$1 6;
#X obj 414 327 notemodinit \$0 \$1 7;
#X obj 413 417 notemodinit \$0 \$1 8;
#X obj 41 485 notemod \$0 \$1 4;
#X obj 43 296 notemod \$0 \$1 2;
#X obj 41 394 notemod \$0 \$1 3;
#X obj 415 215 notemod \$0 \$1 5;
#X obj 414 305 notemod \$0 \$1 6;
#X obj 414 394 notemod \$0 \$1 7;
#X obj 413 485 notemod \$0 \$1 8;
#X connect 0 0 10 0;
#X connect 1 0 28 0;
#X connect 2 0 29 0;
#X connect 3 0 27 0;
#X connect 4 0 30 0;
#X connect 5 0 31 0;
#X connect 6 0 32 0;
#X connect 7 0 33 0;
#X connect 8 0 19 0;
#X connect 9 0 8 0;
#X connect 12 0 11 0;
#X connect 13 0 12 0;
#X connect 14 0 12 0;
#X connect 15 0 12 0;
#X connect 16 0 12 0;
#X connect 18 0 12 0;
#X connect 19 0 0 0;
#X connect 20 0 1 0;
#X connect 21 0 2 0;
#X connect 22 0 3 0;
#X connect 23 0 4 0;
#X connect 24 0 5 0;
#X connect 25 0 6 0;
#X connect 26 0 7 0;
#X restore 163 425 pd note_modulators;
#N canvas 1867 292 852 538 KEPphrase_1>8 0;
#X obj 0 -532 cnv 15 847 480 empty empty empty 20 12 0 14 -1 -66577
0;
#X obj 214 -290 KEPphrase \$0 \$1 6;
#X obj 4 -528 KEPphrase \$0 \$1 1;
#X obj 425 -528 KEPphrase \$0 \$1 3;
#X obj 3 -290 KEPphrase \$0 \$1 5;
#X obj 214 -528 KEPphrase \$0 \$1 2;
#X obj 636 -528 KEPphrase \$0 \$1 4;
#X obj 425 -290 KEPphrase \$0 \$1 7;
#X obj 636 -290 KEPphrase \$0 \$1 8;
#X coords 0 538 1 537 85 60 0;
#X restore 142 155 pd KEPphrase_1>8;
#X obj 203 486 Instru2Net \$1;
#X obj 54 110 MASTERtypeOUT \$1 1;
#X obj 58 676 KEPCommon \$1 \$0;
#X obj 109 560 tgl 15 1 empty empty empty 17 7 0 10 -262144 -1 -1 1
1;
#X obj 108 578 switch~;
#X obj 109 537 mainDSPswitch \$1;
#X connect 3 0 13 0;
#X connect 4 0 13 1;
#X connect 6 0 12 0;
#X connect 14 0 15 0;
#X connect 16 0 14 0;
#X coords 0 -1 1 1 42 656 2 50 10;
