#N canvas 919 919 449 821 10;
#X declare -lib libdir -lib ggee -stdpath ggee;
#X declare -lib libdir -lib ggee -stdpath ggee;
#X declare -stdlib zexy;
#X declare -stdlib iemlib -stdpath iemlib;
#X declare -lib libdir -lib ggee -stdpath ggee;
#X declare -lib libdir -lib ggee -stdpath ggee;
#X declare -stdlib zexy;
#X declare -stdlib iemlib -stdpath iemlib;
#X declare -lib libdir -lib ggee -stdpath ggee;
#X declare -lib libdir -lib ggee -stdpath ggee;
#X declare -stdlib zexy;
#X declare -stdlib iemlib -stdpath iemlib;
#X declare -lib libdir -lib ggee -stdpath ggee;
#X declare -lib libdir -lib ggee -stdpath ggee;
#X declare -stdlib zexy;
#X declare -stdlib iemlib -stdpath iemlib;
#X declare -lib libdir -lib ggee -stdpath ggee;
#X declare -lib libdir -lib ggee -stdpath ggee;
#X declare -stdlib zexy;
#X declare -stdlib iemlib -stdpath iemlib;
#X declare -lib libdir -lib ggee -stdpath ggee;
#X declare -lib libdir -lib ggee -stdpath ggee;
#X declare -stdlib zexy;
#X declare -stdlib iemlib -stdpath iemlib;
#X declare -lib libdir -lib ggee -stdpath ggee;
#X declare -lib libdir -lib ggee -stdpath ggee;
#X declare -stdlib zexy;
#X declare -stdlib iemlib -stdpath iemlib;
#X declare -lib libdir -lib ggee -stdpath ggee;
#X declare -lib libdir -lib ggee -stdpath ggee;
#X declare -stdlib zexy;
#X declare -stdlib iemlib -stdpath iemlib;
#X declare -lib libdir -lib ggee -stdpath ggee;
#X declare -lib libdir -lib ggee -stdpath ggee;
#X declare -stdlib zexy;
#X declare -stdlib iemlib -stdpath iemlib;
#X declare -lib libdir -lib ggee -stdpath ggee;
#X declare -lib libdir -lib ggee -stdpath ggee;
#X declare -stdlib zexy;
#X declare -stdlib iemlib -stdpath iemlib;
#X declare -lib libdir -lib ggee -stdpath ggee;
#X declare -lib libdir -lib ggee -stdpath ggee;
#X declare -stdlib zexy;
#X declare -stdlib iemlib -stdpath iemlib;
#X declare -lib libdir -lib ggee -stdpath ggee;
#X declare -lib libdir -lib ggee -stdpath ggee;
#X declare -stdlib zexy;
#X declare -stdlib iemlib -stdpath iemlib;
#X declare -lib libdir -lib ggee -stdpath ggee;
#X declare -lib libdir -lib ggee -stdpath ggee;
#X declare -stdlib zexy;
#X declare -stdlib iemlib -stdpath iemlib;
#X declare -lib libdir -lib ggee -stdpath ggee;
#X declare -lib libdir -lib ggee -stdpath ggee;
#X declare -stdlib zexy;
#X declare -stdlib iemlib -stdpath iemlib;
#X declare -lib libdir -lib ggee -stdpath ggee;
#X declare -lib libdir -lib ggee -stdpath ggee;
#X declare -stdlib zexy;
#X declare -stdlib iemlib -stdpath iemlib;
#X declare -lib libdir -lib ggee -stdpath ggee;
#X declare -lib libdir -lib ggee -stdpath ggee;
#X declare -stdlib zexy;
#X declare -stdlib iemlib -stdpath iemlib;
#X declare -lib libdir -lib ggee -stdpath ggee;
#X declare -lib libdir -lib ggee -stdpath ggee;
#X declare -stdlib zexy;
#X declare -stdlib iemlib -stdpath iemlib;
#X declare -lib libdir -lib ggee -stdpath ggee;
#X declare -lib libdir -lib ggee -stdpath ggee;
#X declare -lib libdir -lib ggee -stdpath ggee;
#X declare -lib libdir -lib ggee -stdpath ggee;
#X declare -lib libdir -lib ggee -stdpath ggee;
#X declare -lib libdir -lib ggee -stdpath ggee;
#X declare -lib libdir -lib ggee -stdpath ggee;
#X declare -lib libdir -lib ggee -lib moonlib -stdpath moonlib -stdpath
extra/moonlib;
#X declare -lib libdir -lib ggee -lib moonlib -stdpath moonlib -stdpath
extra/moonlib;
#X declare -lib libdir -lib ggee -lib moonlib -stdpath moonlib -stdpath
extra/moonlib;
#X declare -lib libdir -lib ggee -lib moonlib -stdpath moonlib -stdpath
extra/moonlib;
#X declare -lib libdir -lib ggee -stdpath ggee;
#X declare -lib libdir -lib ggee -stdpath ggee;
#X declare -lib libdir -lib ggee -stdpath ggee;
#X declare -lib libdir -lib ggee -stdpath ggee;
#X declare -lib libdir -lib ggee -stdpath ggee;
#X declare -lib libdir -lib ggee -stdpath ggee;
#X declare -lib libdir -lib ggee -stdpath ggee;
#X declare -lib libdir -lib ggee -stdpath ggee;
#X declare -lib libdir -lib ggee -stdpath ggee;
#X declare -lib libdir -lib ggee -stdpath ggee;
#X declare -lib libdir -lib ggee -stdpath ggee;
#X declare -lib libdir -lib ggee -stdpath ggee;
#X declare -lib libdir -lib ggee -stdpath ggee;
#X declare -lib libdir -lib ggee -stdpath ggee;
#X declare -lib libdir -lib ggee -stdpath ggee;
#X declare -lib libdir -lib ggee -stdpath ggee;
#X declare -lib libdir -lib ggee -stdpath ggee;
#X declare -lib libdir -lib ggee -stdpath ggee;
#X declare -lib libdir -lib ggee -stdpath ggee;
#X declare -lib libdir -lib ggee -stdpath ggee;
#X declare -lib libdir -lib ggee -stdpath ggee;
#X declare -lib libdir -lib ggee -stdpath ggee;
#X declare -lib libdir -lib ggee -stdpath ggee;
#X declare -lib libdir -lib ggee -stdpath ggee;
#X declare -lib libdir -lib ggee -stdpath ggee;
#X declare -lib libdir -lib ggee -stdpath ggee;
#X declare -lib libdir -lib ggee -stdpath ggee;
#X declare -lib libdir -lib ggee -stdpath ggee;
#X declare -lib libdir -lib ggee -stdpath ggee;
#X declare -lib libdir -lib ggee -stdpath ggee;
#X declare -lib libdir -lib ggee -stdpath ggee;
#X declare -lib libdir -lib ggee -stdpath ggee;
#X declare -lib libdir -lib ggee -stdpath ggee;
#X declare -lib libdir -lib ggee -stdpath ggee;
#X declare -lib libdir -lib ggee -stdpath ggee;
#X declare -lib libdir -lib ggee -stdpath ggee;
#X declare -lib libdir -lib ggee -stdpath ggee;
#X declare -lib libdir -lib ggee -stdpath ggee;
#X declare -lib libdir -lib ggee -stdpath ggee;
#X declare -lib libdir -lib ggee -stdpath ggee;
#X declare -lib libdir -lib ggee -stdpath ggee;
#X declare -lib libdir -lib ggee -stdpath ggee;
#X declare -lib libdir -lib ggee -stdpath ggee;
#X declare -lib libdir -lib ggee -stdpath ggee;
#X declare -lib libdir -lib ggee -stdpath ggee;
#X declare -lib libdir -lib ggee -stdpath ggee;
#X declare -lib libdir -lib ggee -stdpath ggee;
#X declare -lib libdir -lib ggee -stdpath ggee;
#X declare -lib libdir -lib ggee -stdpath ggee;
#X declare -lib libdir -lib ggee -stdpath ggee;
#X declare -lib libdir -lib ggee -stdpath ggee;
#X declare -lib libdir -lib ggee -stdpath ggee;
#X declare -lib libdir -lib ggee -stdpath ggee;
#X declare -lib libdir -lib ggee -stdpath ggee;
#X declare -stdpath moonlib;
#X declare -lib libdir -lib ggee -stdpath ggee;
#X declare -lib libdir -lib ggee -stdpath ggee;
#X declare -lib libdir -lib ggee -stdpath ggee;
#X declare -lib libdir -lib ggee -stdpath ggee;
#X declare -lib libdir -lib ggee -stdpath ggee;
#X declare -path AutoPreset -stdpath moonlib -stdpath iemlib -lib zexy
;
#X declare -lib libdir -lib ggee;
#X declare -lib libdir -lib ggee -stdpath ggee;
#X declare -lib libdir -lib ggee -stdpath ggee;
#X declare -lib libdir -lib ggee;
#X declare -lib libdir -lib ggee;
#X obj 1 1 cnv 15 40 654 empty empty \$1 1 5 1 8 -257985 -1 0;
#X text -27 -26 KEPtype nomUnique;
#X obj 7 643 bng 10 250 50 0 empty empty empty 17 7 0 10 -4034 -1 -1
;
#X obj 24 643 bng 10 250 50 0 empty empty empty 17 7 0 10 -258113 -1
-1;
#N canvas 1193 444 379 707 KEPboutons 0;
#X obj 35 285 KEPbus \$1 l1 -l1- tl1;
#X obj 26 78 KEPbus \$1 Effet Dir-in b3;
#X obj 35 308 KEPbus \$1 l2 -l2- tl2;
#X obj 37 330 KEPbus \$1 l3 -l3- tl3;
#X obj 37 351 KEPbus \$1 l4 -l4- tl4;
#X obj 32 376 KEPbus \$1 lR -lR- tlREC;
#X obj 193 283 KEPbus \$1 lr -lr- lrouge;
#X obj 193 306 KEPbus \$1 lv -lv- lvert;
#X obj 33 227 KEPbus \$1 Sa4 Palin t4;
#X obj 32 205 KEPbus \$1 Sa3 Alea t3;
#X obj 31 163 KEPbus \$1 Sa1 Norm t1;
#X obj 32 184 KEPbus \$1 Sa2 Rever t2;
#X obj 27 34 KEPbus \$1 Speed SpeedRnd b1;
#X obj 26 55 KEPbus \$1 Pos PosRnd b2;
#X obj 25 100 KEPbus \$1 Len LenRnd b4;
#X obj 32 251 KEPbus \$1 Rec Trig tREC;
#X obj 25 122 KEPbus \$1 Volume TailleRec b5;
#X restore 247 169 pd KEPboutons;
#N canvas 706 498 443 335 son 0;
#N canvas 587 330 662 821 ALLSOUND 0;
#X obj 62 631 outlet~;
#X msg 269 170 time \$1;
#X msg 357 149 feed \$1;
#N canvas 1649 298 572 524 time 0;
#X obj 275 345 unpack;
#X obj 213 377 m 1000;
#X obj 213 426 outlet;
#X obj 183 152 i;
#X obj 183 177 change -1;
#X obj 213 399 change -1;
#X floatatom 309 407 5 0 0 0 - - -, f 5;
#X obj 213 348 /;
#X floatatom 312 456 5 0 0 0 - - -, f 5;
#X obj 183 130 * 11.9;
#N canvas 0 50 547 300 choix 0;
#X obj 75 51 inlet;
#X obj 190 273 outlet;
#X obj 190 237 t a;
#X msg 251 151 1 1;
#X msg 311 150 2 3;
#X msg 339 149 1 2;
#X msg 368 149 1 3;
#X msg 399 148 1 4;
#X msg 429 149 1 6;
#X msg 458 149 1 8;
#X msg 282 151 3 4;
#X obj 75 86 sel 0 1 2 3 4 5 6 7 8 9 10 11 12 13 14 15 16;
#X msg 489 149 1 16;
#X msg 11 157 8 1;
#X msg 44 157 6 1;
#X msg 74 156 4 1;
#X msg 102 155 3 1;
#X msg 129 153 2 1;
#X msg 221 152 1 1;
#X msg 190 153 4 3;
#X msg 159 154 2 1;
#X connect 0 0 11 0;
#X connect 2 0 1 0;
#X connect 3 0 2 0;
#X connect 4 0 2 0;
#X connect 5 0 2 0;
#X connect 6 0 2 0;
#X connect 7 0 2 0;
#X connect 8 0 2 0;
#X connect 9 0 2 0;
#X connect 10 0 2 0;
#X connect 11 0 13 0;
#X connect 11 1 14 0;
#X connect 11 2 15 0;
#X connect 11 3 16 0;
#X connect 11 4 17 0;
#X connect 11 5 20 0;
#X connect 11 6 19 0;
#X connect 11 7 18 0;
#X connect 11 8 3 0;
#X connect 11 9 10 0;
#X connect 11 10 4 0;
#X connect 11 11 5 0;
#X connect 11 12 6 0;
#X connect 11 13 7 0;
#X connect 11 14 8 0;
#X connect 11 15 9 0;
#X connect 11 16 12 0;
#X connect 12 0 2 0;
#X connect 13 0 2 0;
#X connect 14 0 2 0;
#X connect 15 0 2 0;
#X connect 16 0 2 0;
#X connect 17 0 2 0;
#X connect 18 0 2 0;
#X connect 19 0 2 0;
#X connect 20 0 2 0;
#X restore 183 211 pd choix;
#X obj 113 308 NDmetro;
#X obj 183 270 t a a;
#X obj 113 254 t a a;
#X obj 113 330 sel 0;
#X obj 113 432 outlet;
#X obj 43 314 bng 15 250 50 0 empty empty empty 0 -6 0 8 -262144 -1
-1;
#X obj 36 417 s \$0-LED;
#X obj 60 182 r SYNCHRO-clock;
#N canvas 571 333 316 462 Vitesse 0;
#X obj 140 365 outlet;
#X obj 102 96 i;
#X obj 150 324 t a;
#X obj 99 131 change -1;
#X obj 66 319 bng 15 250 50 0 empty empty empty 17 7 0 10 -262144 -1
-1;
#X obj 102 6 r \$0-Tempo-snd;
#X msg 48 185 1;
#X msg 81 205 2;
#X msg 111 221 3;
#X msg 133 198 4;
#X msg 153 228 6;
#X msg 169 196 8;
#X msg 183 221 12;
#X msg 215 235 16;
#X obj 99 154 sel 0 1 2 3 4 5 6 7;
#X msg 189 375 label \$1;
#X obj 189 396 s \$0-Tempo-rcv;
#X msg 189 375 label \$1;
#X obj 189 396 s \$0-Tempo-rcv;
#X obj 189 354 makesymbol %s;
#X obj 102 51 abs;
#X floatatom 233 103 5 0 0 0 - - -, f 5;
#X obj 102 76 * 7.9;
#X obj 102 27 - 1;
#X obj 199 36 r \$1-Vitesse;
#X floatatom 200 71 5 0 0 0 - - -, f 5;
#X floatatom 33 59 5 0 0 0 - - -, f 5;
#X connect 1 0 3 0;
#X connect 1 0 21 0;
#X connect 2 0 0 0;
#X connect 2 0 19 0;
#X connect 3 0 14 0;
#X connect 5 0 23 0;
#X connect 6 0 2 0;
#X connect 7 0 2 0;
#X connect 8 0 2 0;
#X connect 9 0 2 0;
#X connect 10 0 2 0;
#X connect 11 0 2 0;
#X connect 12 0 2 0;
#X connect 13 0 2 0;
#X connect 14 0 6 0;
#X connect 14 1 7 0;
#X connect 14 2 8 0;
#X connect 14 3 9 0;
#X connect 14 4 10 0;
#X connect 14 5 11 0;
#X connect 14 6 12 0;
#X connect 14 7 13 0;
#X connect 15 0 16 0;
#X connect 17 0 18 0;
#X connect 19 0 15 0;
#X connect 20 0 22 0;
#X connect 22 0 1 0;
#X connect 23 0 20 0;
#X connect 24 0 25 0;
#X restore 336 55 pd Vitesse;
#X obj 183 95 r \$0-Tempo;
#X obj 336 77 pack f 1;
#X floatatom 365 169 5 0 0 0 - - -, f 5;
#X floatatom 105 220 5 0 0 0 - - -, f 5;
#X connect 0 1 1 1;
#X connect 1 0 5 0;
#X connect 3 0 4 0;
#X connect 4 0 10 0;
#X connect 5 0 2 0;
#X connect 7 0 1 0;
#X connect 9 0 3 0;
#X connect 11 0 14 0;
#X connect 12 0 11 1;
#X connect 12 1 7 0;
#X connect 13 0 11 0;
#X connect 13 1 0 0;
#X connect 14 0 15 0;
#X connect 14 0 16 0;
#X connect 14 0 17 0;
#X connect 18 0 13 0;
#X connect 18 0 23 0;
#X connect 19 0 21 0;
#X connect 19 0 22 0;
#X connect 20 0 9 0;
#X connect 21 0 12 0;
#X restore 230 150 pd time;
#X obj 26 226 hip~ 10;
#X obj 73 391 *~;
#X obj 89 348 mull~ 0 3;
#X obj 249 249 mknob 25 100 0 1 0 0 \$1-Mul1-snd \$1-Mul1-rcv Mul1
-2 -6 1 8 -262144 -1 -1 3000 1;
#X obj 26 258 *~ 10;
#X obj 74 300 dist~ 1;
#X obj 208 489 mknob 25 100 0 1 0 0 \$1-VolAdj-snd \$1-VolAdj-rcv VolAdj
-2 -6 1 8 -262144 -1 -1 7900 1;
#X obj 64 506 * 3;
#X msg 230 170 tic;
#X obj 175 500 m;
#X obj 175 392 unpack f f;
#X obj 175 412 != -1;
#X obj 175 478 ||;
#X obj 295 423 tgl 15 0 empty empty empty 0 -6 0 8 -262144 -1 -1 1
1;
#X obj 295 403 sel 1;
#X obj 27 530 mull~ 0.7 1;
#X obj 118 328 * 10;
#N canvas 436 628 190 272 vol-direct 0;
#X msg 102 74 1 \$1;
#X obj 72 203 outlet;
#X obj 102 156 spigot;
#X obj 102 133 f;
#X obj 57 82 t b f;
#X obj 23 130 sel 0;
#X msg 23 149 1;
#X obj 23 28 r \$1-REC-snd;
#X obj 102 53 inlet;
#X floatatom 136 231 5 0 0 0 - - -, f 5;
#X obj 102 110 *;
#X connect 0 0 10 0;
#X connect 2 0 1 0;
#X connect 2 0 9 0;
#X connect 3 0 2 0;
#X connect 4 0 3 0;
#X connect 4 1 2 1;
#X connect 5 0 6 0;
#X connect 6 0 1 0;
#X connect 7 0 5 0;
#X connect 7 0 4 0;
#X connect 8 0 0 0;
#X connect 10 0 3 0;
#X restore 96 198 pd vol-direct;
#X obj 184 453 t b f;
#X obj 295 383 change;
#X obj 94 220 * 2;
#X obj 171 521 tgl 15 0 empty empty empty 17 7 0 10 -262144 -1 -1 0.79798
0.79798;
#X obj 26 424 orfilter \$1 FX ortho1;
#X obj 23 9 param \$1 FX Mul1;
#X obj 175 372 r SYNCHRO-clock;
#N canvas 2812 854 226 221 Feedback-val 0;
#X obj 49 92 m 1;
#X obj 49 144 outlet;
#X obj 49 51 r \$1-Feedback;
#X obj 64 71 r \$1-Feedback_max;
#X connect 0 0 1 0;
#X connect 2 0 0 0;
#X connect 3 0 0 1;
#X restore 357 120 pd Feedback-val;
#X obj 295 363 r \$1-tSHIFT-snd;
#X obj 23 30 param \$1 FX VolAdj;
#X obj 96 127 r \$1-Dir-in;
#X obj 295 204 r \$1-Sa1;
#X obj 309 596 outlet~;
#X obj 26 204 *~ 0.1;
#X obj 292 708 mknob 25 100 0 1 0 0 \$1-Seuil-snd \$1-Seuil-rcv seuil:12dB
-2 -6 1 8 -257985 -1 -1 1200 1;
#X obj 377 708 mknob 25 100 0 1 0 0 \$1-Lmin-snd \$1-Lmin-rcv lmin:23.22ms
-2 -6 1 8 -4032 -1 -1 2100 1;
#X obj 469 707 mknob 25 100 0 1 0 0 \$1-Hmin-snd \$1-Hmin-rcv hmin:46.4399ms
-2 -6 1 8 -260097 -1 -1 2700 1;
#N canvas 0 330 450 300 LedSa 0;
#X obj 16 62 r \$1-Sa1;
#X obj 16 108 s \$1-tl1-rcv;
#N canvas 465 729 225 296 (subpatch) 0;
#X obj 99 23 inlet;
#X obj 99 48 t b f;
#X obj 159 116 outlet;
#X msg 68 112 0;
#X obj 60 175 s \$1-tl2-rcv;
#X obj 76 199 s \$1-tl3-rcv;
#X obj 96 220 s \$1-tl4-rcv;
#X connect 0 0 1 0;
#X connect 1 0 3 0;
#X connect 1 1 2 0;
#X connect 3 0 4 0;
#X connect 3 0 5 0;
#X connect 3 0 6 0;
#X restore 16 86 pd;
#N canvas 462 755 225 296 (subpatch) 0;
#X obj 99 23 inlet;
#X obj 99 48 t b f;
#X obj 159 116 outlet;
#X msg 68 112 0;
#X obj 76 199 s \$1-tl3-rcv;
#X obj 96 220 s \$1-tl4-rcv;
#X obj 60 175 s \$1-tl1-rcv;
#X connect 0 0 1 0;
#X connect 1 0 3 0;
#X connect 1 1 2 0;
#X connect 3 0 6 0;
#X connect 3 0 4 0;
#X connect 3 0 5 0;
#X restore 109 86 pd;
#X obj 109 62 r \$1-Sa2;
#X obj 109 108 s \$1-tl2-rcv;
#N canvas 465 729 225 296 (subpatch) 0;
#X obj 99 23 inlet;
#X obj 99 48 t b f;
#X obj 159 116 outlet;
#X msg 68 112 0;
#X obj 60 175 s \$1-tl2-rcv;
#X obj 96 220 s \$1-tl4-rcv;
#X obj 76 199 s \$1-tl1-rcv;
#X connect 0 0 1 0;
#X connect 1 0 3 0;
#X connect 1 1 2 0;
#X connect 3 0 4 0;
#X connect 3 0 6 0;
#X connect 3 0 5 0;
#X restore 206 88 pd;
#N canvas 465 729 225 296 (subpatch) 0;
#X obj 99 23 inlet;
#X obj 99 48 t b f;
#X obj 159 116 outlet;
#X msg 68 112 0;
#X obj 76 199 s \$1-tl3-rcv;
#X obj 60 175 s \$1-tl1-rcv;
#X obj 96 220 s \$1-tl2-rcv;
#X connect 0 0 1 0;
#X connect 1 0 3 0;
#X connect 1 1 2 0;
#X connect 3 0 5 0;
#X connect 3 0 4 0;
#X connect 3 0 6 0;
#X restore 299 88 pd;
#X obj 206 64 r \$1-Sa3;
#X obj 206 110 s \$1-tl3-rcv;
#X obj 299 64 r \$1-Sa4;
#X obj 299 110 s \$1-tl4-rcv;
#X connect 0 0 2 0;
#X connect 2 0 1 0;
#X connect 3 0 5 0;
#X connect 4 0 3 0;
#X connect 6 0 9 0;
#X connect 7 0 11 0;
#X connect 8 0 6 0;
#X connect 10 0 7 0;
#X restore 72 748 pd LedSa;
#X obj 380 3 paramsym \$1 SETTING sample-1-file;
#X obj 380 24 paramsym \$1 SETTING sample-2-file;
#X obj 380 44 paramsym \$1 SETTING sample-3-file;
#X obj 380 64 paramsym \$1 SETTING sample-4-file;
#N canvas 0 357 226 296 OnDec 0;
#X obj 65 25 r \$1-Sa1;
#X obj 83 47 r \$1-Sa2;
#X obj 83 92 r \$1-Sa3;
#X obj 83 134 r \$1-Sa4;
#X obj 65 72 ++;
#X obj 65 112 ++;
#X obj 65 156 ++;
#X obj 65 179 != 0;
#X obj 65 202 s \$1-fs1-on-rcv;
#X connect 0 0 4 0;
#X connect 1 0 4 1;
#X connect 2 0 5 1;
#X connect 3 0 6 1;
#X connect 4 0 5 0;
#X connect 5 0 6 0;
#X connect 6 0 7 0;
#X connect 7 0 8 0;
#X restore 66 770 pd OnDec;
#X obj 290 754 mknob 25 100 0 1 0 0 \$1-THi-snd \$1-THi-rcv tHi:0.18s
-2 -6 1 8 -4032 -1 -1 1800 1;
#X obj 375 754 mknob 25 100 0 1 0 0 \$1-TLow-snd \$1-TLow-rcv tLow:0.53s
-2 -6 1 8 -4032 -1 -1 1500 1;
#X obj 467 753 mknob 25 100 0 1 0 0 \$1-Thresh-snd \$1-Thresh-rcv Threshold:82.7273
-2 -6 1 8 -261234 -1 -1 8000 1;
#X obj 216 42 inlet~;
#X obj 311 42 inlet~;
#N canvas 0 499 450 300 apf-etc 0;
#X symbolatom 8 156 0 0 0 0 - #1-sample-1-file-rcv #1-sample-1-file-snd
;
#X symbolatom 8 196 0 0 0 0 - #1-sample-2-file-rcv #1-sample-2-file-snd
;
#X symbolatom 8 229 0 0 0 0 - #1-sample-3-file-rcv #1-sample-3-file-snd
;
#X symbolatom 7 265 0 0 0 0 - #1-sample-4-file-rcv #1-sample-4-file-snd
;
#X obj 29 46 apf \$1-SETTING Seuil \$1-Seuil 2;
#X obj 28 67 apf \$1-SETTING Lmin \$1-Lmin 2;
#X obj 25 89 apf \$1-SETTING Hmin \$1-Hmin 2;
#X obj 255 45 apf \$1-SETTING Thresh \$1-Thresh 2;
#X obj 251 88 apf \$1-SETTING TLow \$1-TLow 2;
#X obj 254 65 apf \$1-SETTING THi \$1-THi 2;
#X obj 108 125 l aptab \$1-SETTING SnapTirage \$1-SnapTirage 2;
#X restore 372 88 pd apf-etc;
#X obj 408 235 hip~ 10;
#X obj 455 400 *~;
#X obj 471 357 mull~ 0 3;
#X obj 408 267 *~ 10;
#X obj 456 309 dist~ 1;
#X obj 447 516 * 3;
#X obj 409 539 mull~ 0.7 1;
#X obj 500 337 * 10;
#N canvas 436 628 190 272 vol-direct 0;
#X msg 102 74 1 \$1;
#X obj 72 203 outlet;
#X obj 102 156 spigot;
#X obj 102 133 f;
#X obj 57 82 t b f;
#X obj 23 130 sel 0;
#X msg 23 149 1;
#X obj 23 28 r \$1-REC-snd;
#X obj 102 53 inlet;
#X floatatom 136 231 5 0 0 0 - - -, f 5;
#X obj 102 110 *;
#X connect 0 0 10 0;
#X connect 2 0 1 0;
#X connect 2 0 9 0;
#X connect 3 0 2 0;
#X connect 4 0 3 0;
#X connect 4 1 2 1;
#X connect 5 0 6 0;
#X connect 6 0 1 0;
#X connect 7 0 5 0;
#X connect 7 0 4 0;
#X connect 8 0 0 0;
#X connect 10 0 3 0;
#X restore 478 207 pd vol-direct;
#X obj 476 229 * 2;
#X obj 408 433 orfilter \$1 FX ortho1;
#X obj 408 213 *~ 0.1;
#X connect 3 0 12 0;
#X connect 3 1 1 0;
#X connect 4 0 8 0;
#X connect 5 0 26 0;
#X connect 6 0 5 1;
#X connect 7 0 20 0;
#X connect 7 0 58 0;
#X connect 8 0 9 0;
#X connect 8 0 26 0;
#X connect 9 0 6 0;
#X connect 9 0 5 0;
#X connect 10 0 13 1;
#X connect 11 0 19 1;
#X connect 13 0 11 0;
#X connect 13 0 25 0;
#X connect 13 0 56 0;
#X connect 14 0 15 0;
#X connect 15 0 16 0;
#X connect 16 0 13 0;
#X connect 17 0 22 0;
#X connect 18 0 17 0;
#X connect 19 0 0 0;
#X connect 20 0 6 1;
#X connect 21 0 24 0;
#X connect 22 0 16 0;
#X connect 22 1 16 1;
#X connect 23 0 18 0;
#X connect 24 0 8 1;
#X connect 26 0 19 0;
#X connect 28 0 14 0;
#X connect 29 0 2 0;
#X connect 30 0 23 0;
#X connect 32 0 21 0;
#X connect 32 0 59 0;
#X connect 35 0 4 0;
#X connect 48 0 35 0;
#X connect 48 0 0 0;
#X connect 49 0 34 0;
#X connect 49 0 62 0;
#X connect 51 0 54 0;
#X connect 52 0 61 0;
#X connect 53 0 52 1;
#X connect 54 0 55 0;
#X connect 54 0 61 0;
#X connect 55 0 53 0;
#X connect 55 0 52 0;
#X connect 56 0 57 1;
#X connect 57 0 34 0;
#X connect 58 0 53 1;
#X connect 59 0 60 0;
#X connect 60 0 54 1;
#X connect 61 0 57 0;
#X connect 62 0 51 0;
#X restore 32 94 pd ALLSOUND;
#X obj 32 69 inlet~;
#X obj 17 284 outlet~;
#X obj 114 11 MORPHgroup \$1 FX;
#X floatatom 114 -25 5 0 0 0 - - -, f 5;
#X obj 32 182 Vmull~ 0 10;
#X obj 266 131 t b;
#X obj 266 109 r SYNCHRO-clock;
#X obj 284 234 m;
#X obj 284 267 nbx 5 14 -1e+37 1e+37 0 0 \$0-Tempo-snd \$0-Tempo-rcv
16 5 -8 0 10 -262144 -1 -1 0 256;
#X obj 63 118 r \$1-Volume;
#X obj 284 189 r \$1-Vitesse;
#X obj 299 211 r \$1-Vitesse_max;
#X obj 114 -9 r \$1-Effet;
#X obj 268 153 s \$1-lrouge;
#X obj 93 228 Vmull~ 0 10;
#X obj 124 164 r \$1-Volume;
#X obj 88 283 outlet~;
#X obj 104 74 inlet~;
#X connect 0 0 5 0;
#X connect 0 1 15 0;
#X connect 1 0 0 0;
#X connect 5 0 2 0;
#X connect 6 0 14 0;
#X connect 7 0 6 0;
#X connect 8 0 9 0;
#X connect 10 0 5 1;
#X connect 11 0 8 0;
#X connect 12 0 8 1;
#X connect 13 0 3 0;
#X connect 13 0 4 0;
#X connect 15 0 17 0;
#X connect 16 0 15 1;
#X connect 18 0 0 1;
#X restore 159 363 pd son;
#X obj 4 100 MASTERtypeOUTstereo \$1 1;
#X obj 313 329 tgl 15 1 empty empty empty 17 7 0 10 -262144 -1 -1 1
1;
#X obj 312 354 s \$1-Ch;
#X obj 7 669 KEPCommon \$1 \$0;
#X obj 125 13 KEPface \$1;
#X obj 4 12 MASTERtypeIN \$1 1 \$0;
#X obj 253 274 mull~ 1 10;
#X obj 297 247 s \$1-tlREC-rcv;
#X obj 284 224 r \$1-REC;
#X obj 152 329 ./Dec/0Stre \$1;
#N canvas 223 496 789 655 TabPosLen 0;
#X obj 90 68 r SYNCHRO-bpm-snd;
#X floatatom 106 144 5 0 0 0 - - -, f 5;
#X floatatom 156 117 5 0 0 0 - - -, f 5;
#X obj 259 82 r SYNCHRO-clock;
#X floatatom 74 244 5 0 0 0 - - -, f 5;
#X obj 47 201 r SYNCHRO-tic-rcv;
#X obj 259 107 unpack f f;
#X floatatom 202 127 5 0 0 0 - - -, f 5;
#X floatatom 354 119 5 0 0 0 - - -, f 5;
#X floatatom 30 262 5 0 0 0 - - -, f 5;
#X floatatom 256 312 5 0 0 0 - - -, f 5;
#X floatatom 367 366 0 0 0 0 - - -;
#X obj 325 294 ndmetro;
#X msg 326 142 tempo \$1;
#X floatatom 149 161 5 0 0 0 - - -, f 5;
#X msg 342 257 nd \$1 \$2;
#X obj 143 276 print;
#X obj 258 127 t f f;
#X obj 97 224 f;
#X msg 279 264 0;
#X obj 254 238 sel 0;
#X obj 269 150 sel -1;
#X msg 269 172 -1;
#X obj 25 21 table \$1-PosMot 2048;
#X obj 487 274 tgl 15 0 empty empty empty 17 7 0 10 -262144 -1 -1 0
1;
#X obj 517 160 tgl 15 0 empty empty empty 17 7 0 10 -262144 -1 -1 0
1;
#N canvas 1741 339 375 402 DoubleClicRecShift=0 0;
#X obj 115 54 sel 1;
#X obj 183 120 i;
#X msg 99 129 0;
#X obj 226 122 + 1;
#X obj 268 289 tgl 15 1 empty empty empty 17 7 0 10 -262144 -1 -1 0
1;
#X obj 174 372 outlet;
#X obj 173 180 i;
#X obj 216 182 + 1;
#X obj 97 104 del 400;
#X floatatom 145 331 5 0 0 0 - - -, f 5;
#X obj 115 1 r \$1-Rec;
#X obj 115 75 t b b;
#X obj 172 201 mod 2;
#X obj 173 155 sel 4;
#X obj 20 165 r \$1-tSHIFT-snd;
#X msg 20 259 0;
#X obj 176 252 f;
#X obj 246 345 bng 15 250 50 0 empty empty empty 17 7 0 10 -262144
-1 -1;
#X obj 273 361 s \$1-lvert;
#X obj 271 310 metro 400;
#X obj 115 29 spigot;
#X obj 19 205 t b b;
#X msg 35 233 1;
#X obj 197 27 tgl 15 0 empty empty empty 17 7 0 10 -262144 -1 -1 1
1;
#X obj 288 213 != 1;
#X connect 0 0 11 0;
#X connect 1 0 3 0;
#X connect 1 0 13 0;
#X connect 2 0 1 0;
#X connect 3 0 1 1;
#X connect 4 0 19 0;
#X connect 6 0 7 0;
#X connect 6 0 12 0;
#X connect 7 0 6 1;
#X connect 8 0 2 0;
#X connect 10 0 20 0;
#X connect 11 0 8 0;
#X connect 11 1 1 0;
#X connect 12 0 16 0;
#X connect 13 0 6 0;
#X connect 14 0 21 0;
#X connect 15 0 16 0;
#X connect 15 0 6 0;
#X connect 16 0 9 0;
#X connect 16 0 5 0;
#X connect 16 0 4 0;
#X connect 16 0 24 0;
#X connect 19 0 17 0;
#X connect 19 0 18 0;
#X connect 20 0 0 0;
#X connect 21 0 15 0;
#X connect 21 1 22 0;
#X connect 22 0 23 0;
#X connect 23 0 20 1;
#X connect 24 0 23 0;
#X restore 512 114 pd DoubleClicRecShift=0;
#N canvas 1738 365 375 402 DoubleClicRec 0;
#X obj 115 54 sel 1;
#X obj 183 120 i;
#X msg 99 129 0;
#X obj 226 122 + 1;
#X obj 268 289 tgl 15 1 empty empty empty 17 7 0 10 -262144 -1 -1 1
1;
#X obj 174 372 outlet;
#X obj 173 180 i;
#X obj 216 182 + 1;
#X obj 97 104 del 400;
#X floatatom 145 331 5 0 0 0 - - -, f 5;
#X obj 67 4 r \$1-Rec;
#X obj 115 75 t b b;
#X obj 172 201 mod 2;
#X obj 173 155 sel 4;
#X obj 176 252 f;
#X obj 246 345 bng 15 250 50 0 empty empty empty 17 7 0 10 -262144
-1 -1;
#X obj 273 361 s \$1-lvert;
#X obj 271 310 metro 400;
#X obj 164 55 spigot;
#X obj 197 27 tgl 15 0 empty empty empty 17 7 0 10 -262144 -1 -1 0
1;
#X obj 288 213 != 1;
#X floatatom 228 157 5 0 0 0 - - -, f 5;
#X connect 0 0 11 0;
#X connect 1 0 3 0;
#X connect 1 0 13 0;
#X connect 1 0 21 0;
#X connect 2 0 1 0;
#X connect 3 0 1 1;
#X connect 4 0 17 0;
#X connect 6 0 7 0;
#X connect 6 0 12 0;
#X connect 7 0 6 1;
#X connect 8 0 2 0;
#X connect 10 0 0 0;
#X connect 11 0 8 0;
#X connect 11 1 1 0;
#X connect 12 0 14 0;
#X connect 13 0 6 0;
#X connect 14 0 9 0;
#X connect 14 0 5 0;
#X connect 14 0 4 0;
#X connect 14 0 20 0;
#X connect 17 0 15 0;
#X connect 17 0 16 0;
#X connect 19 0 18 1;
#X connect 20 0 19 0;
#X restore 482 228 pd DoubleClicRec;
#X obj 296 346 SAMPLEseq \$1 SaSeq1;
#X obj 26 43 table \$1-SaTrig 2048;
#X obj 525 69 MR_table;
#X obj 16 232 mod 16;
#N canvas 0 383 225 218 TailleRec 0;
#X obj 14 63 i;
#X obj 14 21 r \$1-TailleRec;
#X obj 14 42 * 8.9;
#X obj 14 85 sel 0 1 2 3 4 5 6 7 8;
#X obj 30 174 outlet;
#X msg 14 105 4, f 1;
#X msg 30 125 5, f 1;
#X msg 46 106 6, f 1;
#X msg 62 126 7, f 1;
#X msg 78 106 8, f 1;
#X msg 94 126 12, f 2;
#X msg 110 106 16, f 2;
#X msg 126 126 24, f 2;
#X msg 142 106 32, f 2;
#X connect 0 0 3 0;
#X connect 1 0 2 0;
#X connect 2 0 0 0;
#X connect 3 0 5 0;
#X connect 3 1 6 0;
#X connect 3 2 7 0;
#X connect 3 3 8 0;
#X connect 3 4 9 0;
#X connect 3 5 10 0;
#X connect 3 6 11 0;
#X connect 3 7 12 0;
#X connect 3 8 13 0;
#X connect 5 0 4 0;
#X connect 6 0 4 0;
#X connect 7 0 4 0;
#X connect 8 0 4 0;
#X connect 9 0 4 0;
#X connect 10 0 4 0;
#X connect 11 0 4 0;
#X connect 12 0 4 0;
#X connect 13 0 4 0;
#X restore 403 95 pd TailleRec;
#X msg 371 230 2048 64;
#X obj 253 212 mod 2;
#X floatatom 410 123 5 0 0 0 - - -, f 5;
#X obj 188 16 aptab \$1-SETTING PosMot \$1-PosMot 2048 2;
#X obj 183 37 aptab \$1-SETTING SaTrig \$1-SaTrig 2048 2;
#X obj 527 267 t b;
#X obj 415 184 loadbang;
#N canvas 992 498 450 300 eraseTables 0;
#X obj 102 221 tabwrite \$1-PosMot;
#X obj 81 78 for++ 0 2048;
#X obj 88 148 t b f;
#X obj 88 170 pack f f;
#X msg 88 192 \$1 \$2;
#X obj 72 247 tabwrite \$1-SaTrig;
#X obj 81 101 t b f;
#X msg 66 126 0, f 1;
#X obj 81 58 bng 15 250 50 0 empty empty empty 17 7 0 10 -262144 -1
-1;
#X obj 71 27 inlet;
#X connect 1 0 6 0;
#X connect 2 0 3 0;
#X connect 2 1 3 1;
#X connect 3 0 4 0;
#X connect 4 0 5 0;
#X connect 4 0 0 0;
#X connect 6 0 7 0;
#X connect 6 1 2 0;
#X connect 7 0 3 0;
#X connect 8 0 1 0;
#X connect 9 0 8 0;
#X restore 527 290 pd eraseTables;
#X connect 0 0 1 0;
#X connect 3 0 6 0;
#X connect 5 0 4 0;
#X connect 5 0 31 0;
#X connect 6 0 7 0;
#X connect 6 0 17 0;
#X connect 6 1 8 0;
#X connect 6 1 13 0;
#X connect 12 0 10 0;
#X connect 12 0 28 0;
#X connect 12 1 11 0;
#X connect 13 0 12 0;
#X connect 15 0 12 0;
#X connect 17 0 34 0;
#X connect 17 1 21 0;
#X connect 19 0 12 0;
#X connect 20 0 19 0;
#X connect 21 0 22 0;
#X connect 22 0 12 0;
#X connect 26 0 25 0;
#X connect 27 0 24 0;
#X connect 27 0 38 0;
#X connect 31 0 9 0;
#X connect 32 0 34 1;
#X connect 32 0 35 0;
#X connect 33 0 15 0;
#X connect 34 0 20 0;
#X connect 38 0 40 0;
#X connect 39 0 33 0;
#X restore 157 480 pd TabPosLen;
#X obj 254 418 tgl 15 1 empty empty empty 17 7 0 10 -262144 -1 -1 1
1;
#X obj 253 436 switch~;
#X obj 254 395 mainDSPswitch \$1;
#X connect 2 0 9 0;
#X connect 3 0 9 1;
#X connect 5 0 6 0;
#X connect 5 1 6 1;
#X connect 7 0 8 0;
#X connect 11 0 12 0;
#X connect 12 0 15 0;
#X connect 14 0 12 1;
#X connect 14 0 13 0;
#X connect 15 0 5 0;
#X connect 15 1 5 1;
#X connect 17 0 18 0;
#X connect 19 0 17 0;
#X coords 0 -1 1 1 42 656 2 0 0;
