#N canvas 309 92 942 515 10;
#X declare -path abs;
#X declare -path shader;
#X declare -path AutoPreset;
#X declare -lib pmpd;
#X declare -path pmpdabs;
#X declare -path gemabs-;
#X declare -path mapping;
#X obj 41 25 cnv 15 100 60 empty empty empty 20 12 0 14 -195568 -66577
0;
#N canvas 1 429 778 318 gemwin 0;
#X obj 132 136 gemwin;
#X obj 67 89 outlet;
#X obj 67 10 inlet;
#X msg 67 70 set destroy;
#X msg 297 113 destroy;
#X msg 156 71 set create;
#X obj 67 41 route create;
#X msg 311 80 lighting \$1;
#X obj 310 55 tgl 15 0 empty empty empty 17 7 0 10 -262144 -1 -1 0
1;
#X obj 220 197 gemhead 80;
#X obj 217 227 world_light;
#X floatatom 326 162 5 0 0 0 - - -;
#X msg 334 130 20;
#X msg 319 188 frame \$1;
#X msg 364 132 30;
#X obj 86 132 tgl 15 0 empty empty empty 17 7 0 10 -262144 -1 -1 0
1;
#X obj 67 190 r \$0-2gemwin;
#X obj 136 7 loadbang;
#X msg 132 112 create :0 \, 1 \, view 0 0 3;
#X msg 381 172 60;
#X msg 198 32 dimen 1024 768 \, border 1 \, cursor 1;
#X obj 466 100 s \$0-2gemwin;
#X msg 462 29 dimen 1280 1024 \, border 0 \, cursor 0 \, offset 0 0
;
#X text 551 7 1280 + 3*1024;
#X msg 494 65 dimen 1024 300 \, border 1 \, cursor 1;
#X msg 455 189 dimen \$1 768 \, border 0 \, cursor 0 \, offset 0 0
;
#X obj 456 165 + 1280;
#X obj 455 145 * 1024;
#X obj 461 123 hradio 15 1 0 4 empty empty empty 0 -8 0 10 -262144
-1 -1 0;
#X obj 458 220 s \$0-2gemwin;
#X msg 174 277 dimen 4352 768 \, border 0 \, cursor 0 \, offset 0 0
;
#X msg 399 135 40;
#X msg 190 10 dimen 4096 768 \, border 0 \, cursor 0 \, offset 416
0 \, frame 30;
#X connect 2 0 6 0;
#X connect 3 0 1 0;
#X connect 4 0 0 0;
#X connect 5 0 1 0;
#X connect 6 0 3 0;
#X connect 6 0 18 0;
#X connect 6 1 5 0;
#X connect 6 1 4 0;
#X connect 7 0 0 0;
#X connect 8 0 7 0;
#X connect 11 0 13 0;
#X connect 12 0 11 0;
#X connect 13 0 0 0;
#X connect 14 0 11 0;
#X connect 15 0 0 0;
#X connect 16 0 0 0;
#X connect 17 0 32 0;
#X connect 18 0 0 0;
#X connect 19 0 11 0;
#X connect 20 0 0 0;
#X connect 22 0 21 0;
#X connect 24 0 21 0;
#X connect 25 0 29 0;
#X connect 26 0 25 0;
#X connect 27 0 26 0;
#X connect 28 0 27 0;
#X connect 31 0 11 0;
#X connect 32 0 0 0;
#X restore 46 64 pd gemwin;
#X msg 46 42 destroy;
#X text 42 21 Create window:;
#N canvas 1281 266 544 500 perspec 0;
#X obj 90 428 outlet;
#X obj 268 273 t f f;
#X obj 268 298 * -1;
#X obj 90 268 t f f;
#X obj 90 293 * -1;
#X obj 90 367 pack -1 1 -1 1 1 20;
#X msg 90 389 set perspec \$1 \$2 \$3 \$4 \$5 \$6 \, bang;
#X msg 172 453 set perspec \, adddollar 1 \, adddollar 2 \, adddollar
3 \, adddollar 4 \, adddollar 5 \, adddollar 6;
#X floatatom 103 117 5 0.1 5 1 x_wideness - -;
#X floatatom 103 134 5 0.1 5 1 y_wideness - -;
#X floatatom 103 151 5 0 0 1 z_depth - -;
#X obj 360 196 select 1;
#X obj 405 219 t b f f;
#X obj 249 226 t b f f;
#X obj 204 203 select 0;
#X obj 360 218 f 20;
#X obj 204 224 f 1;
#X msg 204 246 set \$1;
#X msg 360 240 set \$1;
#X obj 134 216 t b f f;
#X obj 89 193 select 0;
#X obj 89 214 f 1;
#X msg 89 236 set \$1;
#X obj 328 79 loadbang;
#X obj 328 101 t b b;
#X obj 328 141 t b b b;
#X obj 235 45 inlet;
#X connect 1 0 2 0;
#X connect 1 1 5 3;
#X connect 2 0 5 2;
#X connect 3 0 4 0;
#X connect 3 1 5 1;
#X connect 4 0 5 0;
#X connect 5 0 6 0;
#X connect 6 0 0 0;
#X connect 7 0 0 0;
#X connect 8 0 20 0;
#X connect 9 0 14 0;
#X connect 10 0 11 0;
#X connect 11 0 15 0;
#X connect 11 1 12 0;
#X connect 12 0 5 0;
#X connect 12 1 5 5;
#X connect 12 2 15 1;
#X connect 13 0 5 0;
#X connect 13 1 1 0;
#X connect 13 2 16 1;
#X connect 14 0 16 0;
#X connect 14 1 13 0;
#X connect 15 0 18 0;
#X connect 16 0 17 0;
#X connect 17 0 9 0;
#X connect 18 0 10 0;
#X connect 19 1 3 0;
#X connect 19 2 21 1;
#X connect 20 0 21 0;
#X connect 20 1 19 0;
#X connect 21 0 22 0;
#X connect 22 0 8 0;
#X connect 23 0 24 0;
#X connect 24 0 25 0;
#X connect 24 1 0 0;
#X connect 25 0 21 0;
#X connect 25 1 16 0;
#X connect 25 2 15 0;
#X connect 26 0 8 0;
#X connect 26 0 9 0;
#X coords 0 -1 1 1 100 67 1 100 100;
#X restore 168 32 pd perspec;
#X floatatom 169 12 5 0 0 0 - - -;
#X msg 170 102 perspec -1 1 -1 1 1 205;
#X obj 154 254 separator;
#X obj 139 103 tgl 15 0 empty empty empty 17 7 0 10 -262144 -1 -1 0
1;
#N canvas 134 104 955 684 SCENE 0;
#X obj 81 11 inlet head;
#X msg 303 234 draw line;
#X msg 309 257 draw fill;
#X floatatom 332 285 5 0 0 0 - - -;
#X msg 28 387 linewidth 4;
#X floatatom 312 372 5 0 0 0 - - -;
#X obj 177 342 colorRGB 1 0 0 0.6;
#X obj 36 256 colorRGB 0 1 0 0.6;
#X obj 36 278 rotateXYZ 90 0 0;
#X obj 36 298 t a a a;
#X obj 174 366 separator;
#X obj 52 321 rotateXYZ 0 120 0;
#X obj -212 64 separator;
#X msg -214 520 draw line;
#X obj 44 229 separator;
#X floatatom -15 536 5 0 0 0 - - -;
#X obj -139 484 separator;
#X obj -134 511 t a a;
#X obj -136 534 rotateXYZ 0 0 90;
#X obj -152 372 colorRGB 0 1 1 0.6;
#X obj 27 346 rotateXYZ 0 120 0;
#X obj -11 492 loadbang;
#X msg -11 513 10;
#X obj 307 209 loadbang;
#X obj -213 492 loadbang;
#N canvas 1415 285 468 458 draw_geos 0;
#X obj 244 159 rotateXYZ;
#X obj 398 109 f;
#X obj 398 158 % 360;
#X obj 398 134 + 1;
#X obj 398 86 metro 50;
#X obj 64 92 color 0.8 0.8 0.8;
#X obj 244 92 color 0.8 0.8 0.8;
#X obj 64 188 cube 0.75;
#X obj 64 157 rotateXYZ 45 0 0;
#X obj 63 259 color 0.8 0.8 0.8;
#X obj 243 259 color 0.8 0.8 0.8;
#X obj 63 308 sphere 0.75 30;
#X obj 398 56 inlet;
#X obj 186 17 inlet;
#X obj 64 53 separator;
#X obj 244 55 separator;
#X obj 63 220 separator;
#X obj 243 222 separator;
#X obj 64 118 translateXYZ 3 3 0;
#X obj 244 117 translateXYZ 3 -3 0;
#X obj 63 285 translateXYZ -3 3 0;
#X obj 243 284 translateXYZ -3 -3 0;
#X obj 244 190 cylinder 0.75;
#X obj 243 310 cube 0.75;
#X obj 402 223 fmod 360;
#X obj 402 243 / 180;
#X obj 402 262 * 3.14159;
#X obj 402 286 cos;
#X obj 403 201 * 10;
#X obj 355 360 f;
#X obj 390 314 + 1;
#X obj 393 381 * -1;
#X obj 394 408 + 1;
#X floatatom 321 215 5 0 0 0 - - -;
#X floatatom 429 365 5 0 0 0 - - -;
#X connect 0 0 22 0;
#X connect 1 0 3 0;
#X connect 2 0 1 1;
#X connect 2 0 0 3;
#X connect 2 0 8 3;
#X connect 2 0 0 2;
#X connect 2 0 28 0;
#X connect 3 0 2 0;
#X connect 4 0 1 0;
#X connect 5 0 18 0;
#X connect 6 0 19 0;
#X connect 8 0 7 0;
#X connect 9 0 20 0;
#X connect 10 0 21 0;
#X connect 12 0 4 0;
#X connect 13 0 17 0;
#X connect 13 0 14 0;
#X connect 13 0 15 0;
#X connect 13 0 16 0;
#X connect 14 0 5 0;
#X connect 15 0 6 0;
#X connect 16 0 9 0;
#X connect 17 0 10 0;
#X connect 18 0 8 0;
#X connect 19 0 0 0;
#X connect 20 0 11 0;
#X connect 21 0 23 0;
#X connect 24 0 25 0;
#X connect 25 0 26 0;
#X connect 26 0 27 0;
#X connect 27 0 30 0;
#X connect 27 0 31 0;
#X connect 28 0 24 0;
#X connect 29 0 21 3;
#X connect 29 0 18 3;
#X connect 30 0 29 0;
#X connect 31 0 32 0;
#X connect 32 0 20 3;
#X connect 32 0 19 3;
#X connect 33 0 22 1;
#X connect 34 0 32 1;
#X connect 34 0 30 1;
#X restore -205 177 pd draw_geos;
#X obj -137 158 tgl 15 1 empty empty empty 17 7 0 10 -262144 -1 -1
1 1;
#X text -124 152 rotate objects;
#X obj 82 34 separator;
#X obj -222 135 rotateXYZ 0 0 0;
#X floatatom -160 109 5 0 0 0 - - -;
#X obj -72 79 f;
#X obj -72 56 metro 50;
#X obj -72 128 fmod 360;
#X obj -72 104 + 0.5;
#X obj 382 31 separator;
#X obj 284 188 colorRGB 1 1 1 1;
#X obj 384 63 colorRGB 1 1 1 1;
#X obj 83 83 t a a a a;
#X obj 375 121 rotateXYZ;
#X obj 355 151 world_light;
#X floatatom 406 92 5 0 0 0 - - -;
#X obj 446 119 rotateXYZ;
#X floatatom 477 90 5 0 0 0 - - -;
#X floatatom 443 89 5 0 0 0 - - -;
#X floatatom 331 70 5 0 0 0 - - -;
#X obj 433 149 world_light;
#X obj 309 125 light;
#X floatatom -96 403 5 0 0 0 - - -;
#X obj -139 337 separator;
#X obj -167 426 translateXYZ 0 0 -1;
#X floatatom -130 401 5 0 0 0 - - -;
#X obj 173 396 scale 1 1 0.005;
#X obj 282 309 sphere 2 24;
#X obj 173 426 cylinder 2 24;
#X msg -19 594 grid \$1;
#X floatatom -13 565 5 0 0 0 - - -;
#X obj 43 150 spigot;
#X obj 91 152 > 0.01;
#X obj 168 133 hsl 128 15 0 1 0 0 empty gridAlpha gridAlpha -2 -8 0
10 -262144 -1 -1 0 1;
#X obj 40 174 t a a a;
#X obj 165 209 * 0.6;
#X obj -140 574 mesh_square 2 50;
#X floatatom 415 666 5 0 0 0 - - -;
#X obj 107 454 separator;
#X obj 81 572 colorRGB 1 1 1 0.9;
#X obj 131 645 cube 10;
#X floatatom 178 619 5 0 0 0 - - -;
#X msg 244 507 reload;
#X obj 162 491 r \$0-cubetex;
#X obj 99 535 shaderLoad base cube;
#X obj 99 512 pix_texture;
#X obj 299 479 pix_texture;
#X obj 346 457 r \$0-equitex;
#X obj 289 416 separator;
#X obj 102 489 separator;
#X obj 85 615 rotateXYZ;
#X floatatom 108 593 5 0 0 0 - - -;
#X floatatom 149 593 5 0 0 0 - - -;
#X obj 33 651 sphere 10 20;
#X floatatom 332 545 5 0 0 0 - - -;
#X floatatom 431 543 5 0 0 0 - - -;
#X floatatom 395 549 5 0 0 0 - - -;
#X floatatom 359 624 5 0 0 0 - - -;
#X floatatom 332 501 5 0 0 0 - - -;
#X floatatom 409 501 5 0 0 0 - - -;
#X floatatom 378 502 5 0 0 0 - - -;
#X obj 309 523 translateXYZ;
#X obj 531 200 r Clock;
#X floatatom 549 283 5 0 0 0 - - -;
#X obj 532 227 unpack f;
#X obj 535 255 mod 8;
#X floatatom 530 168 5 0 0 0 - - -;
#X obj 460 204 mod 8;
#X obj 459 180 + 4;
#X obj 457 229 - 4;
#X obj 307 448 spigot;
#X obj 357 414 > 0.001;
#X msg 409 685 50;
#X obj 423 327 * 0.01;
#X obj 452 251 * 0.005;
#X obj 318 649 colorRGB 0.83 0.83 1 0.9;
#X obj 318 672 sphere 9 50;
#X obj 420 350 +;
#X obj 451 273 +;
#X msg 402 264 0;
#X floatatom 411 625 5 0 0 0 - - -;
#X obj 489 543 hsl 128 15 0 1 0 0 empty fb-fondu fb-fondu -2 -8 0 10
-262144 -1 -1 0 1;
#X obj 192 10 hradio 15 1 0 8 empty empty empty 0 -8 0 10 -262144 -1
-1 0;
#X obj 188 29 + 1;
#X floatatom 207 57 5 0 0 0 - - -;
#X obj 84 54 GEMglLineWidth 4;
#X obj 485 565 pow 0.2;
#X obj 586 351 colsel fb col;
#X obj 578 513 pow 0.2;
#X obj 599 478 pow 0.2;
#X obj 628 515 pow 0.2;
#X obj 654 487 pow 0.2;
#X obj 309 567 rotateXYZ -0.08 0.15 0.61;
#N canvas 1 87 450 389 fb-move 0;
#X obj 123 26 r fb-move;
#X obj 96 246 cos;
#X obj 120 248 sin;
#X obj 95 219 t f f;
#X obj 97 271 *;
#X obj 129 273 *;
#X obj 122 166 t f f;
#X obj 152 54 hsl 128 15 0 1 0 0 empty empty empty -2 -8 0 10 -262144
-1 -1 0 1;
#X obj 86 310 outlet;
#X obj 137 312 outlet;
#X obj 167 186 pow 1;
#X obj 95 196 * 15;
#X obj 162 216 * 5;
#X msg 115 119 \$1 200;
#X obj 116 142 line;
#X connect 0 0 13 0;
#X connect 1 0 4 0;
#X connect 2 0 5 0;
#X connect 3 0 1 0;
#X connect 3 1 2 0;
#X connect 4 0 8 0;
#X connect 5 0 9 0;
#X connect 6 0 11 0;
#X connect 6 1 10 0;
#X connect 7 0 13 0;
#X connect 10 0 12 0;
#X connect 11 0 3 0;
#X connect 12 0 4 1;
#X connect 12 0 5 1;
#X connect 13 0 14 0;
#X connect 14 0 6 0;
#X restore 401 521 pd fb-move;
#X floatatom 665 552 5 0 0 0 - - -;
#X obj 360 443 tgl 15 0 empty empty empty 17 7 0 10 -262144 -1 -1 0
1;
#X floatatom 384 592 5 0 0 0 - - -;
#X obj 316 608 rotateXYZ 0 0 189;
#X connect 0 0 28 0;
#X connect 1 0 53 0;
#X connect 2 0 53 0;
#X connect 3 0 53 1;
#X connect 5 0 54 1;
#X connect 6 0 10 0;
#X connect 7 0 8 0;
#X connect 8 0 9 0;
#X connect 9 0 20 0;
#X connect 9 1 11 0;
#X connect 9 2 10 0;
#X connect 10 0 52 0;
#X connect 11 0 10 0;
#X connect 12 0 29 0;
#X connect 13 0 62 0;
#X connect 14 0 7 0;
#X connect 15 0 62 1;
#X connect 16 0 17 0;
#X connect 17 0 18 0;
#X connect 17 1 62 0;
#X connect 18 0 62 0;
#X connect 19 0 50 0;
#X connect 20 0 10 0;
#X connect 21 0 22 0;
#X connect 22 0 15 0;
#X connect 23 0 1 0;
#X connect 24 0 13 0;
#X connect 26 0 25 1;
#X connect 26 0 32 0;
#X connect 28 0 111 0;
#X connect 29 0 25 0;
#X connect 30 0 29 3;
#X connect 31 0 34 0;
#X connect 32 0 31 0;
#X connect 33 0 31 1;
#X connect 33 0 29 3;
#X connect 34 0 33 0;
#X connect 35 0 37 0;
#X connect 36 0 53 0;
#X connect 37 0 39 0;
#X connect 37 0 42 0;
#X connect 38 1 57 0;
#X connect 38 2 74 0;
#X connect 38 3 35 0;
#X connect 38 3 47 0;
#X connect 39 0 40 0;
#X connect 41 0 39 2;
#X connect 42 0 46 0;
#X connect 43 0 42 2;
#X connect 44 0 42 1;
#X connect 45 0 39 1;
#X connect 48 0 50 3;
#X connect 49 0 19 0;
#X connect 50 0 16 0;
#X connect 51 0 50 1;
#X connect 52 0 54 0;
#X connect 55 0 62 0;
#X connect 56 0 55 0;
#X connect 57 0 60 0;
#X connect 58 0 57 1;
#X connect 59 0 58 0;
#X connect 59 0 36 4;
#X connect 59 0 61 0;
#X connect 60 0 49 0;
#X connect 60 1 6 0;
#X connect 60 1 14 0;
#X connect 60 2 36 0;
#X connect 61 0 7 4;
#X connect 61 0 6 4;
#X connect 61 0 19 4;
#X connect 63 0 102 1;
#X connect 65 0 76 0;
#X connect 67 0 66 1;
#X connect 68 0 70 1;
#X connect 69 0 71 1;
#X connect 70 0 65 0;
#X connect 71 0 70 0;
#X connect 72 0 87 0;
#X connect 73 0 72 1;
#X connect 74 0 96 0;
#X connect 75 0 71 0;
#X connect 77 0 76 1;
#X connect 78 0 76 3;
#X connect 80 0 118 1;
#X connect 81 0 118 3;
#X connect 82 0 118 2;
#X connect 83 0 101 2;
#X connect 83 0 101 1;
#X connect 84 0 87 1;
#X connect 85 0 87 3;
#X connect 86 0 87 2;
#X connect 87 0 118 0;
#X connect 88 0 90 0;
#X connect 90 0 91 0;
#X connect 90 0 94 0;
#X connect 91 0 99 0;
#X connect 93 0 95 0;
#X connect 94 0 93 0;
#X connect 95 0 100 0;
#X connect 96 0 72 0;
#X connect 97 0 96 1;
#X connect 97 0 121 0;
#X connect 98 0 102 2;
#X connect 99 0 103 0;
#X connect 100 0 104 0;
#X connect 101 0 102 0;
#X connect 103 0 87 3;
#X connect 104 0 87 1;
#X connect 105 0 100 1;
#X connect 105 0 99 1;
#X connect 106 0 101 1;
#X connect 106 0 101 2;
#X connect 106 0 101 3;
#X connect 107 0 112 0;
#X connect 108 0 109 0;
#X connect 109 0 110 0;
#X connect 109 0 111 1;
#X connect 111 0 38 0;
#X connect 112 0 106 0;
#X connect 113 0 114 0;
#X connect 113 1 115 0;
#X connect 113 2 116 0;
#X connect 113 3 117 0;
#X connect 113 3 120 0;
#X connect 114 0 101 1;
#X connect 115 0 101 2;
#X connect 116 0 101 3;
#X connect 117 0 101 4;
#X connect 117 0 97 0;
#X connect 118 0 123 0;
#X connect 119 0 118 1;
#X connect 119 1 118 2;
#X connect 122 0 123 3;
#X connect 123 0 101 0;
#X restore 154 275 pd SCENE;
#X obj 376 19 tgl 30 0 showScene empty Scene 32 15 0 14 -257985 -1
-1 0 1;
#X obj 376 50 tgl 30 0 showSphere empty Sphere 32 15 0 14 -260097 -1
-1 1 1;
#X obj 376 81 tgl 30 0 showProjs empty Projs 32 15 0 14 -4032 -1 -1
0 1;
#X obj 376 112 hradio 30 1 0 4 showProjsFS empty empty 0 -8 0 10 -4032
-1 -1 0;
#X obj 472 59 hsl 128 15 0 1 0 0 gridAlpha empty gridAlpha -2 -8 0
10 -262144 -1 -1 0 1;
#N canvas 553 247 526 528 SphereVisu 0;
#X floatatom 337 270 5 0 0 0 - - -;
#X obj 56 295 rotateXYZ;
#X floatatom 69 268 5 0 0 0 - - -;
#X floatatom 95 249 5 0 0 0 - - -;
#X floatatom 151 285 5 0 0 0 - - -;
#X floatatom 162 187 5 0 0 0 - - -;
#X msg 163 162 4;
#X floatatom 127 186 5 0 0 0 - - -;
#X floatatom 82 182 5 0 0 0 - - -;
#X obj 64 87 separator;
#X obj 305 293 sphere 2 50;
#X msg 488 190 reload;
#X obj 64 61 spigot;
#X obj 106 45 tgl 15 0 empty empty empty 17 7 0 10 -262144 -1 -1 1
1;
#X obj 320 211 pix_texture;
#X obj 368 187 r \$0-cubetex;
#X obj 305 183 separator;
#X floatatom 210 375 5 0 0 0 - - -;
#X floatatom 179 394 5 0 0 0 - - -;
#X obj 109 394 separator;
#X obj 108 441 colorRGB 0.05 0.1 0.15 1;
#X obj 108 417 translateXYZ 0 0 -0.8;
#N canvas 1291 330 476 400 pratos 0;
#X obj 138 4 inlet;
#X obj 138 30 separator;
#X floatatom 194 142 5 0 0 0 - - -;
#X floatatom 213 180 5 0 0 0 - - -;
#X floatatom 305 200 5 0 0 0 - - -;
#X obj 148 269 colorRGB 0.3 0.3 0.3 1;
#X obj 148 316 cube 0.3;
#X obj 132 157 translate 3.5 1 0 0;
#X obj 313 362 cube 0.3;
#X floatatom 420 220 5 0 0 0 - - -;
#X obj 314 236 separator;
#X obj 148 245 separator;
#X obj 314 315 colorRGB 1 1 1 0.3;
#X obj 339 260 * 0.5;
#X obj 314 292 translate -0.33 0 0 1;
#X obj 148 223 translate -0.33 0 0 1;
#X obj 132 53 t a a a a a a;
#X obj 132 106 separator;
#X obj 132 85 rotate 60 0 0 1;
#X obj 148 291 scaleXYZ 1 1 0.1;
#X obj 313 337 scaleXYZ 1 1 1;
#X floatatom 271 189 5 0 0 0 - - -;
#X floatatom 165 179 5 0 0 0 - - -;
#X obj 149 200 scaleXYZ 0.6 1.25 1;
#X obj 324 137 * 0.3;
#X obj 320 91 hsl 128 15 0 1 0 0 empty pratos-alpha pratos-alpha -2
-8 0 10 -262144 -1 -1 12700 1;
#X obj 316 23 loadbang;
#X msg 317 44 1;
#X obj 132 128 rotate 30 0 0 1;
#X connect 0 0 1 0;
#X connect 1 0 16 0;
#X connect 2 0 7 1;
#X connect 3 0 23 2;
#X connect 4 0 15 1;
#X connect 5 0 19 0;
#X connect 7 0 23 0;
#X connect 9 0 14 1;
#X connect 10 0 14 0;
#X connect 11 0 5 0;
#X connect 12 0 20 0;
#X connect 13 0 14 1;
#X connect 14 0 12 0;
#X connect 15 0 10 0;
#X connect 15 0 11 0;
#X connect 16 0 18 0;
#X connect 16 1 18 0;
#X connect 16 2 18 0;
#X connect 16 3 18 0;
#X connect 16 4 18 0;
#X connect 16 5 18 0;
#X connect 17 0 28 0;
#X connect 18 0 17 0;
#X connect 19 0 6 0;
#X connect 20 0 8 0;
#X connect 21 0 23 3;
#X connect 22 0 23 1;
#X connect 23 0 15 0;
#X connect 24 0 12 4;
#X connect 25 0 24 0;
#X connect 25 0 5 4;
#X connect 26 0 27 0;
#X connect 27 0 25 0;
#X connect 28 0 7 0;
#X restore 46 400 pd pratos;
#X obj 64 316 t a a a;
#X obj 131 43 r showSphere;
#X obj 321 235 shaderLoad base cubemaptosphere;
#X obj 64 19 gemreceive \$0-posthead 60;
#X floatatom 162 463 5 0 0 0 - - -;
#X obj 108 490 circle 4;
#X obj 246 5 r Visu;
#X obj 246 27 route trans rot;
#X obj 154 121 unpack f f;
#X obj 159 241 unpack f f;
#X floatatom 334 426 5 0 0 0 - - -;
#X obj 302 449 sphere 2 50;
#X msg 485 346 reload;
#X obj 302 339 separator;
#X obj 365 343 r \$0-equitex;
#X obj 302 364 pix_texture;
#X floatatom 59 116 5 0 0 0 - - -;
#X obj 19 226 tgl 15 0 empty empty empty 17 7 0 10 -262144 -1 -1 0
1;
#X msg 2 262 compat \$1;
#X obj 36 240 tgl 15 0 empty empty empty 17 7 0 10 -262144 -1 -1 0
1;
#X obj 23 135 translateXYZ -16 0 0;
#X obj 358 44 r VisuR;
#X obj 358 66 route trans;
#X obj 311 134 maxlib/scale 0 -10 1 3;
#X obj 359 93 unpack f f;
#X floatatom 324 159 5 0 0 0 - - -;
#X obj 56 217 translateXYZ 0 0 -10;
#X obj 10 189 scaleXYZ 1;
#X obj 41 159 f;
#X connect 0 0 10 1;
#X connect 1 0 23 0;
#X connect 2 0 1 1;
#X connect 3 0 1 2;
#X connect 4 0 1 3;
#X connect 5 0 49 3;
#X connect 6 0 5 0;
#X connect 7 0 49 2;
#X connect 8 0 49 1;
#X connect 9 0 43 0;
#X connect 11 0 25 1;
#X connect 12 0 9 0;
#X connect 13 0 12 1;
#X connect 14 0 25 0;
#X connect 15 0 14 1;
#X connect 16 0 14 0;
#X connect 17 0 21 3;
#X connect 18 0 21 2;
#X connect 19 0 21 0;
#X connect 20 0 28 0;
#X connect 21 0 20 0;
#X connect 23 0 22 0;
#X connect 23 1 19 0;
#X connect 23 2 16 0;
#X connect 24 0 13 0;
#X connect 25 0 10 0;
#X connect 26 0 12 0;
#X connect 27 0 28 1;
#X connect 29 0 30 0;
#X connect 30 0 31 0;
#X connect 30 1 32 0;
#X connect 31 0 49 2;
#X connect 31 1 46 0;
#X connect 32 0 1 1;
#X connect 32 1 1 3;
#X connect 33 0 34 1;
#X connect 36 0 38 0;
#X connect 37 0 38 1;
#X connect 38 0 34 0;
#X connect 39 0 43 1;
#X connect 42 0 41 0;
#X connect 43 0 50 0;
#X connect 44 0 45 0;
#X connect 45 0 47 0;
#X connect 46 0 48 0;
#X connect 46 0 51 0;
#X connect 49 0 1 0;
#X connect 50 0 49 0;
#X connect 51 0 50 1;
#X connect 51 0 50 2;
#X restore 168 205 pd SphereVisu;
#X obj 473 23 hsl 128 15 0 1 0 0 pratos-alpha empty pratos-alpha -2
-8 0 10 -262144 -1 -1 0 1;
#N canvas 2010 428 525 386 SceneVisu 0;
#X floatatom 136 294 5 0 0 0 - - -;
#X floatatom 179 290 5 0 0 0 - - -;
#X floatatom 220 292 5 0 0 0 - - -;
#X floatatom 230 197 5 0 0 0 - - -;
#X floatatom 172 206 5 0 0 0 - - -;
#X obj 120 317 rotateXYZ 65 0 90;
#X obj 95 80 spigot;
#X obj 137 64 tgl 15 0 empty empty empty 17 7 0 10 -262144 -1 -1 0
1;
#X obj 96 100 separator;
#X obj 119 347 s \$0-sceneHead;
#X obj 140 40 r showScene;
#X obj 95 10 gemreceive \$0-posthead 60;
#X obj 253 23 r Visu;
#X obj 253 45 route trans rot;
#X obj 229 85 unpack f f;
#X obj 184 263 unpack f f;
#X floatatom 128 118 5 0 0 0 - - -;
#X obj 92 137 translateXYZ -16 0 0;
#X obj 358 44 r VisuR;
#X obj 358 66 route trans;
#X obj 307 137 maxlib/scale 0 -10 1 3;
#X obj 359 93 unpack f f;
#X floatatom 320 162 5 0 0 0 - - -;
#X obj 90 195 scaleXYZ 1;
#X obj 121 165 f;
#X obj 120 220 translateXYZ 0 0 -4;
#X connect 0 0 5 1;
#X connect 1 0 5 2;
#X connect 2 0 5 3;
#X connect 3 0 25 3;
#X connect 4 0 25 2;
#X connect 5 0 9 0;
#X connect 6 0 8 0;
#X connect 7 0 6 1;
#X connect 8 0 17 0;
#X connect 10 0 7 0;
#X connect 11 0 6 0;
#X connect 12 0 13 0;
#X connect 13 0 14 0;
#X connect 13 1 15 0;
#X connect 14 0 25 2;
#X connect 14 1 20 0;
#X connect 15 0 5 1;
#X connect 15 1 5 3;
#X connect 16 0 17 1;
#X connect 17 0 23 0;
#X connect 18 0 19 0;
#X connect 19 0 21 0;
#X connect 20 0 22 0;
#X connect 20 0 24 0;
#X connect 23 0 25 0;
#X connect 24 0 23 1;
#X connect 24 0 23 2;
#X connect 25 0 5 0;
#X restore 167 184 pd SceneVisu;
#X obj 16 132 declare -path abs;
#X obj 599 139 gcanvas 80 80;
#X obj 511 137 gcanvas 80 80;
#N canvas 1505 322 573 496 trans 0;
#X obj 129 19 inlet;
#X obj 190 16 inlet;
#X obj 391 142 line;
#X obj 349 115 line;
#X obj 345 216 pack f f;
#X obj 348 136 t b f;
#X obj 343 194 f;
#X obj 335 167 del 1;
#X obj 383 163 t b f;
#X obj 353 28 r VisuR;
#X obj 353 70 unpack f f;
#X obj 346 267 s Visu;
#X obj 353 50 route trans;
#X msg 346 238 trans \$1 \$2;
#X msg 350 93 \$1 100;
#X msg 392 120 \$1 200;
#X obj 229 20 inlet;
#X obj 230 45 b;
#X obj 132 45 pack f f;
#X obj 133 124 t a a;
#X obj 133 148 unpack f f;
#X obj 160 176 unpack f f;
#X obj 160 211 -;
#X obj 217 208 -;
#X obj 132 73 pipe f f 10;
#X obj 230 107 list;
#X obj 132 95 pack f f;
#X floatatom 282 406 5 0 0 0 - - -;
#X obj 219 281 unpack f f;
#X obj 142 320 +;
#X obj 175 320 +;
#X obj 143 371 pack f f;
#X obj 219 238 r VisuR;
#X obj 143 431 s VisuR;
#X obj 219 259 route trans;
#X msg 143 402 trans \$2 \$1;
#X obj 121 285 * -0.02;
#X obj 101 351 clip -10 0;
#X obj 214 342 clip -1 1;
#X obj 170 283 * 0.002;
#X floatatom 474 149 5 0 0 0 - - -;
#X connect 0 0 18 0;
#X connect 1 0 18 1;
#X connect 2 0 8 0;
#X connect 3 0 5 0;
#X connect 4 0 13 0;
#X connect 5 0 7 0;
#X connect 5 1 6 1;
#X connect 6 0 4 0;
#X connect 7 0 6 0;
#X connect 8 0 7 0;
#X connect 8 1 4 1;
#X connect 9 0 12 0;
#X connect 10 0 14 0;
#X connect 10 1 15 0;
#X connect 10 1 40 0;
#X connect 12 0 10 0;
#X connect 13 0 11 0;
#X connect 14 0 3 0;
#X connect 15 0 2 0;
#X connect 16 0 17 0;
#X connect 17 0 25 0;
#X connect 18 0 24 0;
#X connect 18 0 25 1;
#X connect 19 0 20 0;
#X connect 19 1 21 0;
#X connect 20 0 22 1;
#X connect 20 1 23 1;
#X connect 21 0 22 0;
#X connect 21 1 23 0;
#X connect 22 0 36 0;
#X connect 23 0 39 0;
#X connect 24 0 26 0;
#X connect 24 1 26 1;
#X connect 25 0 20 0;
#X connect 26 0 19 0;
#X connect 28 0 30 1;
#X connect 28 1 29 1;
#X connect 29 0 37 0;
#X connect 30 0 27 0;
#X connect 30 0 38 0;
#X connect 31 0 35 0;
#X connect 32 0 34 0;
#X connect 34 0 28 0;
#X connect 35 0 33 0;
#X connect 36 0 29 0;
#X connect 37 0 31 0;
#X connect 38 0 31 1;
#X connect 39 0 30 0;
#X restore 599 223 pd trans;
#N canvas 1535 291 528 570 rot 0;
#X obj 119 12 inlet;
#X obj 167 12 inlet;
#X obj 331 221 pack f f;
#X obj 334 141 t b f;
#X obj 329 199 f;
#X obj 321 172 del 1;
#X obj 369 168 t b f;
#X obj 339 33 r VisuR;
#X obj 339 75 unpack f f;
#X obj 332 272 s Visu;
#X msg 332 243 rot \$1 \$2;
#X obj 339 55 route rot;
#X obj 335 120 line3;
#X obj 377 147 line3;
#X msg 336 98 \$1 500;
#X msg 378 125 \$1 500;
#X obj 218 19 inlet;
#X obj 227 260 route rot;
#X obj 227 282 unpack f f;
#X obj 148 335 +;
#X obj 181 335 +;
#X obj 149 298 * 1;
#X obj 176 298 * 1;
#X obj 149 386 pack f f;
#X msg 149 417 rot \$2 \$1;
#X obj 193 359 clip -90 0;
#X obj 227 239 r VisuR;
#X obj 149 446 s VisuR;
#X obj 219 44 b;
#X obj 121 44 pack f f;
#X obj 122 123 t a a;
#X obj 122 147 unpack f f;
#X obj 149 175 unpack f f;
#X obj 149 210 -;
#X obj 206 207 -;
#X obj 121 72 pipe f f 10;
#X obj 219 106 list;
#X obj 121 94 pack f f;
#X obj 291 363 r fromNet;
#X obj 291 386 route turnSphere;
#X floatatom 292 420 5 0 0 0 - - -;
#X obj 409 375 route rot;
#X obj 409 397 unpack f f;
#X obj 409 352 r VisuR;
#X obj 411 466 pack f f;
#X msg 412 490 rot \$2 \$1;
#X obj 412 519 s VisuR;
#X floatatom 482 434 5 0 0 0 - - -;
#X connect 0 0 29 0;
#X connect 1 0 29 1;
#X connect 2 0 10 0;
#X connect 3 0 5 0;
#X connect 3 1 4 1;
#X connect 4 0 2 0;
#X connect 5 0 4 0;
#X connect 6 0 5 0;
#X connect 6 1 2 1;
#X connect 7 0 11 0;
#X connect 8 0 14 0;
#X connect 8 1 15 0;
#X connect 10 0 9 0;
#X connect 11 0 8 0;
#X connect 12 0 3 0;
#X connect 13 0 6 0;
#X connect 14 0 12 0;
#X connect 15 0 13 0;
#X connect 16 0 28 0;
#X connect 17 0 18 0;
#X connect 18 0 20 1;
#X connect 18 1 19 1;
#X connect 19 0 23 0;
#X connect 20 0 25 0;
#X connect 21 0 19 0;
#X connect 22 0 20 0;
#X connect 23 0 24 0;
#X connect 24 0 27 0;
#X connect 25 0 23 1;
#X connect 26 0 17 0;
#X connect 28 0 36 0;
#X connect 29 0 35 0;
#X connect 29 0 36 1;
#X connect 30 0 31 0;
#X connect 30 1 32 0;
#X connect 31 0 33 1;
#X connect 31 1 34 1;
#X connect 32 0 33 0;
#X connect 32 1 34 0;
#X connect 33 0 21 0;
#X connect 34 0 22 0;
#X connect 35 0 37 0;
#X connect 35 1 37 1;
#X connect 36 0 31 0;
#X connect 37 0 30 0;
#X connect 38 0 39 0;
#X connect 39 0 40 0;
#X connect 39 0 44 0;
#X connect 41 0 42 0;
#X connect 42 0 44 1;
#X connect 42 1 47 0;
#X connect 43 0 41 0;
#X connect 44 0 45 0;
#X connect 45 0 46 0;
#X restore 521 228 pd rot;
#N canvas 118 441 466 334 Render 0;
#X obj 130 22 gemhead;
#X obj 133 4 tgl 15 0 empty empty empty 17 7 0 10 -262144 -1 -1 0 1
;
#X obj 130 166 t a a;
#N canvas 1809 257 566 585 CUBE 0;
#X obj 65 329 gemcubeframebuffer;
#X msg 112 293 face \$1;
#X obj 65 459 rotateXYZ 0 90 0;
#X obj 65 8 inlet;
#X obj 65 485 outlet scene;
#X obj 229 451 outlet cubeMap;
#X msg 249 131 0 \, 1 \, 2 \, 3 \, 4 \, 5;
#X obj 112 269 t f f;
#X obj 96 433 unpack f f;
#X obj 191 298 sel 0 1 2 3 4 5;
#X msg 191 326 0 90;
#X msg 224 326 0 -90;
#X msg 263 326 90 0;
#X msg 298 326 -90 0;
#X msg 344 326 0 0;
#X msg 373 326 0 180;
#X obj 249 152 t b f;
#X obj 247 203 hradio 15 1 0 6 empty empty empty 0 -8 0 10 -262144
-1 -1 0;
#X obj 65 207 t a b;
#X msg 92 227 0;
#X obj 79 180 t a b;
#X obj 101 144 t a b;
#X obj 115 117 t a b;
#X obj 126 90 t a b;
#X obj 140 68 t a b;
#X msg 106 200 1;
#X msg 128 163 2;
#X msg 142 137 3;
#X msg 153 115 4;
#X msg 167 88 5;
#X obj 65 46 t a a a a a a;
#X msg 356 217 dimen 1024 1024;
#X msg 350 246 dimen 2048 2048;
#X msg 335 278 dimen 512 512;
#X obj 271 91 gemwin;
#X obj 276 28 tgl 15 0 empty empty empty 17 7 0 10 -262144 -1 -1 0
1;
#X msg 271 69 lighting 1;
#X msg 202 66 lighting 0;
#X msg 385 400 quality \$1;
#X obj 393 373 tgl 15 0 empty empty empty 17 7 0 10 -262144 -1 -1 0
1;
#N canvas 1293 266 544 500 perspec 0;
#X obj 90 428 outlet;
#X obj 268 273 t f f;
#X obj 268 298 * -1;
#X obj 90 268 t f f;
#X obj 90 293 * -1;
#X obj 90 367 pack -1 1 -1 1 1 20;
#X msg 90 389 set perspec \$1 \$2 \$3 \$4 \$5 \$6 \, bang;
#X msg 172 453 set perspec \, adddollar 1 \, adddollar 2 \, adddollar
3 \, adddollar 4 \, adddollar 5 \, adddollar 6;
#X floatatom 103 117 5 0.1 5 1 x_wideness - -;
#X floatatom 103 134 5 0.1 5 1 y_wideness - -;
#X floatatom 103 151 5 0 0 1 z_depth - -;
#X obj 360 196 select 1;
#X obj 405 219 t b f f;
#X obj 249 226 t b f f;
#X obj 204 203 select 0;
#X obj 360 218 f 20;
#X obj 204 224 f 1;
#X msg 204 246 set \$1;
#X msg 360 240 set \$1;
#X obj 134 216 t b f f;
#X obj 89 193 select 0;
#X obj 89 214 f 1;
#X msg 89 236 set \$1;
#X obj 328 97 loadbang;
#X obj 328 119 t b b;
#X obj 328 141 t b b b;
#X obj 235 45 inlet;
#X connect 1 0 2 0;
#X connect 1 1 5 3;
#X connect 2 0 5 2;
#X connect 3 0 4 0;
#X connect 3 1 5 1;
#X connect 4 0 5 0;
#X connect 5 0 6 0;
#X connect 6 0 0 0;
#X connect 7 0 0 0;
#X connect 8 0 20 0;
#X connect 9 0 14 0;
#X connect 10 0 11 0;
#X connect 11 0 15 0;
#X connect 11 1 12 0;
#X connect 12 0 5 0;
#X connect 12 1 5 5;
#X connect 12 2 15 1;
#X connect 13 0 5 0;
#X connect 13 1 1 0;
#X connect 13 2 16 1;
#X connect 14 0 16 0;
#X connect 14 1 13 0;
#X connect 15 0 18 0;
#X connect 16 0 17 0;
#X connect 17 0 9 0;
#X connect 18 0 10 0;
#X connect 19 1 3 0;
#X connect 19 2 21 1;
#X connect 20 0 21 0;
#X connect 20 1 19 0;
#X connect 21 0 22 0;
#X connect 22 0 8 0;
#X connect 23 0 24 0;
#X connect 24 0 25 0;
#X connect 24 1 0 0;
#X connect 25 0 21 0;
#X connect 25 1 16 0;
#X connect 25 2 15 0;
#X connect 26 0 8 0;
#X connect 26 0 9 0;
#X coords 0 -1 1 1 100 67 1 100 100;
#X restore 396 59 pd perspec;
#X msg 398 129 perspec -1 1 -1 1 1 200;
#X floatatom 387 35 5 0 0 0 - - -;
#X obj 152 211 spigot;
#X obj 180 183 tgl 15 0 empty empty draw_bottom 17 7 0 10 -262144 -1
-1 0 1;
#X obj 378 179 loadbang;
#X obj 65 396 spigot 1;
#X obj 109 354 != 2;
#X obj 109 375 || 0;
#X obj 488 172 inlet;
#X msg 458 202 dimen \$1 \$1;
#X connect 0 0 46 0;
#X connect 0 1 5 0;
#X connect 1 0 0 0;
#X connect 2 0 4 0;
#X connect 3 0 30 0;
#X connect 6 0 16 0;
#X connect 7 0 1 0;
#X connect 7 1 9 0;
#X connect 7 1 47 0;
#X connect 8 0 2 1;
#X connect 8 1 2 2;
#X connect 9 0 10 0;
#X connect 9 1 11 0;
#X connect 9 2 12 0;
#X connect 9 3 13 0;
#X connect 9 4 14 0;
#X connect 9 5 15 0;
#X connect 10 0 8 0;
#X connect 11 0 8 0;
#X connect 12 0 8 0;
#X connect 13 0 8 0;
#X connect 14 0 8 0;
#X connect 15 0 8 0;
#X connect 17 0 7 0;
#X connect 18 0 0 0;
#X connect 18 1 19 0;
#X connect 19 0 7 0;
#X connect 20 0 0 0;
#X connect 20 1 25 0;
#X connect 21 0 0 0;
#X connect 21 1 26 0;
#X connect 22 0 0 0;
#X connect 22 1 27 0;
#X connect 23 0 0 0;
#X connect 23 1 28 0;
#X connect 24 0 0 0;
#X connect 24 1 29 0;
#X connect 25 0 7 0;
#X connect 26 0 7 0;
#X connect 27 0 7 0;
#X connect 28 0 7 0;
#X connect 29 0 7 0;
#X connect 30 0 18 0;
#X connect 30 1 20 0;
#X connect 30 2 21 0;
#X connect 30 3 22 0;
#X connect 30 4 23 0;
#X connect 30 5 24 0;
#X connect 31 0 0 0;
#X connect 32 0 0 0;
#X connect 33 0 0 0;
#X connect 35 0 36 0;
#X connect 36 0 34 0;
#X connect 37 0 34 0;
#X connect 38 0 0 0;
#X connect 39 0 38 0;
#X connect 40 0 41 0;
#X connect 41 0 0 0;
#X connect 42 0 40 0;
#X connect 43 0 0 0;
#X connect 44 0 43 1;
#X connect 44 0 48 1;
#X connect 45 0 32 0;
#X connect 46 0 2 0;
#X connect 47 0 48 0;
#X connect 48 0 46 1;
#X connect 49 0 50 0;
#X connect 50 0 0 0;
#X restore 157 185 pd CUBE;
#X obj 130 81 alpha;
#X obj 187 279 s \$0-sceneHead;
#X obj 130 141 t a a;
#X obj 113 54 tgl 15 0 empty empty empty 17 7 0 10 -262144 -1 -1 0
1;
#X obj 194 205 s \$0-cubetex;
#X obj 187 252 rotateXYZ -90 0 90;
#X obj 93 284 s \$0-posthead;
#X obj 177 164 s \$0-prehead;
#X msg 278 127 1024;
#X msg 314 128 1500;
#X msg 350 129 2048;
#X msg 242 128 512;
#X msg 207 128 128;
#X obj 275 168 s prehead;
#X obj 130 53 ortho;
#X obj 294 34 loadbang;
#X obj 189 17 tgl 15 0 empty empty empty 17 7 0 10 -262144 -1 -1 0
1;
#X msg 293 56 compat 0;
#X msg 402 131 3000;
#X floatatom 256 230 5 0 0 0 - - -;
#X floatatom 297 233 5 0 0 0 - - -;
#X obj 275 204 s cubetex;
#X floatatom 216 230 5 0 0 0 - - -;
#X obj 366 169 r scnRot;
#X obj 364 189 unpack f f f;
#X obj 421 239 t b f;
#X floatatom 434 209 5 0 0 0 - - -;
#X obj 357 269 - 90;
#X obj 391 239 + 260;
#X connect 0 0 18 0;
#X connect 1 0 0 0;
#X connect 2 0 10 0;
#X connect 2 1 3 0;
#X connect 3 0 9 0;
#X connect 3 1 8 0;
#X connect 3 1 25 0;
#X connect 4 0 6 0;
#X connect 6 0 2 0;
#X connect 6 1 11 0;
#X connect 6 1 17 0;
#X connect 7 0 4 0;
#X connect 9 0 5 0;
#X connect 12 0 3 1;
#X connect 13 0 3 1;
#X connect 14 0 3 1;
#X connect 15 0 3 1;
#X connect 16 0 3 1;
#X connect 18 0 4 0;
#X connect 19 0 21 0;
#X connect 20 0 18 0;
#X connect 21 0 18 0;
#X connect 22 0 3 1;
#X connect 23 0 9 2;
#X connect 24 0 9 3;
#X connect 26 0 9 1;
#X connect 27 0 28 0;
#X connect 28 0 31 0;
#X connect 28 1 9 2;
#X connect 28 2 32 0;
#X connect 29 0 32 0;
#X connect 29 1 32 1;
#X connect 30 0 29 0;
#X connect 31 0 9 1;
#X connect 32 0 9 3;
#X restore 168 164 pd Render;
#N canvas 206 375 1006 396 ProjsControl 1;
#X msg 299 525 blend \$1;
#X obj 35 337 hsl 128 15 0 1 0 0 proj-Blend-snd proj-Blend-rcv BlendSize
-2 -8 0 10 -262144 -1 -1 1800 1;
#X obj 288 556 t a;
#X obj 257 625 s proj1Shader;
#X obj 279 603 s proj2Shader;
#X obj 295 583 s proj3Shader;
#X msg 248 423 reload;
#X msg 414 506 blendAngle \$1;
#X msg 416 555 yMin \$1;
#X floatatom 416 534 5 0 0 0 - - -;
#X obj 141 548 t a;
#X obj 110 617 s proj1Shader;
#X obj 132 595 s proj2Shader;
#X obj 148 575 s proj3Shader;
#X obj 140 526 r projAllShader;
#X msg 495 574 controlR \$1;
#X obj 495 554 * 0.02;
#X obj 495 530 tgl 15 0 empty empty empty 17 7 0 10 -262144 -1 -1 0
1;
#X msg 416 613 controlSel \$1;
#X obj 415 592 hradio 15 1 0 4 empty empty empty 0 -8 0 10 -262144
-1 -1 0;
#X obj 28 474 bng 15 250 50 0 empty empty load 17 7 0 10 -4034 -1 -1
;
#X obj 624 41 bng 30 250 50 0 empty empty save 32 15 0 14 -258113 -1
-1;
#X obj 28 453 loadbang;
#X obj 28 497 apmasterfile proj config/proj.txt;
#X obj 116 473 apmaster proj;
#X obj 60 32 projCtl proj 1;
#X obj 200 336 bng 30 250 50 0 projShader-ctrlUnSel empty clearPoints
32 15 0 14 -33289 -1 -1;
#X obj 299 421 r proj-Blend-snd;
#X obj 410 424 apf proj Blend proj-Blend;
#X obj 299 504 /;
#X obj 298 461 + 1;
#X obj 299 480 swap 1000;
#X obj 299 441 * 100;
#X obj 35 372 hsl 128 15 0.5 0.4 0 0 proj-Angle-snd proj-Angle-rcv
BlendAngle -2 -8 0 10 -262144 -1 -1 900 1;
#X obj 410 444 apf proj Angle proj-Angle;
#X obj 414 477 r proj-Angle-snd;
#X obj 15 538 r proj-apmaster-snd;
#X obj 15 564 route loaded;
#X obj 15 642 s projShader-ctrlUnSel;
#X obj 15 592 b;
#X obj 15 616 del 1000;
#N canvas 440 97 835 539 VueProjecteurs 0;
#X obj 340 82 separator;
#X floatatom 180 385 5 0 0 0 - - -;
#X floatatom 138 381 5 0 0 0 - - -;
#X obj 80 499 rectangle 4 3;
#X floatatom 136 435 5 0 0 0 - - -;
#X obj 154 477 * 3;
#X obj 116 477 * 4;
#X obj 330 297 separator;
#X floatatom 438 386 5 0 0 0 - - -;
#X floatatom 393 380 5 0 0 0 - - -;
#X obj 338 482 rectangle 4 3;
#X floatatom 394 418 5 0 0 0 - - -;
#X obj 412 460 * 3;
#X obj 374 460 * 4;
#X floatatom 663 365 5 0 0 0 - - -;
#X floatatom 621 361 5 0 0 0 - - -;
#X obj 575 483 rectangle 4 3;
#X floatatom 631 419 5 0 0 0 - - -;
#X obj 649 461 * 3;
#X obj 611 461 * 4;
#X obj 549 299 separator;
#X obj 407 58 tgl 15 0 empty empty empty 17 7 0 10 -262144 -1 -1 0
1;
#X floatatom 206 439 5 0 0 0 - - -;
#X obj 81 342 separator;
#X obj 328 397 translateXYZ 0 0 0;
#X obj 80 407 translateXYZ -8 0 0;
#X obj 563 387 translateXYZ 8 0 0;
#X obj 429 56 r showProjs;
#X obj 338 248 scaleXYZ 0.33 0.33 1;
#X obj 340 22 gemreceive \$0-posthead 52;
#X floatatom 488 209 5 0 0 0 - - -;
#X obj 338 208 translateXYZ 0 -0.7 1.9;
#X obj 498 18 r showProjsFS;
#X floatatom 381 189 5 0 0 0 - - -;
#X obj 341 61 spigot 1;
#X obj 514 87 +;
#X obj 568 63 t b f;
#X obj 587 17 r showProjs;
#X obj 587 40 * 2;
#X obj 516 108 sel 0 1 2 3;
#X obj 437 171 unpack f f f f;
#X msg 559 144 -16 -2.8 0 0.4;
#X obj 515 59 != 0;
#X obj 517 39 t f f;
#X obj 660 79 * -8;
#X obj 661 36 f;
#X msg 655 143 \$1 0 0 1.3333;
#X obj 656 122 - 16;
#X obj 663 57 - 2;
#X obj 663 101 * 1.3333;
#X msg 449 144 5.333 0 0 1.3333;
#X obj 72 447 outlet;
#X obj 321 428 outlet;
#X obj 562 418 outlet;
#X floatatom 105 381 5 0 0 0 - - -;
#X connect 0 0 31 0;
#X connect 1 0 25 3;
#X connect 2 0 25 2;
#X connect 4 0 6 0;
#X connect 4 0 5 0;
#X connect 5 0 3 2;
#X connect 6 0 3 1;
#X connect 7 0 24 0;
#X connect 8 0 24 3;
#X connect 9 0 24 2;
#X connect 11 0 13 0;
#X connect 11 0 12 0;
#X connect 12 0 10 2;
#X connect 13 0 10 1;
#X connect 14 0 26 3;
#X connect 15 0 26 2;
#X connect 17 0 19 0;
#X connect 17 0 18 0;
#X connect 18 0 16 2;
#X connect 19 0 16 1;
#X connect 20 0 26 0;
#X connect 21 0 34 1;
#X connect 22 0 6 0;
#X connect 23 0 25 0;
#X connect 24 0 52 0;
#X connect 25 0 51 0;
#X connect 26 0 53 0;
#X connect 28 0 23 0;
#X connect 28 0 7 0;
#X connect 28 0 20 0;
#X connect 29 0 34 0;
#X connect 30 0 31 3;
#X connect 31 0 28 0;
#X connect 32 0 43 0;
#X connect 33 0 31 1;
#X connect 34 0 0 0;
#X connect 35 0 39 0;
#X connect 36 0 35 0;
#X connect 36 1 35 1;
#X connect 37 0 38 0;
#X connect 38 0 36 0;
#X connect 39 0 50 0;
#X connect 39 1 50 0;
#X connect 39 2 41 0;
#X connect 39 3 45 0;
#X connect 40 0 31 1;
#X connect 40 1 31 2;
#X connect 40 2 31 3;
#X connect 40 3 28 2;
#X connect 40 3 28 1;
#X connect 41 0 40 0;
#X connect 42 0 35 0;
#X connect 43 0 42 0;
#X connect 43 1 45 1;
#X connect 44 0 49 0;
#X connect 45 0 48 0;
#X connect 46 0 40 0;
#X connect 47 0 46 0;
#X connect 48 0 44 0;
#X connect 49 0 47 0;
#X connect 50 0 40 0;
#X connect 54 0 25 1;
#X restore 290 180 pd VueProjecteurs;
#X obj 419 27 projCtl proj 2;
#X obj 742 24 projCtl proj 3;
#X obj 285 51 bng 15 250 50 0 empty empty empty 17 7 0 10 -258113 -1
-1;
#X obj 15 207 surface3d-8x8-edit \$0 Ec1 z1 1;
#X obj 339 207 surface3d-8x8-edit \$0 Ec2 z2 2;
#X obj 665 207 surface3d-8x8-edit \$0 Ec3 z3 3;
#X obj 284 76 s projShaderReset;
#N canvas 28 332 611 299 COLORS 0;
#X obj 12 10 shaderColorCtl 1 ALL;
#X obj 205 10 shaderColorCtl 2 ALL;
#X obj 399 10 shaderColorCtl 3 ALL;
#X obj 319 258 hsl 150 15 -1 1 0 0 projColorSat-ALL empty saturation
10 8 0 12 -4034 -1 -1 0 1;
#X msg 286 259 0;
#X connect 4 0 3 0;
#X restore 624 87 pd COLORS;
#X connect 0 0 2 0;
#X connect 2 0 3 0;
#X connect 2 0 4 0;
#X connect 2 0 5 0;
#X connect 6 0 2 0;
#X connect 7 0 2 0;
#X connect 8 0 2 0;
#X connect 9 0 8 0;
#X connect 10 0 11 0;
#X connect 10 0 12 0;
#X connect 10 0 13 0;
#X connect 14 0 10 0;
#X connect 15 0 2 0;
#X connect 16 0 15 0;
#X connect 17 0 16 0;
#X connect 18 0 2 0;
#X connect 19 0 18 0;
#X connect 20 0 23 0;
#X connect 21 0 23 1;
#X connect 22 0 20 0;
#X connect 27 0 32 0;
#X connect 29 0 0 0;
#X connect 30 0 31 0;
#X connect 31 0 29 0;
#X connect 31 1 29 1;
#X connect 32 0 30 0;
#X connect 35 0 7 0;
#X connect 36 0 37 0;
#X connect 37 0 39 0;
#X connect 39 0 40 0;
#X connect 40 0 38 0;
#X connect 41 0 45 0;
#X connect 41 1 46 0;
#X connect 41 2 47 0;
#X connect 44 0 48 0;
#X restore 273 164 pd ProjsControl;
#X obj 16 153 declare -path shader;
#N canvas 1843 457 602 387 Equirect 0;
#X msg 257 163 reload;
#X obj 120 53 tgl 15 0 empty empty empty 17 7 0 10 -262144 -1 -1 0
1;
#X obj 74 167 pix_texture;
#X obj 137 146 r \$0-cubetex;
#X obj 74 142 separator;
#X obj 74 190 shaderLoad base cubemaptosphere;
#X obj 74 71 spigot 1;
#X obj 74 100 gemframebuffer;
#X obj 155 124 s \$0-equitex;
#X obj 74 231 translateXYZ 0 0 -4;
#X msg 262 40 dimen 2048 1024;
#X obj 74 256 rectangle 4 4;
#X obj 168 52 loadbang;
#X msg 269 73 dimen 1024 512;
#X msg 270 92 dimen 512 512;
#X msg 270 116 dimen 256 256;
#X msg 272 137 dimen 64 64;
#X obj 74 29 gemreceive \$0-posthead 100;
#X connect 0 0 5 1;
#X connect 1 0 6 1;
#X connect 2 0 5 0;
#X connect 3 0 2 1;
#X connect 4 0 2 0;
#X connect 5 0 9 0;
#X connect 6 0 7 0;
#X connect 7 0 4 0;
#X connect 7 1 8 0;
#X connect 9 0 11 0;
#X connect 10 0 7 0;
#X connect 12 0 13 0;
#X connect 13 0 7 0;
#X connect 14 0 7 0;
#X connect 15 0 7 0;
#X connect 16 0 7 0;
#X connect 17 0 6 0;
#X restore 320 232 pd Equirect;
#N canvas 1856 207 450 300 framerate 0;
#X obj 118 101 realtime;
#X obj 117 49 gemhead;
#X obj 117 78 t b b;
#X msg 119 125 1000 \$1;
#X obj 120 146 /;
#X obj 120 171 mavg 5;
#X obj 130 225 outlet;
#X obj 121 197 speedlim 500;
#X floatatom 187 230 5 0 0 0 - - -;
#X connect 0 0 3 0;
#X connect 1 0 2 0;
#X connect 2 0 0 0;
#X connect 2 1 0 1;
#X connect 3 0 4 0;
#X connect 4 0 5 0;
#X connect 5 0 7 0;
#X connect 7 0 6 0;
#X connect 7 0 8 0;
#X restore 292 40 pd framerate;
#X floatatom 294 61 5 0 0 0 - - -;
#N canvas 646 504 507 271 Panneaux 0;
#X obj 36 45 separator;
#X obj 36 88 s panneauxHead;
#X obj 36 24 gemreceive \$0-sceneHead 70;
#X obj 38 144 s panneauALL-updateBG;
#X obj 39 123 bng 15 250 50 0 empty empty empty 17 7 0 10 -262144 -1
-1;
#X obj 229 24 panneau 0 Noir KEG1;
#X obj 38 67 spigot 1;
#X obj 103 47 r panneaux-on;
#X obj 66 116 r cleanAll;
#X obj 232 106 panneau 3 Marron KEG4;
#X obj 230 80 panneau 2 Alu KEG3;
#X obj 229 52 panneau 1 Jaune KEG2;
#X obj 233 139 panneau 4 Bordeau KEG5;
#X obj 233 171 panneau 5 Rouge KEG6;
#X connect 0 0 6 0;
#X connect 2 0 0 0;
#X connect 4 0 3 0;
#X connect 6 0 1 0;
#X connect 7 0 6 1;
#X connect 8 0 4 0;
#X restore 321 256 pd Panneaux;
#N canvas 2100 126 507 477 mouse 0;
#X obj 77 32 gemmouse;
#X obj 77 73 pack f f;
#X obj 263 39 print b;
#X obj 77 98 t a a;
#X obj 77 135 unpack f f;
#X obj 104 186 unpack f f;
#X obj 104 164 spigot;
#X obj 104 221 -;
#X obj 161 218 -;
#X obj 302 185 unpack f f;
#X obj 302 163 spigot;
#X obj 302 220 -;
#X obj 359 217 -;
#X floatatom 303 252 5 0 0 0 - - -;
#X obj 182 263 route rot;
#X obj 182 285 unpack f f;
#X obj 105 324 +;
#X obj 138 324 +;
#X obj 106 287 * 1;
#X obj 133 287 * 1;
#X obj 106 375 pack f f;
#X msg 106 406 rot \$2 \$1;
#X floatatom 450 417 5 0 0 0 - - -;
#X obj 150 348 clip -90 0;
#X obj 182 242 r VisuR;
#X obj 106 435 s VisuR;
#X obj 387 292 unpack f f;
#X obj 310 331 +;
#X obj 343 331 +;
#X obj 311 382 pack f f;
#X obj 387 249 r VisuR;
#X obj 311 442 s VisuR;
#X obj 387 270 route trans;
#X msg 311 413 trans \$2 \$1;
#X obj 289 296 * -0.02;
#X obj 269 362 clip -10 0;
#X obj 382 353 clip -1 1;
#X obj 338 294 * 0.002;
#X connect 0 0 1 0;
#X connect 0 1 1 1;
#X connect 0 2 6 1;
#X connect 0 3 10 1;
#X connect 1 0 3 0;
#X connect 3 0 4 0;
#X connect 3 1 6 0;
#X connect 3 1 10 0;
#X connect 4 0 7 1;
#X connect 4 0 11 1;
#X connect 4 1 8 1;
#X connect 4 1 12 1;
#X connect 5 0 7 0;
#X connect 5 1 8 0;
#X connect 6 0 5 0;
#X connect 7 0 18 0;
#X connect 8 0 19 0;
#X connect 9 0 11 0;
#X connect 9 1 12 0;
#X connect 10 0 9 0;
#X connect 11 0 13 0;
#X connect 11 0 34 0;
#X connect 12 0 37 0;
#X connect 14 0 15 0;
#X connect 15 0 17 1;
#X connect 15 1 16 1;
#X connect 16 0 20 0;
#X connect 17 0 23 0;
#X connect 18 0 16 0;
#X connect 19 0 17 0;
#X connect 20 0 21 0;
#X connect 21 0 25 0;
#X connect 23 0 20 1;
#X connect 24 0 14 0;
#X connect 26 0 28 1;
#X connect 26 1 27 1;
#X connect 27 0 35 0;
#X connect 28 0 22 0;
#X connect 28 0 36 0;
#X connect 29 0 33 0;
#X connect 30 0 32 0;
#X connect 32 0 26 0;
#X connect 33 0 31 0;
#X connect 34 0 27 0;
#X connect 35 0 29 0;
#X connect 36 0 29 1;
#X connect 37 0 28 0;
#X restore 692 185 pd mouse;
#X obj 15 174 declare -path AutoPreset;
#X obj 784 178 ndmetro 600;
#X floatatom 823 208 5 0 0 0 - - -;
#X obj 784 237 pack f 600;
#X obj 721 15 loadbang;
#X obj 784 261 s Clock;
#X obj 517 98 hsl 128 15 0 1 0 0 feedback empty feedback -2 -8 0 10
-258113 -1 -1 0 1;
#X obj 171 124 s \$0-2gemwin;
#X obj 20 264 netreceive 56781;
#X obj 20 286 s fromNet;
#X obj 55 317 print;
#N canvas 147 394 463 381 Instrus 0;
#X obj 31 34 separator;
#X obj 31 169 s instrusHead;
#X obj 31 13 gemreceive \$0-sceneHead 60;
#X obj 29 196 instruRythmic Rythmic1;
#X obj 102 329 s scaleRythmic;
#X obj 104 296 hsl 128 15 0 2 0 0 empty empty empty -2 -8 0 10 -262144
-1 -1 0 1;
#X obj 185 194 instruMelodic Melodic1;
#X obj 255 296 hsl 128 15 0.1 10 1 0 empty empty empty -2 -8 0 10 -262144
-1 -1 0 1;
#X obj 253 329 s scaleMelodic;
#X floatatom 378 350 5 0 0 0 - - -;
#X msg 258 265 0.5;
#X msg 98 258 0.5;
#X obj 183 215 instruBassR BassR1;
#X obj 31 125 rotateXYZ;
#X floatatom 93 100 5 0 0 0 - - -;
#X floatatom 131 100 5 0 0 0 - - -;
#X floatatom 95 44 5 0 0 0 - - -;
#X floatatom 131 43 5 0 0 0 - - -;
#X obj 44 74 translateXYZ;
#N canvas 91 368 724 643 Commande-master 0;
#X obj 459 126 bng 15 250 50 0 empty empty empty 17 7 0 10 -4034 -1
-1;
#X obj 642 124 bng 15 250 50 0 empty empty empty 17 7 0 10 -258113
-1 -1;
#X obj 456 34 hradio 15 1 0 8 empty empty empty 0 -8 0 10 -4034 -1
-1 0;
#X obj 578 34 hradio 15 1 0 8 empty empty empty 0 -8 0 10 -258113 -1
-1 0;
#X msg 456 52 _all_ load \$1;
#X msg 578 53 _all_ store \$1;
#X obj 480 104 loadbang;
#X obj 457 77 s ampoule-pattern-snd;
#X obj 459 146 apmasterfile ampoule ap/ampoule;
#X obj 38 36 Param ampoule rx 0 45;
#X obj 39 126 Param ampoule rz 0 45;
#X obj 39 169 Param ampoule vibscale 0 0.02;
#X obj 38 83 Param ampoule ry 0 45;
#X obj 39 212 Param ampoule vibscale-time 0 100;
#X obj 39 262 Param ampoule lw 1 100;
#X obj 38 306 Param ampoule clw 1 100;
#X obj 244 37 Param ampoule alpha 0 1;
#X obj 42 387 Param ampoule dx -5 5;
#X obj 42 434 Param ampoule dy -5 5;
#X obj 43 477 Param ampoule dz -5 5;
#X obj 278 243 s ampoule-r-snd;
#X obj 307 222 s ampoule-v-snd;
#X obj 332 200 s ampoule-b-snd;
#X obj 347 417 s ampoule-cb-snd;
#X obj 322 439 s ampoule-cv-snd;
#X obj 294 461 s ampoule-cr-snd;
#X obj 42 528 Param ampoule face 3 100;
#X obj 378 393 s ampoule-ca-snd;
#X msg 496 303 _all_ load \$1;
#X obj 497 328 s ampoule-pattern-snd;
#X obj 497 283 * 7;
#X obj 498 203 hsl 128 15 0 1 0 0 empty \$0-ampoule-effet ampoule-effet
-2 -8 0 10 -262144 -1 -1 8693 1;
#X obj 498 249 line;
#X obj 535 124 apmaster ampoule;
#X obj 280 96 colsel ampoule col 2;
#X obj 295 279 colsel ampoule ccol 2;
#X obj 285 550 Param ampoule danse-a 0 180;
#X obj 285 506 Param ampoule danse-r 0 90;
#X obj 491 507 ParamN ampoule danse-rd 0 90;
#X obj 492 551 ParamN ampoule danse-ad 0 90;
#X msg 499 224 \$1 100;
#X obj 480 124 del 2000;
#X connect 0 0 8 0;
#X connect 1 0 8 1;
#X connect 2 0 4 0;
#X connect 3 0 5 0;
#X connect 4 0 7 0;
#X connect 5 0 7 0;
#X connect 6 0 41 0;
#X connect 28 0 29 0;
#X connect 30 0 28 0;
#X connect 31 0 40 0;
#X connect 32 0 30 0;
#X connect 34 0 20 0;
#X connect 34 1 21 0;
#X connect 34 2 22 0;
#X connect 35 0 25 0;
#X connect 35 1 24 0;
#X connect 35 2 23 0;
#X connect 35 3 27 0;
#X connect 40 0 32 0;
#X connect 41 0 0 0;
#X restore 250 42 pd Commande-master;
#X obj 123 142 spigot 1;
#X obj 140 138 r instrus-on;
#X obj 185 237 instruMelodic Paf1;
#X obj 330 194 instruMelodic Poly1;
#X obj 328 214 instruMelodic Rhodey1;
#X obj 28 218 instruRythmic Rythmic2;
#X obj 28 238 instruRythmic Rythmic3;
#X connect 0 0 18 0;
#X connect 2 0 0 0;
#X connect 5 0 4 0;
#X connect 7 0 8 0;
#X connect 7 0 9 0;
#X connect 10 0 7 0;
#X connect 11 0 5 0;
#X connect 13 0 1 0;
#X connect 14 0 13 1;
#X connect 15 0 13 3;
#X connect 16 0 18 1;
#X connect 17 0 18 3;
#X connect 18 0 13 0;
#X connect 21 0 20 1;
#X restore 322 278 pd Instrus;
#X obj 154 233 gemreceive \$0-sceneHead 50;
#X msg 261 123 view 0 0 3;
#X obj 16 195 declare -path gemabs-;
#X obj 442 200 dsp;
#X floatatom 442 236 5 0 0 0 - - -;
#X floatatom 457 220 5 0 0 0 - - -;
#X obj 796 71 r fromNet;
#X obj 796 96 route ck;
#X obj 812 129 unpack f f;
#X msg 759 152 -1;
#X msg 717 42 nd 64 4;
#N canvas 12 135 470 484 notes 0;
#X text 30 217 -;
#X text 57 48 Sequence: -taper titre morceau suivant + prenom par interface
+ choix gamseq + choix instrus \; eventuellement playlist \, eventuellement
affichage de cette playlist -intermede : decor sonore (petits rythmes
\, nappes)+ fond bulle (etoiles \, anneaux \, moirages) \; ampoules
eteintes \, panneaux present mais vierges \; on peut annoncer le morceau
suivant. Si on touche aux interfaces \, animation grx qui incite à
s'inscrire.;
#X text 55 208 -morceau commence par une presentation joueurs/instruments
(line check). Puis début à vide + notre accompagnement. Les ampoules
s'allument dès qu'on en joue.;
#X text 53 287 -fin de morceau au jugé (compte à rebours?). Les consoles
clignotent. Stop \; long fade down.;
#X restore 220 331 pd notes;
#N canvas 343 153 767 580 Moire 0;
#X obj 112 49 separator;
#X obj 112 182 pix_texture;
#X obj 405 10 r prehead;
#X obj 483 31 loadbang;
#X obj 407 163 translateXYZ 0 0 -4;
#X obj 406 57 separator;
#X obj 406 35 t a a;
#X obj 476 87 t a;
#X obj 407 116 gemframebuffer;
#X floatatom 504 106 5 0 0 0 - - -;
#X obj 407 184 rectangle 4 1;
#X obj 59 405 pix_coordinate;
#X msg 144 155 rectangle 0 \, repeat 1;
#X obj 227 128 loadbang;
#X msg 146 377 0 0 1 0 1 \$1 0 \$1;
#X obj 140 249 separator;
#X obj 112 215 t a a;
#X obj 68 262 separator;
#X obj 226 501 rotateXYZ 0 0 0;
#X obj 196 410 pix_coordinate;
#X msg 283 382 0 0 1 0 1 \$1 0 \$1;
#X floatatom 304 416 5 0 0 0 - - -;
#X obj 229 526 sphere 9 100;
#X floatatom 83 449 5 0 0 0 - - -;
#X floatatom 115 450 5 0 0 0 - - -;
#X floatatom 152 454 5 0 0 0 - - -;
#X floatatom 573 167 5 0 0 0 - - -;
#X obj 60 524 sphere 7 100;
#X obj -22 49 colsel moire col;
#X obj 496 222 metro 10;
#X obj 646 292 - 1000;
#X obj 646 312 / 1000;
#X obj 496 200 tgl 15 0 empty empty empty 17 7 0 10 -262144 -1 -1 1
1;
#X floatatom 632 490 5 0 0 0 - - -;
#X obj 646 385 +;
#X obj 674 384 clip -1 1;
#X obj 588 422 mavg 1000;
#X obj 567 498 *;
#X floatatom 659 423 5 0 0 0 - - -;
#X obj 646 337 * 0.001;
#X obj 645 269 random 2001;
#X obj 51 489 translateXYZ 0 0 1;
#X obj 245 330 t f f;
#X obj 495 174 loadbang;
#X obj 112 13 gemreceive \$0-sceneHead 30;
#X floatatom 350 504 5 0 0 0 - - -;
#X obj 112 81 accumrotate;
#X obj 116 128 accumrotate;
#X floatatom 200 87 5 0 0 0 - - -;
#X floatatom 271 82 5 0 0 0 - - -;
#X obj 495 251 s bougeMetro;
#X floatatom 436 334 5 0 0 0 - - -;
#X floatatom 15 266 5 0 0 0 - - -;
#X obj 114 106 accumrotate;
#X obj 191 58 * 0.2;
#X obj 356 439 * 30;
#X obj 415 448 * 30;
#X obj 8 229 pow 0.5;
#X obj 252 62 * 0.3;
#X obj 304 223 t f f f;
#X obj 325 246 *;
#X obj 297 245 *;
#X floatatom 235 262 5 0 0 0 - - -;
#X obj 229 238 speedlim 100;
#X floatatom 321 320 5 0 0 0 - - -;
#X obj 317 301 speedlim 100;
#X obj 296 270 * 1000;
#X obj 247 99 once;
#X obj 280 108 b;
#X obj 282 128 del 500;
#X obj 286 360 *;
#X obj 416 250 * 0.1;
#X obj 419 275 + 1;
#X obj 253 40 bouge;
#X obj 190 37 bouge;
#X obj 253 40 bouge;
#X obj 421 229 bouge;
#X obj 430 316 bouge 0 0.1;
#X obj 436 361 bouge 0 0.1;
#X obj 448 426 bouge 0 0.1;
#X obj 422 403 bouge 0 0.1;
#X obj 300 192 bougeP 0.2;
#X obj 269 301 + 20;
#X msg 478 55 format RGBA \, dimen 1 40 \, color 0 0 0 0;
#X obj 39 344 colorRGB 0 0 0 0;
#X obj 127 308 colorRGB 1 1 1 0;
#X obj 191 190 change;
#X obj 192 211 sel 0;
#X obj 406 138 colorRGB 1 1 1 1;
#X obj 297 155 r cleanAll;
#X connect 0 0 46 0;
#X connect 1 0 16 0;
#X connect 2 0 6 0;
#X connect 3 0 83 0;
#X connect 4 0 10 0;
#X connect 5 0 8 0;
#X connect 6 0 5 0;
#X connect 7 0 8 0;
#X connect 8 0 88 0;
#X connect 8 1 1 1;
#X connect 9 0 4 2;
#X connect 11 0 41 0;
#X connect 12 0 1 0;
#X connect 13 0 12 0;
#X connect 14 0 11 1;
#X connect 15 0 85 0;
#X connect 16 0 17 0;
#X connect 16 1 15 0;
#X connect 17 0 84 0;
#X connect 18 0 22 0;
#X connect 19 0 18 0;
#X connect 20 0 19 1;
#X connect 21 0 18 1;
#X connect 23 0 41 1;
#X connect 24 0 41 2;
#X connect 25 0 41 3;
#X connect 28 0 85 1;
#X connect 28 1 85 2;
#X connect 28 2 85 3;
#X connect 28 3 57 0;
#X connect 28 3 85 4;
#X connect 28 3 86 0;
#X connect 29 0 50 0;
#X connect 30 0 31 0;
#X connect 31 0 39 0;
#X connect 32 0 29 0;
#X connect 34 0 35 0;
#X connect 34 0 36 0;
#X connect 34 0 38 0;
#X connect 35 0 34 1;
#X connect 36 0 33 0;
#X connect 39 0 34 0;
#X connect 40 0 30 0;
#X connect 41 0 27 0;
#X connect 42 0 14 0;
#X connect 42 1 70 0;
#X connect 43 0 32 0;
#X connect 44 0 67 0;
#X connect 44 0 0 0;
#X connect 45 0 18 3;
#X connect 46 0 53 0;
#X connect 47 0 1 0;
#X connect 53 0 47 0;
#X connect 54 0 46 2;
#X connect 54 0 48 0;
#X connect 55 0 18 1;
#X connect 56 0 18 2;
#X connect 57 0 52 0;
#X connect 57 0 84 4;
#X connect 58 0 47 1;
#X connect 58 0 49 0;
#X connect 59 0 61 0;
#X connect 59 1 60 0;
#X connect 59 2 60 1;
#X connect 60 0 61 1;
#X connect 61 0 66 0;
#X connect 63 0 62 0;
#X connect 65 0 64 0;
#X connect 66 0 65 0;
#X connect 66 0 82 0;
#X connect 67 0 12 0;
#X connect 68 0 69 0;
#X connect 69 0 12 0;
#X connect 70 0 20 0;
#X connect 71 0 72 0;
#X connect 72 0 70 1;
#X connect 73 0 58 0;
#X connect 74 0 54 0;
#X connect 76 0 71 0;
#X connect 77 0 41 1;
#X connect 78 0 41 2;
#X connect 79 0 56 0;
#X connect 80 0 55 0;
#X connect 81 0 59 0;
#X connect 81 0 63 0;
#X connect 82 0 42 0;
#X connect 83 0 7 0;
#X connect 83 0 68 0;
#X connect 84 0 11 0;
#X connect 85 0 19 0;
#X connect 86 0 87 0;
#X connect 87 0 12 0;
#X connect 88 0 4 0;
#X connect 89 0 12 0;
#X restore 408 296 pd Moire;
#X obj 617 300 s panneaux-alpha;
#X obj 616 280 hsl 128 15 0 1 0 0 empty empty empty -2 -8 0 10 -262144
-1 -1 0 1;
#X obj 486 294 colsel moire col;
#N canvas 116 258 845 517 Text 1;
#X obj 284 3 r prehead;
#X obj 277 122 gemframebuffer;
#X obj 323 75 loadbang;
#X obj 329 357 text3d;
#X obj 365 273 loadbang;
#X msg 470 275 font fonts/foo.ttf;
#X obj 79 114 separator;
#X obj 80 156 pix_texture;
#X obj 80 5 gemreceive \$0-sceneHead 20;
#X obj 80 135 colorRGB 1 1 1 0.8;
#X floatatom 143 319 5 0 0 0 - - -;
#X floatatom 187 317 5 0 0 0 - - -;
#X floatatom 240 318 5 0 0 0 - - -;
#X floatatom 493 376 5 0 0 0 - - -;
#X msg 379 296 font fonts/pricedown.ttf;
#X floatatom 349 220 5 0 0 0 - - -;
#X floatatom 363 148 5 0 0 0 - - -;
#X floatatom 167 229 5 0 0 0 - - -;
#X floatatom 217 229 5 0 0 0 - - -;
#X floatatom 309 212 5 0 0 0 - - -;
#X floatatom 219 182 5 0 0 0 - - -;
#X floatatom 231 449 5 0 0 0 - - -;
#X msg 310 98 format RGBA \, dimen 1024 32 \, color 0 0 0 0 \, type
FLOAT;
#X msg 365 322 text;
#X obj 270 396 metro 10;
#X obj 270 447 +;
#X obj 271 373 tgl 15 0 empty empty empty 17 7 0 10 -262144 -1 -1 1
1;
#X obj 271 351 loadbang;
#X obj 296 448 fmod 360;
#X obj 287 71 once;
#X obj 421 47 t b a;
#X obj 445 162 list prepend text;
#X obj 440 220 list trim;
#X msg 529 17 Allez les petits et les grands ! Tout le monde il s'amuse
bien et il jouent tous en coeur!;
#X msg 524 58 Bob est appelé à la grosse caisse.;
#X msg 483 23 symbol;
#X symbolatom 479 131 80 0 0 0 - - -;
#X msg 609 174 Roger;
#X obj 90 387 rotateXYZ 0 180 0;
#X obj 276 167 translateXYZ 0 2 -4;
#X floatatom 185 172 5 0 0 0 - - -;
#X obj 353 33 bng 15 250 50 0 empty empty empty 17 7 0 10 -262144 -1
-1;
#X obj 109 209 translateXYZ 0 0 0.79;
#X msg 268 420 0.2;
#X obj 31 81 tgl 15 0 empty empty empty 17 7 0 10 -262144 -1 -1 0 1
;
#X obj 80 59 spigot 1;
#X obj 121 40 r text-on;
#X obj 93 439 cylinder -5 30;
#X obj 257 275 colorRGB 1 1 1 1;
#X obj 286 36 separator;
#X obj 351 13 r cleanAll;
#X obj 420 12 r textText;
#X obj 279 241 scaleXYZ 0.14 4 1;
#X obj 111 261 scaleXYZ 1 1 0.1;
#X connect 0 0 49 0;
#X connect 1 0 39 0;
#X connect 1 1 7 1;
#X connect 2 0 22 0;
#X connect 4 0 23 0;
#X connect 4 0 14 0;
#X connect 5 0 3 0;
#X connect 6 0 9 0;
#X connect 7 0 42 0;
#X connect 8 0 45 0;
#X connect 9 0 7 0;
#X connect 10 0 38 1;
#X connect 11 0 38 2;
#X connect 12 0 38 3;
#X connect 13 0 3 1;
#X connect 14 0 3 0;
#X connect 15 0 52 2;
#X connect 16 0 39 2;
#X connect 17 0 53 2;
#X connect 18 0 53 3;
#X connect 19 0 52 1;
#X connect 20 0 42 3;
#X connect 21 0 47 1;
#X connect 22 0 1 0;
#X connect 23 0 3 0;
#X connect 24 0 43 0;
#X connect 25 0 28 0;
#X connect 25 0 38 3;
#X connect 26 0 24 0;
#X connect 27 0 26 0;
#X connect 28 0 25 1;
#X connect 29 0 1 0;
#X connect 30 0 29 1;
#X connect 30 1 31 0;
#X connect 31 0 32 0;
#X connect 32 0 3 0;
#X connect 33 0 30 0;
#X connect 34 0 30 0;
#X connect 35 0 30 0;
#X connect 36 0 30 0;
#X connect 38 0 47 0;
#X connect 39 0 52 0;
#X connect 41 0 29 1;
#X connect 42 0 53 0;
#X connect 43 0 25 0;
#X connect 45 0 6 0;
#X connect 46 0 45 1;
#X connect 48 0 3 0;
#X connect 49 0 29 0;
#X connect 50 0 41 0;
#X connect 51 0 30 0;
#X connect 52 0 48 0;
#X connect 53 0 38 0;
#X restore 332 334 pd Text;
#X obj 617 327 hsl 128 15 0 1 0 0 ampoule-master empty ampoule-master
10 8 0 10 -262144 -1 -1 0 1;
#X obj 619 384 hsl 128 15 0 1 0 0 etoile-master empty etoile-master
10 8 0 10 -262144 -1 -1 12700 1;
#X obj 777 301 hsl 128 15 0 1 0 0 \$0-ampoule-effet empty ampoule-effet
10 8 0 10 -262144 -1 -1 0 1;
#N canvas 198 97 726 678 Etoiles 0;
#X obj 109 95 separator;
#X obj 317 21 r prehead;
#X obj 393 17 loadbang;
#X obj 453 168 pix_texture;
#X obj 407 410 pix_texture;
#X obj 317 146 translateXYZ 0 0 -4;
#X obj 407 459 rectangle 4 4;
#X obj 452 198 translateXYZ 0 0 -4;
#X obj 192 417 t a b b;
#X obj 307 447 random 20000;
#X obj 309 469 / 10000;
#X obj 310 491 - 1;
#X obj 312 520 * 4;
#X obj 223 451 random 20000;
#X obj 225 473 / 10000;
#X obj 226 495 - 1;
#X obj 228 524 * 4;
#X obj 190 564 translateXYZ 0 0 0;
#X floatatom 324 561 5 0 0 0 - - -;
#X obj 317 74 separator;
#X obj 429 75 separator;
#X obj 321 44 t a a;
#X obj 193 302 separator;
#X obj 404 381 separator;
#X floatatom 272 211 5 0 0 0 - - -;
#X obj 453 259 rectangle 4 4;
#X floatatom 575 127 5 0 0 0 - - -;
#X msg 608 77 type FLOAT;
#X floatatom 569 377 5 0 0 0 - - -;
#X floatatom 611 312 5 0 0 0 - - -;
#X obj 616 334 / 1000;
#X obj 619 356 + 1;
#X obj 110 137 pix_texture;
#X obj 593 194 tgl 15 0 empty empty empty 17 7 0 10 -262144 -1 -1 0
1;
#X obj 195 391 separator;
#X obj 194 353 t a a a a a a;
#X msg 523 64 1024;
#X obj 386 73 t a;
#X msg 519 86 dimen \$1 \$1;
#X obj 610 262 loadbang;
#X obj 190 613 circle 0.01;
#X obj 317 102 gemframebuffer;
#X obj 428 103 gemframebuffer;
#X obj 453 228 colorRGB 1 1 1 1;
#X msg 388 41 format RGB32 \, dimen 1024 1024 \, color 0 0 0 1 \, type
FLOAT;
#X msg 608 286 -2;
#X obj 109 59 gemreceive \$0-sceneHead 20;
#X obj 153 232 sphere 10 30;
#X obj 17 36 metro 10;
#X obj 23 101 +;
#X obj 24 5 tgl 15 0 empty empty empty 17 7 0 10 -262144 -1 -1 1 1
;
#X obj 50 102 fmod 360;
#X obj 153 201 rotateXYZ 0 0 0;
#X obj 61 -3 loadbang;
#X obj 469 370 tgl 15 0 empty empty empty 17 7 0 10 -262144 -1 -1 0
1;
#X obj 110 116 colorRGB 1 1 1 0.8;
#X obj 197 326 colorRGB 1 1 1 0.9;
#X obj 407 437 colorRGB 1 1 1 1;
#X floatatom 575 238 5 0 0 0 - - -;
#X obj 205 276 t a a a;
#X obj 428 521 translate 0 0 1 0;
#X floatatom 484 486 5 0 0 0 - - -;
#X floatatom 225 149 5 0 0 0 - - -;
#X floatatom 261 247 5 0 0 0 - - -;
#X obj 566 427 r fromNet;
#X obj 566 452 route ck;
#X obj 572 572 * 4;
#X obj 574 619 line;
#X obj 572 548 f;
#X obj 567 499 mod 4;
#X obj 560 523 sel 0;
#X floatatom 26 167 5 0 0 0 - - -;
#X obj 51 353 t f f;
#X obj 51 382 cos;
#X obj 87 380 sin;
#X floatatom 125 496 5 0 0 0 - - -;
#X floatatom 146 416 5 0 0 0 - - -;
#X obj 117 418 f;
#X obj 22 196 r fromNet;
#X obj 22 221 route ck;
#X obj 49 450 * 0.5;
#X obj 89 450 * 0.5;
#X obj 44 253 ndmetro;
#X obj 52 127 loadbang;
#X floatatom 107 267 5 0 0 0 - - -;
#X msg 52 149 256;
#X obj 84 296 /;
#X obj 84 320 * 6.28;
#X obj 427 596 rotate 0 0 0 1;
#X floatatom 466 571 5 0 0 0 - - -;
#X obj 425 620 rectangle 40 0.01;
#X obj 428 492 separator;
#X floatatom 631 519 5 0 0 0 - - -;
#X obj 88 194 f;
#X msg 80 154 32;
#X msg 98 224 nd \$1 4;
#X msg 105 168 1024;
#X floatatom 186 88 5 0 0 0 - - -;
#X msg 117 196 16;
#X msg 571 595 -4 \, 3 \$1;
#X obj 426 545 colorRGB 1 0 0 0;
#X floatatom 518 495 5 0 0 0 - - -;
#X obj 220 88 r etoile-master;
#X obj 566 475 unpack f f;
#X obj 305 202 colsel etoile col;
#X obj 21 68 f 0.01;
#X obj 118 5 r etoile-vitesse;
#X obj 162 28 hsl 128 15 0 1 0 0 empty empty empty -2 -8 0 10 -262144
-1 -1 0 1;
#X floatatom 83 82 5 0 0 0 - - -;
#X obj 75 55 * 25;
#X obj 118 28 pow 4;
#X connect 0 0 55 0;
#X connect 1 0 21 0;
#X connect 2 0 44 0;
#X connect 3 0 7 0;
#X connect 4 0 57 0;
#X connect 5 0 59 0;
#X connect 7 0 43 0;
#X connect 8 0 17 0;
#X connect 8 1 13 0;
#X connect 8 2 9 0;
#X connect 9 0 10 0;
#X connect 10 0 11 0;
#X connect 11 0 12 0;
#X connect 12 0 17 2;
#X connect 13 0 14 0;
#X connect 14 0 15 0;
#X connect 15 0 16 0;
#X connect 16 0 17 1;
#X connect 17 0 40 0;
#X connect 19 0 41 0;
#X connect 20 0 42 0;
#X connect 21 0 19 0;
#X connect 21 1 20 0;
#X connect 22 0 56 0;
#X connect 23 0 4 0;
#X connect 24 0 47 1;
#X connect 26 0 7 3;
#X connect 28 0 43 1;
#X connect 28 0 43 2;
#X connect 28 0 43 3;
#X connect 29 0 30 0;
#X connect 30 0 31 0;
#X connect 31 0 28 0;
#X connect 32 0 52 0;
#X connect 33 0 43 4;
#X connect 34 0 8 0;
#X connect 35 0 34 0;
#X connect 35 1 34 0;
#X connect 35 2 34 0;
#X connect 35 3 34 0;
#X connect 35 4 34 0;
#X connect 35 5 34 0;
#X connect 36 0 38 0;
#X connect 37 0 41 0;
#X connect 37 0 42 0;
#X connect 38 0 37 0;
#X connect 39 0 45 0;
#X connect 41 0 5 0;
#X connect 41 1 3 1;
#X connect 41 1 32 1;
#X connect 42 0 3 0;
#X connect 42 1 4 1;
#X connect 43 0 25 0;
#X connect 44 0 37 0;
#X connect 45 0 29 0;
#X connect 46 0 0 0;
#X connect 48 0 105 0;
#X connect 49 0 51 0;
#X connect 49 0 52 3;
#X connect 50 0 48 0;
#X connect 51 0 49 1;
#X connect 52 0 47 0;
#X connect 53 0 50 0;
#X connect 54 0 57 4;
#X connect 55 0 32 0;
#X connect 56 0 35 0;
#X connect 57 0 6 0;
#X connect 58 0 43 4;
#X connect 59 0 22 0;
#X connect 59 1 91 0;
#X connect 59 2 23 0;
#X connect 60 0 100 0;
#X connect 61 0 60 1;
#X connect 62 0 52 1;
#X connect 63 0 47 2;
#X connect 64 0 65 0;
#X connect 65 0 103 0;
#X connect 66 0 99 0;
#X connect 67 0 60 1;
#X connect 68 0 66 0;
#X connect 69 0 70 0;
#X connect 70 0 68 0;
#X connect 72 0 73 0;
#X connect 72 1 74 0;
#X connect 73 0 80 0;
#X connect 74 0 81 0;
#X connect 75 0 72 0;
#X connect 76 0 77 0;
#X connect 77 0 80 1;
#X connect 77 0 81 1;
#X connect 78 0 79 0;
#X connect 79 0 82 0;
#X connect 80 0 52 1;
#X connect 81 0 52 2;
#X connect 82 0 84 0;
#X connect 82 0 86 0;
#X connect 83 0 85 0;
#X connect 85 0 93 0;
#X connect 86 0 87 0;
#X connect 87 0 72 0;
#X connect 88 0 90 0;
#X connect 89 0 88 1;
#X connect 91 0 60 0;
#X connect 92 0 69 1;
#X connect 92 0 66 1;
#X connect 93 0 95 0;
#X connect 93 0 86 1;
#X connect 94 0 93 0;
#X connect 95 0 82 0;
#X connect 96 0 93 0;
#X connect 97 0 55 4;
#X connect 98 0 93 0;
#X connect 99 0 67 0;
#X connect 100 0 88 0;
#X connect 101 0 100 4;
#X connect 102 0 55 4;
#X connect 103 0 69 0;
#X connect 103 1 68 1;
#X connect 104 0 56 1;
#X connect 104 1 56 2;
#X connect 104 2 56 3;
#X connect 105 0 49 0;
#X connect 106 0 110 0;
#X connect 107 0 110 0;
#X connect 109 0 105 1;
#X connect 109 0 108 0;
#X connect 110 0 109 0;
#X restore 406 275 pd Etoiles;
#X obj 229 415 hsl 128 20 0 2 0 0 scaleRythmic empty scaleRythmic 10
10 0 10 -262144 -1 -1 3175 1;
#X obj 380 415 hsl 128 20 0.1 10 1 0 scaleMelodic empty scaleMelodic
10 10 0 10 -262144 -1 -1 4438 1;
#X obj 758 348 colsel fb col;
#X obj 16 214 declare -path mapping;
#N canvas 1 443 808 275 Net 0;
#N canvas 71 424 450 300 Feedback 0;
#X obj 240 103 tgl 15 0 empty empty empty 17 7 0 10 -262144 -1 -1 0
1;
#X obj 87 225 s fb-col-R-rcv;
#X obj 169 189 s fb-col-V-rcv;
#X obj 75 140 s fb-col-B-rcv;
#X obj 196 132 s fb-col-A-rcv;
#X obj 112 111 s fb-move;
#X obj 89 48 ctlPage VidCtl2 feedback;
#X connect 6 0 3 0;
#X connect 6 1 1 0;
#X connect 6 2 5 0;
#X connect 6 3 2 0;
#X connect 6 4 4 0;
#X restore 105 76 pd Feedback;
#N canvas 114 421 450 300 Moire 0;
#X obj 277 100 tgl 15 0 empty empty empty 17 7 0 10 -262144 -1 -1 0
1;
#X floatatom 50 100 5 0 0 0 - - -;
#X obj 327 198 s moire-move;
#X obj 196 132 s moire-col-A-rcv;
#X obj 169 189 s moire-col-V-rcv;
#X obj 87 225 s moire-col-R-rcv;
#X obj 75 140 s moire-col-B-rcv;
#X obj 89 48 ctlPage VidCtl1 moire;
#X connect 7 0 6 0;
#X connect 7 1 5 0;
#X connect 7 3 4 0;
#X connect 7 4 3 0;
#X restore 105 54 pd Moire;
#N canvas 134 445 450 300 Masters 0;
#X floatatom 50 100 5 0 0 0 - - -;
#X obj 75 140 s panneaux-alpha;
#X obj 87 225 s ampoule-master;
#X obj 134 198 s etoile-master;
#X obj 205 138 s fb-col-A-rcv;
#X obj 206 255 s ampoule-ccol-A-rcv;
#X obj 188 175 s moire-col-A-rcv;
#X obj 164 24 ctlPage VidCtl3 masters;
#X connect 7 0 1 0;
#X connect 7 1 2 0;
#X connect 7 2 3 0;
#X connect 7 3 6 0;
#X connect 7 4 4 0;
#X restore 103 98 pd Masters;
#N canvas 55 459 450 300 Effets 0;
#X obj 45 215 hsl 128 20 0 3 0 0 scaleRythmic empty scaleRythmic 10
10 0 10 -262144 -1 -1 6623 1;
#X obj 123 177 hsl 128 20 0.1 10 1 0 scaleMelodic empty scaleMelodic
10 10 0 10 -262144 -1 -1 7982 1;
#X obj 191 73 hsl 128 15 0 1 0 0 \$0-ampoule-effet empty ampoule-effet
10 8 0 10 -262144 -1 -1 8693 1;
#X obj 244 151 hsl 150 15 -1 1 0 0 projColorSat-ALL empty saturation
10 8 0 12 -4034 -1 -258113 7450 1;
#X obj 129 145 * 3;
#X obj 49 178 * 3;
#X obj 165 24 ctlPage VidCtl4 fx;
#X connect 4 0 1 0;
#X connect 5 0 0 0;
#X connect 6 0 5 0;
#X connect 6 1 4 0;
#X connect 6 2 2 0;
#X connect 6 3 3 0;
#X restore 101 125 pd Effets;
#X obj 448 28 r fromNet;
#N canvas 111 433 450 300 Etoile 0;
#X obj 277 100 tgl 15 0 empty empty empty 17 7 0 10 -262144 -1 -1 0
1;
#X floatatom 50 100 5 0 0 0 - - -;
#X obj 75 140 s etoile-col-B-rcv;
#X obj 87 225 s etoile-col-R-rcv;
#X obj 169 189 s etoile-col-V-rcv;
#X obj 124 166 s etoile-vitesse;
#X obj 196 132 s etoile-master;
#X obj 89 48 ctlPage VidCtl5 etoile;
#X connect 7 0 2 0;
#X connect 7 1 3 0;
#X connect 7 2 5 0;
#X connect 7 3 4 0;
#X connect 7 4 6 0;
#X restore 105 152 pd Etoile;
#X obj 223 135 & 128;
#X obj 221 157 != 0;
#X obj 430 88 route tog;
#X obj 304 154 != 0;
#X obj 306 132 & 64;
#X obj 347 132 & 32;
#X obj 345 154 != 0;
#X obj 296 203 s ampoule-on-rcv;
#X obj 221 180 s instrus-on-rcv;
#X obj 340 176 s panneaux-on-rcv;
#X obj 458 179 != 0;
#X floatatom 504 154 5 0 0 0 - - -;
#X obj 460 157 & 8;
#X obj 456 202 s douille-on-rcv;
#X obj 562 177 != 0;
#X floatatom 608 152 5 0 0 0 - - -;
#X obj 564 155 & 4;
#X obj 560 200 s table-on-rcv;
#X obj 666 180 != 0;
#X floatatom 712 155 5 0 0 0 - - -;
#X obj 664 203 s text-on-rcv;
#X obj 668 158 & 2;
#N canvas 1 82 597 411 Barre 0;
#X obj 337 -346 hsl 128 15 0 1 0 0 plateau-epaisseur empty plateau-epaisseur
10 8 0 12 -262144 -1 -1 0 1;
#X obj 337 -377 hsl 128 15 0 1 0 0 plateau-amplitude empty plateau-amplitude
10 8 0 12 -262144 -1 -1 4443 1;
#X obj 354 -473 hsl 128 15 0 1 0 0 barre-alpha empty barre-alpha 10
8 0 12 -262144 -1 -1 12700 1;
#X obj 123 -331 hsl 128 15 0 1 0 0 aiguille-epaisseur empty aiguille-epaisseur
10 8 0 12 -262144 -1 -1 6706 1;
#X obj 156 -369 hsl 128 15 0 1 0 0 aiguille-amplitude empty aiguille-amplitude
10 8 0 12 -262144 -1 -1 12700 1;
#X obj 199 -510 ctlPage VidCtl6 barres;
#X connect 5 0 3 0;
#X connect 5 1 4 0;
#X connect 5 2 0 0;
#X connect 5 3 1 0;
#X connect 5 4 2 0;
#X restore 106 178 pd Barre;
#X obj 448 55 route hurfB hurfA;
#X obj 670 46 route tog;
#X obj 668 95 != 0;
#X obj 668 118 s barres-on-rcv;
#X obj 670 73 & 32;
#X obj 721 92 tgl 15 0 empty empty empty 17 7 0 10 -262144 -1 -1 0
1;
#N canvas 1 92 742 545 Bouge 0;
#X obj 103 224 s bouge-x;
#X obj 177 228 s bouge-y;
#X obj 240 230 s bouge-z;
#X obj 311 227 s bouge-vitessez;
#X obj 196 126 ctlPage VidCtl7 bouge;
#X obj 157 164 m;
#X obj 217 172 m;
#X obj 267 174 m;
#X obj 309 172 m;
#X connect 4 0 5 0;
#X connect 4 1 6 0;
#X connect 4 2 7 0;
#X connect 4 3 8 0;
#X connect 4 4 5 1;
#X connect 4 4 6 1;
#X connect 4 4 7 1;
#X connect 4 4 8 1;
#X connect 5 0 0 0;
#X connect 6 0 1 0;
#X connect 7 0 2 0;
#X connect 8 0 3 0;
#X restore 109 202 pd Bouge;
#X connect 4 0 29 0;
#X connect 6 0 7 0;
#X connect 7 0 14 0;
#X connect 8 0 6 0;
#X connect 8 0 10 0;
#X connect 8 0 11 0;
#X connect 8 0 18 0;
#X connect 8 0 22 0;
#X connect 8 0 27 0;
#X connect 9 0 13 0;
#X connect 10 0 9 0;
#X connect 11 0 12 0;
#X connect 12 0 15 0;
#X connect 16 0 19 0;
#X connect 18 0 16 0;
#X connect 18 0 17 0;
#X connect 20 0 23 0;
#X connect 22 0 20 0;
#X connect 22 0 21 0;
#X connect 24 0 26 0;
#X connect 27 0 24 0;
#X connect 27 0 25 0;
#X connect 29 0 8 0;
#X connect 29 1 30 0;
#X connect 30 0 33 0;
#X connect 31 0 32 0;
#X connect 31 0 34 0;
#X connect 33 0 31 0;
#X restore 48 385 pd Net;
#X obj 774 323 hsl 128 15 0 1 0 0 fb-move empty fb-move 10 8 0 10 -262144
-1 -1 0 1;
#X obj 533 408 tgl 30 0 instrus-on instrus-on-rcv instrus-on 32 15
0 12 -4034 -1 -1 1 1;
#X msg 377 391 0.5;
#X msg 225 392 0.5;
#X obj 533 443 tgl 30 0 panneaux-on panneaux-on-rcv panneaux-on 32
15 0 12 -4034 -1 -1 1 1;
#X obj 534 475 tgl 30 0 ampoule-on ampoule-on-rcv ampoule-on 32 15
0 12 -4034 -1 -1 1 1;
#X obj 642 474 tgl 30 0 douille-on douille-on-rcv douille-on 32 15
0 12 -4034 -1 -1 1 1;
#X obj 655 439 tgl 30 0 table-on table-on-rcv table-on 32 15 0 12 -4034
-1 -1 1 1;
#X obj 752 473 tgl 30 0 text-on text-on-rcv text-on 32 15 0 12 -4034
-1 -1 1 1;
#X obj 409 461 bng 30 250 50 0 cleanAll empty cleanAll 34 7 0 10 -261234
-1 -1;
#X obj 200 476 hsl 150 15 -1 1 0 0 projColorSat-ALL empty saturation
10 8 0 12 -4034 -1 -258113 0 1;
#X msg 167 477 0;
#N canvas 252 502 770 270 PRENOMS 1;
#X obj 8 7 prenom 0;
#X obj 134 7 prenom 1;
#X obj 261 7 prenom 2;
#X obj 388 7 prenom 3;
#X obj 514 7 prenom 4;
#X obj 641 7 prenom 5;
#X msg 217 154 Allez les petits et les grands ! Tout le monde il s'amuse
bien et il jouent tous en coeur!;
#X msg 218 189 Bob est appelé à la grosse caisse.;
#X msg 36 188 symbol;
#X symbolatom 130 132 80 0 0 0 - - -;
#X obj 199 216 t a;
#X obj 200 239 s textText;
#X msg 435 189 Attention c'est bientot fini !;
#X msg 447 216 Attention ça va bientôt commencer !;
#X connect 6 0 10 0;
#X connect 7 0 10 0;
#X connect 8 0 10 0;
#X connect 9 0 10 0;
#X connect 10 0 11 0;
#X connect 12 0 10 0;
#X connect 13 0 10 0;
#X restore 153 304 pd PRENOMS;
#N canvas 329 316 701 468 Barres 0;
#X obj 221 129 t a a a;
#X obj 469 67 r fromNet;
#X obj 469 92 route ck;
#X obj 405 19 loadbang;
#X msg 405 43 nd 256 8;
#N canvas 1 102 600 438 aiguille 0;
#X obj 161 125 separator;
#X floatatom 200 204 5 0 0 0 - - -;
#X floatatom 243 203 5 0 0 0 - - -;
#X obj 160 291 rotateXYZ 90 0 0;
#X floatatom 207 262 5 0 0 0 - - -;
#X obj 160 227 translateXYZ 0 1.5 0;
#X obj 161 177 rotateXYZ;
#X floatatom 231 146 5 0 0 0 - - -;
#X obj 161 345 rectangle 0.02 200;
#X obj 316 188 * 360;
#X msg 315 263 \$1 30;
#X obj 315 284 line;
#X msg 433 215 \$1 30;
#X obj 433 236 line;
#X obj 433 193 fmod 1;
#X obj 432 166 / -8;
#X obj 433 258 pow 2;
#X obj 433 301 + 0.01;
#X obj 434 282 * 0.08;
#X obj 317 130 t f f;
#X obj 366 165 / 16;
#X obj 368 206 * 6.28;
#X obj 367 186 fmod 1;
#X obj 371 228 cos;
#X obj 318 237 +;
#X obj 373 249 * 5;
#X obj 317 167 / 128;
#X floatatom 400 239 5 0 0 0 - - -;
#X obj 343 94 inlet clock;
#X obj 161 98 inlet;
#X obj 476 228 hsl 128 15 0 1 0 0 empty aiguille-epaisseur aiguille-epaisseur
10 8 0 12 -262144 -1 -1 6706 1;
#X obj 473 251 pow 3;
#X obj 442 82 hsl 128 15 0 1 0 0 empty aiguille-amplitude aiguille-amplitude
10 8 0 12 -262144 -1 -1 12700 1;
#X obj 438 106 pow 3;
#X obj 438 128 * 50;
#X obj 321 49 hsl 128 15 0 1 0 0 empty barre-alpha barre-alpha 10 8
0 12 -262144 -1 -1 12700 1;
#X obj 160 323 colorRGB 1 0 0 0;
#X connect 0 0 6 0;
#X connect 1 0 5 2;
#X connect 2 0 5 3;
#X connect 3 0 36 0;
#X connect 4 0 3 1;
#X connect 5 0 3 0;
#X connect 6 0 5 0;
#X connect 7 0 6 3;
#X connect 9 0 24 0;
#X connect 10 0 11 0;
#X connect 11 0 6 3;
#X connect 12 0 13 0;
#X connect 13 0 16 0;
#X connect 14 0 12 0;
#X connect 15 0 14 0;
#X connect 16 0 18 0;
#X connect 17 0 8 1;
#X connect 18 0 17 0;
#X connect 19 0 26 0;
#X connect 19 1 20 0;
#X connect 20 0 22 0;
#X connect 21 0 23 0;
#X connect 22 0 21 0;
#X connect 23 0 25 0;
#X connect 24 0 10 0;
#X connect 25 0 24 1;
#X connect 26 0 9 0;
#X connect 27 0 25 1;
#X connect 28 0 15 0;
#X connect 28 0 19 0;
#X connect 29 0 0 0;
#X connect 30 0 31 0;
#X connect 31 0 18 1;
#X connect 32 0 33 0;
#X connect 33 0 34 0;
#X connect 34 0 25 1;
#X connect 35 0 36 4;
#X connect 36 0 8 0;
#X restore 322 228 pd aiguille;
#X obj 458 120 ndmetro 600;
#N canvas 1 97 858 589 plateau 0;
#X obj 122 195 separator;
#X floatatom 164 306 5 0 0 0 - - -;
#X floatatom 207 305 5 0 0 0 - - -;
#X floatatom 171 353 5 0 0 0 - - -;
#X obj 122 247 rotateXYZ;
#X floatatom 192 216 5 0 0 0 - - -;
#X obj 124 472 cylinder 1.5 100;
#X obj 124 442 scaleXYZ 1 1 0.01;
#X obj 121 104 inlet;
#X msg 316 282 \$1 30;
#X obj 316 303 line;
#X msg 502 248 \$1 30;
#X obj 502 269 line;
#X obj 497 173 fmod 1;
#X obj 317 130 t f f;
#X obj 368 206 * 6.28;
#X obj 367 186 fmod 1;
#X obj 319 256 +;
#X obj 315 155 / 128;
#X floatatom 406 230 5 0 0 0 - - -;
#X obj 370 47 inlet clock;
#X obj 124 382 rotateXYZ 0 0 0;
#X obj 373 249 * 0.1;
#X obj 315 176 fmod 1;
#X obj 124 329 translateXYZ;
#X obj 308 201 * 6;
#X obj 246 203 - 0.15;
#X obj 309 228 - 1.2;
#X obj 371 228 sin;
#X msg 370 121 8;
#X obj 366 165 / 8;
#X msg 409 128 8;
#X msg 366 104 32;
#X msg 414 154 4;
#X obj 498 202 * 6.28;
#X floatatom 536 102 5 0 0 0 - - -;
#X obj 503 358 + 0.015;
#X obj 496 145 / 8;
#X obj 505 321 * 0.01;
#X msg 330 95 64;
#X obj 502 223 sin;
#X obj 656 239 hsl 128 15 0 1 0 0 empty plateau-epaisseur plateau-epaisseur
10 8 0 12 -262144 -1 -1 0 1;
#X obj 624 91 hsl 128 15 0 1 0 0 empty plateau-amplitude plateau-amplitude
10 8 0 12 -262144 -1 -1 4443 1;
#X obj 230 375 hsl 128 15 0 1 0 0 empty barre-alpha barre-alpha 10
8 0 12 -262144 -1 -1 12700 1;
#X obj 624 175 pow 3;
#X obj 654 263 pow 3;
#X obj 627 197 * 1;
#X obj 657 286 * 0.3;
#X obj 124 414 colorRGB 1 1 0 0;
#X connect 0 0 4 0;
#X connect 1 0 24 2;
#X connect 2 0 24 3;
#X connect 3 0 21 1;
#X connect 4 0 24 0;
#X connect 5 0 4 3;
#X connect 7 0 6 0;
#X connect 8 0 0 0;
#X connect 9 0 10 0;
#X connect 10 0 24 3;
#X connect 11 0 12 0;
#X connect 12 0 38 0;
#X connect 13 0 34 0;
#X connect 14 0 18 0;
#X connect 14 1 30 0;
#X connect 15 0 28 0;
#X connect 16 0 15 0;
#X connect 17 0 9 0;
#X connect 18 0 23 0;
#X connect 19 0 22 1;
#X connect 20 0 14 0;
#X connect 20 0 37 0;
#X connect 21 0 48 0;
#X connect 22 0 17 1;
#X connect 23 0 25 0;
#X connect 24 0 21 0;
#X connect 25 0 27 0;
#X connect 27 0 17 0;
#X connect 28 0 22 0;
#X connect 29 0 18 1;
#X connect 30 0 16 0;
#X connect 31 0 30 1;
#X connect 32 0 18 1;
#X connect 33 0 30 1;
#X connect 34 0 40 0;
#X connect 36 0 7 3;
#X connect 37 0 13 0;
#X connect 38 0 36 0;
#X connect 39 0 18 1;
#X connect 40 0 11 0;
#X connect 41 0 45 0;
#X connect 42 0 44 0;
#X connect 43 0 48 4;
#X connect 44 0 46 0;
#X connect 45 0 47 0;
#X connect 46 0 22 1;
#X connect 47 0 38 1;
#X connect 48 0 7 0;
#X restore 243 230 pd plateau;
#X obj 220 59 gemreceive \$0-sceneHead 70;
#X obj 226 103 spigot;
#X obj 272 89 r barres-on;
#X connect 0 1 7 0;
#X connect 0 2 5 0;
#X connect 1 0 2 0;
#X connect 2 0 6 0;
#X connect 3 0 4 0;
#X connect 4 0 6 0;
#X connect 6 0 5 1;
#X connect 6 0 7 1;
#X connect 8 0 9 0;
#X connect 9 0 0 0;
#X connect 10 0 9 1;
#X restore 408 321 pd Barres;
#X obj 846 472 tgl 30 0 barres-on barres-on-rcv barres-on 32 15 0 12
-4034 -1 -1 0 1;
#N canvas 1 92 761 430 BougeBoule 0;
#X obj 166 403 s scnRot;
#X obj 167 383 pack f f f;
#X obj 257 264 loadbang;
#X obj 256 287 metro 5;
#X obj 316 260 bng 15 250 50 0 empty empty empty 17 7 0 10 -262144
-1 -1;
#X obj 256 307 t b b b;
#X msg 116 243 0;
#X obj 341 183 ndmetro 600;
#X obj 278 20 loadbang;
#X obj 353 76 r fromNet;
#X obj 353 101 route ck;
#X obj 369 134 unpack f f;
#X obj 142 98 sel 0;
#X obj 141 126 random 2001;
#X obj 144 150 - 1000;
#X obj 144 172 / 1000;
#X obj 208 130 sel 0;
#X obj 207 158 random 2001;
#X obj 210 182 - 1000;
#X obj 210 204 / 1000;
#X obj 266 141 sel 0;
#X obj 265 169 random 2001;
#X obj 268 193 - 1000;
#X obj 268 215 / 1000;
#X floatatom 168 209 5 0 0 0 - - -;
#X floatatom 317 227 5 0 0 0 - - -;
#X obj 365 232 bng 15 250 50 0 empty empty empty 17 7 0 10 -262144
-1 -1;
#X msg 274 47 nd 64 4;
#X floatatom 228 252 5 0 0 0 - - -;
#X obj 105 139 bng 15 250 50 0 empty empty empty 17 7 0 10 -262144
-1 -1;
#X obj 140 72 mod 8;
#X obj 192 336 rebond 3;
#X obj 142 310 rebond 1;
#X obj 264 115 mod 16;
#X obj 253 358 rebond 1;
#X floatatom 354 356 5 0 0 0 - - -;
#X obj 73 92 r bouge-x;
#X obj 639 364 r bouge-y;
#X obj 444 267 r bouge-z;
#X msg 217 66 2;
#X obj 207 104 mod 4;
#X obj 462 292 hsl 128 15 0 1 0 0 empty empty empty -2 -8 0 10 -262144
-1 -1 0 1;
#X floatatom 459 389 5 0 0 0 - - -;
#X obj 564 56 r bouge-vitessez;
#X obj 566 102 + 0.5;
#X obj 567 123 i;
#X obj 494 36 hsl 128 15 0 1 0 0 empty empty empty -2 -8 0 10 -262144
-1 -1 0 1;
#X obj 571 146 change;
#X msg 534 196 4;
#X obj 564 81 * 4;
#X msg 559 199 8;
#X msg 588 198 16;
#X msg 613 201 32;
#X msg 644 199 64;
#X msg 677 196 128;
#X obj 568 165 sel 0 1 2 3 4 5;
#X obj 602 237 f;
#X obj 436 319 pow 2;
#X floatatom 600 261 5 0 0 0 - - -;
#X obj 53 134 pow 2;
#X obj 44 49 hsl 128 15 0 1 0 0 empty empty empty -2 -8 0 10 -262144
-1 -1 0 1;
#X obj 60 157 * 180;
#X obj 596 364 pow 2;
#X obj 597 341 hsl 128 15 0 1 0 0 empty empty empty -2 -8 0 10 -262144
-1 -1 0 1;
#X obj 603 387 * 180;
#X obj 443 342 * 180;
#X obj 267 238 *;
#X obj 199 240 *;
#X obj 143 195 *;
#X connect 1 0 0 0;
#X connect 2 0 3 0;
#X connect 3 0 5 0;
#X connect 4 0 3 0;
#X connect 5 0 32 1;
#X connect 5 1 31 1;
#X connect 5 2 34 1;
#X connect 6 0 31 0;
#X connect 6 0 32 0;
#X connect 6 0 34 0;
#X connect 7 0 30 0;
#X connect 7 0 33 0;
#X connect 7 0 40 0;
#X connect 8 0 27 0;
#X connect 9 0 10 0;
#X connect 10 0 7 0;
#X connect 10 0 11 0;
#X connect 12 0 13 0;
#X connect 12 0 29 0;
#X connect 13 0 14 0;
#X connect 14 0 15 0;
#X connect 15 0 68 0;
#X connect 16 0 17 0;
#X connect 17 0 18 0;
#X connect 18 0 19 0;
#X connect 19 0 67 0;
#X connect 20 0 21 0;
#X connect 20 0 26 0;
#X connect 21 0 22 0;
#X connect 22 0 23 0;
#X connect 23 0 66 0;
#X connect 24 0 68 1;
#X connect 25 0 66 1;
#X connect 27 0 7 0;
#X connect 28 0 67 1;
#X connect 30 0 12 0;
#X connect 31 0 1 1;
#X connect 32 0 1 0;
#X connect 33 0 20 0;
#X connect 34 0 1 2;
#X connect 36 0 59 0;
#X connect 37 0 62 0;
#X connect 38 0 57 0;
#X connect 39 0 40 1;
#X connect 40 0 16 0;
#X connect 41 0 57 0;
#X connect 43 0 49 0;
#X connect 44 0 45 0;
#X connect 45 0 47 0;
#X connect 46 0 49 0;
#X connect 47 0 55 0;
#X connect 48 0 56 0;
#X connect 49 0 44 0;
#X connect 50 0 56 0;
#X connect 51 0 56 0;
#X connect 52 0 56 0;
#X connect 53 0 56 0;
#X connect 54 0 56 0;
#X connect 55 0 48 0;
#X connect 55 1 50 0;
#X connect 55 2 51 0;
#X connect 55 3 52 0;
#X connect 55 4 53 0;
#X connect 55 5 54 0;
#X connect 56 0 33 1;
#X connect 56 0 58 0;
#X connect 57 0 65 0;
#X connect 59 0 61 0;
#X connect 60 0 59 0;
#X connect 61 0 68 1;
#X connect 62 0 64 0;
#X connect 63 0 62 0;
#X connect 64 0 67 1;
#X connect 65 0 42 0;
#X connect 65 0 66 1;
#X connect 66 0 34 0;
#X connect 66 0 35 0;
#X connect 67 0 31 0;
#X connect 68 0 32 0;
#X restore 392 345 pd BougeBoule;
#X connect 1 0 2 0;
#X connect 2 0 1 0;
#X connect 4 0 6 0;
#X connect 5 0 4 0;
#X connect 6 0 38 0;
#X connect 7 0 9 0;
#X connect 8 0 38 0;
#X connect 19 0 21 0;
#X connect 19 1 21 1;
#X connect 19 2 21 2;
#X connect 20 0 22 0;
#X connect 20 1 22 1;
#X connect 20 2 22 2;
#X connect 27 0 28 0;
#X connect 32 0 33 0;
#X connect 32 0 34 0;
#X connect 34 0 36 0;
#X connect 35 0 53 0;
#X connect 39 0 40 0;
#X connect 43 0 7 0;
#X connect 44 0 38 0;
#X connect 46 0 47 0;
#X connect 46 1 48 0;
#X connect 49 0 50 0;
#X connect 50 0 32 0;
#X connect 52 0 32 0;
#X connect 53 0 32 0;
#X connect 57 0 56 0;
#X connect 71 0 65 0;
#X connect 72 0 64 0;
#X connect 80 0 79 0;
