#N canvas 251 138 561 651 10;
#X floatatom 345 451 5 0 0 0 - - -;
#X obj 197 579 separator;
#X msg 305 261 draw line;
#X obj 281 232 loadbang;
#X obj 231 604 sphere 2 8;
#X obj 194 443 colorRGB 0.5 0.5 1 0.9;
#X obj 78 32 separator;
#X obj 91 415 cylinder 1 20;
#X floatatom 197 232 5 0 0 0 - - -;
#X floatatom 147 229 5 0 0 0 - - -;
#X floatatom 167 221 5 0 0 0 - - -;
#X floatatom 159 178 5 0 0 0 - - -;
#X floatatom 89 161 5 0 0 0 - - -;
#X floatatom 116 168 5 0 0 0 - - -;
#X floatatom 125 275 5 0 0 0 - - -;
#X floatatom 183 275 5 0 0 0 - - -;
#X msg 221 258 draw line;
#X floatatom 306 374 5 1 100 0 - - -;
#X obj 84 196 translateXYZ 0 -2.36 0;
#X obj 89 364 GEMglLineWidth 2;
#X obj 98 254 rotateXYZ 90 0 0;
#X floatatom 369 616 5 0 0 0 - - -;
#X obj 367 574 hradio 15 1 0 8 empty empty empty 0 -8 0 10 -262144
-1 -1 0;
#X obj 368 595 + 2;
#X obj 196 495 t a a a a a a;
#X floatatom 261 523 5 0 0 0 - - -;
#X floatatom 298 532 5 0 0 0 - - -;
#X floatatom 225 525 5 0 0 0 - - -;
#X obj 307 104 separator;
#X obj 209 75 t a a a;
#X obj 82 132 colorRGB 1 1 0 0.9;
#X obj 205 4 inlet;
#X obj 303 127 rotateXYZ 90 0 0;
#X obj 196 554 rotateXYZ;
#X obj 197 378 GEMglLineWidth 5;
#N canvas 35 469 539 297 vibreScale 0;
#X obj 101 194 scaleXYZ 1 1 1;
#X obj 228 56 metro 10;
#X obj 100 27 inlet;
#X obj 94 259 outlet;
#X obj 226 84 random 2000;
#X obj 227 105 - 1000;
#X obj 228 130 / 1000;
#X obj 232 164 * 0.1;
#X obj 232 237 line;
#X obj 237 35 tgl 15 0 empty empty empty 17 7 0 10 -262144 -1 -1 1
1;
#X obj 239 13 loadbang;
#X floatatom 328 120 5 0 0 0 - - -;
#X obj 144 162 f;
#X floatatom 293 172 5 0 0 0 - - -;
#X obj 327 143 / 1000;
#X msg 330 91 3;
#X obj 324 65 loadbang;
#X obj 347 244 outlet;
#X obj 320 12 r ampoule-vibscale-snd;
#X obj 343 177 r ampoule-vibscale-time-snd;
#X obj 231 214 pack f 10;
#X floatatom 420 87 5 0 0 0 - - -;
#X floatatom 273 192 5 0 0 0 - - -;
#X obj 232 192 + 0.85;
#X connect 0 0 3 0;
#X connect 1 0 4 0;
#X connect 2 0 0 0;
#X connect 4 0 5 0;
#X connect 5 0 6 0;
#X connect 6 0 7 0;
#X connect 6 0 17 0;
#X connect 7 0 23 0;
#X connect 8 0 12 0;
#X connect 9 0 1 0;
#X connect 10 0 9 0;
#X connect 11 0 14 0;
#X connect 12 0 0 1;
#X connect 12 0 0 2;
#X connect 12 0 0 3;
#X connect 13 0 20 1;
#X connect 14 0 7 1;
#X connect 15 0 11 0;
#X connect 16 0 15 0;
#X connect 18 0 7 1;
#X connect 18 0 21 0;
#X connect 19 0 20 1;
#X connect 20 0 8 0;
#X connect 22 0 23 1;
#X connect 23 0 20 0;
#X restore 208 50 pd vibreScale;
#X obj 302 476 r ampoule-rx-snd;
#X obj 307 498 r ampoule-ry-snd;
#X obj 307 519 r ampoule-rz-snd;
#X obj 301 342 r ampoule-lw-snd;
#X obj 184 335 r ampoule-clw-snd;
#X obj 372 374 r ampoule-alpha-snd;
#X obj 165 403 r ampoule-r-snd;
#X obj 261 402 r ampoule-v-snd;
#X obj 291 418 r ampoule-b-snd;
#X obj 49 108 r ampoule-cr-snd;
#X obj 91 84 r ampoule-cv-snd;
#X obj 159 103 r ampoule-cb-snd;
#X obj 312 549 r ampoule-face-snd;
#X obj 301 155 accumrotate;
#X floatatom 430 96 5 0 0 0 - - -;
#X obj 399 79 r prehead;
#X obj 401 101 b;
#X obj 401 129 f;
#X floatatom 465 137 5 0 0 0 - - -;
#X obj 436 170 f;
#X floatatom 499 185 5 0 0 0 - - -;
#X obj 470 218 f;
#X obj 403 37 r ampoule-dx-snd;
#X obj 441 115 r ampoule-dy-snd;
#X obj 467 163 r ampoule-dz-snd;
#X obj 202 131 r ampoule-ca-snd;
#X obj 548 223 tgl 15 0 empty empty empty 0 -6 0 8 -262144 -1 -1 0
1;
#X msg 548 243 rescale \$1;
#X msg 464 303 smooth \$1;
#X obj 548 283 tgl 15 0 empty empty empty 0 -6 0 8 -262144 -1 -1 0
1;
#X msg 548 303 revert \$1;
#X msg 461 352 material \$1;
#X msg 548 353 texture \$1;
#X msg 550 405 group \$1;
#X floatatom 464 285 5 0 1 0 - - -;
#X obj 550 387 hradio 15 1 0 3 empty empty empty 0 -6 0 8 -262144 -1
-1 0;
#X obj 460 333 tgl 15 0 empty empty empty 0 -6 0 8 -262144 -1 -1 0
1;
#X obj 548 333 hradio 15 1 0 3 empty empty empty 0 -6 0 8 -262144 -1
-1 0;
#X obj 497 429 t a;
#X obj 55 518 model culot2.obj;
#X floatatom 230 308 5 1 100 0 - - -;
#X obj 83 304 scaleXYZ 1 1 0.63;
#X obj 0 280 rotateXYZ 0 90 0;
#X floatatom 24 315 5 0 0 0 - - -;
#X floatatom 41 207 5 0 0 0 - - -;
#X obj 2 343 scaleXYZ 1.13 0.8 1.13;
#X obj 288 59 scaleXYZ 1 1 1;
#X obj 308 180 accumrotate;
#X obj 319 205 accumrotate;
#X obj 1 232 translateXYZ 0 -2.6 0;
#X obj 212 152 r ampoule-master;
#X obj 201 174 m 1;
#X obj 387 410 r ampoule-master;
#X obj 376 432 m 1;
#X obj 217 30 spigot 1;
#X obj 279 -6 r ampoule-on;
#X obj 39 451 spigot 1;
#X obj 99 453 r douille-on;
#X connect 0 0 5 4;
#X connect 1 0 4 0;
#X connect 2 0 4 0;
#X connect 3 0 16 0;
#X connect 3 0 2 0;
#X connect 5 0 24 0;
#X connect 6 0 30 0;
#X connect 8 0 20 3;
#X connect 9 0 20 1;
#X connect 10 0 20 2;
#X connect 11 0 18 3;
#X connect 12 0 18 1;
#X connect 13 0 18 2;
#X connect 14 0 77 1;
#X connect 14 0 77 2;
#X connect 14 0 77 3;
#X connect 15 0 77 3;
#X connect 16 0 7 0;
#X connect 17 0 34 1;
#X connect 18 0 20 0;
#X connect 19 0 7 0;
#X connect 20 0 77 0;
#X connect 21 0 4 2;
#X connect 22 0 23 0;
#X connect 23 0 21 0;
#X connect 24 0 33 0;
#X connect 24 1 33 0;
#X connect 24 2 33 0;
#X connect 24 3 33 0;
#X connect 24 4 33 0;
#X connect 24 5 33 0;
#X connect 25 0 33 2;
#X connect 26 0 33 3;
#X connect 27 0 33 1;
#X connect 28 0 32 0;
#X connect 29 0 6 0;
#X connect 29 1 28 0;
#X connect 30 0 85 0;
#X connect 31 0 90 0;
#X connect 32 0 49 0;
#X connect 33 0 1 0;
#X connect 34 0 5 0;
#X connect 35 0 29 0;
#X connect 36 0 33 1;
#X connect 37 0 33 2;
#X connect 38 0 33 3;
#X connect 39 0 34 1;
#X connect 40 0 19 1;
#X connect 41 0 89 0;
#X connect 42 0 5 1;
#X connect 43 0 5 2;
#X connect 44 0 5 3;
#X connect 45 0 30 1;
#X connect 46 0 30 2;
#X connect 47 0 30 3;
#X connect 48 0 4 2;
#X connect 49 0 83 0;
#X connect 50 0 53 1;
#X connect 51 0 52 0;
#X connect 52 0 53 0;
#X connect 52 0 55 0;
#X connect 52 0 57 0;
#X connect 53 0 49 1;
#X connect 54 0 55 1;
#X connect 55 0 83 2;
#X connect 56 0 57 1;
#X connect 57 0 84 3;
#X connect 58 0 53 1;
#X connect 59 0 55 1;
#X connect 60 0 57 1;
#X connect 61 0 87 0;
#X connect 62 0 63 0;
#X connect 63 0 74 0;
#X connect 64 0 74 0;
#X connect 65 0 66 0;
#X connect 66 0 74 0;
#X connect 67 0 74 0;
#X connect 68 0 74 0;
#X connect 69 0 74 0;
#X connect 70 0 64 0;
#X connect 71 0 69 0;
#X connect 72 0 67 0;
#X connect 73 0 68 0;
#X connect 74 0 75 0;
#X connect 76 0 19 1;
#X connect 78 0 81 0;
#X connect 79 0 81 1;
#X connect 79 0 81 3;
#X connect 80 0 85 2;
#X connect 81 0 92 0;
#X connect 83 0 84 0;
#X connect 84 0 34 0;
#X connect 85 0 78 0;
#X connect 86 0 87 1;
#X connect 87 0 30 4;
#X connect 88 0 89 1;
#X connect 89 0 5 4;
#X connect 90 0 35 0;
#X connect 91 0 90 1;
#X connect 92 0 75 0;
#X connect 93 0 92 1;
