#N canvas 782 226 450 300 10;
#X obj 130 241 outlet;
#X obj 130 167 +;
#X obj 130 208 mavg 1000;
#X obj 130 119 * 0.001;
#X obj 129 51 random 20001;
#X obj 130 74 - 10000;
#X obj 130 94 / 10000;
#X obj 235 85 loadbang;
#X obj 128 27 r bougeMetro;
#X obj 294 85 r bougeInit;
#X obj 235 113 f \$1;
#X obj 238 139 hsl 128 15 0 1 0 0 empty empty empty -2 -8 0 10 -262144
-1 -1 0 1;
#X floatatom 253 163 5 0 0 0 - - -;
#X obj 299 183 loadbang;
#X obj 299 211 f \$2;
#X obj 299 234 sel 0;
#X obj 158 166 clip 0 1;
#X connect 1 0 2 0;
#X connect 1 0 16 0;
#X connect 2 0 0 0;
#X connect 3 0 1 0;
#X connect 4 0 5 0;
#X connect 5 0 6 0;
#X connect 6 0 3 0;
#X connect 7 0 10 0;
#X connect 8 0 4 0;
#X connect 9 0 10 0;
#X connect 10 0 16 0;
#X connect 11 0 12 0;
#X connect 11 0 16 0;
#X connect 13 0 14 0;
#X connect 14 0 15 0;
#X connect 15 1 3 1;
#X connect 16 0 1 1;
