#N canvas 565 376 450 370 10;
#X obj 83 21 inlet;
#X obj 83 60 separator;
#X obj 83 92 translate 0 1 0 0;
#X obj 234 70 - 2.5;
#X obj 233 7 loadbang;
#X obj 231 28 bng 15 250 50 0 empty empty empty 17 7 0 10 -262144 -1
-1;
#X obj 252 272 pix_texture;
#X obj 252 250 pix_image img/BoutonNoir0.png;
#X floatatom 162 59 5 0 0 0 - - -;
#X obj 234 49 f \$2;
#X obj 323 35 r panneau\$1-rcv;
#X obj 323 58 route t\$2;
#X msg 262 228 open img/BoutonNoir\$1.png;
#X obj 323 114 change;
#X obj 252 302 rectangle 0.4 0.4;
#X obj 288 67 tgl 15 0 empty empty empty 17 7 0 10 -262144 -1 -1 0
1;
#X obj 234 91 * 1.3;
#X obj 81 120 t a a a;
#X obj 121 143 colorRGB 1 1 1 1;
#X obj 102 194 colorRGB 0 0 0 1;
#X obj 122 167 circle 0.4;
#X obj 101 223 circle 0.32;
#X obj 87 297 circle 0.2;
#X obj 90 276 colorRGB 1 1 0 1;
#X obj 88 254 spigot;
#X obj 323 83 route float;
#X connect 0 0 1 0;
#X connect 1 0 2 0;
#X connect 2 0 17 0;
#X connect 3 0 16 0;
#X connect 4 0 5 0;
#X connect 5 0 9 0;
#X connect 6 0 14 0;
#X connect 7 0 6 0;
#X connect 8 0 2 1;
#X connect 9 0 3 0;
#X connect 10 0 11 0;
#X connect 11 0 25 0;
#X connect 12 0 7 0;
#X connect 13 0 24 1;
#X connect 15 0 13 0;
#X connect 16 0 2 1;
#X connect 17 0 24 0;
#X connect 17 1 19 0;
#X connect 17 2 18 0;
#X connect 18 0 20 0;
#X connect 19 0 21 0;
#X connect 23 0 22 0;
#X connect 24 0 23 0;
#X connect 25 0 13 0;
