#N canvas 115 265 865 510 10;
#X obj 58 35 r fromNet;
#X obj 58 59 route ctl;
#X obj 59 107 route b1 b2 b3 b4 b5;
#X obj 246 163 route t1 t2 t3 t4 tREC;
#X obj 57 81 route \$1;
#X obj 8 372 outlet;
#X obj 213 43 route b1 b2 b3 b4 b5;
#X floatatom 212 69 5 0 0 0 - - -;
#X floatatom 248 72 5 0 0 0 - - -;
#X floatatom 288 70 5 0 0 0 - - -;
#X floatatom 324 73 5 0 0 0 - - -;
#X floatatom 363 73 5 0 0 0 - - -;
#X obj 208 15 spigot;
#X obj 261 11 tgl 15 0 empty empty empty 17 7 0 10 -262144 -1 -1 0
1;
#X obj 459 126 bng 15 250 50 0 empty empty empty 17 7 0 10 -4034 -1
-1;
#X obj 642 124 bng 15 250 50 0 empty empty empty 17 7 0 10 -258113
-1 -1;
#X obj 456 34 hradio 15 1 0 8 empty empty empty 0 -8 0 10 -4034 -1
-1 0;
#X obj 578 34 hradio 15 1 0 8 empty empty empty 0 -8 0 10 -258113 -1
-1 0;
#X msg 456 52 _all_ load \$1;
#X msg 578 53 _all_ store \$1;
#X obj 480 124 del 2000;
#X obj 535 124 apmaster ctl\$1;
#X obj 480 103 loadbang;
#X obj 457 77 s ctl\$1-pattern-snd;
#X obj 445 335 demux;
#X obj 7 349 f;
#X obj 37 326 outlet;
#X obj 36 303 f;
#X obj 62 283 outlet;
#X obj 61 260 f;
#X obj 91 237 outlet;
#X obj 90 214 f;
#X obj 125 189 outlet;
#X obj 124 166 f;
#X obj 32 350 apf ctl\$1 b1;
#X obj 61 304 apf ctl\$1 b2;
#X obj 86 261 apf ctl\$1 b3;
#X obj 115 215 apf ctl\$1 b4;
#X obj 149 167 apf ctl\$1 b5;
#X obj 360 249 sel 1;
#X msg 360 270 0;
#X obj 400 249 sel 1;
#X obj 436 250 sel 1;
#X obj 476 250 sel 1;
#X msg 400 270 1;
#X msg 436 271 2;
#X msg 476 271 3;
#X obj 415 305 f;
#X msg 550 381 _all_ store \$1;
#X obj 440 481 s ctl\$1-pattern-snd;
#X obj 525 320 b;
#X obj 526 344 del 5000;
#X obj 444 359 t f f;
#X msg 541 418 _all_ store 15 \, _all_ A 15 \, _all_ B \$1 \, _all_
pos 0;
#X msg 434 390 0 \, 1 1000;
#X obj 434 413 line3;
#X floatatom 400 436 5 0 0 0 - - -;
#X msg 440 438 _all_ pos \$1;
#X obj 459 146 apmasterfile ctl\$1 ap/ctl\$2;
#X connect 0 0 1 0;
#X connect 1 0 4 0;
#X connect 2 0 25 0;
#X connect 2 1 27 0;
#X connect 2 2 29 0;
#X connect 2 3 31 0;
#X connect 2 4 33 0;
#X connect 2 5 3 0;
#X connect 3 0 39 0;
#X connect 3 1 41 0;
#X connect 3 2 42 0;
#X connect 3 3 43 0;
#X connect 3 4 24 1;
#X connect 4 0 2 0;
#X connect 4 0 12 0;
#X connect 6 0 7 0;
#X connect 6 1 8 0;
#X connect 6 2 9 0;
#X connect 6 3 10 0;
#X connect 6 4 11 0;
#X connect 12 0 6 0;
#X connect 13 0 12 1;
#X connect 14 0 58 0;
#X connect 15 0 58 1;
#X connect 16 0 18 0;
#X connect 17 0 19 0;
#X connect 18 0 23 0;
#X connect 19 0 23 0;
#X connect 20 0 14 0;
#X connect 22 0 20 0;
#X connect 24 0 52 0;
#X connect 24 1 48 0;
#X connect 24 1 50 0;
#X connect 25 0 5 0;
#X connect 25 0 34 0;
#X connect 27 0 26 0;
#X connect 27 0 35 0;
#X connect 29 0 28 0;
#X connect 29 0 36 0;
#X connect 31 0 30 0;
#X connect 31 0 37 0;
#X connect 33 0 32 0;
#X connect 33 0 38 0;
#X connect 34 0 25 0;
#X connect 35 0 27 0;
#X connect 36 0 29 0;
#X connect 37 0 31 0;
#X connect 38 0 33 0;
#X connect 39 0 40 0;
#X connect 40 0 47 0;
#X connect 41 0 44 0;
#X connect 42 0 45 0;
#X connect 43 0 46 0;
#X connect 44 0 47 0;
#X connect 45 0 47 0;
#X connect 46 0 47 0;
#X connect 47 0 24 0;
#X connect 48 0 49 0;
#X connect 50 0 51 0;
#X connect 51 0 15 0;
#X connect 52 0 54 0;
#X connect 52 1 53 0;
#X connect 53 0 49 0;
#X connect 54 0 55 0;
#X connect 55 0 57 0;
#X connect 55 0 56 0;
#X connect 57 0 49 0;
