#N canvas 231 90 796 685 10;
#X obj 267 16 r \$1-rcv;
#X obj 197 175 separator;
#X msg 138 582 draw line;
#X obj 210 225 rotateXYZ;
#X obj 290 149 * 100;
#X obj 394 138 unpack f f;
#X floatatom 365 171 5 0 0 0 - - -;
#X obj 417 256 line;
#X obj 417 168 sel 1;
#X obj 209 427 t a a a a a a;
#X floatatom 273 477 5 0 0 0 - - -;
#X floatatom 321 478 5 0 0 0 - - -;
#X obj 416 328 + 0.3;
#X obj 417 281 pow 2;
#X floatatom 294 198 5 0 0 0 - - -;
#X obj 139 562 loadbang;
#X floatatom 252 154 5 0 0 0 - - -;
#X obj 201 7 r fromNet;
#X obj 201 32 route ck;
#X obj 267 38 route env step nd;
#X obj 201 56 unpack f f;
#X floatatom 214 150 5 0 0 0 - - -;
#X obj 346 62 unpack f f;
#X floatatom 387 102 5 0 0 0 - - -;
#X floatatom 466 104 5 0 0 0 - - -;
#X obj 331 109 /;
#X obj 417 194 f;
#X msg 413 233 1 \, 0 \$1;
#X obj 417 349 *;
#X obj 463 256 r \$1-rcv;
#X obj 416 304 * 2;
#X obj 415 214 * 1.5;
#X obj 465 277 route vol fx;
#X obj 356 220 - 1;
#X floatatom 299 171 5 0 0 0 - - -;
#X obj 351 249 * 10;
#X obj 206 538 separator;
#X obj 208 508 rotateXYZ 5 10 4;
#X obj 206 560 colorRGB 1 1 0 0.9;
#X floatatom 237 479 5 0 0 0 - - -;
#X obj 205 608 sphere 0.2 4;
#X obj 206 584 GEMglLineWidth 5;
#X obj 465 298 pow 2;
#X obj 465 320 * 1.5;
#X obj 123 93 t a a a;
#X obj 527 234 apmaster \$1;
#X obj 518 121 apmasterfile \$1 ap/\$1;
#X obj 517 102 bng 15 250 50 0 empty empty empty 17 7 0 10 -4034 -1
-1;
#X obj 640 101 bng 15 250 50 0 empty empty empty 17 7 0 10 -258113
-1 -1;
#X obj 527 146 apf \$1 decx \$0-decx;
#X obj 536 362 nbx 5 14 -1e+37 1e+37 0 0 \$0-decx-snd \$0-decx-rcv
decx 0 -8 0 10 -260097 -1 -1 2 256;
#X obj 537 576 nbx 5 14 2 100 0 0 \$0-nbface-snd \$0-nbface-rcv nbface
0 -8 0 10 -4032 -1 -1 2 256;
#X obj 536 391 nbx 5 14 -1e+37 1e+37 0 0 \$0-decy-snd \$0-decy-rcv
decy 0 -8 0 10 -260097 -1 -1 0 256;
#X obj 526 164 apf \$1 decy \$0-decy;
#X obj 529 186 apf \$1 nbface \$0-nbface;
#X obj 539 416 colsel \$1 col;
#X obj 529 210 apf \$1 lw \$0-lw;
#X obj 537 544 nbx 5 14 1 100 0 0 \$0-lw-snd \$0-lw-rcv lineWidth 0
-8 0 10 -257985 -1 -1 17 256;
#X obj 518 26 hradio 15 1 0 8 empty empty empty 0 -8 0 10 -4034 -1
-1 0;
#X obj 640 26 hradio 15 1 0 8 empty empty empty 0 -8 0 10 -258113 -1
-1 0;
#X msg 518 44 _all_ load \$1;
#X msg 640 45 _all_ store \$1;
#X obj 519 69 s \$1-pattern-snd;
#X floatatom 536 302 5 0 0 0 - - -;
#X msg 613 317 _all_ load \$1;
#X obj 614 342 s \$1-pattern-snd;
#X obj 538 100 loadbang;
#X obj 613 290 * 6.99;
#X obj 414 387 * 0.5;
#X obj 445 362 t b f;
#X obj 507 330 r scaleRythmic;
#N canvas 1 112 492 554 tab 1;
#X obj 175 35 r \$1-rcv;
#X obj 175 57 route tab nd step;
#X obj 258 84 unpack f f;
#X floatatom 258 111 5 0 0 0 - - -;
#X floatatom 138 103 5 0 0 0 - - -;
#X obj 185 84 unpack f f;
#X floatatom 220 112 5 0 0 0 - - -;
#X obj 68 23 inlet;
#X obj 75 248 t a a;
#X floatatom 119 119 5 0 0 0 - - -;
#X obj 75 91 separator;
#X obj 334 280 * 2.2;
#X obj 334 259 - 4.5;
#X obj 267 312 translate 0 1 0 0;
#X obj 298 376 unpack f f f;
#X obj 267 288 separator;
#X obj 73 281 t a;
#X obj 268 415 colorRGB 1 1 1 1;
#X obj 335 236 - 1;
#X obj 268 451 rectangle 1.1 1.1;
#X floatatom 215 150 5 0 0 0 - - -;
#X obj 170 302 rtabitem \$1 9;
#X floatatom 223 249 5 0 0 0 - - -;
#X obj 76 224 scaleXYZ 0.05 0.05 0.05;
#X obj 268 336 translate 0.01 0 0 1;
#X obj 86 185 translate -2.54 0 0 1;
#X floatatom 249 207 5 0 0 0 - - -;
#X obj 257 159 nbx 5 14 -1e+37 1e+37 0 1 empty empty empty 0 -8 0 10
-262144 -1 -1 26 256;
#X obj 256 186 / 1000;
#X obj 381 378 r panneaux-alpha;
#X obj 50 501 rtabitem \$1 0;
#X obj 60 478 rtabitem \$1 1;
#X obj 77 457 rtabitem \$1 2;
#X obj 88 433 rtabitem \$1 3;
#X obj 108 415 rtabitem \$1 4;
#X obj 118 392 rtabitem \$1 5;
#X obj 135 371 rtabitem \$1 6;
#X obj 145 348 rtabitem \$1 7;
#X obj 159 327 rtabitem \$1 8;
#X obj 74 156 translate -2.1 0 1 0;
#X connect 0 0 1 0;
#X connect 1 0 4 0;
#X connect 1 1 5 0;
#X connect 1 2 2 0;
#X connect 2 0 3 0;
#X connect 2 0 18 0;
#X connect 5 1 6 0;
#X connect 7 0 10 0;
#X connect 8 0 16 0;
#X connect 8 1 15 0;
#X connect 9 0 39 1;
#X connect 10 0 39 0;
#X connect 11 0 13 1;
#X connect 12 0 11 0;
#X connect 13 0 24 0;
#X connect 14 0 17 1;
#X connect 14 1 17 2;
#X connect 14 2 17 3;
#X connect 15 0 13 0;
#X connect 16 0 21 0;
#X connect 16 0 30 0;
#X connect 16 0 31 0;
#X connect 16 0 32 0;
#X connect 16 0 33 0;
#X connect 16 0 34 0;
#X connect 16 0 35 0;
#X connect 16 0 36 0;
#X connect 16 0 37 0;
#X connect 16 0 38 0;
#X connect 17 0 19 0;
#X connect 18 0 12 0;
#X connect 20 0 25 1;
#X connect 23 0 8 0;
#X connect 24 0 17 0;
#X connect 25 0 23 0;
#X connect 26 0 23 1;
#X connect 26 0 23 2;
#X connect 26 0 23 3;
#X connect 27 0 28 0;
#X connect 28 0 26 0;
#X connect 29 0 17 4;
#X connect 39 0 25 0;
#X restore 196 97 pd tab;
#N canvas 1 82 543 485 rot 0;
#X obj 178 279 accumrotate;
#X floatatom 298 120 5 0 0 0 - - -;
#X obj 267 103 r prehead;
#X obj 269 125 b;
#X floatatom 333 161 5 0 0 0 - - -;
#X floatatom 367 209 5 0 0 0 - - -;
#X obj 271 61 r blob-dx-snd;
#X obj 309 139 r blob-dy-snd;
#X obj 335 187 r blob-dz-snd;
#X obj 176 306 accumrotate;
#X obj 181 341 accumrotate;
#X obj 174 211 inlet;
#X obj 182 380 outlet;
#X obj 338 242 0.21;
#X obj 304 194 1.62;
#X obj 269 153 0.67;
#X connect 0 0 9 0;
#X connect 1 0 15 1;
#X connect 2 0 3 0;
#X connect 3 0 13 0;
#X connect 3 0 14 0;
#X connect 3 0 15 0;
#X connect 4 0 14 1;
#X connect 5 0 13 1;
#X connect 6 0 15 1;
#X connect 7 0 14 1;
#X connect 8 0 13 1;
#X connect 9 0 10 0;
#X connect 10 0 12 0;
#X connect 11 0 0 0;
#X connect 13 0 10 3;
#X connect 14 0 9 2;
#X connect 15 0 0 1;
#X restore 241 318 pd rot;
#X obj 54 383 ampoule;
#X obj 127 31 instru \$1;
#X obj 165 136 spigot 1;
#X obj 216 115 r instrus-on;
#X connect 0 0 19 0;
#X connect 1 0 3 0;
#X connect 2 0 40 0;
#X connect 3 0 72 0;
#X connect 4 0 3 2;
#X connect 4 0 3 3;
#X connect 4 0 3 1;
#X connect 5 0 6 0;
#X connect 5 0 33 0;
#X connect 5 1 8 0;
#X connect 7 0 13 0;
#X connect 8 0 26 0;
#X connect 9 0 37 0;
#X connect 9 1 37 0;
#X connect 9 2 37 0;
#X connect 9 3 37 0;
#X connect 9 4 37 0;
#X connect 9 5 36 0;
#X connect 10 0 37 2;
#X connect 11 0 37 3;
#X connect 12 0 28 0;
#X connect 13 0 30 0;
#X connect 14 0 3 3;
#X connect 15 0 2 0;
#X connect 16 0 3 1;
#X connect 17 0 18 0;
#X connect 18 0 20 0;
#X connect 19 1 5 0;
#X connect 19 2 22 0;
#X connect 20 1 25 0;
#X connect 22 0 25 1;
#X connect 22 1 24 0;
#X connect 25 0 21 0;
#X connect 25 0 26 1;
#X connect 26 0 31 0;
#X connect 27 0 7 0;
#X connect 28 0 68 0;
#X connect 29 0 32 0;
#X connect 30 0 12 0;
#X connect 31 0 27 0;
#X connect 32 0 42 0;
#X connect 32 1 63 0;
#X connect 32 1 67 0;
#X connect 34 0 3 2;
#X connect 35 0 3 2;
#X connect 36 0 38 0;
#X connect 37 0 36 0;
#X connect 38 0 41 0;
#X connect 39 0 37 1;
#X connect 41 0 40 0;
#X connect 42 0 43 0;
#X connect 43 0 28 1;
#X connect 44 0 73 0;
#X connect 44 2 75 0;
#X connect 47 0 46 0;
#X connect 48 0 46 1;
#X connect 50 0 37 1;
#X connect 51 0 40 2;
#X connect 52 0 37 2;
#X connect 55 0 38 1;
#X connect 55 1 38 2;
#X connect 55 2 38 3;
#X connect 55 3 38 4;
#X connect 57 0 41 1;
#X connect 58 0 60 0;
#X connect 59 0 61 0;
#X connect 60 0 62 0;
#X connect 61 0 62 0;
#X connect 64 0 65 0;
#X connect 66 0 47 0;
#X connect 67 0 64 0;
#X connect 68 0 40 1;
#X connect 69 0 68 0;
#X connect 69 1 68 1;
#X connect 70 0 69 0;
#X connect 72 0 9 0;
#X connect 74 0 44 0;
#X connect 74 1 71 0;
#X connect 75 0 1 0;
#X connect 76 0 75 1;
