#N canvas 150 119 679 656 10;
#X obj 14 10 r fromNet;
#X obj 13 29 route \$1;
#X obj 13 51 s \$1-rcv;
#X obj 93 13 r \$1-rcv;
#X obj 93 35 route panneau;
#X floatatom 93 64 5 0 0 0 - - -;
#X obj 209 34 iem_r;
#X msg 209 12 set panneau\$1-rcv;
#X obj 209 60 route instru;
#X msg 209 103 1;
#X msg 242 103 0;
#X obj 209 128 change;
#X obj 209 153 tgl 15 0 empty empty empty 17 7 0 10 -262144 -1 -1 1
1;
#X obj 209 82 route \$1;
#X obj 75 151 r instrusHead;
#X obj 75 174 separator;
#X obj 75 198 spigot;
#X obj 164 200 * 60;
#X obj 75 222 rotate 0 0 0 1;
#X obj 77 310 rotateXYZ 90 180 0;
#X floatatom 207 268 5 0 0 0 - - -;
#X floatatom 200 232 5 0 0 0 - - -;
#X obj 75 253 translate 4 0 1 0;
#X obj 79 490 outlet head;
#X obj 276 96 r \$1-rcv;
#X obj 276 118 route mute;
#X obj 236 151 t b f;
#X obj 306 149 tgl 15 0 empty empty empty 17 7 0 10 -262144 -1 -1 0
1;
#X obj 68 455 rotateXYZ 0 0 0;
#X floatatom 105 366 5 0 0 0 - - -;
#X floatatom 145 366 5 0 0 0 - - -;
#X floatatom 200 365 5 0 0 0 - - -;
#X obj 255 337 t f f;
#X obj 255 366 cos;
#X obj 291 364 sin;
#X floatatom 336 311 5 0 0 0 - - -;
#X floatatom 366 364 5 0 0 0 - - -;
#X obj 321 366 f;
#X obj 366 106 r fromNet;
#X obj 366 131 route ck;
#X obj 262 315 line;
#X msg 263 293 0 \, 6.28 \$1;
#X obj 257 391 * 0.5;
#X obj 297 391 * 0.5;
#X obj 209 176 && 1;
#X obj 338 616 outlet;
#X obj 72 400 separator;
#X obj 77 332 t a a;
#X obj 326 528 separator;
#X obj 255 174 unpack f f;
#X obj 259 224 sel 0;
#X obj 347 251 bng 15 250 50 0 empty empty empty 17 7 0 10 -262144
-1 -1;
#X floatatom 380 254 5 0 0 0 - - -;
#X obj 257 200 fmod 1;
#X obj 260 244 f;
#X obj 479 154 unpack f f;
#X obj 483 204 sel 0;
#X obj 483 229 f;
#X obj 443 395 line;
#X msg 444 373 0 \, 6.28 \$1;
#X obj 443 420 cos;
#X floatatom 495 490 5 0 0 0 - - -;
#X obj 481 180 fmod 4;
#X obj 484 250 * 4;
#X obj 443 482 * 30;
#X obj 403 306 r ampoule-danse-r-snd;
#X obj 472 451 r ampoule-danse-a-snd;
#X obj 314 237 f;
#X obj 261 272 * 1;
#X floatatom 358 276 5 0 0 0 - - -;
#X obj 335 184 r ampoule-danse-rd-snd;
#X obj 499 73 r ampoule-danse-ad-snd;
#X obj 557 142 + 1;
#X obj 334 207 + 1;
#X obj 76 280 translate 2.36 0 0 1;
#X obj 342 582 spigot 1;
#X obj 394 536 r table-on;
#X connect 0 0 1 0;
#X connect 1 0 2 0;
#X connect 3 0 4 0;
#X connect 4 0 5 0;
#X connect 4 0 7 0;
#X connect 4 0 9 0;
#X connect 4 0 17 0;
#X connect 6 0 8 0;
#X connect 7 0 6 0;
#X connect 8 0 13 0;
#X connect 9 0 11 0;
#X connect 10 0 11 0;
#X connect 11 0 12 0;
#X connect 12 0 44 0;
#X connect 13 0 9 0;
#X connect 13 1 10 0;
#X connect 14 0 15 0;
#X connect 15 0 16 0;
#X connect 16 0 18 0;
#X connect 17 0 18 1;
#X connect 18 0 22 0;
#X connect 19 0 47 0;
#X connect 20 0 74 1;
#X connect 21 0 22 1;
#X connect 22 0 74 0;
#X connect 24 0 25 0;
#X connect 25 0 26 0;
#X connect 26 0 44 0;
#X connect 26 1 44 1;
#X connect 27 0 26 0;
#X connect 28 0 23 0;
#X connect 29 0 28 1;
#X connect 30 0 28 2;
#X connect 31 0 28 3;
#X connect 32 0 33 0;
#X connect 32 1 34 0;
#X connect 33 0 42 0;
#X connect 34 0 43 0;
#X connect 35 0 32 0;
#X connect 36 0 37 0;
#X connect 37 0 42 1;
#X connect 37 0 43 1;
#X connect 38 0 39 0;
#X connect 39 0 49 0;
#X connect 39 0 55 0;
#X connect 40 0 32 0;
#X connect 41 0 40 0;
#X connect 42 0 28 1;
#X connect 43 0 28 3;
#X connect 44 0 16 1;
#X connect 46 0 28 0;
#X connect 47 0 48 0;
#X connect 47 1 46 0;
#X connect 48 0 75 0;
#X connect 49 0 53 0;
#X connect 49 1 54 1;
#X connect 50 0 54 0;
#X connect 53 0 50 0;
#X connect 54 0 68 0;
#X connect 55 0 62 0;
#X connect 55 1 57 1;
#X connect 56 0 57 0;
#X connect 57 0 63 0;
#X connect 58 0 60 0;
#X connect 59 0 58 0;
#X connect 60 0 64 0;
#X connect 61 0 64 1;
#X connect 62 0 56 0;
#X connect 63 0 59 0;
#X connect 64 0 28 2;
#X connect 65 0 37 0;
#X connect 66 0 64 1;
#X connect 67 0 53 1;
#X connect 67 0 68 1;
#X connect 68 0 41 0;
#X connect 69 0 67 0;
#X connect 70 0 73 0;
#X connect 71 0 72 0;
#X connect 72 0 62 1;
#X connect 72 0 63 1;
#X connect 73 0 67 0;
#X connect 74 0 19 0;
#X connect 75 0 45 0;
#X connect 76 0 75 1;
