#N canvas 317 119 943 656 10;
#X obj 269 5 r \$1-rcv;
#X obj 197 175 separator;
#X obj 210 225 rotateXYZ;
#X obj 290 149 * 100;
#X obj 394 138 unpack f f;
#X floatatom 365 171 5 0 0 0 - - -;
#X obj 338 474 line;
#X obj 435 162 sel 1;
#X obj 338 499 pow 2;
#X floatatom 294 198 5 0 0 0 - - -;
#X floatatom 252 154 5 0 0 0 - - -;
#X obj 201 7 r fromNet;
#X obj 201 32 route ck;
#X obj 269 27 route env step nd;
#X obj 201 56 unpack f f;
#X floatatom 214 150 5 0 0 0 - - -;
#X obj 346 62 unpack f f;
#X floatatom 387 102 5 0 0 0 - - -;
#X floatatom 466 104 5 0 0 0 - - -;
#X obj 331 109 /;
#X obj 435 188 f;
#X obj 333 575 *;
#X obj 426 252 r \$1-rcv;
#X obj 433 208 * 1.5;
#X obj 428 273 route vol fx;
#X obj 356 220 - 1;
#X floatatom 299 171 5 0 0 0 - - -;
#X obj 351 249 * 10;
#X obj 428 294 pow 2;
#X obj 103 88 t a a a;
#X obj 531 266 apmaster \$1;
#X obj 518 121 apmasterfile \$1 ap/\$1;
#X obj 517 102 bng 15 250 50 0 empty empty empty 17 7 0 10 -4034 -1
-1;
#X obj 640 101 bng 15 250 50 0 empty empty empty 17 7 0 10 -258113
-1 -1;
#X obj 42 411 nbx 5 14 2 100 0 0 \$0-nbpart-snd \$0-nbpart-rcv nbpart
0 -8 0 10 -4032 -1 -1 22 256;
#X obj 532 231 apf \$1 lw \$0-lw;
#X obj -30 553 nbx 5 14 1 100 0 0 \$0-lw-snd \$0-lw-rcv lineWidth 0
-8 0 10 -257985 -1 -1 2 256;
#X obj 518 26 hradio 15 1 0 8 empty empty empty 0 -8 0 10 -4034 -1
-1 0;
#X obj 640 26 hradio 15 1 0 8 empty empty empty 0 -8 0 10 -258113 -1
-1 0;
#X msg 518 44 _all_ load \$1;
#X msg 640 45 _all_ store \$1;
#X obj 519 69 s \$1-pattern-snd;
#X floatatom 453 319 5 0 0 0 - - -;
#X msg 530 334 _all_ load \$1;
#X obj 531 359 s \$1-pattern-snd;
#X obj 538 100 loadbang;
#X obj 530 292 * 6.99;
#X obj 330 613 * 0.5;
#X obj 361 588 t b f;
#X obj 388 554 r scaleMelodic;
#X obj 270 258 r \$1-rcv;
#X obj 325 397 change;
#X obj 331 420 sel 0 1;
#X msg 366 451 1 20;
#X obj -150 241 part_head;
#X obj -150 295 part_color;
#X obj -150 606 part_draw;
#X text 67 530 set the color range;
#X text -49 333 set the size;
#X text -38 428 set the number per frame;
#X text 19 520 set the age to kill at;
#X text 53 356 the velocity domain;
#X msg -135 580 draw line;
#X msg -50 572 draw point;
#X text 64 389 radius = 0.2;
#X msg -12 256 1 0 1;
#X msg 48 257 0 1 0;
#X obj -150 379 part_velocity sphere 0 0 0 0.2;
#X text 42 492 orbit point and gravity;
#X obj -150 333 part_size 0.4;
#X obj 12 220 loadbang;
#X text 63 372 a sphere at 0 0 0;
#X text 50 458 keep the gravity low;
#X obj -63 88 unpack f f;
#X obj -62 110 t f f;
#X obj -60 133 cos;
#X obj -32 132 sin;
#X obj -58 158 *;
#X obj -31 157 *;
#X obj -65 64 pack f f;
#X obj -46 41 t b f;
#X floatatom -30 24 5 0 0 0 - - -;
#X obj 346 554 t b f;
#X floatatom 386 588 5 0 0 0 - - -;
#X obj 337 522 * 1;
#X obj 269 303 unpack f f;
#X floatatom 216 362 5 0 0 0 - - -;
#X obj 321 326 != 24;
#X obj 201 322 / 24;
#X obj 200 343 * 6.28;
#X obj 202 304 +;
#X obj 217 255 * 24;
#X obj 204 280 t b f;
#X floatatom -46 307 5 0 0 0 - - -;
#X obj -145 547 GEMglLineWidth 3;
#X obj 20 586 part_render;
#X floatatom 96 607 5 0 0 0 - - -;
#X obj -149 520 part_killold 20;
#X obj -150 429 part_source 40;
#X msg -129 200 speed \$1;
#X floatatom -131 157 5 0 0 0 - - -;
#X obj 224 581 line;
#X obj 205 489 sel 0 1;
#X msg -127 179 0.5;
#X floatatom 26 360 5 0 0 0 - - -;
#X obj -151 487 part_orbitpoint 0 1 0 0.08;
#X floatatom 198 381 5 0 0 0 - - -;
#X obj 266 523 del 50;
#X msg 214 547 0.5 100;
#X floatatom -2 306 5 0 0 0 - - -;
#X floatatom -104 316 5 0 0 0 - - -;
#X obj -63 182 pack f f;
#X msg -57 218 0 \$1 \$2;
#X msg 327 448 0 200;
#X msg 268 547 0.1 500;
#X obj 270 280 route step note key;
#X obj 365 323 != -1;
#X obj 356 364 &&;
#X obj 363 344 t b f;
#X obj -141 357 rotateXYZ 67 0 -90;
#X obj 42 327 nbx 5 14 -1e+37 1e+37 0 0 \$0-veloinit-snd \$0-veloinit-rcv
veloinit 0 -8 0 10 -261234 -1 -1 0 256;
#X obj 527 146 apf \$1 veloinit \$0-veloinit;
#X obj 529 170 apf \$1 nbpart \$0-nbpart;
#X msg 470 504 \$1 \$2 \$3;
#X msg 573 502 \$1 \$2 \$3;
#X obj 491 538 bng 15 250 50 0 empty empty empty 17 7 0 10 -262144
-1 -1;
#X obj 420 394 colsel \$1 col 2;
#X obj 523 392 colsel \$1 col2 2;
#X obj -33 519 nbx 5 14 2 100 0 0 \$0-killold-snd \$0-killold-rcv killold
0 -8 0 10 -260097 -1 -1 19 256;
#X obj -10 466 nbx 5 14 -1e+37 1e+37 0 0 \$0-grav-snd \$0-grav-rcv
grav 0 -8 0 10 -261234 -1 -1 0.31 256;
#X obj 531 191 apf \$1 grav \$0-grav;
#X obj 532 209 apf \$1 killold \$0-killold;
#X obj 246 601 t b f;
#X obj 224 624 * 1;
#X obj 258 582 nbx 5 14 0.01 100 0 0 \$0-speed-snd \$0-speed-rcv speed
0 -8 0 10 -257985 -1 -1 1.83 256;
#X obj 533 247 apf \$1 speed \$0-speed;
#X floatatom 279 630 5 0 0 0 - - -;
#X obj 529 314 spigot 1;
#X obj 592 292 tgl 15 0 empty empty empty 17 7 0 10 -262144 -1 -1 0
1;
#N canvas 1 116 667 659 tab 0;
#X obj 175 35 r \$1-rcv;
#X obj 175 57 route tab nd step;
#X obj 258 84 unpack f f;
#X floatatom 258 111 5 0 0 0 - - -;
#X floatatom 138 103 5 0 0 0 - - -;
#X obj 185 84 unpack f f;
#X floatatom 220 112 5 0 0 0 - - -;
#X obj 83 30 inlet;
#X floatatom 119 119 5 0 0 0 - - -;
#X obj 443 239 separator;
#X obj 312 323 translate 0 1 0 0;
#X obj 343 387 unpack f f f;
#X obj 312 299 separator;
#X obj 75 57 t a a;
#X obj 73 281 t a;
#X obj 380 247 - 1;
#X floatatom 126 187 5 0 0 0 - - -;
#X floatatom 223 249 5 0 0 0 - - -;
#X obj 70 225 scaleXYZ 0.05 0.05 0.05;
#X obj 313 347 translate 0.01 0 0 1;
#X obj 208 139 print;
#X obj 379 291 * 1;
#X obj 379 270 - 6.5;
#X obj 313 426 colorRGB 1 1 1 0.5;
#X obj 313 462 rectangle 0.5 2;
#X obj 213 307 mtabitem \$1 15;
#X obj 69 249 t a a a;
#X floatatom 537 469 5 0 0 0 - - -;
#X floatatom 584 475 5 0 0 0 - - -;
#X obj 470 493 rectangle 8 2;
#X obj 470 357 translate 0.011 0 0 1;
#X obj 70 163 translate -2.54 0 0 1;
#X obj 243 175 / 1000;
#X obj 258 152 nbx 5 14 -1e+37 1e+37 0 1 empty empty empty 0 -8 0 10
-262144 -1 -1 63.39 256;
#X obj 309 179 / 1000;
#X obj 319 160 nbx 5 14 -1e+37 1e+37 0 1 empty empty empty 0 -8 0 10
-262144 -1 -1 61.85 256;
#X obj 470 385 colorRGB 0.3 0.3 0.3 0.9;
#X floatatom 604 362 5 0 0 0 - - -;
#X floatatom 437 419 5 0 0 0 - - -;
#X msg 576 441 draw line;
#X msg 525 442 width 4;
#X obj 71 140 translate -2.03 0 1 0;
#X obj 533 227 r panneaux-alpha;
#X obj 587 326 * 0.9;
#X obj 469 304 * 0.3;
#X obj 25 632 mtabitem \$1 0;
#X obj 35 609 mtabitem \$1 1;
#X obj 52 588 mtabitem \$1 2;
#X obj 63 564 mtabitem \$1 3;
#X obj 83 546 mtabitem \$1 4;
#X obj 93 523 mtabitem \$1 5;
#X obj 110 502 mtabitem \$1 6;
#X obj 120 479 mtabitem \$1 7;
#X obj 134 458 mtabitem \$1 8;
#X obj 144 438 mtabitem \$1 9;
#X obj 152 415 mtabitem \$1 10;
#X obj 162 392 mtabitem \$1 11;
#X obj 179 371 mtabitem \$1 12;
#X obj 189 348 mtabitem \$1 13;
#X obj 202 326 mtabitem \$1 14;
#X obj 599 412 loadbang;
#X obj 77 89 separator;
#X obj 336 59 route key;
#X obj 367 121 != -1;
#X obj 427 376 m 0.3;
#X connect 0 0 1 0;
#X connect 1 1 5 0;
#X connect 1 2 2 0;
#X connect 1 3 62 0;
#X connect 2 0 3 0;
#X connect 2 0 15 0;
#X connect 5 1 6 0;
#X connect 7 0 13 0;
#X connect 8 0 41 1;
#X connect 9 0 30 0;
#X connect 10 0 19 0;
#X connect 11 0 23 1;
#X connect 11 1 23 2;
#X connect 11 2 23 3;
#X connect 12 0 10 0;
#X connect 13 0 61 0;
#X connect 14 0 25 0;
#X connect 14 0 45 0;
#X connect 14 0 46 0;
#X connect 14 0 47 0;
#X connect 14 0 48 0;
#X connect 14 0 49 0;
#X connect 14 0 50 0;
#X connect 14 0 51 0;
#X connect 14 0 52 0;
#X connect 14 0 53 0;
#X connect 14 0 54 0;
#X connect 14 0 55 0;
#X connect 14 0 56 0;
#X connect 14 0 57 0;
#X connect 14 0 58 0;
#X connect 14 0 59 0;
#X connect 15 0 22 0;
#X connect 16 0 31 1;
#X connect 18 0 26 0;
#X connect 19 0 23 0;
#X connect 21 0 10 1;
#X connect 22 0 21 0;
#X connect 23 0 24 0;
#X connect 26 0 14 0;
#X connect 26 1 12 0;
#X connect 26 2 9 0;
#X connect 27 0 29 1;
#X connect 28 0 29 2;
#X connect 30 0 36 0;
#X connect 31 0 18 0;
#X connect 32 0 18 1;
#X connect 33 0 32 0;
#X connect 34 0 18 2;
#X connect 35 0 34 0;
#X connect 36 0 29 0;
#X connect 37 0 36 4;
#X connect 38 0 23 4;
#X connect 39 0 29 0;
#X connect 40 0 29 0;
#X connect 41 0 31 0;
#X connect 42 0 43 0;
#X connect 42 0 44 0;
#X connect 43 0 36 4;
#X connect 44 0 64 1;
#X connect 60 0 40 0;
#X connect 60 0 39 0;
#X connect 61 0 41 0;
#X connect 62 0 63 0;
#X connect 63 0 64 0;
#X connect 64 0 23 4;
#X restore 188 95 pd tab;
#X obj 103 60 instru \$1;
#X obj 71 146 ampoule;
#X obj 165 136 spigot 1;
#X obj 216 115 r instrus-on;
#X connect 0 0 13 0;
#X connect 1 0 2 0;
#X connect 2 0 54 0;
#X connect 3 0 2 2;
#X connect 3 0 2 3;
#X connect 3 0 2 1;
#X connect 4 0 5 0;
#X connect 4 0 25 0;
#X connect 4 1 7 0;
#X connect 6 0 8 0;
#X connect 7 0 20 0;
#X connect 8 0 84 0;
#X connect 9 0 2 3;
#X connect 10 0 2 1;
#X connect 11 0 12 0;
#X connect 12 0 14 0;
#X connect 13 1 4 0;
#X connect 13 2 16 0;
#X connect 14 1 19 0;
#X connect 16 0 19 1;
#X connect 16 1 18 0;
#X connect 19 0 15 0;
#X connect 19 0 20 1;
#X connect 20 0 23 0;
#X connect 21 0 47 0;
#X connect 22 0 24 0;
#X connect 24 0 28 0;
#X connect 24 1 42 0;
#X connect 24 1 46 0;
#X connect 26 0 2 2;
#X connect 27 0 2 2;
#X connect 28 0 82 0;
#X connect 29 0 141 0;
#X connect 29 2 142 0;
#X connect 32 0 31 0;
#X connect 33 0 31 1;
#X connect 34 0 98 1;
#X connect 36 0 94 1;
#X connect 37 0 39 0;
#X connect 38 0 40 0;
#X connect 39 0 41 0;
#X connect 40 0 41 0;
#X connect 43 0 44 0;
#X connect 45 0 32 0;
#X connect 46 0 137 0;
#X connect 47 0 80 0;
#X connect 47 0 83 0;
#X connect 48 0 47 0;
#X connect 48 1 47 1;
#X connect 49 0 48 0;
#X connect 50 0 115 0;
#X connect 51 0 52 0;
#X connect 51 0 102 0;
#X connect 52 0 113 0;
#X connect 52 1 53 0;
#X connect 53 0 6 0;
#X connect 54 0 55 0;
#X connect 55 0 69 0;
#X connect 62 0 56 0;
#X connect 63 0 56 0;
#X connect 65 0 55 1;
#X connect 66 0 55 2;
#X connect 67 0 98 0;
#X connect 69 0 119 0;
#X connect 70 0 66 0;
#X connect 70 0 65 0;
#X connect 73 0 74 0;
#X connect 73 1 77 1;
#X connect 73 1 78 1;
#X connect 74 0 75 0;
#X connect 74 1 76 0;
#X connect 75 0 77 0;
#X connect 76 0 78 0;
#X connect 77 0 111 0;
#X connect 78 0 111 1;
#X connect 79 0 73 0;
#X connect 80 0 79 0;
#X connect 80 1 79 1;
#X connect 81 0 80 0;
#X connect 82 0 21 0;
#X connect 82 1 21 1;
#X connect 84 0 21 0;
#X connect 85 1 86 0;
#X connect 85 1 87 0;
#X connect 85 1 90 0;
#X connect 87 0 117 0;
#X connect 88 0 89 0;
#X connect 89 0 79 0;
#X connect 89 0 106 0;
#X connect 90 0 88 0;
#X connect 91 0 92 0;
#X connect 92 0 90 0;
#X connect 92 1 90 1;
#X connect 93 0 69 1;
#X connect 94 0 56 0;
#X connect 97 0 94 0;
#X connect 98 0 105 0;
#X connect 99 0 54 0;
#X connect 101 0 133 0;
#X connect 102 1 107 0;
#X connect 102 1 108 0;
#X connect 103 0 99 0;
#X connect 104 0 67 2;
#X connect 105 0 97 0;
#X connect 107 0 114 0;
#X connect 108 0 101 0;
#X connect 109 0 119 2;
#X connect 110 0 119 1;
#X connect 111 0 112 0;
#X connect 112 0 105 1;
#X connect 113 0 6 0;
#X connect 114 0 101 0;
#X connect 115 0 85 0;
#X connect 115 1 91 0;
#X connect 115 2 116 0;
#X connect 116 0 118 0;
#X connect 117 0 51 0;
#X connect 118 0 117 0;
#X connect 118 1 117 1;
#X connect 119 0 67 0;
#X connect 120 0 67 2;
#X connect 123 0 55 1;
#X connect 123 0 125 0;
#X connect 124 0 55 2;
#X connect 126 4 123 0;
#X connect 127 4 124 0;
#X connect 128 0 97 1;
#X connect 129 0 105 2;
#X connect 132 0 133 0;
#X connect 132 1 133 1;
#X connect 133 0 99 0;
#X connect 133 0 136 0;
#X connect 134 0 132 0;
#X connect 137 0 43 0;
#X connect 138 0 137 1;
#X connect 140 0 29 0;
#X connect 140 1 139 0;
#X connect 142 0 1 0;
#X connect 143 0 142 1;
