#N canvas 480 155 791 620 10;
#X declare -lib pmpd;
#X declare -path pmpdabs;
#X obj 267 16 r \$1-rcv;
#X obj 165 174 separator;
#X obj 192 240 rotateXYZ;
#X obj 290 149 * 100;
#X obj 393 123 unpack f f;
#X floatatom 365 171 5 0 0 0 - - -;
#X obj 417 256 line;
#X obj 417 168 sel 1;
#X obj 415 323 + 0.3;
#X floatatom 294 198 5 0 0 0 - - -;
#X floatatom 252 154 5 0 0 0 - - -;
#X obj 201 7 r fromNet;
#X obj 201 32 route ck;
#X obj 267 38 route env step nd;
#X obj 201 56 unpack f f;
#X floatatom 214 150 5 0 0 0 - - -;
#X obj 346 62 unpack f f;
#X floatatom 387 102 5 0 0 0 - - -;
#X floatatom 466 104 5 0 0 0 - - -;
#X obj 331 109 /;
#X obj 417 194 f;
#X msg 413 233 1 \, 0 \$1;
#X obj 463 256 r \$1-rcv;
#X obj 465 277 route vol fx;
#X obj 352 203 - 1;
#X floatatom 299 171 5 0 0 0 - - -;
#X obj 289 227 * 10;
#X obj 220 294 colorRGB 1 1 0 0.9;
#X obj 465 298 pow 2;
#X obj 132 85 t a a a;
#X obj 527 234 apmaster \$1;
#X obj 518 121 apmasterfile \$1 ap/\$1;
#X obj 517 102 bng 15 250 50 0 empty empty empty 17 7 0 10 -4034 -1
-1;
#X obj 640 101 bng 15 250 50 0 empty empty empty 17 7 0 10 -258113
-1 -1;
#X obj 527 146 apf \$1 decx \$0-decx;
#X obj 536 362 nbx 5 14 -1e+37 1e+37 0 0 \$0-decx-snd \$0-decx-rcv
decx 0 -8 0 10 -260097 -1 -1 96.446 256;
#X obj 537 576 nbx 5 14 2 100 0 0 \$0-nbface-snd \$0-nbface-rcv nbface
0 -8 0 10 -4032 -1 -1 6 256;
#X obj 536 391 nbx 5 14 -1e+37 1e+37 0 0 \$0-decy-snd \$0-decy-rcv
decy 0 -8 0 10 -260097 -1 -1 23.6098 256;
#X obj 526 164 apf \$1 decy \$0-decy;
#X obj 529 186 apf \$1 nbface \$0-nbface;
#X obj 529 210 apf \$1 lw \$0-lw;
#X obj 537 544 nbx 5 14 1 100 0 0 \$0-lw-snd \$0-lw-rcv lineWidth 0
-8 0 10 -257985 -1 -1 68.0209 256;
#X obj 518 26 hradio 15 1 0 8 empty empty empty 0 -8 0 10 -4034 -1
-1 0;
#X obj 640 26 hradio 15 1 0 8 empty empty empty 0 -8 0 10 -258113 -1
-1 0;
#X msg 518 44 _all_ load \$1;
#X msg 640 45 _all_ store \$1;
#X obj 519 69 s \$1-pattern-snd;
#X floatatom 536 302 5 0 0 0 - - -;
#X msg 613 317 _all_ load \$1;
#X obj 614 342 s \$1-pattern-snd;
#X obj 538 100 loadbang;
#X obj 613 290 * 6.99;
#X obj 507 330 r scaleRythmic;
#N canvas 1 82 1278 693 plane 0;
#X obj 28 79 tgl 15 0 empty empty empty 0 -6 0 8 -262144 -1 -1 1 1
;
#X msg 397 175 setK \$1;
#X msg 618 127 setM \$1;
#X obj 397 149 / 10;
#X obj 397 123 + 1;
#X obj 69 298 gemwin;
#X msg 88 269 0 \, destroy;
#X floatatom 397 101 5 0 0 0 - - -;
#X floatatom 534 105 5 0 0 0 - - -;
#X floatatom 618 104 5 0 0 0 - - -;
#X obj 28 100 metro 10;
#X obj 28 124 t b b;
#X obj 256 111 world_light;
#X obj 256 83 gemhead;
#X text 199 154 <- gravity simulation;
#X obj 560 406 s gemhead;
#X floatatom 581 246 5 0 0 0 - - -;
#X floatatom 631 247 5 0 0 0 - - -;
#X floatatom 681 247 5 0 0 0 - - -;
#X msg 534 128 setD2 \$1;
#X msg 63 152 force3D 0 -8 0;
#X floatatom 450 106 5 0 0 0 - - -;
#X msg 450 129 setD \$1;
#X obj 329 442 gemLia 0 1 0.1 0.1;
#X obj 632 442 gemLia 0 1 0.1 0.1;
#X obj 934 443 gemLia 0 1 0.1 0.1;
#X obj 1237 443 gemLia 0 1 0.1 0.1;
#X obj 327 504 gemLia 0 1 0.1 0.1;
#X obj 176 472 gemLia 0 1 0.1 0.1;
#X obj 631 504 gemLia 0 1 0.1 0.1;
#X obj 479 472 gemLia 0 1 0.1 0.1;
#X obj 933 505 gemLia 0 1 0.1 0.1;
#X obj 781 473 gemLia 0 1 0.1 0.1;
#X obj 1236 505 gemLia 0 1 0.1 0.1;
#X obj 1084 473 gemLia 0 1 0.1 0.1;
#X obj 1542 504 gemLia 0 1 0.1 0.1;
#X obj 1390 472 gemLia 0 1 0.1 0.1;
#X obj 1693 472 gemLia 0 1 0.1 0.1;
#X obj 327 563 gemLia 0 1 0.1 0.1;
#X obj 175 531 gemLia 0 1 0.1 0.1;
#X obj 630 563 gemLia 0 1 0.1 0.1;
#X obj 478 531 gemLia 0 1 0.1 0.1;
#X obj 932 564 gemLia 0 1 0.1 0.1;
#X obj 780 532 gemLia 0 1 0.1 0.1;
#X obj 1235 564 gemLia 0 1 0.1 0.1;
#X obj 1083 532 gemLia 0 1 0.1 0.1;
#X obj 326 625 gemLia 0 1 0.1 0.1;
#X obj 174 593 gemLia 0 1 0.1 0.1;
#X obj 629 625 gemLia 0 1 0.1 0.1;
#X obj 477 593 gemLia 0 1 0.1 0.1;
#X obj 931 626 gemLia 0 1 0.1 0.1;
#X obj 779 594 gemLia 0 1 0.1 0.1;
#X obj 1234 626 gemLia 0 1 0.1 0.1;
#X obj 1082 594 gemLia 0 1 0.1 0.1;
#X obj 1541 563 gemLia 0 1 0.1 0.1;
#X obj 1389 531 gemLia 0 1 0.1 0.1;
#X obj 1692 531 gemLia 0 1 0.1 0.1;
#X obj 1540 625 gemLia 0 1 0.1 0.1;
#X obj 1388 593 gemLia 0 1 0.1 0.1;
#X obj 1691 593 gemLia 0 1 0.1 0.1;
#X obj 1543 442 gemLia 0 1 0.1 0.1;
#X obj 325 687 gemLia 0 1 0.1 0.1;
#X obj 173 655 gemLia 0 1 0.1 0.1;
#X obj 628 687 gemLia 0 1 0.1 0.1;
#X obj 476 655 gemLia 0 1 0.1 0.1;
#X obj 930 688 gemLia 0 1 0.1 0.1;
#X obj 1233 688 gemLia 0 1 0.1 0.1;
#X obj 1081 656 gemLia 0 1 0.1 0.1;
#X obj 323 749 gemLia 0 1 0.1 0.1;
#X obj 172 717 gemLia 0 1 0.1 0.1;
#X obj 627 749 gemLia 0 1 0.1 0.1;
#X obj 475 717 gemLia 0 1 0.1 0.1;
#X obj 929 750 gemLia 0 1 0.1 0.1;
#X obj 777 718 gemLia 0 1 0.1 0.1;
#X obj 1232 750 gemLia 0 1 0.1 0.1;
#X obj 1080 718 gemLia 0 1 0.1 0.1;
#X obj 1387 655 gemLia 0 1 0.1 0.1;
#X obj 1690 655 gemLia 0 1 0.1 0.1;
#X obj 1538 749 gemLia 0 1 0.1 0.1;
#X obj 1386 717 gemLia 0 1 0.1 0.1;
#X obj 1689 717 gemLia 0 1 0.1 0.1;
#X obj 778 656 gemLia 0 1 0.1 0.1;
#X obj 1539 687 gemLia 0 1 0.1 0.1;
#X obj 25 592 gemMasse2 10 0 3 0;
#X obj 836 154 bng 15 250 50 0 empty empty empty 0 -6 0 8 -262144 -1
-1;
#X obj 857 153 loadbang;
#X obj 857 182 t b b b;
#X msg 908 207 reset;
#X msg 883 232 resetL;
#X msg 857 260 resetF;
#X obj 329 472 gemMasse 10 1 1 0;
#X obj 329 410 gemMasse2 10 1 0 0;
#X obj 632 410 gemMasse2 10 2 0 0;
#X obj 934 411 gemMasse2 10 3 0 0;
#X obj 1237 411 gemMasse2 10 4 0 0;
#X obj 1543 410 gemMasse2 10 5 0 0;
#X obj 26 471 gemMasse2 10 0 1 0;
#X obj 1846 472 gemMasse2 10 6 1 0;
#X obj 1844 531 gemMasse2 10 6 2 0;
#X obj 25 530 gemMasse2 10 0 2 0;
#X obj 23 654 gemMasse2 10 0 4 0;
#X obj 22 716 gemMasse2 10 0 5 0;
#X obj 321 777 gemMasse2 10 1 6 0;
#X obj 626 776 gemMasse2 10 2 6 0;
#X obj 928 777 gemMasse2 10 3 6 0;
#X obj 1231 777 gemMasse2 10 4 6 0;
#X obj 1537 776 gemMasse2 10 5 6 0;
#X obj 1844 594 gemMasse2 10 6 3 0;
#X obj 1845 656 gemMasse2 10 6 4 0;
#X obj 1841 717 gemMasse2 10 6 5 0;
#X msg 49 342 force3D 0 1 0;
#X msg 60 364 force3D 0 0 1;
#X msg 67 388 force3D 1 0 0;
#X floatatom 613 298 5 0 0 0 - - -;
#X floatatom 663 299 5 0 0 0 - - -;
#X floatatom 713 299 5 0 0 0 - - -;
#X msg 210 352 force3D 0 3 0;
#X msg 203 375 force3D 0 0 3;
#X msg 195 398 force3D 3 0 0;
#X obj 505 51 bng 15 250 50 0 empty empty empty 0 -6 0 8 -262144 -1
-1;
#X msg 69 241 reset \, lighting 1 \, create \, 1;
#X text 409 20 This is a plane with 3D masss.;
#X text 33 814 masss are used in the border (gemMasse2) for telling
the link there position. they do not receive bang information \, so
they will not move.;
#X text 53 75 <- 1;
#X text 308 242 <- 2;
#X obj 910 308 s masse;
#X obj 902 340 s masse2;
#X obj 857 296 s lia;
#X obj 49 413 s masse;
#X obj 28 183 s masse;
#X obj 99 184 s lia;
#X obj 248 24 declare -lib pmpd;
#X obj 249 43 import pmpd;
#X obj 249 63 declare -path pmpdabs;
#X obj 559 189 inlet;
#X obj 559 328 translateXYZ -2.8 -2.8 0;
#X obj 556 216 scaleXYZ 0.5 0.5 0.5;
#X obj 698 184 f;
#X obj 700 159 inlet;
#X obj 30 49 loadbang;
#X obj 559 272 rotateXYZ -140 0 0;
#X obj 397 202 s lia;
#X obj 618 155 s masse;
#X msg 618 80 5;
#X obj 181 314 inlet;
#X obj 759 48 r \$1-rcv;
#X obj 760 71 route note;
#X floatatom 785 109 5 0 0 0 - - -;
#X msg 450 80 0.7;
#X obj 738 97 * -180;
#X obj 325 532 gemMasse 10 1 2 0;
#X obj 327 593 gemMasse 10 1 3 0;
#X obj 326 654 gemMasse 10 1 4 0;
#X obj 324 717 gemMasse 10 1 5 0;
#X obj 633 472 gemMasse 10 2 1 0;
#X obj 630 531 gemMasse 10 2 2 0;
#X obj 629 593 gemMasse 10 2 3 0;
#X obj 629 656 gemMasse 10 2 4 0;
#X obj 627 717 gemMasse 10 2 5 0;
#X obj 933 473 gemMasse 10 3 1 0;
#X obj 932 532 gemMasse 10 3 2 0;
#X obj 931 594 gemMasse 10 3 3 0;
#X obj 930 656 gemMasse 10 3 4 0;
#X obj 929 718 gemMasse 10 3 5 0;
#X obj 1236 473 gemMasse 10 4 1 0;
#X obj 1235 532 gemMasse 10 4 2 0;
#X obj 1234 594 gemMasse 10 4 3 0;
#X obj 1234 656 gemMasse 10 4 4 0;
#X obj 1232 718 gemMasse 10 4 5 0;
#X obj 1543 473 gemMasse 10 5 1 0;
#X obj 1542 531 gemMasse 10 5 2 0;
#X obj 1541 593 gemMasse 10 5 3 0;
#X obj 1540 655 gemMasse 10 5 4 0;
#X obj 1538 718 gemMasse 10 5 5 0;
#X msg 535 80 0.1;
#X msg 397 77 50;
#X floatatom 720 58 5 0 0 0 - - -;
#X connect 0 0 10 0;
#X connect 1 0 141 0;
#X connect 2 0 142 0;
#X connect 3 0 1 0;
#X connect 4 0 3 0;
#X connect 6 0 5 0;
#X connect 7 0 4 0;
#X connect 8 0 19 0;
#X connect 9 0 2 0;
#X connect 10 0 11 0;
#X connect 11 0 129 0;
#X connect 11 1 20 0;
#X connect 11 1 130 0;
#X connect 13 0 12 0;
#X connect 16 0 140 1;
#X connect 17 0 140 2;
#X connect 18 0 140 3;
#X connect 19 0 141 0;
#X connect 21 0 22 0;
#X connect 22 0 141 0;
#X connect 23 0 91 0;
#X connect 23 1 90 0;
#X connect 24 0 92 0;
#X connect 24 1 154 0;
#X connect 25 0 93 0;
#X connect 25 1 159 0;
#X connect 26 0 94 0;
#X connect 26 1 164 0;
#X connect 27 0 90 0;
#X connect 27 1 150 0;
#X connect 28 0 96 0;
#X connect 28 1 90 0;
#X connect 29 0 154 0;
#X connect 29 1 155 0;
#X connect 30 0 90 0;
#X connect 30 1 154 0;
#X connect 31 0 159 0;
#X connect 31 1 160 0;
#X connect 32 0 154 0;
#X connect 32 1 159 0;
#X connect 33 0 164 0;
#X connect 33 1 165 0;
#X connect 34 0 159 0;
#X connect 34 1 164 0;
#X connect 35 0 169 0;
#X connect 35 1 170 0;
#X connect 36 0 164 0;
#X connect 36 1 169 0;
#X connect 37 0 169 0;
#X connect 37 1 97 0;
#X connect 38 0 150 0;
#X connect 38 1 151 0;
#X connect 39 0 99 0;
#X connect 39 1 150 0;
#X connect 40 0 155 0;
#X connect 40 1 156 0;
#X connect 41 0 150 0;
#X connect 41 1 155 0;
#X connect 42 0 160 0;
#X connect 42 1 161 0;
#X connect 43 0 155 0;
#X connect 43 1 160 0;
#X connect 44 0 165 0;
#X connect 44 1 166 0;
#X connect 45 0 160 0;
#X connect 45 1 165 0;
#X connect 46 0 151 0;
#X connect 46 1 152 0;
#X connect 47 0 83 0;
#X connect 47 1 151 0;
#X connect 48 0 156 0;
#X connect 48 1 157 0;
#X connect 49 0 151 0;
#X connect 49 1 156 0;
#X connect 50 0 161 0;
#X connect 50 1 162 0;
#X connect 51 0 156 0;
#X connect 51 1 161 0;
#X connect 52 0 166 0;
#X connect 52 1 167 0;
#X connect 53 0 161 0;
#X connect 53 1 166 0;
#X connect 54 0 170 0;
#X connect 54 1 171 0;
#X connect 55 0 165 0;
#X connect 55 1 170 0;
#X connect 56 0 170 0;
#X connect 56 1 98 0;
#X connect 57 0 171 0;
#X connect 57 1 172 0;
#X connect 58 0 166 0;
#X connect 58 1 171 0;
#X connect 59 0 171 0;
#X connect 59 1 107 0;
#X connect 60 0 95 0;
#X connect 60 1 169 0;
#X connect 61 0 152 0;
#X connect 61 1 153 0;
#X connect 62 0 100 0;
#X connect 62 1 152 0;
#X connect 63 0 157 0;
#X connect 63 1 158 0;
#X connect 64 0 152 0;
#X connect 64 1 157 0;
#X connect 65 0 162 0;
#X connect 65 1 163 0;
#X connect 66 0 167 0;
#X connect 66 1 168 0;
#X connect 67 0 162 0;
#X connect 67 1 167 0;
#X connect 68 0 153 0;
#X connect 68 1 102 0;
#X connect 69 0 101 0;
#X connect 69 1 153 0;
#X connect 70 0 158 0;
#X connect 70 1 103 0;
#X connect 71 0 153 0;
#X connect 71 1 158 0;
#X connect 72 0 163 0;
#X connect 72 1 104 0;
#X connect 73 0 158 0;
#X connect 73 1 163 0;
#X connect 74 0 168 0;
#X connect 74 1 105 0;
#X connect 75 0 163 0;
#X connect 75 1 168 0;
#X connect 76 0 167 0;
#X connect 76 1 172 0;
#X connect 77 0 172 0;
#X connect 77 1 108 0;
#X connect 78 0 173 0;
#X connect 78 1 106 0;
#X connect 79 0 168 0;
#X connect 79 1 173 0;
#X connect 80 0 173 0;
#X connect 80 1 109 0;
#X connect 81 0 157 0;
#X connect 81 1 162 0;
#X connect 82 0 172 0;
#X connect 82 1 173 0;
#X connect 83 0 47 0;
#X connect 84 0 86 0;
#X connect 85 0 86 0;
#X connect 86 0 89 0;
#X connect 86 1 88 0;
#X connect 86 2 87 0;
#X connect 87 0 125 0;
#X connect 87 0 126 0;
#X connect 88 0 127 0;
#X connect 89 0 127 0;
#X connect 90 0 27 0;
#X connect 90 0 28 1;
#X connect 90 0 30 0;
#X connect 90 0 23 1;
#X connect 91 0 23 0;
#X connect 92 0 24 0;
#X connect 93 0 25 0;
#X connect 94 0 26 0;
#X connect 95 0 60 0;
#X connect 96 0 28 0;
#X connect 97 0 37 1;
#X connect 98 0 56 1;
#X connect 99 0 39 0;
#X connect 100 0 62 0;
#X connect 101 0 69 0;
#X connect 102 0 68 1;
#X connect 103 0 70 1;
#X connect 104 0 72 1;
#X connect 105 0 74 1;
#X connect 106 0 78 1;
#X connect 107 0 59 1;
#X connect 108 0 77 1;
#X connect 109 0 80 1;
#X connect 110 0 128 0;
#X connect 111 0 128 0;
#X connect 112 0 128 0;
#X connect 113 0 135 1;
#X connect 114 0 135 2;
#X connect 115 0 135 3;
#X connect 116 0 155 0;
#X connect 117 0 155 0;
#X connect 118 0 155 0;
#X connect 119 0 148 0;
#X connect 119 0 175 0;
#X connect 119 0 174 0;
#X connect 119 0 143 0;
#X connect 120 0 5 0;
#X connect 134 0 136 0;
#X connect 135 0 15 0;
#X connect 136 0 140 0;
#X connect 137 0 136 1;
#X connect 137 0 136 2;
#X connect 137 0 136 3;
#X connect 138 0 137 0;
#X connect 139 0 0 0;
#X connect 140 0 135 0;
#X connect 143 0 9 0;
#X connect 144 0 111 0;
#X connect 145 0 146 0;
#X connect 146 0 149 0;
#X connect 148 0 21 0;
#X connect 149 0 140 1;
#X connect 149 0 140 2;
#X connect 150 0 38 0;
#X connect 150 0 39 1;
#X connect 150 0 41 0;
#X connect 150 0 27 1;
#X connect 151 0 46 0;
#X connect 151 0 47 1;
#X connect 151 0 49 0;
#X connect 151 0 38 1;
#X connect 152 0 61 0;
#X connect 152 0 62 1;
#X connect 152 0 64 0;
#X connect 152 0 46 1;
#X connect 153 0 68 0;
#X connect 153 0 69 1;
#X connect 153 0 71 0;
#X connect 153 0 61 1;
#X connect 154 0 29 0;
#X connect 154 0 30 1;
#X connect 154 0 32 0;
#X connect 154 0 24 1;
#X connect 155 0 40 0;
#X connect 155 0 41 1;
#X connect 155 0 43 0;
#X connect 155 0 29 1;
#X connect 156 0 48 0;
#X connect 156 0 49 1;
#X connect 156 0 51 0;
#X connect 156 0 40 1;
#X connect 157 0 63 0;
#X connect 157 0 64 1;
#X connect 157 0 81 0;
#X connect 157 0 48 1;
#X connect 158 0 70 0;
#X connect 158 0 71 1;
#X connect 158 0 73 0;
#X connect 158 0 63 1;
#X connect 159 0 31 0;
#X connect 159 0 32 1;
#X connect 159 0 34 0;
#X connect 159 0 25 1;
#X connect 160 0 42 0;
#X connect 160 0 43 1;
#X connect 160 0 45 0;
#X connect 160 0 31 1;
#X connect 161 0 50 0;
#X connect 161 0 51 1;
#X connect 161 0 53 0;
#X connect 161 0 42 1;
#X connect 162 0 65 0;
#X connect 162 0 67 0;
#X connect 162 0 81 1;
#X connect 162 0 50 1;
#X connect 163 0 72 0;
#X connect 163 0 73 1;
#X connect 163 0 75 0;
#X connect 163 0 65 1;
#X connect 164 0 33 0;
#X connect 164 0 34 1;
#X connect 164 0 26 1;
#X connect 164 0 36 0;
#X connect 165 0 44 0;
#X connect 165 0 45 1;
#X connect 165 0 55 0;
#X connect 165 0 33 1;
#X connect 166 0 52 0;
#X connect 166 0 53 1;
#X connect 166 0 44 1;
#X connect 166 0 58 0;
#X connect 167 0 66 0;
#X connect 167 0 67 1;
#X connect 167 0 76 0;
#X connect 167 0 52 1;
#X connect 168 0 74 0;
#X connect 168 0 75 1;
#X connect 168 0 66 1;
#X connect 168 0 79 0;
#X connect 169 0 35 0;
#X connect 169 0 36 1;
#X connect 169 0 37 0;
#X connect 169 0 60 1;
#X connect 170 0 54 0;
#X connect 170 0 55 1;
#X connect 170 0 56 0;
#X connect 170 0 35 1;
#X connect 171 0 57 0;
#X connect 171 0 58 1;
#X connect 171 0 59 0;
#X connect 171 0 54 1;
#X connect 172 0 76 1;
#X connect 172 0 77 0;
#X connect 172 0 82 0;
#X connect 172 0 57 1;
#X connect 173 0 78 0;
#X connect 173 0 79 1;
#X connect 173 0 80 0;
#X connect 173 0 82 1;
#X connect 174 0 8 0;
#X connect 175 0 7 0;
#X connect 176 0 149 0;
#X restore 193 402 pd plane;
#X obj 539 416 colsel \$1 col 2;
#X obj 313 545 s BasseR-sphR;
#X obj 318 494 * 1;
#X obj 434 377 * 1;
#X obj 415 214 * 1;
#X obj 415 280 pow 2;
#X obj 466 321 * 1;
#X obj 455 343 t b f;
#X obj 415 303 * 0.3;
#N canvas 1 107 492 554 tab 0;
#X obj 175 35 r \$1-rcv;
#X obj 175 57 route tab nd step;
#X obj 258 84 unpack f f;
#X floatatom 258 111 5 0 0 0 - - -;
#X floatatom 138 103 5 0 0 0 - - -;
#X obj 185 84 unpack f f;
#X floatatom 220 112 5 0 0 0 - - -;
#X obj 104 38 inlet;
#X obj 75 248 t a a;
#X floatatom 119 119 5 0 0 0 - - -;
#X obj 75 91 separator;
#X obj 334 280 * 2.2;
#X obj 334 259 - 4.5;
#X obj 267 312 translate 0 1 0 0;
#X obj 298 376 unpack f f f;
#X obj 267 288 separator;
#X obj 96 65 t a a;
#X obj 73 281 t a;
#X obj 268 415 colorRGB 1 1 1 1;
#X obj 335 236 - 1;
#X obj 268 451 rectangle 1.1 1.1;
#X floatatom 215 150 5 0 0 0 - - -;
#X floatatom 223 249 5 0 0 0 - - -;
#X obj 76 224 scaleXYZ 0.05 0.05 0.05;
#X obj 268 336 translate 0.01 0 0 1;
#X obj 86 185 translate -2.54 0 0 1;
#X floatatom 249 207 5 0 0 0 - - -;
#X obj 257 159 nbx 5 14 -1e+37 1e+37 0 1 empty empty empty 0 -8 0 10
-262144 -1 -1 26 256;
#X obj 256 186 / 1000;
#X obj 50 501 rtabitem \$1 0;
#X obj 60 478 rtabitem \$1 1;
#X obj 77 457 rtabitem \$1 2;
#X obj 88 433 rtabitem \$1 3;
#X obj 108 415 rtabitem \$1 4;
#X obj 118 392 rtabitem \$1 5;
#X obj 135 371 rtabitem \$1 6;
#X obj 145 348 rtabitem \$1 7;
#X obj 159 327 rtabitem \$1 8;
#X obj 170 302 rtabitem \$1 9;
#X obj 381 378 r panneaux-alpha;
#X obj 74 156 translate -2.1 0 1 0;
#X floatatom 347 179 5 0 0 0 - - -;
#X connect 0 0 1 0;
#X connect 1 0 4 0;
#X connect 1 1 5 0;
#X connect 1 2 2 0;
#X connect 2 0 3 0;
#X connect 2 0 19 0;
#X connect 5 1 6 0;
#X connect 7 0 16 0;
#X connect 8 0 17 0;
#X connect 8 1 15 0;
#X connect 9 0 40 1;
#X connect 10 0 40 0;
#X connect 11 0 13 1;
#X connect 12 0 11 0;
#X connect 13 0 24 0;
#X connect 14 0 18 1;
#X connect 14 1 18 2;
#X connect 14 2 18 3;
#X connect 15 0 13 0;
#X connect 16 1 10 0;
#X connect 17 0 29 0;
#X connect 17 0 30 0;
#X connect 17 0 31 0;
#X connect 17 0 32 0;
#X connect 17 0 33 0;
#X connect 17 0 34 0;
#X connect 17 0 35 0;
#X connect 17 0 36 0;
#X connect 17 0 37 0;
#X connect 17 0 38 0;
#X connect 18 0 20 0;
#X connect 19 0 12 0;
#X connect 21 0 25 1;
#X connect 23 0 8 0;
#X connect 24 0 18 0;
#X connect 25 0 23 0;
#X connect 26 0 23 1;
#X connect 26 0 23 2;
#X connect 26 0 23 3;
#X connect 27 0 28 0;
#X connect 28 0 26 0;
#X connect 39 0 18 4;
#X connect 40 0 25 0;
#X restore 189 95 pd tab;
#X obj 243 455 * 0.5;
#X obj 274 430 t b f;
#X obj 260 360 r scaleMelodic;
#X floatatom 299 430 5 0 0 0 - - -;
#X obj 256 380 * 1;
#X obj 127 31 instru \$1;
#X obj 103 125 ampoule;
#X obj 165 136 spigot 1;
#X obj 216 115 r instrus-on;
#X obj 353 269 bng 15 250 50 0 empty empty empty 17 7 0 10 -262144
-1 -1;
#X obj 424 144 change;
#X connect 0 0 13 0;
#X connect 1 0 2 0;
#X connect 2 0 27 0;
#X connect 3 0 2 2;
#X connect 3 0 2 3;
#X connect 3 0 2 1;
#X connect 4 0 5 0;
#X connect 4 0 24 0;
#X connect 4 1 74 0;
#X connect 6 0 59 0;
#X connect 7 0 20 0;
#X connect 7 0 53 0;
#X connect 8 0 57 0;
#X connect 9 0 2 3;
#X connect 10 0 2 1;
#X connect 11 0 12 0;
#X connect 12 0 14 0;
#X connect 13 1 4 0;
#X connect 13 2 16 0;
#X connect 14 1 19 0;
#X connect 16 0 19 1;
#X connect 16 1 18 0;
#X connect 19 0 15 0;
#X connect 19 0 20 1;
#X connect 20 0 58 0;
#X connect 21 0 6 0;
#X connect 22 0 23 0;
#X connect 23 0 28 0;
#X connect 23 1 47 0;
#X connect 23 1 51 0;
#X connect 25 0 2 2;
#X connect 26 0 2 2;
#X connect 27 0 53 1;
#X connect 28 0 60 0;
#X connect 29 0 70 0;
#X connect 29 2 71 0;
#X connect 32 0 31 0;
#X connect 33 0 31 1;
#X connect 42 0 44 0;
#X connect 43 0 45 0;
#X connect 44 0 46 0;
#X connect 45 0 46 0;
#X connect 48 0 49 0;
#X connect 50 0 32 0;
#X connect 51 0 48 0;
#X connect 54 0 27 1;
#X connect 54 1 27 2;
#X connect 54 2 27 3;
#X connect 54 3 27 4;
#X connect 56 0 55 0;
#X connect 57 0 56 0;
#X connect 58 0 21 0;
#X connect 59 0 62 0;
#X connect 60 0 61 0;
#X connect 61 0 57 0;
#X connect 61 1 57 1;
#X connect 62 0 8 0;
#X connect 64 0 67 0;
#X connect 65 0 64 0;
#X connect 65 1 64 1;
#X connect 66 0 68 0;
#X connect 68 0 53 2;
#X connect 69 0 29 0;
#X connect 69 1 63 0;
#X connect 71 0 1 0;
#X connect 72 0 71 1;
#X connect 74 0 7 0;
