#N canvas 459 255 712 464 10;
#X obj 92 28 inlet;
#X obj 93 65 separator;
#X obj 93 97 translate 0 1 0 0;
#X obj 243 12 loadbang;
#X obj 241 33 bng 15 250 50 0 empty empty empty 17 7 0 10 -262144 -1
-1;
#X floatatom 172 64 5 0 0 0 - - -;
#X obj 244 54 f \$2;
#X obj 93 263 colorRGB 1 1 1 1;
#X obj 332 28 r \$1-rcv;
#X obj 332 50 route tab nd step;
#X obj 530 51 unpack f f;
#X floatatom 291 160 5 0 0 0 - - -;
#X obj 445 74 unpack f f;
#X floatatom 480 102 5 0 0 0 - - -;
#X obj 626 205 &;
#X obj 644 135 init \$2;
#X msg 645 158 1 \$1;
#X obj 646 181 <<;
#X obj 533 102 == \$2;
#X obj 646 117 bng 15 250 50 0 empty empty empty 17 7 0 10 -262144
-1 -1;
#X floatatom 659 213 5 0 0 0 - - -;
#X obj 625 226 == 0;
#X obj 531 77 - 1;
#X obj 425 178 > \$2;
#X obj 532 125 change;
#X obj 500 150 change;
#X obj 508 239 t b f;
#X obj 536 148 t b f;
#X obj 499 263 +;
#X obj 550 198 +;
#X floatatom 545 266 5 0 0 0 - - -;
#X obj 584 317 - 4;
#X obj 584 337 sel 0 1 2 3;
#X obj 371 409 t a;
#X obj 123 224 unpack f f f;
#X obj 273 268 loadbang;
#X msg 677 365 1 1 0;
#X msg 595 365 0 1 0;
#X msg 498 360 1 0 0;
#X obj 503 177 * 2;
#X obj 624 248 * 1;
#X msg 403 358 0.5 0.5 0.5;
#X msg 322 359 0.1 0.1 0.1;
#X obj 244 96 * 1;
#X obj 244 75 - 7.5;
#X obj 93 299 rectangle 0.4 0.2;
#X obj 332 74 list split \$2;
#X obj 345 109 list split 1;
#X floatatom 305 112 5 0 0 0 - - -;
#X obj 93 196 translate 0 0 1 0;
#X obj 166 145 - 12;
#X obj 345 151 != 24;
#X obj 345 235 sel 0 1;
#X obj 345 172 change;
#X floatatom 437 101 5 0 0 0 - - -;
#X obj 427 250 &&;
#X obj 455 247 t b f;
#X obj 161 169 * -0.14;
#X obj 250 186 r panneaux-alpha;
#X obj 230 240 * 1;
#X obj 239 210 t b f;
#X connect 0 0 1 0;
#X connect 1 0 2 0;
#X connect 2 0 49 0;
#X connect 3 0 4 0;
#X connect 4 0 6 0;
#X connect 5 0 2 1;
#X connect 6 0 44 0;
#X connect 7 0 45 0;
#X connect 8 0 9 0;
#X connect 9 0 46 0;
#X connect 9 1 12 0;
#X connect 10 0 22 0;
#X connect 12 0 54 0;
#X connect 12 1 13 0;
#X connect 12 1 23 0;
#X connect 14 0 21 0;
#X connect 15 0 16 0;
#X connect 16 0 17 0;
#X connect 17 0 14 1;
#X connect 17 0 20 0;
#X connect 18 0 24 0;
#X connect 19 0 15 0;
#X connect 21 0 40 0;
#X connect 22 0 18 0;
#X connect 23 0 25 0;
#X connect 23 0 59 0;
#X connect 24 0 27 0;
#X connect 25 0 39 0;
#X connect 26 0 28 0;
#X connect 26 1 28 1;
#X connect 27 0 29 0;
#X connect 27 1 29 1;
#X connect 31 0 32 0;
#X connect 32 1 37 0;
#X connect 32 3 36 0;
#X connect 33 0 34 0;
#X connect 34 0 7 1;
#X connect 34 1 7 2;
#X connect 34 2 7 3;
#X connect 35 0 42 0;
#X connect 36 0 33 0;
#X connect 37 0 33 0;
#X connect 38 0 33 0;
#X connect 39 0 26 0;
#X connect 41 0 33 0;
#X connect 42 0 33 0;
#X connect 43 0 2 1;
#X connect 44 0 43 0;
#X connect 46 0 48 0;
#X connect 46 1 47 0;
#X connect 47 0 11 0;
#X connect 47 0 51 0;
#X connect 47 0 50 0;
#X connect 49 0 7 0;
#X connect 50 0 57 0;
#X connect 51 0 53 0;
#X connect 52 0 42 0;
#X connect 52 1 38 0;
#X connect 53 0 52 0;
#X connect 56 0 55 0;
#X connect 56 1 55 1;
#X connect 57 0 49 1;
#X connect 58 0 60 0;
#X connect 59 0 7 4;
#X connect 60 0 59 0;
#X connect 60 1 59 1;
