#N canvas 1339 260 450 300 10;
#X obj 44 24 inlet;
#X msg 33 102 Boum;
#X msg 80 102 Tchac;
#X msg 123 101 Tssi;
#X msg 172 99 Synthé;
#X msg 278 101 Basse;
#X msg 321 101 Orgue;
#X obj 131 165 symbol;
#X obj 131 200 outlet;
#X msg 223 100 CoinCoin;
#X msg 363 100 Piano;
#X obj 44 54 sel Rythmic1 Rythmic2 Rythmic3 Melodic1 Paf1 BassR1 Poly1
Rhodey1;
#X connect 0 0 11 0;
#X connect 1 0 7 0;
#X connect 2 0 7 0;
#X connect 3 0 7 0;
#X connect 4 0 7 0;
#X connect 5 0 7 0;
#X connect 6 0 7 0;
#X connect 7 0 8 0;
#X connect 9 0 7 0;
#X connect 10 0 7 0;
#X connect 11 0 1 0;
#X connect 11 1 2 0;
#X connect 11 2 3 0;
#X connect 11 3 4 0;
#X connect 11 4 9 0;
#X connect 11 5 5 0;
#X connect 11 6 6 0;
#X connect 11 7 10 0;
