#N canvas 2 82 1249 693 10;
#X obj 292 57 * 60;
#X floatatom 218 56 5 0 0 0 - - -;
#X floatatom 292 108 5 0 0 0 - - -;
#X floatatom 209 157 5 0 0 0 - - -;
#X obj 156 38 separator;
#X obj 156 103 rotate 0 0 0 1;
#X obj 156 134 translate 1.5 0 1 0;
#X obj 292 34 init \$1;
#X obj 423 439 pix_texture;
#X obj 156 8 r panneauxHead;
#X obj 426 384 separator;
#X msg 547 389 quality \$1;
#X obj 547 366 tgl 15 0 empty empty empty 17 7 0 10 -262144 -1 -1 0
1;
#X floatatom 339 163 5 0 0 0 - - -;
#X floatatom 296 210 5 0 0 0 - - -;
#X obj 156 208 rotateXYZ 90 180 0;
#X floatatom 507 476 5 0 0 0 - - -;
#X obj 414 35 r fromNet;
#X obj 413 54 route \$3;
#X obj 414 76 s panneau\$1-rcv;
#X obj 384 289 translate -4 0 0 1;
#X obj 156 264 pix_texture;
#X obj 384 265 gemframebuffer;
#X obj 384 141 r prehead;
#X floatatom 438 353 5 0 0 0 - - -;
#X floatatom 489 355 5 0 0 0 - - -;
#X obj 419 193 loadbang;
#X msg 412 221 format RGBA;
#X obj 398 322 scaleXYZ 8 16 1;
#X obj 554 291 translate -4 0 0 1;
#X obj 553 265 gemframebuffer;
#X obj 745 64 loadbang;
#X msg 715 202 format RGBA;
#X obj 384 168 t a a;
#X obj 553 224 t a b;
#X msg 595 219 0;
#X msg 586 179 1;
#X obj 560 139 del 5;
#X obj 966 362 pix_image img/Gratin\$2.png;
#X obj 974 402 pix_texture;
#X obj 716 238 separator;
#X msg 1082 407 quality \$1;
#X obj 1086 380 tgl 15 0 empty empty empty 17 7 0 10 -262144 -1 -1
0 1;
#X floatatom 552 553 5 0 0 0 - - -;
#X obj 568 68 r panneau\$1-updateBG;
#X obj 499 592 s panneau\$1-headBG;
#X floatatom 1041 425 5 0 0 0 - - -;
#X obj 532 87 bng 15 250 50 0 empty empty empty 17 7 0 10 -262144 -1
-1;
#X obj 620 218 ||;
#X obj 642 160 tgl 15 0 empty empty empty 17 7 0 10 -262144 -1 -1 0
1;
#X floatatom 522 433 5 0 0 0 - - -;
#X obj 620 195 t b f;
#X obj 423 465 rectangle 4 4;
#X floatatom 276 300 5 0 0 0 - - -;
#X floatatom 806 431 5 0 0 0 - - -;
#X obj 944 430 rectangle 5 3;
#X floatatom 278 329 5 0 0 0 - - -;
#X obj 553 204 spigot 1;
#X obj 345 100 print;
#X obj 172 346 r panneau\$1-rcv;
#X obj 172 367 route instru;
#X obj 171 445 symbol;
#X symbolatom 291 410 10 0 0 0 - - -;
#X obj 171 467 pack s \$1;
#X msg 171 492 \; \$1-rcv panneau \$2;
#X obj 544 47 r panneauALL-updateBG;
#X obj 621 345 t a a a;
#X obj 665 495 t a a;
#X obj 669 642 text3d;
#X obj 815 513 loadbang;
#X obj 665 566 translateXYZ 0 0 0.001;
#X floatatom 790 494 5 0 0 0 - - -;
#X obj 692 518 colorRGB 0 0 0 0.9;
#X obj 640 416 separator;
#X floatatom 743 410 5 0 0 0 - - -;
#X msg 877 622 20;
#X msg 304 490 text \$1;
#X msg 799 584 text ?;
#X floatatom 833 473 5 0 0 0 - - -;
#X obj 692 541 rectangle 3 0.8;
#X obj 172 389 route bang;
#X msg 172 414 symbol;
#X obj 384 355 t a a a;
#N canvas 1 92 427 201 BOUTONS 0;
#X obj 51 35 inlet;
#X obj 51 57 separator;
#X obj 52 155 bouton \$1 1;
#X floatatom 132 50 5 0 0 0 - - -;
#X obj 127 155 bouton \$1 2;
#X obj 202 154 bouton \$1 3;
#X obj 278 155 bouton \$1 4;
#X obj 52 119 scaleXYZ 0.35 0.35 0.4;
#X obj 56 89 translate 0.37 0 1 0;
#X connect 0 0 1 0;
#X connect 1 0 8 0;
#X connect 3 0 8 1;
#X connect 7 0 2 0;
#X connect 7 0 4 0;
#X connect 7 0 5 0;
#X connect 7 0 6 0;
#X connect 8 0 7 0;
#X restore 403 488 pd BOUTONS;
#X obj 835 361 pix_texture;
#X obj 840 200 t a a;
#X obj 867 229 colorRGB 0 0 0 1;
#X obj 835 336 pix_image img/rounded.png;
#X obj 836 389 rectangle 4 3;
#X obj 820 299 translate 0.001 0 0 1;
#X obj 820 277 scaleXYZ 0.96 0.96 0.96;
#X obj 839 154 translate -0.001 0 0 1;
#X floatatom 696 421 5 0 0 0 - - -;
#X floatatom 1106 514 5 0 0 0 - - -;
#X obj 965 578 t a a;
#X obj 965 601 translateXYZ 0 0 0.001;
#X floatatom 1103 582 5 0 0 0 - - -;
#X obj 1151 527 colorRGB 0 0 0 0.9;
#X obj 955 465 separator;
#X floatatom 1043 493 5 0 0 0 - - -;
#X obj 1151 550 rectangle 3 0.8;
#X floatatom 996 504 5 0 0 0 - - -;
#X obj 962 698 text3d;
#X msg 847 660 text Roger;
#X obj 960 669 colorRGB 0 1 0 1;
#N canvas 1 102 450 300 robinets 0;
#X obj 107 22 inlet;
#X obj 105 56 robinet \$1 1 1 -1.8 0.8;
#X obj 107 80 robinet \$1 2 2 -1.8 -0.6;
#X obj 107 123 robinet \$1 4 4 1.8 0.8;
#X obj 107 143 robinet \$1 5 5 1.8 -0.8;
#X obj 107 101 robinet \$1 3 3 0 -0.27;
#X connect 0 0 1 0;
#X connect 1 0 2 0;
#X connect 2 0 5 0;
#X connect 3 0 4 0;
#X connect 5 0 3 0;
#X restore 384 569 pd robinets;
#X obj 820 254 colorRGB 0.4 0.2 0.1 1;
#X obj 499 572 translateXYZ 0 0.18 0.005;
#X floatatom 251 36 5 0 0 0 - - -;
#X obj 274 12 r panneaux-alpha;
#X obj 156 79 colorRGB 1 1 1 0.9;
#X obj 289 427 nomInstrus;
#X symbolatom 308 452 10 0 0 0 - - -;
#X msg 814 563 font fonts/pricedown.ttf;
#X floatatom 1073 673 5 0 0 0 - - -;
#X msg 699 143 dimen \$1 \$1;
#X msg 707 115 512;
#X obj 965 558 scaleXYZ 0.5 0.5 0.5;
#X obj 385 514 separator;
#X obj 427 408 colorRGB 1 1 1 1;
#X obj 385 534 translateXYZ 0 0.18 -0.005;
#X obj 665 475 scaleXYZ 0.35 0.35 0.6;
#X obj 962 533 translateXYZ 0 1.35 0;
#X obj 661 450 translateXYZ 0 0.85 0;
#X obj 667 593 colorRGB 1 0.3 0 1;
#X obj 156 180 translate -0.17 0 0 1;
#X obj 156 299 rectangle 1 1;
#X msg 302 246 quality \$1;
#X obj 304 226 tgl 15 0 empty empty empty 17 7 0 10 -262144 -1 -1 1
1;
#X obj 325 227 loadbang;
#X msg 750 110 1024;
#N canvas 1 251 572 300 colors 0;
#X obj 151 252 s panneau\$1-color;
#X msg 152 227 bouton \$1 \$2 \$3 \, player \$1 \$2 \$3;
#X obj 163 84 f \$1;
#X obj 161 104 sel 0 1 2 3 4 5;
#X obj 164 15 r panneauALL-updateBG;
#X obj 212 46 r panneau\$1-updateBG;
#X obj 164 59 del 5;
#X msg 73 172 0 1 0;
#X obj 124 50 bng 15 250 50 0 empty empty empty 17 7 0 10 -262144 -1
-1;
#X msg 396 176 1 1 0;
#X msg 321 175 1 0.5 0;
#X msg 190 174 0.5 1 0;
#X msg 243 172 0.9 0.5 0.4;
#X msg 114 173 0.5 0.5 0.8;
#X obj 99 14 loadbang;
#X connect 1 0 0 0;
#X connect 2 0 3 0;
#X connect 3 0 7 0;
#X connect 3 1 13 0;
#X connect 3 2 11 0;
#X connect 3 3 12 0;
#X connect 3 4 10 0;
#X connect 3 5 9 0;
#X connect 4 0 6 0;
#X connect 6 0 2 0;
#X connect 7 0 1 0;
#X connect 8 0 2 0;
#X connect 9 0 1 0;
#X connect 10 0 1 0;
#X connect 11 0 1 0;
#X connect 12 0 1 0;
#X connect 13 0 1 0;
#X connect 14 0 6 0;
#X restore 949 86 pd colors;
#X obj 1052 208 r panneau\$1-color;
#X obj 1053 231 route player;
#X obj 984 634 unpack f f f;
#X obj 729 679 list prepend text;
#X obj 729 699 list trim;
#X obj 727 656 r panneau\$1-prenom;
#X obj 602 691 s panneau\$1-updateBG;
#X obj 560 110 b;
#X connect 0 0 5 1;
#X connect 1 0 5 1;
#X connect 2 0 6 1;
#X connect 3 0 125 1;
#X connect 4 0 110 0;
#X connect 5 0 6 0;
#X connect 6 0 125 0;
#X connect 7 0 0 0;
#X connect 8 0 52 0;
#X connect 9 0 4 0;
#X connect 10 0 119 0;
#X connect 11 0 8 0;
#X connect 12 0 11 0;
#X connect 13 0 15 1;
#X connect 14 0 15 2;
#X connect 15 0 21 0;
#X connect 16 0 107 2;
#X connect 16 0 120 2;
#X connect 17 0 18 0;
#X connect 18 0 19 0;
#X connect 20 0 82 0;
#X connect 21 0 126 0;
#X connect 22 0 20 0;
#X connect 22 1 21 1;
#X connect 23 0 33 0;
#X connect 24 0 28 1;
#X connect 25 0 28 2;
#X connect 26 0 27 0;
#X connect 27 0 22 0;
#X connect 29 0 66 0;
#X connect 30 0 29 0;
#X connect 30 1 8 1;
#X connect 31 0 32 0;
#X connect 31 0 130 0;
#X connect 32 0 30 0;
#X connect 33 0 22 0;
#X connect 33 1 57 0;
#X connect 34 0 30 0;
#X connect 34 1 35 0;
#X connect 35 0 48 0;
#X connect 36 0 57 1;
#X connect 37 0 36 0;
#X connect 38 0 39 0;
#X connect 39 0 55 0;
#X connect 40 0 91 0;
#X connect 41 0 39 0;
#X connect 42 0 41 0;
#X connect 43 0 107 1;
#X connect 44 0 139 0;
#X connect 46 0 55 1;
#X connect 46 0 55 2;
#X connect 47 0 37 0;
#X connect 48 0 57 1;
#X connect 49 0 51 0;
#X connect 50 0 52 1;
#X connect 50 0 52 2;
#X connect 51 0 48 0;
#X connect 51 1 48 1;
#X connect 53 0 126 2;
#X connect 54 0 55 1;
#X connect 56 0 126 1;
#X connect 57 0 34 0;
#X connect 59 0 60 0;
#X connect 60 0 80 0;
#X connect 61 0 63 0;
#X connect 61 0 62 0;
#X connect 61 0 111 0;
#X connect 63 0 64 0;
#X connect 65 0 139 0;
#X connect 66 0 107 0;
#X connect 66 1 73 0;
#X connect 66 1 98 0;
#X connect 66 2 40 0;
#X connect 67 0 70 0;
#X connect 69 0 77 0;
#X connect 69 0 75 0;
#X connect 69 0 113 0;
#X connect 69 0 103 0;
#X connect 70 0 124 0;
#X connect 71 0 72 4;
#X connect 72 0 79 0;
#X connect 73 0 123 0;
#X connect 74 0 123 2;
#X connect 75 0 68 1;
#X connect 76 0 68 0;
#X connect 77 0 68 0;
#X connect 78 0 79 1;
#X connect 80 0 81 0;
#X connect 80 1 61 0;
#X connect 81 0 61 0;
#X connect 82 0 10 0;
#X connect 82 1 83 0;
#X connect 82 2 118 0;
#X connect 84 0 88 0;
#X connect 85 0 106 0;
#X connect 85 1 86 0;
#X connect 86 0 87 0;
#X connect 87 0 84 0;
#X connect 89 0 87 0;
#X connect 90 0 89 0;
#X connect 92 0 123 1;
#X connect 94 0 95 0;
#X connect 95 0 104 0;
#X connect 96 0 97 4;
#X connect 97 0 100 0;
#X connect 98 0 122 0;
#X connect 99 0 122 2;
#X connect 101 0 122 1;
#X connect 103 0 102 0;
#X connect 104 0 102 0;
#X connect 106 0 90 0;
#X connect 107 0 45 0;
#X connect 108 0 110 4;
#X connect 109 0 110 4;
#X connect 110 0 5 0;
#X connect 111 0 112 0;
#X connect 111 0 76 0;
#X connect 113 0 68 0;
#X connect 113 0 102 0;
#X connect 114 0 104 4;
#X connect 115 0 30 0;
#X connect 115 0 22 0;
#X connect 116 0 115 0;
#X connect 117 0 94 0;
#X connect 118 0 120 0;
#X connect 119 0 8 0;
#X connect 120 0 105 0;
#X connect 121 0 67 0;
#X connect 122 0 117 0;
#X connect 123 0 121 0;
#X connect 124 0 68 0;
#X connect 125 0 15 0;
#X connect 127 0 21 0;
#X connect 128 0 127 0;
#X connect 129 0 128 0;
#X connect 130 0 115 0;
#X connect 132 0 133 0;
#X connect 133 0 134 0;
#X connect 134 0 104 1;
#X connect 134 1 104 2;
#X connect 134 2 104 3;
#X connect 135 0 136 0;
#X connect 136 0 102 0;
#X connect 137 0 135 0;
#X connect 137 0 138 0;
#X connect 139 0 37 0;
