#N canvas 1718 497 450 300 10;
#X text 35 9 prenom numpanneau;
#X symbolatom 107 116 10 0 0 0 - - panneau#1-prenom;
#X obj 102 133 cnv 15 120 40 empty \$0-prenom Henry 5 20 0 25 -233017
-1 0;
#X obj 103 177 cnv 15 120 40 empty \$0-instru Rythmic3 5 20 0 22 -257985
-1 0;
#X obj 264 30 r panneau\$1-prenom;
#X msg 264 52 label \$1;
#X obj 263 73 s \$0-prenom;
#X obj 263 123 r panneau\$1-rcv;
#X obj 263 144 route instru;
#X msg 264 209 label \$1;
#X obj 265 164 symbol;
#X obj 263 230 s \$0-instru;
#X obj 263 188 nomInstrus;
#X connect 4 0 5 0;
#X connect 5 0 6 0;
#X connect 7 0 8 0;
#X connect 8 0 10 0;
#X connect 9 0 11 0;
#X connect 10 0 12 0;
#X connect 12 0 9 0;
#X coords 0 -1 1 1 124 120 1 100 100;
