#N canvas 129 173 789 602 10;
#X obj 75 40 nbx 6 14 -100 100 0 0 \$1-\$2-tx-snd \$1-\$2-tx-rcv tx
-15 8 0 10 -262144 -1 -1 0 256;
#X obj 75 56 nbx 6 14 -100 100 0 0 \$1-\$2-ty-snd \$1-\$2-ty-rcv ty
-15 8 0 10 -262144 -1 -1 85 256;
#X obj 226 38 apf \$1 \$2-tx \$1-\$2-tx;
#X obj 226 57 apf \$1 \$2-ty \$1-\$2-ty;
#X obj 376 37 r \$1-\$2-tx-snd;
#X obj 376 171 s \$1\$2Shader;
#X obj 415 59 r \$1-\$2-ty-snd;
#X obj 376 128 pack f f;
#X msg 376 149 Pt \$1 \$2;
#X obj 394 106 t b f;
#X obj 415 84 / 200;
#X obj 376 61 / 200;
#X obj 455 123 b;
#X obj 455 170 s \$1\$2Shader-ctrlSel;
#X obj 604 25 r \$1\$2Shader-ctrlSel;
#X obj 604 93 change;
#X obj 615 46 r \$1Shader-ctrlUnSel;
#X msg 615 67 0;
#X obj 604 155 s \$1\$2Shader;
#X msg 604 116 controlSel \$1;
#X obj 692 87 != 0;
#X msg 691 129 controlR \$1;
#X obj 374 332 s \$1\$2Shader;
#X obj 374 289 pack f f;
#X obj 392 267 t b f;
#X obj 413 245 / 200;
#X obj 374 222 / 200;
#X obj 453 284 b;
#X obj 453 331 s \$1\$2Shader-ctrlSel;
#X obj 225 86 apf \$1 \$2-lx \$1-\$2-lx;
#X obj 225 105 apf \$1 \$2-ly \$1-\$2-ly;
#X obj 374 198 r \$1-\$2-lx-snd;
#X obj 413 220 r \$1-\$2-ly-snd;
#X obj 374 496 s \$1\$2Shader;
#X obj 374 453 pack f f;
#X obj 392 431 t b f;
#X obj 413 409 / 200;
#X obj 374 386 / 200;
#X obj 453 448 b;
#X obj 453 495 s \$1\$2Shader-ctrlSel;
#X obj 224 130 apf \$1 \$2-rx \$1-\$2-rx;
#X obj 224 149 apf \$1 \$2-ry \$1-\$2-ry;
#X obj 374 362 r \$1-\$2-rx-snd;
#X obj 413 384 r \$1-\$2-ry-snd;
#X obj 38 75 nbx 6 14 -100 100 0 0 \$1-\$2-lx-snd \$1-\$2-lx-rcv lx
-15 8 0 10 -262144 -1 -1 -88 256;
#X obj 38 91 nbx 6 14 -100 100 0 0 \$1-\$2-ly-snd \$1-\$2-ly-rcv ly
-15 8 0 10 -262144 -1 -1 -23.4 256;
#X obj 124 75 nbx 6 14 -100 100 0 0 \$1-\$2-rx-snd \$1-\$2-rx-rcv rx
-15 8 0 10 -262144 -1 -1 88 256;
#X obj 124 91 nbx 6 14 -100 100 0 0 \$1-\$2-ry-snd \$1-\$2-ry-rcv ry
-15 8 0 10 -262144 -1 -1 -23.4 256;
#X obj 62 127 nbx 6 14 -100 100 0 0 \$1-\$2-camx-snd \$1-\$2-camx-rcv
camx -25 8 0 10 -262130 -1 -1 0 256;
#X obj 62 144 nbx 6 14 -1000 1000 0 0 \$1-\$2-camy-snd \$1-\$2-camy-rcv
camy -25 8 0 10 -262130 -1 -1 15 256;
#X obj 62 161 nbx 6 14 0 1000 0 0 \$1-\$2-camz-snd \$1-\$2-camz-rcv
camz -25 8 0 10 -262130 -1 -1 170 256;
#X obj 125 402 t b f;
#X obj 165 403 t b f;
#X obj 98 428 pack f f f;
#X obj 207 180 apf \$1 \$2-camx \$1-\$2-camx;
#X obj 206 200 apf \$1 \$2-camy \$1-\$2-camy;
#X obj 206 221 apf \$1 \$2-camz \$1-\$2-camz;
#X obj 89 250 r \$1-\$2-camx-snd;
#X obj 126 271 r \$1-\$2-camy-snd;
#X obj 186 290 r \$1-\$2-camz-snd;
#X msg 98 453 campos \$1 \$2 \$3;
#X obj 98 473 s \$1\$2Shader;
#X obj 186 311 / 1000;
#X obj 187 334 pow 3;
#X obj 188 356 * 100;
#X obj 188 376 + 0.3;
#X obj 126 161 nbx 5 14 -1e+37 1e+37 0 0 empty empty empty 0 -8 0 10
-262144 -1 -1 0.7913 256;
#X obj 89 273 / 50;
#X obj 126 293 / 50;
#X obj 208 6 r \$1\$2ShaderLoaded;
#X msg 374 310 Pr \$1 \$2;
#X msg 374 474 Pl \$1 \$2;
#X obj 692 109 * 0.01;
#X msg 455 145 1;
#X msg 453 306 3;
#X msg 453 470 2;
#X obj 61 -67 r \$1ShaderReset;
#X msg 72 -30 0;
#X msg 30 -32 -23.4;
#X msg 1 -31 170;
#X msg 107 -29 15;
#X obj 43 25 * -1;
#X msg 145 -28 88;
#X msg 176 -26 85;
#X connect 4 0 11 0;
#X connect 6 0 10 0;
#X connect 7 0 8 0;
#X connect 7 0 12 0;
#X connect 8 0 5 0;
#X connect 9 0 7 0;
#X connect 9 1 7 1;
#X connect 10 0 9 0;
#X connect 11 0 7 0;
#X connect 12 0 73 0;
#X connect 14 0 15 0;
#X connect 15 0 19 0;
#X connect 15 0 20 0;
#X connect 16 0 17 0;
#X connect 17 0 15 0;
#X connect 19 0 18 0;
#X connect 20 0 72 0;
#X connect 21 0 18 0;
#X connect 23 0 70 0;
#X connect 23 0 27 0;
#X connect 24 0 23 0;
#X connect 24 1 23 1;
#X connect 25 0 24 0;
#X connect 26 0 23 0;
#X connect 27 0 74 0;
#X connect 31 0 26 0;
#X connect 32 0 25 0;
#X connect 34 0 71 0;
#X connect 34 0 38 0;
#X connect 35 0 34 0;
#X connect 35 1 34 1;
#X connect 36 0 35 0;
#X connect 37 0 34 0;
#X connect 38 0 75 0;
#X connect 42 0 37 0;
#X connect 43 0 36 0;
#X connect 51 0 53 0;
#X connect 51 1 53 1;
#X connect 52 0 53 0;
#X connect 52 1 53 2;
#X connect 53 0 60 0;
#X connect 57 0 67 0;
#X connect 58 0 68 0;
#X connect 59 0 62 0;
#X connect 60 0 61 0;
#X connect 62 0 63 0;
#X connect 63 0 64 0;
#X connect 64 0 65 0;
#X connect 65 0 52 0;
#X connect 65 0 66 0;
#X connect 67 0 53 0;
#X connect 68 0 51 0;
#X connect 69 0 0 0;
#X connect 69 0 1 0;
#X connect 69 0 44 0;
#X connect 69 0 45 0;
#X connect 69 0 46 0;
#X connect 69 0 47 0;
#X connect 69 0 48 0;
#X connect 69 0 49 0;
#X connect 69 0 50 0;
#X connect 70 0 22 0;
#X connect 71 0 33 0;
#X connect 72 0 21 0;
#X connect 73 0 13 0;
#X connect 74 0 28 0;
#X connect 75 0 39 0;
#X connect 76 0 77 0;
#X connect 76 0 78 0;
#X connect 76 0 79 0;
#X connect 76 0 80 0;
#X connect 76 0 82 0;
#X connect 76 0 83 0;
#X connect 77 0 0 0;
#X connect 77 0 48 0;
#X connect 78 0 45 0;
#X connect 78 0 47 0;
#X connect 79 0 50 0;
#X connect 80 0 49 0;
#X connect 81 0 44 0;
#X connect 82 0 81 0;
#X connect 82 0 46 0;
#X connect 83 0 1 0;
#X coords 0 -1 1 1 170 170 1 20 20;
