#N canvas 414 216 521 399 10;
#X obj 218 182 vsl 15 128 0 127 0 0 empty empty empty 0 -8 0 8 -262144
-1 -1 0 0;
#X obj 27 67 hradio 15 1 0 5 empty empty empty 0 -6 0 8 -262144 -1
-1 3;
#N canvas 780 291 445 299 preset 0;
#X msg 36 193 setK 0.05 \, setD 0 \, setD2 30;
#X msg 55 166 setK 1 \, setD 0 \, setD2 30;
#X msg 75 138 setK 1 \, setD 0 \, setD2 200;
#X obj 36 16 inlet;
#X obj 115 254 outlet;
#X obj 36 43 sel 2 1 0 3 4;
#X msg 115 78 setK 3000 \, setD 1000 \, setD2 5000;
#X msg 241 147 setK 300 \, setD 300 \, setD2 5;
#X msg 97 107 setK 20 \, setD 100 \, setD2 10;
#X connect 0 0 4 0;
#X connect 1 0 4 0;
#X connect 2 0 4 0;
#X connect 3 0 5 0;
#X connect 5 0 0 0;
#X connect 5 1 1 0;
#X connect 5 2 2 0;
#X connect 5 3 8 0;
#X connect 5 4 6 0;
#X connect 6 0 4 0;
#X connect 8 0 4 0;
#X restore 27 88 pd preset;
#X obj 198 182 vsl 15 128 0 127 0 0 empty empty empty 0 -8 0 8 -262144
-1 -1 0 0;
#X obj 31 136 link \$0-link 0 1 0 200;
#X obj 218 136 mass \$0-mass 10000 0;
#X obj 192 38 inlet;
#X obj 259 193 outlet;
#X obj 28 17 loadbang;
#X obj 346 73 s \$0-link;
#X obj 311 48 t b b;
#X obj 311 99 s \$0-mass;
#X obj 387 -4 bng 15 250 50 0 empty empty empty 0 -6 0 8 -262144 -1
-1;
#X msg 422 68 reset;
#X msg 387 42 resetL \, resetF;
#X obj 387 16 t b b;
#X msg 30 40 3;
#X obj 310 19 inlet;
#X obj 111 8 init \$1;
#X obj 110 30 route float;
#X connect 1 0 2 0;
#X connect 2 0 4 0;
#X connect 3 0 4 0;
#X connect 4 1 5 0;
#X connect 5 0 0 0;
#X connect 5 0 4 1;
#X connect 5 0 7 0;
#X connect 6 0 4 0;
#X connect 8 0 16 0;
#X connect 10 0 11 0;
#X connect 10 1 9 0;
#X connect 12 0 15 0;
#X connect 13 0 11 0;
#X connect 14 0 9 0;
#X connect 15 0 14 0;
#X connect 15 1 13 0;
#X connect 17 0 10 0;
#X connect 18 0 19 0;
#X connect 19 0 1 0;
