#N canvas 409 177 807 554 10;
#X obj 23 19 inlet head;
#X obj 23 53 t a a;
#X obj 23 432 outlet;
#X obj 136 95 separator;
#X obj 136 155 translateXYZ \$4 \$5 0;
#X obj 313 256 pix_texture;
#X obj 297 279 rotate 0 0 0 1;
#X obj 313 234 pix_image img/Robinet\$3.png;
#X floatatom 386 254 5 0 0 0 - - -;
#X floatatom 205 71 5 0 0 0 - - -;
#X floatatom 249 71 5 0 0 0 - - -;
#X obj 465 115 t a a;
#X obj 298 201 separator;
#X obj 87 212 separator;
#X floatatom 148 259 5 0 0 0 - - -;
#X floatatom 194 254 5 0 0 0 - - -;
#X obj 87 332 t a a;
#X obj 136 125 colorRGB 1 1 1 1;
#X msg 187 442 text Note;
#X obj 156 505 text3d;
#X obj 343 358 translate 0.001 0 0 1;
#X obj 230 418 loadbang;
#X msg 358 429 font fonts/weathers.ttf;
#X floatatom 205 529 5 0 0 0 - - -;
#X msg 265 480 15;
#X msg 370 454 font fonts/pricedown.ttf;
#X msg 367 475 font fonts/foo.ttf;
#X msg 368 495 font fonts/psy.ttf;
#X msg 374 518 font fonts/baltar.ttf;
#X msg 261 447 text Volume;
#X obj 346 70 r panneau\$1-rcv;
#X obj 346 90 route b\$2;
#X floatatom 469 173 5 0 0 0 - - -;
#X obj 409 175 * -270;
#X obj 346 124 route label;
#X msg 346 174 text \$1;
#X obj 346 149 symbol;
#X text 137 8 robinet numPanneau numBouton numImage posx poy labelx
labely;
#X floatatom 45 267 5 0 0 0 - - -;
#X obj 87 403 translateXYZ 0 0 0.001;
#X obj 87 188 r panneau\$1-headBG;
#X obj 515 199 s panneau\$1-updateBG;
#X obj 515 178 b;
#X obj 87 236 translateXYZ \$4 \$5 0;
#X floatatom 402 282 5 0 0 0 - - -;
#X obj 522 142 bng 15 250 50 0 empty empty empty 17 7 0 10 -262144
-1 -1;
#X floatatom 257 353 5 0 0 0 - - -;
#X floatatom 264 376 5 0 0 0 - - -;
#X obj 296 327 rectangle 0.7 0.7;
#X obj 114 378 rectangle 2.15 0.55;
#X floatatom 240 248 5 0 0 0 - - -;
#X floatatom 203 323 5 0 0 0 - - -;
#X obj 114 355 colorRGB 0 0 0 0.9;
#X obj 507 274 t a a;
#X obj 567 292 separator;
#X obj 504 316 separator;
#X obj 701 453 circle 0.7;
#X obj 534 438 colorRGB 1 0 0 1;
#X obj 467 77 hsl 128 15 0 1 0 0 empty empty empty -2 -8 0 10 -262144
-1 -1 8000 1;
#X obj 408 196 + 220;
#X obj 535 480 rectangle 0.35 0.1;
#X obj 87 312 scaleXYZ 0.4 0.4 0.4;
#X obj 100 269 translateXYZ \$6 \$7 0.001;
#X obj 507 250 scaleXYZ 0.4 0.4 0.45;
#X floatatom 635 276 5 0 0 0 - - -;
#X floatatom 642 294 5 0 0 0 - - -;
#X floatatom 642 312 5 0 0 0 - - -;
#X obj 639 327 colorRGB 0 1 0 1;
#X obj 92 461 colorRGB 0.8 0.8 0.8 1;
#X obj 643 396 model Bouton.obj;
#X obj 755 318 GEMglLineWidth 4;
#X obj 642 350 rotateXYZ 90 -90 0;
#X floatatom 569 378 5 0 0 0 - - -;
#X floatatom 649 438 5 0 0 0 - - -;
#X floatatom 722 254 5 1 100 0 - - -;
#X obj 87 290 translateXYZ 0 -0.4 0.001;
#X obj 534 459 translate 0.63 1 0 0;
#X obj 503 347 translateXYZ 0 0 0.4;
#X obj 604 126 r panneau\$1-color;
#X obj 605 149 route bouton;
#X obj 674 293 unpack f f f;
#X connect 0 0 1 0;
#X connect 1 0 2 0;
#X connect 1 1 3 0;
#X connect 3 0 17 0;
#X connect 4 0 12 0;
#X connect 5 0 6 0;
#X connect 6 0 63 0;
#X connect 7 0 5 0;
#X connect 8 0 6 1;
#X connect 9 0 4 1;
#X connect 9 0 43 1;
#X connect 10 0 4 2;
#X connect 10 0 43 2;
#X connect 12 0 6 0;
#X connect 13 0 43 0;
#X connect 14 0 75 1;
#X connect 15 0 75 2;
#X connect 16 0 39 0;
#X connect 17 0 4 0;
#X connect 18 0 19 0;
#X connect 21 0 18 0;
#X connect 21 0 24 0;
#X connect 21 0 25 0;
#X connect 22 0 19 0;
#X connect 23 0 19 1;
#X connect 24 0 19 1;
#X connect 25 0 19 0;
#X connect 26 0 19 0;
#X connect 27 0 19 0;
#X connect 28 0 19 0;
#X connect 29 0 19 0;
#X connect 30 0 31 0;
#X connect 31 0 34 0;
#X connect 33 0 59 0;
#X connect 34 0 36 0;
#X connect 34 0 42 0;
#X connect 34 1 33 0;
#X connect 35 0 19 0;
#X connect 36 0 35 0;
#X connect 38 0 61 1;
#X connect 38 0 61 2;
#X connect 39 0 68 0;
#X connect 40 0 13 0;
#X connect 42 0 41 0;
#X connect 43 0 75 0;
#X connect 44 0 48 1;
#X connect 44 0 48 2;
#X connect 45 0 42 0;
#X connect 46 0 49 1;
#X connect 47 0 49 2;
#X connect 50 0 75 3;
#X connect 51 0 52 4;
#X connect 52 0 49 0;
#X connect 53 0 55 0;
#X connect 53 1 54 0;
#X connect 54 0 67 0;
#X connect 55 0 77 0;
#X connect 57 0 76 0;
#X connect 58 0 33 0;
#X connect 59 0 6 1;
#X connect 61 0 16 0;
#X connect 63 0 53 0;
#X connect 64 0 67 1;
#X connect 65 0 67 2;
#X connect 66 0 67 3;
#X connect 67 0 71 0;
#X connect 68 0 19 0;
#X connect 71 0 69 0;
#X connect 72 0 77 3;
#X connect 73 0 76 1;
#X connect 74 0 70 1;
#X connect 75 0 61 0;
#X connect 76 0 60 0;
#X connect 77 0 57 0;
#X connect 78 0 79 0;
#X connect 79 0 80 0;
#X connect 80 0 67 1;
#X connect 80 1 67 2;
#X connect 80 2 67 3;
