#N canvas 178 263 712 464 10;
#X obj 92 28 inlet;
#X obj 93 65 separator;
#X obj 93 97 translate 0 1 0 0;
#X obj 243 12 loadbang;
#X obj 241 33 bng 15 250 50 0 empty empty empty 17 7 0 10 -262144 -1
-1;
#X floatatom 172 64 5 0 0 0 - - -;
#X obj 244 54 f \$2;
#X obj 93 197 colorRGB 1 1 1 1;
#X obj 244 96 * 2.2;
#X obj 244 75 - 4.5;
#X obj 332 28 r \$1-rcv;
#X obj 332 50 route tab nd step;
#X obj 438 80 unpack f f;
#X floatatom 295 96 5 0 0 0 - - -;
#X obj 342 77 unpack f f;
#X floatatom 377 105 5 0 0 0 - - -;
#X obj 332 192 &;
#X obj 350 122 init \$2;
#X msg 351 145 1 \$1;
#X obj 352 168 <<;
#X obj 441 131 == \$2;
#X obj 348 103 bng 15 250 50 0 empty empty empty 17 7 0 10 -262144
-1 -1;
#X floatatom 365 200 5 0 0 0 - - -;
#X obj 331 213 == 0;
#X obj 441 108 - 1;
#X obj 404 132 > \$2;
#X obj 440 154 change;
#X obj 397 153 change;
#X obj 405 242 t b f;
#X obj 444 177 t b f;
#X obj 396 266 +;
#X obj 458 227 +;
#X floatatom 523 259 5 0 0 0 - - -;
#X obj 584 317 - 4;
#X obj 584 337 sel 0 1 2 3;
#X obj 371 409 t a;
#X obj 123 158 unpack f f f;
#X obj 318 298 loadbang;
#X msg 677 365 1 1 0;
#X msg 595 365 0 1 0;
#X msg 498 360 1 0 0;
#X obj 93 233 rectangle 0.9 0.9;
#X obj 400 180 * 2;
#X obj 330 235 * 1;
#X obj 395 287 sel 0 1 2 3;
#X msg 403 358 0.5 0.5 0.5;
#X msg 322 359 0.1 0.1 0.1;
#X obj 214 156 r panneaux-alpha;
#X connect 0 0 1 0;
#X connect 1 0 2 0;
#X connect 2 0 7 0;
#X connect 3 0 4 0;
#X connect 4 0 6 0;
#X connect 5 0 2 1;
#X connect 6 0 9 0;
#X connect 7 0 41 0;
#X connect 8 0 2 1;
#X connect 9 0 8 0;
#X connect 10 0 11 0;
#X connect 11 0 13 0;
#X connect 11 0 16 0;
#X connect 11 1 14 0;
#X connect 11 2 12 0;
#X connect 12 0 24 0;
#X connect 14 1 15 0;
#X connect 14 1 25 0;
#X connect 16 0 23 0;
#X connect 17 0 18 0;
#X connect 18 0 19 0;
#X connect 19 0 16 1;
#X connect 19 0 22 0;
#X connect 20 0 26 0;
#X connect 21 0 17 0;
#X connect 23 0 43 0;
#X connect 24 0 20 0;
#X connect 25 0 27 0;
#X connect 26 0 29 0;
#X connect 27 0 42 0;
#X connect 28 0 30 0;
#X connect 28 1 30 1;
#X connect 29 0 31 0;
#X connect 29 1 31 1;
#X connect 30 0 44 0;
#X connect 33 0 34 0;
#X connect 34 1 39 0;
#X connect 34 3 38 0;
#X connect 35 0 36 0;
#X connect 36 0 7 1;
#X connect 36 1 7 2;
#X connect 36 2 7 3;
#X connect 37 0 46 0;
#X connect 38 0 35 0;
#X connect 39 0 35 0;
#X connect 40 0 35 0;
#X connect 42 0 28 0;
#X connect 43 0 30 0;
#X connect 44 0 46 0;
#X connect 44 1 46 0;
#X connect 44 2 45 0;
#X connect 44 3 40 0;
#X connect 45 0 35 0;
#X connect 46 0 35 0;
#X connect 47 0 7 4;
