#N canvas 1 58 450 300 10;
#X obj 106 128 cnv 15 100 60 empty empty empty 20 12 0 14 -195568 -66577
0;
#X msg 111 145 create;
#X text 107 124 Create window:;
#N canvas 519 672 448 300 gemwinmon 0;
#X obj 67 89 outlet;
#X obj 67 10 inlet;
#X msg 67 70 set destroy;
#X msg 271 113 destroy;
#X msg 156 71 set create;
#X obj 67 41 route create;
#X msg 311 80 lighting \$1;
#X obj 308 49 tgl 15 0 empty empty empty 17 7 0 10 -262144 -1 -1 0
1;
#X msg 198 32 dimen 1024 768;
#X obj 220 197 gemhead 80;
#X obj 217 227 world_light;
#X floatatom 326 162 5 0 0 0 - - -;
#X msg 334 130 20;
#X msg 319 188 frame \$1;
#X msg 364 132 30;
#X msg 190 10 dimen 1280 1024;
#X msg 132 112 create \, 1 \, view 0 0 3;
#X obj 86 132 tgl 15 0 empty empty empty 17 7 0 10 -262144 -1 -1 0
1;
#X obj 67 190 r \$0-2gemwinmon;
#X obj 132 136 gemwin 20 mon;
#X connect 1 0 5 0;
#X connect 2 0 0 0;
#X connect 3 0 19 0;
#X connect 4 0 0 0;
#X connect 5 0 2 0;
#X connect 5 0 16 0;
#X connect 5 1 4 0;
#X connect 5 1 3 0;
#X connect 6 0 19 0;
#X connect 7 0 6 0;
#X connect 8 0 19 0;
#X connect 11 0 13 0;
#X connect 12 0 11 0;
#X connect 13 0 19 0;
#X connect 14 0 11 0;
#X connect 15 0 19 0;
#X connect 16 0 19 0;
#X connect 17 0 19 0;
#X connect 18 0 19 0;
#X restore 111 167 pd gemwinmon;
#X connect 1 0 3 0;
#X connect 3 0 1 0;
