#N canvas 1393 325 850 326 10;
#X declare -path abs;
#X declare -path shader;
#X declare -path AutoPreset;
#X obj 41 25 cnv 15 100 60 empty empty empty 20 12 0 14 -195568 -66577
0;
#N canvas 40 723 448 300 gemwin 0;
#X obj 132 136 gemwin;
#X obj 67 89 outlet;
#X obj 67 10 inlet;
#X msg 67 70 set destroy;
#X msg 271 113 destroy;
#X msg 156 71 set create;
#X obj 67 41 route create;
#X msg 311 80 lighting \$1;
#X obj 308 49 tgl 15 0 empty empty empty 17 7 0 10 -262144 -1 -1 1
1;
#X msg 198 32 dimen 1024 768;
#X obj 220 197 gemhead 80;
#X obj 217 227 world_light;
#X floatatom 326 162 5 0 0 0 - - -;
#X msg 334 130 20;
#X msg 319 188 frame \$1;
#X msg 364 132 30;
#X msg 190 10 dimen 1280 1024;
#X msg 132 112 create \, 1 \, view 0 0 3;
#X connect 2 0 6 0;
#X connect 3 0 1 0;
#X connect 4 0 0 0;
#X connect 5 0 1 0;
#X connect 6 0 3 0;
#X connect 6 0 17 0;
#X connect 6 1 5 0;
#X connect 6 1 4 0;
#X connect 7 0 0 0;
#X connect 8 0 7 0;
#X connect 9 0 0 0;
#X connect 12 0 14 0;
#X connect 13 0 12 0;
#X connect 14 0 0 0;
#X connect 15 0 12 0;
#X connect 16 0 0 0;
#X connect 17 0 0 0;
#X restore 46 64 pd gemwin;
#X msg 46 42 destroy;
#X text 42 21 Create window:;
#N canvas 1295 266 544 500 perspec 0;
#X obj 90 428 outlet;
#X obj 268 273 t f f;
#X obj 268 298 * -1;
#X obj 90 268 t f f;
#X obj 90 293 * -1;
#X obj 90 367 pack -1 1 -1 1 1 20;
#X msg 90 389 set perspec \$1 \$2 \$3 \$4 \$5 \$6 \, bang;
#X msg 172 453 set perspec \, adddollar 1 \, adddollar 2 \, adddollar
3 \, adddollar 4 \, adddollar 5 \, adddollar 6;
#X floatatom 103 117 5 0.1 5 1 x_wideness - -;
#X floatatom 103 134 5 0.1 5 1 y_wideness - -;
#X floatatom 103 151 5 0 0 1 z_depth - -;
#X obj 360 196 select 1;
#X obj 405 219 t b f f;
#X obj 249 226 t b f f;
#X obj 204 203 select 0;
#X obj 360 218 f 20;
#X obj 204 224 f 1;
#X msg 204 246 set \$1;
#X msg 360 240 set \$1;
#X obj 134 216 t b f f;
#X obj 89 193 select 0;
#X obj 89 214 f 1;
#X msg 89 236 set \$1;
#X obj 328 97 loadbang;
#X obj 328 119 t b b;
#X obj 328 141 t b b b;
#X obj 235 45 inlet;
#X connect 1 0 2 0;
#X connect 1 1 5 3;
#X connect 2 0 5 2;
#X connect 3 0 4 0;
#X connect 3 1 5 1;
#X connect 4 0 5 0;
#X connect 5 0 6 0;
#X connect 6 0 0 0;
#X connect 7 0 0 0;
#X connect 8 0 20 0;
#X connect 9 0 14 0;
#X connect 10 0 11 0;
#X connect 11 0 15 0;
#X connect 11 1 12 0;
#X connect 12 0 5 0;
#X connect 12 1 5 5;
#X connect 12 2 15 1;
#X connect 13 0 5 0;
#X connect 13 1 1 0;
#X connect 13 2 16 1;
#X connect 14 0 16 0;
#X connect 14 1 13 0;
#X connect 15 0 18 0;
#X connect 16 0 17 0;
#X connect 17 0 9 0;
#X connect 18 0 10 0;
#X connect 19 1 3 0;
#X connect 19 2 21 1;
#X connect 20 0 21 0;
#X connect 20 1 19 0;
#X connect 21 0 22 0;
#X connect 22 0 8 0;
#X connect 23 0 24 0;
#X connect 24 0 25 0;
#X connect 24 1 7 0;
#X connect 25 0 21 0;
#X connect 25 1 16 0;
#X connect 25 2 15 0;
#X connect 26 0 8 0;
#X connect 26 0 9 0;
#X coords 0 -1 1 1 100 67 1 100 100;
#X restore 168 32 pd perspec;
#X obj 171 124 gemwin;
#X floatatom 169 12 5 0 0 0 - - -;
#X msg 170 102 perspec -1 1 -1 1 1 83;
#X obj 170 231 r \$0-sceneHead;
#X obj 170 252 separator;
#X obj 139 103 tgl 15 0 empty empty empty 17 7 0 10 -262144 -1 -1 0
1;
#N canvas 1692 82 844 684 SCENE 0;
#X obj 82 34 inlet head;
#X msg 350 282 draw line;
#X msg 356 305 draw fill;
#X floatatom 379 333 5 0 0 0 - - -;
#X msg 28 387 linewidth 4;
#X floatatom 288 392 5 0 0 0 - - -;
#X obj 177 342 colorRGB 1 0 0 0.6;
#X obj 36 256 colorRGB 0 1 0 0.6;
#X obj 36 278 rotateXYZ 90 0 0;
#X obj 36 298 t a a a;
#X obj 174 366 separator;
#X obj 52 321 rotateXYZ 0 120 0;
#X obj -212 64 separator;
#X msg -214 520 draw line;
#X obj 44 229 separator;
#X floatatom -15 536 5 0 0 0 - - -;
#X obj -139 484 separator;
#X obj -134 511 t a a;
#X obj -136 534 rotateXYZ 0 0 90;
#X obj -152 372 colorRGB 0 1 1 0.6;
#X obj 478 312 colorRGB 0 0 1 0.6;
#X obj 475 338 separator;
#X obj 436 390 t a a a;
#X obj 464 481 separator;
#X obj 457 413 rotateXYZ 0 120 0;
#X obj 446 367 rotateXYZ 90 0 0;
#X obj 422 451 rotateXYZ 0 120 0;
#X obj 27 346 rotateXYZ 0 120 0;
#X obj -11 492 loadbang;
#X msg -11 513 10;
#X obj 456 502 translateXYZ 10 0 0;
#X obj 354 257 loadbang;
#X obj -213 492 loadbang;
#N canvas 1415 285 468 458 draw_geos 0;
#X obj 244 159 rotateXYZ;
#X obj 398 109 f;
#X obj 398 158 % 360;
#X obj 398 134 + 1;
#X obj 398 86 metro 50;
#X obj 64 92 color 0.8 0.8 0.8;
#X obj 244 92 color 0.8 0.8 0.8;
#X obj 64 188 cube 0.75;
#X obj 64 157 rotateXYZ 45 0 0;
#X obj 63 259 color 0.8 0.8 0.8;
#X obj 243 259 color 0.8 0.8 0.8;
#X obj 63 308 sphere 0.75 30;
#X obj 398 56 inlet;
#X obj 186 17 inlet;
#X obj 64 53 separator;
#X obj 244 55 separator;
#X obj 63 220 separator;
#X obj 243 222 separator;
#X obj 64 118 translateXYZ 3 3 0;
#X obj 244 117 translateXYZ 3 -3 0;
#X obj 63 285 translateXYZ -3 3 0;
#X obj 243 284 translateXYZ -3 -3 0;
#X obj 244 190 cylinder 0.75;
#X obj 243 310 cube 0.75;
#X obj 402 223 fmod 360;
#X obj 402 243 / 180;
#X obj 402 262 * 3.14159;
#X obj 402 286 cos;
#X obj 403 201 * 10;
#X obj 355 360 f;
#X obj 390 314 + 1;
#X obj 393 381 * -1;
#X obj 394 408 + 1;
#X floatatom 321 215 5 0 0 0 - - -;
#X floatatom 429 365 5 0 0 0 - - -;
#X connect 0 0 22 0;
#X connect 1 0 3 0;
#X connect 2 0 1 1;
#X connect 2 0 0 3;
#X connect 2 0 8 3;
#X connect 2 0 0 2;
#X connect 2 0 28 0;
#X connect 3 0 2 0;
#X connect 4 0 1 0;
#X connect 5 0 18 0;
#X connect 6 0 19 0;
#X connect 8 0 7 0;
#X connect 9 0 20 0;
#X connect 10 0 21 0;
#X connect 12 0 4 0;
#X connect 13 0 17 0;
#X connect 13 0 14 0;
#X connect 13 0 15 0;
#X connect 13 0 16 0;
#X connect 14 0 5 0;
#X connect 15 0 6 0;
#X connect 16 0 9 0;
#X connect 17 0 10 0;
#X connect 18 0 8 0;
#X connect 19 0 0 0;
#X connect 20 0 11 0;
#X connect 21 0 23 0;
#X connect 24 0 25 0;
#X connect 25 0 26 0;
#X connect 26 0 27 0;
#X connect 27 0 30 0;
#X connect 27 0 31 0;
#X connect 28 0 24 0;
#X connect 29 0 21 3;
#X connect 29 0 18 3;
#X connect 30 0 29 0;
#X connect 31 0 32 0;
#X connect 32 0 20 3;
#X connect 32 0 19 3;
#X connect 33 0 22 1;
#X connect 34 0 32 1;
#X connect 34 0 30 1;
#X restore -205 177 pd draw_geos;
#X obj -137 158 tgl 15 1 empty empty empty 17 7 0 10 -262144 -1 -1
1 1;
#X text -124 152 rotate objects;
#X obj 83 57 separator;
#X obj -222 135 rotateXYZ 0 0 0;
#X floatatom -160 109 5 0 0 0 - - -;
#X obj -72 79 f;
#X obj -72 56 metro 50;
#X obj -72 128 fmod 360;
#X obj -72 104 + 0.5;
#X obj 382 31 separator;
#X obj 331 236 colorRGB 1 1 1 1;
#X obj 384 63 colorRGB 1 1 1 1;
#X obj 83 83 t a a a a;
#X obj 375 121 rotateXYZ;
#X obj 355 151 world_light;
#X floatatom 406 92 5 0 0 0 - - -;
#X obj 446 119 rotateXYZ;
#X floatatom 477 90 5 0 0 0 - - -;
#X floatatom 443 89 5 0 0 0 - - -;
#X floatatom 331 70 5 0 0 0 - - -;
#X obj 433 149 world_light;
#X obj 309 125 light;
#X floatatom -96 403 5 0 0 0 - - -;
#X obj -139 337 separator;
#X obj -167 426 translateXYZ 0 0 -1;
#X floatatom -130 401 5 0 0 0 - - -;
#X obj 173 396 scale 1 1 0.005;
#X obj 329 357 sphere 2 24;
#X obj 173 426 cylinder 2 24;
#X msg -19 594 grid \$1;
#X floatatom -13 565 5 0 0 0 - - -;
#X obj 43 150 spigot;
#X obj 91 152 > 0.01;
#X obj 168 133 hsl 128 15 0 1 0 0 empty gridAlpha gridAlpha -2 -8 0
10 -262144 -1 -1 8200 1;
#X obj 40 174 t a a a;
#X obj 165 209 * 0.6;
#X obj -140 574 mesh_square 2 50;
#X floatatom 419 639 5 0 0 0 - - -;
#X obj 107 454 separator;
#X obj 81 572 colorRGB 1 1 1 0.9;
#X obj 131 645 cube 10;
#X floatatom 178 619 5 0 0 0 - - -;
#X msg 244 507 reload;
#X obj 162 491 r \$0-cubetex;
#X obj 99 535 shaderLoad base cube;
#X obj 99 512 pix_texture;
#X obj 299 479 pix_texture;
#X obj 346 457 r \$0-equitex;
#X obj 306 414 separator;
#X obj 102 489 separator;
#X obj 85 615 rotateXYZ;
#X floatatom 108 593 5 0 0 0 - - -;
#X floatatom 149 593 5 0 0 0 - - -;
#X obj 33 651 sphere 10 20;
#X obj 322 645 sphere 10 10;
#X obj 337 565 rotateXYZ;
#X floatatom 360 543 5 0 0 0 - - -;
#X floatatom 455 541 5 0 0 0 - - -;
#X floatatom 406 544 5 0 0 0 - - -;
#X obj 471 600 hsl 128 15 0 1 0 0 empty empty empty -2 -8 0 10 -262144
-1 -1 0 1;
#X floatatom 474 655 5 0 0 0 - - -;
#X obj 466 624 pow 0.5;
#X floatatom 368 587 5 0 0 0 - - -;
#X floatatom 332 501 5 0 0 0 - - -;
#X floatatom 427 499 5 0 0 0 - - -;
#X floatatom 378 502 5 0 0 0 - - -;
#X obj 309 523 translateXYZ;
#X obj 322 622 colorRGB 0.9 0.9 1 0.9;
#X connect 0 0 36 0;
#X connect 1 0 61 0;
#X connect 2 0 61 0;
#X connect 3 0 61 1;
#X connect 5 0 62 1;
#X connect 6 0 10 0;
#X connect 7 0 8 0;
#X connect 8 0 9 0;
#X connect 9 0 27 0;
#X connect 9 1 11 0;
#X connect 9 2 10 0;
#X connect 10 0 60 0;
#X connect 11 0 10 0;
#X connect 12 0 37 0;
#X connect 13 0 70 0;
#X connect 14 0 7 0;
#X connect 15 0 70 1;
#X connect 16 0 17 0;
#X connect 17 0 18 0;
#X connect 17 1 70 0;
#X connect 18 0 70 0;
#X connect 19 0 58 0;
#X connect 20 0 21 0;
#X connect 21 0 25 0;
#X connect 22 0 26 0;
#X connect 22 1 24 0;
#X connect 22 2 23 0;
#X connect 23 0 30 0;
#X connect 24 0 23 0;
#X connect 25 0 22 0;
#X connect 26 0 23 0;
#X connect 27 0 10 0;
#X connect 28 0 29 0;
#X connect 29 0 15 0;
#X connect 31 0 1 0;
#X connect 32 0 13 0;
#X connect 34 0 33 1;
#X connect 34 0 40 0;
#X connect 36 0 46 0;
#X connect 37 0 33 0;
#X connect 38 0 37 3;
#X connect 39 0 42 0;
#X connect 40 0 39 0;
#X connect 41 0 39 1;
#X connect 41 0 37 3;
#X connect 42 0 41 0;
#X connect 43 0 45 0;
#X connect 44 0 61 0;
#X connect 45 0 47 0;
#X connect 45 0 50 0;
#X connect 46 0 12 0;
#X connect 46 1 65 0;
#X connect 46 2 82 0;
#X connect 46 3 43 0;
#X connect 46 3 55 0;
#X connect 47 0 48 0;
#X connect 49 0 47 2;
#X connect 50 0 54 0;
#X connect 51 0 50 2;
#X connect 52 0 50 1;
#X connect 53 0 47 1;
#X connect 56 0 58 3;
#X connect 57 0 19 0;
#X connect 58 0 16 0;
#X connect 59 0 58 1;
#X connect 60 0 62 0;
#X connect 63 0 70 0;
#X connect 64 0 63 0;
#X connect 65 0 68 0;
#X connect 66 0 65 1;
#X connect 67 0 66 0;
#X connect 67 0 44 4;
#X connect 67 0 69 0;
#X connect 68 0 57 0;
#X connect 68 1 6 0;
#X connect 68 1 14 0;
#X connect 68 2 44 0;
#X connect 69 0 7 4;
#X connect 69 0 6 4;
#X connect 69 0 19 4;
#X connect 71 0 88 1;
#X connect 73 0 84 0;
#X connect 75 0 74 1;
#X connect 76 0 78 1;
#X connect 77 0 79 1;
#X connect 78 0 73 0;
#X connect 79 0 78 0;
#X connect 80 0 100 0;
#X connect 81 0 80 1;
#X connect 83 0 79 0;
#X connect 85 0 84 1;
#X connect 86 0 84 3;
#X connect 89 0 101 0;
#X connect 90 0 89 1;
#X connect 91 0 89 3;
#X connect 92 0 89 2;
#X connect 93 0 95 0;
#X connect 95 0 94 0;
#X connect 95 0 101 4;
#X connect 96 0 101 2;
#X connect 96 0 101 1;
#X connect 97 0 100 1;
#X connect 98 0 100 3;
#X connect 99 0 100 2;
#X connect 100 0 89 0;
#X connect 101 0 88 0;
#X restore 170 273 pd SCENE;
#X msg 216 123 view 0 0 3;
#X obj 376 19 tgl 30 0 showScene empty Scene 32 15 0 14 -257985 -1
-1 0 1;
#X obj 376 50 tgl 30 0 showSphere empty Sphere 32 15 0 14 -260097 -1
-1 0 1;
#X obj 376 81 tgl 30 0 showProjs empty Projs 32 15 0 14 -4032 -1 -1
1 1;
#X obj 376 112 hradio 30 1 0 4 showProjsFS empty empty 0 -8 0 10 -4032
-1 -1 1;
#X obj 472 59 hsl 128 15 0 1 0 0 gridAlpha empty gridAlpha -2 -8 0
10 -262144 -1 -1 8200 1;
#N canvas 1930 225 526 528 SphereVisu 0;
#X floatatom 337 270 5 0 0 0 - - -;
#X obj 63 230 rotateXYZ;
#X floatatom 76 203 5 0 0 0 - - -;
#X floatatom 102 184 5 0 0 0 - - -;
#X floatatom 158 220 5 0 0 0 - - -;
#X floatatom 169 122 5 0 0 0 - - -;
#X msg 170 97 4;
#X floatatom 134 121 5 0 0 0 - - -;
#X floatatom 89 117 5 0 0 0 - - -;
#X obj 63 84 separator;
#X obj 305 293 sphere 2 50;
#X msg 488 190 reload;
#X obj 63 144 translateXYZ 0 0 0;
#X obj 64 61 spigot;
#X obj 106 45 tgl 15 0 empty empty empty 17 7 0 10 -262144 -1 -1 0
1;
#X obj 305 208 pix_texture;
#X obj 368 187 r \$0-cubetex;
#X obj 305 183 separator;
#X floatatom 209 323 5 0 0 0 - - -;
#X floatatom 178 342 5 0 0 0 - - -;
#X obj 108 342 separator;
#X obj 107 389 colorRGB 0.05 0.1 0.15 1;
#X obj 107 365 translateXYZ 0 0 -0.8;
#N canvas 1291 330 476 400 pratos 0;
#X obj 138 4 inlet;
#X obj 138 30 separator;
#X floatatom 194 142 5 0 0 0 - - -;
#X floatatom 213 180 5 0 0 0 - - -;
#X floatatom 305 200 5 0 0 0 - - -;
#X obj 148 269 colorRGB 0.3 0.3 0.3 1;
#X obj 148 316 cube 0.3;
#X obj 132 157 translate 3.5 1 0 0;
#X obj 313 362 cube 0.3;
#X floatatom 420 220 5 0 0 0 - - -;
#X obj 314 236 separator;
#X obj 148 245 separator;
#X obj 314 315 colorRGB 1 1 1 0.3;
#X obj 339 260 * 0.5;
#X obj 314 292 translate -0.33 0 0 1;
#X obj 148 223 translate -0.33 0 0 1;
#X obj 132 53 t a a a a a a;
#X obj 132 106 separator;
#X obj 132 85 rotate 60 0 0 1;
#X obj 148 291 scaleXYZ 1 1 0.1;
#X obj 313 337 scaleXYZ 1 1 1;
#X floatatom 271 189 5 0 0 0 - - -;
#X floatatom 165 179 5 0 0 0 - - -;
#X obj 149 200 scaleXYZ 0.6 1.25 1;
#X obj 324 137 * 0.3;
#X obj 320 91 hsl 128 15 0 1 0 0 empty pratos-alpha pratos-alpha -2
-8 0 10 -262144 -1 -1 12700 1;
#X obj 316 23 loadbang;
#X msg 317 44 1;
#X obj 132 128 rotate 30 0 0 1;
#X connect 0 0 1 0;
#X connect 1 0 16 0;
#X connect 2 0 7 1;
#X connect 3 0 23 2;
#X connect 4 0 15 1;
#X connect 5 0 19 0;
#X connect 7 0 23 0;
#X connect 9 0 14 1;
#X connect 10 0 14 0;
#X connect 11 0 5 0;
#X connect 12 0 20 0;
#X connect 13 0 14 1;
#X connect 14 0 12 0;
#X connect 15 0 10 0;
#X connect 15 0 11 0;
#X connect 16 0 18 0;
#X connect 16 1 18 0;
#X connect 16 2 18 0;
#X connect 16 3 18 0;
#X connect 16 4 18 0;
#X connect 16 5 18 0;
#X connect 17 0 28 0;
#X connect 18 0 17 0;
#X connect 19 0 6 0;
#X connect 20 0 8 0;
#X connect 21 0 23 3;
#X connect 22 0 23 1;
#X connect 23 0 15 0;
#X connect 24 0 12 4;
#X connect 25 0 24 0;
#X connect 25 0 5 4;
#X connect 26 0 27 0;
#X connect 27 0 25 0;
#X connect 28 0 7 0;
#X restore 45 348 pd pratos;
#X obj 63 264 t a a a;
#X obj 131 43 r showSphere;
#X obj 305 231 shaderLoad base cubemaptosphere;
#X obj 64 19 gemreceive \$0-posthead 60;
#X floatatom 161 411 5 0 0 0 - - -;
#X obj 107 438 circle 4;
#X obj 246 5 r Visu;
#X obj 246 27 route trans rot;
#X obj 156 74 unpack f f;
#X obj 166 176 unpack f f;
#X floatatom 334 426 5 0 0 0 - - -;
#X obj 302 449 sphere 2 50;
#X msg 485 346 reload;
#X obj 302 339 separator;
#X obj 365 343 r \$0-equitex;
#X obj 302 364 pix_texture;
#X connect 0 0 10 1;
#X connect 1 0 24 0;
#X connect 2 0 1 1;
#X connect 3 0 1 2;
#X connect 4 0 1 3;
#X connect 5 0 12 3;
#X connect 6 0 5 0;
#X connect 7 0 12 2;
#X connect 8 0 12 1;
#X connect 9 0 12 0;
#X connect 11 0 26 1;
#X connect 12 0 1 0;
#X connect 13 0 9 0;
#X connect 14 0 13 1;
#X connect 15 0 26 0;
#X connect 16 0 15 1;
#X connect 17 0 15 0;
#X connect 18 0 22 3;
#X connect 19 0 22 2;
#X connect 20 0 22 0;
#X connect 21 0 29 0;
#X connect 22 0 21 0;
#X connect 24 0 23 0;
#X connect 24 1 20 0;
#X connect 24 2 17 0;
#X connect 25 0 14 0;
#X connect 26 0 10 0;
#X connect 27 0 13 0;
#X connect 28 0 29 1;
#X connect 30 0 31 0;
#X connect 31 0 32 0;
#X connect 31 1 33 0;
#X connect 32 0 12 2;
#X connect 32 1 12 3;
#X connect 33 0 1 1;
#X connect 33 1 1 3;
#X connect 34 0 35 1;
#X connect 37 0 39 0;
#X connect 38 0 39 1;
#X connect 39 0 35 0;
#X restore 168 205 pd SphereVisu;
#X obj 473 23 hsl 128 15 0 1 0 0 pratos-alpha empty pratos-alpha -2
-8 0 10 -262144 -1 -1 12700 1;
#N canvas 2050 203 525 386 SceneVisu 0;
#X floatatom 139 207 5 0 0 0 - - -;
#X floatatom 182 203 5 0 0 0 - - -;
#X floatatom 223 205 5 0 0 0 - - -;
#X floatatom 222 112 5 0 0 0 - - -;
#X floatatom 175 86 5 0 0 0 - - -;
#X floatatom 158 64 5 0 0 0 - - -;
#X obj 123 230 rotateXYZ 65 0 90;
#X obj 123 133 translateXYZ 0 0 0;
#X obj 95 80 spigot;
#X obj 137 64 tgl 15 0 empty empty empty 17 7 0 10 -262144 -1 -1 0
1;
#X obj 118 110 separator;
#X obj 124 270 s \$0-sceneHead;
#X obj 140 40 r showScene;
#X obj 95 10 gemreceive \$0-posthead 60;
#X obj 253 23 r Visu;
#X obj 253 45 route trans rot;
#X obj 229 85 unpack f f;
#X obj 187 176 unpack f f;
#X connect 0 0 6 1;
#X connect 1 0 6 2;
#X connect 2 0 6 3;
#X connect 3 0 7 3;
#X connect 4 0 7 2;
#X connect 5 0 7 1;
#X connect 6 0 11 0;
#X connect 7 0 6 0;
#X connect 8 0 10 0;
#X connect 9 0 8 1;
#X connect 10 0 7 0;
#X connect 12 0 9 0;
#X connect 13 0 8 0;
#X connect 14 0 15 0;
#X connect 15 0 16 0;
#X connect 15 1 17 0;
#X connect 16 0 7 2;
#X connect 16 1 7 3;
#X connect 17 0 6 1;
#X connect 17 1 6 3;
#X restore 167 184 pd SceneVisu;
#X obj 16 132 declare -path abs;
#X obj 608 94 gcanvas 80 80;
#X obj 520 92 gcanvas 80 80;
#N canvas 1511 307 541 396 trans 0;
#X obj 129 19 inlet;
#X obj 190 16 inlet;
#X obj 190 44 / 80;
#X obj 136 82 pack f f;
#X msg 136 105 trans \$2 \$1;
#X floatatom 70 138 5 0 0 0 - - -;
#X obj 128 49 / -10;
#X obj 356 165 line;
#X obj 314 138 line;
#X obj 310 239 pack f f;
#X obj 313 159 t b f;
#X obj 308 217 f;
#X obj 300 190 del 1;
#X obj 348 186 t b f;
#X obj 318 51 r VisuR;
#X obj 318 93 unpack f f;
#X obj 311 290 s Visu;
#X obj 318 73 route trans;
#X msg 311 261 trans \$1 \$2;
#X obj 136 130 s VisuR;
#X msg 315 116 \$1 100;
#X msg 357 143 \$1 200;
#X connect 0 0 6 0;
#X connect 1 0 2 0;
#X connect 2 0 3 1;
#X connect 3 0 4 0;
#X connect 4 0 19 0;
#X connect 6 0 3 0;
#X connect 6 0 5 0;
#X connect 7 0 13 0;
#X connect 8 0 10 0;
#X connect 9 0 18 0;
#X connect 10 0 12 0;
#X connect 10 1 11 1;
#X connect 11 0 9 0;
#X connect 12 0 11 0;
#X connect 13 0 12 0;
#X connect 13 1 9 1;
#X connect 14 0 17 0;
#X connect 15 0 20 0;
#X connect 15 1 21 0;
#X connect 17 0 15 0;
#X connect 18 0 16 0;
#X connect 20 0 8 0;
#X connect 21 0 7 0;
#X restore 608 178 pd trans;
#N canvas 1766 324 484 416 rot 0;
#X obj 119 62 pack f f;
#X msg 119 87 rot \$2 \$1;
#X obj 167 38 maxlib/scale 0 80 -100 0;
#X obj 119 37 * 4;
#X obj 119 12 inlet;
#X obj 167 12 inlet;
#X obj 201 276 pack f f;
#X obj 204 196 t b f;
#X obj 199 254 f;
#X obj 191 227 del 1;
#X obj 239 223 t b f;
#X obj 119 116 s VisuR;
#X obj 209 88 r VisuR;
#X obj 209 130 unpack f f;
#X obj 202 327 s Visu;
#X msg 202 298 rot \$1 \$2;
#X obj 209 110 route rot;
#X obj 205 175 line3;
#X obj 247 202 line3;
#X msg 206 153 \$1 500;
#X msg 248 180 \$1 500;
#X connect 0 0 1 0;
#X connect 1 0 11 0;
#X connect 2 0 0 1;
#X connect 3 0 0 0;
#X connect 4 0 3 0;
#X connect 5 0 2 0;
#X connect 6 0 15 0;
#X connect 7 0 9 0;
#X connect 7 1 8 1;
#X connect 8 0 6 0;
#X connect 9 0 8 0;
#X connect 10 0 9 0;
#X connect 10 1 6 1;
#X connect 12 0 16 0;
#X connect 13 0 19 0;
#X connect 13 1 20 0;
#X connect 15 0 14 0;
#X connect 16 0 13 0;
#X connect 17 0 7 0;
#X connect 18 0 10 0;
#X connect 19 0 17 0;
#X connect 20 0 18 0;
#X restore 519 176 pd rot;
#N canvas 1668 466 450 300 Render 0;
#X obj 129 59 gemhead;
#X obj 132 41 tgl 15 0 empty empty empty 17 7 0 10 -262144 -1 -1 1
1;
#X obj 130 130 t a a;
#N canvas 1991 188 566 486 CUBE 0;
#X obj 65 329 gemcubeframebuffer;
#X msg 112 293 face \$1;
#X obj 65 425 rotateXYZ 0 90 0;
#X obj 65 5 inlet;
#X obj 65 451 outlet scene;
#X obj 229 451 outlet cubeMap;
#X msg 249 131 0 \, 1 \, 2 \, 3 \, 4 \, 5;
#X obj 112 269 t f f;
#X obj 96 399 unpack f f;
#X obj 191 298 sel 0 1 2 3 4 5;
#X msg 191 326 0 90;
#X msg 224 326 0 -90;
#X msg 263 326 90 0;
#X msg 298 326 -90 0;
#X msg 344 326 0 0;
#X msg 373 326 0 180;
#X obj 249 152 t b f;
#X obj 247 203 hradio 15 1 0 6 empty empty empty 0 -8 0 10 -262144
-1 -1 0;
#X obj 65 207 t a b;
#X msg 92 227 0;
#X obj 79 180 t a b;
#X obj 101 144 t a b;
#X obj 115 117 t a b;
#X obj 126 90 t a b;
#X obj 140 68 t a b;
#X msg 106 200 1;
#X msg 128 163 2;
#X msg 142 137 3;
#X msg 153 115 4;
#X msg 167 88 5;
#X obj 65 46 t a a a a a a;
#X msg 324 240 dimen 1024 1024;
#X msg 354 209 dimen 2048 2048;
#X msg 335 278 dimen 512 512;
#X obj 46 26 t b a b;
#X obj 271 91 gemwin;
#X obj 276 28 tgl 15 0 empty empty empty 17 7 0 10 -262144 -1 -1 0
1;
#X msg 271 69 lighting 1;
#X msg 202 66 lighting 0;
#X msg 385 400 quality \$1;
#X obj 393 373 tgl 15 0 empty empty empty 17 7 0 10 -262144 -1 -1 0
1;
#N canvas 1295 266 544 500 perspec 0;
#X obj 90 428 outlet;
#X obj 268 273 t f f;
#X obj 268 298 * -1;
#X obj 90 268 t f f;
#X obj 90 293 * -1;
#X obj 90 367 pack -1 1 -1 1 1 20;
#X msg 90 389 set perspec \$1 \$2 \$3 \$4 \$5 \$6 \, bang;
#X msg 172 453 set perspec \, adddollar 1 \, adddollar 2 \, adddollar
3 \, adddollar 4 \, adddollar 5 \, adddollar 6;
#X floatatom 103 117 5 0.1 5 1 x_wideness - -;
#X floatatom 103 134 5 0.1 5 1 y_wideness - -;
#X floatatom 103 151 5 0 0 1 z_depth - -;
#X obj 360 196 select 1;
#X obj 405 219 t b f f;
#X obj 249 226 t b f f;
#X obj 204 203 select 0;
#X obj 360 218 f 20;
#X obj 204 224 f 1;
#X msg 204 246 set \$1;
#X msg 360 240 set \$1;
#X obj 134 216 t b f f;
#X obj 89 193 select 0;
#X obj 89 214 f 1;
#X msg 89 236 set \$1;
#X obj 328 97 loadbang;
#X obj 328 119 t b b;
#X obj 328 141 t b b b;
#X obj 235 45 inlet;
#X connect 1 0 2 0;
#X connect 1 1 5 3;
#X connect 2 0 5 2;
#X connect 3 0 4 0;
#X connect 3 1 5 1;
#X connect 4 0 5 0;
#X connect 5 0 6 0;
#X connect 6 0 0 0;
#X connect 7 0 0 0;
#X connect 8 0 20 0;
#X connect 9 0 14 0;
#X connect 10 0 11 0;
#X connect 11 0 15 0;
#X connect 11 1 12 0;
#X connect 12 0 5 0;
#X connect 12 1 5 5;
#X connect 12 2 15 1;
#X connect 13 0 5 0;
#X connect 13 1 1 0;
#X connect 13 2 16 1;
#X connect 14 0 16 0;
#X connect 14 1 13 0;
#X connect 15 0 18 0;
#X connect 16 0 17 0;
#X connect 17 0 9 0;
#X connect 18 0 10 0;
#X connect 19 1 3 0;
#X connect 19 2 21 1;
#X connect 20 0 21 0;
#X connect 20 1 19 0;
#X connect 21 0 22 0;
#X connect 22 0 8 0;
#X connect 23 0 24 0;
#X connect 24 0 25 0;
#X connect 24 1 7 0;
#X connect 25 0 21 0;
#X connect 25 1 16 0;
#X connect 25 2 15 0;
#X connect 26 0 8 0;
#X connect 26 0 9 0;
#X coords 0 -1 1 1 100 67 1 100 100;
#X restore 396 59 pd perspec;
#X msg 398 129 perspec -1 1 -1 1 1 100;
#X floatatom 387 35 5 0 0 0 - - -;
#X obj 139 204 spigot;
#X obj 180 183 tgl 15 0 empty empty draw_bottom 17 7 0 10 -262144 -1
-1 1 1;
#X obj 355 17 loadbang;
#X connect 0 0 2 0;
#X connect 0 1 5 0;
#X connect 1 0 0 0;
#X connect 2 0 4 0;
#X connect 3 0 34 0;
#X connect 6 0 16 0;
#X connect 7 0 1 0;
#X connect 7 1 9 0;
#X connect 8 0 2 1;
#X connect 8 1 2 2;
#X connect 9 0 10 0;
#X connect 9 1 11 0;
#X connect 9 2 12 0;
#X connect 9 3 13 0;
#X connect 9 4 14 0;
#X connect 9 5 15 0;
#X connect 10 0 8 0;
#X connect 11 0 8 0;
#X connect 12 0 8 0;
#X connect 13 0 8 0;
#X connect 14 0 8 0;
#X connect 15 0 8 0;
#X connect 17 0 7 0;
#X connect 18 0 0 0;
#X connect 18 1 19 0;
#X connect 19 0 7 0;
#X connect 20 0 0 0;
#X connect 20 1 25 0;
#X connect 21 0 44 0;
#X connect 21 1 26 0;
#X connect 22 0 0 0;
#X connect 22 1 27 0;
#X connect 23 0 0 0;
#X connect 23 1 28 0;
#X connect 24 0 0 0;
#X connect 24 1 29 0;
#X connect 25 0 7 0;
#X connect 26 0 7 0;
#X connect 27 0 7 0;
#X connect 28 0 7 0;
#X connect 29 0 7 0;
#X connect 30 0 18 0;
#X connect 30 1 20 0;
#X connect 30 2 21 0;
#X connect 30 3 22 0;
#X connect 30 4 23 0;
#X connect 30 5 24 0;
#X connect 31 0 0 0;
#X connect 32 0 0 0;
#X connect 33 0 0 0;
#X connect 34 1 30 0;
#X connect 36 0 37 0;
#X connect 37 0 35 0;
#X connect 38 0 35 0;
#X connect 39 0 0 0;
#X connect 40 0 39 0;
#X connect 41 0 42 0;
#X connect 42 0 0 0;
#X connect 43 0 41 0;
#X connect 44 0 0 0;
#X connect 45 0 44 1;
#X connect 46 0 42 0;
#X restore 157 149 pd CUBE;
#X obj 130 81 alpha;
#X obj 157 212 s \$0-sceneHead;
#X obj 130 105 t a a;
#X obj 113 54 tgl 15 0 empty empty empty 17 7 0 10 -262144 -1 -1 0
1;
#X obj 194 169 s \$0-cubetex;
#X obj 157 189 rotateXYZ -90 0 90;
#X obj 130 237 s \$0-posthead;
#X obj 177 128 s \$0-prehead;
#X connect 0 0 4 0;
#X connect 1 0 0 0;
#X connect 2 0 10 0;
#X connect 2 1 3 0;
#X connect 3 0 9 0;
#X connect 3 1 8 0;
#X connect 4 0 6 0;
#X connect 6 0 2 0;
#X connect 6 1 11 0;
#X connect 7 0 4 0;
#X connect 9 0 5 0;
#X restore 168 164 pd Render;
#N canvas 1906 126 696 541 ProjsControl 0;
#X msg 100 367 campos \$1 \$2 \$3;
#X obj 91 132 t b f;
#X floatatom 54 97 5 0 0 0 - - -;
#X floatatom 94 94 5 0 0 0 - - -;
#X obj 131 133 t b f;
#X floatatom 226 40 5 0 0 0 - - -;
#X obj 64 158 pack f f f;
#X obj 227 122 * -1;
#X floatatom 286 139 5 0 0 0 - - -;
#X msg 374 305 blend \$1;
#X floatatom 536 238 5 0 0 0 - - -;
#X msg 61 68 0;
#X floatatom 386 346 5 0 0 0 - - -;
#X obj 385 257 hsl 128 15 2 5 0 0 empty empty empty -2 -8 0 10 -262144
-1 -1 10200 1;
#X obj 382 279 pow 3;
#X obj 228 21 hsl 128 15 0.5 3 0 0 empty empty empty -2 -8 0 10 -262144
-1 -1 6100 1;
#X obj 435 321 tgl 15 0 empty empty empty 17 7 0 10 -262144 -1 -1 1
1;
#X obj 434 341 * 0.5;
#X floatatom 464 297 5 0 0 0 - - -;
#X obj 244 436 t a;
#X obj 213 505 s proj1Shader;
#X obj 235 483 s proj2Shader;
#X obj 251 463 s proj3Shader;
#X msg 222 362 reload;
#X msg 380 379 blendAngle \$1;
#X msg 368 451 yMin \$1;
#X floatatom 372 414 5 0 0 0 - - -;
#X obj 534 78 t a;
#X obj 503 147 s proj1Shader;
#X obj 525 125 s proj2Shader;
#X obj 541 105 s proj3Shader;
#X obj 533 56 r projAllShader;
#X msg 463 457 controlR \$1;
#X msg 558 308 Pt \$1 \$2;
#X obj 555 284 pack f f;
#X obj 590 257 t b f;
#X floatatom 593 232 5 0 0 0 - - -;
#X floatatom 567 348 5 0 0 0 - - -;
#X obj 586 394 pack f f;
#X obj 621 367 t b f;
#X floatatom 624 342 5 0 0 0 - - -;
#X msg 589 418 Pl \$1 \$2;
#X floatatom 570 444 5 0 0 0 - - -;
#X obj 589 490 pack f f;
#X obj 624 463 t b f;
#X floatatom 627 438 5 0 0 0 - - -;
#X msg 592 514 Pr \$1 \$2;
#X obj 465 434 * 0.02;
#X obj 465 410 tgl 15 0 empty empty empty 17 7 0 10 -262144 -1 -1 1
1;
#X msg 406 514 controlSel \$1;
#X obj 405 493 hradio 15 1 0 4 empty empty empty 0 -8 0 10 -262144
-1 -1 0;
#X connect 0 0 19 0;
#X connect 1 0 6 0;
#X connect 1 1 6 1;
#X connect 2 0 6 0;
#X connect 3 0 1 0;
#X connect 4 0 6 0;
#X connect 4 1 6 2;
#X connect 5 0 4 0;
#X connect 5 0 7 0;
#X connect 5 0 8 0;
#X connect 6 0 0 0;
#X connect 9 0 19 0;
#X connect 10 0 34 0;
#X connect 11 0 2 0;
#X connect 12 0 24 0;
#X connect 13 0 14 0;
#X connect 14 0 9 0;
#X connect 14 0 18 0;
#X connect 15 0 5 0;
#X connect 16 0 17 0;
#X connect 17 0 24 0;
#X connect 19 0 20 0;
#X connect 19 0 21 0;
#X connect 19 0 22 0;
#X connect 23 0 19 0;
#X connect 24 0 19 0;
#X connect 25 0 19 0;
#X connect 26 0 25 0;
#X connect 27 0 28 0;
#X connect 27 0 29 0;
#X connect 27 0 30 0;
#X connect 31 0 27 0;
#X connect 32 0 19 0;
#X connect 33 0 19 0;
#X connect 34 0 33 0;
#X connect 35 0 34 0;
#X connect 35 1 34 1;
#X connect 36 0 35 0;
#X connect 37 0 38 0;
#X connect 38 0 41 0;
#X connect 39 0 38 0;
#X connect 39 1 38 1;
#X connect 40 0 39 0;
#X connect 41 0 19 0;
#X connect 42 0 43 0;
#X connect 43 0 46 0;
#X connect 44 0 43 0;
#X connect 44 1 43 1;
#X connect 45 0 44 0;
#X connect 46 0 19 0;
#X connect 47 0 32 0;
#X connect 48 0 47 0;
#X connect 49 0 19 0;
#X connect 50 0 49 0;
#X restore 273 164 pd ProjsControl;
#N canvas 1652 139 810 605 Projs 0;
#X msg 226 250 reload;
#X obj 340 82 separator;
#X floatatom 178 318 5 0 0 0 - - -;
#X floatatom 136 314 5 0 0 0 - - -;
#X msg 209 278 envMap 0;
#X obj 78 432 rectangle 4 3;
#X floatatom 134 368 5 0 0 0 - - -;
#X obj 152 410 * 3;
#X obj 114 410 * 4;
#X obj 328 230 separator;
#X floatatom 424 297 5 0 0 0 - - -;
#X floatatom 382 293 5 0 0 0 - - -;
#X obj 336 415 rectangle 4 3;
#X floatatom 392 351 5 0 0 0 - - -;
#X obj 410 393 * 3;
#X obj 372 393 * 4;
#X floatatom 661 298 5 0 0 0 - - -;
#X floatatom 619 294 5 0 0 0 - - -;
#X obj 573 416 rectangle 4 3;
#X floatatom 629 352 5 0 0 0 - - -;
#X obj 647 394 * 3;
#X obj 609 394 * 4;
#X obj 547 232 separator;
#X obj 340 61 spigot;
#X obj 382 45 tgl 15 0 empty empty empty 17 7 0 10 -262144 -1 -1 1
1;
#X floatatom 204 372 5 0 0 0 - - -;
#X obj 341 105 pix_texture;
#X obj 404 84 r \$0-cubetex;
#X obj 231 224 r proj1Shader;
#X obj 655 228 r proj3Shader;
#X obj 436 232 r proj2Shader;
#X obj 78 243 separator;
#X obj 324 319 translateXYZ 0 0 0;
#X obj 78 340 translateXYZ -8 0 0;
#X obj 561 320 translateXYZ 8 0 0;
#X obj 474 311 bng 15 250 50 0 empty empty empty 17 7 0 10 -262144
-1 -1;
#X obj 404 43 r showProjs;
#X floatatom 416 116 5 0 0 0 - - -;
#X msg 463 259 angle -120;
#X msg 667 262 angle -240;
#X floatatom 559 109 5 0 0 0 - - -;
#X msg 590 80 1;
#X obj 340 183 scaleXYZ 0.33 0.33 1;
#X obj 502 90 != 1;
#X obj 340 22 gemreceive \$0-posthead 52;
#X floatatom 501 163 5 0 0 0 - - -;
#X obj 452 104 * -0.7;
#X obj 504 114 * 1.9;
#X msg 563 79 0.1;
#X obj 340 134 translateXYZ 0 -0.7 1.9;
#X obj 663 25 r showProjsFS;
#X obj 559 59 sel 0 1;
#X obj 560 42 tgl 15 0 empty empty empty 17 7 0 10 -262144 -1 -1 1
1;
#X obj 559 19 != 0;
#X obj 663 66 - 1;
#X msg 663 152 angle \$1;
#X floatatom 742 156 5 0 0 0 - - -;
#X obj 663 125 * -120;
#X obj 664 95 abs;
#X obj 78 269 shaderLoad base proj;
#X obj 324 253 shaderLoad base proj;
#X obj 544 252 shaderLoad base proj;
#X connect 0 0 59 1;
#X connect 1 0 26 0;
#X connect 2 0 33 3;
#X connect 3 0 33 2;
#X connect 4 0 59 1;
#X connect 6 0 8 0;
#X connect 6 0 7 0;
#X connect 7 0 5 2;
#X connect 8 0 5 1;
#X connect 9 0 60 0;
#X connect 10 0 32 3;
#X connect 11 0 32 2;
#X connect 13 0 15 0;
#X connect 13 0 14 0;
#X connect 14 0 12 2;
#X connect 15 0 12 1;
#X connect 16 0 34 3;
#X connect 17 0 34 2;
#X connect 19 0 21 0;
#X connect 19 0 20 0;
#X connect 20 0 18 2;
#X connect 21 0 18 1;
#X connect 22 0 61 0;
#X connect 23 0 1 0;
#X connect 24 0 23 1;
#X connect 25 0 8 0;
#X connect 26 0 49 0;
#X connect 27 0 26 1;
#X connect 28 0 59 1;
#X connect 29 0 61 1;
#X connect 30 0 60 1;
#X connect 31 0 59 0;
#X connect 32 0 12 0;
#X connect 33 0 5 0;
#X connect 34 0 18 0;
#X connect 36 0 24 0;
#X connect 37 0 49 2;
#X connect 38 0 60 1;
#X connect 39 0 61 1;
#X connect 40 0 42 1;
#X connect 40 0 42 2;
#X connect 41 0 40 0;
#X connect 42 0 31 0;
#X connect 42 0 9 0;
#X connect 42 0 22 0;
#X connect 43 0 46 0;
#X connect 43 0 47 0;
#X connect 44 0 23 0;
#X connect 45 0 49 3;
#X connect 46 0 37 0;
#X connect 47 0 49 3;
#X connect 48 0 40 0;
#X connect 49 0 42 0;
#X connect 50 0 53 0;
#X connect 50 0 54 0;
#X connect 51 0 48 0;
#X connect 51 1 41 0;
#X connect 52 0 51 0;
#X connect 52 0 43 0;
#X connect 53 0 52 0;
#X connect 54 0 58 0;
#X connect 55 0 60 1;
#X connect 57 0 55 0;
#X connect 57 0 56 0;
#X connect 58 0 57 0;
#X connect 59 0 33 0;
#X connect 60 0 32 0;
#X connect 60 2 38 0;
#X connect 60 2 35 0;
#X connect 61 0 34 0;
#X connect 61 2 39 0;
#X restore 274 187 pd Projs;
#X obj 16 153 declare -path shader;
#N canvas 1849 442 450 300 Equirect 0;
#X msg 257 163 reload;
#X obj 120 53 tgl 15 0 empty empty empty 17 7 0 10 -262144 -1 -1 1
1;
#X obj 74 167 pix_texture;
#X obj 137 146 r \$0-cubetex;
#X obj 74 142 separator;
#X obj 74 190 shaderLoad base cubemaptosphere;
#X obj 74 71 spigot 1;
#X obj 74 100 gemframebuffer;
#X obj 155 124 s \$0-equitex;
#X obj 74 231 translateXYZ 0 0 -4;
#X msg 262 40 dimen 2048 1024;
#X obj 74 256 rectangle 4 4;
#X obj 168 52 loadbang;
#X msg 269 73 dimen 1024 512;
#X obj 74 29 gemreceive \$0-posthead 80;
#X msg 270 92 dimen 512 512;
#X msg 270 116 dimen 256 256;
#X msg 272 137 dimen 64 64;
#X connect 0 0 5 1;
#X connect 1 0 6 1;
#X connect 2 0 5 0;
#X connect 3 0 2 1;
#X connect 4 0 2 0;
#X connect 5 0 9 0;
#X connect 6 0 7 0;
#X connect 7 0 4 0;
#X connect 7 1 8 0;
#X connect 9 0 11 0;
#X connect 10 0 7 0;
#X connect 12 0 13 0;
#X connect 13 0 7 0;
#X connect 14 0 6 0;
#X connect 15 0 7 0;
#X connect 16 0 7 0;
#X connect 17 0 7 0;
#X restore 284 226 pd Equirect;
#N canvas 1858 202 450 300 framerate 0;
#X obj 118 101 realtime;
#X obj 117 49 gemhead;
#X obj 117 78 t b b;
#X msg 119 125 1000 \$1;
#X obj 120 146 /;
#X obj 120 171 mavg 5;
#X obj 130 225 outlet;
#X obj 121 197 speedlim 500;
#X floatatom 187 230 5 0 0 0 - - -;
#X connect 0 0 3 0;
#X connect 1 0 2 0;
#X connect 2 0 0 0;
#X connect 2 1 0 1;
#X connect 3 0 4 0;
#X connect 4 0 5 0;
#X connect 5 0 7 0;
#X connect 7 0 6 0;
#X connect 7 0 8 0;
#X restore 292 40 pd framerate;
#X floatatom 294 61 5 0 0 0 - - -;
#N canvas 1683 394 450 300 Panneaux 0;
#X obj 152 40 r \$0-sceneHead;
#X obj 152 61 separator;
#X obj 152 87 s \$0-panneauxHead;
#X obj 116 150 panneau \$0 0;
#X obj 116 170 panneau \$0 1;
#X obj 118 192 panneau \$0 2;
#X obj 196 152 panneau \$0 3;
#X obj 196 172 panneau \$0 4;
#X obj 198 194 panneau \$0 5;
#X connect 0 0 1 0;
#X connect 1 0 2 0;
#X restore 257 282 pd Panneaux;
#N canvas 2106 111 507 477 mouse 0;
#X obj 77 32 gemmouse;
#X obj 77 73 pack f f;
#X obj 263 39 print b;
#X obj 77 98 t a a;
#X obj 77 135 unpack f f;
#X obj 104 186 unpack f f;
#X obj 104 164 spigot;
#X obj 104 221 -;
#X obj 161 218 -;
#X obj 302 185 unpack f f;
#X obj 302 163 spigot;
#X obj 302 220 -;
#X obj 359 217 -;
#X floatatom 303 252 5 0 0 0 - - -;
#X obj 182 263 route rot;
#X obj 182 285 unpack f f;
#X obj 105 324 +;
#X obj 138 324 +;
#X obj 106 287 * 1;
#X obj 133 287 * 1;
#X obj 106 375 pack f f;
#X msg 106 406 rot \$2 \$1;
#X floatatom 450 417 5 0 0 0 - - -;
#X obj 150 348 clip -90 0;
#X obj 182 242 r VisuR;
#X obj 106 435 s VisuR;
#X obj 387 292 unpack f f;
#X obj 310 331 +;
#X obj 343 331 +;
#X obj 311 382 pack f f;
#X obj 387 249 r VisuR;
#X obj 311 442 s VisuR;
#X obj 387 270 route trans;
#X msg 311 413 trans \$2 \$1;
#X obj 289 296 * -0.02;
#X obj 269 362 clip -10 0;
#X obj 382 353 clip -1 1;
#X obj 338 294 * 0.002;
#X connect 0 0 1 0;
#X connect 0 1 1 1;
#X connect 0 2 6 1;
#X connect 0 3 10 1;
#X connect 1 0 3 0;
#X connect 3 0 4 0;
#X connect 3 1 6 0;
#X connect 3 1 10 0;
#X connect 4 0 7 1;
#X connect 4 0 11 1;
#X connect 4 1 8 1;
#X connect 4 1 12 1;
#X connect 5 0 7 0;
#X connect 5 1 8 0;
#X connect 6 0 5 0;
#X connect 7 0 18 0;
#X connect 8 0 19 0;
#X connect 9 0 11 0;
#X connect 9 1 12 0;
#X connect 10 0 9 0;
#X connect 11 0 13 0;
#X connect 11 0 34 0;
#X connect 12 0 37 0;
#X connect 14 0 15 0;
#X connect 15 0 17 1;
#X connect 15 1 16 1;
#X connect 16 0 20 0;
#X connect 17 0 23 0;
#X connect 18 0 16 0;
#X connect 19 0 17 0;
#X connect 20 0 21 0;
#X connect 21 0 25 0;
#X connect 23 0 20 1;
#X connect 24 0 14 0;
#X connect 26 0 28 1;
#X connect 26 1 27 1;
#X connect 27 0 35 0;
#X connect 28 0 22 0;
#X connect 28 0 36 0;
#X connect 29 0 33 0;
#X connect 30 0 32 0;
#X connect 32 0 26 0;
#X connect 33 0 31 0;
#X connect 34 0 27 0;
#X connect 35 0 29 0;
#X connect 36 0 29 1;
#X connect 37 0 28 0;
#X restore 401 254 pd mouse;
#X obj 15 174 declare -path AutoPreset;
#X connect 1 0 2 0;
#X connect 2 0 1 0;
#X connect 4 0 7 0;
#X connect 6 0 4 0;
#X connect 7 0 5 0;
#X connect 8 0 9 0;
#X connect 9 0 11 0;
#X connect 10 0 5 0;
#X connect 12 0 5 0;
#X connect 22 0 24 0;
#X connect 22 1 24 1;
#X connect 23 0 25 0;
#X connect 23 1 25 1;
#X connect 31 0 32 0;
