#N canvas 87 308 833 552 10;
#X declare -path AutoPreset -stdpath moonlib -stdpath iemlib -lib zexy
;
#N canvas 466 531 450 300 config 0;
#X obj 100 157 apmaster config;
#X obj 100 200 bng 15 250 50 0 empty empty load 17 7 0 10 -4034 -1
-1;
#X obj 159 101 bng 30 250 50 0 empty empty save 3 15 0 10 -258113 -1
-1;
#X obj 100 179 loadbang;
#X obj 100 224 apmasterfile \$1-config presets/config.txt;
#X connect 1 0 4 0;
#X connect 2 0 4 1;
#X connect 3 0 1 0;
#X coords 0 -1 1 1 90 32 1 100 100;
#X restore 113 19 pd config;
#N canvas 5 77 450 300 declares 0;
#X obj 38 16 declare -path AutoPreset -stdpath moonlib -stdpath iemlib
-lib zexy;
#X restore 37 19 pd declares;
#N canvas 4 328 542 366 masterMain 0;
#X obj 184 42 mull~ 1 10;
#X obj 349 33 mull~ 1 10;
#X obj 91 34 mull~ 1 10;
#X obj 122 133 lim~;
#X obj 158 133 lim~;
#X obj 170 133 lim~;
#X obj 105 135 vsl 15 80 0 1 0 1 empty empty IN 0 -9 0 10 -262130 -1
-1 7900 1;
#X obj 105 222 pow 2;
#X obj 105 244 * 4;
#X obj 141 135 vsl 15 80 0 1 0 1 empty empty OUT 0 -9 0 10 -262130
-1 -1 2400 1;
#X obj 141 222 pow 2;
#X obj 141 244 * 4;
#X obj 312 126 loadbang;
#X msg 312 148 \; pd dsp 1;
#X obj 73 1 inlet~;
#X obj 173 288 outlet~;
#X obj 237 291 outlet~;
#X obj 184 10 catch~ \$0-Main-out1;
#X obj 350 5 catch~ \$0-Main-out2;
#X obj 82 306 s~ \$0-Main-in1;
#X connect 0 0 4 0;
#X connect 1 0 5 0;
#X connect 2 0 3 0;
#X connect 3 0 19 0;
#X connect 4 0 15 0;
#X connect 5 0 16 0;
#X connect 6 0 7 0;
#X connect 7 0 8 0;
#X connect 8 0 2 1;
#X connect 9 0 10 0;
#X connect 10 0 11 0;
#X connect 11 0 0 1;
#X connect 11 0 1 1;
#X connect 12 0 13 0;
#X connect 14 0 2 0;
#X connect 17 0 0 0;
#X connect 18 0 1 0;
#X coords 0 -1 1 1 85 120 1 100 100;
#X restore 104 194 pd masterMain;
#X floatatom 215 228 5 0 0 0 - - -, f 5;
#X obj 227 273 *~ 0.3;
#X obj 272 272 *~ 0.3;
#X obj 215 183 key;
#X obj 215 205 spigot;
#X obj 248 184 tgl 15 0 empty empty empty 17 7 0 10 -262144 -1 -1 0
1;
#X msg 296 208 smooth \$1;
#X floatatom 296 188 5 1 200 0 - - -, f 5;
#N canvas 0 330 450 512 clock 0;
#X obj 136 203 ndmetro 64 1;
#X obj 103 22 tgl 30 0 clockon-snd clockon-rcv ON 8 15 0 12 -24198
-1 -258699 0 1;
#X obj 137 66 r clockon-snd;
#X obj 136 98 sel 0 1;
#X obj 178 133 f;
#X msg 106 131 -1;
#X msg 178 153 0 \$1;
#X obj 136 227 pack f f;
#X obj 147 22 hsl 128 30 20 240 0 0 clockBPM-snd clockBPM-rcv BPM:96
8 15 0 12 -257985 -1 -1 4404 1;
#X obj 318 122 r clockBPM-snd;
#X obj 295 29 loadbang;
#X msg 295 50 120;
#X obj 295 88 s clockBPM-rcv;
#X obj 318 166 i;
#X msg 318 207 label BPM:\$1;
#X obj 318 229 s clockBPM-rcv;
#X obj 318 143 * 1;
#X obj 318 188 / 1;
#X msg 215 153 tempo \$1;
#X msg 215 107 60000 \$1;
#X obj 215 129 /;
#X obj 136 249 s clock;
#X obj 226 217 r clock;
#X obj 226 282 change;
#X obj 226 239 unpack f f;
#X obj 226 261 i;
#X obj 226 327 f;
#X obj 226 348 t f b;
#X obj 226 370 del;
#X obj 226 414 s clockon-rcv;
#X msg 226 392 color 16 22 13;
#X obj 226 304 b;
#X obj 277 279 * 0.125;
#X msg 253 370 color 13 22 13;
#X obj -1 191 r SYNCHRO-clock;
#X floatatom 121 310 5 0 0 0 - - -, f 5;
#X obj 308 4 r SYNCHRO-bpm-snd;
#X connect 0 0 7 0;
#X connect 2 0 3 0;
#X connect 3 0 5 0;
#X connect 3 1 4 0;
#X connect 4 0 6 0;
#X connect 5 0 0 0;
#X connect 5 0 21 0;
#X connect 6 0 0 0;
#X connect 7 0 21 0;
#X connect 7 0 35 0;
#X connect 9 0 16 0;
#X connect 10 0 11 0;
#X connect 13 0 17 0;
#X connect 14 0 15 0;
#X connect 16 0 13 0;
#X connect 17 0 14 0;
#X connect 17 0 19 0;
#X connect 18 0 0 0;
#X connect 19 0 20 0;
#X connect 20 0 18 0;
#X connect 20 0 4 1;
#X connect 20 0 7 1;
#X connect 22 0 24 0;
#X connect 23 0 31 0;
#X connect 24 0 25 0;
#X connect 24 1 32 0;
#X connect 25 0 23 0;
#X connect 26 0 27 0;
#X connect 27 0 28 0;
#X connect 27 1 33 0;
#X connect 28 0 30 0;
#X connect 30 0 29 0;
#X connect 31 0 26 0;
#X connect 32 0 26 1;
#X connect 33 0 29 0;
#X connect 34 0 21 0;
#X connect 36 0 12 0;
#X coords 0 -1 1 1 180 50 1 100 5;
#X restore 235 2 pd clock;
#X obj 64 331 outlet~ l;
#X obj 167 360 outlet~ r;
#X obj 105 170 inlet~ in;
#X obj 377 447 out \$0-Main;
#X obj 374 347 out \$0-Main;
#X obj 374 245 out \$0-Main;
#X obj 213 324 out \$0-Main;
#X obj 56 375 r~ \$0-Main-in1;
#X obj 215 247 player \$1-sample-1;
#X obj 17 164 *~ 0.2;
#X obj 17 187 out \$0-Main;
#X obj 370 370 stretcher \$1 \$1-sample;
#X obj 291 59 decoupeur \$1-sample-1 \$1-dctl;
#X obj 292 110 decoupeur \$1-sample-3 \$1-dctl;
#X obj 292 135 decoupeur \$1-sample-4 \$1-dctl;
#X obj 291 84 decoupeur \$1-sample-2 \$1-dctl;
#X obj 610 59 decoupeur_ctl \$1-config \$1-dctl \$1;
#X obj 27 404 l autorec \$1-config \$1-arec1 \$1-sample \$1;
#X obj 17 57 l sample \$1 sample-1 60;
#X obj 17 83 l sample \$1 sample-2 60;
#X obj 17 109 l sample \$1 sample-3 60;
#X obj 17 135 l sample \$1 sample-4 60;
#X connect 2 0 12 0;
#X connect 2 1 13 0;
#X connect 3 0 20 0;
#X connect 4 0 18 1;
#X connect 5 0 18 0;
#X connect 6 0 7 0;
#X connect 7 0 3 0;
#X connect 8 0 7 1;
#X connect 9 0 20 1;
#X connect 10 0 9 0;
#X connect 14 0 2 0;
#X connect 20 0 4 0;
#X connect 20 0 18 0;
#X connect 20 1 5 0;
#X connect 20 1 18 1;
#X connect 21 0 22 0;
#X connect 21 0 22 1;
#X connect 23 0 15 0;
#X connect 23 1 15 1;
