#N canvas 1 82 450 115 10;
#N canvas 118 97 708 511 record 0;
#X obj 207 318 timer;
#X obj 542 257 samplerate~;
#X floatatom 542 280 5 0 0 0 - - -, f 5;
#X obj 542 234 loadbang;
#X obj 320 448 *;
#X msg 333 216 20;
#X obj 333 194 moses 0.01;
#X obj 207 338 / 1000;
#X obj 279 293 delay 100;
#X obj 557 214 bng 15 250 50 0 empty empty empty 20 8 0 8 -262144 -1
-1;
#X obj 215 101 sel 1 0;
#X msg 251 247 stop;
#X msg 207 33 0;
#X obj 279 272 * 1000;
#X obj 145 203 t b b b;
#X obj 317 245 f;
#X obj 320 478 s \$0-insamplength;
#X obj 320 424 - 0;
#X obj 333 172 subdial green max(s) _auto 0.1 80 1 12;
#X obj 215 56 subtoggle red Rec 1 0;
#X obj 498 326 t b f;
#X obj 512 376 f;
#X msg 512 398 resize \$1;
#X obj 498 349 delay 400;
#X obj 145 414 tabwrite~ \$0-lesample;
#X obj 498 305 * 44100;
#X obj 38 8 r~ \$0-in;
#X obj 272 99 sel 1;
#X msg 272 120 1;
#X obj 512 421 s \$0-lesample;
#X obj 352 359 r \$0-recorder_cut;
#X obj 215 11 r \$0-recorder_rec;
#X obj 84 203 switch~;
#X obj 117 477 s \$0-rec_parole;
#X obj 228 477 s \$0-rec_cri;
#X msg 205 452 0;
#X obj 272 141 s \$0-recording;
#X obj 38 29 delwrite~ \$0-indel 1000;
#X msg 117 176 0;
#X msg 84 176 1;
#X obj 19 83 r \$0-recorder_indel;
#X obj 336 386 f;
#X obj 215 76 t f b;
#X floatatom 434 441 0 0 0 0 - - -;
#X floatatom 438 407 0 0 0 0 - - -;
#X floatatom 56 236 0 0 0 0 - - -;
#X obj 237 203 b;
#X obj 72 464 bng 15 250 50 0 empty empty empty 0 -6 0 8 -262144 -1
-1;
#X obj 237 182 del;
#X obj 19 262 delread~ \$0-indel 200;
#X obj 380 152 r \$0-recmax;
#X connect 0 0 7 0;
#X connect 0 0 12 0;
#X connect 1 0 2 0;
#X connect 2 0 4 1;
#X connect 2 0 25 1;
#X connect 3 0 1 0;
#X connect 4 0 16 0;
#X connect 5 0 15 1;
#X connect 5 0 25 0;
#X connect 6 0 5 0;
#X connect 6 1 15 1;
#X connect 6 1 25 0;
#X connect 7 0 17 0;
#X connect 8 0 35 0;
#X connect 9 0 1 0;
#X connect 10 0 14 0;
#X connect 10 0 39 0;
#X connect 10 1 48 0;
#X connect 11 0 8 0;
#X connect 11 0 24 0;
#X connect 12 0 19 0;
#X connect 13 0 8 0;
#X connect 14 0 24 0;
#X connect 14 1 0 0;
#X connect 14 2 15 0;
#X connect 15 0 13 0;
#X connect 17 0 4 0;
#X connect 18 0 6 0;
#X connect 19 0 42 0;
#X connect 20 0 23 0;
#X connect 20 1 21 1;
#X connect 21 0 22 0;
#X connect 22 0 29 0;
#X connect 23 0 21 0;
#X connect 25 0 20 0;
#X connect 26 0 37 0;
#X connect 27 0 28 0;
#X connect 28 0 36 0;
#X connect 30 0 41 1;
#X connect 30 0 44 0;
#X connect 31 0 19 0;
#X connect 35 0 34 0;
#X connect 35 0 33 0;
#X connect 35 0 47 0;
#X connect 38 0 32 0;
#X connect 39 0 32 0;
#X connect 40 0 45 0;
#X connect 40 0 48 1;
#X connect 40 0 49 0;
#X connect 41 0 43 0;
#X connect 41 0 17 1;
#X connect 42 0 27 0;
#X connect 42 0 10 0;
#X connect 42 1 41 0;
#X connect 46 0 11 0;
#X connect 46 0 0 1;
#X connect 48 0 46 0;
#X connect 49 0 24 0;
#X connect 50 0 18 0;
#X restore 366 1 pd record;
#X obj 17 96 table \$0-lesample 1e+06;
#N canvas 0 50 264 80 input 0;
#X obj 6 14 r~ inl;
#X obj 6 36 s~ \$0-in;
#X connect 0 0 1 0;
#X restore 17 75 pd input;
#N canvas 156 82 470 527 cri_autorec 0;
#N canvas 249 108 458 436 autorec 0;
#X obj 29 23 inlet;
#X obj 217 400 outlet;
#X obj 239 85 env~;
#X obj 48 226 switch~;
#X obj 239 105 > 75;
#X obj 262 20 inlet;
#X obj 322 20 inlet;
#X obj 322 40 * 1000;
#X obj 273 400 outlet;
#X obj 239 44 r~ \$0-in;
#X obj 239 65 lp2~ 2000 0.707;
#X obj 381 21 inlet;
#X obj 381 41 * 1000;
#X obj 239 129 change;
#X obj 195 212 sel 1 0;
#X obj 217 254 delay;
#X msg 217 233 stop;
#X msg 217 274 1;
#X obj 297 254 delay;
#X msg 297 233 stop;
#X obj 275 212 sel 0 1;
#X obj 239 175 demux 0 1 2;
#X msg 344 277 2;
#X msg 297 294 0;
#X obj 297 274 t b b;
#X obj 217 294 t f f;
#X obj 29 70 sel 0 1;
#X obj 112 97 t b b;
#X msg 142 137 0;
#X msg 112 118 1;
#X obj 29 95 t b b;
#X msg 59 116 2;
#X msg 29 116 0;
#X obj 241 357 t f f;
#X obj 142 118 del 20;
#X obj 142 157 t f f;
#X msg 142 71 stop;
#X obj 29 45 t f b;
#X connect 0 0 37 0;
#X connect 2 0 4 0;
#X connect 4 0 13 0;
#X connect 5 0 4 1;
#X connect 6 0 7 0;
#X connect 7 0 15 1;
#X connect 9 0 10 0;
#X connect 10 0 2 0;
#X connect 11 0 12 0;
#X connect 12 0 18 1;
#X connect 13 0 21 0;
#X connect 14 0 15 0;
#X connect 14 1 16 0;
#X connect 15 0 17 0;
#X connect 16 0 15 0;
#X connect 17 0 25 0;
#X connect 18 0 24 0;
#X connect 19 0 18 0;
#X connect 20 0 18 0;
#X connect 20 1 19 0;
#X connect 21 0 14 0;
#X connect 21 1 20 0;
#X connect 22 0 21 1;
#X connect 23 0 33 0;
#X connect 24 0 23 0;
#X connect 24 1 22 0;
#X connect 25 0 1 0;
#X connect 25 1 21 1;
#X connect 26 0 30 0;
#X connect 26 1 27 0;
#X connect 27 0 29 0;
#X connect 27 1 34 0;
#X connect 28 0 35 0;
#X connect 29 0 3 0;
#X connect 30 0 32 0;
#X connect 30 1 31 0;
#X connect 30 1 36 0;
#X connect 31 0 21 1;
#X connect 32 0 3 0;
#X connect 32 0 33 0;
#X connect 33 0 8 0;
#X connect 33 1 1 0;
#X connect 34 0 28 0;
#X connect 35 0 13 0;
#X connect 35 1 21 1;
#X connect 36 0 34 0;
#X connect 37 0 26 0;
#X connect 37 1 16 0;
#X connect 37 1 19 0;
#X restore 59 294 pd autorec;
#X obj 47 115 subtoggle white Auto 1 0;
#X msg 76 94 1;
#X obj 56 32 sel 0 1;
#X msg 31 53 0;
#X obj 77 74 delay 30;
#X obj 77 393 s \$0-recorder_cut;
#X obj 59 413 s \$0-recorder_rec;
#X obj 47 215 t f f;
#X obj 56 10 r \$0-rec_cri;
#X obj 124 220 subdial LightBlue tlow _auto 0.001 1 1 0.015985;
#X obj 112 177 subdial LightBlue thi _auto 0.001 1 1 0.17083;
#X obj 96 150 subdial orange hi --- 20 99 1 65.898;
#N canvas 0 50 450 300 db 0;
#X obj 91 120 i;
#X msg 91 157 ll \$1;
#X obj 91 138 makesymbol %sdB;
#X obj 91 99 inlet;
#X obj 91 178 outlet;
#X connect 0 0 2 0;
#X connect 1 0 4 0;
#X connect 2 0 1 0;
#X connect 3 0 0 0;
#X restore 96 134 pd db;
#X obj 77 371 * 0;
#X obj 333 303 adc~;
#X obj 333 420 s \$0-cri_env;
#X obj 333 363 mavg 4;
#X obj 333 343 env~;
#X obj 333 384 speedlim 100;
#X obj 333 323 hip~ 20;
#X obj 273 434 f;
#X obj 245 434 +;
#X msg 299 410 0;
#X obj 245 389 spigot;
#X obj 245 456 f;
#X obj 245 505 s \$0-cri_force;
#X obj 291 389 sel 1;
#X obj 93 350 * 0.9;
#X obj 167 315 s \$0-recorder_indel;
#X obj 183 247 * 1000;
#X obj 167 270 sel 1;
#X obj 167 293 f;
#X msg 56 53 stop;
#X obj 245 410 dbtopow;
#X obj 245 479 * 100;
#X msg 213 481 0;
#X obj 199 91 s \$0-recmax;
#X msg 199 70 30;
#X connect 0 0 7 0;
#X connect 0 0 24 1;
#X connect 0 0 27 0;
#X connect 0 1 1 0;
#X connect 1 0 8 0;
#X connect 2 0 1 0;
#X connect 2 0 38 0;
#X connect 3 0 4 0;
#X connect 3 0 33 0;
#X connect 3 1 5 0;
#X connect 4 0 1 0;
#X connect 5 0 2 0;
#X connect 8 0 0 0;
#X connect 8 1 14 0;
#X connect 8 1 31 0;
#X connect 9 0 3 0;
#X connect 10 0 0 3;
#X connect 10 0 28 0;
#X connect 11 0 0 2;
#X connect 11 0 30 0;
#X connect 12 0 13 0;
#X connect 12 0 0 1;
#X connect 13 0 12 0;
#X connect 14 0 6 0;
#X connect 15 0 20 0;
#X connect 17 0 19 0;
#X connect 18 0 17 0;
#X connect 18 0 24 0;
#X connect 19 0 16 0;
#X connect 20 0 18 0;
#X connect 21 0 22 1;
#X connect 22 0 21 0;
#X connect 22 0 25 0;
#X connect 23 0 21 0;
#X connect 24 0 34 0;
#X connect 25 0 35 0;
#X connect 27 0 23 0;
#X connect 28 0 14 1;
#X connect 30 0 32 1;
#X connect 31 0 32 0;
#X connect 31 0 36 0;
#X connect 32 0 29 0;
#X connect 33 0 5 0;
#X connect 34 0 22 0;
#X connect 35 0 26 0;
#X connect 36 0 26 0;
#X connect 38 0 37 0;
#X restore 184 1 pd cri_autorec;
#N canvas 48 176 489 546 parole_autorec 1;
#N canvas 224 108 452 457 autorec 0;
#X obj 40 9 inlet;
#X obj 217 417 outlet;
#X obj 239 102 env~;
#X obj 48 243 switch~;
#X obj 239 122 > 75;
#X obj 262 37 inlet;
#X obj 322 37 inlet;
#X obj 322 57 * 1000;
#X obj 273 417 outlet;
#X obj 239 61 r~ \$0-in;
#X obj 381 38 inlet;
#X obj 381 58 * 1000;
#X obj 239 146 change;
#X obj 195 229 sel 1 0;
#X obj 217 271 delay;
#X msg 217 250 stop;
#X msg 217 291 1;
#X obj 297 271 delay;
#X msg 297 250 stop;
#X obj 275 229 sel 0 1;
#X obj 239 185 demux 0 1 2;
#X msg 343 291 2;
#X msg 297 311 0;
#X obj 297 291 t b b;
#X obj 217 311 t f f;
#X obj 40 53 sel 0 1;
#X obj 112 114 t b b;
#X msg 142 154 0;
#X msg 112 135 1;
#X obj 40 80 t b b;
#X msg 70 129 2;
#X msg 40 129 0;
#X obj 241 374 t f f;
#X obj 142 174 t f f;
#X obj 239 82 biquad~;
#X obj 107 17 loadbang;
#X obj 107 1 bng 15 250 50 0 empty empty empty 0 -6 0 8 -262144 -1
-1;
#X obj 107 39 highshelf 3000 12 100;
#X obj 119 350 f;
#X obj 91 350 +;
#X msg 134 326 0;
#X obj 91 305 spigot;
#X obj 91 372 f;
#X obj 91 326 / 100;
#X obj 91 395 * 20;
#X obj 22 422 s \$0-parole_force;
#X msg 76 102 stop;
#X obj 142 135 del 0;
#X obj 40 32 t f b;
#X obj 8 290 timer;
#X connect 0 0 48 0;
#X connect 2 0 4 0;
#X connect 2 0 41 0;
#X connect 4 0 12 0;
#X connect 5 0 4 1;
#X connect 6 0 7 0;
#X connect 7 0 14 1;
#X connect 9 0 34 0;
#X connect 10 0 11 0;
#X connect 11 0 17 1;
#X connect 12 0 20 0;
#X connect 13 0 14 0;
#X connect 13 1 15 0;
#X connect 14 0 16 0;
#X connect 15 0 14 0;
#X connect 16 0 24 0;
#X connect 16 0 40 0;
#X connect 16 0 41 1;
#X connect 17 0 23 0;
#X connect 18 0 17 0;
#X connect 19 0 17 0;
#X connect 19 1 18 0;
#X connect 20 0 13 0;
#X connect 20 1 19 0;
#X connect 21 0 20 1;
#X connect 22 0 32 0;
#X connect 23 0 22 0;
#X connect 23 1 21 0;
#X connect 24 0 1 0;
#X connect 24 1 20 1;
#X connect 25 0 29 0;
#X connect 25 1 26 0;
#X connect 26 0 28 0;
#X connect 26 1 47 0;
#X connect 27 0 33 0;
#X connect 28 0 3 0;
#X connect 29 0 31 0;
#X connect 29 1 30 0;
#X connect 29 1 46 0;
#X connect 30 0 20 1;
#X connect 31 0 3 0;
#X connect 31 0 32 0;
#X connect 32 0 8 0;
#X connect 32 0 41 1;
#X connect 32 1 1 0;
#X connect 33 0 12 0;
#X connect 33 1 20 1;
#X connect 34 0 2 0;
#X connect 35 0 37 0;
#X connect 36 0 37 0;
#X connect 37 0 34 0;
#X connect 38 0 39 1;
#X connect 39 0 38 0;
#X connect 39 0 42 0;
#X connect 40 0 38 0;
#X connect 41 0 43 0;
#X connect 42 0 44 0;
#X connect 43 0 39 0;
#X connect 44 0 45 0;
#X connect 46 0 47 0;
#X connect 47 0 27 0;
#X connect 48 0 25 0;
#X connect 48 1 15 0;
#X connect 48 1 18 0;
#X restore 59 294 pd autorec;
#X obj 59 120 subtoggle white Auto 1 0;
#X msg 59 97 1;
#X obj 31 35 sel 0 1;
#X msg 5 55 0;
#X obj 60 77 delay 30;
#X obj 82 388 s \$0-recorder_cut;
#X obj 59 413 s \$0-recorder_rec;
#X obj 39 196 t f f;
#X obj 95 155 subdial orange hi --- 20 99 1 65.503;
#N canvas 0 50 450 300 db 0;
#X obj 91 120 i;
#X msg 91 157 ll \$1;
#X obj 91 138 makesymbol %sdB;
#X obj 91 99 inlet;
#X obj 91 178 outlet;
#X connect 0 0 2 0;
#X connect 1 0 4 0;
#X connect 2 0 1 0;
#X connect 3 0 0 0;
#X restore 95 139 pd db;
#X obj 31 13 r \$0-rec_parole;
#X msg 213 383 0;
#X obj 213 364 sel 1;
#X obj 253 364 r \$0-parole_num;
#X obj 253 384 != 0;
#X obj 223 405 demux;
#X obj 253 425 s \$0-diseur;
#X obj 253 444 s \$0-diseur2;
#X obj 368 431 s \$0-diseur3;
#X obj 368 450 s \$0-diseur4;
#X obj 135 229 subdial LightBlue tlow _auto 0.1 3 1 1.028;
#X obj 112 194 subdial LightBlue thi _auto 0 1 1 0.0849995;
#X obj 213 341 s \$0-recorder_indel;
#X obj 229 258 * 1000;
#X obj 213 281 sel 1;
#X obj 213 304 f;
#X obj 214 323 + 80;
#X obj 82 367 *;
#X msg 31 55 stop;
#X floatatom 121 456 5 0 0 0 - - -, f 5;
#X obj 135 350 * 0.9;
#X obj 203 94 s \$0-recmax;
#X msg 203 73 12;
#X connect 0 0 7 0;
#X connect 0 0 13 0;
#X connect 0 1 1 0;
#X connect 1 0 8 0;
#X connect 2 0 1 0;
#X connect 2 0 33 0;
#X connect 3 0 4 0;
#X connect 3 0 29 0;
#X connect 3 1 5 0;
#X connect 4 0 1 0;
#X connect 5 0 2 0;
#X connect 8 0 0 0;
#X connect 8 1 25 0;
#X connect 8 1 28 0;
#X connect 9 0 10 0;
#X connect 9 0 0 1;
#X connect 10 0 9 0;
#X connect 11 0 3 0;
#X connect 12 0 16 0;
#X connect 13 0 12 0;
#X connect 14 0 15 0;
#X connect 15 0 16 1;
#X connect 16 1 17 0;
#X connect 16 1 18 0;
#X connect 21 0 0 3;
#X connect 21 0 31 0;
#X connect 22 0 0 2;
#X connect 22 0 24 0;
#X connect 24 0 26 1;
#X connect 25 0 26 0;
#X connect 26 0 27 0;
#X connect 27 0 23 0;
#X connect 28 0 6 0;
#X connect 29 0 5 0;
#X connect 31 0 28 1;
#X connect 31 0 30 0;
#X connect 33 0 32 0;
#X restore 1 1 pd parole_autorec;
#N canvas 19 138 600 400 playtab 0;
#X obj 187 215 bng 15 250 50 0 empty empty empty 20 8 0 8 -24198 -1
-1;
#X msg 143 214 stop;
#X obj 124 118 subtoggle green 1 0;
#X obj 288 109 r \$0-insamplength;
#X obj 288 131 / 44.1;
#X obj 243 160 delay;
#X obj 156 142 sel 0 1;
#X msg 243 183 0;
#X obj 77 233 switch~;
#X msg 100 211 1;
#X msg 70 210 0;
#X obj 178 236 tabplay~ \$0-lesample;
#X msg 124 90 1;
#X obj 124 70 r \$0-parole_playtab;
#X obj 178 260 throw~ \$0-parole_out;
#X connect 0 0 11 0;
#X connect 1 0 11 0;
#X connect 2 0 6 0;
#X connect 2 1 12 0;
#X connect 3 0 4 0;
#X connect 4 0 5 1;
#X connect 5 0 7 0;
#X connect 5 0 10 0;
#X connect 6 0 1 0;
#X connect 6 0 10 0;
#X connect 6 1 5 0;
#X connect 6 1 9 0;
#X connect 6 1 11 0;
#X connect 7 0 2 0;
#X connect 9 0 8 0;
#X connect 10 0 8 0;
#X connect 11 0 14 0;
#X connect 12 0 2 0;
#X connect 12 0 6 0;
#X connect 13 0 12 0;
#X restore 364 69 pd playtab;
