#N canvas 15 13 485 518 10;
#X obj 89 122 delay 10;
#X obj 89 55 random 4;
#X obj 89 78 sel 0;
#X obj 89 166 random 60;
#X obj 89 99 random 100;
#X floatatom 45 366 5 0 0;
#X obj 45 341 bng 15 250 50 0 empty empty empty 0 -6 0 8 -262144 -1
-1;
#X obj 89 188 t f b;
#X obj 149 324 +;
#X obj 119 259 demux;
#X obj 119 217 random 0;
#X obj 119 238 / 100000;
#X obj 170 196 * 100000;
#X text 268 177 semitone;
#X text 192 291 semitone;
#X obj 149 299 i;
#X obj 149 279 + 0.5;
#X obj 149 345 mtof;
#X obj 149 367 / 8.1758;
#N canvas 57 187 286 321 player 0;
#X obj 113 88 i;
#X obj 143 89 != 1;
#X obj 83 119 demux;
#X obj 83 66 t f b;
#X obj 83 10 inlet;
#X obj 128 9 r \$0-nbfrag;
#X obj 83 38 min;
#X obj 56 145 vox \$0;
#X obj 113 145 vox \$0;
#X obj 36 179 throw~ outl;
#X obj 119 179 throw~ outr;
#X connect 0 0 1 0;
#X connect 0 0 2 1;
#X connect 1 0 0 1;
#X connect 2 0 7 0;
#X connect 2 0 8 1;
#X connect 2 1 7 1;
#X connect 2 1 8 0;
#X connect 3 0 2 0;
#X connect 3 1 0 0;
#X connect 4 0 6 0;
#X connect 5 0 6 1;
#X connect 6 0 3 0;
#X connect 7 0 9 0;
#X connect 8 0 10 0;
#X restore 89 414 pd player;
#X obj 335 244 s \$0-samplelen;
#X obj 335 359 s \$0-sampletab;
#X obj 335 405 s \$0-peakstab;
#X obj 335 321 bng 15 250 50 0 empty empty empty 0 -6 0 8 -262144 -1
-1;
#X obj 335 286 s \$0-voxsmooth;
#X obj 360 318 loadbang;
#X obj 335 339 symbol \$1-lesample;
#X obj 335 384 symbol \$1-peaks;
#X obj 335 224 r \$1-insamplength;
#X obj 335 266 r \$1-smooth;
#X obj 149 389 s \$0-voxpitch;
#X obj 336 461 s \$0-nbfrag;
#X obj 336 440 r \$1-nbfrag;
#X obj 140 33 r \$1-randplay;
#X obj 89 11 r \$1-bangue;
#X obj 154 74 r \$1-randdelay;
#X obj 170 176 r \$1-rndpitch;
#X obj 188 239 r \$1-rndpitchint;
#X obj 193 306 r \$1-pitch;
#X obj 147 143 r \$0-nbfrag;
#X obj 348 134 s \$0-voxvol;
#X obj 348 109 r \$1-rndvol;
#X connect 0 0 3 0;
#X connect 1 0 2 0;
#X connect 2 0 4 0;
#X connect 3 0 7 0;
#X connect 4 0 0 0;
#X connect 5 0 19 0;
#X connect 6 0 5 0;
#X connect 7 0 19 0;
#X connect 7 1 10 0;
#X connect 8 0 17 0;
#X connect 9 0 8 0;
#X connect 9 1 16 0;
#X connect 10 0 11 0;
#X connect 11 0 9 0;
#X connect 12 0 10 1;
#X connect 15 0 8 0;
#X connect 16 0 15 0;
#X connect 17 0 18 0;
#X connect 18 0 30 0;
#X connect 23 0 26 0;
#X connect 23 0 27 0;
#X connect 25 0 23 0;
#X connect 26 0 21 0;
#X connect 27 0 22 0;
#X connect 28 0 20 0;
#X connect 29 0 24 0;
#X connect 32 0 31 0;
#X connect 33 0 1 1;
#X connect 34 0 1 0;
#X connect 35 0 4 1;
#X connect 36 0 12 0;
#X connect 37 0 9 1;
#X connect 38 0 8 1;
#X connect 39 0 3 1;
#X connect 41 0 40 0;
