#N canvas 1444 51 1272 969 10;
#X obj 588 54 vsl 10 50 0 1 0 0 \$1-vol-snd \$1-vol-rcv empty 0 -9
0 10 -258113 -1 -1 4009 1;
#X obj 697 68 nbx 4 14 -24 72 0 0 \$1-pitch-snd \$1-pitch-rcv pitch
0 -8 0 10 -261682 -1 -1 0 256;
#X obj 744 67 bng 15 250 50 0 empty empty empty 17 7 0 10 -262144 -1
-1;
#X msg 697 29 0;
#X msg 578 149 sample sample\$1;
#X obj 524 91 hradio 15 1 0 4 empty empty sample 0 -8 0 10 -4034 -1
-1 1;
#X obj 578 126 + 1;
#X obj 563 432 v \$0-n;
#X msg 563 409 0;
#X obj 674 502 mull~ 1 50;
#X obj 310 264 s \$0-tfade;
#X obj 184 308 *;
#X obj 291 284 * 44.1;
#N canvas 145 961 600 400 count 0;
#X obj 167 192 i;
#X obj 193 192 + 1;
#X obj 219 192 mod 2;
#X obj 249 168 v \$0-n;
#X obj 152 151 metro 200;
#X obj 150 97 tgl 15 0 empty empty empty 20 8 0 8 -262144 -1 -1 0 1
;
#X floatatom 210 98 5 50 2000 0 - - -, f 5;
#X obj 227 135 sel 0 1;
#X obj 167 262 outlet;
#X obj 150 58 inlet;
#X obj 210 58 inlet;
#X obj 357 172 f;
#X obj 379 217 *;
#X obj 357 194 t f f b;
#X obj 415 240 / 10000;
#X obj 415 219 random 10000;
#X obj 399 262 *;
#X obj 391 59 inlet;
#X obj 383 284 +;
#X connect 0 0 1 0;
#X connect 0 0 8 0;
#X connect 1 0 2 0;
#X connect 2 0 0 1;
#X connect 3 0 2 1;
#X connect 4 0 0 0;
#X connect 4 0 11 0;
#X connect 5 0 4 0;
#X connect 5 0 7 0;
#X connect 6 0 4 1;
#X connect 7 1 3 0;
#X connect 9 0 5 0;
#X connect 10 0 6 0;
#X connect 10 0 11 1;
#X connect 11 0 13 0;
#X connect 12 0 16 0;
#X connect 13 0 18 0;
#X connect 13 1 12 0;
#X connect 13 2 15 0;
#X connect 14 0 16 1;
#X connect 15 0 14 0;
#X connect 16 0 18 1;
#X connect 17 0 12 1;
#X connect 18 0 4 1;
#X restore 102 244 pd count;
#X obj 153 335 pack f f f;
#X obj 310 240 / 3;
#N canvas 392 1365 600 400 play 0;
#X obj 218 255 s \$0-command;
#X msg 218 234 play \$1 \$2 \$3 1;
#X obj 213 65 inlet;
#X obj 213 93 unpack f f f;
#X obj 262 65 inlet;
#X obj 319 65 inlet;
#X obj 218 214 pack f f f;
#N canvas 212 237 600 400 lenrand 0;
#X obj 52 72 *;
#X obj 30 49 t f f b;
#X obj 88 95 / 10000;
#X obj 88 74 random 10000;
#X obj 72 117 *;
#X obj 56 139 +;
#X obj 30 22 inlet;
#X obj 93 22 inlet;
#X obj 56 162 outlet;
#X connect 0 0 4 0;
#X connect 1 0 5 0;
#X connect 1 1 0 0;
#X connect 1 2 3 0;
#X connect 2 0 4 1;
#X connect 3 0 2 0;
#X connect 4 0 5 1;
#X connect 5 0 8 0;
#X connect 6 0 1 0;
#X connect 7 0 0 1;
#X restore 309 139 pd lenrand;
#N canvas 529 1022 600 400 begrand 0;
#X obj 30 49 t f f b;
#X obj 88 95 / 10000;
#X obj 88 74 random 10000;
#X obj 88 117 *;
#X obj 56 139 +;
#X obj 30 22 inlet;
#X obj 183 52 inlet;
#X obj 56 162 outlet;
#X obj 183 74 * 44.1;
#X connect 0 0 4 0;
#X connect 0 2 2 0;
#X connect 1 0 3 0;
#X connect 2 0 1 0;
#X connect 3 0 4 1;
#X connect 4 0 7 0;
#X connect 5 0 0 0;
#X connect 6 0 8 0;
#X connect 8 0 3 1;
#X restore 231 139 pd begrand;
#X connect 1 0 0 0;
#X connect 2 0 3 0;
#X connect 3 0 6 0;
#X connect 3 1 8 0;
#X connect 3 2 7 0;
#X connect 4 0 8 1;
#X connect 5 0 7 1;
#X connect 6 0 1 0;
#X connect 7 0 6 2;
#X connect 8 0 6 1;
#X restore 282 456 pd play;
#X obj 779 501 mull~ 1 50;
#X obj 186 84 switch~;
#X obj 505 329 s \$0-tfade;
#X obj 523 59 tgl 15 0 \$1-on-snd \$1-on-rcv on 0 -7 0 10 -4034 -1
-1 0 1;
#X obj 102 84 r \$1-on-snd;
#X obj 256 76 hsl 80 10 0 1 0 0 \$1-speed-snd \$1-speed-rcv speed -2
-6 0 10 -257985 -1 -1 2474 1;
#X obj 256 96 hsl 80 10 0 1 0 0 \$1-speedrnd-snd \$1-speedrnd-rcv speedrnd
-2 -6 0 10 -260097 -1 -1 0 1;
#X obj 345 76 hsl 80 10 0 1 0 0 \$1-pos-snd \$1-pos-rcv pos -2 -6 0
10 -261234 -1 -1 5666 1;
#X obj 124 152 r \$1-speed-snd;
#X obj 124 195 * 399;
#X obj 124 217 + 1;
#X obj 173 176 r \$1-speedrnd-snd;
#X obj 173 198 pow 2;
#X obj 185 232 r \$1-pos-snd;
#X obj 778 129 s \$1-pos-rcv;
#X obj 201 248 r \$0-samplelen;
#X obj 693 350 s \$0-samplelen;
#X obj 748 285 s \$0-peakstab;
#X obj 839 360 s \$0-nbfrag;
#X obj 748 210 s \$0-sample;
#X obj 743 156 loadbang;
#X obj 812 166 bng 15 250 50 0 empty empty empty 17 7 0 10 -262144
-1 -1;
#X obj 748 238 r \$0-sample;
#X msg 748 261 symbol \$1-peaks;
#X obj 693 328 iemlib/iem_receive;
#X msg 631 282 set \$1-len \, 0;
#X obj 631 304 tabread;
#X floatatom 694 396 8 0 0 0 - - -, f 8;
#X msg 693 308 set \$1-setlen;
#X obj 878 283 iemlib/iem_receive;
#X msg 878 263 set \$1-nbfrag;
#X obj 839 336 tabread;
#X floatatom 838 402 8 0 0 0 - - -, f 8;
#X msg 839 314 set \$1-nbfragtab \, 0;
#X obj 694 374 r \$0-samplelen;
#X obj 838 382 r \$0-nbfrag;
#X obj 748 188 symbol \$2;
#X obj 438 76 hsl 80 10 0 1 0 0 \$1-len-snd \$1-len-rcv len -2 -6 0
10 -204800 -1 -1 2633 1;
#X obj 291 166 r \$1-len-snd;
#X obj 291 188 pow 2;
#X obj 291 210 * 1000;
#X obj 345 96 hsl 80 10 0 1 0 0 \$1-posrnd-snd \$1-posrnd-rcv posrnd
-2 -6 0 10 -261234 -1 -1 4389 1;
#X obj 438 96 hsl 80 10 0 1 0 0 \$1-lenrnd-snd \$1-lenrnd-rcv lenrnd
-2 -6 0 10 -204800 -1 -1 3810 1;
#X obj 446 399 r \$1-lenrnd-snd;
#X obj 388 201 r \$1-posrnd-snd;
#X obj 388 223 * 2;
#X obj 388 245 - 1;
#X obj 388 267 moses 0;
#X obj 388 290 * -1;
#X obj 388 333 * -1;
#X obj 388 355 f;
#X obj 388 376 * 300;
#X floatatom 393 399 5 0 0 0 - - -, f 5;
#X obj 388 312 pow 3;
#X obj 427 311 pow 3;
#X obj 59 492 stretchvox \$0;
#X obj 675 480 catch~ \$0-out1;
#X obj 779 479 catch~ \$0-out2;
#X obj 675 532 outlet~;
#X obj 778 536 outlet~;
#X obj 750 450 pow 2;
#X obj 750 424 r \$1-vol-snd;
#N canvas 58 961 450 339 QampleName 0;
#X obj 185 12 inlet;
#X obj 99 267 outlet;
#X obj 185 35 + 1;
#X obj 133 175 t b a;
#X symbolatom 315 210 0 0 0 0 - - -;
#X msg 77 221 sample Stre1-sample-2;
#X obj 226 105 makesymbol \$2-sample%s;
#X obj 183 61 makesymbol \$2-%s;
#X obj 54 178 loadbang;
#X msg 124 145 set sample \$1;
#X connect 0 0 2 0;
#X connect 2 0 7 0;
#X connect 3 0 5 0;
#X connect 3 1 5 0;
#X connect 5 0 1 0;
#X connect 7 0 9 0;
#X connect 7 0 4 0;
#X connect 8 0 5 0;
#X connect 9 0 3 0;
#X restore 409 138 pd QampleName;
#X obj 451 172 s \$0-sample;
#X obj 256 4 r \$1-Speed;
#X obj 286 28 r \$1-SpeedRnd;
#X obj 339 4 r \$1-Pos;
#X obj 387 25 r \$1-PosRnd;
#X obj 478 1 r \$1-Len;
#X obj 481 24 r \$1-LenRnd;
#X obj 610 46 r \$1-Volume;
#X obj 799 12 loadbang;
#X msg 799 34 1;
#X obj 59 509 stretchvox \$0;
#X obj 59 526 stretchvox \$0;
#X obj 59 543 stretchvox \$0;
#X obj 59 560 stretchvox \$0;
#X obj 59 577 stretchvox \$0;
#X obj 59 594 stretchvox \$0;
#X obj 59 611 stretchvox \$0;
#X obj 158 492 stretchvox \$0;
#X obj 158 509 stretchvox \$0;
#X obj 158 526 stretchvox \$0;
#X obj 158 543 stretchvox \$0;
#X obj 158 560 stretchvox \$0;
#X obj 158 577 stretchvox \$0;
#X obj 158 594 stretchvox \$0;
#X obj 158 611 stretchvox \$0;
#X obj 258 492 stretchvox \$0;
#X obj 258 509 stretchvox \$0;
#X obj 258 526 stretchvox \$0;
#X obj 258 543 stretchvox \$0;
#X obj 258 560 stretchvox \$0;
#X obj 258 577 stretchvox \$0;
#X obj 258 594 stretchvox \$0;
#X obj 258 611 stretchvox \$0;
#X obj 356 492 stretchvox \$0;
#X obj 356 509 stretchvox \$0;
#X obj 356 526 stretchvox \$0;
#X obj 356 543 stretchvox \$0;
#X obj 356 560 stretchvox \$0;
#X obj 356 577 stretchvox \$0;
#X obj 356 594 stretchvox \$0;
#X obj 356 611 stretchvox \$0;
#N canvas 275 202 450 369 Sa 1;
#X obj 256 299 outlet;
#X obj 256 182 f;
#X obj 71 19 r \$1-Sa1;
#X obj 172 296 outlet;
#X msg 160 98 1;
#X msg 71 93 0;
#X msg 245 94 2;
#X msg 328 98 3;
#X obj 104 154 ++;
#X obj 144 178 ++;
#X obj 178 205 ++;
#X obj 157 238 sel 0;
#X msg 157 260 0, f 2;
#X msg 189 261 1, f 2;
#X obj 71 70 sel 1;
#X obj 160 75 sel 1;
#X obj 245 70 sel 1;
#X obj 328 74 sel 1;
#X obj 68 234 r \$1-Trig;
#X floatatom 300 234 5 0 0 0 - - -, f 5;
#X obj 25 13 loadbang;
#X obj 71 44 change;
#X floatatom 123 277 5 0 0 0 - - -, f 5;
#X msg 137 211 1;
#X floatatom 130 316 5 0 0 0 - - -, f 5;
#X obj 163 30 r \$1-Sa2;
#X obj 249 25 r \$1-Sa3;
#X obj 333 26 r \$1-Sa4;
#X obj 160 52 change;
#X obj 246 47 change;
#X obj 330 48 change;
#X connect 1 0 0 0;
#X connect 1 0 19 0;
#X connect 2 0 21 0;
#X connect 4 0 1 0;
#X connect 5 0 1 0;
#X connect 6 0 1 0;
#X connect 7 0 1 0;
#X connect 8 0 9 0;
#X connect 9 0 10 0;
#X connect 10 0 11 0;
#X connect 10 0 22 0;
#X connect 11 0 12 0;
#X connect 11 1 13 0;
#X connect 12 0 3 0;
#X connect 12 0 24 0;
#X connect 13 0 3 0;
#X connect 13 0 24 0;
#X connect 14 0 5 0;
#X connect 15 0 4 0;
#X connect 16 0 6 0;
#X connect 17 0 7 0;
#X connect 20 0 5 0;
#X connect 21 0 8 0;
#X connect 21 0 14 0;
#X connect 23 0 11 0;
#X connect 25 0 28 0;
#X connect 26 0 29 0;
#X connect 27 0 30 0;
#X connect 28 0 8 1;
#X connect 28 0 15 0;
#X connect 29 0 9 1;
#X connect 29 0 16 0;
#X connect 30 0 10 1;
#X connect 30 0 17 0;
#X restore 578 11 pd Sa;
#N canvas 463 328 450 369 SaT 0;
#X obj 256 299 outlet;
#X obj 256 182 f;
#X obj 172 296 outlet;
#X msg 160 98 1;
#X msg 71 93 0;
#X msg 245 94 2;
#X msg 328 98 3;
#X obj 104 154 ++;
#X obj 144 178 ++;
#X obj 178 205 ++;
#X obj 157 238 sel 0;
#X msg 157 260 0, f 2;
#X msg 189 261 1, f 2;
#X obj 71 70 sel 1;
#X obj 160 75 sel 1;
#X obj 245 70 sel 1;
#X obj 328 74 sel 1;
#X obj 68 234 r \$1-Trig;
#X floatatom 300 234 5 0 0 0 - - -, f 5;
#X obj 8 31 loadbang;
#X floatatom 133 297 5 0 0 0 - - -, f 5;
#X floatatom 44 152 5 0 0 0 - - -, f 5;
#X floatatom 121 101 5 0 0 0 - - -, f 5;
#X obj 72 16 r \$1-SaT1;
#X obj 161 28 r \$1-SaT2;
#X obj 247 23 r \$1-SaT3;
#X obj 331 24 r \$1-SaT4;
#X obj 71 40 change;
#X obj 160 52 change;
#X obj 246 47 change;
#X obj 329 48 change;
#X connect 1 0 0 0;
#X connect 1 0 18 0;
#X connect 3 0 1 0;
#X connect 4 0 1 0;
#X connect 5 0 1 0;
#X connect 6 0 1 0;
#X connect 7 0 8 0;
#X connect 8 0 9 0;
#X connect 9 0 10 0;
#X connect 10 0 11 0;
#X connect 10 1 12 0;
#X connect 11 0 2 0;
#X connect 11 0 20 0;
#X connect 12 0 2 0;
#X connect 12 0 20 0;
#X connect 13 0 4 0;
#X connect 14 0 3 0;
#X connect 15 0 5 0;
#X connect 16 0 6 0;
#X connect 19 0 4 0;
#X connect 23 0 27 0;
#X connect 24 0 28 0;
#X connect 25 0 29 0;
#X connect 26 0 30 0;
#X connect 27 0 7 0;
#X connect 27 0 13 0;
#X connect 27 0 21 0;
#X connect 28 0 7 1;
#X connect 28 0 14 0;
#X connect 29 0 8 1;
#X connect 29 0 15 0;
#X connect 30 0 9 1;
#X connect 30 0 16 0;
#X restore 627 14 pd SaT;
#X obj 408 4 r \$1-PosT;
#X obj 505 859 s \$0-tfade;
#X obj 379 879 *;
#X obj 485 880 * 44.1;
#N canvas 132 961 600 400 count 0;
#X obj 167 192 i;
#X obj 193 192 + 1;
#X obj 219 192 mod 2;
#X obj 249 168 v \$0-n;
#X obj 152 151 metro 200;
#X obj 150 97 tgl 15 0 empty empty empty 20 8 0 8 -262144 -1 -1 0 1
;
#X floatatom 210 98 5 50 2000 0 - - -, f 5;
#X obj 227 135 sel 0 1;
#X obj 167 262 outlet;
#X obj 150 58 inlet;
#X obj 210 58 inlet;
#X obj 357 172 f;
#X obj 379 217 *;
#X obj 357 194 t f f b;
#X obj 415 240 / 10000;
#X obj 415 219 random 10000;
#X obj 399 262 *;
#X obj 391 59 inlet;
#X obj 383 284 +;
#X obj 111 151 bng 15 250 50 0 empty empty empty 17 7 0 10 -262144
-1 -1;
#X floatatom 129 245 5 0 0 0 - - -, f 5;
#X floatatom 259 248 5 0 0 0 - - -, f 5;
#X obj 228 339 print;
#X connect 0 0 1 0;
#X connect 0 0 8 0;
#X connect 1 0 2 0;
#X connect 2 0 0 1;
#X connect 3 0 2 1;
#X connect 4 0 0 0;
#X connect 4 0 11 0;
#X connect 5 0 4 0;
#X connect 5 0 7 0;
#X connect 6 0 4 1;
#X connect 7 1 3 0;
#X connect 9 0 5 0;
#X connect 10 0 6 0;
#X connect 10 0 11 1;
#X connect 11 0 13 0;
#X connect 12 0 16 0;
#X connect 13 0 18 0;
#X connect 13 1 12 0;
#X connect 13 2 15 0;
#X connect 14 0 16 1;
#X connect 15 0 14 0;
#X connect 16 0 18 1;
#X connect 17 0 12 1;
#X connect 18 0 4 1;
#X restore 296 819 pd count;
#X obj 347 910 pack f f f;
#X obj 504 815 / 3;
#N canvas 103 961 600 400 play 0;
#X obj 218 255 s \$0-command;
#X msg 218 234 play \$1 \$2 \$3 1;
#X obj 213 65 inlet;
#X obj 213 93 unpack f f f;
#X obj 262 65 inlet;
#X obj 319 65 inlet;
#X obj 218 214 pack f f f;
#N canvas 197 961 600 400 lenrand 0;
#X obj 53 143 *;
#X obj 30 49 t f f b;
#X obj 69 93 / 10000;
#X obj 69 72 random 10000;
#X obj 53 115 *;
#X obj 30 199 +;
#X obj 30 22 inlet;
#X obj 93 22 inlet;
#X obj 30 222 outlet;
#X msg 93 139 1 \$1;
#X obj 30 171 * 1;
#X obj 93 163 -;
#X connect 0 0 5 1;
#X connect 1 0 10 0;
#X connect 1 1 4 0;
#X connect 1 2 3 0;
#X connect 2 0 4 1;
#X connect 3 0 2 0;
#X connect 4 0 0 0;
#X connect 5 0 8 0;
#X connect 6 0 1 0;
#X connect 7 0 0 1;
#X connect 7 0 9 0;
#X connect 9 0 11 0;
#X connect 10 0 5 0;
#X connect 11 0 10 1;
#X restore 309 139 pd lenrand;
#N canvas 91 1263 600 400 begrand 0;
#X obj 30 49 t f f b;
#X obj 88 95 / 10000;
#X obj 88 74 random 10000;
#X obj 88 117 *;
#X obj 56 139 +;
#X obj 30 22 inlet;
#X obj 183 52 inlet;
#X obj 56 162 outlet;
#X obj 188 90 * 44.1;
#X connect 0 0 4 0;
#X connect 0 2 2 0;
#X connect 1 0 3 0;
#X connect 2 0 1 0;
#X connect 3 0 4 1;
#X connect 4 0 7 0;
#X connect 5 0 0 0;
#X connect 6 0 3 1;
#X connect 8 0 3 1;
#X restore 231 139 pd begrand;
#X floatatom 401 225 5 0 0 0 - - -, f 5;
#X obj 360 189 print;
#X connect 1 0 0 0;
#X connect 2 0 3 0;
#X connect 3 0 6 0;
#X connect 3 1 8 0;
#X connect 3 2 7 0;
#X connect 4 0 8 1;
#X connect 5 0 7 1;
#X connect 6 0 1 0;
#X connect 7 0 6 2;
#X connect 8 0 6 1;
#X restore 476 1031 pd play;
#X obj 699 904 s \$0-tfade;
#X obj 296 659 r \$1-on-snd;
#X obj 318 727 r \$1-speed-snd;
#X obj 318 770 * 399;
#X obj 318 792 + 1;
#X obj 367 751 r \$1-speedrnd-snd;
#X obj 367 773 pow 2;
#X obj 379 807 r \$1-pos-snd;
#X obj 394 829 r \$0-samplelen;
#X obj 485 741 r \$1-len-snd;
#X obj 485 763 pow 2;
#X obj 485 785 * 1000;
#X obj 640 974 r \$1-lenrnd-snd;
#X obj 582 776 r \$1-posrnd-snd;
#X obj 582 798 * 2;
#X obj 582 820 - 1;
#X obj 582 842 moses 0;
#X obj 582 865 * -1;
#X obj 582 908 * -1;
#X obj 582 930 f;
#X obj 582 951 * 300;
#X floatatom 587 974 8 0 0 0 - - -, f 8;
#X obj 582 887 pow 3;
#X obj 621 886 pow 3;
#X floatatom 257 937 5 0 0 0 - - -, f 5;
#X floatatom 501 904 8 0 0 0 - - -, f 8;
#X obj 294 981 * 32;
#X obj 313 959 v \$0-n;
#X obj 313 941 bng 15 250 50 0 empty empty empty 17 7 0 10 -262144
-1 -1;
#X floatatom 305 1012 5 0 0 0 - - -, f 5;
#X obj 528 762 t b f;
#X obj 317 749 pow 3;
#X obj 614 925 r \$0-samplelen;
#X obj 530 796 t b f;
#X floatatom 594 731 5 0 0 0 - - -, f 5;
#X obj 499 938 print;
#X obj 504 836 max 2;
#X obj 714 803 r \$1-dur-snd;
#X obj 711 827 pow 2;
#X obj 708 868 + 2;
#X obj 708 849 * 50;
#X obj 391 852 t b f;
#X obj 625 950 t b f;
#X obj 123 174 pow 3;
#X obj 202 271 t b f;
#X obj 725 763 hsl 128 15 0 1 0 0 empty empty empty -2 -8 0 10 -262144
-1 -1 0 1;
#X floatatom 444 962 5 0 0 0 - - -, f 5;
#X floatatom 532 966 5 0 0 0 - - -, f 5;
#X connect 2 0 3 0;
#X connect 3 0 1 0;
#X connect 5 0 79 0;
#X connect 6 0 4 0;
#X connect 8 0 7 0;
#X connect 9 0 75 0;
#X connect 11 0 14 1;
#X connect 12 0 14 2;
#X connect 13 0 14 0;
#X connect 17 0 76 0;
#X connect 21 0 13 0;
#X connect 25 0 174 0;
#X connect 26 0 27 0;
#X connect 27 0 13 1;
#X connect 28 0 29 0;
#X connect 29 0 13 2;
#X connect 30 0 11 0;
#X connect 32 0 175 0;
#X connect 38 0 53 0;
#X connect 39 0 40 0;
#X connect 39 0 42 0;
#X connect 39 0 45 0;
#X connect 39 0 47 0;
#X connect 39 0 50 0;
#X connect 40 0 34 0;
#X connect 41 0 33 0;
#X connect 42 0 43 0;
#X connect 43 0 33 0;
#X connect 45 0 41 0;
#X connect 46 0 35 0;
#X connect 47 0 46 0;
#X connect 48 0 35 0;
#X connect 50 0 48 0;
#X connect 51 0 44 0;
#X connect 52 0 49 0;
#X connect 53 0 36 0;
#X connect 55 0 56 0;
#X connect 56 0 57 0;
#X connect 57 0 15 0;
#X connect 57 0 12 0;
#X connect 60 0 16 2;
#X connect 61 0 62 0;
#X connect 62 0 63 0;
#X connect 63 0 64 0;
#X connect 64 0 65 0;
#X connect 64 1 71 0;
#X connect 65 0 70 0;
#X connect 66 0 67 0;
#X connect 67 0 68 0;
#X connect 68 0 16 1;
#X connect 68 0 69 0;
#X connect 70 0 66 0;
#X connect 71 0 67 0;
#X connect 73 0 9 0;
#X connect 74 0 17 0;
#X connect 77 0 9 1;
#X connect 77 0 17 1;
#X connect 78 0 77 0;
#X connect 79 0 80 0;
#X connect 81 0 22 0;
#X connect 82 0 23 0;
#X connect 83 0 24 0;
#X connect 84 0 58 0;
#X connect 85 0 54 0;
#X connect 86 0 59 0;
#X connect 87 0 0 0;
#X connect 88 0 89 0;
#X connect 121 0 20 0;
#X connect 121 1 5 0;
#X connect 122 0 20 0;
#X connect 122 1 5 0;
#X connect 123 0 24 0;
#X connect 125 0 128 1;
#X connect 125 0 177 0;
#X connect 126 0 128 2;
#X connect 127 0 128 0;
#X connect 128 0 130 0;
#X connect 129 0 167 0;
#X connect 132 0 127 0;
#X connect 133 0 162 0;
#X connect 134 0 135 0;
#X connect 135 0 127 1;
#X connect 135 0 155 0;
#X connect 135 0 157 0;
#X connect 136 0 137 0;
#X connect 137 0 127 2;
#X connect 138 0 125 0;
#X connect 139 0 172 0;
#X connect 140 0 141 0;
#X connect 141 0 142 0;
#X connect 142 0 129 0;
#X connect 142 0 126 0;
#X connect 142 0 156 0;
#X connect 143 0 130 2;
#X connect 144 0 145 0;
#X connect 145 0 146 0;
#X connect 146 0 147 0;
#X connect 147 0 148 0;
#X connect 147 1 154 0;
#X connect 148 0 153 0;
#X connect 149 0 150 0;
#X connect 150 0 151 0;
#X connect 150 0 178 0;
#X connect 151 0 130 1;
#X connect 151 0 152 0;
#X connect 153 0 149 0;
#X connect 154 0 150 0;
#X connect 157 0 160 0;
#X connect 157 0 161 0;
#X connect 158 0 157 1;
#X connect 159 0 158 0;
#X connect 161 0 142 0;
#X connect 161 1 142 1;
#X connect 162 0 134 0;
#X connect 163 0 173 0;
#X connect 164 0 129 0;
#X connect 164 1 129 1;
#X connect 165 0 164 0;
#X connect 167 0 124 0;
#X connect 168 0 169 0;
#X connect 169 0 171 0;
#X connect 170 0 164 0;
#X connect 171 0 170 0;
#X connect 172 0 125 0;
#X connect 172 1 125 1;
#X connect 173 0 151 0;
#X connect 173 1 151 1;
#X connect 174 0 26 0;
#X connect 175 0 11 0;
#X connect 175 1 11 1;
#X connect 176 0 169 0;
#X coords 0 -1 1 1 350 60 1 250 50;
