#N canvas 956 79 410 689 10;
#X obj 51 11 cnv 15 40 654 empty empty \$1 1 5 1 8 -257985 -1 0;
#X text 23 -16 KEPtype nomUnique;
#X obj 151 7 KEPface \$1;
#X obj 57 653 bng 10 250 50 0 empty empty empty 17 7 0 10 -4034 -1
-1;
#X obj 74 653 bng 10 250 50 0 empty empty empty 17 7 0 10 -258113 -1
-1;
#N canvas 938 1190 311 592 KEPboutons 0;
#X obj 26 78 KEPbus \$1 Effet Decay b3;
#X obj 32 163 KEPbus \$1 N1 -t1- t1;
#X obj 30 184 KEPbus \$1 N2 -t2- t2;
#X obj 32 251 KEPbus \$1 Rec -tL- tREC;
#X obj 31 206 KEPbus \$1 N4 -t3- t3;
#X obj 32 227 KEPbus \$1 N8 -t4- t4;
#X obj 27 34 KEPbus \$1 Note Note_adjust b1;
#X obj 27 55 KEPbus \$1 Phrases Phrases_vitesse b2;
#X obj 25 275 KEPbus \$1 l1 -l1- tl1;
#X obj 25 298 KEPbus \$1 l2 -l2- tl2;
#X obj 27 320 KEPbus \$1 l3 -l3- tl3;
#X obj 27 341 KEPbus \$1 l4 -l4- tl4;
#X obj 22 366 KEPbus \$1 lR -lR- tlREC;
#X obj 26 408 KEPbus \$1 lr -lr- lrouge;
#X obj 26 431 KEPbus \$1 lv -lv- lvert;
#X obj 25 121 KEPbus \$1 Volume Volume b5;
#X obj 26 100 KEPbus \$1 Reverb Reverb b4;
#X restore 174 404 pd KEPboutons;
#N canvas 528 1084 572 327 son 0;
#N canvas 1899 208 744 743 ALLSOUND 0;
#X obj 19 317 lop~ 3000;
#X obj 21 944 outlet~;
#X obj 16 117 inlet;
#X obj 18 429 +~;
#X obj 19 455 *~ 2;
#X obj 20 923 hip~ 10;
#X obj 338 397 apjuno \$1 FX juno1;
#X obj 201 588 *~ 20;
#X obj 277 640 ac;
#X obj 116 446 r \$1-Reverb;
#X obj 359 275 sel -1;
#X msg 359 297 0;
#X msg 392 297 100;
#X obj 338 368 pack;
#N canvas 565 1203 465 435 gam-pitch 0;
#X obj 198 62 inlet;
#X obj 230 349 outlet;
#X obj 230 147 pack f f;
#X obj 251 124 t b f;
#X obj 252 47 pow 3;
#X obj 251 68 * 100;
#X obj 31 67 r \$0-pitch-snd;
#X obj 113 26 r \$0-gamprepost-snd;
#X obj 97 227 demux;
#X obj 211 112 +;
#X obj 211 90 t b f;
#X obj 230 322 +;
#X obj 216 298 t b f;
#X obj 31 89 * 49;
#X obj 31 110 - 25;
#X obj 31 153 sel -25;
#X msg 31 174 0;
#X obj 97 204 f;
#X obj 113 47 t b f;
#X obj 144 215 demux;
#X msg 144 195 0;
#X floatatom 49 243 5 0 0 0 - - -;
#X obj 31 129 i;
#X obj 251 103 m 1;
#X obj 280 103 != 0;
#X obj 230 275 +;
#X obj 281 300 t b f;
#X floatatom 311 323 5 0 0 0 - - -;
#X obj 281 269 r \$0-transgam;
#X obj 281 82 r \$0-ongam;
#X obj 337 39 inlet;
#X msg 364 13 1;
#X floatatom 348 111 5 0 0 0 - - -;
#X obj 241 7 r \$1-Note_adjust;
#X obj 230 175 gammeRound GAMME1;
#X connect 0 0 9 0;
#X connect 2 0 34 0;
#X connect 3 0 2 0;
#X connect 3 1 2 1;
#X connect 4 0 5 0;
#X connect 5 0 23 0;
#X connect 6 0 13 0;
#X connect 7 0 18 0;
#X connect 8 0 10 0;
#X connect 8 1 12 0;
#X connect 9 0 2 0;
#X connect 10 0 9 0;
#X connect 10 1 9 1;
#X connect 11 0 1 0;
#X connect 12 0 11 0;
#X connect 12 1 11 1;
#X connect 13 0 14 0;
#X connect 14 0 22 0;
#X connect 15 0 16 0;
#X connect 15 1 17 0;
#X connect 16 0 17 0;
#X connect 17 0 8 0;
#X connect 17 0 21 0;
#X connect 18 0 17 0;
#X connect 18 0 20 0;
#X connect 18 1 8 1;
#X connect 18 1 19 1;
#X connect 19 0 12 0;
#X connect 19 1 10 0;
#X connect 20 0 19 0;
#X connect 22 0 15 0;
#X connect 23 0 3 0;
#X connect 24 0 23 1;
#X connect 25 0 11 0;
#X connect 26 0 25 0;
#X connect 26 1 25 1;
#X connect 26 1 27 0;
#X connect 28 0 26 0;
#X connect 29 0 24 0;
#X connect 29 0 32 0;
#X connect 30 0 24 0;
#X connect 31 0 4 0;
#X connect 33 0 4 0;
#X connect 34 0 25 0;
#X restore 338 226 pd gam-pitch;
#X floatatom 349 163 5 0 0 0 - - -;
#X obj 338 27 r \$1-Note;
#X obj 338 53 * 80;
#X obj 338 75 ++;
#X obj 370 52 r \$1-Key;
#X obj 359 252 r \$1-Key;
#X obj 609 33 cnv 15 72 20 empty empty gam 0 4 1 12 -260818 -1 0;
#X obj 640 33 mknob 12 100 0 1 0 0 \$0-adj-snd \$0-adj-rcv adj -2 16
1 8 -44926 -1 -1 0 1;
#X obj 619 45 tgl 8 0 \$0-gamprepost-snd \$0-gamprepost-rcv empty 0
-6 0 8 -44926 -1 -1 0 1;
#X obj 657 33 mknob 12 100 0 1 0 0 \$0-gamnum-snd \$0-gamnum-rcv gam2
-2 16 1 8 -62784 -1 -1 0 1;
#X obj 610 9 cnv 15 35 20 empty empty pitch 0 5 1 10 -24198 -258699
0;
#X obj 617 16 mknob 15 100 0 1 0 0 \$0-pitch-snd \$0-pitch-rcv empty
-2 -6 0 8 -241291 -1 -262144 0 1;
#X floatatom 376 95 5 0 0 0 - - -;
#X obj 369 74 r \$1-Phrases;
#N canvas 536 330 450 456 keyboardmono 0;
#X obj 73 129 tgl 15 0 empty empty empty 17 7 0 10 -262144 -1 -1 0
1;
#X obj 91 130 tgl 15 0 empty empty empty 17 7 0 10 -262144 -1 -1 0
1;
#X obj 109 130 tgl 15 0 empty empty empty 17 7 0 10 -262144 -1 -1 0
1;
#X obj 129 130 tgl 15 0 empty empty empty 17 7 0 10 -262144 -1 -1 0
1;
#X obj 100 155 * 2;
#X obj 72 155 * 1;
#X obj 164 176 t b f;
#X obj 159 198 +;
#X obj 116 204 t b f;
#X obj 111 226 +;
#X obj 71 223 t b f;
#X obj 55 246 +;
#X obj 135 155 * 4;
#X obj 170 155 * 8;
#X obj 55 267 sel 0;
#X obj 82 288 t b f;
#X obj 82 329 f;
#X msg 48 290 stop;
#X obj 82 309 del 25;
#X msg 23 310 -1;
#X obj 82 370 s \$1-keyboardmono;
#X obj 73 47 r \$1-N1;
#X obj 91 67 r \$1-N2;
#X obj 153 247 r \$1-keyboardmono;
#X obj 153 309 s \$1-Key;
#X obj 153 275 MR_table \$1 table5 \$1 \$2 \$3MR5 1 -1;
#X obj 360 249 r \$1-Rec;
#X floatatom 270 195 5 0 0 0 - - -;
#X obj 109 86 r \$1-N4;
#X obj 129 106 r \$1-N8;
#X floatatom 124 352 5 0 0 0 - - -;
#X connect 0 0 5 0;
#X connect 1 0 4 0;
#X connect 2 0 12 0;
#X connect 3 0 13 0;
#X connect 4 0 9 0;
#X connect 5 0 11 0;
#X connect 6 0 7 0;
#X connect 6 1 7 1;
#X connect 7 0 8 0;
#X connect 8 0 9 0;
#X connect 8 1 9 1;
#X connect 9 0 10 0;
#X connect 10 0 11 0;
#X connect 10 1 11 1;
#X connect 11 0 14 0;
#X connect 12 0 7 0;
#X connect 13 0 6 0;
#X connect 14 0 17 0;
#X connect 14 0 19 0;
#X connect 14 1 15 0;
#X connect 15 0 18 0;
#X connect 15 1 16 1;
#X connect 16 0 20 0;
#X connect 16 0 30 0;
#X connect 17 0 18 0;
#X connect 18 0 16 0;
#X connect 19 0 16 0;
#X connect 21 0 0 0;
#X connect 22 0 1 0;
#X connect 23 0 25 0;
#X connect 25 0 24 0;
#X connect 25 0 27 0;
#X connect 26 0 25 1;
#X connect 28 0 2 0;
#X connect 29 0 3 0;
#X restore 217 148 pd keyboardmono;
#N canvas 1726 485 450 300 env&juste 0;
#X obj 232 141 > 0.95;
#X obj 232 164 change;
#X obj 232 187 + 2;
#X obj 233 208 / 3;
#X obj 235 235 s \$1-gamnum-rcv;
#X obj 232 120 r \$1-juste-snd;
#X obj 41 135 r Gammes;
#X obj 40 177 del 1;
#X obj 41 157 b;
#X obj 40 198 s \$1-juste-rcv;
#X obj 63 43 mknob 25 100 0 1 0 0 \$1-juste-snd \$1-juste-rcv juste
-2 -6 1 8 -262144 -1 -1 9900 1;
#X obj 115 30 r \$1-setap-snd;
#X obj 117 56 route _loaded_;
#X obj 118 78 b;
#X obj 117 98 init 1;
#X obj 25 43 mknob 25 100 0 1 0 0 \$1-env-snd \$1-env-rcv env -2 -6
1 8 -262144 -1 -1 0 1;
#X obj 29 77 init 0;
#X obj 236 25 param \$1 SETTING env;
#X obj 237 49 param \$1 SETTING juste;
#X connect 0 0 1 0;
#X connect 1 0 2 0;
#X connect 2 0 3 0;
#X connect 3 0 4 0;
#X connect 5 0 0 0;
#X connect 6 0 8 0;
#X connect 7 0 9 0;
#X connect 8 0 7 0;
#X connect 11 0 12 0;
#X connect 12 0 13 0;
#X connect 13 0 14 0;
#X connect 14 0 10 0;
#X connect 16 0 15 0;
#X coords 0 -1 1 1 85 60 1 10 10;
#X restore 210 368 pd env&juste;
#N canvas 249 388 991 295 MRTABLES 0;
#X floatatom 40 183 5 0 0 0 - - -;
#X obj 105 191 hsl 128 15 0 1 0 0 empty empty empty -2 -6 0 8 -262144
-1 -1 0 1;
#X obj 459 95 r \$1-Reverb-snd;
#X obj 678 92 r \$1-Select-snd;
#X obj 894 100 r \$1-Vol-snd;
#X obj 894 126 s \$1-Vol;
#X obj 678 154 s \$1-Select;
#X obj 460 155 s \$1-Reverb;
#X obj 17 44 r \$1-Play-snd;
#X obj 15 150 s \$1-Play;
#X obj 239 36 r \$1-Note-snd;
#X obj 304 169 s \$1-Note;
#N canvas 109 389 382 377 keybd 0;
#X obj 19 23 inlet;
#X obj 146 19 r \$0-keyboardmono;
#X obj 146 43 != -1;
#X obj 189 238 tgl 15 0 empty empty empty 0 -6 0 8 -262144 -1 -1 0
1;
#X obj 189 289 f;
#X obj 44 336 outlet;
#X obj 44 295 line;
#X msg 233 139 stop;
#X msg 217 290 1;
#X obj 146 67 t f f;
#X obj 63 204 f;
#X obj 176 91 sel 1 0;
#X msg 189 140 set 0;
#X obj 189 261 sel 0 1;
#X obj 282 72 r \$1-clock;
#X obj 231 235 spigot;
#X obj 109 87 tgl 15 0 empty empty empty 0 -6 0 8 -262144 -1 -1 0 1
;
#X obj 231 213 b;
#X msg 63 226 \$1 \, 1 100;
#X obj 281 200 unpack f f;
#X obj 189 314 pack f 125;
#X obj 317 226 / 4;
#X obj 231 169 ndmetro 2 8;
#X obj 231 190 sel 1;
#X connect 0 0 4 1;
#X connect 0 0 6 0;
#X connect 0 0 10 1;
#X connect 1 0 2 0;
#X connect 2 0 9 0;
#X connect 3 0 13 0;
#X connect 4 0 20 0;
#X connect 6 0 5 0;
#X connect 7 0 6 0;
#X connect 8 0 20 0;
#X connect 9 0 15 1;
#X connect 9 0 16 0;
#X connect 9 1 11 0;
#X connect 10 0 18 0;
#X connect 11 0 10 0;
#X connect 11 1 7 0;
#X connect 11 1 12 0;
#X connect 12 0 3 0;
#X connect 13 0 4 0;
#X connect 13 1 8 0;
#X connect 14 0 19 0;
#X connect 14 0 22 0;
#X connect 15 0 3 0;
#X connect 17 0 15 0;
#X connect 18 0 6 0;
#X connect 19 1 21 0;
#X connect 20 0 6 0;
#X connect 21 0 20 1;
#X connect 22 0 23 0;
#X connect 23 0 17 0;
#X restore 17 75 pd keybd;
#N canvas 1 1220 239 239 keyb 0;
#X obj 84 18 r \$0-keyboardmono;
#X obj 20 18 inlet;
#X obj 84 201 outlet;
#X obj 132 53 sel -1;
#X obj 169 75 / 28;
#X obj 169 97 - 0.25;
#X obj 84 60 != -1;
#X obj 84 80 metro 125;
#X obj 84 39 t f f;
#X obj 84 103 t b b;
#X msg 114 124 -2;
#X obj 84 170 + 0.5;
#X connect 0 0 8 0;
#X connect 1 0 2 0;
#X connect 1 0 11 1;
#X connect 3 1 4 0;
#X connect 4 0 5 0;
#X connect 5 0 11 0;
#X connect 6 0 7 0;
#X connect 7 0 9 0;
#X connect 8 0 6 0;
#X connect 8 1 3 0;
#X connect 9 0 11 0;
#X connect 9 1 10 0;
#X connect 10 0 2 0;
#X connect 11 0 2 0;
#X restore 239 65 pd keyb;
#X obj 239 146 moses -0.5;
#X obj 589 206 r \$1-keyboardmono;
#X obj 589 268 s \$1-Key;
#X obj 460 121 MR_table \$1 table3 \$1 \$2 \$3MR3;
#X obj 589 234 MR_table \$1 table5 \$1 \$2 \$3MR5 1 -1;
#X obj 17 123 MR_table \$1 table1 \$1 \$2 \$3MR1 1;
#X obj 239 121 MR_table \$1 table2 \$1 \$2 \$3MR2 1;
#X obj 678 120 MR_table \$1 table4 \$1 \$2 \$3MR4 1;
#X obj 371 35 r \$1-Rec;
#X connect 0 0 1 0;
#X connect 2 0 17 0;
#X connect 3 0 21 0;
#X connect 4 0 5 0;
#X connect 8 0 12 0;
#X connect 10 0 13 0;
#X connect 12 0 19 0;
#X connect 13 0 20 0;
#X connect 14 1 11 0;
#X connect 15 0 18 0;
#X connect 17 0 7 0;
#X connect 18 0 16 0;
#X connect 19 0 9 0;
#X connect 20 0 14 0;
#X connect 21 0 6 0;
#X connect 22 0 17 1;
#X connect 22 0 18 1;
#X connect 22 0 19 1;
#X connect 22 0 20 1;
#X connect 22 0 21 1;
#X restore 90 922 pd MRTABLES;
#X floatatom 471 95 5 0 0 0 - - -;
#X obj 338 137 ++;
#X obj 462 73 r \$1-Phrases_vitesse;
#X obj 407 205 r \$1-Note_adjust;
#X obj 359 323 f;
#N canvas 1 1259 381 330 Gamme 0;
#N canvas 495 74 450 382 i2l 0;
#X obj 221 41 inlet;
#X obj 221 243 outlet;
#X obj 221 90 for++ 0 11;
#X obj 221 62 t b f;
#X obj 251 133 f;
#X obj 251 156 & 1;
#X obj 280 133 >> 1;
#X obj 221 111 t f b;
#X obj 221 184 pack f f;
#X obj 145 243 print;
#X msg 167 71 1625;
#X msg 221 213 set \$1 \$2;
#X connect 0 0 3 0;
#X connect 2 0 7 0;
#X connect 3 0 2 0;
#X connect 3 1 4 1;
#X connect 4 0 5 0;
#X connect 4 0 6 0;
#X connect 5 0 8 1;
#X connect 6 0 4 1;
#X connect 7 0 8 0;
#X connect 7 1 4 0;
#X connect 8 0 11 0;
#X connect 10 0 3 0;
#X connect 11 0 1 0;
#X restore 19 177 pd i2l;
#X obj 19 56 r Gammes;
#X obj 19 154 unpack f f;
#X obj 177 16 r \$0-gamnum-snd;
#X obj 177 36 * 3.9;
#X obj 177 57 i;
#X msg 221 196 label \$1;
#X obj 221 218 s \$0-gamnum-rcv;
#X obj 177 76 change -1;
#X obj 221 175 makesymbol gam%s;
#X obj 177 96 sel 0 1;
#X obj 221 155 - 1;
#X msg 177 115 label off;
#X msg 199 135 label semi;
#X obj 80 222 tabread Gammestab;
#X obj 152 155 * 2;
#X obj 98 262 tabread Gammestab;
#X obj 98 242 + 1;
#X msg 99 154 4095 0;
#X obj 19 90 unwonk f;
#X obj 19 133 l;
#X floatatom 166 190 5 0 0 0 - - -;
#X msg 83 115 -1;
#X obj 122 114 sel 0 1;
#X obj 152 135 - 2;
#X obj 19 111 sel 0;
#X obj 19 198 s \$0-setgam;
#X obj 84 299 s \$0-transgam;
#X obj 256 95 s \$0-ongam;
#X connect 0 0 26 0;
#X connect 1 0 19 0;
#X connect 2 0 0 0;
#X connect 2 1 27 0;
#X connect 3 0 4 0;
#X connect 4 0 5 0;
#X connect 5 0 8 0;
#X connect 6 0 7 0;
#X connect 8 0 10 0;
#X connect 8 0 23 0;
#X connect 8 0 28 0;
#X connect 9 0 6 0;
#X connect 10 0 12 0;
#X connect 10 1 13 0;
#X connect 10 2 11 0;
#X connect 11 0 9 0;
#X connect 12 0 7 0;
#X connect 13 0 7 0;
#X connect 14 0 0 0;
#X connect 15 0 14 0;
#X connect 15 0 17 0;
#X connect 16 0 27 0;
#X connect 17 0 16 0;
#X connect 18 0 2 0;
#X connect 19 0 25 0;
#X connect 19 1 20 1;
#X connect 20 0 2 0;
#X connect 22 0 25 1;
#X connect 23 0 18 0;
#X connect 23 0 22 0;
#X connect 23 1 18 0;
#X connect 23 1 22 0;
#X connect 23 2 24 0;
#X connect 24 0 15 0;
#X connect 24 0 21 0;
#X connect 24 0 25 1;
#X connect 25 0 20 0;
#X restore 143 82 pd Gamme;
#X obj 240 115 s \$1-lvert;
#X obj 369 115 notemodrcvphrase \$0 \$1;
#X obj 543 157 l notemodrcv \$0 \$1;
#X obj 19 478 mull~ 1 10;
#X floatatom 204 324 5 0 0 0 - - -;
#X obj 55 614 mull~ 1 10;
#X obj 19 587 +~;
#X obj 21 720 +~;
#X obj 67 506 mull~ 1 10;
#X obj 566 301 l param \$1 SETTING gamnum;
#X obj 564 193 l param \$1 FX volnoise;
#X obj 566 256 l param \$1 FX f;
#X obj 566 278 l param \$1 FX env2f;
#N canvas 1670 899 450 300 env 0;
#X obj 38 16 inlet~;
#X obj 36 279 outlet~;
#X obj 80 188 ead~ 1 100;
#X obj 154 128 mknob 25 100 0 1 0 0 \$1-r-snd \$1-r-rcv r -2 -6 1 8
-262144 -1 -1 9900 1;
#X obj 109 131 mknob 25 100 0 1 0 0 \$1-a-snd \$1-a-rcv a -2 -6 1 8
-262144 -1 -1 0 1;
#N canvas 2047 495 294 218 shiftcon 0;
#X obj 30 40 inlet;
#X obj 135 32 inlet;
#X text 136 15 shift;
#X obj 135 53 t f f;
#X obj 30 106 f;
#X obj 128 98 spigot;
#X obj 67 109 == 0;
#X obj 30 132 spigot;
#X obj 165 75 != 0;
#X obj 45 180 outlet;
#X obj 79 79 sel 0;
#X text 25 22 normal;
#X obj 128 122 maxlib/scale 0 1 0.01 1;
#X connect 0 0 4 0;
#X connect 1 0 3 0;
#X connect 3 0 5 0;
#X connect 3 0 10 0;
#X connect 3 1 8 0;
#X connect 3 1 6 0;
#X connect 4 0 7 0;
#X connect 5 0 12 0;
#X connect 6 0 7 1;
#X connect 7 0 9 0;
#X connect 8 0 5 1;
#X connect 10 0 4 0;
#X connect 12 0 9 0;
#X restore 187 172 pd shiftcon;
#X floatatom 245 199 5 0 0 0 - - -;
#X obj 57 231 *~;
#X obj 226 36 inlet;
#X obj 84 29 inlet;
#X floatatom 192 240 5 0 0 0 - - -;
#X obj 187 201 * 10000;
#X obj 266 95 param \$1 SETTING a;
#X obj 267 116 param \$1 SETTING r;
#X obj 111 68 init 0;
#X obj 311 166 r \$1-setap-snd;
#X obj 313 192 route _loaded_;
#X obj 314 214 b;
#X obj 313 234 init 1;
#X obj 103 163 * 500;
#X connect 0 0 7 0;
#X connect 2 0 7 1;
#X connect 3 0 5 0;
#X connect 4 0 19 0;
#X connect 5 0 6 0;
#X connect 5 0 11 0;
#X connect 7 0 1 0;
#X connect 8 0 5 1;
#X connect 9 0 2 0;
#X connect 11 0 2 2;
#X connect 11 0 10 0;
#X connect 14 0 4 0;
#X connect 15 0 16 0;
#X connect 16 0 17 0;
#X connect 17 0 18 0;
#X connect 18 0 3 0;
#X connect 19 0 2 1;
#X coords 0 -1 1 1 85 60 1 100 100;
#X restore 337 677 pd env;
#X obj 415 654 r \$1-Decay;
#X obj 366 651 sel 1;
#X obj 566 214 l param \$1 FX a;
#X obj 565 235 l param \$1 FX r;
#X obj 492 350 l MeloGamme \$0 20 77 15;
#X obj 236 508 ac;
#X obj 18 175 apdisto \$1 FX disto1;
#X obj 18 235 orfilter \$1 FX ortho1;
#X obj 67 527 apecho \$1 FX echo1;
#X obj 57 644 aprev \$1 FX rev1;
#X floatatom 452 290 5 0 0 0 - - -;
#X floatatom 282 263 5 0 0 0 - - -;
#N canvas 67 682 450 507 Defile 0;
#X obj 162 25 inlet trig;
#X obj 264 9 inlet seq;
#X obj 104 160 pack f f f;
#X obj 129 252 print;
#X obj 75 286 s \$1-DefileSeq;
#X obj 264 102 change;
#X obj 264 59 + 0.5;
#X obj 264 81 i;
#X floatatom 264 125 5 0 0 0 - - -;
#X floatatom 212 62 5 0 0 0 - - -;
#X floatatom 29 98 5 0 0 0 - - -;
#X obj 69 37 inlet tic;
#X obj 133 212 print;
#X obj 140 130 f;
#X obj 175 127 f;
#X obj 89 79 t f b b;
#X obj 264 34 * 8;
#X connect 0 0 9 0;
#X connect 0 0 13 1;
#X connect 1 0 16 0;
#X connect 2 0 4 0;
#X connect 5 0 8 0;
#X connect 5 0 14 1;
#X connect 6 0 7 0;
#X connect 7 0 5 0;
#X connect 11 0 10 0;
#X connect 11 0 15 0;
#X connect 13 0 2 1;
#X connect 14 0 2 2;
#X connect 15 0 2 0;
#X connect 15 1 13 0;
#X connect 15 2 14 0;
#X connect 16 0 6 0;
#X restore 410 183 pd Defile;
#X floatatom 471 153 5 0 0 0 - - -;
#X floatatom 567 121 5 0 0 0 - - -;
#X connect 0 0 3 0;
#X connect 3 0 4 0;
#X connect 4 0 41 0;
#X connect 5 0 1 0;
#X connect 6 0 51 0;
#X connect 9 0 46 1;
#X connect 9 0 43 1;
#X connect 10 0 11 0;
#X connect 10 1 12 0;
#X connect 11 0 36 0;
#X connect 12 0 36 0;
#X connect 13 0 6 0;
#X connect 14 0 13 0;
#X connect 14 0 63 0;
#X connect 16 0 17 0;
#X connect 17 0 18 0;
#X connect 18 0 33 0;
#X connect 19 0 18 1;
#X connect 19 0 38 0;
#X connect 20 0 10 0;
#X connect 20 0 62 0;
#X connect 28 0 27 0;
#X connect 28 0 39 0;
#X connect 28 0 64 2;
#X connect 33 0 14 0;
#X connect 33 0 15 0;
#X connect 34 0 32 0;
#X connect 34 0 39 1;
#X connect 35 0 14 1;
#X connect 36 0 13 1;
#X connect 39 0 33 1;
#X connect 39 1 41 1;
#X connect 39 1 53 0;
#X connect 39 1 65 0;
#X connect 39 1 64 1;
#X connect 39 2 64 0;
#X connect 39 2 66 0;
#X connect 41 0 44 0;
#X connect 41 0 46 0;
#X connect 41 0 43 0;
#X connect 43 0 61 0;
#X connect 44 0 45 0;
#X connect 45 0 5 0;
#X connect 46 0 60 0;
#X connect 51 0 58 0;
#X connect 52 0 51 2;
#X connect 53 0 51 1;
#X connect 58 0 59 0;
#X connect 59 0 0 0;
#X connect 60 0 44 1;
#X connect 61 0 45 1;
#X restore 55 101 pd ALLSOUND;
#X obj 55 187 Vmull~ 0 10;
#X obj 56 213 outlet~;
#X obj 229 115 t b;
#X obj 229 93 r SYNCHRO-clock;
#X obj 173 23 MORPHgroup \$1 FX;
#X floatatom 173 -13 5 0 0 0 - - -;
#X obj 341 109 param \$1 FX del1_time;
#X obj -12 160 s \$0-onoff;
#X obj -12 143 tgl 15 1 empty empty empty 17 7 0 10 -262144 -1 -1 1
1;
#X obj 86 123 r \$1-Volume;
#X obj 173 3 r \$1-Effet;
#X obj -34 119 s \$1-lvert;
#X obj 230 138 s \$1-lrouge;
#X connect 0 0 1 0;
#X connect 1 0 2 0;
#X connect 3 0 13 0;
#X connect 4 0 3 0;
#X connect 9 0 8 0;
#X connect 10 0 1 1;
#X connect 11 0 5 0;
#X connect 11 0 6 0;
#X restore 100 47 pd son;
#X obj 105 147 cnv 15 336 250 \$1-seq0-STEPcan-snd \$1-seq0-STEPcan-rcv
empty 20 12 0 14 -260097 -233017 0;
#X obj 57 675 KEPCommon \$1 \$0;
#X obj 54 22 MASTERtypeNO_IN \$0;
#N canvas 1 452 751 545 note_modulators 0;
#X msg 40 145 16 8 24 24 24 24 19 24 24 24 16 24 24 24 12 12 24 24
;
#X msg 43 235 16 4 23 24 23 24 14 24 14 24 5 7 5 7 13 12 13 16;
#X msg 41 347 16 8 1 2 3 4 5 6 7 8 9 10 11 12 13 12 15 16;
#X msg 41 437 16 8 16 15 14 13 12 11 10 9 8 7 6 5 4 12 2 1;
#X msg 415 164 11 8 14 24 24 8 7 24 24 13 18 9 22 24 24 12 1 24;
#X msg 414 257 16 4 12 24 24 24 24 24 24 24 24 24 13 24 24 12 24 24
;
#X msg 414 346 16 4 17 6 6 0 15 10 19 19 19 19 10 19 15 12 9 10;
#X msg 413 437 16 3 10 18 6 7 0 9 19 0 12 19 0 8 12 12 19 12;
#X obj 37 101 bng 15 250 50 0 empty empty initall 17 7 0 10 -262144
-1 -1;
#X obj 119 70 loadbang;
#X obj 40 192 notemod \$0 \$1 1;
#X obj 362 78 s \$1-notemods-rcv;
#X obj 355 56 list prepend -1;
#X msg 270 9 16 3 0 2 0 2 0 2 4 5 0 2 0 2 2 0 2 0;
#X msg 307 34 12 4 0 2 4 5 7 9 10 12 14 16 17 19;
#X msg 263 -17 16 4 0 4 2 5 4 7 5 9 7 10 9 12 10 14 12 16;
#X msg 197 8 1 1 1;
#X text 13 37 1°:mesure 2°:vitesse 3...:notes;
#X msg 14 -18 16 8 0 0 0 0 6 12 7 14 3 0 5 2 7 4 9 12;
#X obj 40 121 notemodinit \$0 \$1 1;
#X obj 42 216 notemodinit \$0 \$1 2;
#X obj 41 328 notemodinit \$0 \$1 3;
#X obj 41 418 notemodinit \$0 \$1 4;
#X obj 415 145 notemodinit \$0 \$1 5;
#X obj 414 238 notemodinit \$0 \$1 6;
#X obj 414 327 notemodinit \$0 \$1 7;
#X obj 413 417 notemodinit \$0 \$1 8;
#X obj 41 485 notemod \$0 \$1 4;
#X obj 43 296 notemod \$0 \$1 2;
#X obj 41 394 notemod \$0 \$1 3;
#X obj 415 215 notemod \$0 \$1 5;
#X obj 414 305 notemod \$0 \$1 6;
#X obj 414 394 notemod \$0 \$1 7;
#X obj 413 485 notemod \$0 \$1 8;
#X connect 0 0 10 0;
#X connect 1 0 28 0;
#X connect 2 0 29 0;
#X connect 3 0 27 0;
#X connect 4 0 30 0;
#X connect 5 0 31 0;
#X connect 6 0 32 0;
#X connect 7 0 33 0;
#X connect 8 0 19 0;
#X connect 9 0 8 0;
#X connect 12 0 11 0;
#X connect 13 0 12 0;
#X connect 14 0 12 0;
#X connect 15 0 12 0;
#X connect 16 0 12 0;
#X connect 18 0 12 0;
#X connect 19 0 0 0;
#X connect 20 0 1 0;
#X connect 21 0 2 0;
#X connect 22 0 3 0;
#X connect 23 0 4 0;
#X connect 24 0 5 0;
#X connect 25 0 6 0;
#X connect 26 0 7 0;
#X restore 163 425 pd note_modulators;
#N canvas 2049 261 904 538 KEPphrase_1>8 0;
#X obj 24 13 cnv 15 847 480 empty empty empty 20 12 0 14 -1 -66577
0;
#X obj 660 255 KEPphrase \$0 \$1 8;
#X obj 28 17 KEPphrase \$0 \$1 1;
#X obj 238 255 KEPphrase \$0 \$1 6;
#X obj 449 17 KEPphrase \$0 \$1 3;
#X obj 27 255 KEPphrase \$0 \$1 5;
#X obj 238 17 KEPphrase \$0 \$1 2;
#X obj 660 17 KEPphrase \$0 \$1 4;
#X obj 449 255 KEPphrase \$0 \$1 7;
#X coords 0 538 1 537 85 60 0;
#X restore 142 155 pd KEPphrase_1>8;
#X obj 228 533 Instru2Net \$1;
#X obj 54 110 MASTERtypeOUT \$1 1;
#X obj 140 498 tgl 15 1 empty empty empty 17 7 0 10 -262144 -1 -1 1
1;
#X obj 139 516 switch~;
#X obj 140 475 mainDSPswitch \$1;
#X connect 3 0 8 0;
#X connect 4 0 8 1;
#X connect 6 0 13 0;
#X connect 14 0 15 0;
#X connect 16 0 14 0;
#X coords 0 -1 1 1 42 656 2 50 10;
