#N canvas 1896 501 376 401 10;
#X obj 203 106 / 127;
#X floatatom 187 194 5 0 0 0 - - -, f 5;
#X obj 160 226 sel 0 1;
#X msg 183 274 color 14 22 0;
#X msg 160 253 color 10 11 10;
#X obj 197 3 notein \$2;
#X obj 197 25 pack f f;
#X obj 3 2 tgl 15 0 \$0-XtouchRec-\$1-snd \$0-XtouchRec-\$1-rcv empty
17 7 0 10 -233017 -128992 -233017 0 1;
#X text 21 324 arg1:NbSlice \; arg2:midi-ch \; arg3:note-Solo \;;
#X obj 197 46 route \$3;
#N canvas 2168 199 223 140 route-in 1;
#X obj 30 70 outlet;
#X floatatom 87 72 5 0 0 0 - - -, f 5;
#X obj 31 43 route Rec\$1;
#X obj 153 14 init 0;
#X obj 30 16 r X-TOUCH-rcv;
#X connect 2 0 0 0;
#X connect 2 0 1 0;
#X connect 3 0 0 0;
#X connect 4 0 2 0;
#X restore 55 0 pd route-in;
#X obj 3 35 * 127;
#X msg 228 131 set \$1;
#X obj 9 255 noteout \$2;
#X obj 61 30 loadbang;
#X obj 132 28 bng 15 250 50 0 empty empty empty 17 7 0 10 -262144 -1
-1;
#X obj 19 161 t b f;
#X obj 19 197 pack f f;
#X msg 19 220 \$1 \$2;
#X obj 79 68 f \$3;
#N canvas 2496 552 276 342 route-Rec 0;
#X obj 31 20 inlet;
#X obj 31 46 change;
#X obj 26 169 pack s f;
#X msg 26 190 \$1 \$2;
#X obj 89 97 loadbang;
#X obj 119 57 bng 15 250 50 0 empty empty empty 17 7 0 10 -262144 -1
-1;
#X obj 89 118 makesymbol Rec\$1;
#X obj 30 112 t b f;
#X obj 61 79 tgl 15 0 empty empty empty 17 7 0 10 -262144 -1 -1 0 1
;
#X obj 27 211 s X-TOUCH-snd;
#X connect 0 0 1 0;
#X connect 1 0 7 0;
#X connect 1 0 8 0;
#X connect 2 0 3 0;
#X connect 3 0 9 0;
#X connect 4 0 6 0;
#X connect 5 0 6 0;
#X connect 6 0 2 0;
#X connect 7 0 2 0;
#X connect 7 1 2 1;
#X restore 230 180 pd route-Rec;
#X obj 161 297 s \$0-XtouchRec-\$1-rcv;
#X obj 197 70 spigot;
#X obj 2 61 t f b;
#X obj 62 99 del 50;
#X msg 62 121 1;
#X msg 27 100 0;
#X obj 64 147 tgl 15 0 empty empty empty 17 7 0 10 -262144 -1 -1 1
1;
#X obj 142 84 bng 15 250 50 0 empty empty empty 17 7 0 10 -262144 -1
-1;
#X connect 0 0 1 0;
#X connect 0 0 2 0;
#X connect 0 0 20 0;
#X connect 0 0 12 0;
#X connect 2 0 4 0;
#X connect 2 1 3 0;
#X connect 3 0 21 0;
#X connect 4 0 21 0;
#X connect 5 0 6 0;
#X connect 5 1 6 1;
#X connect 6 0 9 0;
#X connect 7 0 11 0;
#X connect 9 0 22 0;
#X connect 10 0 7 0;
#X connect 11 0 23 0;
#X connect 12 0 7 0;
#X connect 14 0 19 0;
#X connect 15 0 19 0;
#X connect 16 0 17 0;
#X connect 16 1 17 1;
#X connect 17 0 18 0;
#X connect 18 0 13 0;
#X connect 19 0 17 0;
#X connect 22 0 0 0;
#X connect 23 0 16 0;
#X connect 23 1 24 0;
#X connect 23 1 26 0;
#X connect 23 1 28 0;
#X connect 24 0 25 0;
#X connect 25 0 27 0;
#X connect 26 0 27 0;
#X connect 27 0 22 1;
#X coords 0 -1 1 1 20 20 2 0 0;
