#N canvas 1616 454 790 519 10;
#X obj 1 3 vsl 18 77 0 1 0 0 \$0-VCA-snd \$0-VCA-rcv empty 0 -9 0 10
-233017 -128992 -233017 0 1;
#X text 13 408 arg1:ctl \; arg2:channel \; arg3:nVCA;
#X obj 1 83 tgl 18 0 \$0-OnVCA-snd \$0-OnVCA-rcv \$1 5 10 1 14 -258699
-258699 -233017 0 1;
#X obj 493 340 sel 0 1;
#X msg 493 367 color 13 13 10;
#X msg 513 389 color 16 16 0;
#X obj 33 267 sel 0 1;
#X msg 53 315 color 14 22 0;
#X msg 32 294 color 10 11 10;
#X obj 84 23 r X-TOUCH-snd;
#X obj 493 413 s \$0-OnVCA-rcv;
#X obj 33 339 s \$0-VCA-rcv;
#X obj 245 120 i;
#X obj 279 121 + 1;
#X obj 243 153 mod 2;
#X obj 92 45 route Fader\$1 TFader\$1 Rec\$1;
#X obj 166 313 symbol Rec\$1;
#X obj 165 290 bng 15 250 50 1 empty empty empty 17 7 0 10 -262144
-1 -1;
#X obj 251 384 pack s f;
#X msg 229 434 \$1 \$2;
#X obj 259 352 t b f;
#X obj 346 403 unpack s f;
#X symbolatom 353 432 10 0 0 0 - - -, f 10;
#X floatatom 432 449 5 0 0 0 - - -, f 5;
#X symbolatom 159 351 10 0 0 0 - - -, f 10;
#X obj 260 287 tgl 15 1 empty empty empty 17 7 0 10 -262144 -1 -1 1
1;
#N canvas 1856 181 450 300 CtlXtouch 0;
#X obj 87 14 inlet;
#X obj 96 215 outlet;
#X obj 85 147 f;
#X obj 173 8 r XtouchVCAon-snd;
#X floatatom 112 185 5 0 0 0 - - -, f 5;
#X obj 82 88 spigot 1;
#X obj 221 136 r vol-VCA-\$1-snd;
#X obj 201 165 f;
#X floatatom 235 175 5 0 0 0 - - -, f 5;
#X obj 174 29 sel 0 1;
#X msg 199 73 0;
#X obj 174 54 t b b;
#X msg 168 116 0;
#X obj 240 55 t b b;
#X msg 271 93 1;
#X obj 192 218 outlet;
#X connect 0 0 5 0;
#X connect 2 0 1 0;
#X connect 2 0 4 0;
#X connect 3 0 9 0;
#X connect 5 0 2 0;
#X connect 6 0 7 1;
#X connect 6 0 8 0;
#X connect 7 0 2 0;
#X connect 9 0 11 0;
#X connect 9 1 13 0;
#X connect 10 0 5 1;
#X connect 11 0 12 0;
#X connect 11 1 10 0;
#X connect 12 0 15 0;
#X connect 13 0 7 0;
#X connect 13 1 14 0;
#X connect 14 0 5 1;
#X restore 56 74 pd CtlXtouch;
#N canvas 2284 190 450 300 CtlXtouch 0;
#X obj 87 14 inlet;
#X obj 81 242 outlet;
#X obj 70 174 f;
#X obj 173 32 r XtouchVCAon-snd;
#X floatatom 210 80 5 0 0 0 - - -, f 5;
#X obj 158 107 sel 1;
#X obj 174 54 t f f;
#X floatatom 122 213 5 0 0 0 - - -, f 5;
#X obj 84 55 change;
#X obj 82 88 spigot 1;
#X obj 158 131 f;
#X floatatom 219 156 5 0 0 0 - - -, f 5;
#X obj 217 104 r on-VCA-\$1-snd;
#X connect 0 0 8 0;
#X connect 2 0 1 0;
#X connect 2 0 7 0;
#X connect 3 0 6 0;
#X connect 5 0 10 0;
#X connect 6 0 5 0;
#X connect 6 1 4 0;
#X connect 6 1 9 1;
#X connect 8 0 9 0;
#X connect 9 0 2 0;
#X connect 12 0 10 1;
#X connect 12 0 11 0;
#X restore 220 72 pd CtlXtouch;
#N canvas 2704 307 450 300 CtlXtouch 0;
#X obj 87 14 inlet;
#X obj 96 215 outlet;
#X obj 85 147 f;
#X obj 173 32 r XtouchVCAon-snd;
#X floatatom 211 114 5 0 0 0 - - -, f 5;
#X obj 152 109 sel 1;
#X obj 174 54 t f f;
#X floatatom 137 186 5 0 0 0 - - -, f 5;
#X obj 82 88 spigot 1;
#X connect 0 0 8 0;
#X connect 2 0 1 0;
#X connect 2 0 7 0;
#X connect 3 0 6 0;
#X connect 6 0 5 0;
#X connect 6 1 4 0;
#X connect 6 1 8 1;
#X connect 8 0 2 0;
#X restore 5 236 pd CtlXtouch;
#N canvas 2466 556 369 432 route-Fader 0;
#X obj 34 -3 inlet;
#X obj 34 135 change;
#X obj 30 258 pack s f;
#X obj 93 186 loadbang;
#X obj 193 151 bng 15 250 50 0 empty empty empty 17 7 0 10 -262144
-1 -1;
#X obj 32 186 t b f;
#N canvas 3012 355 450 300 CtlXtouch 0;
#X obj 87 14 inlet;
#X obj 80 279 outlet;
#X obj 78 197 f;
#X obj 173 32 r XtouchVCAon-snd;
#X floatatom 211 114 5 0 0 0 - - -, f 5;
#X obj 174 54 t f f;
#X floatatom 119 233 5 0 0 0 - - -, f 5;
#X obj 82 88 spigot 1;
#X obj 170 140 r vol-VCA-\$1-snd;
#X obj 150 169 f;
#X floatatom 210 187 5 0 0 0 - - -, f 5;
#X obj 152 109 sel 1 0;
#X msg 180 220 0;
#X obj 287 63 inlet;
#X connect 0 0 7 0;
#X connect 2 0 1 0;
#X connect 2 0 6 0;
#X connect 3 0 5 0;
#X connect 5 0 11 0;
#X connect 5 1 4 0;
#X connect 5 1 7 1;
#X connect 7 0 2 0;
#X connect 8 0 9 1;
#X connect 8 0 10 0;
#X connect 9 0 2 0;
#X connect 11 0 9 0;
#X connect 11 1 12 0;
#X connect 13 0 2 0;
#X restore 33 157 pd CtlXtouch;
#X floatatom 139 134 5 0 0 0 - - -, f 5;
#X obj 341 224 bng 15 250 50 0 empty empty empty 17 7 0 10 -262144
-1 -1;
#X obj 294 103 mknob 25 100 0 1 0 0 empty empty empty -2 -6 0 8 -262144
-1 -1 0 1;
#X obj 153 273 unpack s f;
#X symbolatom 148 314 10 0 0 0 - - -, f 10;
#X floatatom 223 304 5 0 0 0 - - -, f 5;
#X obj 93 207 symbol Fader\$1;
#X msg 33 293 \$1 \$2;
#X obj 27 354 s X-TOUCH-rcv;
#X obj 205 2 inlet;
#X obj 205 27 t f b;
#X obj 273 44 del 50;
#X msg 273 64 1;
#X msg 237 52 0;
#X obj 273 87 tgl 15 0 empty empty empty 17 7 0 10 -262144 -1 -1 1
1;
#X floatatom 179 74 5 0 0 0 - - -, f 5;
#X obj 133 38 - 1;
#X obj 133 60 abs;
#X obj 136 87 tgl 15 0 empty empty empty 17 7 0 10 -262144 -1 -1 1
1;
#X floatatom 52 37 5 0 0 0 - - -, f 5;
#X obj 34 101 spigot 1;
#X obj 276 5 inlet;
#X connect 0 0 26 0;
#X connect 0 0 27 0;
#X connect 1 0 6 0;
#X connect 2 0 14 0;
#X connect 3 0 13 0;
#X connect 4 0 13 0;
#X connect 5 0 2 0;
#X connect 5 1 2 1;
#X connect 6 0 5 0;
#X connect 6 0 7 0;
#X connect 9 0 5 0;
#X connect 10 0 11 0;
#X connect 10 1 12 0;
#X connect 13 0 2 0;
#X connect 14 0 10 0;
#X connect 14 0 15 0;
#X connect 16 0 17 0;
#X connect 17 0 22 0;
#X connect 17 0 23 0;
#X connect 17 1 18 0;
#X connect 17 1 20 0;
#X connect 18 0 19 0;
#X connect 19 0 21 0;
#X connect 20 0 21 0;
#X connect 23 0 24 0;
#X connect 24 0 25 0;
#X connect 24 0 27 1;
#X connect 27 0 1 0;
#X connect 28 0 6 1;
#X restore 61 112 pd route-Fader;
#N canvas 2521 91 450 300 CtlXtouch 0;
#X obj 87 14 inlet;
#X obj 96 215 outlet;
#X obj 85 147 f;
#X obj 173 32 r XtouchVCAon-snd;
#X floatatom 211 114 5 0 0 0 - - -, f 5;
#X obj 174 54 t f f;
#X floatatom 137 186 5 0 0 0 - - -, f 5;
#X obj 82 88 spigot 1;
#X obj 159 159 f;
#X obj 233 135 r on-VCA-\$1-snd;
#X obj 218 188 tgl 15 0 empty empty empty 17 7 0 10 -262144 -1 -1 1
1;
#X obj 152 109 sel 1 0;
#X msg 191 217 0;
#X connect 0 0 7 0;
#X connect 2 0 1 0;
#X connect 2 0 6 0;
#X connect 3 0 5 0;
#X connect 5 0 11 0;
#X connect 5 1 4 0;
#X connect 5 1 7 1;
#X connect 7 0 2 0;
#X connect 8 0 2 0;
#X connect 9 0 8 1;
#X connect 9 0 10 0;
#X connect 11 0 8 0;
#X connect 11 1 12 0;
#X connect 12 0 2 0;
#X restore 267 322 pd CtlXtouch;
#X obj 169 -1 r vol-VCA-\$1-snd;
#X obj 302 216 r on-VCA-\$1-snd;
#X obj 229 456 s X-TOUCH-rcv;
#X floatatom 310 163 5 0 0 0 - - -, f 5;
#X obj 344 378 s on-VCA-\$1-rcv;
#X obj 220 95 sel 0 1;
#X floatatom 187 183 5 0 0 0 - - -, f 5;
#X obj 240 198 f;
#X msg 106 -2 set \$1;
#X obj 1 180 s vol-VCA-\$1-rcv;
#X msg 372 186 set \$1;
#X obj 370 164 r on-VCA-\$1-snd;
#X obj 302 236 change;
#X obj 370 16 r XtouchVCAon-snd;
#X floatatom 206 23 5 0 0 0 - - -, f 5;
#X connect 0 0 40 0;
#X connect 3 0 4 0;
#X connect 3 1 5 0;
#X connect 4 0 10 0;
#X connect 5 0 10 0;
#X connect 6 0 8 0;
#X connect 6 1 7 0;
#X connect 7 0 11 0;
#X connect 8 0 11 0;
#X connect 9 0 15 0;
#X connect 12 0 13 0;
#X connect 12 0 14 0;
#X connect 12 0 34 0;
#X connect 13 0 12 1;
#X connect 14 0 37 0;
#X connect 14 0 38 1;
#X connect 15 0 26 0;
#X connect 15 1 28 0;
#X connect 15 1 29 1;
#X connect 15 2 27 0;
#X connect 16 0 18 0;
#X connect 16 0 24 0;
#X connect 17 0 16 0;
#X connect 18 0 21 0;
#X connect 18 0 19 0;
#X connect 19 0 33 0;
#X connect 20 0 18 0;
#X connect 20 1 18 1;
#X connect 21 0 22 0;
#X connect 21 1 23 0;
#X connect 25 0 3 0;
#X connect 25 0 35 0;
#X connect 25 0 30 0;
#X connect 26 0 0 0;
#X connect 26 1 29 2;
#X connect 27 0 36 0;
#X connect 28 0 6 0;
#X connect 30 0 3 0;
#X connect 30 0 20 0;
#X connect 31 0 39 0;
#X connect 31 0 29 0;
#X connect 31 0 45 0;
#X connect 32 0 43 0;
#X connect 36 0 38 0;
#X connect 36 1 12 0;
#X connect 38 0 25 0;
#X connect 39 0 0 0;
#X connect 42 0 41 0;
#X connect 43 0 25 0;
#X coords 0 -1 1 1 20 102 2 0 0;
