#N canvas 809 1222 376 305 10;
#X obj 197 72 / 127;
#X floatatom 163 170 5 0 0 0 - - -, f 5;
#X obj 154 192 sel 0 1;
#X msg 177 240 color 14 22 0;
#X msg 154 219 color 10 11 10;
#X obj 197 3 notein \$2;
#X obj 197 25 pack f f;
#X obj 3 2 tgl 15 0 \$0-XtouchSolo-\$1-snd \$0-XtouchSolo-\$1-rcv empty
17 7 0 10 -233017 -128992 -233017 0 1;
#X text 8 229 arg1:NbSlice \; arg2:midi-ch \; arg3:note-Solo \;;
#X obj 197 50 route \$3;
#X obj 155 263 s \$0-XtouchSolo-\$1-rcv;
#N canvas 44 1324 284 296 route-Solo 0;
#X obj 31 20 inlet;
#X obj 26 211 s X-TOUCH-snd;
#X obj 26 64 change;
#X obj 26 169 pack s f;
#X msg 26 190 \$1 \$2;
#X obj 89 97 loadbang;
#X obj 119 57 bng 15 250 50 0 empty empty empty 17 7 0 10 -262144 -1
-1;
#X obj 89 118 makesymbol Solo\$1;
#X obj 28 119 t b f;
#X connect 0 0 2 0;
#X connect 2 0 8 0;
#X connect 3 0 4 0;
#X connect 4 0 1 0;
#X connect 5 0 7 0;
#X connect 6 0 7 0;
#X connect 7 0 3 0;
#X connect 8 0 3 0;
#X connect 8 1 3 1;
#X restore 224 146 pd route-Solo;
#N canvas 0 1008 223 140 route-in 0;
#X obj 30 70 outlet;
#X obj 30 16 r X-TOUCH-rcv;
#X floatatom 87 72 5 0 0 0 - - -, f 5;
#X obj 30 43 route Solo\$1;
#X obj 153 14 init 0;
#X connect 1 0 3 0;
#X connect 3 0 0 0;
#X connect 3 0 2 0;
#X connect 4 0 0 0;
#X restore 55 0 pd route-in;
#X obj 3 35 * 127;
#X msg 154 125 set \$1;
#X obj 8 175 noteout \$2;
#X obj 61 30 loadbang;
#X obj 132 28 bng 15 250 50 0 empty empty empty 17 7 0 10 -262144 -1
-1;
#X obj 2 80 t b f;
#X obj 18 117 pack f f;
#X msg 18 140 \$1 \$2;
#X obj 61 73 f \$3;
#X connect 0 0 1 0;
#X connect 0 0 2 0;
#X connect 0 0 11 0;
#X connect 0 0 14 0;
#X connect 2 0 4 0;
#X connect 2 1 3 0;
#X connect 3 0 10 0;
#X connect 4 0 10 0;
#X connect 5 0 6 0;
#X connect 5 1 6 1;
#X connect 6 0 9 0;
#X connect 7 0 13 0;
#X connect 7 0 11 0;
#X connect 9 0 0 0;
#X connect 12 0 7 0;
#X connect 13 0 18 0;
#X connect 14 0 7 0;
#X connect 16 0 21 0;
#X connect 17 0 21 0;
#X connect 18 0 19 0;
#X connect 18 1 19 1;
#X connect 19 0 20 0;
#X connect 20 0 15 0;
#X connect 21 0 19 0;
#X coords 0 -1 1 1 20 20 2 0 0;
