#N canvas 1017 884 422 391 10;
#X obj 1 22 vsl 18 77 0 1 0 0 \$0-VCA-snd \$0-VCA-rcv empty 0 -9 0
10 -233017 -128992 -233017 4787 1;
#X text 9 169 arg1:ctl \; arg2:channel \; arg3:nVCA;
#X obj 1 1 tgl 18 0 \$0-OnVCA-snd \$0-OnVCA-rcv \$3 5 10 1 14 -258699
-258699 -233017 0 1;
#X obj 245 196 sel 0 1;
#X msg 245 223 color 13 13 10;
#X msg 265 245 color 16 16 0;
#X obj 257 66 r on-midi-VCA-\$3-snd;
#X obj 33 267 sel 0 1;
#X msg 53 315 color 14 22 0;
#X msg 32 294 color 10 11 10;
#X obj 91 19 r X-TOUCH-snd;
#X obj 245 269 s \$0-OnVCA-rcv;
#X obj 33 339 s \$0-VCA-rcv;
#X obj 92 45 route \$1 T\$1 \$2;
#X obj 1 128 s vol-VCA-\$3-rcv;
#X floatatom 81 84 5 0 0 0 - - -, f 5;
#X floatatom 129 85 5 0 0 0 - - -, f 5;
#X floatatom 180 84 5 0 0 0 - - -, f 5;
#X obj 230 37 r on-VCA-\$3-snd;
#X obj 165 111 sel 1;
#X obj 165 137 i;
#X obj 199 138 + 1;
#X obj 163 170 mod 2;
#X floatatom 168 207 5 0 0 0 - - -, f 5;
#X floatatom 228 164 5 0 0 0 - - -, f 5;
#X obj 129 235 s on-VCA-\$3-rcv;
#X obj 170 337 s X-TOUCH-rcv;
#X msg 174 301 Rec1 \$1;
#X connect 0 0 14 0;
#X connect 3 0 4 0;
#X connect 3 1 5 0;
#X connect 4 0 11 0;
#X connect 5 0 11 0;
#X connect 7 0 9 0;
#X connect 7 1 8 0;
#X connect 8 0 12 0;
#X connect 9 0 12 0;
#X connect 10 0 13 0;
#X connect 13 0 15 0;
#X connect 13 0 0 0;
#X connect 13 1 16 0;
#X connect 13 1 7 0;
#X connect 13 2 17 0;
#X connect 13 2 19 0;
#X connect 19 0 20 0;
#X connect 20 0 21 0;
#X connect 20 0 22 0;
#X connect 20 0 24 0;
#X connect 21 0 20 1;
#X connect 22 0 3 0;
#X connect 22 0 23 0;
#X connect 22 0 25 0;
#X connect 22 0 27 0;
#X connect 27 0 26 0;
#X coords 0 -1 1 1 20 102 1 0 0;
