#N canvas 1034 1030 376 590 10;
#X obj 203 73 / 127;
#X floatatom 197 174 5 0 0 0 - - -, f 5;
#X obj 188 196 sel 0 1;
#X msg 214 248 color 14 22 0;
#X msg 190 226 color 10 11 10;
#X obj 203 8 notein \$2;
#X obj 203 52 route \$4;
#X obj 203 30 pack f f;
#X obj 1 1 mknob 18 100 0 1 0 0 -233017 \$0-\$1-\$5-rcv empty -2 -6
0 8 1.06696e+08 0 1.55388e+08 0 1;
#X floatatom 132 43 5 0 0 0 - - -, f 5;
#X obj 106 22 / 127;
#X obj 110 1 ctlin \$3 \$2;
#X msg 110 60 set \$1;
#X obj 110 82 spigot;
#X obj 1 91 t f b;
#X obj 49 108 del 50;
#X obj 1 189 * 127;
#X obj 1 212 ctlout \$3 \$2;
#X msg 49 128 1;
#X msg 14 128 0;
#X obj 49 151 tgl 15 0 empty empty empty 17 7 0 10 -262144 -1 -1 1
1;
#X floatatom 8 169 5 0 0 0 - - -, f 5;
#N canvas 640 1031 284 296 route-Vpot 0;
#X obj 31 20 inlet;
#X obj 26 211 s X-TOUCH-snd;
#X obj 31 46 change;
#X obj 26 169 pack s f;
#X msg 26 190 \$1 \$2;
#X obj 89 97 loadbang;
#X obj 190 69 bng 15 250 50 0 empty empty empty 17 7 0 10 -262144 -1
-1;
#X obj 117 149 unpack s f;
#X symbolatom 119 188 10 0 0 0 - - -, f 10;
#X floatatom 204 193 5 0 0 0 - - -, f 5;
#X obj 108 23 init 0;
#X obj 89 118 makesymbol \$1\$5;
#X obj 28 97 t b f;
#X floatatom 109 65 5 0 0 0 - - -, f 5;
#X connect 0 0 2 0;
#X connect 0 0 13 0;
#X connect 2 0 12 0;
#X connect 3 0 4 0;
#X connect 4 0 1 0;
#X connect 5 0 11 0;
#X connect 6 0 11 0;
#X connect 7 0 8 0;
#X connect 7 1 9 0;
#X connect 10 0 12 0;
#X connect 11 0 3 0;
#X connect 11 0 7 0;
#X connect 12 0 3 0;
#X connect 12 1 3 1;
#X restore 11 67 pd route-Vpot;
#N canvas 714 1270 317 296 route-TVpot 1;
#X obj 31 20 inlet;
#X obj 26 211 s X-TOUCH-snd;
#X obj 31 46 change;
#X msg 26 190 \$1 \$2;
#X obj 89 97 loadbang;
#X obj 119 57 bng 15 250 50 0 empty empty empty 17 7 0 10 -262144 -1
-1;
#X obj 89 118 makesymbol T\$1\$5;
#X obj 27 101 t b f;
#X obj 27 169 pack s f;
#X obj 104 32 init 0;
#X connect 0 0 2 0;
#X connect 2 0 7 0;
#X connect 3 0 1 0;
#X connect 4 0 6 0;
#X connect 5 0 6 0;
#X connect 6 0 8 0;
#X connect 7 0 8 0;
#X connect 7 1 8 1;
#X connect 8 0 3 0;
#X connect 9 0 7 0;
#X restore 224 146 pd route-TVpot;
#N canvas 0 1034 223 140 route-in 0;
#X obj 30 70 outlet;
#X obj 30 16 r X-TOUCH-rcv;
#X floatatom 87 72 5 0 0 0 - - -, f 5;
#X obj 133 23 loadbang;
#X obj 30 43 route \$1\$5;
#X connect 1 0 4 0;
#X connect 3 0 0 0;
#X connect 4 0 0 0;
#X connect 4 0 2 0;
#X restore 26 1 pd route-in;
#X text 8 256 arg1:NbSlice \; arg2:midi-ch \; arg3:ctl-Vpot \; arg4:note-VpotTouch
\; arg5:nb-Vpot;
#X obj 188 268 s \$0-\$1-\$5-rcv;
#X floatatom 55 34 5 0 0 0 - - -, f 5;
#X floatatom 122 125 5 0 0 0 - - -, f 5;
#X connect 0 0 23 0;
#X connect 0 0 1 0;
#X connect 0 0 2 0;
#X connect 2 0 4 0;
#X connect 2 1 3 0;
#X connect 3 0 26 0;
#X connect 4 0 26 0;
#X connect 5 0 7 0;
#X connect 5 1 7 1;
#X connect 6 0 0 0;
#X connect 7 0 6 0;
#X connect 8 0 14 0;
#X connect 8 0 22 0;
#X connect 10 0 9 0;
#X connect 10 0 12 0;
#X connect 10 0 22 0;
#X connect 11 0 10 0;
#X connect 11 0 27 0;
#X connect 12 0 13 0;
#X connect 13 0 28 0;
#X connect 13 0 8 0;
#X connect 14 0 16 0;
#X connect 14 0 21 0;
#X connect 14 1 15 0;
#X connect 14 1 19 0;
#X connect 15 0 18 0;
#X connect 16 0 17 0;
#X connect 18 0 20 0;
#X connect 19 0 20 0;
#X connect 20 0 13 1;
#X connect 24 0 8 0;
#X coords 0 -1 1 1 20 20 2 0 0;
