#N canvas 2562 348 769 519 10;
#X obj 1 3 vsl 18 77 0 1 0 0 \$0-VCA-snd \$0-VCA-rcv empty 0 -9 0 10
-233017 -128992 -233017 5565 1;
#X text 13 408 arg1:ctl \; arg2:channel \; arg3:nVCA;
#X obj 1 83 tgl 18 0 \$0-OnVCA-snd \$0-OnVCA-rcv \$1 1 10 1 12 -258699
-258699 -233017 0 1;
#X obj 493 340 sel 0 1;
#X msg 493 367 color 13 13 10;
#X msg 513 389 color 16 16 0;
#X obj 33 267 sel 0 1;
#X msg 53 315 color 14 22 0;
#X msg 32 294 color 10 11 10;
#X obj 84 23 r X-TOUCH-snd;
#X obj 493 413 s \$0-OnVCA-rcv;
#X obj 33 339 s \$0-VCA-rcv;
#X obj 245 120 i;
#X obj 279 121 + 1;
#X obj 243 153 mod 2;
#X obj 165 290 bng 15 250 50 1 empty empty empty 17 7 0 10 -262144
-1 -1;
#X obj 250 401 pack s f;
#X obj 142 165 t f f;
#X msg 250 461 \$1 \$2;
#X obj 262 379 t b f;
#X obj 346 403 unpack s f;
#X symbolatom 353 432 10 0 0 0 - - -, f 10;
#X floatatom 432 449 5 0 0 0 - - -, f 5;
#X symbolatom 159 351 10 0 0 0 - - -, f 10;
#X obj 258 306 tgl 15 1 empty empty empty 17 7 0 10 -262144 -1 -1 1
1;
#X obj 402 202 change;
#X obj 124 226 init 1;
#X obj 124 248 pipe 100;
#N canvas 2646 176 450 300 CtlXtouch 0;
#X obj 87 14 inlet;
#X obj 96 215 outlet;
#X obj 85 147 f;
#X obj 174 1 r XtouchVCAon-snd;
#X floatatom 211 114 5 0 0 0 - - -, f 5;
#X floatatom 137 186 5 0 0 0 - - -, f 5;
#X obj 82 88 spigot 1;
#X obj 227 132 r MASTERVOL-snd;
#X obj 203 167 f;
#X floatatom 216 201 5 0 0 0 - - -, f 5;
#X obj 174 23 sel 0 1;
#X msg 205 79 0;
#X obj 174 54 t b b;
#X msg 168 116 0;
#X obj 240 55 t b b;
#X msg 271 93 1;
#X obj 192 218 outlet;
#X connect 0 0 6 0;
#X connect 2 0 1 0;
#X connect 2 0 5 0;
#X connect 3 0 10 0;
#X connect 6 0 2 0;
#X connect 7 0 8 1;
#X connect 8 0 9 0;
#X connect 8 0 2 0;
#X connect 10 0 12 0;
#X connect 10 1 14 0;
#X connect 11 0 6 1;
#X connect 12 0 13 0;
#X connect 12 1 11 0;
#X connect 13 0 16 0;
#X connect 14 1 15 0;
#X connect 15 0 6 1;
#X restore 56 74 pd CtlXtouch;
#N canvas 2872 143 450 300 CtlXtouch 0;
#X obj 87 14 inlet;
#X obj 96 215 outlet;
#X obj 85 147 f;
#X obj 173 32 r XtouchVCAon-snd;
#X floatatom 211 114 5 0 0 0 - - -, f 5;
#X obj 152 109 sel 1;
#X obj 174 54 t f f;
#X floatatom 137 186 5 0 0 0 - - -, f 5;
#X obj 84 55 change;
#X obj 82 88 spigot 1;
#X obj 174 139 r on-MASTER-snd;
#X obj 134 161 f;
#X floatatom 183 170 5 0 0 0 - - -, f 5;
#X connect 0 0 8 0;
#X connect 2 0 1 0;
#X connect 2 0 7 0;
#X connect 3 0 6 0;
#X connect 5 0 11 0;
#X connect 6 0 5 0;
#X connect 6 1 4 0;
#X connect 6 1 9 1;
#X connect 8 0 9 0;
#X connect 9 0 2 0;
#X connect 10 0 11 1;
#X connect 10 0 12 0;
#X restore 220 72 pd CtlXtouch;
#N canvas 0 799 450 300 CtlXtouch 0;
#X obj 87 14 inlet;
#X obj 96 215 outlet;
#X obj 85 147 f;
#X obj 173 32 r XtouchVCAon-snd;
#X floatatom 211 114 5 0 0 0 - - -, f 5;
#X obj 152 109 sel 1;
#X obj 174 54 t f f;
#X floatatom 137 186 5 0 0 0 - - -, f 5;
#X obj 82 88 spigot 1;
#X connect 0 0 8 0;
#X connect 2 0 1 0;
#X connect 2 0 7 0;
#X connect 3 0 6 0;
#X connect 5 0 2 0;
#X connect 6 0 5 0;
#X connect 6 1 4 0;
#X connect 6 1 8 1;
#X connect 8 0 2 0;
#X restore 5 236 pd CtlXtouch;
#N canvas 2703 401 369 432 route-Fader 0;
#X obj 34 -3 inlet;
#X obj 34 135 change;
#X obj 30 258 pack s f;
#X obj 93 186 loadbang;
#X obj 193 151 bng 15 250 50 0 empty empty empty 17 7 0 10 -262144
-1 -1;
#X obj 32 186 t b f;
#N canvas 2470 117 450 300 CtlXtouch 0;
#X obj 87 14 inlet;
#X obj 96 215 outlet;
#X obj 85 147 f;
#X obj 173 32 r XtouchVCAon-snd;
#X floatatom 211 114 5 0 0 0 - - -, f 5;
#X obj 152 109 sel 1;
#X obj 174 54 t f f;
#X floatatom 137 186 5 0 0 0 - - -, f 5;
#X obj 82 88 spigot 1;
#X obj 215 131 r MASTERVOL-snd;
#X obj 193 160 f;
#X obj 361 11 inlet;
#X connect 0 0 8 0;
#X connect 2 0 1 0;
#X connect 2 0 7 0;
#X connect 3 0 6 0;
#X connect 5 0 10 0;
#X connect 6 0 5 0;
#X connect 6 1 4 0;
#X connect 6 1 8 1;
#X connect 8 0 2 0;
#X connect 9 0 10 1;
#X connect 10 0 2 0;
#X connect 11 0 2 0;
#X restore 33 157 pd CtlXtouch;
#X floatatom 139 134 5 0 0 0 - - -, f 5;
#X obj 341 224 bng 15 250 50 0 empty empty empty 17 7 0 10 -262144
-1 -1;
#X obj 294 103 mknob 25 100 0 1 0 0 empty empty empty -2 -6 0 8 -262144
-1 -1 0 1;
#X obj 153 273 unpack s f;
#X symbolatom 148 314 10 0 0 0 - - -, f 10;
#X floatatom 223 304 5 0 0 0 - - -, f 5;
#X obj 93 207 symbol Fader\$1;
#X msg 33 293 \$1 \$2;
#X obj 27 354 s X-TOUCH-rcv;
#X obj 205 2 inlet;
#X obj 205 27 t f b;
#X obj 273 44 del 50;
#X msg 273 64 1;
#X msg 237 52 0;
#X obj 273 87 tgl 15 0 empty empty empty 17 7 0 10 -262144 -1 -1 1
1;
#X floatatom 179 74 5 0 0 0 - - -, f 5;
#X obj 133 38 - 1;
#X obj 133 60 abs;
#X obj 136 87 tgl 15 0 empty empty empty 17 7 0 10 -262144 -1 -1 1
1;
#X floatatom 52 37 5 0 0 0 - - -, f 5;
#X obj 34 101 spigot 1;
#X obj 266 0 inlet;
#X connect 0 0 26 0;
#X connect 0 0 27 0;
#X connect 1 0 6 0;
#X connect 2 0 14 0;
#X connect 3 0 13 0;
#X connect 4 0 13 0;
#X connect 5 0 2 0;
#X connect 5 1 2 1;
#X connect 6 0 5 0;
#X connect 6 0 7 0;
#X connect 9 0 5 0;
#X connect 10 0 11 0;
#X connect 10 1 12 0;
#X connect 13 0 2 0;
#X connect 14 0 10 0;
#X connect 14 0 15 0;
#X connect 16 0 17 0;
#X connect 17 0 22 0;
#X connect 17 0 23 0;
#X connect 17 1 18 0;
#X connect 17 1 20 0;
#X connect 18 0 19 0;
#X connect 19 0 21 0;
#X connect 20 0 21 0;
#X connect 23 0 24 0;
#X connect 24 0 25 0;
#X connect 24 0 27 1;
#X connect 27 0 1 0;
#X connect 28 0 6 1;
#X restore 61 112 pd route-Fader;
#N canvas 0 919 450 300 CtlXtouch 0;
#X obj 87 14 inlet;
#X obj 96 215 outlet;
#X obj 85 147 f;
#X obj 173 32 r XtouchVCAon-snd;
#X floatatom 211 114 5 0 0 0 - - -, f 5;
#X obj 152 109 sel 1;
#X obj 174 54 t f f;
#X floatatom 137 186 5 0 0 0 - - -, f 5;
#X obj 82 88 spigot 1;
#X connect 0 0 8 0;
#X connect 2 0 1 0;
#X connect 2 0 7 0;
#X connect 3 0 6 0;
#X connect 5 0 2 0;
#X connect 6 0 5 0;
#X connect 6 1 4 0;
#X connect 6 1 8 1;
#X connect 8 0 2 0;
#X restore 371 89 pd CtlXtouch;
#X msg 20 137 set \$1;
#X obj 250 483 s X-TOUCH-rcv;
#X floatatom 310 163 5 0 0 0 - - -, f 5;
#X floatatom 139 192 5 0 0 0 - - -, f 5;
#X obj 547 59 i;
#X obj 581 60 + 1;
#X obj 546 80 mod 2;
#X obj 527 104 tgl 15 0 empty empty empty 17 7 0 10 -262144 -1 -1 0
1;
#X obj 546 39 sel 1;
#X obj 220 95 sel 0 1;
#X floatatom 187 183 5 0 0 0 - - -, f 5;
#X obj 240 198 f;
#X msg 106 -2 set \$1;
#X msg 372 186 set \$1;
#X obj 370 164 r on-VCA-\$1-snd;
#X obj 613 427 s \$0-OnVCA-rcv;
#X obj 349 268 change;
#X obj 92 45 route FaderMA TFaderMA RecMA;
#X obj 166 313 symbol RecMA;
#X obj 168 -1 r MASTERVOL-snd;
#X obj 2 180 s MASTERVOL-rcv;
#X obj 353 238 r on-MASTER-snd;
#X obj 345 378 s on-MASTER-rcv;
#N canvas 2524 92 450 300 CtlXtouch 0;
#X obj 87 14 inlet;
#X obj 96 215 outlet;
#X obj 85 147 f;
#X obj 173 32 r XtouchVCAon-snd;
#X floatatom 211 114 5 0 0 0 - - -, f 5;
#X obj 174 54 t f f;
#X floatatom 137 186 5 0 0 0 - - -, f 5;
#X obj 82 88 spigot 1;
#X obj 159 159 f;
#X obj 218 188 tgl 15 0 empty empty empty 17 7 0 10 -262144 -1 -1 1
1;
#X obj 152 109 sel 1 0;
#X msg 256 212 0;
#X obj 233 135 r on-MASTER-snd;
#X connect 0 0 7 0;
#X connect 2 0 1 0;
#X connect 2 0 6 0;
#X connect 3 0 5 0;
#X connect 5 0 10 0;
#X connect 5 1 4 0;
#X connect 5 1 7 1;
#X connect 7 0 2 0;
#X connect 8 0 2 0;
#X connect 10 0 8 0;
#X connect 10 1 11 0;
#X connect 11 0 2 0;
#X connect 12 0 8 1;
#X connect 12 0 9 0;
#X restore 252 347 pd CtlXtouch;
#X connect 0 0 53 0;
#X connect 3 0 4 0;
#X connect 3 1 5 0;
#X connect 4 0 10 0;
#X connect 5 0 10 0;
#X connect 6 0 8 0;
#X connect 6 1 7 0;
#X connect 7 0 11 0;
#X connect 8 0 11 0;
#X connect 9 0 50 0;
#X connect 12 0 13 0;
#X connect 12 0 14 0;
#X connect 12 0 35 0;
#X connect 13 0 12 1;
#X connect 14 0 43 0;
#X connect 14 0 44 1;
#X connect 15 0 51 0;
#X connect 16 0 20 0;
#X connect 16 0 18 0;
#X connect 17 0 36 0;
#X connect 18 0 34 0;
#X connect 19 0 16 0;
#X connect 19 1 16 1;
#X connect 20 0 21 0;
#X connect 20 1 22 0;
#X connect 24 0 55 0;
#X connect 24 0 56 0;
#X connect 24 0 3 0;
#X connect 26 0 27 0;
#X connect 28 0 0 0;
#X connect 28 1 31 2;
#X connect 29 0 42 0;
#X connect 30 0 6 0;
#X connect 37 0 38 0;
#X connect 37 0 39 0;
#X connect 38 0 37 1;
#X connect 39 0 40 0;
#X connect 41 0 37 0;
#X connect 42 0 44 0;
#X connect 42 1 12 0;
#X connect 44 0 24 0;
#X connect 45 0 0 0;
#X connect 47 0 46 0;
#X connect 49 0 24 0;
#X connect 50 0 28 0;
#X connect 50 1 30 0;
#X connect 50 1 31 1;
#X connect 50 2 29 0;
#X connect 51 0 16 0;
#X connect 51 0 23 0;
#X connect 52 0 45 0;
#X connect 52 0 31 0;
#X connect 54 0 49 0;
#X connect 56 0 19 0;
#X connect 56 0 3 0;
#X coords 0 -1 1 1 20 102 2 0 0;
