#N canvas 2195 176 426 578 10;
#X obj 189 108 / 127;
#X floatatom 198 211 5 0 0 0 - - -, f 5;
#X obj 189 233 sel 0 1;
#X msg 212 283 color 14 22 0;
#X msg 189 259 color 10 11 10;
#X obj 189 43 notein \$2;
#X obj 189 87 route \$4;
#X obj 189 65 pack f f;
#X obj 1 1 mknob 18 100 0 1 0 0 \$0-XtouchVpot-\$1-snd \$0-XtouchVpot-\$1-rcv
empty -2 -6 0 8 -233017 -128992 -233017 0 1;
#X floatatom 133 77 5 0 0 0 - - -, f 5;
#X obj 111 53 / 127;
#X obj 110 -5 ctlin \$3 \$2;
#X text 19 363 arg1:NbSlice \; arg2:midi-ch \; arg3:ctl-Vpot \; arg4:note-VpotTouch
\;;
#X obj 186 349 s \$0-XtouchVpot-\$1-rcv;
#X msg 111 97 set \$1;
#X obj 1 91 t f b;
#X obj 49 108 del 50;
#X obj 1 189 * 127;
#X obj 1 212 ctlout \$3 \$2;
#X msg 49 128 1;
#X msg 14 128 0;
#X obj 49 151 tgl 15 0 empty empty empty 17 7 0 10 -262144 -1 -1 1
1;
#X floatatom 8 169 5 0 0 0 - - -, f 5;
#N canvas 0 852 284 296 route-Vpot 0;
#X obj 31 20 inlet;
#X obj 26 211 s X-TOUCH-snd;
#X obj 31 46 change;
#X obj 89 118 makesymbol Vpot\$1;
#X obj 26 169 pack s f;
#X msg 26 190 \$1 \$2;
#X obj 89 97 loadbang;
#X obj 28 97 t b f;
#X connect 0 0 2 0;
#X connect 2 0 7 0;
#X connect 3 0 4 0;
#X connect 4 0 5 0;
#X connect 5 0 1 0;
#X connect 6 0 3 0;
#X connect 7 0 4 0;
#X connect 7 1 4 1;
#X restore 11 67 pd route-Vpot;
#N canvas 2337 636 284 296 route-TVpot 0;
#X obj 31 20 inlet;
#X obj 26 211 s X-TOUCH-snd;
#X obj 31 46 change;
#X obj 26 169 pack s f;
#X msg 26 190 \$1 \$2;
#X obj 89 97 loadbang;
#X obj 89 118 makesymbol TVpot\$1;
#X obj 119 57 bng 15 250 50 0 empty empty empty 17 7 0 10 -262144 -1
-1;
#X obj 104 32 init O;
#X obj 28 97 t b f;
#X connect 0 0 2 0;
#X connect 2 0 9 0;
#X connect 3 0 4 0;
#X connect 4 0 1 0;
#X connect 5 0 6 0;
#X connect 6 0 3 0;
#X connect 7 0 6 0;
#X connect 8 0 9 0;
#X connect 9 0 3 0;
#X connect 9 1 3 1;
#X restore 225 183 pd route-TVpot;
#N canvas 0 904 223 140 route-in 0;
#X obj 30 70 outlet;
#X obj 30 16 r X-TOUCH-rcv;
#X floatatom 87 72 5 0 0 0 - - -, f 5;
#X obj 30 43 route Vpot\$1;
#X obj 133 23 loadbang;
#X connect 1 0 3 0;
#X connect 3 0 0 0;
#X connect 3 0 2 0;
#X connect 4 0 0 0;
#X restore 26 1 pd route-in;
#X obj 110 23 spigot 1;
#X connect 0 0 24 0;
#X connect 0 0 2 0;
#X connect 2 0 4 0;
#X connect 2 1 3 0;
#X connect 3 0 13 0;
#X connect 4 0 13 0;
#X connect 5 0 7 0;
#X connect 5 1 7 1;
#X connect 6 0 0 0;
#X connect 7 0 6 0;
#X connect 8 0 15 0;
#X connect 8 0 23 0;
#X connect 10 0 9 0;
#X connect 10 0 14 0;
#X connect 10 0 23 0;
#X connect 11 0 26 0;
#X connect 14 0 8 0;
#X connect 15 0 17 0;
#X connect 15 0 22 0;
#X connect 15 1 16 0;
#X connect 15 1 20 0;
#X connect 16 0 19 0;
#X connect 17 0 18 0;
#X connect 19 0 21 0;
#X connect 20 0 21 0;
#X connect 21 0 26 1;
#X connect 25 0 8 0;
#X connect 26 0 10 0;
#X coords 0 -1 1 1 20 20 2 0 0;
