#N canvas 2537 250 598 451 10;
#X obj 1 3 vsl 18 80 0 1 0 0 \$0-XtouchSlider-\$1-snd \$0-XtouchSlider-\$1-rcv
empty 0 -9 0 10 -233017 -128992 -233017 5350 1;
#X obj 272 33 / 127;
#X floatatom 284 105 5 0 0 0 - - -, f 5;
#X floatatom 323 31 5 0 0 0 - - -, f 5;
#X obj 272 126 sel 0 1;
#X msg 305 174 color 14 22 0;
#X msg 272 152 color 10 11 10;
#X obj 272 8 ctlin \$4 \$2;
#X text 31 340 arg1:NbSlice \; arg2:midi-ch \; arg3:ctl-Fader \; arg4:ctl-FaderTouch
\;;
#X obj 272 198 s \$0-XtouchSlider-\$1-rcv;
#X floatatom 156 67 5 0 0 0 - - -, f 5;
#X obj 134 43 / 127;
#X obj 134 -2 ctlin \$3 \$2;
#X msg 134 87 set \$1;
#X obj 25 118 t f b;
#X obj 73 135 del 50;
#X obj 25 216 * 127;
#X obj 25 239 ctlout \$3 \$2;
#X msg 73 155 1;
#X msg 38 155 0;
#X obj 73 178 tgl 15 0 empty empty empty 17 7 0 10 -262144 -1 -1 1
1;
#X floatatom 32 196 5 0 0 0 - - -, f 5;
#N canvas 2128 140 284 296 route-Fader 1;
#X obj 31 20 inlet;
#X obj 26 211 s X-TOUCH-snd;
#X obj 31 46 change;
#X obj 26 169 pack s f;
#X msg 26 190 \$1 \$2;
#X obj 89 97 loadbang;
#X obj 89 118 makesymbol Fader\$1;
#X obj 189 62 bng 15 250 50 0 empty empty empty 17 7 0 10 -262144 -1
-1;
#X obj 28 97 t b f;
#X connect 0 0 2 0;
#X connect 2 0 8 0;
#X connect 3 0 4 0;
#X connect 4 0 1 0;
#X connect 5 0 6 0;
#X connect 6 0 3 0;
#X connect 7 0 6 0;
#X connect 8 0 3 0;
#X connect 8 1 3 1;
#X restore 24 93 pd route-Fader;
#N canvas 0 930 284 296 route-TFader 0;
#X obj 31 20 inlet;
#X obj 26 211 s X-TOUCH-snd;
#X obj 31 46 change;
#X obj 26 169 pack s f;
#X msg 26 190 \$1 \$2;
#X obj 89 97 loadbang;
#X obj 119 57 bng 15 250 50 0 empty empty empty 17 7 0 10 -262144 -1
-1;
#X obj 89 118 makesymbol TFader\$1;
#X obj 104 32 init O;
#X obj 28 97 t b f;
#X connect 0 0 2 0;
#X connect 2 0 9 0;
#X connect 3 0 4 0;
#X connect 4 0 1 0;
#X connect 5 0 7 0;
#X connect 6 0 7 0;
#X connect 7 0 3 0;
#X connect 8 0 9 0;
#X connect 9 0 3 0;
#X connect 9 1 3 1;
#X restore 340 100 pd route-TFader;
#N canvas 1915 133 223 140 route-in 1;
#X obj 30 80 outlet;
#X obj 30 26 r X-TOUCH-rcv;
#X obj 30 53 route Fader\$1;
#X floatatom 87 82 5 0 0 0 - - -, f 5;
#X obj 16 2 init 0;
#X connect 1 0 2 0;
#X connect 2 0 0 0;
#X connect 2 0 3 0;
#X connect 4 0 0 0;
#X restore 50 5 pd route-in;
#X obj 399 48 init 0;
#X obj 136 19 spigot 1;
#X connect 0 0 22 0;
#X connect 0 0 14 0;
#X connect 1 0 4 0;
#X connect 1 0 23 0;
#X connect 1 0 2 0;
#X connect 4 0 6 0;
#X connect 4 1 5 0;
#X connect 5 0 9 0;
#X connect 6 0 9 0;
#X connect 7 0 1 0;
#X connect 7 0 3 0;
#X connect 11 0 10 0;
#X connect 11 0 13 0;
#X connect 11 0 22 0;
#X connect 12 0 26 0;
#X connect 13 0 0 0;
#X connect 14 0 16 0;
#X connect 14 0 21 0;
#X connect 14 1 15 0;
#X connect 14 1 19 0;
#X connect 15 0 18 0;
#X connect 16 0 17 0;
#X connect 18 0 20 0;
#X connect 19 0 20 0;
#X connect 20 0 26 1;
#X connect 24 0 0 0;
#X connect 25 0 4 0;
#X connect 26 0 11 0;
#X coords 0 -1 1 1 20 86 2 0 0;
