#N canvas 2231 288 727 585 10;
#X obj 1 22 vsl 18 77 0 1 0 0 \$0-VCA-snd \$0-VCA-rcv empty 0 -9 0
10 -233017 -128992 -233017 4313 1;
#X obj 1 102 tgl 18 0 \$0-OnVCA-snd \$0-OnVCA-rcv \$1 5 10 1 14 -24198
-24198 -262144 0 1;
#X obj 510 393 sel 0 1;
#X msg 510 420 color 13 13 10;
#X msg 530 442 color 16 16 0;
#X obj 50 320 sel 0 1;
#X msg 70 368 color 14 22 0;
#X msg 49 347 color 10 11 10;
#X obj 109 75 r X-TOUCH-snd;
#X obj 510 466 s \$0-OnVCA-rcv;
#X obj 50 392 s \$0-VCA-rcv;
#X obj 262 173 i;
#X obj 296 174 + 1;
#X obj 262 198 mod 2;
#X obj 183 366 symbol Rec\$1;
#X obj 182 343 bng 15 250 50 1 empty empty empty 17 7 0 10 -262144
-1 -1;
#X obj 268 437 pack s f;
#X msg 246 487 \$1 \$2;
#X obj 276 405 t b f;
#X obj 345 488 unpack s f;
#X symbolatom 352 517 10 0 0 0 - - -, f 10;
#X floatatom 431 534 5 0 0 0 - - -, f 5;
#X symbolatom 176 404 10 0 0 0 - - -, f 10;
#X obj 277 340 tgl 15 1 empty empty empty 17 7 0 10 -262144 -1 -1 1
1;
#N canvas 1699 534 450 408 CtlXtouch 1;
#X obj 87 14 inlet;
#X obj 96 215 outlet;
#X obj 85 147 f;
#X floatatom 112 185 5 0 0 0 - - -, f 5;
#X obj 82 88 spigot 1;
#X obj 321 112 r vol-VCA-\$1-snd;
#X obj 201 165 f;
#X floatatom 258 174 5 0 0 0 - - -, f 5;
#X obj 174 29 sel 0 1;
#X msg 199 73 0;
#X obj 174 54 t b b;
#X msg 168 116 0;
#X obj 240 55 t b b;
#X msg 271 93 1;
#X obj 192 218 outlet;
#X obj 173 7 r XtouchXR18on-snd;
#N canvas 1928 329 247 199 fader 0;
#X obj 65 76 ctlin \$2 17;
#X text 164 78 fader;
#X obj 65 129 outlet;
#X obj 64 100 / 127;
#X connect 0 0 3 0;
#X connect 3 0 2 0;
#X restore 258 132 pd fader;
#X msg 50 186 set \$1;
#X connect 0 0 4 0;
#X connect 2 0 3 0;
#X connect 2 0 17 0;
#X connect 4 0 2 0;
#X connect 6 0 2 0;
#X connect 8 0 10 0;
#X connect 8 1 12 0;
#X connect 9 0 4 1;
#X connect 10 0 11 0;
#X connect 10 1 9 0;
#X connect 11 0 14 0;
#X connect 12 0 6 0;
#X connect 12 1 13 0;
#X connect 13 0 4 1;
#X connect 15 0 8 0;
#X connect 16 0 6 0;
#X connect 16 0 7 0;
#X connect 17 0 1 0;
#X restore 70 129 pd CtlXtouch;
#N canvas 2278 188 450 300 CtlXtouch 0;
#X obj 87 14 inlet;
#X obj 81 242 outlet;
#X obj 70 174 f;
#X floatatom 210 80 5 0 0 0 - - -, f 5;
#X obj 158 107 sel 1;
#X obj 174 54 t f f;
#X floatatom 122 213 5 0 0 0 - - -, f 5;
#X obj 84 55 change;
#X obj 82 88 spigot 1;
#X obj 158 131 f;
#X floatatom 219 156 5 0 0 0 - - -, f 5;
#X obj 217 104 r on-VCA-\$1-snd;
#X obj 173 32 r XtouchXR18on-snd;
#X connect 0 0 7 0;
#X connect 2 0 1 0;
#X connect 2 0 6 0;
#X connect 4 0 9 0;
#X connect 5 0 4 0;
#X connect 5 1 3 0;
#X connect 5 1 8 1;
#X connect 7 0 8 0;
#X connect 8 0 2 0;
#X connect 11 0 9 1;
#X connect 11 0 10 0;
#X connect 12 0 5 0;
#X restore 237 125 pd CtlXtouch;
#N canvas 2698 305 450 300 CtlXtouch 0;
#X obj 87 14 inlet;
#X obj 96 215 outlet;
#X obj 85 147 f;
#X floatatom 211 114 5 0 0 0 - - -, f 5;
#X obj 152 109 sel 1;
#X obj 174 54 t f f;
#X floatatom 137 186 5 0 0 0 - - -, f 5;
#X obj 82 88 spigot 1;
#X obj 174 31 r XtouchXR18-snd;
#X connect 0 0 7 0;
#X connect 2 0 1 0;
#X connect 2 0 6 0;
#X connect 5 0 4 0;
#X connect 5 1 3 0;
#X connect 5 1 7 1;
#X connect 7 0 2 0;
#X connect 8 0 5 0;
#X restore 22 289 pd CtlXtouch;
#N canvas 1743 116 369 432 route-Fader 0;
#X obj 34 -3 inlet;
#X obj 34 135 change;
#X obj 30 258 pack s f;
#X obj 93 186 loadbang;
#X obj 193 151 bng 15 250 50 0 empty empty empty 17 7 0 10 -262144
-1 -1;
#X obj 32 186 t b f;
#N canvas 1931 830 450 300 CtlXtouch 0;
#X obj 87 14 inlet;
#X obj 80 279 outlet;
#X obj 78 197 f;
#X floatatom 211 114 5 0 0 0 - - -, f 5;
#X obj 174 54 t f f;
#X floatatom 119 233 5 0 0 0 - - -, f 5;
#X obj 82 88 spigot 1;
#X obj 252 157 r vol-VCA-\$1-snd;
#X obj 150 169 f;
#X floatatom 259 136 5 0 0 0 - - -, f 5;
#X obj 152 109 sel 1 0;
#X msg 180 220 0;
#X obj 287 63 inlet;
#X obj 173 32 r XtouchXR18on-snd;
#N canvas 1931 303 247 199 fader 0;
#X obj 65 76 ctlin \$2 17;
#X text 164 78 fader;
#X obj 65 129 outlet;
#X obj 64 100 / 127;
#X connect 0 0 3 0;
#X connect 3 0 2 0;
#X restore 260 104 pd fader;
#X connect 0 0 6 0;
#X connect 2 0 1 0;
#X connect 2 0 5 0;
#X connect 4 0 10 0;
#X connect 4 1 3 0;
#X connect 4 1 6 1;
#X connect 6 0 2 0;
#X connect 8 0 2 0;
#X connect 10 0 8 0;
#X connect 10 1 11 0;
#X connect 12 0 2 0;
#X connect 13 0 4 0;
#X connect 14 0 8 1;
#X connect 14 0 9 0;
#X restore 33 157 pd CtlXtouch;
#X floatatom 139 134 5 0 0 0 - - -, f 5;
#X obj 341 224 bng 15 250 50 0 empty empty empty 17 7 0 10 -262144
-1 -1;
#X obj 294 103 mknob 25 100 0 1 0 0 empty empty empty -2 -6 0 8 -262144
-1 -1 0 1;
#X obj 153 273 unpack s f;
#X symbolatom 148 314 10 0 0 0 - - -, f 10;
#X floatatom 223 304 5 0 0 0 - - -, f 5;
#X obj 93 207 symbol Fader\$1;
#X msg 33 293 \$1 \$2;
#X obj 27 354 s X-TOUCH-rcv;
#X obj 205 2 inlet;
#X obj 205 27 t f b;
#X obj 273 44 del 50;
#X msg 273 64 1;
#X msg 237 52 0;
#X obj 273 87 tgl 15 0 empty empty empty 17 7 0 10 -262144 -1 -1 1
1;
#X floatatom 179 74 5 0 0 0 - - -, f 5;
#X obj 133 38 - 1;
#X obj 133 60 abs;
#X obj 136 87 tgl 15 0 empty empty empty 17 7 0 10 -262144 -1 -1 1
1;
#X floatatom 52 37 5 0 0 0 - - -, f 5;
#X obj 34 101 spigot 1;
#X obj 276 5 inlet;
#X connect 0 0 26 0;
#X connect 0 0 27 0;
#X connect 1 0 6 0;
#X connect 2 0 14 0;
#X connect 3 0 13 0;
#X connect 4 0 13 0;
#X connect 5 0 2 0;
#X connect 5 1 2 1;
#X connect 6 0 5 0;
#X connect 6 0 7 0;
#X connect 9 0 5 0;
#X connect 10 0 11 0;
#X connect 10 1 12 0;
#X connect 13 0 2 0;
#X connect 14 0 10 0;
#X connect 14 0 15 0;
#X connect 16 0 17 0;
#X connect 17 0 22 0;
#X connect 17 0 23 0;
#X connect 17 1 18 0;
#X connect 17 1 20 0;
#X connect 18 0 19 0;
#X connect 19 0 21 0;
#X connect 20 0 21 0;
#X connect 23 0 24 0;
#X connect 24 0 25 0;
#X connect 24 0 27 1;
#X connect 27 0 1 0;
#X connect 28 0 6 1;
#X restore 93 169 pd route-Fader;
#N canvas 2512 88 450 300 CtlXtouch 0;
#X obj 87 14 inlet;
#X obj 96 215 outlet;
#X obj 85 147 f;
#X floatatom 211 114 5 0 0 0 - - -, f 5;
#X obj 174 54 t f f;
#X floatatom 137 186 5 0 0 0 - - -, f 5;
#X obj 82 88 spigot 1;
#X obj 159 159 f;
#X obj 233 135 r on-VCA-\$1-snd;
#X obj 218 188 tgl 15 0 empty empty empty 17 7 0 10 -262144 -1 -1 1
1;
#X obj 152 109 sel 1 0;
#X msg 191 217 0;
#X obj 173 32 r XtouchXR18on-snd;
#X connect 0 0 6 0;
#X connect 2 0 1 0;
#X connect 2 0 5 0;
#X connect 4 0 10 0;
#X connect 4 1 3 0;
#X connect 4 1 6 1;
#X connect 6 0 2 0;
#X connect 7 0 2 0;
#X connect 8 0 7 1;
#X connect 8 0 9 0;
#X connect 10 0 7 0;
#X connect 10 1 11 0;
#X connect 11 0 2 0;
#X connect 12 0 4 0;
#X restore 284 375 pd CtlXtouch;
#X obj 384 272 r on-VCA-\$1-snd;
#X obj 246 509 s X-TOUCH-rcv;
#X floatatom 327 216 5 0 0 0 - - -, f 5;
#X obj 344 430 s on-VCA-\$1-rcv;
#X obj 237 148 sel 0 1;
#X floatatom 276 228 5 0 0 0 - - -, f 5;
#X obj 237 221 f;
#X msg 50 41 set \$1;
#X obj 10 200 s vol-VCA-\$1-rcv;
#X obj 331 302 change;
#X floatatom 109 56 5 0 0 0 - - -, f 5;
#X obj 387 69 r XtouchXR18on-snd;
#X floatatom 440 147 5 0 0 0 - - -, f 5;
#X obj 472 109 ctlin \$2 17;
#X floatatom 506 186 5 0 0 0 - - -, f 5;
#X obj 538 148 ctlin \$2 18;
#X text 571 111 fader;
#X text 641 151 mute;
#X floatatom 531 248 5 0 0 0 - - -, f 5;
#X text 666 213 pano;
#X obj 563 209 ctlin \$2 19;
#X obj 117 270 ctlout \$2 17;
#X floatatom 88 242 5 0 0 0 - - -, f 5;
#X obj 1 1 mknob 18 100 0 1 0 0 \$0-XtouchVpot-\$1-snd \$0-XtouchVpot-\$1-rcv
empty -2 -6 0 8 -233017 -128992 -233017 0 1;
#N canvas 1931 303 247 199 fader 0;
#X obj 65 76 ctlin \$2 17;
#X text 164 78 fader;
#X obj 65 129 outlet;
#X obj 64 100 / 127;
#X connect 0 0 3 0;
#X connect 3 0 2 0;
#X restore 95 10 pd fader;
#X obj 89 223 * 127;
#X obj 109 98 route Fader\$1 TFader\$1 Rec\$1 Vpot\$1 TVpot\$1;
#N canvas 1928 329 247 199 mute 0;
#X obj 65 129 outlet;
#X obj 64 100 / 127;
#X text 164 78 mute;
#X obj 65 76 ctlin \$2 18;
#X connect 1 0 0 0;
#X connect 3 0 1 0;
#X restore 328 250 pd mute;
#N canvas 1925 355 247 199 mute 0;
#X text 164 78 mute;
#X obj 65 27 inlet;
#X obj 64 50 * 127;
#X obj 64 73 ctlout \$2 18;
#X connect 1 0 2 0;
#X connect 2 0 3 0;
#X restore 332 407 pd mute;
#X connect 0 0 54 0;
#X connect 2 0 3 0;
#X connect 2 1 4 0;
#X connect 3 0 9 0;
#X connect 4 0 9 0;
#X connect 5 0 7 0;
#X connect 5 1 6 0;
#X connect 6 0 10 0;
#X connect 7 0 10 0;
#X connect 8 0 55 0;
#X connect 11 0 12 0;
#X connect 11 0 13 0;
#X connect 11 0 31 0;
#X connect 12 0 11 1;
#X connect 13 0 34 0;
#X connect 13 0 35 1;
#X connect 14 0 16 0;
#X connect 14 0 22 0;
#X connect 15 0 14 0;
#X connect 16 0 19 0;
#X connect 16 0 17 0;
#X connect 17 0 30 0;
#X connect 18 0 16 0;
#X connect 18 1 16 1;
#X connect 19 0 20 0;
#X connect 19 1 21 0;
#X connect 23 0 2 0;
#X connect 23 0 28 0;
#X connect 23 0 57 0;
#X connect 24 1 27 2;
#X connect 25 0 33 0;
#X connect 26 0 5 0;
#X connect 28 0 2 0;
#X connect 28 0 18 0;
#X connect 33 0 35 0;
#X connect 33 1 11 0;
#X connect 35 0 23 0;
#X connect 38 0 23 0;
#X connect 42 0 41 0;
#X connect 44 0 43 0;
#X connect 49 0 47 0;
#X connect 51 0 50 0;
#X connect 53 0 39 0;
#X connect 53 0 36 0;
#X connect 53 0 27 0;
#X connect 54 0 51 0;
#X connect 55 0 24 0;
#X connect 55 1 26 0;
#X connect 55 1 27 1;
#X connect 55 2 25 0;
#X connect 56 0 38 0;
#X coords 0 -1 1 1 20 121 1 0 0;
