#N canvas 276 92 777 545 10;
#X floatatom 283 51 3 0 0 0 - - -;
#X floatatom 381 80 3 0 0 0 - - -;
#X obj 266 22 ctlin 28 1;
#X obj 368 98 ctlout 0 1;
#X floatatom 330 83 5 0 0 0 - - -;
#X obj 369 58 ctlin 14 1;
#X obj 58 241 XR18slider-midi 2 1 3 13 3;
#X obj 11 205 XR18slider-midi 3 1 4 13 4;
#X obj 32 205 XR18slider-midi 4 1 5 13 5;
#X obj 53 205 XR18slider-midi 5 1 6 13 6;
#X obj 74 205 XR18slider-midi 6 1 7 13 7;
#X obj 95 205 XR18slider-midi 7 1 8 13 8;
#X obj 116 205 XR18slider-midi 8 1 9 12 1;
#X obj 137 205 XR18slider-midi 9 1 10 12 2;
#X obj 158 205 XR18slider-midi 10 1 11 12 3;
#X obj 179 205 XR18slider-midi 11 1 12 12 4;
#X obj 200 205 XR18slider-midi 12 1 13 12 5;
#X obj 221 205 XR18slider-midi 13 1 14 12 6;
#X obj 242 205 XR18slider-midi 14 1 15 12 7;
#X obj 263 205 XR18slider-midi 15 1 16 12 8;
#X obj 36 140 XR18slider-midi 1 1 2 1 1;
#X obj 19 75 XR18slider-midi 0 1 1 0 1;
#X text 249 490 updated for Pd version 0.34;
#X msg 34 364 240 \, 45 \, 93 \, 3 \, 65 \, 1 \, 2 \, 3 \, 4 \, 247
;
#X text 27 325 You can format your own SYSEX messages as shown:;
#X text 23 439 and receive SYSEX via:;
#X msg 486 302 F0 0 20 32 32 TEXT F7;
#X msg 521 344 240 0 32 50 50 TEXT 247;
#X obj 34 394 midiout;
#X obj 237 471 print;
#X obj 470 488 print;
#X msg 122 402 1;
#X obj 245 433 sysexin 240 0 32 50 50 TEXT 247;
#X obj 754 17 tgl 15 0 XtouchXR18on-snd XtouchXR18on-rcv empty 17 7
0 10 -258699 -258699 -233017 0 1;
#X obj 514 83 sel 0 1;
#X msg 514 110 color 13 13 10;
#X msg 534 132 color 16 16 0;
#X obj 523 49 tgl 15 0 empty empty empty 17 7 0 10 -262144 -1 -1 0
1;
#X obj 502 25 r XtouchXR18on-snd;
#X obj 514 156 s XtouchXR18on-rcv;
#X obj 786 352 Xtouch-TrancheXR18 1 0;
#X connect 2 0 0 0;
#X connect 4 0 3 0;
#X connect 5 0 1 0;
#X connect 23 0 28 0;
#X connect 26 0 28 0;
#X connect 27 0 28 0;
#X connect 31 0 28 1;
#X connect 34 0 35 0;
#X connect 34 1 36 0;
#X connect 35 0 39 0;
#X connect 36 0 39 0;
#X connect 37 0 34 0;
#X connect 38 0 34 0;
