#N canvas 1095 1180 376 413 10;
#X text 0 297 arg1:NbSlice \; arg2:midi-ch \; arg3:note-T \;;
#X obj 166 298 s \$0-XtouchT-\$1-\$4-rcv;
#X obj 197 72 / 127;
#X floatatom 186 163 5 0 0 0 - - -, f 5;
#X obj 154 192 sel 0 1;
#X msg 177 240 color 14 22 0;
#X msg 154 219 color 10 11 10;
#X obj 197 3 notein \$2;
#X obj 197 25 pack f f;
#X obj 3 2 tgl 15 0 \$0-\$1-\$4-snd \$0-\$1-\$4-rcv empty 17 7 0 10
-233017 -128992 -233017 0 1;
#X obj 197 50 route \$3;
#N canvas 54 1355 223 140 route-in 0;
#X obj 30 70 outlet;
#X obj 30 16 r X-TOUCH-rcv;
#X floatatom 87 72 5 0 0 0 - - -, f 5;
#X obj 153 14 init 0;
#X obj 31 43 route \$1\$4;
#X obj 169 52 bng 15 250 50 0 empty empty empty 17 7 0 10 -262144 -1
-1;
#X connect 1 0 4 0;
#X connect 3 0 0 0;
#X connect 4 0 0 0;
#X connect 4 0 2 0;
#X connect 5 0 3 0;
#X restore 55 0 pd route-in;
#X obj 3 35 * 127;
#X msg 154 125 set \$1;
#X obj 8 175 noteout \$2;
#X obj 61 30 loadbang;
#X obj 132 28 bng 15 250 50 0 empty empty empty 17 7 0 10 -262144 -1
-1;
#X obj 2 80 t b f;
#X obj 18 117 pack f f;
#X msg 18 140 \$1 \$2;
#X obj 61 73 f \$3;
#X obj 155 263 s \$0-\$1-\$4-rcv;
#N canvas 29 1324 284 296 route-T 0;
#X obj 31 20 inlet;
#X obj 26 211 s X-TOUCH-snd;
#X obj 31 46 change;
#X obj 26 169 pack s f;
#X msg 26 190 \$1 \$2;
#X obj 89 97 loadbang;
#X obj 119 57 bng 15 250 50 0 empty empty empty 17 7 0 10 -262144 -1
-1;
#X obj 174 16 init 0;
#X obj 31 110 t b f;
#X obj 171 78 bng 15 250 50 0 empty empty empty 17 7 0 10 -262144 -1
-1;
#X obj 90 117 makesymbol \$1\$4;
#X connect 0 0 2 0;
#X connect 2 0 8 0;
#X connect 3 0 4 0;
#X connect 4 0 1 0;
#X connect 5 0 10 0;
#X connect 6 0 10 0;
#X connect 7 0 8 0;
#X connect 8 0 3 0;
#X connect 8 1 3 1;
#X connect 9 0 7 0;
#X connect 10 0 3 0;
#X restore 224 146 pd route-T;
#X connect 2 0 3 0;
#X connect 2 0 4 0;
#X connect 2 0 22 0;
#X connect 2 0 13 0;
#X connect 4 0 6 0;
#X connect 4 1 5 0;
#X connect 5 0 21 0;
#X connect 6 0 21 0;
#X connect 7 0 8 0;
#X connect 7 1 8 1;
#X connect 8 0 10 0;
#X connect 9 0 12 0;
#X connect 10 0 2 0;
#X connect 11 0 9 0;
#X connect 12 0 17 0;
#X connect 13 0 9 0;
#X connect 15 0 20 0;
#X connect 16 0 20 0;
#X connect 17 0 18 0;
#X connect 17 1 18 1;
#X connect 18 0 19 0;
#X connect 19 0 14 0;
#X connect 20 0 18 0;
#X coords 0 -1 1 1 20 20 2 0 0;
