#N canvas 607 378 462 312 10;
#X obj 137 35 loadbang;
#X obj 194 39 bng 15 250 50 0 empty empty empty 17 7 0 10 -262144 -1
-1;
#X obj 47 38 symbol;
#X obj 142 219 unpack f f f;
#X obj 286 199 tgl 15 0 empty empty empty 17 7 0 10 -262144 -1 -1 0
1;
#X obj 137 58 symbol \$0-requestloop-rcv;
#X obj 142 193 r \$0-requestloop-rcv;
#X msg 343 26 boucle;
#X msg 314 57 naissance;
#X msg 306 82 sortie;
#X msg 369 76 home;
#X floatatom 128 257 5 0 0 0 - - -;
#X obj 47 59 sel home;
#X obj 42 146 t b b;
#X msg 42 186 1;
#X obj 47 13 inlet;
#X obj 42 212 s \$1-play-rcv;
#X obj 341 107 t a;
#X obj 92 136 s \$1-song-\$2-rcv;
#X obj 69 169 s \$1-home-rcv;
#X obj 176 243 s \$1-song-Goto;
#X obj 288 171 r \$1-play-snd;
#X obj 92 81 pack s s \$3;
#X msg 92 110 \$3 request \$1 \$2;
#X connect 0 0 5 0;
#X connect 1 0 5 0;
#X connect 2 0 12 0;
#X connect 3 0 11 0;
#X connect 3 1 20 0;
#X connect 5 0 22 1;
#X connect 6 0 3 0;
#X connect 7 0 17 0;
#X connect 8 0 17 0;
#X connect 9 0 17 0;
#X connect 10 0 17 0;
#X connect 12 0 13 0;
#X connect 12 1 22 0;
#X connect 13 0 14 0;
#X connect 13 1 19 0;
#X connect 14 0 16 0;
#X connect 15 0 2 0;
#X connect 17 0 2 0;
#X connect 21 0 4 0;
#X connect 22 0 23 0;
#X connect 23 0 18 0;
