#N canvas 414 103 865 801 10;
#X obj 1 19 cnv 15 200 230 empty empty Gamme 5 8 0 14 -4032 -66577
0;
#X obj 131 22 bng 15 250 50 0 \$0-rec-snd \$0-rec-rcv rec 17 7 0 10
-195568 -195568 -195568;
#X obj 544 95 block_common \$0 \$1 \$2 \$1 S1 \$3;
#X symbolatom 409 34 10 0 0 0 nom #0-name-rcv #0-name-snd;
#X obj 543 24 apsym \$0 name \$0-name;
#X obj 541 70 s \$0-modename;
#X obj 543 47 r \$0-name-snd;
#X obj 2 113 cnv 15 190 60 empty empty basse 20 52 0 12 -4160 -262144
0;
#X obj 629 226 gamme 90 40 1 0 1 0 1 0 0 1 0 1 0 1;
#X obj 719 226 gamme 90 40 1 0 1 0 1 0 0 1 0 1 0 1;
#X msg 689 173 setb \$1;
#X obj 629 276 gamme 90 40 0 0 0 0 0 1 0 0 0 0 0 0;
#X obj 719 276 gamme 90 40 0 0 0 0 0 1 0 0 0 0 0 0;
#X obj 230 184 s \$0-gb;
#X obj 343 231 change;
#X msg 872 287 setb \$1;
#X obj 344 148 r \$0-gb;
#X msg 343 209 \$1;
#X msg 343 253 1 \$1;
#X obj 343 274 <<;
#X floatatom 344 309 5 0 0 0 - - -;
#X obj 395 325 t b f b;
#X msg 437 349 0;
#X msg 396 346 1;
#X floatatom 283 249 5 0 0 0 - - -;
#X obj 344 186 spigot 1;
#X obj 396 300 pipe 1;
#X obj 205 567 gamme 90 40 1 0 1 0 1 0 0 1 0 1 0 1;
#X obj 220 391 t b a;
#X obj 126 411 f;
#X obj 93 564 +;
#X obj 205 616 + 0.5;
#X obj 205 641 mod 12;
#X msg 205 665 set \$1 1;
#X obj 126 436 t b f b;
#X obj 203 430 bng 15 250 50 0 empty empty empty 17 7 0 10 -262144
-1 -1;
#X msg 235 535 setb \$1;
#X msg 13 555 0 \, 3.51 \, 7;
#X msg 124 551 round \$1 1000;
#X msg 59 528 0 \, 3.51 \, 7 \, 11;
#X obj 34 465 demux 0 1 2 3;
#X msg 85 509 0 \, 3.51 \, 7 \, 9;
#X msg 109 491 0 \, 3.51 \, 7 \, 9 \, 11;
#X obj 8 180 hradio 15 1 0 4 empty empty empty 0 -8 0 10 -262144 -1
-1 0;
#X obj 8 372 t b f;
#X obj 313 127 r \$0-basse-rcv;
#X obj 689 146 r \$0-gA-rcv;
#X obj 830 231 change;
#X obj 830 255 s \$0-gA-rcv;
#X obj 905 255 s \$0-gA-snd;
#X obj 220 370 r \$0-gA-snd;
#X obj 276 498 s \$0-gB-rcv;
#X floatatom 651 842 5 0 0 0 - - -;
#X obj 710 343 gamme 90 40 1 0 1 0 1 0 0 1 0 1 0 1;
#X obj 800 343 gamme 90 40 1 0 1 0 1 0 0 1 0 1 0 1;
#X obj 793 406 change;
#X obj 793 431 s \$0-gB-rcv;
#X obj 868 430 s \$0-gB-snd;
#X obj 606 361 r \$0-2gB;
#X obj 205 695 s \$0-2gB;
#X msg 276 475 0;
#X obj 284 346 s \$0-basse-snd;
#X obj 126 381 r \$0-basse-snd;
#X floatatom 166 469 5 0 0 0 - - -;
#X obj 374 447 r \$0-gB-rcv;
#X msg 374 470 setb \$1;
#X obj 374 493 s \$0-2gB;
#X obj 546 170 apf \$0 basse \$0-basse;
#X obj 512 391 sel 0 1 2 3 4 5 6 7 8 9 10 11;
#X obj 512 368 mod 12;
#X msg 425 596 symbol DO;
#X msg 442 575 symbol DO+;
#X obj 586 572 t a;
#X msg 460 556 symbol RE;
#X msg 477 535 symbol RE+;
#X msg 506 514 symbol MI;
#X msg 522 493 symbol FA;
#X msg 541 474 symbol FA+;
#X msg 598 436 symbol SO+;
#X msg 571 456 symbol SOL;
#X msg 616 480 symbol LA;
#X msg 643 460 symbol LA+;
#X msg 671 435 symbol SI;
#X obj 538 279 r \$0-basse-snd;
#X symbolatom 580 622 10 0 0 0 - - -;
#X obj 549 651 s \$0-modename;
#X obj 2 640 r \$0-basse-snd;
#X obj 2 662 s \$1-basse;
#X obj 2 693 r \$0-gA-snd;
#X obj 2 715 s \$1-gA;
#X obj 2 741 r \$0-gB-snd;
#X obj 2 763 s \$1-gB;
#X obj 34 47 tgl 15 0 \$0-lock_select empty lock_select 17 7 0 10 -262144
-1 -1 0 1;
#X floatatom 110 747 5 0 0 0 - - -;
#X obj 545 124 apf \$0 gA GAMME1;
#X obj 545 149 apf \$0 gB GAMME2;
#X obj 414 391 s BASSEKB;
#X floatatom 373 396 5 0 0 0 - - -;
#X obj 827 462 adjust;
#X obj 294 637 gamme 90 40 1 0 1 0 1 1 0 1 0 1 0 1;
#X msg 317 598 round \$1 5;
#X floatatom 315 571 5 0 0 0 - - -;
#X floatatom 320 711 5 0 0 0 - - -;
#X obj 103 636 + 0.5;
#X obj 103 661 mod 12;
#X msg 106 683 1 \$1;
#X obj 107 706 <<;
#X obj 163 746 s BASSEKB;
#X obj 99 304 change;
#X obj 7 116 GAMMEKB GBAS 1;
#X obj 7 66 GAMMEKB GAMME1;
#X obj 98 66 GAMMEKB GAMME1;
#X obj 7 202 GAMMEKB GAMME2;
#X obj 98 202 GAMMEKB GAMME2;
#X obj 98 116 GAMMEKB GBAS 1;
#X obj 99 279 r GBAS;
#X floatatom 68 329 5 0 0 0 - - -;
#N canvas 769 437 450 300 log2 0;
#X obj 66 26 t f b;
#X obj 62 66 log;
#X obj 106 74 log;
#X msg 104 51 2;
#X obj 69 98 /;
#X obj 70 124 outlet;
#X obj 68 5 inlet;
#X connect 0 0 1 0;
#X connect 0 1 3 0;
#X connect 1 0 4 0;
#X connect 2 0 4 1;
#X connect 3 0 2 0;
#X connect 4 0 5 0;
#X connect 6 0 0 0;
#X restore 133 328 pd log2;
#X floatatom 133 350 5 0 0 0 - - -;
#N canvas 104 211 450 300 ACCORD 0;
#X restore 155 282 pd ACCORD;
#X obj 92 611 gammeRound GAMME1 0;
#X msg 8 598 round \$1 1000;
#X msg 93 591 \$1 1000;
#X connect 10 0 8 0;
#X connect 10 0 9 0;
#X connect 14 0 18 0;
#X connect 14 0 61 0;
#X connect 15 0 11 0;
#X connect 15 0 12 0;
#X connect 16 0 25 0;
#X connect 17 0 14 0;
#X connect 17 0 24 0;
#X connect 18 0 19 0;
#X connect 19 0 20 0;
#X connect 19 0 26 0;
#X connect 21 0 23 0;
#X connect 21 1 97 0;
#X connect 21 2 22 0;
#X connect 22 0 25 1;
#X connect 23 0 25 1;
#X connect 25 0 17 0;
#X connect 26 0 21 0;
#X connect 27 0 31 0;
#X connect 28 0 29 0;
#X connect 28 0 35 0;
#X connect 28 1 36 0;
#X connect 29 0 34 0;
#X connect 29 0 63 0;
#X connect 30 0 38 0;
#X connect 30 0 122 0;
#X connect 31 0 32 0;
#X connect 32 0 33 0;
#X connect 33 0 59 0;
#X connect 34 0 40 0;
#X connect 34 1 30 1;
#X connect 34 2 60 0;
#X connect 36 0 27 0;
#X connect 37 0 30 0;
#X connect 38 0 27 0;
#X connect 39 0 30 0;
#X connect 40 0 37 0;
#X connect 40 1 39 0;
#X connect 40 2 41 0;
#X connect 40 3 42 0;
#X connect 41 0 30 0;
#X connect 42 0 30 0;
#X connect 43 0 44 0;
#X connect 44 0 29 0;
#X connect 44 1 40 1;
#X connect 45 0 14 0;
#X connect 47 0 49 0;
#X connect 55 0 57 0;
#X connect 55 0 56 0;
#X connect 60 0 51 0;
#X connect 60 0 107 0;
#X connect 62 0 29 0;
#X connect 64 0 65 0;
#X connect 65 0 66 0;
#X connect 68 0 70 0;
#X connect 68 1 71 0;
#X connect 68 2 73 0;
#X connect 68 3 74 0;
#X connect 68 4 75 0;
#X connect 68 5 76 0;
#X connect 68 6 77 0;
#X connect 68 7 79 0;
#X connect 68 8 78 0;
#X connect 68 9 80 0;
#X connect 68 10 81 0;
#X connect 68 11 82 0;
#X connect 69 0 68 0;
#X connect 70 0 72 0;
#X connect 71 0 72 0;
#X connect 72 0 84 0;
#X connect 72 0 85 0;
#X connect 73 0 72 0;
#X connect 74 0 72 0;
#X connect 75 0 72 0;
#X connect 76 0 72 0;
#X connect 77 0 72 0;
#X connect 78 0 72 0;
#X connect 79 0 72 0;
#X connect 80 0 72 0;
#X connect 81 0 72 0;
#X connect 82 0 72 0;
#X connect 83 0 69 0;
#X connect 86 0 87 0;
#X connect 88 0 89 0;
#X connect 90 0 91 0;
#X connect 90 0 93 0;
#X connect 99 0 102 0;
#X connect 100 0 99 0;
#X connect 101 0 100 0;
#X connect 103 0 104 0;
#X connect 104 0 105 0;
#X connect 105 0 106 0;
#X connect 106 0 107 0;
#X connect 108 0 116 0;
#X connect 108 0 117 0;
#X connect 115 0 108 0;
#X connect 117 0 118 0;
#X connect 120 0 103 0;
#X connect 122 0 120 0;
#X coords 0 0 1 1 202 250 1 0 0;
