#N canvas 112 447 250 258 10;
#X obj 25 27 KEP/KEP;
#X obj 142 102 s FRAISEUSB-on;
#X obj 142 83 tgl 15 0 empty empty empty 17 7 0 10 -262144 -1 -1 0
1;
#X obj 142 14 loadbang;
#X msg 142 63 0;
#X obj 142 36 del 500;
#X connect 2 0 1 0;
#X connect 3 0 5 0;
#X connect 4 0 2 0;
#X connect 5 0 4 0;
#X coords 0 258 1 257 250 150 0;
