#N canvas 395 433 492 300 10;
#X text 22 5 block_common \$0 \$1 \$2 \$3 Seq Track;
#X text 21 17 \$0=block \$1=parent \$2=apname \$3=Seq_owner;
#X msg 22 150 0;
#X obj 22 56 tlLinkAp \$4 \$5 \$6 \$1;
#X obj 21 180 s \$1-mode-rcv;
#X obj 174 79 sel 0;
#X msg 174 102 rien;
#X msg 193 198 label Mode:\$1;
#X obj 193 177 symbol;
#X obj 379 149 symbol;
#X obj 328 73 route _all_;
#X obj 328 93 route store;
#X obj 328 116 t b f;
#X obj 328 136 del 10;
#X obj 328 156 f;
#X msg 328 197 \$3 ev \$1 name \$2;
#X obj 298 120 bng 15 250 50 0 empty empty empty 17 7 0 10 -262144
-1 -1;
#X obj 304 86 bng 15 250 50 0 empty empty empty 17 7 0 10 -262144 -1
-1;
#X obj 174 56 r \$1-mode-snd;
#X obj 193 153 r \$1-modename;
#X obj 193 222 s \$1-mode-rcv;
#X obj 328 53 r \$1-pattern-snd;
#X obj 379 128 r \$1-modename;
#X obj 328 176 pack f s \$6;
#X obj 328 223 s \$4-song-\$5-rcv;
#X obj 174 124 s \$1-modename;
#X obj 22 80 unwonk f;
#X obj 22 128 sel -1;
#X obj 22 105 change;
#X obj 93 96 route -1;
#X obj 112 125 s \$1-tlev;
#X obj 23 246 apf \$1 mode \$1-mode 0 1;
#X obj 22 203 apsubmaster \$1 \$2 \$3;
#X obj 22 224 apsubmaster \$1var \$2 \$3var;
#X obj 72 148 s \$1-outside;
#X obj 72 128 == -1;
#X symbolatom 394 255 10 0 0 0 - - -;
#X connect 3 0 26 0;
#X connect 3 0 29 0;
#X connect 5 0 6 0;
#X connect 6 0 25 0;
#X connect 7 0 20 0;
#X connect 8 0 7 0;
#X connect 9 0 23 1;
#X connect 9 0 36 0;
#X connect 10 0 11 0;
#X connect 11 0 12 0;
#X connect 11 0 16 0;
#X connect 12 0 13 0;
#X connect 12 1 14 1;
#X connect 13 0 14 0;
#X connect 14 0 23 0;
#X connect 15 0 24 0;
#X connect 19 0 8 0;
#X connect 21 0 10 0;
#X connect 21 0 17 0;
#X connect 22 0 9 0;
#X connect 23 0 15 0;
#X connect 26 0 28 0;
#X connect 26 0 35 0;
#X connect 27 0 2 0;
#X connect 28 0 27 0;
#X connect 29 1 30 0;
#X connect 35 0 34 0;
