#N canvas 41 71 315 302 10;
#X obj 164 37 cursor;
#X obj 164 15 init 1;
#X obj 191 217 s Mouse;
#X obj 164 -7 bng 15 250 50 0 empty empty empty 17 7 0 10 -262144 -1
-1;
#X obj 92 82 route motion;
#X obj 92 105 route x y;
#X obj 92 130 t f f;
#X obj 92 151 -;
#X obj 164 57 t a a;
#X obj 130 129 t f f;
#X obj 130 150 -;
#X msg 92 199 motion dx \$1;
#X msg 130 172 motion dy \$1;
#X connect 0 0 8 0;
#X connect 1 0 0 0;
#X connect 3 0 1 0;
#X connect 4 0 5 0;
#X connect 5 0 6 0;
#X connect 5 1 9 0;
#X connect 6 0 7 1;
#X connect 6 1 7 0;
#X connect 7 0 11 0;
#X connect 8 0 4 0;
#X connect 8 1 2 0;
#X connect 9 0 10 1;
#X connect 9 1 10 0;
#X connect 10 0 12 0;
#X connect 11 0 2 0;
#X connect 12 0 2 0;
