#N canvas 290 39 878 679 10;
#X obj 61 22 cnv 15 600 15 \$0-bgcan-snd \$0-bgcan-rcv empty 20 12
0 14 -262144 -66577 0;
#X obj 74 150 s \$0-bgcan-rcv;
#X obj 74 174 r \$0-bgcan-snd;
#X msg 74 131 get_pos;
#X obj 367 141 t f b;
#X obj 394 163 v \$1-songlen;
#X obj 367 95 r \$1-z-snd;
#X obj 367 163 *;
#X obj 74 91 loadbang;
#X obj 74 111 b;
#X obj 367 304 /;
#X obj 367 193 t b f;
#X obj 367 283 *;
#X obj 367 376 s \$0-scroll-rcv;
#X obj 367 328 max 5;
#X obj 1 243 r Mouse;
#X obj 1 269 route motion button;
#X obj 1 322 route dx dy;
#X obj 1 292 spigot;
#X msg 142 269 1;
#X msg 78 357 0;
#X obj 78 337 t b b;
#X obj 1 368 /;
#X obj 1 503 t b f;
#X obj 1 452 +;
#X obj 28 453 f;
#X obj 78 315 sel 0 1;
#X obj 52 293 tgl 15 0 empty empty empty 17 7 0 10 -262144 -1 -1 0
1;
#X obj 78 293 route 1 2;
#X obj 74 197 s \$0-canpos;
#X obj 5 185 s \$0-canw;
#X obj 51 92 bng 15 250 50 0 empty empty empty 17 7 0 10 -262144 -1
-1;
#X obj 1 482 clip 0 1;
#X obj 120 338 r \$1-s-snd;
#X obj 105 361 f;
#X obj 30 378 r \$1-z-snd;
#X obj 255 150 r \$1-s-snd;
#X obj 419 196 r \$0-canw;
#X obj 367 238 f;
#X obj 367 261 t f f;
#X obj 436 251 -;
#X obj 436 272 * -1;
#X obj 255 210 *;
#X obj 179 81 r \$0-canpos;
#X obj 179 102 unpack f f;
#X msg 255 343 pos \$1 \$2;
#X obj 1 429 / 1000;
#X msg 367 351 size \$1 15;
#X obj 64 22 hsl 297 15 0 1 0 0 \$0-scrollbg-snd \$0-scrollbg-rcv empty
-2 7 1 8 -228856 -228856 -1 600 0;
#X obj 61 22 hsl 5 15 0 128 0 0 \$0-scroll-snd \$0-scroll-rcv empty
-2 7 1 8 -33289 -33289 -1 0 0;
#X obj 21 22 cnv 15 38 15 empty \$0-namecan-rcv scroll 3 9 0 10 -262144
-1 0;
#X obj 142 224 r \$0-scrollbg-snd;
#X obj 271 183 t b f;
#X obj 5 165 300;
#X obj 406 22 hsl 290 15 0.25 1000 1 0 \$1-z-snd \$1-z-rcv zoom -28
9 0 10 -261682 -1 -1 12800 1;
#X obj 255 299 + 61;
#X obj 28 526 s \$1-s-snd;
#X obj 62 38 hsl 300 15 0 1 0 0 \$0-ibg-snd \$0-ibg-rcv empty -33 7
0 10 -191407 -1 -1 14950 0;
#X obj 367 38 tgl 15 0 \$1-lockstoi-snd \$1-lockstoi-rcv follow 17
7 0 10 -262144 -1 -1 0 1;
#X obj 228 176 bng 15 250 50 0 empty empty empty 17 7 0 10 -262144
-1 -1;
#X floatatom 225 124 5 0 0 0 - - -;
#X floatatom 171 129 5 0 0 0 - - -;
#X obj 255 320 pack f 22;
#X obj 62 38 hsl 300 15 0 1 0 0 \$1-i-snd \$1-i-rcv index -33 7 0 10
-99865 -258113 -1 66 1;
#X obj 666 99 r \$0-ibg-snd;
#X obj 666 126 t b f f;
#X obj 706 224 - 0.5;
#X obj 613 239 s \$0-ibg-rcv;
#X msg 613 217 set 0.5;
#X obj 613 183 loadbang;
#X obj 706 550 s \$1-i-rcv;
#X obj 706 286 +;
#X obj 768 207 r \$1-z-snd;
#X obj 706 265 / 0.01;
#X msg 706 527 set \$1;
#X obj 717 501 s \$1-i-snd;
#X obj 782 259 r \$1-i-snd;
#X obj 520 98 r Mouse;
#X obj 521 139 route 1 2;
#X obj 530 170 tgl 15 0 empty empty empty 17 7 0 10 -262144 -1 -1 0
1;
#X obj 520 119 route button;
#X obj 530 190 sel 0;
#X obj 530 263 tgl 15 0 empty empty empty 17 7 0 10 -262144 -1 -1 0
1;
#X msg 530 217 0;
#X obj 530 242 change;
#X msg 559 217 1;
#X obj 706 476 clip 0 1;
#X obj 705 160 spigot;
#X obj 530 295 sel 1 0;
#X obj 530 343 del 250;
#X obj 530 318 t b b b;
#X msg 530 364 0;
#X msg 557 364 1;
#X obj 545 396 spigot;
#X obj 544 419 bng 15 250 50 0 empty empty empty 17 7 0 10 -262144
-1 -1;
#X obj 589 438 f;
#X floatatom 591 461 5 0 0 0 - - -;
#X obj 561 485 s \$1-i-rcv;
#X obj 768 232 * 8;
#X obj 367 118 / 2;
#X obj 199 370 sel 1 0;
#X obj 199 418 del 250;
#X obj 199 393 t b b b;
#X msg 199 439 0;
#X msg 226 439 1;
#X obj 214 471 spigot;
#X obj 213 494 bng 15 250 50 0 empty empty empty 17 7 0 10 -262144
-1 -1;
#X obj 234 496 f;
#X obj 142 249 t b f;
#X obj 199 346 change;
#X obj 234 527 s \$1-s-snd;
#X floatatom 189 545 5 0 0 0 - - -;
#X floatatom 202 280 5 0 0 0 - - -;
#X msg 447 101 1;
#X obj 447 60 loadbang;
#X obj 447 79 del 100;
#X floatatom 654 362 5 0 0 0 - - -;
#N canvas 1 29 408 378 snap 0;
#X obj 82 109 inlet;
#X obj 82 355 outlet;
#X obj 82 239 demux 0 1;
#X obj 133 262 * 4;
#X obj 133 307 i;
#X obj 133 331 / 4;
#X obj 148 130 route snap;
#X obj 148 153 t f f;
#X obj 133 179 != 0;
#X msg 230 128 0;
#X msg 308 126 4;
#X obj 133 283 + 0.5;
#X msg 264 126 1;
#X obj 176 216 t b f;
#X obj 133 217 * 1;
#X obj 196 167 r \$0-isshift;
#X obj 182 195 == 0;
#X obj 145 66 route -1;
#X obj 149 108 route -1;
#X obj 148 88 route ev;
#X obj 144 39 r \$1-tr-rcv;
#X connect 0 0 2 0;
#X connect 2 0 1 0;
#X connect 2 1 3 0;
#X connect 3 0 11 0;
#X connect 4 0 5 0;
#X connect 5 0 1 0;
#X connect 6 0 7 0;
#X connect 7 0 8 0;
#X connect 7 1 3 1;
#X connect 7 1 5 1;
#X connect 8 0 14 0;
#X connect 9 0 7 0;
#X connect 10 0 7 0;
#X connect 11 0 4 0;
#X connect 12 0 7 0;
#X connect 13 0 14 0;
#X connect 13 1 14 1;
#X connect 14 0 2 1;
#X connect 16 0 13 0;
#X connect 17 0 19 0;
#X connect 18 0 6 0;
#X connect 19 0 18 0;
#X connect 20 0 17 0;
#X restore 721 388 pd snap;
#X obj 776 343 v \$1-songlen;
#X obj 721 410 /;
#X obj 721 366 *;
#X obj 739 135 t f f;
#X obj 765 156 sel 1;
#X obj 767 284 f;
#X obj 736 286 f;
#X connect 2 0 29 0;
#X connect 3 0 1 0;
#X connect 4 0 7 0;
#X connect 4 1 5 0;
#X connect 5 0 7 1;
#X connect 6 0 99 0;
#X connect 7 0 11 0;
#X connect 8 0 9 0;
#X connect 9 0 3 0;
#X connect 9 0 53 0;
#X connect 10 0 14 0;
#X connect 11 0 38 0;
#X connect 11 1 10 1;
#X connect 12 0 10 0;
#X connect 14 0 47 0;
#X connect 14 0 40 0;
#X connect 15 0 16 0;
#X connect 16 0 18 0;
#X connect 16 1 28 0;
#X connect 17 0 22 0;
#X connect 18 0 17 0;
#X connect 19 0 27 0;
#X connect 20 0 27 0;
#X connect 21 0 20 0;
#X connect 21 1 34 0;
#X connect 22 0 46 0;
#X connect 23 1 56 0;
#X connect 24 0 25 0;
#X connect 24 0 32 0;
#X connect 25 0 24 1;
#X connect 26 0 21 0;
#X connect 27 0 18 1;
#X connect 27 0 109 0;
#X connect 28 0 26 0;
#X connect 28 1 26 0;
#X connect 31 0 9 0;
#X connect 32 0 23 0;
#X connect 33 0 34 1;
#X connect 34 0 25 0;
#X connect 35 0 22 1;
#X connect 36 0 42 0;
#X connect 37 0 38 1;
#X connect 37 0 40 1;
#X connect 38 0 39 0;
#X connect 39 0 12 0;
#X connect 39 1 12 1;
#X connect 40 0 41 0;
#X connect 41 0 52 0;
#X connect 42 0 55 0;
#X connect 43 0 44 0;
#X connect 44 0 61 0;
#X connect 44 1 60 0;
#X connect 45 0 13 0;
#X connect 46 0 24 0;
#X connect 47 0 13 0;
#X connect 51 0 108 0;
#X connect 52 0 42 0;
#X connect 52 1 42 1;
#X connect 53 0 30 0;
#X connect 55 0 62 0;
#X connect 62 0 45 0;
#X connect 64 0 65 0;
#X connect 65 0 68 0;
#X connect 65 0 85 0;
#X connect 65 1 95 1;
#X connect 65 2 87 0;
#X connect 66 0 73 0;
#X connect 68 0 67 0;
#X connect 69 0 68 0;
#X connect 71 0 120 0;
#X connect 71 0 124 0;
#X connect 72 0 98 0;
#X connect 73 0 71 0;
#X connect 74 0 70 0;
#X connect 76 0 123 1;
#X connect 77 0 80 0;
#X connect 78 0 79 0;
#X connect 78 1 79 0;
#X connect 79 0 81 0;
#X connect 80 0 78 0;
#X connect 81 0 83 0;
#X connect 82 0 88 0;
#X connect 82 0 121 0;
#X connect 83 0 84 0;
#X connect 84 0 82 0;
#X connect 85 0 84 0;
#X connect 86 0 75 0;
#X connect 86 0 74 0;
#X connect 86 0 116 0;
#X connect 87 0 66 0;
#X connect 88 0 90 0;
#X connect 89 0 91 0;
#X connect 90 0 89 0;
#X connect 90 1 92 0;
#X connect 90 2 93 0;
#X connect 91 0 93 1;
#X connect 92 0 93 1;
#X connect 93 0 94 0;
#X connect 93 0 95 0;
#X connect 95 0 96 0;
#X connect 95 0 97 0;
#X connect 98 0 73 1;
#X connect 99 0 4 0;
#X connect 100 0 102 0;
#X connect 101 0 103 0;
#X connect 102 0 101 0;
#X connect 102 1 104 0;
#X connect 102 2 105 0;
#X connect 103 0 105 1;
#X connect 104 0 105 1;
#X connect 105 0 106 0;
#X connect 105 0 107 0;
#X connect 107 0 111 0;
#X connect 107 0 110 0;
#X connect 108 0 19 0;
#X connect 108 1 107 1;
#X connect 108 1 112 0;
#X connect 109 0 100 0;
#X connect 113 0 54 0;
#X connect 114 0 115 0;
#X connect 115 0 113 0;
#X connect 117 0 119 0;
#X connect 118 0 120 1;
#X connect 118 0 119 1;
#X connect 119 0 86 0;
#X connect 120 0 117 0;
#X connect 121 0 87 1;
#X connect 121 1 122 0;
#X connect 122 0 118 0;
#X connect 122 0 123 0;
#X connect 123 0 124 0;
#X connect 124 0 71 1;
#X coords 0 -1 1 1 699 35 1 20 20;
