#N canvas 63 129 752 269 10;
#X obj 127 192 s \$0-bgcan-rcv;
#X obj 127 216 r \$0-bgcan-snd;
#X msg 127 173 get_pos;
#X obj 127 133 loadbang;
#X obj 127 153 b;
#X obj 127 239 s \$0-canpos;
#X obj 58 227 s \$0-canw;
#X obj 104 134 bng 15 250 50 0 empty empty empty 17 7 0 10 -262144
-1 -1;
#X obj 232 123 r \$0-canpos;
#X obj 232 144 unpack f f;
#X floatatom 278 166 5 0 0 0 - - -;
#X floatatom 224 171 5 0 0 0 - - -;
#X obj 91 21 cnv 15 600 18 \$0-bgcan-snd \$0-bgcan-rcv empty 20 12
0 14 -66577 -262081 0;
#X obj 58 207 600;
#X msg 35 155 pos 91 21;
#N canvas 761 73 775 546 division 0;
#X obj 178 -128 r \$1-z-snd;
#X obj 67 -122 r \$0-canw;
#X obj 77 -69 /;
#X obj 77 -92 t b f;
#X floatatom 27 -15 5 0 0 0 - - -;
#X obj 36 -145 bng 15 250 50 0 empty empty empty 17 7 0 10 -262144
-1 -1;
#X obj 77 106 drip;
#X obj 77 136 spigot;
#X obj 77 7 t b f b;
#X msg 122 135 1;
#X obj 77 158 moses;
#X obj 104 180 t f b;
#X msg 121 158 0;
#X floatatom 104 225 5 0 0 0 - - -;
#X obj 104 245 s \$0-div;
#X obj 104 204 change;
#X obj 641 -52 r \$0-div;
#X obj 597 -31 f;
#X obj 641 -30 t b f;
#X obj 597 49 * 100;
#X obj 597 75 div;
#X obj 570 -146 r \$1-tr-rcv;
#X obj 570 -123 route s;
#X obj 681 31 * 100;
#X obj 615 109 + 1;
#X floatatom 615 154 5 0 0 0 - - -;
#X obj 636 74 div;
#X obj 615 133 *;
#X obj 597 23 demux;
#X obj 624 0 >= 1;
#X obj 615 177 s \$0-first;
#X obj 570 -51 t f f;
#X obj 452 16 for++ 0 10;
#X obj 452 83 *;
#X obj 492 58 r \$0-div;
#X obj 453 105 +;
#X obj 493 83 r \$0-first;
#X obj 453 189 *;
#X obj 495 157 r \$1-z-snd;
#X obj 453 165 -;
#X obj 452 -7 t b f;
#X obj 452 36 t f f;
#X obj 480 189 makesymbol \$0-n%s-rcv;
#X obj 454 258 moses 595;
#X obj 453 212 t f b;
#X obj 480 232 v \$1-xl;
#X obj 533 229 v \$1-xr;
#X obj 454 233 +;
#X obj 533 250 - 5;
#X obj 474 -146 r \$1-z-snd;
#X obj 498 -117 b;
#X obj 453 131 t f f;
#X obj 454 309 pack f s s;
#N canvas 622 399 707 534 label 0;
#X obj 160 21 inlet;
#X obj 533 74 t f f f;
#X obj 81 106 div 3600;
#X obj 99 79 div 60;
#X obj 219 179 fmod 1;
#X obj 219 156 t f f;
#X obj 283 181 mod 60;
#X floatatom 179 104 8 0 0 0 - - -;
#X obj 283 156 t f f;
#X obj 330 136 div 60;
#X obj 330 181 mod 60;
#X obj 330 156 t f f;
#X obj 374 181 div 60;
#X obj 283 136 i;
#X obj 118 151 moses 1;
#X obj 224 360 pack s s s s;
#X obj 374 202 sel 0;
#X msg 374 227 symbol;
#X msg 401 252 symbol \$1h;
#X obj 306 238 sel 0;
#X msg 306 263 symbol;
#X msg 333 288 symbol \$1m;
#X obj 221 249 sel 0;
#X msg 221 274 symbol;
#X msg 248 299 symbol \$1s;
#X obj 62 283 sel 0;
#X msg 62 308 symbol;
#X msg 224 383 list \$4 \$3 \$2 \$1;
#X obj 224 407 l2s;
#X obj 274 430 symbol;
#X obj 404 361 bng 15 250 50 0 empty empty empty 17 7 0 10 -262144
-1 -1;
#X obj 183 79 bng 15 250 50 0 empty empty empty 17 7 0 10 -262144 -1
-1;
#X msg 263 88 5.5;
#X obj 224 444 outlet;
#X obj 351 358 loadbang;
#X obj 62 214 * 10;
#X obj 94 386 makefilename %.2d;
#X floatatom 100 53 8 0 0 0 - - -;
#X obj 62 238 + 0.5;
#X obj 262 248 f;
#X obj 109 276 t f b;
#X obj 62 261 i;
#X obj 115 307 makesymbol;
#X obj 601 69 * 8;
#X obj 665 83 i;
#X obj 665 107 sel 0;
#X obj 647 135 symbol;
#X msg 632 244 symbol .\$1;
#X obj 618 143 + 1;
#X obj 621 101 mod 8;
#X msg 618 270 symbol .\$1;
#X obj 550 152 + 1;
#X obj 485 124 div 4;
#X obj 511 186 pack f f f;
#X msg 478 407 symbol \$1|\$2.\$3;
#X obj 584 196 mod 4;
#X obj 550 129 mod 4;
#X obj 538 224 r \$0-div;
#X obj 511 276 demux;
#X msg 538 354 symbol \$1|\$2;
#X obj 538 300 demux;
#X obj 565 279 >= 4;
#X msg 565 325 symbol \$1|;
#X msg 454 27 3;
#X obj 467 83 f;
#X msg 482 27 4;
#X obj 511 163 + 1;
#X obj 519 28 r \$1-mes;
#X obj 538 248 >= 1;
#X connect 0 0 1 0;
#X connect 1 0 52 0;
#X connect 1 1 56 0;
#X connect 1 2 43 0;
#X connect 4 0 35 0;
#X connect 5 0 4 0;
#X connect 5 1 13 0;
#X connect 6 0 22 0;
#X connect 6 0 39 1;
#X connect 7 0 5 0;
#X connect 8 0 6 0;
#X connect 8 1 9 0;
#X connect 9 0 11 0;
#X connect 10 0 19 0;
#X connect 11 0 10 0;
#X connect 11 1 12 0;
#X connect 12 0 16 0;
#X connect 13 0 8 0;
#X connect 15 0 27 0;
#X connect 16 0 17 0;
#X connect 16 1 18 0;
#X connect 17 0 15 3;
#X connect 18 0 15 3;
#X connect 19 0 20 0;
#X connect 19 1 21 0;
#X connect 20 0 15 2;
#X connect 21 0 15 2;
#X connect 22 0 23 0;
#X connect 22 1 24 0;
#X connect 23 0 15 1;
#X connect 24 0 15 1;
#X connect 25 0 26 0;
#X connect 25 1 40 0;
#X connect 26 0 15 0;
#X connect 27 0 28 0;
#X connect 28 0 33 0;
#X connect 29 0 28 1;
#X connect 30 0 29 0;
#X connect 31 0 7 0;
#X connect 32 0 5 0;
#X connect 34 0 29 0;
#X connect 35 0 38 0;
#X connect 38 0 41 0;
#X connect 39 0 24 0;
#X connect 40 0 42 0;
#X connect 40 1 39 0;
#X connect 41 0 25 0;
#X connect 42 0 15 0;
#X connect 43 0 49 0;
#X connect 44 0 45 0;
#X connect 45 0 46 0;
#X connect 48 0 53 2;
#X connect 49 0 48 0;
#X connect 51 0 53 1;
#X connect 52 0 66 0;
#X connect 53 0 58 0;
#X connect 54 0 33 0;
#X connect 56 0 51 0;
#X connect 57 0 61 0;
#X connect 57 0 68 0;
#X connect 58 0 54 0;
#X connect 58 1 60 0;
#X connect 59 0 33 0;
#X connect 60 0 59 0;
#X connect 60 1 62 0;
#X connect 61 0 60 1;
#X connect 62 0 33 0;
#X connect 63 0 64 0;
#X connect 64 0 52 1;
#X connect 64 0 56 1;
#X connect 65 0 64 0;
#X connect 66 0 53 0;
#X connect 67 0 64 0;
#X connect 67 0 61 1;
#X connect 68 0 58 1;
#X restore 542 280 pd label;
#X msg 505 280 40;
#X obj 529 338 spigot;
#X msg 564 310 0;
#X msg 429 355 \; \$2 pos \$1 20;
#X msg 529 364 \; \$2 label \$3;
#X obj 623 214 r \$0-first;
#X obj 623 234 change;
#X obj 632 259 r \$0-div;
#X obj 632 279 change;
#X msg 623 308 1;
#X obj 440 -93 bng 15 250 50 0 empty empty empty 17 7 0 10 -262144
-1 -1;
#X obj 535 -88 f;
#X obj 570 -78 speedlim 100;
#X floatatom 386 289 5 0 0 0 - - -;
#X obj 178 -106 t f f;
#X msg 57 322 0.125 0.5 2 4 8 16 32 64 128 256 512 1024 2048 4096;
#X msg 42 274 0.125 0.25 0.5 1 2 4 8 16 32 64 128 256 512 1024 2048
4096;
#X msg 77 69 0.125 0.25 0.5 1 2 4 8 16 32 64 128 256 512 1024 2048
4096;
#X obj 77 35 demux;
#X msg 115 42 0.125 0.25 0.5 1 3 6 12 24 48 92 184 368 736 1472 2944
;
#X obj 177 -9 tgl 15 0 empty empty empty 17 7 0 10 -262144 -1 -1 1
1;
#X msg 215 6 1;
#X msg 249 6 0;
#X obj 213 -26 route 3 6 12;
#X obj 317 -117 b;
#X obj 317 -92 del 1;
#X obj 213 -51 r \$1-mes;
#X obj 317 -138 r \$1-mes;
#X obj 78 -45 change;
#X msg 137 -52 set -1;
#X obj 317 -73 t b b b;
#X floatatom 646 -98 5 0 0 0 - - -;
#X obj 77 -23 / 11;
#X connect 0 0 68 0;
#X connect 1 0 2 0;
#X connect 2 0 82 0;
#X connect 3 0 2 0;
#X connect 3 1 2 1;
#X connect 5 0 2 0;
#X connect 6 0 7 0;
#X connect 7 0 10 0;
#X connect 8 0 72 0;
#X connect 8 1 10 1;
#X connect 8 2 9 0;
#X connect 9 0 7 1;
#X connect 10 1 11 0;
#X connect 11 0 15 0;
#X connect 11 1 12 0;
#X connect 12 0 7 1;
#X connect 13 0 14 0;
#X connect 15 0 13 0;
#X connect 16 0 18 0;
#X connect 17 0 28 0;
#X connect 18 0 17 0;
#X connect 18 1 23 0;
#X connect 18 1 26 1;
#X connect 18 1 27 1;
#X connect 18 1 29 0;
#X connect 19 0 20 0;
#X connect 20 0 24 0;
#X connect 21 0 22 0;
#X connect 22 0 65 0;
#X connect 23 0 20 1;
#X connect 24 0 27 0;
#X connect 25 0 30 0;
#X connect 26 0 24 0;
#X connect 27 0 25 0;
#X connect 28 0 19 0;
#X connect 28 1 26 0;
#X connect 29 0 28 1;
#X connect 31 0 40 0;
#X connect 31 1 17 0;
#X connect 32 0 41 0;
#X connect 32 1 56 0;
#X connect 33 0 35 0;
#X connect 34 0 33 1;
#X connect 35 0 51 0;
#X connect 36 0 35 1;
#X connect 37 0 44 0;
#X connect 38 0 37 1;
#X connect 39 0 37 0;
#X connect 40 0 32 0;
#X connect 40 1 39 1;
#X connect 41 0 33 0;
#X connect 41 1 42 0;
#X connect 42 0 52 1;
#X connect 43 0 52 0;
#X connect 43 1 54 0;
#X connect 44 0 47 0;
#X connect 44 1 45 0;
#X connect 44 1 46 0;
#X connect 45 0 47 1;
#X connect 46 0 48 0;
#X connect 47 0 43 0;
#X connect 48 0 43 1;
#X connect 50 0 65 0;
#X connect 51 0 39 0;
#X connect 51 1 53 0;
#X connect 52 0 57 0;
#X connect 52 0 55 0;
#X connect 53 0 52 2;
#X connect 54 0 52 0;
#X connect 55 0 58 0;
#X connect 56 0 55 1;
#X connect 59 0 60 0;
#X connect 60 0 63 0;
#X connect 61 0 62 0;
#X connect 62 0 63 0;
#X connect 63 0 55 1;
#X connect 64 0 65 0;
#X connect 65 0 66 0;
#X connect 66 0 31 0;
#X connect 68 0 50 0;
#X connect 68 1 3 0;
#X connect 71 0 6 0;
#X connect 72 0 71 0;
#X connect 72 1 73 0;
#X connect 73 0 6 0;
#X connect 74 0 72 1;
#X connect 75 0 74 0;
#X connect 76 0 74 0;
#X connect 77 0 75 0;
#X connect 77 1 75 0;
#X connect 77 2 75 0;
#X connect 77 3 76 0;
#X connect 78 0 79 0;
#X connect 79 0 84 0;
#X connect 80 0 77 0;
#X connect 81 0 78 0;
#X connect 82 0 86 0;
#X connect 83 0 82 0;
#X connect 84 0 50 0;
#X connect 84 1 2 0;
#X connect 84 2 83 0;
#X connect 86 0 4 0;
#X connect 86 0 8 0;
#X restore 47 58 pd division;
#N canvas 39 291 438 442 MakeEvents 0;
#X obj 49 32 bng 15 250 50 0 empty empty empty 17 7 0 10 -262144 -1
-1;
#X obj 48 194 bng 15 250 50 0 empty empty empty 17 7 0 10 -262144 -1
-1;
#X obj 108 259 makesymbol $;
#X obj 108 278 makesymbol %s0;
#X obj 108 237 loadbang;
#X obj 166 238 bng 15 250 50 0 empty empty empty 17 7 0 10 -262144
-1 -1;
#X obj 48 241 f;
#X obj 48 280 pack f s;
#X obj 48 386 s \$0-can;
#X obj 49 11 inlet;
#X obj 50 78 makesymbol \$0-n%s-rcv;
#X obj 48 218 for++ 0 10 1;
#X obj 50 56 for++ 0 10;
#X obj 279 154 cnv 15 100 60 empty empty empty 20 12 0 14 -233017 -66577
0;
#X obj 282 76 hsl 128 15 0 127 0 0 empty empty empty -2 -8 0 10 -262144
-1 -1 0 1;
#X msg 51 125 \; \$1 pos 150 20;
#X msg 48 316 obj 150 20 cnv 2 2 10 empty \$2-n\$1-rcv 1h -10 15 0
10 -1 -66577 0;
#X msg 159 111 \; \$1 color 0 0;
#X connect 0 0 12 0;
#X connect 1 0 11 0;
#X connect 2 0 3 0;
#X connect 3 0 7 1;
#X connect 4 0 2 0;
#X connect 5 0 2 0;
#X connect 6 0 7 0;
#X connect 7 0 16 0;
#X connect 9 0 0 0;
#X connect 10 0 15 0;
#X connect 10 0 17 0;
#X connect 11 0 6 0;
#X connect 12 0 10 0;
#X connect 16 0 8 0;
#X restore 46 102 pd MakeEvents;
#X obj 492 88 namecanvas \$0-can;
#X obj 45 80 bng 15 250 50 0 empty empty empty 17 7 0 10 -262144 -1
-1;
#X obj 122 20 cnv 2 2 10 empty \$0-n0-rcv 1057| -10 15 0 10 -262144
-262144 0;
#X obj 177 20 cnv 2 2 10 empty \$0-n1-rcv 1061| -10 15 0 10 -262144
-262144 0;
#X obj 232 20 cnv 2 2 10 empty \$0-n2-rcv 1065| -10 15 0 10 -262144
-262144 0;
#X obj 287 20 cnv 2 2 10 empty \$0-n3-rcv 1069| -10 15 0 10 -262144
-262144 0;
#X obj 342 20 cnv 2 2 10 empty \$0-n4-rcv 1073| -10 15 0 10 -262144
-262144 0;
#X obj 397 20 cnv 2 2 10 empty \$0-n5-rcv 1077| -10 15 0 10 -262144
-262144 0;
#X obj 452 20 cnv 2 2 10 empty \$0-n6-rcv 1081| -10 15 0 10 -262144
-262144 0;
#X obj 507 20 cnv 2 2 10 empty \$0-n7-rcv 1085| -10 15 0 10 -262144
-262144 0;
#X obj 561 20 cnv 2 2 10 empty \$0-n8-rcv 1089| -10 15 0 10 -262144
-262144 0;
#X obj 616 20 cnv 2 2 10 empty \$0-n9-rcv 1093| -10 15 0 10 -262144
-262144 0;
#X obj 671 20 cnv 2 2 10 empty \$0-n10-rcv 1097| -10 15 0 10 -262144
-262144 0;
#X obj 690 21 cnv 10 20 18 empty \$0-numcan-rcv empty 5 10 0 12 -262144
-262144 0;
#X obj 21 21 cnv 15 70 18 empty \$0-namecan-rcv empty 12 10 0 12 -262144
-1 0;
#X connect 1 0 5 0;
#X connect 2 0 0 0;
#X connect 3 0 4 0;
#X connect 4 0 2 0;
#X connect 4 0 13 0;
#X connect 7 0 4 0;
#X connect 8 0 9 0;
#X connect 9 0 11 0;
#X connect 9 1 10 0;
#X connect 13 0 6 0;
#X connect 14 0 0 0;
#X connect 18 0 16 0;
#X coords 0 -1 1 1 700 20 1 20 20;
