#N canvas 571 199 696 378 10;
#X obj 139 84 v \$0-t;
#X obj 139 103 v \$0-l;
#X text 180 84 event start time;
#X text 180 103 event len;
#N canvas 687 53 544 680 mouse/key 0;
#X obj 175 1 r \$1-e\$2-snd;
#X obj 34 3 r Mouse;
#X obj 34 54 route motion button;
#X obj 34 139 route dx dy;
#X obj 34 99 spigot;
#X msg 175 76 1;
#X msg 144 152 0;
#X obj 358 13 keyname;
#X obj 358 37 pack f s;
#X obj 358 79 route Shift_L Shift_R;
#X obj 358 107 tgl 15 0 empty empty empty 17 7 0 10 -262144 -1 -1 0
1;
#X msg 358 58 \$2 \$1;
#X obj 145 363 v \$0-t;
#X obj 179 456 max 0;
#X obj 99 653 s \$0-updategui;
#X obj 36 289 /;
#X obj 63 289 v \$1-z;
#X obj 36 267 t f b;
#X obj 76 552 max 0;
#X obj 112 596 v \$0-t;
#X obj 76 573 t b f;
#X obj 179 479 t b f;
#X obj 229 528 v \$0-l;
#X obj 76 452 +;
#X obj 110 453 f;
#X obj 179 406 +;
#X obj 208 405 f;
#X obj 197 362 v \$0-l;
#X obj 189 334 b;
#X obj 266 381 f \$2;
#X obj 34 32 spigot;
#X obj 144 177 tgl 15 0 empty empty empty 17 7 0 10 -262144 -1 -1 0
1;
#X obj 266 359 del 5;
#X obj 144 104 route 1 2;
#X obj 226 549 s \$0-l-rcv;
#X obj 96 615 s \$0-t-rcv;
#X obj 77 32 r \$0-u-snd;
#X obj 340 566 pack f \$2;
#X msg 340 586 l \$2 \$1;
#X obj 340 608 s \$1-events-snd;
#X obj 193 609 pack f \$2;
#X obj 193 651 s \$1-events-snd;
#X msg 193 629 t \$2 \$1;
#X obj 13 102 bng 15 250 50 0 empty empty empty 17 7 0 10 -262144 -1
-1;
#N canvas 1 1065 532 450 where-clicked 1;
#X obj 163 10 inlet;
#X obj 192 96 v \$0-l;
#X obj 163 44 t f b b;
#X obj 207 120 v \$1-z;
#X obj 192 165 *;
#X obj 192 73 t b b;
#X obj 163 215 demux 0 1;
#X obj 214 265 *;
#X obj 247 305 moses 45;
#X obj 198 334 bng 15 250 50 0 empty empty empty 17 7 0 10 -262144
-1 -1;
#X obj 247 333 bng 15 250 50 0 empty empty empty 17 7 0 10 -262144
-1 -1;
#X obj 294 337 bng 15 250 50 0 empty empty empty 17 7 0 10 -262144
-1 -1;
#X msg 166 382 0;
#X msg 224 382 1;
#X msg 304 386 2;
#X obj 224 422 outlet;
#X obj 198 305 moses 3;
#X obj 292 278 - 2;
#X floatatom 99 88 5 0 0 0 - - -;
#X obj 192 144 max 0.0001;
#X obj 192 190 > 4;
#X obj 116 251 moses 128;
#X obj 214 243 maxlib/scale 0 128 0 1;
#X connect 0 0 2 0;
#X connect 0 0 18 0;
#X connect 1 0 19 0;
#X connect 2 0 6 0;
#X connect 2 2 5 0;
#X connect 3 0 4 1;
#X connect 4 0 7 1;
#X connect 4 0 17 0;
#X connect 4 0 20 0;
#X connect 5 0 1 0;
#X connect 5 1 3 0;
#X connect 6 0 21 0;
#X connect 6 1 22 0;
#X connect 7 0 16 0;
#X connect 8 0 10 0;
#X connect 8 0 13 0;
#X connect 8 1 11 0;
#X connect 8 1 14 0;
#X connect 12 0 15 0;
#X connect 13 0 15 0;
#X connect 14 0 15 0;
#X connect 16 0 9 0;
#X connect 16 0 12 0;
#X connect 16 1 8 0;
#X connect 17 0 8 1;
#X connect 19 0 4 0;
#X connect 20 0 6 1;
#X connect 21 0 13 0;
#X connect 21 1 14 0;
#X connect 22 0 7 0;
#X restore 214 47 pd where-clicked;
#X obj 36 347 demux 0 1 2;
#X obj 144 133 sel 0;
#X obj 142 196 change;
#X obj 175 26 t b b f;
#X obj 173 255 f;
#X obj 36 371 t f f;
#X obj 230 304 * -1;
#X obj 36 318 demux 0 1;
#X obj 265 199 demux;
#X obj 266 456 s \$1-events-snd;
#X msg 266 432 select \$1;
#X obj 265 232 t b b;
#X obj 265 340 b;
#X msg 334 431 unsel;
#X obj 437 449 r \$1-events-rcv;
#X obj 437 471 route unsel;
#X msg 437 495 0;
#X obj 437 518 s \$0-select;
#X msg 396 432 1;
#X obj 232 97 r \$0-select;
#X obj 142 219 sel 1 0;
#X obj 365 207 r \$0-select;
#X obj 314 233 demux 0 1;
#X obj 34 183 s \$1-events-snd;
#X msg 34 161 move \$1;
#X obj 34 222 route move;
#X obj 79 244 r \$0-select;
#X obj 34 244 spigot;
#X obj 34 203 r \$1-events-rcv;
#X obj 338 311 f;
#X msg 324 275 1;
#X msg 367 273 0;
#X obj 346 383 demux;
#X obj 358 130 s \$0-isshift;
#X obj 373 359 r \$0-isshift;
#X obj 292 177 r \$0-isshift;
#X obj 101 319 r \$0-isshift;
#X obj 444 381 r \$0-select;
#X obj 393 406 demux 0 1;
#X obj 307 402 t b b;
#X obj 370 466 bng 15 250 50 0 empty empty empty 17 7 0 10 -262144
-1 -1;
#X obj 338 332 sel 1;
#X obj 265 146 t f b;
#X obj 375 309 tgl 15 0 empty empty empty 17 7 0 10 -262144 -1 -1 0
1;
#X obj 390 256 bng 15 250 50 0 empty empty empty 17 7 0 10 -262144
-1 -1;
#X floatatom 39 610 5 0 0 0 - - -;
#N canvas 1 29 408 378 snap 0;
#X obj 95 27 inlet;
#X obj 95 307 outlet;
#X obj 95 157 demux 0 1;
#X obj 146 180 * 4;
#X obj 146 225 i;
#X obj 146 249 / 4;
#X obj 161 27 r \$0-rcv;
#X obj 161 48 route snap;
#X obj 161 71 t f f;
#X obj 146 97 != 0;
#X msg 243 46 0;
#X msg 321 44 4;
#X obj 146 201 + 0.5;
#X msg 277 44 1;
#X obj 189 134 t b f;
#X obj 146 135 * 1;
#X obj 196 92 r \$0-isshift;
#X obj 195 113 == 0;
#X connect 0 0 2 0;
#X connect 2 0 1 0;
#X connect 2 1 3 0;
#X connect 3 0 12 0;
#X connect 4 0 5 0;
#X connect 5 0 1 0;
#X connect 6 0 7 0;
#X connect 7 0 8 0;
#X connect 8 0 9 0;
#X connect 8 1 3 1;
#X connect 8 1 5 1;
#X connect 9 0 15 0;
#X connect 10 0 8 0;
#X connect 11 0 8 0;
#X connect 12 0 4 0;
#X connect 13 0 8 0;
#X connect 14 0 15 0;
#X connect 14 1 15 1;
#X connect 15 0 2 1;
#X connect 16 0 17 0;
#X connect 17 0 14 0;
#X restore 76 476 pd snap;
#X floatatom 310 635 5 0 0 0 - - -;
#X floatatom 25 444 5 0 0 0 - - -;
#X obj 147 460 bng 15 250 50 0 empty empty empty 17 7 0 10 -262144
-1 -1;
#X obj 126 487 v \$0-t;
#X obj 103 517 -;
#X obj 117 540 spigot;
#X obj 155 507 == 0;
#X obj 233 404 +;
#X obj 233 378 * -1;
#X obj 76 496 t f f;
#N canvas 1 29 450 300 snap 0;
#X obj 95 27 inlet;
#X obj 95 268 outlet;
#X obj 95 118 demux 0 1;
#X obj 146 141 * 4;
#X obj 146 186 i;
#X obj 146 210 / 4;
#X obj 161 27 r \$0-rcv;
#X obj 161 48 route snap;
#X obj 161 71 t f f;
#X obj 146 97 != 0;
#X msg 243 46 0;
#X msg 321 44 4;
#X obj 146 162 + 0.5;
#X msg 277 44 1;
#X connect 0 0 2 0;
#X connect 2 0 1 0;
#X connect 2 1 3 0;
#X connect 3 0 12 0;
#X connect 4 0 5 0;
#X connect 5 0 1 0;
#X connect 6 0 7 0;
#X connect 7 0 8 0;
#X connect 8 0 9 0;
#X connect 8 1 3 1;
#X connect 8 1 5 1;
#X connect 9 0 2 1;
#X connect 10 0 8 0;
#X connect 11 0 8 0;
#X connect 12 0 4 0;
#X connect 13 0 8 0;
#X restore 87 371 pd snap;
#N canvas 2 58 450 353 snap 0;
#X obj 95 25 inlet;
#X obj 95 302 outlet;
#X obj 95 118 demux 0 1;
#X obj 146 169 * 4;
#X obj 146 214 i;
#X obj 146 238 / 4;
#X obj 161 27 r \$0-rcv;
#X obj 161 48 route snap;
#X obj 161 71 t f f;
#X obj 146 97 != 0;
#X msg 243 46 0;
#X msg 321 44 4;
#X obj 146 190 + 0.5;
#X msg 277 44 1;
#X obj 146 144 +;
#X obj 223 107 inlet t;
#X obj 146 260 -;
#X connect 0 0 2 0;
#X connect 2 0 1 0;
#X connect 2 1 14 0;
#X connect 3 0 12 0;
#X connect 4 0 5 0;
#X connect 5 0 16 0;
#X connect 6 0 7 0;
#X connect 7 0 8 0;
#X connect 8 0 9 0;
#X connect 8 1 3 1;
#X connect 8 1 5 1;
#X connect 9 0 2 1;
#X connect 10 0 8 0;
#X connect 11 0 8 0;
#X connect 12 0 4 0;
#X connect 13 0 8 0;
#X connect 14 0 3 0;
#X connect 15 0 14 1;
#X connect 15 0 16 1;
#X connect 16 0 1 0;
#X restore 179 431 pd snap;
#X connect 0 0 48 0;
#X connect 1 0 30 0;
#X connect 2 0 4 0;
#X connect 2 1 33 0;
#X connect 3 0 69 0;
#X connect 4 0 3 0;
#X connect 5 0 31 0;
#X connect 6 0 31 0;
#X connect 7 0 8 0;
#X connect 7 1 8 1;
#X connect 8 0 11 0;
#X connect 9 0 10 0;
#X connect 9 1 10 0;
#X connect 10 0 78 0;
#X connect 11 0 9 0;
#X connect 12 0 24 0;
#X connect 12 0 94 0;
#X connect 12 0 103 1;
#X connect 13 0 21 0;
#X connect 15 0 52 0;
#X connect 16 0 15 1;
#X connect 17 0 15 0;
#X connect 17 1 16 0;
#X connect 17 1 76 0;
#X connect 18 0 20 0;
#X connect 20 0 14 0;
#X connect 20 1 19 0;
#X connect 20 1 35 0;
#X connect 20 1 40 0;
#X connect 21 0 14 0;
#X connect 21 1 22 0;
#X connect 21 1 34 0;
#X connect 21 1 37 0;
#X connect 23 0 91 0;
#X connect 23 0 24 0;
#X connect 24 0 23 1;
#X connect 25 0 26 0;
#X connect 25 0 103 0;
#X connect 26 0 25 1;
#X connect 27 0 26 0;
#X connect 27 0 99 1;
#X connect 28 0 27 0;
#X connect 28 0 12 0;
#X connect 28 0 95 0;
#X connect 29 0 55 0;
#X connect 30 0 2 0;
#X connect 31 0 47 0;
#X connect 31 0 4 1;
#X connect 32 0 29 0;
#X connect 33 0 46 0;
#X connect 33 1 46 0;
#X connect 36 0 30 1;
#X connect 37 0 38 0;
#X connect 38 0 39 0;
#X connect 40 0 42 0;
#X connect 42 0 41 0;
#X connect 44 0 49 1;
#X connect 45 0 50 0;
#X connect 45 1 23 0;
#X connect 45 2 25 0;
#X connect 46 0 6 0;
#X connect 47 0 65 0;
#X connect 48 0 5 0;
#X connect 48 2 44 0;
#X connect 49 0 45 1;
#X connect 49 0 53 0;
#X connect 49 0 98 0;
#X connect 50 0 23 0;
#X connect 52 0 45 0;
#X connect 52 1 102 0;
#X connect 53 0 56 0;
#X connect 53 1 67 0;
#X connect 55 0 54 0;
#X connect 56 0 57 0;
#X connect 56 1 58 0;
#X connect 57 0 32 0;
#X connect 57 0 63 0;
#X connect 58 0 54 0;
#X connect 59 0 60 0;
#X connect 60 0 61 0;
#X connect 61 0 62 0;
#X connect 63 0 62 0;
#X connect 65 0 49 0;
#X connect 65 0 28 0;
#X connect 65 1 74 0;
#X connect 66 0 67 1;
#X connect 67 0 57 0;
#X connect 67 0 76 0;
#X connect 67 1 75 0;
#X connect 67 1 89 0;
#X connect 69 0 68 0;
#X connect 70 0 72 0;
#X connect 71 0 72 1;
#X connect 72 0 17 0;
#X connect 73 0 70 0;
#X connect 74 0 76 0;
#X connect 74 0 86 0;
#X connect 75 0 74 1;
#X connect 75 0 88 0;
#X connect 76 0 74 1;
#X connect 76 0 88 0;
#X connect 77 0 84 0;
#X connect 77 1 83 0;
#X connect 79 0 77 1;
#X connect 80 0 53 1;
#X connect 81 0 52 1;
#X connect 82 0 83 1;
#X connect 83 1 61 0;
#X connect 84 0 57 0;
#X connect 84 1 58 0;
#X connect 86 0 77 0;
#X connect 87 0 53 0;
#X connect 91 0 101 0;
#X connect 95 0 96 1;
#X connect 96 0 97 0;
#X connect 97 0 100 0;
#X connect 98 0 97 1;
#X connect 99 0 13 0;
#X connect 100 0 99 0;
#X connect 101 0 18 0;
#X connect 101 1 96 0;
#X connect 102 0 23 0;
#X connect 103 0 13 0;
#X restore 31 19 pd mouse/key;
#N canvas 813 220 350 513 gui 0;
#X msg 171 382 pos \$1 20;
#X obj 171 404 s \$1-e\$2-rcv;
#X obj 45 415 s \$1-e\$2-rcv;
#X msg 45 393 size \$1 20;
#X obj 45 -48 r \$0-updategui;
#X obj 45 51 v \$0-l;
#X obj 171 48 v \$0-t;
#X obj 45 18 t b b;
#X obj 198 132 v \$1-z;
#X obj 198 90 v \$1-s;
#X obj 171 92 -;
#X obj 171 112 t f b;
#X obj 171 134 *;
#X obj 171 156 t f b;
#X obj 171 241 clip 70 660;
#X obj 45 112 +;
#X obj 248 203 + 2;
#X obj 171 70 t f b;
#X obj 45 136 *;
#X obj 45 158 t f b;
#X obj 126 204 + 8;
#X obj 45 258 -;
#X obj 45 236 clip 70 660;
#X obj 142 -50 bng 15 250 50 0 empty empty empty 17 7 0 10 -262144
-1 -1;
#X obj 72 181 v \$1-xl;
#X obj 126 181 v \$1-xr;
#X obj 198 179 v \$1-xl;
#X obj 248 180 v \$1-xr;
#X obj 171 209 +;
#X obj 45 211 +;
#X obj 45 367 speedlim 50;
#X obj 171 358 speedlim 50;
#X obj 45 -19 spigot;
#X obj 45 280 - 3;
#X obj 171 267 + 3;
#X obj 45 343 change -1;
#X obj 171 334 change -1;
#X msg 110 341 set -1e+06;
#X obj 45 307 i;
#X obj 182 300 i;
#X obj 94 -21 r \$0-u-snd;
#X obj -13 432 bng 15 250 50 0 empty empty empty 17 7 0 10 -262144
-1 -1;
#X obj 142 432 bng 15 250 50 0 empty empty empty 17 7 0 10 -262144
-1 -1;
#X floatatom 1 379 5 0 0 0 - - -;
#X obj 198 202 - 20;
#X obj 72 204 - 15;
#X connect 0 0 1 0;
#X connect 3 0 2 0;
#X connect 4 0 32 0;
#X connect 5 0 15 0;
#X connect 6 0 17 0;
#X connect 7 0 5 0;
#X connect 7 1 6 0;
#X connect 8 0 12 1;
#X connect 8 0 18 1;
#X connect 9 0 10 1;
#X connect 10 0 11 0;
#X connect 10 0 15 1;
#X connect 11 0 12 0;
#X connect 11 1 8 0;
#X connect 12 0 13 0;
#X connect 13 0 28 0;
#X connect 13 1 26 0;
#X connect 13 1 27 0;
#X connect 14 0 21 1;
#X connect 14 0 34 0;
#X connect 15 0 18 0;
#X connect 16 0 14 2;
#X connect 17 0 10 0;
#X connect 17 1 9 0;
#X connect 18 0 19 0;
#X connect 19 0 29 0;
#X connect 19 1 24 0;
#X connect 19 1 25 0;
#X connect 20 0 22 2;
#X connect 21 0 33 0;
#X connect 22 0 21 0;
#X connect 23 0 7 0;
#X connect 24 0 29 1;
#X connect 24 0 45 0;
#X connect 25 0 20 0;
#X connect 26 0 28 1;
#X connect 26 0 44 0;
#X connect 27 0 16 0;
#X connect 28 0 14 0;
#X connect 29 0 22 0;
#X connect 30 0 3 0;
#X connect 31 0 0 0;
#X connect 32 0 7 0;
#X connect 33 0 38 0;
#X connect 34 0 39 0;
#X connect 35 0 30 0;
#X connect 35 0 43 0;
#X connect 36 0 31 0;
#X connect 36 0 37 0;
#X connect 37 0 35 0;
#X connect 38 0 35 0;
#X connect 39 0 36 0;
#X connect 40 0 32 1;
#X connect 44 0 14 1;
#X connect 45 0 22 1;
#X restore 31 42 pd gui;
#X obj 301 69 s \$0-updategui;
#X obj 301 47 r \$1-updategui;
#X obj 303 99 r \$1-events-rcv;
#X obj 303 121 route \$2 -1;
#X obj 303 142 s \$0-rcv;
#X obj 304 166 r \$0-snd;
#X obj 304 188 list prepend \$2;
#X obj 304 210 s \$1-events-snd;
#N canvas 671 391 450 300 init 0;
#X obj 50 27 r \$0-rcv;
#X obj 50 48 route init;
#X obj 155 132 v \$0-t;
#X obj 123 175 v \$0-l;
#X obj 123 152 f 0;
#X obj 171 87 v \$0-u;
#X obj 69 207 s \$0-updategui;
#X obj 27 46 bng 15 250 50 0 empty empty empty 17 7 0 10 -262144 -1
-1;
#X obj 171 66 0;
#X msg 89 236 1;
#X msg 58 236 0;
#X obj 171 15 loadbang;
#X obj 155 111 f -100000;
#X obj 213 42 del 100;
#X obj 167 174 s \$0-l-rcv;
#X obj 199 131 s \$0-t-rcv;
#X obj 236 72 s \$0-u-rcv;
#X obj 283 118 pack f \$2;
#X obj 283 160 s \$1-events-snd;
#X msg 283 138 u \$2 \$1;
#X obj 251 182 pack f \$2;
#X obj 251 224 s \$1-events-snd;
#X msg 251 202 t \$2 \$1;
#X obj 177 208 pack f \$2;
#X obj 177 250 s \$1-events-snd;
#X msg 177 228 l \$2 \$1;
#X obj 89 256 s \$0-u-rcv;
#X obj 50 73 t b b b b;
#X msg 324 54 label \$1;
#X obj 324 73 s \$1-e\$2-rcv;
#X obj 324 11 bng 15 250 50 0 empty empty empty 17 7 0 10 -262144 -1
-1;
#X obj 324 32 makesymbol \$2;
#X connect 0 0 1 0;
#X connect 1 0 27 0;
#X connect 4 0 3 0;
#X connect 4 0 14 0;
#X connect 4 0 23 0;
#X connect 7 0 27 0;
#X connect 8 0 5 0;
#X connect 8 0 17 0;
#X connect 9 0 26 0;
#X connect 10 0 26 0;
#X connect 11 0 8 0;
#X connect 12 0 2 0;
#X connect 12 0 15 0;
#X connect 12 0 20 0;
#X connect 17 0 19 0;
#X connect 19 0 18 0;
#X connect 20 0 22 0;
#X connect 22 0 21 0;
#X connect 23 0 25 0;
#X connect 25 0 24 0;
#X connect 27 0 10 0;
#X connect 27 1 6 0;
#X connect 27 2 4 0;
#X connect 27 2 9 0;
#X connect 27 2 12 0;
#X connect 27 3 8 0;
#X connect 27 3 31 0;
#X connect 28 0 29 0;
#X connect 30 0 31 0;
#X connect 31 0 28 0;
#X restore 31 72 pd init;
#X obj 138 63 v \$0-u;
#X text 180 63 event is used;
#N canvas 788 263 450 606 add 0;
#X obj 50 27 r \$0-rcv;
#X obj 77 391 v \$0-t;
#X obj 122 391 v \$0-l;
#X obj 77 92 v \$0-u;
#X obj 50 433 s \$0-updategui;
#X obj 50 48 route add;
#X obj 50 114 demux;
#X obj 100 134 init \$2;
#X obj 100 154 + 1;
#X obj 100 115 bng 15 250 50 0 empty empty empty 17 7 0 10 -262144
-1 -1;
#X obj 137 309 v \$1-z;
#X obj 77 177 f;
#X obj 59 312 v \$1-s;
#X obj 109 337 /;
#X obj 77 264 t b b b;
#X obj 59 333 +;
#X obj 50 243 t b b;
#X obj 187 409 v \$0-u;
#X msg 186 371 1;
#X obj 50 70 t b b;
#X obj 292 285 f \$2;
#X obj 292 261 del 5;
#X obj 155 429 s \$0-u-rcv;
#X obj 240 393 pack f \$2;
#X obj 240 435 s \$1-events-snd;
#X msg 240 413 u \$2 \$1;
#X obj 149 472 pack f \$2;
#X obj 149 514 s \$1-events-snd;
#X obj 40 476 pack f \$2;
#X obj 40 518 s \$1-events-snd;
#X msg 40 496 t \$2 \$1;
#X msg 149 492 l \$2 \$1;
#X msg 77 198 \$1 add;
#X obj 15 536 f \$2;
#X obj 77 219 s \$1-events-rcv;
#X obj 15 581 s \$1-events-snd;
#X msg 15 559 added \$1;
#X obj 292 333 s \$1-events-snd;
#X msg 292 309 select \$1;
#X msg 236 302 unsel;
#X obj 278 221 bng 15 250 50 0 empty empty empty 17 7 0 10 -262144
-1 -1;
#X obj 330 377 s \$0-select;
#X msg 332 357 1;
#X msg 109 308 20;
#X obj 200 157 route get;
#X obj 200 137 r \$1-events-rcv;
#X obj 77 290 f;
#X obj 78 362 f;
#X connect 0 0 5 0;
#X connect 3 0 6 1;
#X connect 5 0 19 0;
#X connect 6 0 16 0;
#X connect 6 1 11 0;
#X connect 7 0 8 0;
#X connect 8 0 11 1;
#X connect 9 0 7 0;
#X connect 10 0 13 1;
#X connect 11 0 32 0;
#X connect 12 0 15 0;
#X connect 13 0 15 1;
#X connect 13 0 2 0;
#X connect 13 0 26 0;
#X connect 14 0 46 0;
#X connect 14 1 43 0;
#X connect 14 2 10 0;
#X connect 14 2 18 0;
#X connect 14 2 21 0;
#X connect 14 2 39 0;
#X connect 15 0 47 0;
#X connect 16 0 4 0;
#X connect 16 0 33 0;
#X connect 16 1 14 0;
#X connect 18 0 17 0;
#X connect 18 0 22 0;
#X connect 18 0 23 0;
#X connect 19 0 6 0;
#X connect 19 1 3 0;
#X connect 20 0 38 0;
#X connect 21 0 20 0;
#X connect 21 0 42 0;
#X connect 23 0 25 0;
#X connect 25 0 24 0;
#X connect 26 0 31 0;
#X connect 28 0 30 0;
#X connect 30 0 29 0;
#X connect 31 0 27 0;
#X connect 32 0 34 0;
#X connect 33 0 36 0;
#X connect 36 0 35 0;
#X connect 38 0 37 0;
#X connect 39 0 37 0;
#X connect 40 0 21 0;
#X connect 42 0 41 0;
#X connect 43 0 13 0;
#X connect 44 0 46 1;
#X connect 45 0 44 0;
#X connect 46 0 47 0;
#X connect 47 0 1 0;
#X connect 47 0 28 0;
#X restore 31 91 pd add;
#N canvas 135 372 201 255 select 0;
#X obj 34 76 change;
#X obj 34 97 sel 0 1;
#X obj 34 195 s \$1-e\$2-rcv;
#X obj 34 52 r \$0-select;
#X obj 102 109 loadbang;
#X msg 34 136 color 0 0 22;
#X msg 53 165 color 15 15 22;
#X connect 0 0 1 0;
#X connect 1 0 5 0;
#X connect 1 1 6 0;
#X connect 3 0 0 0;
#X connect 4 0 5 0;
#X connect 5 0 2 0;
#X connect 6 0 2 0;
#X restore 31 112 pd select;
#X obj 406 173 spigot;
#X msg 406 195 init;
#X obj 406 216 s \$0-rcv;
#N canvas 185 292 457 441 get 0;
#X obj 60 24 r \$1-events-rcv;
#X obj 79 152 v \$0-l;
#X obj 60 119 t f b b;
#X obj 79 185 +;
#X obj 60 208 moses;
#X obj 99 208 moses;
#X obj 60 96 route get;
#X obj 99 255 t f f;
#X obj 99 233 -;
#X obj 126 277 /;
#X obj 99 342 s \$1-events-snd;
#X floatatom 257 40 5 0 0 0 - - -;
#X floatatom 49 250 5 0 0 0 - - -;
#X floatatom 50 307 5 0 0 0 - - -;
#X obj 60 72 spigot;
#X obj 93 48 r \$0-u-snd;
#X obj 164 157 v \$0-t;
#X obj 99 301 pack f f \$2 f;
#X msg 99 322 get \$3 \$1 \$2 \$4;
#X connect 0 0 14 0;
#X connect 1 0 3 0;
#X connect 1 0 9 1;
#X connect 1 0 17 3;
#X connect 2 0 4 0;
#X connect 2 1 1 0;
#X connect 2 2 16 0;
#X connect 3 0 5 1;
#X connect 4 1 5 0;
#X connect 5 0 8 0;
#X connect 6 0 2 0;
#X connect 7 0 17 0;
#X connect 7 1 9 0;
#X connect 8 0 7 0;
#X connect 9 0 17 1;
#X connect 14 0 6 0;
#X connect 15 0 14 1;
#X connect 16 0 4 1;
#X connect 16 0 8 1;
#X connect 16 0 3 1;
#X connect 17 0 18 0;
#X connect 18 0 10 0;
#X restore 31 132 pd get;
#X obj 406 126 route delete;
#X obj 209 131 r \$1-select;
#X obj 209 154 == \$2;
#X obj 209 195 s \$0-select;
#X obj 209 175 change;
#X obj 439 152 r \$0-select;
#X obj 107 273 v \$0-t;
#X obj 172 272 v \$0-l;
#X obj 38 275 v \$0-u;
#X obj 30 179 l apf \$1 eu\$2 \$0-u;
#X obj 30 198 l apf \$1 et\$2 \$0-t;
#X obj 30 218 l apf \$1 el\$2 \$0-l;
#N canvas 61 365 419 211 set 0;
#X obj 98 91 v \$0-t;
#X obj 163 90 v \$0-l;
#X obj 53 90 v \$0-u;
#X obj 62 16 r \$0-rcv;
#X obj 27 69 t b f;
#X obj 72 67 t b f;
#X obj 136 69 t b f;
#X obj 27 129 s \$0-updategui;
#X obj 65 112 s \$0-u-rcv;
#X obj 62 37 route u t l name;
#X obj 217 77 a2l;
#X obj 217 98 l2s;
#X obj 248 60 list prepend \$2;
#X msg 221 12 truc machin;
#X msg 217 120 label \$1;
#X msg 248 81 symbol \$1:\$2;
#X obj 217 139 s \$1-e\$2-rcv;
#X obj 294 31 init \$2;
#X obj 303 10 bng 15 250 50 0 empty empty empty 17 7 0 10 -262144 -1
-1;
#X connect 3 0 9 0;
#X connect 4 0 7 0;
#X connect 4 1 2 0;
#X connect 4 1 8 0;
#X connect 5 0 7 0;
#X connect 5 1 0 0;
#X connect 6 0 7 0;
#X connect 6 1 1 0;
#X connect 9 0 4 0;
#X connect 9 1 5 0;
#X connect 9 2 6 0;
#X connect 9 3 10 0;
#X connect 10 0 11 0;
#X connect 11 0 14 0;
#X connect 12 0 15 0;
#X connect 13 0 10 0;
#X connect 14 0 16 0;
#X connect 17 0 10 0;
#X connect 18 0 17 0;
#X restore 32 152 pd set;
#X obj 29 248 r \$0-u-rcv;
#X obj 97 248 r \$0-t-rcv;
#X obj 164 248 r \$0-l-rcv;
#X obj 164 298 s \$0-l-snd;
#X obj 97 298 s \$0-t-snd;
#X obj 29 299 s \$0-u-snd;
#X connect 7 0 6 0;
#X connect 8 0 9 0;
#X connect 8 0 23 0;
#X connect 9 0 10 0;
#X connect 9 1 10 0;
#X connect 11 0 12 0;
#X connect 12 0 13 0;
#X connect 19 0 20 0;
#X connect 20 0 21 0;
#X connect 23 0 19 0;
#X connect 25 0 27 0;
#X connect 27 0 26 0;
#X connect 28 0 19 1;
#X connect 36 0 31 0;
#X connect 36 0 41 0;
#X connect 37 0 29 0;
#X connect 37 0 40 0;
#X connect 38 0 30 0;
#X connect 38 0 39 0;
