#N canvas 13 1336 504 608 10;
#X obj 61 55 r \$1-song-\$2-snd;
#X floatatom 120 166 5 0 0 0 - - -;
#X obj 61 78 route \$3;
#X obj 75 136 unwonk f;
#X obj 75 161 sel -1;
#X obj 94 224 change;
#X obj 94 300 s \$4-pattern-snd;
#X msg 94 276 _all_ load \$1;
#X obj 205 267 s \$4-pattern-snd;
#X msg 205 243 _all_ store \$1;
#X obj 209 55 inlet;
#X obj 205 216 f;
#X obj 233 117 spigot;
#X msg 323 93 0;
#X msg 284 94 1;
#X obj 142 128 t b f;
#X obj 18 334 outlet event;
#X obj 256 333 outlet rec_enabled;
#X obj 284 147 tgl 15 0 empty empty empty 17 7 0 10 -262144 -1 -1 1
1;
#X obj 284 120 change;
#X text 22 5 tlLinkAp $x nameSeq numTrack $y;
#X text 19 16 $x:owner of seq $y:dest apsubmaster;
#X msg 75 188 set -1;
#X obj 243 299 s \$4-memorynum;
#X obj 250 52 r \$4-rec-snd;
#X obj 380 248 s \$4-rec-rcv;
#X obj 345 154 sel 0 1;
#X obj 344 110 init 0;
#X obj 343 250 bng 15 250 50 0 empty empty empty 17 7 0 10 -258699
-1 -1;
#X msg 335 203 color 20 20 20;
#X msg 365 181 color 13 22 22;
#X obj 94 253 t f b f;
#X obj 136 349 s \$4-pat-preload;
#X obj 61 102 route get added select prev;
#X floatatom 98 460 5 0 0 0 - - -;
#X floatatom 46 408 5 0 0 0 - - -;
#X floatatom 81 409 5 0 0 0 - - -;
#X floatatom 116 408 8 0 0 0 - - -;
#X floatatom 169 407 5 0 0 0 - - -;
#X floatatom 207 407 5 0 0 0 - - -;
#X obj 52 382 unpack f f f f f;
#X obj 80 484 pack f f f;
#X obj 47 430 sel -1;
#X obj 80 532 list prepend _all_;
#X obj 80 554 list trim;
#X obj 237 566 print;
#X msg 80 508 A \$2 \, B \$1 \, pos \$3;
#X obj 80 580 s \$4var-pattern-snd;
#X obj 251 414 change;
#X msg 251 440 _all_ load \$1;
#X obj 251 464 s \$4var-pattern-snd;
#X obj 307 274 s \$4var-pattern-snd;
#X floatatom 277 506 5 0 0 0 - - -;
#X obj 251 384 spigot 1;
#X obj 328 366 r \$4-lock_select;
#X obj 328 388 == 0;
#X floatatom 409 457 5 0 0 0 - - -;
#X connect 0 0 2 0;
#X connect 2 0 33 0;
#X connect 3 0 4 0;
#X connect 4 0 22 0;
#X connect 4 1 5 0;
#X connect 5 0 11 1;
#X connect 5 0 31 0;
#X connect 7 0 6 0;
#X connect 9 0 8 0;
#X connect 9 0 51 0;
#X connect 10 0 12 0;
#X connect 11 0 9 0;
#X connect 11 0 23 0;
#X connect 12 0 11 0;
#X connect 13 0 19 0;
#X connect 14 0 19 0;
#X connect 15 0 14 0;
#X connect 15 1 53 0;
#X connect 15 1 11 1;
#X connect 18 0 17 0;
#X connect 18 0 26 0;
#X connect 19 0 12 1;
#X connect 19 0 18 0;
#X connect 22 0 5 0;
#X connect 24 0 12 0;
#X connect 26 0 29 0;
#X connect 26 1 30 0;
#X connect 27 0 18 0;
#X connect 29 0 28 0;
#X connect 29 0 25 0;
#X connect 30 0 28 0;
#X connect 30 0 25 0;
#X connect 31 0 7 0;
#X connect 31 0 23 0;
#X connect 31 1 13 0;
#X connect 31 2 32 0;
#X connect 33 0 3 0;
#X connect 33 0 16 0;
#X connect 33 0 40 0;
#X connect 33 1 11 0;
#X connect 33 1 14 0;
#X connect 33 2 1 0;
#X connect 33 2 15 0;
#X connect 33 3 34 0;
#X connect 34 0 41 1;
#X connect 35 0 42 0;
#X connect 37 0 41 2;
#X connect 40 0 35 0;
#X connect 40 1 36 0;
#X connect 40 2 37 0;
#X connect 40 3 38 0;
#X connect 40 4 39 0;
#X connect 41 0 46 0;
#X connect 42 1 41 0;
#X connect 43 0 44 0;
#X connect 44 0 47 0;
#X connect 46 0 43 0;
#X connect 48 0 49 0;
#X connect 48 0 7 0;
#X connect 49 0 50 0;
#X connect 53 0 48 0;
#X connect 54 0 55 0;
#X connect 55 0 53 1;
