#N canvas 3 111 975 485 10;
#X obj 532 125 namecanvas \$1-can;
#X obj 532 104 s \$1-can;
#X msg 532 83 donecanvasdialog 1 -1 0;
#X msg 532 61 reduire;
#X obj 532 148 v \$1-z;
#X obj 489 149 init 1;
#X obj 459 147 bng 15 250 50 0 empty empty empty 17 7 0 10 -262144
-1 -1;
#X obj 532 167 v \$1-s;
#X text 574 148 z=zoom=pixel/unit;
#X text 574 167 s=scroll=time of xleft;
#X obj 489 168 init 0;
#X obj 533 194 v \$1-xl;
#X obj 533 214 v \$1-xr;
#X text 589 194 xl=pixel_x of xleft in canvas;
#X text 590 213 xr=pixel_x of xright in canvas;
#X obj 336 177 s \$1-updategui;
#X floatatom 355 88 5 0 0 0 - - -, f 5;
#X floatatom 314 87 5 0.1 1e+06 0 - - -, f 5;
#X obj 314 109 t b f;
#X obj 355 111 t b f;
#X obj 341 132 v \$1-z;
#X obj 385 131 v \$1-s;
#X obj 482 192 init 90;
#X obj 477 216 init 690;
#X obj 432 89 v \$1-songlen;
#X obj 432 67 init 3600;
#X obj 432 47 bng 15 250 50 0 empty empty empty 17 7 0 10 -262144 -1
-1;
#X obj 149 45 r \$1-i-snd;
#X obj 56 111 v \$1-songlen;
#X obj 29 91 t f b;
#X obj 29 112 /;
#X obj 176 110 v \$1-songlen;
#X obj 149 88 t f b;
#X obj 149 109 *;
#X obj 236 65 s \$1-get;
#X obj 721 356 r \$1-got;
#X obj 721 399 list trim;
#X obj 213 244 spigot;
#X obj 246 221 r \$1-lockstoi-snd;
#X obj 213 265 s \$1-s-rcv;
#X obj 29 254 apmaster \$1;
#X obj 31 303 r \$1-apmaster-snd;
#X obj 31 324 route loaded;
#X obj 31 345 s \$1-tablestoevents;
#N canvas 75 433 450 300 saveload 0;
#X obj 218 29 r \$1-load;
#X obj 218 80 symbol tl_\$3.txt;
#X msg 218 138 loadfile \$1;
#X obj 218 162 s \$1-apmaster-rcv;
#X obj 94 77 symbol tl_\$3.txt;
#X obj 94 159 s \$1-apmaster-rcv;
#X obj 94 53 r \$1-save;
#X msg 94 135 savefile \$1;
#X obj 94 102 absolutepath \$2;
#X obj 218 110 absolutepath \$2;
#X obj 218 52 t b b;
#X obj 263 55 s \$1-reset;
#X connect 0 0 10 0;
#X connect 1 0 9 0;
#X connect 2 0 3 0;
#X connect 4 0 8 0;
#X connect 6 0 4 0;
#X connect 7 0 5 0;
#X connect 8 0 7 0;
#X connect 9 0 2 0;
#X connect 10 0 1 0;
#X connect 10 1 11 0;
#X restore 29 281 pd saveload;
#X obj 516 362 s \$2-song-\$3-snd;
#X obj 721 378 list prepend got;
#X obj 29 42 r \$2-song-\$3-rcv;
#X obj 176 203 speedlim 150;
#X obj 149 67 t f f;
#X obj 233 86 s \$1-index;
#X obj 176 242 t f f;
#X obj 203 304 v \$1-songlen;
#X obj 176 284 t f b;
#X obj 176 305 *;
#X obj 785 355 r \$1-added;
#X obj 784 399 list prepend added;
#X msg 149 152 get \$1;
#X obj 149 173 s \$1-tr-rcv;
#X obj 176 346 s \$1-tr-rcv;
#X msg 176 325 i \$1;
#X obj 752 70 r \$1-reset;
#X obj 752 160 s \$1-tr-rcv;
#X msg 752 139 reset;
#X obj 400 330 s \$1-tr-rcv;
#X obj 400 289 r \$1-delete;
#X msg 400 309 delete;
#X obj 518 297 r \$1-tr-snd;
#X obj 258 349 r \$1-tr-snd;
#X obj 258 377 nroute unsel 2;
#X obj 258 419 s \$1-tr-rcv;
#X msg 258 397 unsel;
#X obj 351 370 nroute move 2;
#X msg 397 414 move \$1;
#X obj 351 392 unwonk f s f;
#N canvas 181 357 345 553 z/s 1;
#X obj 60 510 s \$1-updategui;
#X floatatom 37 58 5 0 0 0 - - -, f 5;
#X obj 75 409 t b f;
#X obj 75 127 f;
#X obj 75 210 *;
#X obj 162 232 v \$1-xl;
#X obj 114 232 v \$1-xr;
#X obj 114 253 -;
#X obj 75 169 t f b b;
#X obj 114 274 /;
#X obj 114 297 / 2;
#X obj 75 319 -;
#X obj 75 346 clip 0 3000;
#X obj 114 210 t b b b;
#X obj 138 322 -;
#X obj 75 387 change;
#X obj 75 365 max 0;
#X obj 55 485 del 5;
#X obj 55 148 t b f;
#X obj 131 61 r \$1-z-snd;
#X obj 37 34 r \$1-s-snd;
#X obj 131 83 t b f;
#X msg 195 402 z \$1;
#X msg 158 402 s \$1;
#X obj 183 449 s \$1-tr-rcv;
#X obj 94 189 v \$1-songlen;
#X obj 154 484 l speedlim 50;
#X connect 1 0 3 0;
#X connect 2 0 26 0;
#X connect 2 0 17 0;
#X connect 2 1 23 0;
#X connect 3 0 18 0;
#X connect 4 0 11 0;
#X connect 5 0 7 1;
#X connect 6 0 7 0;
#X connect 7 0 9 0;
#X connect 8 0 4 0;
#X connect 8 1 25 0;
#X connect 8 2 13 0;
#X connect 9 0 10 0;
#X connect 9 0 14 1;
#X connect 10 0 11 1;
#X connect 11 0 12 0;
#X connect 12 0 16 0;
#X connect 13 0 6 0;
#X connect 13 1 5 0;
#X connect 14 0 12 2;
#X connect 15 0 2 0;
#X connect 16 0 15 0;
#X connect 17 0 0 0;
#X connect 18 0 26 0;
#X connect 18 0 17 0;
#X connect 18 1 8 0;
#X connect 19 0 21 0;
#X connect 20 0 1 0;
#X connect 21 0 3 0;
#X connect 21 1 9 1;
#X connect 21 1 22 0;
#X connect 22 0 24 0;
#X connect 23 0 24 0;
#X connect 25 0 4 1;
#X connect 25 0 14 0;
#X restore 313 42 pd z/s;
#X obj 620 294 r \$1-tr-rcv;
#X obj 620 316 route get;
#X msg 620 336 i \$1;
#X obj 359 260 hsl 590 15 0.25 1000 1 0 \$1-z-snd \$1-z-rcv zoom -28
7 0 10 -262144 -1 -1 0 1;
#X obj 365 240 hsl 590 15 0 1 0 0 \$1-s-snd \$1-s-rcv scroll -38 7
0 10 -262144 -1 -1 0 1;
#X obj 70 89 s \$1-tr-rcv;
#X obj 30 232 apsubmaster \$1 \$2 \$3;
#X obj 117 323 bng 15 250 50 0 empty empty empty 17 7 0 10 -262144
-1 -1;
#X obj 519 320 nroute move 2;
#X obj 30 132 s \$1-i-snd;
#X msg 13 183 set \$1;
#X obj 13 206 s \$1-i-rcv;
#X obj 12 159 speedlim 150;
#X obj 196 153 s \$2-song-\$3-snd;
#X msg 196 132 i \$1;
#X obj 149 129 t f f;
#X obj 29 64 route i mes;
#X obj 81 204 s \$1-mes;
#N canvas 658 188 450 300 doubleclic 0;
#X obj 86 48 inlet;
#X obj 100 74 del 200;
#X obj 86 124 f;
#X obj 114 124 + 1;
#X msg 101 99 0;
#X obj 85 193 outlet;
#X obj 86 151 sel 1;
#X obj 166 120 t b b;
#X msg 258 168 color 13 13 22;
#X obj 167 144 del 300;
#X obj 168 197 outlet;
#X msg 169 168 color 14 14 22;
#X connect 0 0 1 0;
#X connect 0 0 2 0;
#X connect 1 0 4 0;
#X connect 2 0 3 0;
#X connect 2 0 6 0;
#X connect 3 0 2 1;
#X connect 4 0 2 1;
#X connect 6 0 5 0;
#X connect 6 0 7 0;
#X connect 7 0 9 0;
#X connect 7 1 8 0;
#X connect 8 0 10 0;
#X connect 9 0 11 0;
#X connect 11 0 10 0;
#X restore 752 94 pd doubleclic;
#X obj 770 116 s \$1-reset-rcv;
#X floatatom 104 161 5 0 0 0 - - -, f 5;
#X connect 2 0 1 0;
#X connect 3 0 2 0;
#X connect 5 0 4 0;
#X connect 6 0 5 0;
#X connect 6 0 10 0;
#X connect 6 0 22 0;
#X connect 6 0 23 0;
#X connect 10 0 7 0;
#X connect 16 0 19 0;
#X connect 17 0 18 0;
#X connect 18 0 15 0;
#X connect 18 1 20 0;
#X connect 19 0 15 0;
#X connect 19 1 21 0;
#X connect 22 0 11 0;
#X connect 23 0 12 0;
#X connect 25 0 24 0;
#X connect 26 0 25 0;
#X connect 27 0 49 0;
#X connect 28 0 30 1;
#X connect 29 0 30 0;
#X connect 29 1 28 0;
#X connect 30 0 85 0;
#X connect 30 0 88 0;
#X connect 31 0 33 1;
#X connect 32 0 33 0;
#X connect 32 1 31 0;
#X connect 33 0 91 0;
#X connect 35 0 46 0;
#X connect 37 0 39 0;
#X connect 38 0 37 1;
#X connect 41 0 42 0;
#X connect 42 0 43 0;
#X connect 46 0 36 0;
#X connect 47 0 92 0;
#X connect 48 0 51 0;
#X connect 49 0 32 0;
#X connect 49 1 48 0;
#X connect 51 0 53 0;
#X connect 51 1 37 0;
#X connect 52 0 54 1;
#X connect 53 0 54 0;
#X connect 53 1 52 0;
#X connect 54 0 60 0;
#X connect 55 0 56 0;
#X connect 56 0 36 0;
#X connect 57 0 58 0;
#X connect 60 0 59 0;
#X connect 61 0 94 0;
#X connect 63 0 62 0;
#X connect 65 0 66 0;
#X connect 66 0 64 0;
#X connect 67 0 84 0;
#X connect 68 0 69 0;
#X connect 68 0 72 0;
#X connect 69 0 71 0;
#X connect 71 0 70 0;
#X connect 72 0 74 0;
#X connect 73 0 70 0;
#X connect 74 2 73 0;
#X connect 76 0 77 0;
#X connect 77 0 78 0;
#X connect 83 0 43 0;
#X connect 84 1 45 0;
#X connect 86 0 87 0;
#X connect 88 0 86 0;
#X connect 90 0 89 0;
#X connect 91 0 57 0;
#X connect 91 1 90 0;
#X connect 92 0 29 0;
#X connect 92 1 93 0;
#X connect 92 2 81 0;
#X connect 94 0 63 0;
#X connect 94 1 95 0;
