#N canvas 1729 220 472 604 10;
#X floatatom 178 149 5 0 0 0 - - -, f 5;
#X floatatom 193 316 5 0 0 0 - - -, f 5;
#X msg 42 481 c 3 c \$1;
#X obj 44 446 tgl 15 0 empty empty empty 17 7 0 10 -262144 -1 -1 0
1;
#X obj 112 408 tgl 15 0 empty empty empty 17 7 0 10 -262144 -1 -1 0
1;
#X obj -38 181 hsl 128 15 0 65535 0 0 empty empty empty -2 -8 0 10
-262144 -1 -1 12700 1;
#X msg -43 422 c 5 i \$1;
#X floatatom -122 304 5 0 0 0 - - -, f 5;
#X obj -193 246 hsl 128 15 0 1023 0 0 empty empty empty -2 -8 0 10
-262144 -1 -1 0 1;
#X msg -195 274 c 6 i \$1;
#X obj 149 421 hradio 15 1 0 3 empty empty empty 0 -8 0 10 -262144
-1 -1 0;
#X obj -10 446 hradio 15 1 0 3 empty empty empty 0 -8 0 10 -262144
-1 -1 0;
#X obj 2 244 /;
#X obj 58 298 /;
#X msg 58 273 1000 \$1;
#X floatatom -9 268 8 0 0 0 Hz - -, f 8;
#X floatatom 55 319 8 0 0 0 ms - -, f 8;
#X msg 4 217 1e+06 \$1;
#X obj 5 36 mtof;
#X floatatom -58 68 5 0 0 0 - - -, f 5;
#X obj -16 83 /;
#X floatatom -171 177 8 0 0 0 - - -, f 8;
#X obj -15 136 * 1;
#X obj 25 141 + 1;
#X obj 53 35 t f f;
#X obj 45 113 / 200;
#X floatatom 63 152 5 0 0 0 - - -, f 5;
#X floatatom -57 37 5 0 0 0 - - -, f 5;
#X obj 113 265 != -1;
#X obj 112 287 change;
#X obj 189 363 * 2;
#X obj 53 6 inlet note;
#X obj 58 82 - \$4;
#X msg 1 62 1e+06 \$1;
#X obj 112 34 r \$1-Key;
#X obj -61 318 clip 0 65535;
#X floatatom -166 123 8 0 0 0 - - -, f 8;
#X obj -18 107 * \$3;
#X obj 97 360 sel 0 1;
#X msg 99 478 c 4 c \$1 \, c 6 i \$2;
#X msg 145 443 \$1 1023;
#X msg 88 384 1 50;
#X msg 132 382 2 1023;
#X obj 135 86 init \$5;
#X obj 133 108 sel 0;
#X obj -58 369 change;
#X obj -59 392 speedlim 5;
#X obj -57 347 i;
#X obj 112 324 speedlim 10;
#X obj -10 548 fruit/send \$2;
#X connect 2 0 49 0;
#X connect 3 0 2 0;
#X connect 5 0 17 0;
#X connect 5 0 35 0;
#X connect 6 0 49 0;
#X connect 8 0 9 0;
#X connect 8 0 7 0;
#X connect 9 0 49 0;
#X connect 10 0 40 0;
#X connect 11 0 2 0;
#X connect 12 0 14 0;
#X connect 12 0 15 0;
#X connect 13 0 16 0;
#X connect 14 0 13 0;
#X connect 17 0 12 0;
#X connect 18 0 33 0;
#X connect 20 0 37 0;
#X connect 22 0 5 0;
#X connect 23 0 22 1;
#X connect 24 0 18 0;
#X connect 24 1 32 0;
#X connect 25 0 23 0;
#X connect 28 0 29 0;
#X connect 29 0 48 0;
#X connect 31 0 24 0;
#X connect 32 0 25 0;
#X connect 33 0 20 0;
#X connect 34 0 28 0;
#X connect 35 0 47 0;
#X connect 37 0 22 0;
#X connect 38 0 41 0;
#X connect 38 1 42 0;
#X connect 39 0 49 0;
#X connect 40 0 39 0;
#X connect 41 0 39 0;
#X connect 42 0 39 0;
#X connect 43 0 44 0;
#X connect 44 1 25 1;
#X connect 45 0 46 0;
#X connect 46 0 6 0;
#X connect 47 0 45 0;
#X connect 48 0 38 0;
