#N canvas 3 94 692 481 10;
#X declare -path ..;
#X declare -stdpath mrpeach;
#X declare -stdpath mrpeach/net;
#X declare -stdpath osc;
#X declare -stdpath cxc;
#X declare -stdpath mapping;
#X obj 19 299 dac~;
#X obj 13 163 phasor~;
#X obj 13 180 threshold~ 0.9 1 0.1 1;
#X obj 57 282 *~;
#X obj 227 214 mtof;
#X obj 227 248 line~;
#X obj 13 146 line~;
#X msg 13 129 \$1 10;
#X obj 266 248 noise~;
#X obj 227 197 * 127, f 6;
#X obj 227 88 float 0;
#X obj 227 105 t f f;
#X obj 266 105 expr ($f1+1)%8;
#X obj 227 265 vcf~ 10;
#X obj 13 112 expr ($f1*800)/60;
#X obj 14 95 unpack f f;
#X msg 227 231 \$1 5;
#X obj 260 6 bf-session session 127.0.0.1;
#X text 6 396 Part of bf-pd \, implementation of the BOEUF framework
by Luke Dahl and Florent Berthaut. More details on boeuf.hitmuri.net
;
#X obj 13 197 t b b b b;
#X msg 335 214 0 1;
#X obj 13 259 vline~;
#X msg 13 242 0.4 5 \, 0 10 20;
#X text 256 30 This patch creates the session and first instrument.
This instrument outputs notes with a controllable tempo and has a 8
step sequencer that controls filter frequency on the notes.;
#X obj 335 231 bf-output instru1 onsets 1 bang;
#X obj 227 122 bf-parameter instru1 seq 8 cont;
#X obj 14 20 bf-parameter instru1 tempo 1 cont;
#X obj 94 299 bf-instrument instru1;
#N canvas 3 63 450 300 declares 0;
#X obj 29 21 declare -path ..;
#X obj 29 51 declare -stdpath mrpeach;
#X obj 28 77 declare -stdpath mrpeach/net;
#X obj 28 107 declare -stdpath osc;
#X obj 28 137 declare -stdpath cxc;
#X obj 30 166 declare -stdpath mapping;
#X restore 469 6 pd declares;
#X obj 537 109 print;
#X connect 1 0 2 0;
#X connect 2 0 19 0;
#X connect 3 0 0 0;
#X connect 3 0 0 1;
#X connect 3 0 27 0;
#X connect 4 0 16 0;
#X connect 5 0 13 1;
#X connect 6 0 1 0;
#X connect 7 0 6 0;
#X connect 8 0 13 0;
#X connect 9 0 4 0;
#X connect 10 0 11 0;
#X connect 11 0 25 1;
#X connect 11 1 12 0;
#X connect 12 0 10 1;
#X connect 13 0 3 1;
#X connect 14 0 7 0;
#X connect 15 1 14 0;
#X connect 16 0 5 0;
#X connect 19 0 22 0;
#X connect 19 2 10 0;
#X connect 19 3 20 0;
#X connect 20 0 24 0;
#X connect 21 0 3 0;
#X connect 22 0 21 0;
#X connect 25 1 9 0;
#X connect 26 0 15 0;
