#N canvas 247 1220 366 605 10;
#X obj 68 187 unpack f f;
#X obj 68 29 inlet note;
#X obj 139 28 inlet round;
#X obj 125 256 s \$0-round;
#X obj 255 34 r \$1;
#X obj 68 139 demux;
#X obj 95 159 s \$0-out;
#X obj 95 117 == 0;
#X obj 157 79 t b f f;
#X obj 196 101 s \$0-GAMME;
#X obj 157 59 change;
#N canvas 321 240 503 581 find_1stUP 0;
#X obj 161 55 inlet;
#X obj 193 514 outlet;
#X obj 162 141 until;
#X msg 162 118 12;
#X obj 162 90 t b b f;
#X obj 162 192 t f f;
#X obj 162 165 i;
#X obj 192 164 + 1;
#X msg 208 138 0;
#X obj 162 315 t b f;
#X obj 162 382 &;
#X obj 162 337 1;
#X obj 193 431 t b b;
#X obj 193 453 f;
#X obj 162 359 <<;
#X obj 199 350 r \$0-GAMME;
#X obj 162 214 +;
#X obj 162 289 mod 12;
#X obj 162 407 sel 0;
#X obj 162 247 t f f;
#X connect 0 0 4 0;
#X connect 2 0 6 0;
#X connect 3 0 2 0;
#X connect 4 0 3 0;
#X connect 4 1 8 0;
#X connect 4 2 16 1;
#X connect 5 0 16 0;
#X connect 6 0 7 0;
#X connect 6 0 5 0;
#X connect 7 0 6 1;
#X connect 8 0 6 1;
#X connect 9 0 11 0;
#X connect 9 1 14 1;
#X connect 10 0 18 0;
#X connect 11 0 14 0;
#X connect 12 0 13 0;
#X connect 12 1 2 1;
#X connect 13 0 1 0;
#X connect 14 0 10 0;
#X connect 15 0 10 1;
#X connect 16 0 19 0;
#X connect 17 0 9 0;
#X connect 18 1 12 0;
#X connect 19 0 17 0;
#X connect 19 1 13 1;
#X restore 89 344 pd find_1stUP;
#N canvas 321 240 503 581 find_1stDOWN 0;
#X obj 161 55 inlet;
#X obj 193 462 outlet;
#X obj 162 141 until;
#X msg 162 118 12;
#X obj 162 90 t b b f;
#X obj 162 188 t f f;
#X obj 162 165 i;
#X msg 208 138 0;
#X obj 162 295 t b f;
#X obj 162 362 &;
#X obj 162 317 1;
#X obj 193 411 t b b;
#X obj 193 433 f;
#X obj 162 339 <<;
#X obj 199 330 r \$0-GAMME;
#X obj 162 217 +;
#X obj 162 269 mod 12;
#X obj 162 387 sel 0;
#X obj 192 164 - 1;
#X obj 162 244 t f f;
#X connect 0 0 4 0;
#X connect 2 0 6 0;
#X connect 3 0 2 0;
#X connect 4 0 3 0;
#X connect 4 1 7 0;
#X connect 4 2 15 1;
#X connect 5 0 15 0;
#X connect 6 0 18 0;
#X connect 6 0 5 0;
#X connect 7 0 6 1;
#X connect 8 0 10 0;
#X connect 8 1 13 1;
#X connect 9 0 17 0;
#X connect 10 0 13 0;
#X connect 11 0 12 0;
#X connect 11 1 2 1;
#X connect 12 0 1 0;
#X connect 13 0 9 0;
#X connect 14 0 9 1;
#X connect 15 0 19 0;
#X connect 16 0 8 0;
#X connect 17 1 11 0;
#X connect 18 0 6 1;
#X connect 19 0 16 0;
#X connect 19 1 12 1;
#X restore 176 345 pd find_1stDOWN;
#N canvas 712 547 450 300 floor 0;
#X obj 122 24 inlet;
#X obj 141 220 outlet;
#X obj 145 152 i;
#X obj 119 97 moses 0;
#X obj 121 124 - 0.999999;
#X connect 0 0 3 0;
#X connect 2 0 1 0;
#X connect 3 0 4 0;
#X connect 3 1 2 0;
#X connect 4 0 2 0;
#X restore 176 321 pd floor;
#N canvas 787 359 450 300 ceil 0;
#X obj 187 26 inlet;
#X obj 213 127 i;
#X obj 187 72 moses 0;
#X obj 222 99 + 0.999999;
#X obj 213 151 outlet;
#X connect 0 0 2 0;
#X connect 1 0 4 0;
#X connect 2 0 1 0;
#X connect 2 1 3 0;
#X connect 3 0 1 0;
#X restore 89 318 pd ceil;
#X obj 103 435 -;
#X obj 68 279 t f f f;
#X obj 68 436 -;
#X obj 68 462 /;
#X obj 68 502 adjust;
#X obj 101 480 r \$0-round;
#X obj 68 529 *;
#X obj 68 552 +;
#X obj 125 207 t f f;
#X obj 125 232 *;
#X obj 68 72 pack f \$2;
#X obj 68 574 outlet;
#X connect 0 0 16 0;
#X connect 0 1 23 0;
#X connect 1 0 25 0;
#X connect 2 0 25 1;
#X connect 4 0 10 0;
#X connect 5 0 0 0;
#X connect 5 1 6 0;
#X connect 7 0 5 1;
#X connect 8 0 25 0;
#X connect 8 1 7 0;
#X connect 8 2 9 0;
#X connect 10 0 8 0;
#X connect 11 0 15 0;
#X connect 12 0 15 1;
#X connect 12 0 17 1;
#X connect 12 0 22 1;
#X connect 13 0 12 0;
#X connect 14 0 11 0;
#X connect 15 0 18 1;
#X connect 15 0 21 1;
#X connect 16 0 17 0;
#X connect 16 1 14 0;
#X connect 16 2 13 0;
#X connect 17 0 18 0;
#X connect 18 0 19 0;
#X connect 19 0 21 0;
#X connect 20 0 19 1;
#X connect 21 0 22 0;
#X connect 22 0 26 0;
#X connect 23 0 24 0;
#X connect 23 1 24 1;
#X connect 24 0 3 0;
#X connect 25 0 5 0;
