#N canvas 780 325 656 547 10;
#X obj 1 1 cnv 11 89 42 empty \$0-canvas empty 34 12 1 14 -261234 -16662
0;
#X obj 1 24 vsl 11 16 0 127 0 0 \$0-s0-snd \$0-s0-rcv empty 0 -9 0
10 -260818 -260818 -262144 0 0;
#X obj 14 24 vsl 11 16 0 127 0 0 \$0-s2-snd \$0-s2-rcv empty 0 -9 0
10 -260818 -260818 -262144 0 0;
#X obj 27 24 vsl 11 16 0 127 0 0 \$0-s4-snd \$0-s4-rcv empty 0 -9 0
10 -260818 -260818 -262144 0 1;
#X obj 40 24 vsl 11 16 0 127 0 0 \$0-s5-snd \$0-s5-rcv empty 0 -9 0
10 -260818 -260818 -262144 0 1;
#X obj 53 24 vsl 11 16 0 127 0 0 \$0-s7-snd \$0-s7-rcv empty 0 -9 0
10 -260818 -260818 -262144 0 1;
#X obj 66 24 vsl 11 16 0 127 0 0 \$0-s9-snd \$0-s9-rcv empty 0 -9 0
10 -260818 -260818 -262144 0 1;
#X obj 79 24 vsl 11 16 0 127 0 0 \$0-s11-snd \$0-s11-rcv empty 0 -9
0 10 -260818 -260818 -262144 0 1;
#X obj 7 2 vsl 11 16 0 127 0 0 \$0-s1-snd \$0-s1-rcv empty 0 -9 0 10
-1 -1 -233017 0 0;
#X obj 21 2 vsl 11 16 0 127 0 0 \$0-s3-snd \$0-s3-rcv empty 0 -9 0
10 -1 -1 -233017 0 1;
#X obj 46 2 vsl 11 16 0 127 0 0 \$0-s6-snd \$0-s6-rcv empty 0 -9 0
10 -1 -1 -233017 0 1;
#X obj 60 2 vsl 11 16 0 127 0 0 \$0-s8-snd \$0-s8-rcv empty 0 -9 0
10 -1 -1 -233017 0 0;
#X obj 74 2 vsl 11 16 0 127 0 0 \$0-s10-snd \$0-s10-rcv empty 0 -9
0 10 -1 -1 -233017 0 0;
#X obj 497 491 s \$0-t-rcv;
#X msg 497 469 1 \$1;
#X obj 498 448 tgl 15 0 empty empty empty 17 7 0 10 -262144 -1 -1 0
1;
#X text 210 89 num val;
#X obj 182 373 route 0 1;
#X obj 182 468 &;
#X obj 233 467 |;
#X obj 120 77 dispatch \$0-s 0 11;
#X obj 182 111 r \$0-s-snd;
#X obj 182 135 unpack f;
#X msg 182 210 1 \$1;
#X obj 182 233 <<;
#X obj 182 301 &;
#X obj 182 259 t f f;
#X obj 182 349 pack f f;
#X obj 182 324 == 0;
#X msg 455 462 0;
#X obj 142 346 tgl 15 0 empty empty empty 17 7 0 10 -262144 -1 -1 0
1;
#X msg 182 396 4095 \$1;
#X obj 182 422 -;
#N canvas 112 334 847 443 color2 0;
#X obj 321 54 change;
#X obj 321 79 t f f f f f f f f f f f f;
#X obj 24 135 & 1;
#X obj 23 156 != 0;
#X obj 20 176 change;
#X obj 63 155 != 0;
#X obj 63 176 change;
#X obj 126 156 != 0;
#X obj 126 177 change;
#X obj 175 155 != 0;
#X obj 175 176 change;
#X obj 64 134 & 2;
#X obj 127 135 & 4;
#X obj 176 134 & 8;
#X obj 20 301 sel 0 1;
#X msg 20 325 color 0 0 10;
#X msg 39 347 color 14 14 0;
#X obj 63 203 sel 0 1;
#X msg 63 226 color 22 22 10;
#X msg 82 249 color 14 14 0;
#X obj 20 370 s \$0-s0-rcv;
#X obj 63 272 s \$0-s1-rcv;
#X obj 126 299 sel 0 1;
#X msg 126 323 color 0 0 10;
#X msg 145 345 color 14 14 0;
#X obj 175 202 sel 0 1;
#X msg 175 225 color 22 22 10;
#X msg 194 248 color 14 14 0;
#X obj 239 156 != 0;
#X obj 236 176 change;
#X obj 236 301 sel 0 1;
#X msg 236 325 color 0 0 10;
#X msg 255 347 color 14 14 0;
#X obj 350 158 != 0;
#X obj 347 178 change;
#X obj 347 303 sel 0 1;
#X msg 347 327 color 0 0 10;
#X msg 366 349 color 14 14 0;
#X obj 391 157 != 0;
#X obj 391 178 change;
#X obj 391 204 sel 0 1;
#X msg 391 227 color 22 22 10;
#X msg 410 250 color 14 14 0;
#X obj 460 159 != 0;
#X obj 457 179 change;
#X obj 457 304 sel 0 1;
#X msg 457 328 color 0 0 10;
#X msg 476 350 color 14 14 0;
#X obj 501 158 != 0;
#X obj 501 179 change;
#X obj 501 205 sel 0 1;
#X msg 501 228 color 22 22 10;
#X msg 520 251 color 14 14 0;
#X obj 565 157 != 0;
#X obj 562 177 change;
#X obj 562 302 sel 0 1;
#X msg 562 326 color 0 0 10;
#X msg 581 348 color 14 14 0;
#X obj 606 156 != 0;
#X obj 606 177 change;
#X obj 606 203 sel 0 1;
#X msg 606 226 color 22 22 10;
#X msg 625 249 color 14 14 0;
#X obj 669 157 != 0;
#X obj 666 177 change;
#X obj 666 302 sel 0 1;
#X msg 666 326 color 0 0 10;
#X msg 685 348 color 14 14 0;
#X obj 240 135 & 16;
#X obj 351 137 & 32;
#X obj 392 136 & 64;
#X obj 461 138 & 128;
#X obj 502 137 & 256;
#X obj 566 136 & 512;
#X obj 607 135 & 1024;
#X obj 670 136 & 2048;
#X obj 126 368 s \$0-s2-rcv;
#X obj 175 271 s \$0-s3-rcv;
#X obj 236 370 s \$0-s4-rcv;
#X obj 347 372 s \$0-s5-rcv;
#X obj 391 273 s \$0-s6-rcv;
#X obj 457 373 s \$0-s7-rcv;
#X obj 501 274 s \$0-s8-rcv;
#X obj 562 371 s \$0-s9-rcv;
#X obj 606 272 s \$0-s10-rcv;
#X obj 666 371 s \$0-s11-rcv;
#X obj 321 31 r \$1;
#X connect 0 0 1 0;
#X connect 1 0 2 0;
#X connect 1 1 11 0;
#X connect 1 2 12 0;
#X connect 1 3 13 0;
#X connect 1 4 68 0;
#X connect 1 5 69 0;
#X connect 1 6 70 0;
#X connect 1 7 71 0;
#X connect 1 8 72 0;
#X connect 1 9 73 0;
#X connect 1 10 74 0;
#X connect 1 11 75 0;
#X connect 2 0 3 0;
#X connect 3 0 4 0;
#X connect 4 0 14 0;
#X connect 5 0 6 0;
#X connect 6 0 17 0;
#X connect 7 0 8 0;
#X connect 8 0 22 0;
#X connect 9 0 10 0;
#X connect 10 0 25 0;
#X connect 11 0 5 0;
#X connect 12 0 7 0;
#X connect 13 0 9 0;
#X connect 14 0 15 0;
#X connect 14 1 16 0;
#X connect 15 0 20 0;
#X connect 16 0 20 0;
#X connect 17 0 18 0;
#X connect 17 1 19 0;
#X connect 18 0 21 0;
#X connect 19 0 21 0;
#X connect 22 0 23 0;
#X connect 22 1 24 0;
#X connect 23 0 76 0;
#X connect 24 0 76 0;
#X connect 25 0 26 0;
#X connect 25 1 27 0;
#X connect 26 0 77 0;
#X connect 27 0 77 0;
#X connect 28 0 29 0;
#X connect 29 0 30 0;
#X connect 30 0 31 0;
#X connect 30 1 32 0;
#X connect 31 0 78 0;
#X connect 32 0 78 0;
#X connect 33 0 34 0;
#X connect 34 0 35 0;
#X connect 35 0 36 0;
#X connect 35 1 37 0;
#X connect 36 0 79 0;
#X connect 37 0 79 0;
#X connect 38 0 39 0;
#X connect 39 0 40 0;
#X connect 40 0 41 0;
#X connect 40 1 42 0;
#X connect 41 0 80 0;
#X connect 42 0 80 0;
#X connect 43 0 44 0;
#X connect 44 0 45 0;
#X connect 45 0 46 0;
#X connect 45 1 47 0;
#X connect 46 0 81 0;
#X connect 47 0 81 0;
#X connect 48 0 49 0;
#X connect 49 0 50 0;
#X connect 50 0 51 0;
#X connect 50 1 52 0;
#X connect 51 0 82 0;
#X connect 52 0 82 0;
#X connect 53 0 54 0;
#X connect 54 0 55 0;
#X connect 55 0 56 0;
#X connect 55 1 57 0;
#X connect 56 0 83 0;
#X connect 57 0 83 0;
#X connect 58 0 59 0;
#X connect 59 0 60 0;
#X connect 60 0 61 0;
#X connect 60 1 62 0;
#X connect 61 0 84 0;
#X connect 62 0 84 0;
#X connect 63 0 64 0;
#X connect 64 0 65 0;
#X connect 65 0 66 0;
#X connect 65 1 67 0;
#X connect 66 0 85 0;
#X connect 67 0 85 0;
#X connect 68 0 28 0;
#X connect 69 0 33 0;
#X connect 70 0 38 0;
#X connect 71 0 43 0;
#X connect 72 0 48 0;
#X connect 73 0 53 0;
#X connect 74 0 58 0;
#X connect 75 0 63 0;
#X connect 86 0 0 0;
#X restore 287 39 pd color2;
#X obj 385 425 nbx 5 14 -1e+37 1e+37 0 0 \$0-Gamme-snd \$0-Gamme-rcv
empty 0 -8 0 10 -262144 -1 -1 0 256;
#X obj 385 452 change;
#X obj 30 79 loadbang;
#X obj 30 104 list prepend \$3;
#X obj 30 132 route 0;
#X msg 69 153 label \$1;
#X obj 69 178 s \$0-canvas;
#X msg 30 153 label;
#X obj 8 79 bng 15 250 50 0 empty empty empty 17 7 0 10 -262144 -1
-1;
#X msg 120 30 donecanvasdialog 1 -1 0;
#X msg 120 7 reduire;
#X obj 120 51 s \$0-self;
#X obj 176 5 namecanvas \$0-self;
#X floatatom 494 448 5 0 0 0 - - -, f 5;
#X obj 195 280 r \$1;
#X obj 197 446 r \$1;
#X obj 248 443 r \$1;
#X obj 233 490 s \$1;
#X obj 182 491 s \$1;
#X obj 385 478 s \$1;
#X obj 470 391 r \$1-rcv;
#X obj 455 486 s \$1;
#X obj 182 179 demux;
#X obj 304 308 s \$1;
#X msg 304 251 1 \$1;
#X obj 304 274 <<;
#X obj 283 211 t f f;
#X obj 328 211 s \$1note;
#X obj 268 126 loadbang;
#X obj 267 149 f \$2;
#X connect 14 0 13 0;
#X connect 15 0 14 0;
#X connect 17 0 31 0;
#X connect 17 1 19 0;
#X connect 18 0 52 0;
#X connect 19 0 51 0;
#X connect 21 0 22 0;
#X connect 22 0 56 0;
#X connect 23 0 24 0;
#X connect 24 0 26 0;
#X connect 25 0 28 0;
#X connect 26 0 25 0;
#X connect 26 1 27 1;
#X connect 27 0 17 0;
#X connect 28 0 27 0;
#X connect 28 0 30 0;
#X connect 29 0 55 0;
#X connect 31 0 32 0;
#X connect 32 0 18 0;
#X connect 34 0 35 0;
#X connect 35 0 53 0;
#X connect 36 0 37 0;
#X connect 37 0 38 0;
#X connect 38 0 41 0;
#X connect 38 1 39 0;
#X connect 39 0 40 0;
#X connect 41 0 40 0;
#X connect 42 0 37 0;
#X connect 43 0 45 0;
#X connect 44 0 43 0;
#X connect 48 0 25 1;
#X connect 49 0 18 1;
#X connect 50 0 19 1;
#X connect 54 0 47 0;
#X connect 54 0 53 0;
#X connect 56 0 23 0;
#X connect 56 1 58 0;
#X connect 58 0 59 0;
#X connect 59 0 57 0;
#X connect 62 0 63 0;
#X connect 63 0 56 1;
#X coords 0 -1 1 1 91 44 2 0 0;
