#N canvas 689 775 677 716 10;
#X obj 139 24 r \$1-gamlen;
#X text 138 1 MeloGamme \$0 notemin notemax nbkeys;
#X obj 139 46 pack f \$4;
#X msg 139 68 \$2 \$1;
#X obj 139 89 /;
#X obj 139 111 * 12;
#X obj 139 195 unpack f f f;
#X obj 139 135 pack f \$3 \$2;
#X obj 139 220 -;
#X obj 139 243 -;
#X msg 139 161 \$2 \$3 \$1;
#X obj 139 268 max 0;
#X obj 64 322 + \$2;
#X obj 151 573 gamme 90 40 1 0 0 0 1 0 0 0 0 1 0 0;
#X obj 160 551 r \$1-setgam;
#X obj 185 377 sel -1;
#X obj 218 399 - 1;
#X msg 151 527 get 0 \$1;
#X obj 64 345 / 12;
#X obj 99 343 r \$1-gamlen;
#X obj 64 396 spigot;
#X obj 129 374 != -1;
#X obj 151 428 ++;
#X obj 151 789 outlet;
#X obj 64 300 m;
#X obj 220 427 r \$1-juste-snd;
#X obj 292 108 inlet;
#X obj 151 462 ++;
#X obj 64 368 m;
#X obj 321 243 r \$1-gamlen;
#X obj 306 267 m;
#X obj 292 155 * 2;
#X obj 292 174 - 1;
#X obj 306 287 adjust 3;
#X obj 194 720 r \$1-lfo;
#X obj 151 732 ++;
#X obj 292 195 * 2;
#X obj 129 394 t f f;
#X obj 93 373 sel 1;
#X obj 196 662 mod 12;
#X obj 196 682 - 12;
#X obj 151 709 f;
#X obj 151 617 moses \$3;
#X obj 196 640 - \$3;
#X obj 196 701 + \$3;
#X obj 220 485 * 1000;
#X obj 220 460 pow 5;
#X obj 150 484 + 0.013;
#X obj 180 764 r \$1-transgam;
#X obj 151 762 ++;
#X obj 185 353 r \$5-Key;
#X obj 64 229 r \$5-Note;
#X obj 151 503 adjust 500;
#X connect 0 0 2 0;
#X connect 2 0 3 0;
#X connect 3 0 4 0;
#X connect 4 0 5 0;
#X connect 5 0 7 0;
#X connect 6 0 8 0;
#X connect 6 1 8 1;
#X connect 6 2 9 1;
#X connect 7 0 10 0;
#X connect 8 0 9 0;
#X connect 9 0 11 0;
#X connect 10 0 6 0;
#X connect 11 0 24 1;
#X connect 12 0 18 0;
#X connect 13 0 42 0;
#X connect 14 0 13 0;
#X connect 15 1 16 0;
#X connect 16 0 22 1;
#X connect 17 0 13 0;
#X connect 18 0 28 0;
#X connect 19 0 28 1;
#X connect 20 0 22 0;
#X connect 21 0 37 0;
#X connect 22 0 27 0;
#X connect 24 0 12 0;
#X connect 25 0 46 0;
#X connect 26 0 31 0;
#X connect 27 0 47 0;
#X connect 28 0 20 0;
#X connect 29 0 30 1;
#X connect 30 0 33 0;
#X connect 31 0 32 0;
#X connect 32 0 36 0;
#X connect 33 0 27 1;
#X connect 34 0 35 1;
#X connect 35 0 49 0;
#X connect 36 0 30 0;
#X connect 37 0 38 0;
#X connect 37 1 20 1;
#X connect 38 0 28 0;
#X connect 39 0 40 0;
#X connect 40 0 44 0;
#X connect 41 0 35 0;
#X connect 42 0 41 0;
#X connect 42 1 43 0;
#X connect 43 0 39 0;
#X connect 44 0 41 0;
#X connect 45 0 52 1;
#X connect 46 0 45 0;
#X connect 47 0 52 0;
#X connect 48 0 49 1;
#X connect 49 0 23 0;
#X connect 50 0 15 0;
#X connect 50 0 21 0;
#X connect 51 0 24 0;
#X connect 52 0 17 0;
