#N canvas 678 119 591 700 10;
#X declare -stdpath moonlib;
#X floatatom 115 133 5 0 0 0 - - -, f 5;
#X obj 267 258 ndmetro 4 4;
#X obj 48 324 s \$0-notemod-tab;
#X msg 48 298 0 0 7 12 7;
#X floatatom 197 323 5 0 0 0 - - -, f 5;
#X obj 207 178 t a a;
#X obj 207 202 route -1;
#X msg 207 225 0;
#X msg 61 266 0 0 7 0 12;
#X msg 66 232 0 0 12 0 12;
#X msg 56 202 0 0 0 12 7;
#X msg 30 178 0 0 4 7 10;
#X obj 270 354 pack f \$3;
#X obj 270 406 s \$2-notemods-snd;
#X msg 270 381 \$2 \$1;
#X msg 177 12 4 2 0 7 12 7;
#X obj 435 93 list prepend 0;
#X msg 331 135 1;
#X msg 301 154 0;
#X obj 178 80 t b a;
#X obj 301 114 t b b;
#X obj 304 198 pack f f;
#X msg 305 219 nd \$1 \$2 \, bang;
#X obj 269 288 + 2;
#X msg 260 12 4 4 0 12 0 12;
#X obj 207 150 r \$2-clock;
#X msg 287 35 8 8 0 2 4 7 9 10 12 12;
#X obj 121 11 inlet;
#X obj 26 68 r \$2-notemods-rcv;
#X obj 26 93 route \$3 -1;
#X obj 31 130 t a;
#X obj 329 155 tabread \$2-notemod-\$3;
#X obj 270 318 tabread \$2-notemod-\$3;
#X obj 302 177 tabread \$2-notemod-\$3;
#X obj 50 479 table \$2-notemod-\$3 64;
#X obj 438 114 s \$2-notemod-\$3;
#X obj 149 118 s \$2-notemod-changed;
#X msg 160 -21 16 4 0 4 2 5 4 7 5 9 7 10 9 12 10 14 12 16;
#X obj 23 431 aptab \$2-SETTING notemod-\$3 \$2-notemod-\$3 64;
#X obj 401 258 declare -stdpath moonlib;
#X connect 1 0 23 0;
#X connect 3 0 2 0;
#X connect 5 0 6 0;
#X connect 5 1 1 0;
#X connect 6 0 7 0;
#X connect 7 0 12 0;
#X connect 8 0 2 0;
#X connect 9 0 2 0;
#X connect 10 0 2 0;
#X connect 11 0 2 0;
#X connect 12 0 14 0;
#X connect 14 0 13 0;
#X connect 15 0 19 0;
#X connect 16 0 35 0;
#X connect 17 0 31 0;
#X connect 18 0 33 0;
#X connect 19 0 20 0;
#X connect 19 0 36 0;
#X connect 19 1 16 0;
#X connect 20 0 18 0;
#X connect 20 1 17 0;
#X connect 21 0 22 0;
#X connect 22 0 1 0;
#X connect 23 0 32 0;
#X connect 24 0 19 0;
#X connect 25 0 5 0;
#X connect 26 0 19 0;
#X connect 27 0 19 0;
#X connect 28 0 29 0;
#X connect 29 0 30 0;
#X connect 29 1 30 0;
#X connect 30 0 19 0;
#X connect 31 0 21 1;
#X connect 32 0 12 0;
#X connect 33 0 21 0;
#X connect 37 0 19 0;
