#N canvas 2083 204 361 761 10;
#X obj 1 1 cnv 15 40 654 empty empty \$1 1 5 1 8 -257985 -1 0;
#X text -27 -26 KEPtype nomUnique;
#X obj 8 643 bng 10 250 50 0 empty empty empty 17 7 0 10 -4034 -1 -1
;
#X obj 25 643 bng 10 250 50 0 empty empty empty 17 7 0 10 -258113 -1
-1;
#N canvas 1250 165 347 661 KEPboutons 0;
#X obj 27 34 KEPbus \$1 Vitesse Vitesse_max b1;
#X obj 27 55 KEPbus \$1 Feedback Feedback_max b2;
#X obj 26 78 KEPbus \$1 Effet Dir-in b3;
#X obj 25 100 KEPbus \$1 Reverb Reverb_max b4;
#X obj 25 122 KEPbus \$1 Volume Volume_max b5;
#X obj 31 163 KEPbus \$1 Recloop -t1- t1;
#X obj 31 184 KEPbus \$1 1way -t2- t2;
#X obj 32 205 KEPbus \$1 Ajoute -t3- t3;
#X obj 33 227 KEPbus \$1 tOver -t4- t4;
#X obj 32 251 KEPbus \$1 REC -tR- tREC;
#X obj 35 285 KEPbus \$1 l1 -l1- tl1;
#X obj 35 308 KEPbus \$1 l2 -l2- tl2;
#X obj 37 330 KEPbus \$1 l3 -l3- tl3;
#X obj 37 351 KEPbus \$1 l4 -l4- tl4;
#X obj 32 376 KEPbus \$1 lR -lR- tlREC;
#X obj 168 280 KEPbus \$1 lr -lr- lrouge;
#X obj 168 303 KEPbus \$1 lv -lv- lvert;
#X restore 97 182 pd KEPboutons;
#X obj 99 208 tgl 15 1 empty empty empty 17 7 0 10 -262144 -1 -1 1
1;
#X obj 98 226 switch~;
#N canvas 1154 318 443 335 son 0;
#N canvas 106 295 637 801 ALLSOUND 0;
#X obj 25 905 outlet~;
#X msg 486 135 rec \$1;
#X msg 269 170 time \$1;
#X msg 357 149 feed \$1;
#X msg 486 181 over \$1;
#X msg 487 225 oneway \$1;
#X msg 487 398 reset;
#N canvas 1775 270 572 524 time 0;
#X obj 275 345 unpack;
#X obj 213 377 m 1000;
#X obj 213 426 outlet;
#X obj 183 152 i;
#X obj 183 177 change -1;
#X obj 213 399 change -1;
#X floatatom 309 407 5 0 0 0 - - -, f 5;
#X obj 213 348 /;
#X floatatom 312 456 5 0 0 0 - - -, f 5;
#X obj 183 130 * 11.9;
#N canvas 0 50 547 300 choix 0;
#X obj 75 51 inlet;
#X obj 190 273 outlet;
#X obj 190 237 t a;
#X msg 251 151 1 1;
#X msg 311 150 2 3;
#X msg 339 149 1 2;
#X msg 368 149 1 3;
#X msg 399 148 1 4;
#X msg 429 149 1 6;
#X msg 458 149 1 8;
#X msg 282 151 3 4;
#X obj 75 86 sel 0 1 2 3 4 5 6 7 8 9 10 11 12 13 14 15 16;
#X msg 489 149 1 16;
#X msg 11 157 8 1;
#X msg 44 157 6 1;
#X msg 74 156 4 1;
#X msg 102 155 3 1;
#X msg 129 153 2 1;
#X msg 221 152 1 1;
#X msg 190 153 4 3;
#X msg 159 154 2 1;
#X connect 0 0 11 0;
#X connect 2 0 1 0;
#X connect 3 0 2 0;
#X connect 4 0 2 0;
#X connect 5 0 2 0;
#X connect 6 0 2 0;
#X connect 7 0 2 0;
#X connect 8 0 2 0;
#X connect 9 0 2 0;
#X connect 10 0 2 0;
#X connect 11 0 13 0;
#X connect 11 1 14 0;
#X connect 11 2 15 0;
#X connect 11 3 16 0;
#X connect 11 4 17 0;
#X connect 11 5 20 0;
#X connect 11 6 19 0;
#X connect 11 7 18 0;
#X connect 11 8 3 0;
#X connect 11 9 10 0;
#X connect 11 10 4 0;
#X connect 11 11 5 0;
#X connect 11 12 6 0;
#X connect 11 13 7 0;
#X connect 11 14 8 0;
#X connect 11 15 9 0;
#X connect 11 16 12 0;
#X connect 12 0 2 0;
#X connect 13 0 2 0;
#X connect 14 0 2 0;
#X connect 15 0 2 0;
#X connect 16 0 2 0;
#X connect 17 0 2 0;
#X connect 18 0 2 0;
#X connect 19 0 2 0;
#X connect 20 0 2 0;
#X restore 183 211 pd choix;
#X obj 113 308 NDmetro;
#X obj 183 270 t a a;
#X obj 113 254 t a a;
#X obj 113 330 sel 0;
#X obj 113 432 outlet;
#X obj 43 314 bng 15 250 50 0 empty empty empty 0 -6 0 8 -262144 -1
-1;
#X obj 36 417 s \$0-LED;
#X obj 60 182 r SYNCHRO-clock;
#N canvas 571 333 316 462 Vitesse 0;
#X obj 140 365 outlet;
#X obj 102 96 i;
#X obj 150 324 t a;
#X obj 99 131 change -1;
#X obj 66 319 bng 15 250 50 0 empty empty empty 17 7 0 10 -262144 -1
-1;
#X obj 102 6 r \$0-Tempo-snd;
#X msg 48 185 1;
#X msg 81 205 2;
#X msg 111 221 3;
#X msg 133 198 4;
#X msg 153 228 6;
#X msg 169 196 8;
#X msg 183 221 12;
#X msg 215 235 16;
#X obj 99 154 sel 0 1 2 3 4 5 6 7;
#X msg 189 375 label \$1;
#X obj 189 396 s \$0-Tempo-rcv;
#X msg 189 375 label \$1;
#X obj 189 396 s \$0-Tempo-rcv;
#X obj 189 354 makesymbol %s;
#X obj 102 51 abs;
#X floatatom 233 103 5 0 0 0 - - -, f 5;
#X obj 102 76 * 7.9;
#X obj 102 27 - 1;
#X obj 199 36 r \$1-Vitesse;
#X floatatom 200 71 5 0 0 0 - - -, f 5;
#X floatatom 33 59 5 0 0 0 - - -, f 5;
#X connect 1 0 3 0;
#X connect 1 0 21 0;
#X connect 2 0 0 0;
#X connect 2 0 19 0;
#X connect 3 0 14 0;
#X connect 5 0 23 0;
#X connect 6 0 2 0;
#X connect 7 0 2 0;
#X connect 8 0 2 0;
#X connect 9 0 2 0;
#X connect 10 0 2 0;
#X connect 11 0 2 0;
#X connect 12 0 2 0;
#X connect 13 0 2 0;
#X connect 14 0 6 0;
#X connect 14 1 7 0;
#X connect 14 2 8 0;
#X connect 14 3 9 0;
#X connect 14 4 10 0;
#X connect 14 5 11 0;
#X connect 14 6 12 0;
#X connect 14 7 13 0;
#X connect 15 0 16 0;
#X connect 17 0 18 0;
#X connect 19 0 15 0;
#X connect 20 0 22 0;
#X connect 22 0 1 0;
#X connect 23 0 20 0;
#X connect 24 0 25 0;
#X restore 336 55 pd Vitesse;
#X obj 183 95 r \$0-Tempo;
#X obj 336 77 pack f 1;
#X floatatom 365 169 5 0 0 0 - - -, f 5;
#X connect 0 1 1 1;
#X connect 1 0 5 0;
#X connect 3 0 4 0;
#X connect 4 0 10 0;
#X connect 5 0 2 0;
#X connect 7 0 1 0;
#X connect 9 0 3 0;
#X connect 11 0 14 0;
#X connect 12 0 11 1;
#X connect 12 1 7 0;
#X connect 13 0 11 0;
#X connect 13 1 0 0;
#X connect 14 0 15 0;
#X connect 14 0 16 0;
#X connect 14 0 17 0;
#X connect 18 0 13 0;
#X connect 19 0 21 0;
#X connect 19 0 22 0;
#X connect 20 0 9 0;
#X connect 21 0 12 0;
#X restore 230 150 pd time;
#X obj 26 764 lop~ 10000;
#X obj 487 290 t b b;
#X obj 521 333 0;
#X obj 515 356 + 1;
#X obj 521 312 del 300;
#X obj 487 356 1;
#X obj 98 788 mull~ 0 10;
#X obj 25 877 +~;
#X obj 26 226 hip~ 10;
#X obj 73 391 *~;
#X obj 89 348 mull~ 0 3;
#X obj 169 288 mknob 25 100 0 1 0 0 \$1-Mul1-snd \$1-Mul1-rcv Mul1
-2 -6 1 8 -262144 -1 -1 3000 1;
#X obj 125 383 sig~ 1;
#X obj 159 350 -;
#X msg 159 329 1 \$1;
#X obj 26 258 *~ 10;
#X obj 74 300 dist~ 1;
#X obj 208 489 mknob 25 100 0 1 0 0 \$1-VolAdj-snd \$1-VolAdj-rcv VolAdj
-2 -6 1 8 -262144 -1 -1 7900 1;
#X obj 66 510 * 3;
#X msg 230 170 tic;
#X obj 175 500 m;
#X obj 175 392 unpack f f;
#X obj 175 412 != -1;
#X obj 175 478 ||;
#X obj 273 423 tgl 15 0 empty empty empty 0 -6 0 8 -262144 -1 -1 1
1;
#X obj 273 403 sel 1;
#X obj 27 530 mull~ 0.7 1;
#X obj 118 328 * 10;
#X obj 487 269 change;
#N canvas 2027 927 190 272 vol-direct 0;
#X msg 102 74 1 \$1;
#X obj 72 203 outlet;
#X obj 102 156 spigot;
#X obj 102 133 f;
#X obj 57 82 t b f;
#X obj 23 130 sel 0;
#X msg 23 149 1;
#X obj 23 28 r \$1-REC-snd;
#X obj 102 53 inlet;
#X floatatom 136 231 5 0 0 0 - - -, f 5;
#X obj 102 110 *;
#X connect 0 0 10 0;
#X connect 2 0 1 0;
#X connect 2 0 9 0;
#X connect 3 0 2 0;
#X connect 4 0 3 0;
#X connect 4 1 2 1;
#X connect 5 0 6 0;
#X connect 6 0 1 0;
#X connect 7 0 5 0;
#X connect 7 0 4 0;
#X connect 8 0 0 0;
#X connect 10 0 3 0;
#X restore 96 198 pd vol-direct;
#X obj 184 453 t b f;
#X obj 273 383 change;
#X obj 94 220 * 2;
#X obj 171 521 tgl 15 0 empty empty empty 17 7 0 10 -262144 -1 -1 0.79798
0.79798;
#X obj 26 204 *~ 1;
#X obj 224 249 pingnip4;
#X obj 224 36 inlet~;
#X obj 224 125 mull~ 1 10;
#X obj 26 424 orfilter \$1 FX ortho1;
#X obj 98 809 aprev \$1 FX rev1;
#N canvas 2812 854 226 221 reverb-val 0;
#X obj 49 92 m 1;
#X obj 48 144 outlet;
#X obj 49 51 r \$1-Reverb;
#X obj 64 71 r \$1-Reverb_max;
#X connect 0 0 1 0;
#X connect 2 0 0 0;
#X connect 3 0 0 1;
#X restore 126 768 pd reverb-val;
#X obj 74 57 param \$1 FX Mul1;
#X obj 175 372 r SYNCHRO-clock;
#N canvas 2812 854 226 221 Feedback-val 0;
#X obj 49 92 m 1;
#X obj 49 144 outlet;
#X obj 49 51 r \$1-Feedback;
#X obj 64 71 r \$1-Feedback_max;
#X connect 0 0 1 0;
#X connect 2 0 0 0;
#X connect 3 0 0 1;
#X restore 357 120 pd Feedback-val;
#X obj 273 363 r \$1-tSHIFT-snd;
#X obj 265 82 s \$1-tlREC-rcv;
#X obj 74 78 param \$1 FX VolAdj;
#X obj 252 59 r \$1-REC;
#X obj 96 127 r \$1-Dir-in;
#X obj 487 248 r \$1-Recloop;
#X obj 27 617 demux~ . .;
#N canvas 2598 580 287 403 OverMetro 0;
#X obj 24 158 outlet;
#X obj 124 360 outlet;
#X obj 161 195 t b;
#X obj 161 105 r SYNCHRO-clock;
#X obj 161 217 i;
#X obj 190 217 + 1;
#X msg 130 173 0;
#X obj 77 173 sel 0 1;
#X obj 161 283 spigot;
#X msg 65 198 0;
#X msg 96 198 1;
#X floatatom 161 337 5 0 0 0 - - -, f 5;
#X obj 161 308 f;
#X obj 65 222 t f f;
#X obj 50 126 t f b f;
#X obj 50 50 inlet;
#X obj 95 10 r \$1-REC;
#X obj 50 94 spigot 1;
#X obj 95 72 != 1;
#X obj 161 168 spigot 1;
#X obj 95 31 t b f;
#X connect 2 0 4 0;
#X connect 3 0 19 0;
#X connect 4 0 5 0;
#X connect 4 0 8 0;
#X connect 5 0 4 1;
#X connect 6 0 4 0;
#X connect 7 0 9 0;
#X connect 7 1 10 0;
#X connect 8 0 12 0;
#X connect 9 0 13 0;
#X connect 10 0 8 1;
#X connect 12 0 11 0;
#X connect 12 0 1 0;
#X connect 13 0 12 0;
#X connect 13 1 8 1;
#X connect 14 0 0 0;
#X connect 14 1 6 0;
#X connect 14 2 7 0;
#X connect 15 0 17 0;
#X connect 16 0 20 0;
#X connect 17 0 14 0;
#X connect 18 0 17 1;
#X connect 18 0 19 1;
#X connect 19 0 2 0;
#X connect 20 0 6 0;
#X connect 20 1 18 0;
#X restore 272 526 pd OverMetro;
#X floatatom 143 719 5 0 0 0 - - -, f 5;
#X obj 85 659 apdisto \$1 OVER disto1;
#X obj 341 590 MORPHgroup \$1 OVER;
#X obj 341 548 / 16;
#X obj 286 500 s \$1-tl4-rcv;
#X obj 282 550 r \$1-REC;
#X obj 282 574 != 1;
#X obj 341 568 moses 1.01;
#X obj 237 600 spigot 1;
#X obj 66 570 tgl 15 0 empty empty empty 17 7 0 10 -262144 -1 -1 0
1;
#X obj 237 622 tgl 15 0 empty empty empty 17 7 0 10 -262144 -1 -1 0
1;
#X obj 85 722 *~ 20;
#X obj 272 479 r \$1-tOver;
#X obj 486 115 KEPtog \$1 Recloop tl1;
#X obj 486 161 KEPtog \$1 Ajoute tl3;
#X obj 487 205 KEPtog \$1 1way tl2;
#X floatatom 539 386 5 0 0 0 - - -, f 5;
#X obj 487 378 sel 3;
#X connect 1 0 43 1;
#X connect 2 0 43 1;
#X connect 3 0 43 1;
#X connect 4 0 43 1;
#X connect 5 0 43 1;
#X connect 6 0 43 1;
#X connect 7 0 27 0;
#X connect 7 1 2 0;
#X connect 8 0 14 0;
#X connect 8 0 15 0;
#X connect 9 0 13 0;
#X connect 9 1 12 0;
#X connect 10 0 13 0;
#X connect 11 0 13 1;
#X connect 12 0 10 0;
#X connect 13 0 11 0;
#X connect 13 0 76 0;
#X connect 13 0 77 0;
#X connect 14 0 47 0;
#X connect 15 0 0 0;
#X connect 16 0 23 0;
#X connect 17 0 46 0;
#X connect 18 0 17 1;
#X connect 19 0 22 0;
#X connect 19 0 35 0;
#X connect 21 0 20 0;
#X connect 22 0 21 0;
#X connect 23 0 24 0;
#X connect 23 0 46 0;
#X connect 24 0 18 0;
#X connect 24 0 17 0;
#X connect 25 0 28 1;
#X connect 26 0 34 1;
#X connect 27 0 43 1;
#X connect 28 0 26 0;
#X connect 28 0 41 0;
#X connect 29 0 30 0;
#X connect 30 0 31 0;
#X connect 31 0 28 0;
#X connect 32 0 38 0;
#X connect 33 0 32 0;
#X connect 34 0 58 0;
#X connect 35 0 18 1;
#X connect 36 0 9 0;
#X connect 37 0 40 0;
#X connect 38 0 31 0;
#X connect 38 1 31 1;
#X connect 39 0 33 0;
#X connect 40 0 23 1;
#X connect 42 0 16 0;
#X connect 43 0 16 0;
#X connect 44 0 45 0;
#X connect 45 0 42 0;
#X connect 45 0 43 0;
#X connect 46 0 34 0;
#X connect 47 0 15 1;
#X connect 48 0 14 1;
#X connect 50 0 29 0;
#X connect 51 0 3 0;
#X connect 52 0 39 0;
#X connect 55 0 45 1;
#X connect 55 0 53 0;
#X connect 56 0 37 0;
#X connect 57 0 36 0;
#X connect 58 0 8 0;
#X connect 58 1 61 0;
#X connect 59 0 68 0;
#X connect 59 1 63 0;
#X connect 60 0 71 1;
#X connect 61 0 71 0;
#X connect 63 0 67 0;
#X connect 65 0 66 0;
#X connect 66 0 68 1;
#X connect 67 0 62 0;
#X connect 68 0 58 0;
#X connect 68 0 70 0;
#X connect 69 0 58 0;
#X connect 71 0 8 0;
#X connect 72 0 64 0;
#X connect 72 0 59 0;
#X connect 73 0 1 0;
#X connect 74 0 4 0;
#X connect 75 0 5 0;
#X connect 77 0 6 0;
#X restore 32 94 pd ALLSOUND;
#X obj 32 69 inlet~;
#X obj 31 207 outlet~;
#X obj 114 11 MORPHgroup \$1 FX;
#X floatatom 114 -25 5 0 0 0 - - -, f 5;
#X obj 32 182 Vmull~ 0 10;
#X obj 63 161 m 1;
#X obj 266 131 t b;
#X obj 266 109 r SYNCHRO-clock;
#X obj 188 225 m;
#X obj 188 258 nbx 5 14 -1e+37 1e+37 0 0 \$0-Tempo-snd \$0-Tempo-rcv
3 5 -8 0 10 -262144 -1 -1 0.640537 256;
#X obj 63 118 r \$1-Volume;
#X obj 78 140 r \$1-Volume_max;
#X obj 188 180 r \$1-Vitesse;
#X obj 203 202 r \$1-Vitesse_max;
#X obj 114 -9 r \$1-Effet;
#X obj 268 153 s \$1-lrouge;
#X connect 0 0 5 0;
#X connect 1 0 0 0;
#X connect 5 0 2 0;
#X connect 6 0 5 1;
#X connect 7 0 16 0;
#X connect 8 0 7 0;
#X connect 9 0 10 0;
#X connect 11 0 6 0;
#X connect 12 0 6 1;
#X connect 13 0 9 0;
#X connect 14 0 9 1;
#X connect 15 0 3 0;
#X connect 15 0 4 0;
#X restore 51 116 pd son;
#X obj 104 57 KEPface \$1;
#X obj 4 100 MASTERtypeOUT \$1 1;
#X obj 9 662 KEPCommon \$1 \$0;
#X obj 4 12 MASTERtypeIN \$1 1 \$0;
#X connect 2 0 10 0;
#X connect 3 0 10 1;
#X connect 5 0 6 0;
#X connect 7 0 9 0;
#X connect 11 0 7 0;
#X coords 0 -1 1 1 42 656 2 0 0;
