#N canvas 1884 179 482 756 10;
#X obj 1 1 cnv 15 40 654 empty empty \$1 1 5 1 8 -257985 -1 0;
#X text -27 -26 KEPtype nomUnique;
#X obj 8 642 bng 10 250 50 0 empty empty empty 17 7 0 10 -4034 -1 -1
;
#X obj 25 642 bng 10 250 50 0 empty empty empty 17 7 0 10 -258113 -1
-1;
#N canvas 2098 538 347 661 KEPboutons 0;
#X obj 26 78 KEPbus \$1 Effet Dir-in b3;
#X obj 25 100 KEPbus \$1 Reverb Reverb_max b4;
#X obj 25 122 KEPbus \$1 Volume Volume_max b5;
#X obj 32 251 KEPbus \$1 REC -tR- tREC;
#X obj 35 285 KEPbus \$1 l1 -l1- tl1;
#X obj 35 308 KEPbus \$1 l2 -l2- tl2;
#X obj 37 330 KEPbus \$1 l3 -l3- tl3;
#X obj 37 351 KEPbus \$1 l4 -l4- tl4;
#X obj 32 376 KEPbus \$1 lR -lR- tlREC;
#X obj 168 280 KEPbus \$1 lr -lr- lrouge;
#X obj 168 303 KEPbus \$1 lv -lv- lvert;
#X obj 31 163 KEPbus \$1 s1 -t1- t1;
#X obj 31 184 KEPbus \$1 s2 -t2- t2;
#X obj 32 206 KEPbus \$1 s3 -t3- t3;
#X obj 33 227 KEPbus \$1 s4 -t4- t4;
#X obj 27 55 KEPbus \$1 Phrases Phrases b2;
#X obj 27 34 KEPbus \$1 Vitesse Vitesse b1;
#X restore 74 502 pd KEPboutons;
#X obj 76 528 tgl 15 1 empty empty empty 17 7 0 10 -262144 -1 -1 1
1;
#X obj 75 546 switch~;
#N canvas 2484 655 716 518 son 0;
#N canvas 2654 349 637 801 ALLSOUND 0;
#X obj 25 905 outlet~;
#X msg 486 135 rec \$1;
#X msg 269 170 time \$1;
#X msg 357 149 feed \$1;
#X msg 486 181 over \$1;
#X msg 487 225 oneway \$1;
#X msg 487 398 reset;
#N canvas 1775 270 572 524 time 0;
#X obj 275 345 unpack;
#X obj 213 377 m 1000;
#X obj 213 426 outlet;
#X obj 183 152 i;
#X obj 183 177 change -1;
#X obj 213 399 change -1;
#X floatatom 309 407 5 0 0 0 - - -, f 5;
#X obj 213 348 /;
#X floatatom 312 456 5 0 0 0 - - -, f 5;
#X obj 183 130 * 11.9;
#N canvas 0 50 547 300 choix 0;
#X obj 75 51 inlet;
#X obj 190 273 outlet;
#X obj 190 237 t a;
#X msg 251 151 1 1;
#X msg 311 150 2 3;
#X msg 339 149 1 2;
#X msg 368 149 1 3;
#X msg 399 148 1 4;
#X msg 429 149 1 6;
#X msg 458 149 1 8;
#X msg 282 151 3 4;
#X obj 75 86 sel 0 1 2 3 4 5 6 7 8 9 10 11 12 13 14 15 16;
#X msg 489 149 1 16;
#X msg 11 157 8 1;
#X msg 44 157 6 1;
#X msg 74 156 4 1;
#X msg 102 155 3 1;
#X msg 129 153 2 1;
#X msg 221 152 1 1;
#X msg 190 153 4 3;
#X msg 159 154 2 1;
#X connect 0 0 11 0;
#X connect 2 0 1 0;
#X connect 3 0 2 0;
#X connect 4 0 2 0;
#X connect 5 0 2 0;
#X connect 6 0 2 0;
#X connect 7 0 2 0;
#X connect 8 0 2 0;
#X connect 9 0 2 0;
#X connect 10 0 2 0;
#X connect 11 0 13 0;
#X connect 11 1 14 0;
#X connect 11 2 15 0;
#X connect 11 3 16 0;
#X connect 11 4 17 0;
#X connect 11 5 20 0;
#X connect 11 6 19 0;
#X connect 11 7 18 0;
#X connect 11 8 3 0;
#X connect 11 9 10 0;
#X connect 11 10 4 0;
#X connect 11 11 5 0;
#X connect 11 12 6 0;
#X connect 11 13 7 0;
#X connect 11 14 8 0;
#X connect 11 15 9 0;
#X connect 11 16 12 0;
#X connect 12 0 2 0;
#X connect 13 0 2 0;
#X connect 14 0 2 0;
#X connect 15 0 2 0;
#X connect 16 0 2 0;
#X connect 17 0 2 0;
#X connect 18 0 2 0;
#X connect 19 0 2 0;
#X connect 20 0 2 0;
#X restore 183 211 pd choix;
#X obj 113 308 NDmetro;
#X obj 183 270 t a a;
#X obj 113 254 t a a;
#X obj 113 330 sel 0;
#X obj 113 432 outlet;
#X obj 43 314 bng 15 250 50 0 empty empty empty 0 -6 0 8 -262144 -1
-1;
#X obj 36 417 s \$0-LED;
#X obj 60 182 r SYNCHRO-clock;
#N canvas 571 333 316 462 Vitesse 0;
#X obj 140 365 outlet;
#X obj 102 96 i;
#X obj 150 324 t a;
#X obj 99 131 change -1;
#X obj 66 319 bng 15 250 50 0 empty empty empty 17 7 0 10 -262144 -1
-1;
#X obj 102 6 r \$0-Tempo-snd;
#X msg 48 185 1;
#X msg 81 205 2;
#X msg 111 221 3;
#X msg 133 198 4;
#X msg 153 228 6;
#X msg 169 196 8;
#X msg 183 221 12;
#X msg 215 235 16;
#X obj 99 154 sel 0 1 2 3 4 5 6 7;
#X msg 189 375 label \$1;
#X obj 189 396 s \$0-Tempo-rcv;
#X msg 189 375 label \$1;
#X obj 189 396 s \$0-Tempo-rcv;
#X obj 189 354 makesymbol %s;
#X obj 102 51 abs;
#X floatatom 233 103 5 0 0 0 - - -, f 5;
#X obj 102 76 * 7.9;
#X obj 102 27 - 1;
#X obj 199 36 r \$1-Vitesse;
#X floatatom 200 71 5 0 0 0 - - -, f 5;
#X floatatom 33 59 5 0 0 0 - - -, f 5;
#X connect 1 0 3 0;
#X connect 1 0 21 0;
#X connect 2 0 0 0;
#X connect 2 0 19 0;
#X connect 3 0 14 0;
#X connect 5 0 23 0;
#X connect 6 0 2 0;
#X connect 7 0 2 0;
#X connect 8 0 2 0;
#X connect 9 0 2 0;
#X connect 10 0 2 0;
#X connect 11 0 2 0;
#X connect 12 0 2 0;
#X connect 13 0 2 0;
#X connect 14 0 6 0;
#X connect 14 1 7 0;
#X connect 14 2 8 0;
#X connect 14 3 9 0;
#X connect 14 4 10 0;
#X connect 14 5 11 0;
#X connect 14 6 12 0;
#X connect 14 7 13 0;
#X connect 15 0 16 0;
#X connect 17 0 18 0;
#X connect 19 0 15 0;
#X connect 20 0 22 0;
#X connect 22 0 1 0;
#X connect 23 0 20 0;
#X connect 24 0 25 0;
#X restore 336 55 pd Vitesse;
#X obj 183 95 r \$0-Tempo;
#X obj 336 77 pack f 1;
#X floatatom 365 169 5 0 0 0 - - -, f 5;
#X connect 0 1 1 1;
#X connect 1 0 5 0;
#X connect 3 0 4 0;
#X connect 4 0 10 0;
#X connect 5 0 2 0;
#X connect 7 0 1 0;
#X connect 9 0 3 0;
#X connect 11 0 14 0;
#X connect 12 0 11 1;
#X connect 12 1 7 0;
#X connect 13 0 11 0;
#X connect 13 1 0 0;
#X connect 14 0 15 0;
#X connect 14 0 16 0;
#X connect 14 0 17 0;
#X connect 18 0 13 0;
#X connect 19 0 21 0;
#X connect 19 0 22 0;
#X connect 20 0 9 0;
#X connect 21 0 12 0;
#X restore 230 150 pd time;
#X obj 26 764 lop~ 10000;
#X obj 487 290 t b b;
#X obj 521 333 0;
#X obj 515 356 + 1;
#X obj 521 312 del 300;
#X obj 487 356 1;
#X obj 98 788 mull~ 0 10;
#X obj 25 877 +~;
#X obj 26 226 hip~ 10;
#X obj 73 391 *~;
#X obj 89 348 mull~ 0 3;
#X obj 169 288 mknob 25 100 0 1 0 0 \$1-Mul1-snd \$1-Mul1-rcv Mul1
-2 -6 1 8 -262144 -1 -1 3000 1;
#X obj 125 383 sig~ 1;
#X obj 159 350 -;
#X msg 159 329 1 \$1;
#X obj 26 258 *~ 10;
#X obj 74 300 dist~ 1;
#X obj 208 489 mknob 25 100 0 1 0 0 \$1-VolAdj-snd \$1-VolAdj-rcv VolAdj
-2 -6 1 8 -262144 -1 -1 7900 1;
#X obj 66 510 * 3;
#X msg 230 170 tic;
#X obj 175 500 m;
#X obj 175 392 unpack f f;
#X obj 175 412 != -1;
#X obj 175 478 ||;
#X obj 273 423 tgl 15 0 empty empty empty 0 -6 0 8 -262144 -1 -1 1
1;
#X obj 273 403 sel 1;
#X obj 27 530 mull~ 0.7 1;
#X obj 118 328 * 10;
#X obj 487 269 change;
#N canvas 2023 927 190 272 vol-direct 0;
#X msg 102 74 1 \$1;
#X obj 72 203 outlet;
#X obj 102 156 spigot;
#X obj 102 133 f;
#X obj 57 82 t b f;
#X obj 23 130 sel 0;
#X msg 23 149 1;
#X obj 102 53 inlet;
#X floatatom 136 231 5 0 0 0 - - -, f 5;
#X obj 102 110 *;
#X obj 23 28 r \$1-REC;
#X connect 0 0 9 0;
#X connect 2 0 1 0;
#X connect 2 0 8 0;
#X connect 3 0 2 0;
#X connect 4 0 3 0;
#X connect 4 1 2 1;
#X connect 5 0 6 0;
#X connect 6 0 1 0;
#X connect 7 0 0 0;
#X connect 9 0 3 0;
#X connect 10 0 5 0;
#X connect 10 0 4 0;
#X restore 96 198 pd vol-direct;
#X obj 184 453 t b f;
#X obj 273 383 change;
#X obj 94 220 * 2;
#X obj 171 521 tgl 15 0 empty empty empty 17 7 0 10 -262144 -1 -1 0.79798
0.79798;
#X obj 26 204 *~ 1;
#X obj 205 20 inlet~;
#X obj 224 125 mull~ 1 10;
#X obj 26 424 orfilter \$1 FX ortho1;
#X obj 98 809 aprev \$1 FX rev1;
#N canvas 2812 854 226 221 reverb-val 0;
#X obj 49 92 m 1;
#X obj 48 144 outlet;
#X obj 49 51 r \$1-Reverb;
#X obj 64 71 r \$1-Reverb_max;
#X connect 0 0 1 0;
#X connect 2 0 0 0;
#X connect 3 0 0 1;
#X restore 126 768 pd reverb-val;
#X obj 74 57 param \$1 FX Mul1;
#X obj 175 372 r SYNCHRO-clock;
#N canvas 2812 854 226 221 Feedback-val 0;
#X obj 49 92 m 1;
#X obj 49 144 outlet;
#X obj 49 51 r \$1-Feedback;
#X obj 64 71 r \$1-Feedback_max;
#X connect 0 0 1 0;
#X connect 2 0 0 0;
#X connect 3 0 0 1;
#X restore 357 120 pd Feedback-val;
#X obj 273 363 r \$1-tSHIFT-snd;
#X obj 265 82 s \$1-tlREC-rcv;
#X obj 74 78 param \$1 FX VolAdj;
#X obj 252 59 r \$1-REC;
#X obj 49 159 r \$1-Dir-in;
#X obj 487 248 r \$1-Recloop;
#X obj 27 617 demux~ . .;
#N canvas 2598 580 287 403 OverMetro 0;
#X obj 24 158 outlet;
#X obj 124 360 outlet;
#X obj 161 195 t b;
#X obj 161 105 r SYNCHRO-clock;
#X obj 161 217 i;
#X obj 190 217 + 1;
#X msg 130 173 0;
#X obj 77 173 sel 0 1;
#X obj 161 283 spigot;
#X msg 65 198 0;
#X msg 96 198 1;
#X floatatom 161 337 5 0 0 0 - - -, f 5;
#X obj 161 308 f;
#X obj 65 222 t f f;
#X obj 50 126 t f b f;
#X obj 50 50 inlet;
#X obj 95 10 r \$1-REC;
#X obj 50 94 spigot 1;
#X obj 95 72 != 1;
#X obj 161 168 spigot 1;
#X obj 95 31 t b f;
#X connect 2 0 4 0;
#X connect 3 0 19 0;
#X connect 4 0 5 0;
#X connect 4 0 8 0;
#X connect 5 0 4 1;
#X connect 6 0 4 0;
#X connect 7 0 9 0;
#X connect 7 1 10 0;
#X connect 8 0 12 0;
#X connect 9 0 13 0;
#X connect 10 0 8 1;
#X connect 12 0 11 0;
#X connect 12 0 1 0;
#X connect 13 0 12 0;
#X connect 13 1 8 1;
#X connect 14 0 0 0;
#X connect 14 1 6 0;
#X connect 14 2 7 0;
#X connect 15 0 17 0;
#X connect 16 0 20 0;
#X connect 17 0 14 0;
#X connect 18 0 17 1;
#X connect 18 0 19 1;
#X connect 19 0 2 0;
#X connect 20 0 6 0;
#X connect 20 1 18 0;
#X restore 272 526 pd OverMetro;
#X floatatom 143 719 5 0 0 0 - - -, f 5;
#X obj 85 659 apdisto \$1 OVER disto1;
#X obj 341 590 MORPHgroup \$1 OVER;
#X obj 341 548 / 16;
#X obj 286 500 s \$1-tl4-rcv;
#X obj 282 550 r \$1-REC;
#X obj 282 574 != 1;
#X obj 341 568 moses 1.01;
#X obj 237 600 spigot 1;
#X obj 66 570 tgl 15 0 empty empty empty 17 7 0 10 -262144 -1 -1 0
1;
#X obj 237 622 tgl 15 0 empty empty empty 17 7 0 10 -262144 -1 -1 0
1;
#X obj 85 722 *~ 20;
#X obj 272 479 r \$1-tOver;
#X obj 486 115 KEPtog \$1 Recloop tl1;
#X obj 486 161 KEPtog \$1 Ajoute tl3;
#X obj 487 205 KEPtog \$1 1way tl2;
#X floatatom 539 386 5 0 0 0 - - -, f 5;
#X obj 487 378 sel 3;
#X obj 195 44 s~ \$0-in;
#X floatatom 103 258 5 0 0 0 - - -, f 5;
#N canvas 2198 157 526 483 play 0;
#X obj 34 274 r \$0-len1;
#X msg 16 332 0 \$1;
#X obj 16 312 f;
#X obj 153 428 outlet~;
#X obj 67 -21 inlet;
#X obj 411 65 * 3.9;
#X obj 380 83 i;
#X msg 126 331 0 \$1;
#X obj 126 311 f;
#X msg 234 332 0 \$1;
#X obj 234 312 f;
#X msg 343 333 0 \$1;
#X obj 343 313 f;
#X obj 252 274 r \$0-len3;
#X obj 361 275 r \$0-len4;
#X obj 144 273 r \$0-len2;
#X obj 429 75 bng 15 250 50 0 empty empty empty 0 -6 0 8 -262144 -1
-1;
#X floatatom 54 324 5 0 0 0 - - -, f 5;
#X obj 34 293 * 44.1;
#X obj 144 292 * 44.1;
#X obj 252 293 * 44.1;
#X obj 361 294 * 44.1;
#X obj 16 352 tabplay~ \$0-t1;
#X obj 126 351 tabplay~ \$0-t2;
#X obj 234 352 tabplay~ \$0-t3;
#X obj 343 353 tabplay~ \$0-t4;
#X obj 124 -15 r \$0-Key;
#X obj 136 115 sel -1;
#X floatatom 75 91 5 0 0 0 - - -, f 5;
#X floatatom 182 18 5 0 0 0 - - -, f 5;
#X obj 31 124 & 1;
#X obj 15 192 spigot;
#X obj 31 147 t f f;
#X obj 16 216 b;
#X obj 125 210 spigot;
#X obj 141 165 t f f;
#X obj 126 234 b;
#X obj 238 207 spigot;
#X obj 254 162 t f f;
#X obj 239 231 b;
#X obj 342 215 spigot;
#X obj 358 170 t f f;
#X obj 343 239 b;
#X obj 143 142 & 2;
#X obj 255 139 & 4;
#X obj 360 147 & 8;
#X obj 16 81 b;
#X obj 320 284 bng 15 250 50 0 empty empty empty 17 7 0 10 -262144
-1 -1;
#X obj 440 241 tgl 15 0 empty empty empty 17 7 0 10 -262144 -1 -1 0
8;
#X obj 58 192 sel 0;
#X obj 169 210 sel 0;
#X obj 281 207 sel 0;
#X obj 385 215 sel 0;
#X obj 115 22 sel -1;
#X obj 24 32 bng 15 250 50 0 empty empty empty 17 7 0 10 -262144 -1
-1;
#X obj 55 34 pipe 1;
#X floatatom 251 8 5 0 0 0 - - -, f 5;
#X msg 114 48 0;
#X obj 56 55 b;
#X floatatom 159 39 5 0 0 0 - - -, f 5;
#X obj 115 72 f;
#X obj 385 193 f;
#X obj 281 185 f;
#X obj 168 188 f;
#X obj 58 170 f;
#X obj 198 -15 r \$0-keyboardmono;
#X obj 213 42 r \$0-recb-snd;
#X obj 326 84 tgl 15 0 empty empty empty 17 7 0 10 -262144 -1 -1 0
1;
#X obj 153 93 change;
#X obj 213 69 == 0;
#X obj 151 71 spigot 1;
#X connect 0 0 18 0;
#X connect 1 0 22 0;
#X connect 2 0 1 0;
#X connect 4 0 54 0;
#X connect 4 0 55 0;
#X connect 5 0 6 0;
#X connect 7 0 23 0;
#X connect 8 0 7 0;
#X connect 9 0 24 0;
#X connect 10 0 9 0;
#X connect 11 0 25 0;
#X connect 12 0 11 0;
#X connect 13 0 20 0;
#X connect 14 0 21 0;
#X connect 15 0 19 0;
#X connect 18 0 2 1;
#X connect 19 0 8 1;
#X connect 20 0 10 1;
#X connect 21 0 12 1;
#X connect 22 0 3 0;
#X connect 23 0 3 0;
#X connect 24 0 3 0;
#X connect 25 0 3 0;
#X connect 26 0 29 0;
#X connect 26 0 53 0;
#X connect 27 1 30 0;
#X connect 27 1 43 0;
#X connect 27 1 44 0;
#X connect 27 1 45 0;
#X connect 30 0 32 0;
#X connect 31 0 33 0;
#X connect 32 0 31 1;
#X connect 32 1 64 0;
#X connect 33 0 2 0;
#X connect 34 0 36 0;
#X connect 35 0 34 1;
#X connect 35 1 63 0;
#X connect 36 0 8 0;
#X connect 37 0 39 0;
#X connect 38 0 37 1;
#X connect 38 1 62 0;
#X connect 39 0 10 0;
#X connect 40 0 42 0;
#X connect 41 0 40 1;
#X connect 41 1 61 0;
#X connect 42 0 12 0;
#X connect 42 0 47 0;
#X connect 43 0 35 0;
#X connect 44 0 38 0;
#X connect 45 0 41 0;
#X connect 46 0 31 0;
#X connect 46 0 34 0;
#X connect 46 0 37 0;
#X connect 46 0 40 0;
#X connect 49 1 33 0;
#X connect 50 1 36 0;
#X connect 51 1 39 0;
#X connect 52 1 42 0;
#X connect 53 0 57 0;
#X connect 53 1 59 0;
#X connect 53 1 60 1;
#X connect 55 0 58 0;
#X connect 57 0 60 0;
#X connect 58 0 60 0;
#X connect 60 0 28 0;
#X connect 60 0 70 0;
#X connect 61 0 48 0;
#X connect 61 0 52 0;
#X connect 62 0 51 0;
#X connect 63 0 50 0;
#X connect 64 0 49 0;
#X connect 65 0 60 0;
#X connect 66 0 69 0;
#X connect 68 0 27 0;
#X connect 70 0 27 0;
#X restore 6 127 pd play;
#X floatatom 151 186 5 0 0 0 - - -, f 5;
#X obj 19 70 ac;
#X obj 283 16 inlet;
#X connect 7 0 27 0;
#X connect 7 1 2 0;
#X connect 8 0 14 0;
#X connect 8 0 15 0;
#X connect 9 0 13 0;
#X connect 9 1 12 0;
#X connect 10 0 13 0;
#X connect 11 0 13 1;
#X connect 12 0 10 0;
#X connect 13 0 11 0;
#X connect 13 0 75 0;
#X connect 13 0 76 0;
#X connect 14 0 46 0;
#X connect 15 0 0 0;
#X connect 16 0 23 0;
#X connect 17 0 45 0;
#X connect 18 0 17 1;
#X connect 19 0 22 0;
#X connect 19 0 35 0;
#X connect 21 0 20 0;
#X connect 22 0 21 0;
#X connect 23 0 24 0;
#X connect 23 0 45 0;
#X connect 24 0 18 0;
#X connect 24 0 17 0;
#X connect 25 0 28 1;
#X connect 26 0 34 1;
#X connect 28 0 26 0;
#X connect 28 0 41 0;
#X connect 29 0 30 0;
#X connect 30 0 31 0;
#X connect 31 0 28 0;
#X connect 32 0 38 0;
#X connect 33 0 32 0;
#X connect 34 0 57 0;
#X connect 35 0 18 1;
#X connect 36 0 9 0;
#X connect 37 0 40 0;
#X connect 38 0 31 0;
#X connect 38 1 31 1;
#X connect 39 0 33 0;
#X connect 40 0 23 1;
#X connect 40 0 78 0;
#X connect 42 0 16 0;
#X connect 43 0 77 0;
#X connect 43 0 44 0;
#X connect 44 0 42 0;
#X connect 45 0 34 0;
#X connect 46 0 15 1;
#X connect 47 0 14 1;
#X connect 49 0 29 0;
#X connect 50 0 3 0;
#X connect 51 0 39 0;
#X connect 54 0 44 1;
#X connect 54 0 52 0;
#X connect 55 0 37 0;
#X connect 56 0 36 0;
#X connect 57 0 8 0;
#X connect 57 1 60 0;
#X connect 58 0 67 0;
#X connect 58 1 62 0;
#X connect 59 0 70 1;
#X connect 60 0 70 0;
#X connect 62 0 66 0;
#X connect 64 0 65 0;
#X connect 65 0 67 1;
#X connect 66 0 61 0;
#X connect 67 0 57 0;
#X connect 67 0 69 0;
#X connect 68 0 57 0;
#X connect 70 0 8 0;
#X connect 71 0 63 0;
#X connect 71 0 58 0;
#X connect 72 0 1 0;
#X connect 73 0 4 0;
#X connect 74 0 5 0;
#X connect 76 0 6 0;
#X connect 79 0 16 0;
#X connect 79 0 81 0;
#X connect 82 0 79 0;
#X restore 68 291 pd ALLSOUND;
#X obj 68 266 inlet~;
#X obj 67 431 outlet~;
#X obj 114 11 MORPHgroup \$1 FX;
#X floatatom 114 -25 5 0 0 0 - - -, f 5;
#X obj 68 379 Vmull~ 0 10;
#X obj 99 358 m 1;
#X obj 266 131 t b;
#X obj 266 109 r SYNCHRO-clock;
#X obj 99 315 r \$1-Volume;
#X obj 114 337 r \$1-Volume_max;
#X obj 114 -9 r \$1-Effet;
#X obj 268 153 s \$1-lrouge;
#X obj 379 146 t b;
#X obj 379 124 r SYNCHRO-clock;
#X obj 496 200 nbx 5 14 -1e+37 1e+37 0 0 \$0-Tempo-snd \$0-Tempo-rcv
8 5 -8 0 10 -262144 -1 -1 0.351648 256;
#N canvas 2813 593 592 300 led 0;
#X obj 113 -125 tgl 15 0 empty empty empty 17 7 0 10 -262144 -1 -1
0 1;
#X obj 33 -126 tgl 15 0 empty empty empty 17 7 0 10 -262144 -1 -1 0
1;
#X obj 19 -236 change;
#X obj 111 -234 change;
#X obj 202 -233 change;
#X obj 292 -231 change;
#X obj 382 -233 change;
#X obj 207 -113 tgl 15 0 empty empty empty 17 7 0 10 -262144 -1 -1
0 1;
#X obj 19 -193 s \$1-tl1-rcv;
#X obj 111 -193 s \$1-tl2-rcv;
#X obj 202 -193 s \$1-tl3-rcv;
#X obj 292 -193 s \$1-tl4-rcv;
#X obj 382 -192 s \$1-tlREC-rcv;
#X obj 382 -271 r \$1-Lock;
#X obj 19 -271 r \$1-1/1-lock;
#X obj 111 -271 r \$1-1/2-lock;
#X obj 202 -271 r \$1-1/3-lock;
#X obj 292 -271 r \$1-1/4-lock;
#X connect 0 0 9 0;
#X connect 2 0 8 0;
#X connect 3 0 9 0;
#X connect 4 0 10 0;
#X connect 5 0 11 0;
#X connect 6 0 12 0;
#X connect 7 0 8 0;
#X connect 7 0 9 0;
#X connect 7 0 10 0;
#X connect 7 0 11 0;
#X connect 13 0 6 0;
#X connect 14 0 1 0;
#X connect 14 0 2 0;
#X connect 15 0 3 0;
#X connect 16 0 4 0;
#X connect 17 0 5 0;
#X restore 400 232 pd led;
#X obj 496 165 m 1;
#X obj 496 120 r \$1-Vitesse;
#X obj 511 142 r \$1-Vitesse_max;
#X obj 379 168 s \$1-lrouge;
#N canvas 2602 473 199 392 touches 0;
#X obj 51 46 ++;
#X obj 51 94 ++;
#X obj 51 70 ++;
#X obj 51 118 sel 0;
#X msg 51 144 -1;
#X obj 24 173 inlet;
#X obj 24 282 outlet;
#X obj 24 237 spigot;
#X obj 78 204 != -1;
#X obj 32 259 bng 15 250 50 0 empty empty empty 17 7 0 10 -262144 -1
-1;
#X obj 78 176 pipe 1;
#X obj 78 230 change;
#X obj 78 253 sel 1;
#X obj 78 286 bng 15 250 50 0 empty empty empty 17 7 0 10 -262144 -1
-1;
#X obj 51 2 r \$1-s1;
#X obj 66 24 r \$1-s2;
#X obj 82 48 r \$1-s3;
#X obj 80 73 r \$1-s4;
#X connect 0 0 2 0;
#X connect 1 0 3 0;
#X connect 2 0 1 0;
#X connect 3 0 4 0;
#X connect 3 1 10 0;
#X connect 4 0 10 0;
#X connect 5 0 7 0;
#X connect 7 0 6 0;
#X connect 7 0 9 0;
#X connect 8 0 7 1;
#X connect 8 0 11 0;
#X connect 10 0 8 0;
#X connect 11 0 12 0;
#X connect 12 0 6 0;
#X connect 12 0 13 0;
#X connect 14 0 0 0;
#X connect 15 0 0 1;
#X connect 16 0 2 1;
#X connect 17 0 1 1;
#X restore 88 186 pd touches;
#N canvas 1868 191 708 443 Vitesse 0;
#X obj 140 365 outlet;
#X obj 102 96 i;
#X obj 150 324 t a;
#X obj 99 131 change -1;
#X obj 408 54 i;
#X obj 376 295 t a;
#X obj 408 85 change -1;
#X obj 408 6 r \$0-Tempo-snd;
#X obj 66 319 bng 15 250 50 0 empty empty empty 17 7 0 10 -262144 -1
-1;
#X obj 102 16 r \$0-Tempo-snd;
#X obj 102 42 * 7.9;
#X msg 48 185 1;
#X msg 81 205 2;
#X msg 111 221 3;
#X msg 133 198 4;
#X msg 153 228 6;
#X msg 169 196 8;
#X msg 183 221 12;
#X msg 215 235 16;
#X obj 102 70 + 0;
#X obj 99 154 sel 0 1 2 3 4 5 6 7;
#X obj 407 113 sel 0 1 2 3 4 5 6 7;
#X msg 357 147 1;
#X msg 390 167 2;
#X msg 420 183 3;
#X msg 439 161 4;
#X msg 459 194 6;
#X msg 478 159 8;
#X msg 492 183 12;
#X msg 518 198 16;
#X obj 408 32 * 7.9;
#X msg 376 340 label \$1;
#X obj 376 361 s \$0-Tempo-rcv;
#X msg 376 340 label \$1;
#X obj 376 361 s \$0-Tempo-rcv;
#X obj 376 319 makesymbol %s;
#X connect 1 0 3 0;
#X connect 2 0 0 0;
#X connect 3 0 20 0;
#X connect 4 0 6 0;
#X connect 5 0 35 0;
#X connect 6 0 21 0;
#X connect 7 0 30 0;
#X connect 9 0 10 0;
#X connect 10 0 19 0;
#X connect 11 0 2 0;
#X connect 12 0 2 0;
#X connect 13 0 2 0;
#X connect 14 0 2 0;
#X connect 15 0 2 0;
#X connect 16 0 2 0;
#X connect 17 0 2 0;
#X connect 18 0 2 0;
#X connect 19 0 1 0;
#X connect 20 0 11 0;
#X connect 20 1 12 0;
#X connect 20 2 13 0;
#X connect 20 3 14 0;
#X connect 20 4 15 0;
#X connect 20 5 16 0;
#X connect 20 6 17 0;
#X connect 20 7 18 0;
#X connect 21 0 22 0;
#X connect 21 1 23 0;
#X connect 21 2 24 0;
#X connect 21 3 25 0;
#X connect 21 4 26 0;
#X connect 21 5 27 0;
#X connect 21 6 28 0;
#X connect 21 7 29 0;
#X connect 22 0 5 0;
#X connect 23 0 5 0;
#X connect 24 0 5 0;
#X connect 25 0 5 0;
#X connect 26 0 5 0;
#X connect 27 0 5 0;
#X connect 28 0 5 0;
#X connect 29 0 5 0;
#X connect 30 0 4 0;
#X connect 31 0 32 0;
#X connect 33 0 34 0;
#X connect 35 0 31 0;
#X restore 87 114 pd Vitesse;
#N canvas 1744 689 740 507 trig 0;
#X obj 160 67 outlet;
#X obj 160 -97 NDmetro;
#X obj 160 44 sel 0;
#X obj 147 -207 spigot;
#X msg 264 -183 -1;
#X obj 265 -245 t f f;
#X obj 264 -206 sel 0;
#X msg 216 -209 \$2 \$1;
#X obj 216 -185 /;
#X obj 205 -128 pack 1 1;
#X obj 216 -162 t b f;
#X obj 161 9 tabread \$0-tt;
#X obj 399 -181 s \$0-tt;
#X msg 371 -248 8 0 1 0 1 0 0 1 0;
#X obj 161 -51 + 1;
#X obj 279 -43 tabread \$0-tt;
#X msg 279 -65 0;
#X obj 371 -223 t b a;
#X obj 183 -280 inlet ND;
#X obj 109 61 bng 15 250 50 0 empty empty empty 17 7 0 10 -262144 -1
-1;
#X obj 80 -155 bng 15 250 50 0 empty empty empty 17 7 0 10 -262144
-1 -1;
#X obj 341 -208 tgl 15 0 empty empty empty 17 7 0 10 -262144 -1 -1
1 1;
#X floatatom 308 -5 5 0 0 0 - - -, f 5;
#X floatatom 95 22 5 0 0 0 - - -, f 5;
#X msg 306 -99 set \$1;
#X symbolatom 510 -43 0 0 0 0 - - -;
#X obj 499 -115 change;
#X obj 499 -158 + 0.5;
#X obj 499 -136 i;
#X obj 499 -183 * 8;
#X floatatom 499 -92 5 0 0 0 - - -, f 5;
#X obj 279 -121 t b s;
#X obj 371 -160 symbol \$0-tt;
#X obj 374 -128 table \$0-tt 64;
#X obj 147 -239 r SYNCHRO-clock;
#X floatatom 89 -65 5 0 0 0 - - -, f 5;
#X floatatom 283 -151 5 0 0 0 - - -, f 5;
#X obj 265 -266 r \$0-onoff;
#X floatatom 116 105 5 0 0 0 - - -, f 5;
#X floatatom 49 -27 5 0 0 0 - - -, f 5;
#X obj 398 -202 list prepend O;
#X obj 500 -69 makesymbol \$1-STEP-seq%s;
#X obj 506 -13 table \$1-STEP-seq0 64;
#X obj 506 7 table \$1-STEP-seq1 64;
#X obj 505 27 table \$1-STEP-seq2 64;
#X obj 505 47 table \$1-STEP-seq3 64;
#X obj 505 67 table \$1-STEP-seq4 64;
#X obj 505 87 table \$1-STEP-seq5 64;
#X obj 504 107 table \$1-STEP-seq6 64;
#X obj 504 127 table \$1-STEP-seq7 64;
#X obj 504 149 table \$1-STEP-seq8 64;
#X obj 131 -85 bng 15 250 50 0 empty empty empty 17 7 0 10 -262144
-1 -1;
#X obj 597 -106 s \$1-STEP-seq0;
#X obj 597 -162 loadbang;
#X msg 597 -137 const 1 \, 0 64 \, 1 0;
#X obj 498 -250 r \$1-Phrases;
#X obj 514 -228 r \$1-Phrases_max;
#X obj 251 124 s \$1-toNet;
#X obj 166 -26 t f f;
#X obj 221 55 pack f f;
#X obj 219 34 == 0;
#X msg 215 83 step \$2 \$1;
#X msg 291 81 nd \$2 \$1;
#X floatatom 554 -176 5 0 0 0 - - -, f 5;
#X floatatom 551 -200 5 0 0 0 - - -, f 5;
#X obj 500 -206 m 1;
#X obj 160 -73 spigot;
#X obj 219 -98 unpack f f;
#X obj 218 -77 != 0;
#N canvas 684 128 460 394 calctab 0;
#X obj 154 5 inlet;
#X obj 178 131 tabread \$0-tt;
#X msg 188 52 set \$1;
#X msg 171 81 1 \, 2 \, 3 \, 4 \, 5 \, 6 \, 7 \, 8 \, 9 \, 10;
#X obj 153 26 t b b s b;
#X obj 171 104 t f f;
#X obj 193 153 - 1;
#X obj 178 173 <<;
#X obj 179 198 +;
#X obj 208 198 f;
#X msg 222 174 0;
#X obj 167 223 f;
#X obj 167 246 outlet;
#X connect 0 0 4 0;
#X connect 1 0 7 0;
#X connect 2 0 1 0;
#X connect 3 0 5 0;
#X connect 4 0 11 0;
#X connect 4 1 3 0;
#X connect 4 2 2 0;
#X connect 4 3 10 0;
#X connect 5 0 1 0;
#X connect 5 1 6 0;
#X connect 6 0 7 1;
#X connect 7 0 8 0;
#X connect 8 0 9 0;
#X connect 8 0 11 1;
#X connect 9 0 8 1;
#X connect 10 0 9 0;
#X connect 11 0 12 0;
#X restore 367 68 pd calctab;
#X msg 367 89 tab \$1;
#X connect 1 0 66 0;
#X connect 2 0 0 0;
#X connect 3 0 1 0;
#X connect 3 0 35 0;
#X connect 4 0 1 0;
#X connect 5 0 6 0;
#X connect 5 1 3 1;
#X connect 5 1 21 0;
#X connect 6 0 4 0;
#X connect 7 0 8 0;
#X connect 8 0 10 0;
#X connect 9 0 1 1;
#X connect 10 0 9 0;
#X connect 10 1 9 1;
#X connect 10 1 36 0;
#X connect 11 0 2 0;
#X connect 11 0 38 0;
#X connect 11 0 60 0;
#X connect 13 0 17 0;
#X connect 14 0 23 0;
#X connect 14 0 58 0;
#X connect 15 0 22 0;
#X connect 16 0 15 0;
#X connect 17 0 32 0;
#X connect 17 1 40 0;
#X connect 18 0 1 1;
#X connect 18 0 62 0;
#X connect 18 0 67 0;
#X connect 24 0 15 0;
#X connect 24 0 11 0;
#X connect 26 0 30 0;
#X connect 27 0 28 0;
#X connect 28 0 26 0;
#X connect 29 0 27 0;
#X connect 30 0 41 0;
#X connect 31 0 16 0;
#X connect 31 1 24 0;
#X connect 34 0 3 0;
#X connect 37 0 5 0;
#X connect 40 0 12 0;
#X connect 41 0 25 0;
#X connect 41 0 31 0;
#X connect 41 0 69 0;
#X connect 53 0 54 0;
#X connect 54 0 52 0;
#X connect 55 0 65 0;
#X connect 56 0 64 0;
#X connect 56 0 65 1;
#X connect 58 0 11 0;
#X connect 58 1 59 1;
#X connect 59 0 61 0;
#X connect 60 0 59 0;
#X connect 61 0 57 0;
#X connect 62 0 57 0;
#X connect 65 0 29 0;
#X connect 66 0 14 0;
#X connect 67 0 68 0;
#X connect 68 0 66 1;
#X connect 69 0 70 0;
#X connect 70 0 57 0;
#X restore 87 162 pd trig;
#N canvas 2096 641 313 391 vitesse_push 0;
#X obj 56 278 outlet;
#X obj 74 11 inlet;
#X obj 132 93 ++;
#X obj 147 66 * 2;
#X obj 132 160 ++;
#X obj 147 139 * 3;
#X obj 147 206 * 4;
#X obj 132 230 ++;
#X obj 74 221 t b f;
#X obj 56 253 pack f 1;
#X floatatom 132 265 5 0 0 0 - - -, f 5;
#X obj 169 342 s \$1-STEPnum;
#X obj 201 248 loadbang;
#X msg 206 305 8;
#X obj 132 11 r \$1-s1;
#X obj 147 43 r \$1-s2;
#X obj 147 114 r \$1-s3;
#X obj 146 183 r \$1-s4;
#X obj 185 284 t b;
#X connect 1 0 8 0;
#X connect 2 0 4 0;
#X connect 3 0 2 1;
#X connect 4 0 7 0;
#X connect 5 0 4 1;
#X connect 6 0 7 1;
#X connect 7 0 10 0;
#X connect 7 0 18 0;
#X connect 8 0 9 0;
#X connect 8 1 9 1;
#X connect 9 0 0 0;
#X connect 12 0 13 0;
#X connect 13 0 11 0;
#X connect 13 0 9 0;
#X connect 14 0 2 0;
#X connect 15 0 3 0;
#X connect 16 0 5 0;
#X connect 17 0 6 0;
#X connect 18 0 13 0;
#X restore 87 137 pd vitesse_push;
#X obj 5 237 s \$1-lvert;
#X obj 142 236 bng 15 250 50 0 empty empty empty 17 7 0 10 -262144
-1 -1;
#X obj 40 199 bng 15 250 50 0 empty empty empty 17 7 0 10 -262144 -1
-1;
#X obj 26 96 s \$0-onoff;
#X obj 26 79 tgl 15 1 empty empty empty 17 7 0 10 -262144 -1 -1 1 1
;
#X obj 67 406 *~ 3;
#X connect 0 0 5 0;
#X connect 1 0 0 0;
#X connect 5 0 30 0;
#X connect 6 0 5 1;
#X connect 7 0 12 0;
#X connect 8 0 7 0;
#X connect 9 0 6 0;
#X connect 10 0 6 1;
#X connect 11 0 3 0;
#X connect 11 0 4 0;
#X connect 13 0 20 0;
#X connect 14 0 13 0;
#X connect 17 0 15 0;
#X connect 18 0 17 0;
#X connect 19 0 17 1;
#X connect 21 0 25 0;
#X connect 21 0 0 1;
#X connect 21 0 26 0;
#X connect 22 0 24 0;
#X connect 23 0 21 0;
#X connect 23 0 27 0;
#X connect 24 0 23 0;
#X connect 29 0 28 0;
#X connect 30 0 2 0;
#X restore 51 116 pd son;
#X obj 146 37 KEPface \$1;
#X obj 202 529 table \$0-t1 400000;
#X obj 202 547 table \$0-t2 400000;
#X obj 202 564 table \$0-t3 400000;
#X obj 202 581 table \$0-t4 400000;
#N canvas 1976 556 598 555 rec 0;
#X obj 11 510 tabwrite~ \$0-t1;
#X obj 69 456 timer;
#X obj 62 478 s \$0-len1;
#X msg 27 477 stop;
#X obj 28 408 sel 1 0;
#X obj 11 236 r~ \$0-in;
#X obj 187 468 timer;
#X msg 149 491 stop;
#X obj 149 411 sel 1 0;
#X obj 132 239 r~ \$0-in;
#X obj 307 469 timer;
#X msg 269 492 stop;
#X obj 269 412 sel 1 0;
#X obj 252 240 r~ \$0-in;
#X obj 428 472 timer;
#X msg 390 495 stop;
#X obj 390 415 sel 1 0;
#X obj 373 243 r~ \$0-in;
#X obj 184 492 s \$0-len2;
#X obj 133 524 tabwrite~ \$0-t2;
#X obj 304 493 s \$0-len3;
#X obj 253 525 tabwrite~ \$0-t3;
#X obj 425 496 s \$0-len4;
#X obj 374 528 tabwrite~ \$0-t4;
#X obj 28 336 pipe;
#X obj 51 316 r DSPLatency;
#X obj 149 346 pipe;
#X obj 172 326 r DSPLatency;
#X obj 269 345 pipe;
#X obj 292 325 r DSPLatency;
#X obj 389 348 pipe;
#X obj 412 328 r DSPLatency;
#X floatatom 81 347 5 0 0 0 - - -, f 5;
#X obj 28 274 r \$0-dorec1;
#X obj 149 285 r \$0-dorec2;
#X obj 269 286 r \$0-dorec3;
#X obj 389 285 r \$0-dorec4;
#X obj 28 296 change;
#X obj 149 308 change;
#X obj 269 308 change;
#X obj 389 310 change;
#X obj 56 184 s \$0-dorec1;
#X obj 138 185 s \$0-dorec2;
#X obj 221 185 s \$0-dorec3;
#X obj 306 187 s \$0-dorec4;
#X obj 413 87 sel 0;
#X msg 413 107 0;
#X obj 55 116 spigot;
#X obj 109 116 spigot;
#X obj 162 115 spigot;
#X obj 216 115 spigot;
#X obj 28 455 del 2;
#X obj 149 468 del 2;
#X obj 269 471 del 2;
#X obj 391 472 del 2;
#X obj 12 380 mull~ 0 1;
#X obj 133 382 mull~ 0 1;
#X obj 252 381 mull~ 0 1;
#X obj 373 381 mull~ 0 1;
#X obj 30 33 r \$1-s1;
#X obj 118 34 r \$1-s2;
#X obj 293 35 r \$1-s4;
#X obj 392 22 r \$1-REC;
#X obj 204 34 r \$1-s3;
#X connect 1 0 2 0;
#X connect 3 0 0 0;
#X connect 4 0 1 0;
#X connect 4 0 0 0;
#X connect 4 1 51 0;
#X connect 5 0 55 0;
#X connect 6 0 18 0;
#X connect 7 0 19 0;
#X connect 8 0 6 0;
#X connect 8 0 19 0;
#X connect 8 1 52 0;
#X connect 9 0 56 0;
#X connect 10 0 20 0;
#X connect 11 0 21 0;
#X connect 12 0 10 0;
#X connect 12 0 21 0;
#X connect 12 1 53 0;
#X connect 13 0 57 0;
#X connect 14 0 22 0;
#X connect 15 0 23 0;
#X connect 16 0 14 0;
#X connect 16 0 23 0;
#X connect 16 1 54 0;
#X connect 17 0 58 0;
#X connect 24 0 4 0;
#X connect 24 0 55 1;
#X connect 25 0 24 1;
#X connect 25 0 32 0;
#X connect 26 0 8 0;
#X connect 26 0 56 1;
#X connect 27 0 26 1;
#X connect 28 0 12 0;
#X connect 28 0 57 1;
#X connect 29 0 28 1;
#X connect 30 0 16 0;
#X connect 30 0 58 1;
#X connect 31 0 30 1;
#X connect 33 0 37 0;
#X connect 34 0 38 0;
#X connect 35 0 39 0;
#X connect 36 0 40 0;
#X connect 37 0 24 0;
#X connect 38 0 26 0;
#X connect 39 0 28 0;
#X connect 40 0 30 0;
#X connect 45 0 46 0;
#X connect 46 0 44 0;
#X connect 46 0 43 0;
#X connect 46 0 42 0;
#X connect 46 0 41 0;
#X connect 47 0 41 0;
#X connect 48 0 42 0;
#X connect 49 0 43 0;
#X connect 50 0 44 0;
#X connect 51 0 3 0;
#X connect 51 0 1 1;
#X connect 52 0 7 0;
#X connect 52 0 6 1;
#X connect 53 0 11 0;
#X connect 53 0 10 1;
#X connect 54 0 15 0;
#X connect 54 0 14 1;
#X connect 55 0 0 0;
#X connect 56 0 19 0;
#X connect 57 0 21 0;
#X connect 58 0 23 0;
#X connect 59 0 47 0;
#X connect 60 0 48 0;
#X connect 61 0 50 0;
#X connect 62 0 45 0;
#X connect 62 0 50 1;
#X connect 62 0 49 1;
#X connect 62 0 48 1;
#X connect 62 0 47 1;
#X connect 63 0 49 0;
#X restore 129 536 pd rec;
#N canvas 2100 606 450 465 keyboardmono 0;
#X obj 113 36 tgl 15 0 empty empty empty 17 7 0 10 -262144 -1 -1 0
1;
#X obj 131 37 tgl 15 0 empty empty empty 17 7 0 10 -262144 -1 -1 0
1;
#X obj 149 37 tgl 15 0 empty empty empty 17 7 0 10 -262144 -1 -1 0
1;
#X obj 169 37 tgl 15 0 empty empty empty 17 7 0 10 -262144 -1 -1 0
1;
#X obj 140 62 * 2;
#X obj 112 62 * 1;
#X obj 204 83 t b f;
#X obj 199 105 +;
#X obj 156 111 t b f;
#X obj 151 133 +;
#X obj 111 130 t b f;
#X obj 95 153 +;
#X obj 175 62 * 4;
#X obj 210 62 * 8;
#X obj 95 174 sel 0;
#X obj 122 195 t b f;
#X obj 122 236 f;
#X msg 88 197 stop;
#X obj 122 216 del 25;
#X msg 63 217 -1;
#X obj 122 281 s \$0-keyboardmono;
#X obj 194 257 == 0;
#X obj 121 257 spigot 1;
#X obj 112 -57 r \$1-s1;
#X obj 129 -31 r \$1-s2;
#X obj 148 -12 r \$1-s3;
#X obj 169 7 r \$1-s4;
#X obj 195 229 r \$1-REC;
#X connect 0 0 5 0;
#X connect 1 0 4 0;
#X connect 2 0 12 0;
#X connect 3 0 13 0;
#X connect 4 0 9 0;
#X connect 5 0 11 0;
#X connect 6 0 7 0;
#X connect 6 1 7 1;
#X connect 7 0 8 0;
#X connect 8 0 9 0;
#X connect 8 1 9 1;
#X connect 9 0 10 0;
#X connect 10 0 11 0;
#X connect 10 1 11 1;
#X connect 11 0 14 0;
#X connect 12 0 7 0;
#X connect 13 0 6 0;
#X connect 14 0 17 0;
#X connect 14 0 19 0;
#X connect 14 1 15 0;
#X connect 15 0 18 0;
#X connect 15 1 16 1;
#X connect 16 0 22 0;
#X connect 17 0 18 0;
#X connect 18 0 16 0;
#X connect 19 0 16 0;
#X connect 21 0 22 1;
#X connect 22 0 20 0;
#X connect 23 0 0 0;
#X connect 24 0 1 0;
#X connect 25 0 2 0;
#X connect 26 0 3 0;
#X connect 27 0 21 0;
#X restore 85 576 pd keyboardmono;
#X obj 55 156 cnv 15 336 250 \$1-seq0-STEPcan-snd \$1-seq0-STEPcan-rcv
empty 20 12 0 14 -42246 -233017 0;
#X obj 61 162 STEPseq \$1 seq1;
#X obj 226 162 STEPseq \$1 seq2;
#X obj 61 223 STEPseq \$1 seq3;
#X obj 226 223 STEPseq \$1 seq4;
#X obj 61 284 STEPseq \$1 seq5;
#X obj 226 284 STEPseq \$1 seq6;
#X obj 60 345 STEPseq \$1 seq7;
#X obj 226 345 STEPseq \$1 seq8;
#N canvas 1281 517 262 382 sel_color_STEP 0;
#X obj 52 -96 change;
#X obj 52 -142 + 0.5;
#X obj 52 -120 i;
#X obj 52 -167 * 8;
#X obj 103 -76 STEPcolor \$1 0;
#X obj 102 -54 STEPcolor \$1 1;
#X obj 103 -32 STEPcolor \$1 2;
#X obj 103 -10 STEPcolor \$1 3;
#X obj 104 12 STEPcolor \$1 4;
#X obj 104 35 STEPcolor \$1 5;
#X obj 103 57 STEPcolor \$1 6;
#X obj 104 79 STEPcolor \$1 7;
#X obj 105 103 STEPcolor \$1 8;
#X obj 51 -234 r \$1-Phrases;
#X obj 67 -212 r \$1-Phrases_max;
#X floatatom 128 -171 5 0 0 0 - - -, f 5;
#X obj 52 -189 m 1;
#X connect 0 0 4 0;
#X connect 0 0 5 0;
#X connect 0 0 6 0;
#X connect 0 0 7 0;
#X connect 0 0 8 0;
#X connect 0 0 9 0;
#X connect 0 0 10 0;
#X connect 0 0 11 0;
#X connect 0 0 12 0;
#X connect 1 0 2 0;
#X connect 2 0 0 0;
#X connect 2 0 15 0;
#X connect 3 0 1 0;
#X connect 13 0 16 0;
#X connect 14 0 16 1;
#X connect 16 0 3 0;
#X restore 70 422 pd sel_color_STEP;
#X obj 190 624 Instru2Net \$1;
#X obj 4 100 MASTERtypeOUT \$1 1;
#X obj 8 662 KEPCommon \$1 \$0;
#X obj 4 13 MASTERtypeIN \$1 1 \$0;
#X connect 2 0 27 0;
#X connect 3 0 27 1;
#X connect 5 0 6 0;
#X connect 7 0 26 0;
#X connect 28 0 7 0;
#X coords 0 -1 1 1 42 656 2 0 0;
