#N canvas 170 108 800 689 10;
#X obj 1 1 cnv 15 40 654 empty empty \$1 1 5 1 8 -257985 -1 0;
#X text -27 -26 KEPtype nomUnique;
#X obj 7 643 bng 10 250 50 0 empty empty empty 17 7 0 10 -4034 -1 -1
;
#X obj 24 643 bng 10 250 50 0 empty empty empty 17 7 0 10 -258113 -1
-1;
#N canvas 2705 339 343 661 KEPboutons 0;
#X obj 35 285 KEPbus \$1 l1 -l1- tl1;
#X obj 35 308 KEPbus \$1 l2 -l2- tl2;
#X obj 37 330 KEPbus \$1 l3 -l3- tl3;
#X obj 37 351 KEPbus \$1 l4 -l4- tl4;
#X obj 32 376 KEPbus \$1 lR -lR- tlREC;
#X obj 193 283 KEPbus \$1 lr -lr- lrouge;
#X obj 193 306 KEPbus \$1 lv -lv- lvert;
#X obj 32 251 KEPbus \$1 P0 SnR tREC;
#X obj 26 55 KEPbus \$1 PalinMesure Mode b2;
#X obj 27 34 KEPbus \$1 Denum -FragDenum b1;
#X obj 31 163 KEPbus \$1 Sa1 Rec1 t1;
#X obj 32 184 KEPbus \$1 Sa2 Rec2 t2;
#X obj 32 205 KEPbus \$1 Sa3 Rec3 t3;
#X obj 33 227 KEPbus \$1 Sa4 Rec4 t4;
#X obj 26 78 KEPbus \$1 Effet Amorti b3;
#X obj 25 100 KEPbus \$1 Pitch Constance b4;
#X obj 24 122 KEPbus \$1 Volume Volume b5;
#X restore 119 684 pd KEPboutons;
#N canvas 923 433 443 335 son 1;
#N canvas 679 79 662 689 ALLSOUND 0;
#X obj 15 700 outlet~;
#X msg 269 170 time \$1;
#X msg 357 149 feed \$1;
#N canvas 1649 298 572 524 time 0;
#X obj 275 345 unpack;
#X obj 213 377 m 1000;
#X obj 213 426 outlet;
#X obj 183 152 i;
#X obj 183 177 change -1;
#X obj 213 399 change -1;
#X floatatom 309 407 5 0 0 0 - - -, f 5;
#X obj 213 348 /;
#X floatatom 312 456 5 0 0 0 - - -, f 5;
#X obj 183 130 * 11.9;
#N canvas 0 50 547 300 choix 0;
#X obj 75 51 inlet;
#X obj 190 273 outlet;
#X obj 190 237 t a;
#X msg 251 151 1 1;
#X msg 311 150 2 3;
#X msg 339 149 1 2;
#X msg 368 149 1 3;
#X msg 399 148 1 4;
#X msg 429 149 1 6;
#X msg 458 149 1 8;
#X msg 282 151 3 4;
#X obj 75 86 sel 0 1 2 3 4 5 6 7 8 9 10 11 12 13 14 15 16;
#X msg 489 149 1 16;
#X msg 11 157 8 1;
#X msg 44 157 6 1;
#X msg 74 156 4 1;
#X msg 102 155 3 1;
#X msg 129 153 2 1;
#X msg 221 152 1 1;
#X msg 190 153 4 3;
#X msg 159 154 2 1;
#X connect 0 0 11 0;
#X connect 2 0 1 0;
#X connect 3 0 2 0;
#X connect 4 0 2 0;
#X connect 5 0 2 0;
#X connect 6 0 2 0;
#X connect 7 0 2 0;
#X connect 8 0 2 0;
#X connect 9 0 2 0;
#X connect 10 0 2 0;
#X connect 11 0 13 0;
#X connect 11 1 14 0;
#X connect 11 2 15 0;
#X connect 11 3 16 0;
#X connect 11 4 17 0;
#X connect 11 5 20 0;
#X connect 11 6 19 0;
#X connect 11 7 18 0;
#X connect 11 8 3 0;
#X connect 11 9 10 0;
#X connect 11 10 4 0;
#X connect 11 11 5 0;
#X connect 11 12 6 0;
#X connect 11 13 7 0;
#X connect 11 14 8 0;
#X connect 11 15 9 0;
#X connect 11 16 12 0;
#X connect 12 0 2 0;
#X connect 13 0 2 0;
#X connect 14 0 2 0;
#X connect 15 0 2 0;
#X connect 16 0 2 0;
#X connect 17 0 2 0;
#X connect 18 0 2 0;
#X connect 19 0 2 0;
#X connect 20 0 2 0;
#X restore 183 211 pd choix;
#X obj 113 308 NDmetro;
#X obj 183 270 t a a;
#X obj 113 254 t a a;
#X obj 113 330 sel 0;
#X obj 113 432 outlet;
#X obj 43 314 bng 15 250 50 0 empty empty empty 0 -6 0 8 -262144 -1
-1;
#X obj 36 417 s \$0-LED;
#X obj 60 182 r SYNCHRO-clock;
#N canvas 571 333 316 462 Vitesse 0;
#X obj 140 365 outlet;
#X obj 102 96 i;
#X obj 150 324 t a;
#X obj 99 131 change -1;
#X obj 66 319 bng 15 250 50 0 empty empty empty 17 7 0 10 -262144 -1
-1;
#X obj 102 6 r \$0-Tempo-snd;
#X msg 48 185 1;
#X msg 81 205 2;
#X msg 111 221 3;
#X msg 133 198 4;
#X msg 153 228 6;
#X msg 169 196 8;
#X msg 183 221 12;
#X msg 215 235 16;
#X obj 99 154 sel 0 1 2 3 4 5 6 7;
#X msg 189 375 label \$1;
#X obj 189 396 s \$0-Tempo-rcv;
#X msg 189 375 label \$1;
#X obj 189 396 s \$0-Tempo-rcv;
#X obj 189 354 makesymbol %s;
#X obj 102 51 abs;
#X floatatom 233 103 5 0 0 0 - - -, f 5;
#X obj 102 76 * 7.9;
#X obj 102 27 - 1;
#X obj 199 36 r \$1-Vitesse;
#X floatatom 200 71 5 0 0 0 - - -, f 5;
#X floatatom 33 59 5 0 0 0 - - -, f 5;
#X connect 1 0 3 0;
#X connect 1 0 21 0;
#X connect 2 0 0 0;
#X connect 2 0 19 0;
#X connect 3 0 14 0;
#X connect 5 0 23 0;
#X connect 6 0 2 0;
#X connect 7 0 2 0;
#X connect 8 0 2 0;
#X connect 9 0 2 0;
#X connect 10 0 2 0;
#X connect 11 0 2 0;
#X connect 12 0 2 0;
#X connect 13 0 2 0;
#X connect 14 0 6 0;
#X connect 14 1 7 0;
#X connect 14 2 8 0;
#X connect 14 3 9 0;
#X connect 14 4 10 0;
#X connect 14 5 11 0;
#X connect 14 6 12 0;
#X connect 14 7 13 0;
#X connect 15 0 16 0;
#X connect 17 0 18 0;
#X connect 19 0 15 0;
#X connect 20 0 22 0;
#X connect 22 0 1 0;
#X connect 23 0 20 0;
#X connect 24 0 25 0;
#X restore 336 55 pd Vitesse;
#X obj 183 95 r \$0-Tempo;
#X obj 336 77 pack f 1;
#X floatatom 365 169 5 0 0 0 - - -, f 5;
#X floatatom 105 220 5 0 0 0 - - -, f 5;
#X connect 0 1 1 1;
#X connect 1 0 5 0;
#X connect 3 0 4 0;
#X connect 4 0 10 0;
#X connect 5 0 2 0;
#X connect 7 0 1 0;
#X connect 9 0 3 0;
#X connect 11 0 14 0;
#X connect 12 0 11 1;
#X connect 12 1 7 0;
#X connect 13 0 11 0;
#X connect 13 1 0 0;
#X connect 14 0 15 0;
#X connect 14 0 16 0;
#X connect 14 0 17 0;
#X connect 18 0 13 0;
#X connect 18 0 23 0;
#X connect 19 0 21 0;
#X connect 19 0 22 0;
#X connect 20 0 9 0;
#X connect 21 0 12 0;
#X restore 230 150 pd time;
#X obj 26 226 hip~ 10;
#X obj 73 391 *~;
#X obj 89 348 mull~ 0 3;
#X obj 169 288 mknob 25 100 0 1 0 0 \$1-Mul1-snd \$1-Mul1-rcv Mul1
-2 -6 1 8 -33289 -62784 -62784 3000 1;
#X obj 125 383 sig~ 1;
#X obj 159 350 -;
#X msg 159 329 1 \$1;
#X obj 74 300 dist~ 1;
#X obj 250 360 mknob 25 100 0 1 0 0 \$1-VolAdj-snd \$1-VolAdj-rcv VolAdj
-2 -6 1 8 -33289 -62784 -62784 7900 1;
#X obj 64 561 * 3;
#X msg 230 170 tic;
#X obj 217 371 m;
#X obj 217 263 unpack f f;
#X obj 217 283 != -1;
#X obj 217 349 ||;
#X obj 302 328 tgl 15 0 empty empty empty 0 -6 0 8 -262144 -1 -1 1
1;
#X obj 302 308 sel 1;
#X obj 25 581 mull~ 0.7 1;
#X obj 118 328 * 10;
#N canvas 433 654 190 272 vol-direct 0;
#X msg 102 74 1 \$1;
#X obj 72 203 outlet;
#X obj 102 156 spigot;
#X obj 102 133 f;
#X obj 57 82 t b f;
#X obj 23 130 sel 0;
#X msg 23 149 1;
#X obj 23 28 r \$1-REC-snd;
#X obj 102 53 inlet;
#X floatatom 136 231 5 0 0 0 - - -, f 5;
#X obj 102 110 *;
#X connect 0 0 10 0;
#X connect 2 0 1 0;
#X connect 2 0 9 0;
#X connect 3 0 2 0;
#X connect 4 0 3 0;
#X connect 4 1 2 1;
#X connect 5 0 6 0;
#X connect 6 0 1 0;
#X connect 7 0 5 0;
#X connect 7 0 4 0;
#X connect 8 0 0 0;
#X connect 10 0 3 0;
#X restore 96 198 pd vol-direct;
#X obj 226 324 t b f;
#X obj 302 288 change;
#X obj 94 220 * 2;
#X obj 213 392 tgl 15 0 empty empty empty 17 7 0 10 -262144 -1 -1 0.79798
0.79798;
#X obj 198 57 inlet~;
#X obj 23 9 param \$1 FX Mul1;
#X obj 217 243 r SYNCHRO-clock;
#N canvas 2812 854 226 221 Feedback-val 0;
#X obj 49 92 m 1;
#X obj 49 144 outlet;
#X obj 49 51 r \$1-Feedback;
#X obj 64 71 r \$1-Feedback_max;
#X connect 0 0 1 0;
#X connect 2 0 0 0;
#X connect 3 0 0 1;
#X restore 357 120 pd Feedback-val;
#X obj 302 268 r \$1-tSHIFT-snd;
#X obj 23 30 param \$1 FX VolAdj;
#X obj 205 107 r \$1-Dir-in;
#X obj 386 40 tgl 15 0 empty empty empty 17 7 0 10 -262144 -1 -1 0
1;
#X obj 295 204 r \$1-Sa1;
#X obj 276 689 outlet~;
#X obj 26 204 *~ 0.1;
#N canvas 0 961 450 300 LedSa 0;
#X obj 16 62 r \$1-Sa1;
#X obj 16 108 s \$1-tl1-rcv;
#N canvas 465 729 225 296 (subpatch) 0;
#X obj 99 23 inlet;
#X obj 99 48 t b f;
#X obj 159 116 outlet;
#X msg 68 112 0;
#X obj 60 175 s \$1-tl2-rcv;
#X obj 76 199 s \$1-tl3-rcv;
#X obj 96 220 s \$1-tl4-rcv;
#X connect 0 0 1 0;
#X connect 1 0 3 0;
#X connect 1 1 2 0;
#X connect 3 0 4 0;
#X connect 3 0 5 0;
#X connect 3 0 6 0;
#X restore 16 86 pd;
#N canvas 462 755 225 296 (subpatch) 0;
#X obj 99 23 inlet;
#X obj 99 48 t b f;
#X obj 159 116 outlet;
#X msg 68 112 0;
#X obj 76 199 s \$1-tl3-rcv;
#X obj 96 220 s \$1-tl4-rcv;
#X obj 60 175 s \$1-tl1-rcv;
#X connect 0 0 1 0;
#X connect 1 0 3 0;
#X connect 1 1 2 0;
#X connect 3 0 6 0;
#X connect 3 0 4 0;
#X connect 3 0 5 0;
#X restore 109 86 pd;
#X obj 109 62 r \$1-Sa2;
#X obj 109 108 s \$1-tl2-rcv;
#N canvas 465 729 225 296 (subpatch) 0;
#X obj 99 23 inlet;
#X obj 99 48 t b f;
#X obj 159 116 outlet;
#X msg 68 112 0;
#X obj 60 175 s \$1-tl2-rcv;
#X obj 96 220 s \$1-tl4-rcv;
#X obj 76 199 s \$1-tl1-rcv;
#X connect 0 0 1 0;
#X connect 1 0 3 0;
#X connect 1 1 2 0;
#X connect 3 0 4 0;
#X connect 3 0 6 0;
#X connect 3 0 5 0;
#X restore 206 88 pd;
#N canvas 465 729 225 296 (subpatch) 0;
#X obj 99 23 inlet;
#X obj 99 48 t b f;
#X obj 159 116 outlet;
#X msg 68 112 0;
#X obj 76 199 s \$1-tl3-rcv;
#X obj 60 175 s \$1-tl1-rcv;
#X obj 96 220 s \$1-tl2-rcv;
#X connect 0 0 1 0;
#X connect 1 0 3 0;
#X connect 1 1 2 0;
#X connect 3 0 5 0;
#X connect 3 0 4 0;
#X connect 3 0 6 0;
#X restore 299 88 pd;
#X obj 206 64 r \$1-Sa3;
#X obj 206 110 s \$1-tl3-rcv;
#X obj 299 64 r \$1-Sa4;
#X obj 299 110 s \$1-tl4-rcv;
#X connect 0 0 2 0;
#X connect 2 0 1 0;
#X connect 3 0 5 0;
#X connect 4 0 3 0;
#X connect 6 0 9 0;
#X connect 7 0 11 0;
#X connect 8 0 6 0;
#X connect 10 0 7 0;
#X restore 308 6 pd LedSa;
#N canvas 5 576 226 296 OnDec 0;
#X obj 65 25 r \$1-Sa1;
#X obj 83 47 r \$1-Sa2;
#X obj 83 92 r \$1-Sa3;
#X obj 83 134 r \$1-Sa4;
#X obj 65 72 ++;
#X obj 65 112 ++;
#X obj 65 156 ++;
#X obj 65 179 != 0;
#X obj 65 202 s \$1-fs1-on-rcv;
#X floatatom 16 214 5 0 0 0 - - -, f 5;
#X connect 0 0 4 0;
#X connect 1 0 4 1;
#X connect 2 0 5 1;
#X connect 3 0 6 1;
#X connect 4 0 5 0;
#X connect 5 0 6 0;
#X connect 6 0 7 0;
#X connect 6 0 9 0;
#X connect 7 0 8 0;
#X restore 302 28 pd OnDec;
#X obj 275 57 inlet~;
#N canvas 0 490 527 300 apf-etc 0;
#X obj 33 103 aptab \$1-SETTING SnapTirage \$1-SnapTirage 2;
#X obj 265 35 l apf \$1-SETTING Thresh \$1-Thresh 2;
#X obj 264 55 l apf \$1-SETTING THi \$1-THi 2;
#X obj 261 78 l apf \$1-SETTING TLow \$1-TLow 2;
#X obj 39 36 l apf \$1-SETTING Seuil \$1-Seuil 2;
#X obj 38 57 l apf \$1-SETTING Lmin \$1-Lmin 2;
#X obj 35 79 l apf \$1-SETTING Hmin \$1-Hmin 2;
#X restore 214 15 pd apf-etc;
#X obj 422 269 hip~ 10;
#X obj 421 422 *~;
#X obj 437 379 mull~ 0 3;
#X obj 473 414 sig~ 1;
#X obj 507 381 -;
#X msg 507 360 1 \$1;
#X obj 422 331 dist~ 1;
#X obj 195 556 * 3;
#X obj 156 576 mull~ 0.7 1;
#X obj 466 359 * 10;
#X obj 422 247 *~ 0.1;
#N canvas 433 654 190 272 vol-direct 0;
#X msg 102 74 1 \$1;
#X obj 72 203 outlet;
#X obj 102 156 spigot;
#X obj 102 133 f;
#X obj 57 82 t b f;
#X obj 23 130 sel 0;
#X msg 23 149 1;
#X obj 23 28 r \$1-REC-snd;
#X obj 102 53 inlet;
#X floatatom 136 231 5 0 0 0 - - -, f 5;
#X obj 102 110 *;
#X connect 0 0 10 0;
#X connect 2 0 1 0;
#X connect 2 0 9 0;
#X connect 3 0 2 0;
#X connect 4 0 3 0;
#X connect 4 1 2 1;
#X connect 5 0 6 0;
#X connect 6 0 1 0;
#X connect 7 0 5 0;
#X connect 7 0 4 0;
#X connect 8 0 0 0;
#X connect 10 0 3 0;
#X restore 514 225 pd vol-direct;
#X obj 512 247 * 2;
#X obj 407 20 l paramsym \$1 SETTING sample-1-file;
#X obj 407 41 l paramsym \$1 SETTING sample-2-file;
#X obj 407 61 l paramsym \$1 SETTING sample-3-file;
#X obj 407 81 l paramsym \$1 SETTING sample-4-file;
#X obj 463 122 paramsym;
#X obj 25 475 orfilter-ste \$1 FX ortho1;
#X obj 26 258 *~ 2;
#X obj 422 301 *~ 2;
#X connect 3 0 14 0;
#X connect 3 1 1 0;
#X connect 4 0 62 0;
#X connect 5 0 61 0;
#X connect 6 0 5 1;
#X connect 7 0 10 0;
#X connect 7 0 22 0;
#X connect 9 0 8 0;
#X connect 10 0 9 0;
#X connect 11 0 6 0;
#X connect 11 0 5 0;
#X connect 12 0 15 1;
#X connect 13 0 21 1;
#X connect 15 0 13 0;
#X connect 15 0 27 0;
#X connect 15 0 50 0;
#X connect 16 0 17 0;
#X connect 17 0 18 0;
#X connect 18 0 15 0;
#X connect 19 0 24 0;
#X connect 20 0 19 0;
#X connect 21 0 0 0;
#X connect 22 0 6 1;
#X connect 23 0 26 0;
#X connect 24 0 18 0;
#X connect 24 1 18 1;
#X connect 25 0 20 0;
#X connect 26 0 62 1;
#X connect 28 0 38 0;
#X connect 28 0 0 0;
#X connect 30 0 16 0;
#X connect 31 0 2 0;
#X connect 32 0 25 0;
#X connect 34 0 23 0;
#X connect 34 0 54 0;
#X connect 38 0 4 0;
#X connect 41 0 37 0;
#X connect 41 0 53 0;
#X connect 43 0 63 0;
#X connect 44 0 61 1;
#X connect 45 0 44 1;
#X connect 47 0 46 0;
#X connect 48 0 47 0;
#X connect 49 0 45 0;
#X connect 49 0 44 0;
#X connect 50 0 51 1;
#X connect 51 0 37 0;
#X connect 52 0 45 1;
#X connect 53 0 43 0;
#X connect 54 0 55 0;
#X connect 55 0 63 1;
#X connect 61 0 21 0;
#X connect 61 1 51 0;
#X connect 62 0 11 0;
#X connect 62 0 61 0;
#X connect 63 0 49 0;
#X connect 63 0 61 1;
#X restore 32 110 pd ALLSOUND;
#X obj 32 85 inlet~;
#X obj 17 284 outlet~;
#X obj 113 11 MORPHgroup \$1 FX;
#X floatatom 114 -25 5 0 0 0 - - -, f 5;
#X obj 32 182 Vmull~ 0 10;
#X obj 306 100 r SYNCHRO-clock;
#X obj 284 234 m;
#X obj 284 267 nbx 5 14 -1e+37 1e+37 0 0 \$0-Tempo-snd \$0-Tempo-rcv
16 5 -8 0 10 -262144 -1 -1 0 256;
#X obj 63 134 r \$1-Volume;
#X obj 284 189 r \$1-Vitesse;
#X obj 299 211 r \$1-Vitesse_max;
#X obj 114 -9 r \$1-Effet;
#X obj 93 228 Vmull~ 0 10;
#X obj 124 164 r \$1-Volume;
#X obj 88 283 outlet~;
#X obj 107 86 inlet~;
#X obj 186 121 print;
#X connect 0 0 5 0;
#X connect 0 1 13 0;
#X connect 1 0 0 0;
#X connect 5 0 2 0;
#X connect 7 0 8 0;
#X connect 9 0 5 1;
#X connect 10 0 7 0;
#X connect 11 0 7 1;
#X connect 12 0 3 0;
#X connect 12 0 4 0;
#X connect 13 0 15 0;
#X connect 14 0 13 1;
#X connect 16 0 0 1;
#X restore 156 325 pd son;
#X obj 4 100 MASTERtypeOUTstereo \$1 1;
#X obj 99 531 tgl 15 1 empty empty empty 17 7 0 10 -262144 -1 -1 1
1;
#X obj 98 556 s \$1-Ch;
#X text 49 600 Snapshot tirage : Double clic sur Palin = write SnR
= read se sauve en ap sur SETTING;
#X obj 7 669 KEPCommon \$1 \$0;
#X obj 160 15 KEPface \$1;
#X obj 4 12 MASTERtypeIN \$1 1 \$0;
#X obj 557 119 mull~ 1 10;
#X obj 601 92 s \$1-tlREC-rcv;
#X obj 588 69 r \$1-REC;
#X obj 191 270 ./Dec/0Dec \$1;
#X obj 391 167 tgl 15 1 empty empty empty 17 7 0 10 -262144 -1 -1 1
1;
#X obj 390 185 switch~;
#X obj 391 144 mainDSPswitch \$1;
#X obj 447 262 4samples \$1;
#X obj 664 184 t b;
#X obj 664 206 s \$1-lrouge;
#X obj 664 141 r TEMPOLED;
#X obj 664 162 sel 1;
#X connect 2 0 10 0;
#X connect 3 0 10 1;
#X connect 5 0 6 0;
#X connect 5 1 6 1;
#X connect 7 0 8 0;
#X connect 12 0 20 0;
#X connect 15 0 13 1;
#X connect 15 0 14 0;
#X connect 16 0 5 0;
#X connect 16 1 5 1;
#X connect 17 0 18 0;
#X connect 19 0 17 0;
#X connect 20 0 5 0;
#X connect 20 0 5 1;
#X connect 21 0 22 0;
#X connect 23 0 24 0;
#X connect 24 0 21 0;
#X coords 0 -1 1 1 42 656 2 0 0;
