#N canvas 20 313 672 455 10;
#X obj 34 33 inlet pwm;
#X obj 142 31 inlet speed;
#X obj 286 21 inlet servo;
#X msg 34 162 c \$2 i \$1;
#X obj 34 142 pack f \$2;
#X msg 142 180 c \$2 i \$1;
#X obj 142 158 pack f \$3;
#X msg 286 172 c \$3 c \$2 i \$1;
#X obj 286 149 pack f 0 \$4;
#X obj 142 78 i;
#X obj 142 99 change;
#X obj 286 55 i;
#X obj 286 77 change;
#X obj 142 120 speedlim 5;
#X obj 286 110 speedlim 5;
#X obj 432 75 t b b;
#X obj 430 102 timer;
#X floatatom 496 153 5 0 0 0 - - -;
#X obj 429 176 / 1275;
#X obj 431 51 route s2;
#X obj 428 203 moses 0.95;
#X floatatom 550 149 5 0 0 0 - - -;
#X obj 498 203 moses 1.05;
#X floatatom 523 279 5 0 0 0 - - -;
#X obj 174 54 t b f;
#X obj 142 54 * 1;
#X obj 430 151 mavg 20;
#X obj 142 230 fruit/send \$1;
#X obj 34 73 * 1023;
#X floatatom 250 224 5 0 0 0 - - -;
#X obj 430 28 fruit/receive \$1;
#X connect 0 0 28 0;
#X connect 1 0 25 0;
#X connect 2 0 11 0;
#X connect 3 0 27 0;
#X connect 4 0 3 0;
#X connect 5 0 27 0;
#X connect 6 0 5 0;
#X connect 7 0 27 0;
#X connect 8 0 7 0;
#X connect 9 0 10 0;
#X connect 10 0 13 0;
#X connect 11 0 12 0;
#X connect 12 0 14 0;
#X connect 13 0 6 0;
#X connect 14 0 8 0;
#X connect 14 0 29 0;
#X connect 15 0 16 0;
#X connect 15 1 16 1;
#X connect 16 0 17 0;
#X connect 16 0 26 0;
#X connect 18 0 20 0;
#X connect 18 0 21 0;
#X connect 19 0 15 0;
#X connect 20 1 22 0;
#X connect 22 0 23 0;
#X connect 22 0 24 0;
#X connect 24 0 25 0;
#X connect 24 1 25 1;
#X connect 25 0 9 0;
#X connect 26 0 18 0;
#X connect 28 0 4 0;
#X connect 30 0 19 0;
