#N canvas 355 499 959 579 10;
#X floatatom 47 373 5 0 1000 0 - - -, f 5;
#X obj 361 289 s \$0-smooth;
#X floatatom 318 232 5 0 10000 0 - - -, f 5;
#X obj 360 269 init 4;
#X obj 337 120 switch~;
#X floatatom 398 120 5 0 0 0 - - -, f 5;
#X obj 337 95 != 0;
#X obj 160 378 pow 2;
#X obj 318 210 pow 4;
#X obj 313 122 tgl 15 0 empty empty empty 20 8 0 8 -262144 -1 -1 0
1;
#N canvas 306 96 600 400 printmode 0;
#X obj 204 152 inlet;
#X obj 207 283 outlet;
#X msg 296 210 alea;
#X msg 335 211 palin;
#X obj 207 236 symbol;
#X msg 182 208 norm;
#X msg 236 209 revers;
#X msg 382 211 palin2;
#X obj 204 178 sel 0 1 2 3 4;
#X msg 207 259 label mode:\$1;
#X connect 0 0 8 0;
#X connect 2 0 4 0;
#X connect 3 0 4 0;
#X connect 4 0 9 0;
#X connect 5 0 4 0;
#X connect 6 0 4 0;
#X connect 7 0 4 0;
#X connect 8 0 5 0;
#X connect 8 1 6 0;
#X connect 8 2 2 0;
#X connect 8 3 3 0;
#X connect 8 4 7 0;
#X connect 9 0 1 0;
#X restore 386 350 pd printmode;
#X obj 92 24 change;
#X obj 146 69 change;
#X obj 213 102 *;
#X obj 118 138 *;
#X obj 121 113 t b f;
#N canvas 8 499 757 400 choice 0;
#X obj 159 200 i;
#X obj 185 200 + 1;
#X obj 352 198 t b f;
#X msg 352 223 0;
#X obj 212 199 mod 16;
#X obj 383 222 - 1;
#X msg 443 127 0.5;
#X msg 443 146 0;
#X floatatom 443 210 5 0 0 0 - - -, f 5;
#X obj 419 227 t b f;
#X msg 443 186 0.4;
#X obj 159 226 demux;
#X obj 189 248 * -1;
#X obj 189 272 + 15;
#X obj 187 339 outlet;
#X obj 227 33 inlet;
#X text 160 15 normal/reverse/shuffle;
#X obj 189 115 == 1;
#X obj 349 35 inlet;
#X text 347 15 bang input;
#X obj 232 115 r \$0-nbfrag;
#X obj 232 249 - 1;
#X obj 227 56 unpack;
#X msg 443 165 0.2;
#N canvas 56 499 773 517 PalinAlea 0;
#X obj 411 272 t b f;
#X msg 411 297 0;
#X obj 442 296 - 1;
#X msg 502 201 0.5;
#X msg 502 220 0;
#X floatatom 502 284 5 0 0 0 - - -, f 5;
#X obj 477 299 t b f;
#X msg 502 260 0.4;
#X msg 502 239 0.2;
#X obj 173 103 i;
#X floatatom 76 137 5 0 0 0 - - -, f 5;
#X obj 218 182 i;
#X obj 246 182 + 1;
#X obj 218 157 sel 0;
#X floatatom 200 209 5 0 0 0 - - -, f 5;
#X obj 247 209 sel 0;
#X obj 454 61 table \$0-tirage;
#X obj 409 181 r \$0-nbfrag;
#X floatatom 280 55 5 0 0 0 - - -, f 5;
#X obj 405 352 tabwrite \$0-tirage;
#X obj 495 176 t b f;
#X obj 167 128 t f f;
#X obj 178 278 * -1;
#X obj 178 300 +;
#X obj 149 253 demux;
#X floatatom 100 330 5 0 0 0 - - -, f 5;
#X obj 149 330 f;
#X obj 149 410 tabread \$0-tirage;
#X msg 232 58 0;
#X obj 232 35 sel 1;
#X obj 263 234 bng 15 250 50 0 empty empty empty 20 8 0 8 -262144 -1
-1;
#X floatatom 307 141 5 0 0 0 - - -, f 5;
#X obj 335 114 + 2;
#X obj 495 107 for++ 0 15;
#X obj 335 91 random 16;
#X obj 218 236 mod 2;
#X obj 282 30 init 8;
#X obj 215 459 outlet;
#X obj 154 -4 inlet;
#X obj 154 20 tgl 15 0 empty empty empty 20 8 0 8 -262144 -1 -1 0 1
;
#X obj 173 41 inlet;
#X obj 173 61 t b f;
#X obj 84 172 print;
#X obj 236 103 moses 8;
#X msg 272 124 0;
#X obj 409 203 moses 2;
#X obj 411 248 i;
#X obj 306 227 r \$0-palinfois;
#X obj 306 253 * 2;
#X floatatom 76 104 5 0 0 0 - - -, f 5;
#X obj 395 321 motex/shuffle 0 15 0.4;
#X floatatom 323 292 5 0 0 0 - - -, f 5;
#X obj 203 104 + 1;
#X obj 495 129 t f b;
#X obj 495 150 spigot;
#X msg 336 347 1;
#X obj 550 161 == 0;
#X obj 550 139 random 5;
#X obj 595 117 f 5;
#X msg 623 115 0;
#X msg 610 47 2;
#X floatatom 610 74 5 0 0 0 - - -, f 5;
#X msg 646 44 20;
#X obj 331 30 r \$1-palinmesure;
#X obj 568 25 r \$1-constance-snd;
#X obj 625 95 r \$1-changeall-snd;
#X obj 618 173 r \$1-constance-snd;
#X obj 618 195 == 50;
#X obj 618 217 * -1;
#X obj 289 181 mod 2;
#X obj 149 360 demux 0 1;
#X obj 216 338 tgl 15 0 empty empty empty 17 7 0 10 -262144 -1 -1 0
1;
#X floatatom 103 471 5 0 0 0 - - -, f 5;
#X obj 428 8 table \$3-SnapTirage;
#X obj 281 412 tabread \$3-SnapTirage;
#X floatatom 289 466 5 0 0 0 - - -, f 5;
#N canvas 0 499 450 300 snap 0;
#X obj 104 96 for++ 0 100;
#X obj 96 151 tabread \$0-tirage;
#X obj 83 217 tabwrite \$3-SnapTirage;
#X obj 111 28 bng 15 250 50 0 empty empty empty 17 7 0 10 -262144 -1
-1;
#X obj 105 119 t f f;
#X obj 231 150 outlet;
#X msg 226 113 1;
#X obj 149 40 sel 0 1;
#X msg 189 67 0;
#X obj 266 81 sel 0 1;
#X msg 266 103 0;
#X msg 298 103 1;
#N canvas 352 499 450 300 DoubleClicPalin 0;
#X obj 162 41 r \$3-Palin;
#X obj 162 63 sel 1;
#X obj 183 120 i;
#X floatatom 241 161 5 0 0 0 - - -, f 5;
#X msg 97 136 0;
#X obj 226 122 + 1;
#X obj 246 57 tgl 15 0 empty empty empty 17 7 0 10 -262144 -1 -1 0
1;
#X obj 214 92 metro 300;
#X obj 173 155 sel 4;
#X obj 173 228 outlet;
#X obj 173 180 i;
#X obj 216 182 + 1;
#X obj 173 203 mod 2;
#X obj 95 111 del 400;
#X connect 0 0 1 0;
#X connect 1 0 2 0;
#X connect 1 0 13 0;
#X connect 2 0 3 0;
#X connect 2 0 5 0;
#X connect 2 0 8 0;
#X connect 4 0 2 0;
#X connect 5 0 2 1;
#X connect 6 0 7 0;
#X connect 7 0 2 0;
#X connect 8 0 10 0;
#X connect 10 0 11 0;
#X connect 10 0 12 0;
#X connect 11 0 10 1;
#X connect 12 0 9 0;
#X connect 13 0 4 0;
#X restore 149 12 pd DoubleClicPalin;
#X obj 267 52 r \$3-SnR;
#X floatatom 118 58 5 0 0 0 - - -, f 5;
#X connect 0 0 4 0;
#X connect 0 1 6 0;
#X connect 1 0 2 0;
#X connect 3 0 0 0;
#X connect 4 0 1 0;
#X connect 4 1 2 1;
#X connect 6 0 5 0;
#X connect 7 0 8 0;
#X connect 7 1 0 0;
#X connect 8 0 5 0;
#X connect 9 0 10 0;
#X connect 9 1 11 0;
#X connect 10 0 5 0;
#X connect 11 0 5 0;
#X connect 12 0 7 0;
#X connect 12 0 14 0;
#X connect 13 0 9 0;
#X restore 221 307 pd snap;
#X connect 0 0 1 0;
#X connect 0 1 2 0;
#X connect 1 0 50 0;
#X connect 2 0 50 1;
#X connect 3 0 5 0;
#X connect 4 0 5 0;
#X connect 5 0 6 0;
#X connect 6 0 50 0;
#X connect 6 1 50 2;
#X connect 7 0 5 0;
#X connect 8 0 5 0;
#X connect 9 0 10 0;
#X connect 9 0 21 0;
#X connect 9 0 52 0;
#X connect 11 0 12 0;
#X connect 11 0 14 0;
#X connect 11 0 15 0;
#X connect 11 0 35 0;
#X connect 12 0 69 0;
#X connect 13 0 11 0;
#X connect 15 0 33 0;
#X connect 15 0 34 0;
#X connect 15 0 30 0;
#X connect 17 0 45 0;
#X connect 18 0 23 1;
#X connect 18 0 33 1;
#X connect 18 0 43 1;
#X connect 20 0 50 0;
#X connect 20 1 19 1;
#X connect 21 0 24 0;
#X connect 21 1 13 0;
#X connect 22 0 23 0;
#X connect 23 0 26 0;
#X connect 24 0 26 0;
#X connect 24 1 22 0;
#X connect 26 0 25 0;
#X connect 26 0 70 0;
#X connect 27 0 37 0;
#X connect 27 0 72 0;
#X connect 28 0 11 1;
#X connect 28 0 9 1;
#X connect 29 0 28 0;
#X connect 29 0 46 0;
#X connect 31 0 69 1;
#X connect 33 0 53 0;
#X connect 33 1 58 0;
#X connect 34 0 32 0;
#X connect 35 0 24 1;
#X connect 36 0 18 0;
#X connect 38 0 39 0;
#X connect 39 0 29 0;
#X connect 40 0 41 0;
#X connect 41 0 9 0;
#X connect 41 1 49 0;
#X connect 43 0 9 1;
#X connect 43 1 44 0;
#X connect 44 0 9 1;
#X connect 45 1 46 0;
#X connect 46 0 0 0;
#X connect 47 0 48 0;
#X connect 48 0 51 0;
#X connect 48 0 69 1;
#X connect 50 0 19 0;
#X connect 52 0 43 0;
#X connect 53 0 54 0;
#X connect 53 1 57 0;
#X connect 54 0 20 0;
#X connect 55 0 48 0;
#X connect 56 0 54 1;
#X connect 57 0 56 0;
#X connect 58 0 57 1;
#X connect 59 0 57 1;
#X connect 60 0 61 0;
#X connect 61 0 58 1;
#X connect 62 0 61 0;
#X connect 63 0 18 0;
#X connect 64 0 61 0;
#X connect 65 0 59 0;
#X connect 66 0 67 0;
#X connect 67 0 68 0;
#X connect 68 0 56 1;
#X connect 69 0 11 1;
#X connect 70 0 27 0;
#X connect 70 1 74 0;
#X connect 71 0 70 1;
#X connect 74 0 37 0;
#X connect 74 0 75 0;
#X connect 76 0 71 0;
#X restore 500 229 pd PalinAlea;
#X obj 500 113 == 3;
#X obj 321 141 t b;
#X obj 324 222 t b;
#X obj 309 174 moses 2;
#X obj 240 171 moses 1;
#X obj 601 114 == 4;
#X obj 317 115 demux 0 1 2 3 4;
#N canvas 841 156 600 456 PalinAlea2 0;
#X obj 395 206 t b f;
#X msg 395 231 0;
#X msg 502 155 0.5;
#X msg 502 174 0;
#X floatatom 502 233 5 0 0 0 - - -, f 5;
#X obj 472 251 t b f;
#X msg 502 214 0.4;
#X msg 502 193 0.2;
#X obj 175 86 i;
#X floatatom 113 110 5 0 0 0 - - -, f 5;
#X obj 218 205 i;
#X obj 249 206 + 1;
#X obj 218 180 sel 0;
#X floatatom 171 221 5 0 0 0 - - -, f 5;
#X obj 363 -5 r \$0-nbfrag;
#X obj 405 306 tabwrite \$0-tirage;
#X obj 495 130 t b f;
#X obj 175 154 t f f;
#X obj 178 278 * -1;
#X obj 178 300 +;
#X obj 149 253 demux;
#X floatatom 100 330 5 0 0 0 - - -, f 5;
#X obj 149 330 f;
#X obj 149 354 tabread \$0-tirage;
#X msg 232 58 0;
#X obj 232 24 sel 1;
#X obj 548 155 bng 15 250 50 0 empty empty empty 20 8 0 8 -262144 -1
-1;
#X obj 495 107 for++ 0 15;
#X obj 218 235 mod 2;
#X obj 149 378 outlet;
#X obj 154 -4 inlet;
#X obj 154 20 tgl 15 0 empty empty empty 20 8 0 8 -262144 -1 -1 0 1
;
#X obj 175 39 inlet;
#X obj 175 59 t b f;
#X obj 175 110 moses 8;
#X obj 363 17 moses 2;
#X msg 254 135 0;
#X floatatom 80 379 5 0 0 0 - - -, f 5;
#X obj 254 155 s \$0-startstop;
#X obj 395 177 i;
#X obj 395 151 b;
#X obj 113 405 print;
#X obj 409 42 - 1;
#X obj 495 76 t b b;
#X obj 175 134 mod 8;
#X obj 327 86 * 2;
#X obj 497 8 tgl 15 1 empty empty empty 20 8 0 8 -262144 -1 -1 1 1
;
#X text 517 8 Milieu;
#X obj 497 28 t b f;
#X obj 327 113 - 0;
#X obj 435 91 - 0;
#X msg 281 273 1;
#X obj 282 297 s \$0-dontrec;
#X obj 395 275 motex/shuffle 0 15 0.4;
#X floatatom 116 150 5 0 0 0 - - -, f 5;
#X obj 283 54 bng 15 250 50 0 empty empty empty 17 7 0 10 -262144 -1
-1;
#X obj 203 86 + 1;
#X connect 0 0 1 0;
#X connect 0 1 53 1;
#X connect 1 0 53 0;
#X connect 2 0 4 0;
#X connect 3 0 4 0;
#X connect 4 0 5 0;
#X connect 5 0 53 0;
#X connect 5 1 53 2;
#X connect 6 0 4 0;
#X connect 7 0 4 0;
#X connect 8 0 9 0;
#X connect 8 0 34 0;
#X connect 8 0 56 0;
#X connect 10 0 11 0;
#X connect 10 0 13 0;
#X connect 10 0 28 0;
#X connect 11 0 10 1;
#X connect 12 0 10 0;
#X connect 14 0 35 0;
#X connect 16 0 53 0;
#X connect 16 1 15 1;
#X connect 17 0 20 0;
#X connect 17 1 12 0;
#X connect 18 0 19 0;
#X connect 19 0 22 0;
#X connect 20 0 22 0;
#X connect 20 1 18 0;
#X connect 22 0 21 0;
#X connect 22 0 23 0;
#X connect 23 0 29 0;
#X connect 23 0 37 0;
#X connect 24 0 10 1;
#X connect 24 0 8 1;
#X connect 24 0 43 0;
#X connect 25 0 24 0;
#X connect 25 0 51 0;
#X connect 25 0 55 0;
#X connect 27 0 16 0;
#X connect 27 0 26 0;
#X connect 28 0 20 1;
#X connect 30 0 31 0;
#X connect 31 0 25 0;
#X connect 32 0 33 0;
#X connect 33 0 8 0;
#X connect 34 0 44 0;
#X connect 34 0 54 0;
#X connect 34 1 36 0;
#X connect 35 1 42 0;
#X connect 35 1 44 1;
#X connect 35 1 45 0;
#X connect 36 0 38 0;
#X connect 39 0 0 0;
#X connect 40 0 39 0;
#X connect 42 0 39 1;
#X connect 42 0 27 1;
#X connect 42 0 50 0;
#X connect 43 0 27 0;
#X connect 43 1 40 0;
#X connect 44 0 17 0;
#X connect 45 0 49 0;
#X connect 46 0 48 0;
#X connect 48 0 49 0;
#X connect 48 0 50 0;
#X connect 48 1 49 1;
#X connect 48 1 50 1;
#X connect 49 0 34 1;
#X connect 50 0 19 1;
#X connect 51 0 52 0;
#X connect 53 0 15 0;
#X connect 56 0 8 1;
#X restore 601 233 pd PalinAlea2;
#X msg 130 152 0;
#X obj 112 115 sel 0 1;
#X floatatom 283 239 5 0 0 0 - - -, f 5;
#X obj 336 247 motex/shuffle 0 15 0.4;
#X connect 0 0 1 0;
#X connect 0 0 11 0;
#X connect 1 0 4 0;
#X connect 2 0 3 0;
#X connect 2 1 5 0;
#X connect 3 0 36 0;
#X connect 4 0 0 1;
#X connect 5 0 36 1;
#X connect 6 0 8 0;
#X connect 7 0 8 0;
#X connect 8 0 9 0;
#X connect 9 0 36 0;
#X connect 9 1 36 2;
#X connect 10 0 8 0;
#X connect 11 0 14 0;
#X connect 11 1 12 0;
#X connect 12 0 13 0;
#X connect 13 0 14 0;
#X connect 15 0 22 0;
#X connect 17 0 11 1;
#X connect 18 0 31 0;
#X connect 20 0 21 0;
#X connect 20 0 28 0;
#X connect 20 0 29 0;
#X connect 20 0 35 0;
#X connect 21 0 13 1;
#X connect 22 0 17 0;
#X connect 22 0 25 0;
#X connect 22 0 31 1;
#X connect 22 0 30 0;
#X connect 22 0 34 0;
#X connect 23 0 8 0;
#X connect 24 0 14 0;
#X connect 25 0 24 0;
#X connect 26 0 0 0;
#X connect 27 0 36 0;
#X connect 28 1 2 0;
#X connect 29 1 4 1;
#X connect 30 0 32 0;
#X connect 31 0 26 0;
#X connect 31 1 26 0;
#X connect 31 2 27 0;
#X connect 31 3 24 1;
#X connect 31 4 32 1;
#X connect 32 0 14 0;
#X connect 33 0 0 1;
#X connect 34 0 33 0;
#X connect 34 1 33 0;
#X connect 36 0 14 0;
#X restore 142 177 pd choice;
#N canvas 126 82 811 450 clock 0;
#X obj 213 36 inlet;
#X obj 213 173 == 1;
#X text 158 20 stop / original /clocked;
#X obj 213 231 spigot;
#X obj 121 198 r \$0-endfrag;
#X obj 213 196 t b f;
#X obj 316 51 inlet;
#X obj 213 57 unpack;
#X obj 356 376 outlet;
#X obj 439 -8 r \$0-longfrag;
#X obj 361 144 i;
#X obj 387 220 + 1;
#X msg 377 33 2;
#X msg 377 12 1;
#X msg 376 -8 4;
#X floatatom 377 56 5 0 0 0 - - -, f 5;
#X obj 945 415 spigot;
#X obj 982 92 sel 0 1;
#X obj 936 388 delay;
#X msg 980 373 0;
#X msg 981 393 1;
#X msg 936 367 stop;
#X obj 981 72 == 4;
#X obj 873 135 i;
#X msg 918 87 0;
#X obj 836 134 +;
#X obj 858 240 sel 0 1;
#X obj 836 270 f;
#X obj 879 265 f;
#X obj 821 177 t f f;
#X obj 875 351 *;
#X obj 873 196 -;
#X floatatom 931 325 5 0 0 0 - - -, f 5;
#X floatatom 735 353 5 0 0 0 - - -, f 5;
#X obj 944 282 print bar;
#X obj 878 294 t b f;
#X obj 797 356 1;
#X msg 340 293 1;
#X obj 745 322 f;
#X obj 770 260 t f b;
#X obj 1004 118 t b b b;
#X obj 764 395 bng 15 250 50 0 empty empty empty 20 8 0 8 -262144 -1
-1;
#X msg 785 296 0;
#X msg 619 -2 4;
#X floatatom 619 56 5 0 0 0 - - -, f 5;
#X msg 619 18 8;
#X msg 619 37 16;
#X obj 496 27 / 44.1;
#X obj 439 24 max 0;
#X obj 439 45 min 1;
#X obj 361 121 / 1;
#X obj 858 218 >= 8;
#X obj 661 0 r \$0-rythm3mes;
#N canvas 1 97 600 400 bng-eat 0;
#X obj 54 56 inlet;
#X obj 54 185 outlet;
#X obj 103 57 inlet;
#X obj 54 122 i;
#X obj 84 122 - 1;
#X obj 112 122 max 0;
#X obj 54 158 sel 0;
#X connect 0 0 3 0;
#X connect 2 0 3 1;
#X connect 3 0 4 0;
#X connect 3 0 6 0;
#X connect 4 0 5 0;
#X connect 5 0 3 1;
#X connect 6 0 1 0;
#X restore 296 216 pd bng-eat;
#X obj 332 166 - 2;
#X obj 260 189 demux 0 1 2;
#X obj 260 106 >= 2;
#X msg 873 166 8 \$1;
#X floatatom 362 251 5 0 0 0 - - -, f 5;
#N canvas 1 87 600 400 bng-eat 0;
#X obj 54 56 inlet;
#X obj 54 185 outlet;
#X obj 103 57 inlet;
#X obj 54 122 i;
#X obj 84 122 - 1;
#X obj 112 122 max 0;
#X obj 54 158 sel 0;
#X connect 0 0 3 0;
#X connect 2 0 3 1;
#X connect 3 0 4 0;
#X connect 3 0 6 0;
#X connect 4 0 5 0;
#X connect 5 0 3 1;
#X connect 6 0 1 0;
#X restore 417 266 pd bng-eat;
#X obj 417 296 f;
#X obj 578 128 i;
#X obj 480 72 sel 4;
#X msg 480 93 0;
#X obj 513 121 +;
#X obj 567 211 -;
#X obj 553 231 min;
#X msg 567 189 \$2 \$1;
#X obj 513 143 moses 8;
#X msg 535 164 0;
#X floatatom 447 365 5 0 0 0 - - -, f 5;
#X obj 499 248 - 1;
#X obj 260 85 t f f;
#X obj 541 405 bng 15 250 50 0 empty empty empty 20 8 0 8 -262144 -1
-1;
#X floatatom 645 298 5 0 0 0 - - -, f 5;
#X obj 541 382 sel 0;
#X obj 567 164 pack f 8;
#X floatatom 511 297 5 0 0 0 - - -, f 5;
#X obj 654 120 i;
#X msg 669 90 0;
#X obj 541 358 i;
#X obj 712 121 mod 8;
#X obj 599 406 bng 15 250 50 0 empty empty empty 20 8 0 8 -262144 -1
-1;
#X obj 599 383 sel 0;
#X floatatom 676 172 5 0 0 0 - - -, f 5;
#X obj 683 120 + 1;
#X msg 450 94 1;
#N canvas 84 122 450 300 clock 0;
#X obj 144 120 unpack f f;
#X obj 201 148 / 4;
#X obj 135 38 inlet;
#X obj 94 172 inlet;
#X obj 61 201 spigot;
#X obj 61 229 outlet;
#X obj 201 224 outlet;
#X obj 61 85 r clock;
#X obj 61 119 ndmetro 1 1;
#X msg 135 83 nd 1 \$1;
#X obj 61 144 b;
#X connect 0 1 1 0;
#X connect 1 0 6 0;
#X connect 2 0 1 1;
#X connect 2 0 9 0;
#X connect 3 0 4 1;
#X connect 4 0 5 0;
#X connect 7 0 8 0;
#X connect 7 0 0 0;
#X connect 8 0 10 0;
#X connect 9 0 8 0;
#X connect 10 0 4 0;
#X restore 260 128 pd clock;
#X obj 496 6 r \$0-samplelen;
#X obj 141 238 bng 15 250 50 0 empty empty empty 17 7 0 10 -262144
-1 -1;
#X floatatom 286 164 5 0 0 0 - - -, f 5;
#X floatatom 404 141 5 0 0 0 - - -, f 5;
#X obj 365 178 min 3;
#X obj 361 96 / 2;
#X obj 261 -3 r \$1-fragdenum;
#N canvas 84 122 450 300 clock-old 0;
#X obj 119 111 unpack f f;
#X obj 119 132 sel -1;
#X msg 119 156 0;
#X obj 156 156 t b f;
#X obj 184 133 / 4;
#X obj 119 264 bng 15 250 50 0 empty empty empty 0 -6 0 8 -262144 -1
-1;
#X obj 200 87 inlet;
#X obj 169 186 inlet;
#X obj 132 216 spigot;
#X obj 132 238 outlet;
#X obj 240 239 outlet;
#X obj 120 76 r clock;
#X obj 120 193 metro;
#X connect 0 0 1 0;
#X connect 0 1 4 0;
#X connect 1 0 2 0;
#X connect 1 1 3 0;
#X connect 2 0 12 0;
#X connect 3 0 12 0;
#X connect 4 0 10 0;
#X connect 4 0 12 1;
#X connect 6 0 4 1;
#X connect 7 0 8 1;
#X connect 8 0 9 0;
#X connect 12 0 8 0;
#X restore 124 113 pd clock-old;
#X obj 303 327 bng 15 250 50 0 empty empty empty 17 7 0 10 -262144
-1 -1;
#X floatatom 236 328 5 0 0 0 - - -, f 5;
#X floatatom 415 96 5 0 0 0 - - -, f 5;
#X connect 0 0 7 0;
#X connect 1 0 5 0;
#X connect 3 0 37 0;
#X connect 4 0 3 0;
#X connect 5 0 3 0;
#X connect 5 1 3 1;
#X connect 6 0 30 1;
#X connect 6 0 87 1;
#X connect 7 0 1 0;
#X connect 7 0 72 0;
#X connect 9 0 48 0;
#X connect 10 0 91 0;
#X connect 10 0 92 0;
#X connect 11 0 58 0;
#X connect 11 0 66 0;
#X connect 12 0 15 0;
#X connect 13 0 15 0;
#X connect 14 0 15 0;
#X connect 15 0 93 1;
#X connect 16 0 36 0;
#X connect 17 0 19 0;
#X connect 17 0 21 0;
#X connect 17 1 40 0;
#X connect 18 0 16 0;
#X connect 19 0 16 1;
#X connect 20 0 16 1;
#X connect 21 0 18 0;
#X connect 22 0 17 0;
#X connect 23 0 25 1;
#X connect 23 0 32 0;
#X connect 23 0 57 0;
#X connect 24 0 23 0;
#X connect 25 0 23 0;
#X connect 26 0 27 0;
#X connect 26 1 28 0;
#X connect 27 0 30 0;
#X connect 27 0 25 0;
#X connect 27 0 36 1;
#X connect 28 0 35 0;
#X connect 29 0 51 0;
#X connect 29 1 27 1;
#X connect 30 0 18 0;
#X connect 31 0 28 1;
#X connect 31 0 51 1;
#X connect 35 0 24 0;
#X connect 35 1 30 0;
#X connect 35 1 36 1;
#X connect 36 0 39 0;
#X connect 37 0 8 0;
#X connect 38 0 33 0;
#X connect 38 0 8 0;
#X connect 39 0 38 1;
#X connect 39 1 38 0;
#X connect 40 0 37 0;
#X connect 40 1 24 0;
#X connect 40 1 42 0;
#X connect 40 2 20 0;
#X connect 42 0 38 1;
#X connect 43 0 44 0;
#X connect 44 0 68 1;
#X connect 44 0 76 1;
#X connect 45 0 44 0;
#X connect 46 0 44 0;
#X connect 47 0 49 1;
#X connect 48 0 49 0;
#X connect 49 0 93 0;
#X connect 49 0 98 0;
#X connect 50 0 10 0;
#X connect 51 0 26 0;
#X connect 52 0 44 0;
#X connect 53 0 37 0;
#X connect 53 0 96 0;
#X connect 54 0 55 1;
#X connect 54 0 90 0;
#X connect 55 0 37 0;
#X connect 55 1 53 0;
#X connect 55 2 59 0;
#X connect 55 2 78 0;
#X connect 56 0 87 0;
#X connect 57 0 31 0;
#X connect 59 0 60 0;
#X connect 59 0 80 0;
#X connect 60 0 8 0;
#X connect 60 0 70 0;
#X connect 61 0 64 1;
#X connect 61 0 74 0;
#X connect 61 0 76 0;
#X connect 61 0 80 1;
#X connect 62 0 63 0;
#X connect 62 0 79 0;
#X connect 62 0 86 0;
#X connect 63 0 59 1;
#X connect 63 0 61 1;
#X connect 64 0 68 0;
#X connect 65 0 66 1;
#X connect 66 0 64 0;
#X connect 66 0 60 1;
#X connect 66 0 71 0;
#X connect 66 0 77 0;
#X connect 67 0 65 0;
#X connect 68 0 61 0;
#X connect 68 1 69 0;
#X connect 69 0 61 0;
#X connect 71 0 59 1;
#X connect 72 0 56 0;
#X connect 72 1 54 0;
#X connect 72 1 62 0;
#X connect 75 0 73 0;
#X connect 76 0 67 0;
#X connect 78 0 83 0;
#X connect 78 0 84 0;
#X connect 78 0 85 0;
#X connect 79 0 78 1;
#X connect 80 0 75 0;
#X connect 81 0 78 1;
#X connect 83 0 82 0;
#X connect 85 0 81 0;
#X connect 86 0 60 1;
#X connect 87 0 55 0;
#X connect 87 0 89 0;
#X connect 87 1 30 1;
#X connect 87 1 97 0;
#X connect 87 1 50 1;
#X connect 88 0 47 0;
#X connect 92 0 53 1;
#X connect 92 0 11 0;
#X connect 93 0 50 0;
#X connect 94 0 15 0;
#X restore 213 132 pd clock;
#X obj 213 71 t b f f;
#X obj 617 112 r \$0-reverse;
#X obj 616 154 &&;
#X msg 616 222 1;
#X obj 615 243 s \$0-startstop;
#X obj 615 177 sel 1;
#X obj 616 201 delay 1000;
#X text 317 162 To ms;
#X obj 25 348 bng 15 250 50 0 empty empty empty 0 -6 0 8 -262144 -1
-1;
#X obj 254 423 tgl 15 0 \$1-on-snd \$1-on-rcv on 0 -7 0 10 -4034 -1
-1 0 1;
#X obj 213 49 r \$1-on-snd;
#X obj 361 421 hradio 15 1 0 5 \$1-mode-snd \$1-mode-rcv mode:palin
0 -6 0 10 -203904 -1 -1 3;
#X obj 386 330 r \$1-mode-snd;
#X obj 92 3 r \$1-mode-snd;
#X obj 522 422 hradio 15 1 0 4 \$1-timemode-snd \$1-timemode-rcv time:rythm2
0 -6 0 10 -204800 -1 -1 2;
#X obj 555 306 r \$1-timemode-snd;
#N canvas 322 97 600 400 printtemps 0;
#X obj 204 131 inlet;
#X obj 207 283 outlet;
#X obj 204 154 i;
#X obj 207 236 symbol;
#X msg 182 208 origin;
#X msg 236 209 rythm;
#X msg 282 210 rythm2;
#X msg 333 210 rythm3;
#X msg 207 259 label time:\$1;
#X obj 204 178 sel 0 1 2 3;
#X connect 0 0 2 0;
#X connect 2 0 9 0;
#X connect 3 0 8 0;
#X connect 4 0 3 0;
#X connect 5 0 3 0;
#X connect 6 0 3 0;
#X connect 7 0 3 0;
#X connect 8 0 1 0;
#X connect 9 0 4 0;
#X connect 9 1 5 0;
#X connect 9 2 6 0;
#X connect 9 3 7 0;
#X restore 555 326 pd printtemps;
#X obj 146 26 r \$1-timemode-snd;
#X obj 146 49 + 1;
#X obj 275 422 hradio 11 1 0 7 \$1-denum-snd \$1-denum-rcv denum:2
0 -6 0 10 -257985 -1 -1 1;
#X obj 275 341 r \$1-denum-snd;
#N canvas 548 330 600 400 printdenum 0;
#X obj 182 120 inlet;
#X obj 207 283 outlet;
#X obj 182 143 i;
#X msg 196 206 2;
#X msg 273 206 4;
#X obj 302 285 outlet;
#X obj 207 236 f;
#X msg 207 259 label denum:\$1;
#X msg 128 252 0.66666;
#X msg 316 206 8;
#X msg 229 206 3;
#X msg 109 231 1;
#X msg 125 208 1;
#X msg 396 197 5;
#X msg 425 213 6;
#X msg 436 237 7;
#X msg 363 134 12;
#X msg 393 163 16;
#X obj 182 167 sel 0 1 2 3 4 5 6;
#X connect 0 0 2 0;
#X connect 2 0 18 0;
#X connect 3 0 6 0;
#X connect 4 0 6 0;
#X connect 6 0 7 0;
#X connect 6 0 5 0;
#X connect 7 0 1 0;
#X connect 9 0 6 0;
#X connect 10 0 6 0;
#X connect 11 0 6 0;
#X connect 12 0 6 0;
#X connect 13 0 6 0;
#X connect 14 0 6 0;
#X connect 15 0 6 0;
#X connect 16 0 6 0;
#X connect 17 0 6 0;
#X connect 18 0 12 0;
#X connect 18 1 3 0;
#X connect 18 2 10 0;
#X connect 18 3 4 0;
#X connect 18 4 9 0;
#X connect 18 5 16 0;
#X connect 18 6 17 0;
#X restore 275 361 pd printdenum;
#X obj 46 466 outlet~;
#X obj 145 464 outlet~;
#X obj 336 383 s \$1-denum;
#X obj 523 451 hradio 15 1 0 4 \$1-fragdenum-snd \$1-fragdenum-rcv
fragdenum:4 0 -8 0 10 -204800 -1 -1 3;
#X obj 680 306 r \$1-fragdenum-snd;
#X obj 816 347 s \$1-fragdenum;
#N canvas 555 124 600 400 printfragdenum 0;
#X obj 182 120 inlet;
#X obj 207 283 outlet;
#X obj 182 143 i;
#X msg 196 206 2;
#X msg 273 206 4;
#X obj 302 285 outlet;
#X obj 207 236 f;
#X msg 128 252 0.66666;
#X msg 229 206 3;
#X obj 182 167 sel 0 1 2 3 4;
#X msg 125 208 1;
#X msg 207 259 label fragdenum:\$1;
#X connect 0 0 2 0;
#X connect 2 0 9 0;
#X connect 3 0 6 0;
#X connect 4 0 6 0;
#X connect 6 0 11 0;
#X connect 6 0 5 0;
#X connect 8 0 6 0;
#X connect 9 0 10 0;
#X connect 9 1 3 0;
#X connect 9 2 8 0;
#X connect 9 3 4 0;
#X connect 10 0 6 0;
#X connect 11 0 1 0;
#X restore 680 326 pd printfragdenum;
#X msg 138 334 smooth \$1;
#X msg 115 288 pitch \$1;
#X obj 116 222 + 69;
#X obj 116 244 mtof;
#X obj 116 266 / 440;
#X obj 193 157 del 1;
#X floatatom 68 186 5 0 0 0 - - -, f 5;
#X obj 680 347 s \$1-fragdenum-rcv;
#X obj 555 347 s \$1-timemode-rcv;
#X obj 276 454 hsl 80 10 2 150 1 0 \$1-smooth-snd \$1-smooth-rcv amorti
-2 -6 0 10 -261682 -1 -1 1406 1;
#X obj 669 419 r \$1-palinmesure-snd;
#N canvas 551 134 600 400 printpalinmesure 0;
#X obj 182 120 inlet;
#X obj 197 302 outlet;
#X obj 182 143 i;
#X obj 292 304 outlet;
#X obj 197 255 f;
#X obj 182 167 sel 0 1 2 3 4;
#X msg 197 278 label palinmesure:\$1;
#X msg 163 205 2;
#X msg 197 206 4;
#X msg 229 206 6;
#X msg 273 206 8;
#X msg 310 206 16;
#X connect 0 0 2 0;
#X connect 2 0 5 0;
#X connect 4 0 6 0;
#X connect 4 0 3 0;
#X connect 5 0 7 0;
#X connect 5 1 8 0;
#X connect 5 2 9 0;
#X connect 5 3 10 0;
#X connect 5 4 11 0;
#X connect 6 0 1 0;
#X connect 7 0 4 0;
#X connect 8 0 4 0;
#X connect 9 0 4 0;
#X connect 10 0 4 0;
#X connect 11 0 4 0;
#X restore 669 439 pd printpalinmesure;
#X obj 669 460 s \$1-palinmesure-rcv;
#X obj 818 460 s \$1-palinmesure;
#X obj 362 449 hradio 15 1 0 5 \$1-palinmesure-snd \$1-palinmesure-rcv
palinmesure:8 0 -6 0 10 -203904 -1 -1 3;
#X obj 448 410 nbx 5 14 0 50 0 0 \$1-constance-snd \$1-constance-rcv
constance 0 -6 0 10 -262144 -1 -1 39.394 256;
#X obj 448 424 bng 15 250 50 0 \$1-changeall-snd \$1-changeall-rcv
changeAll 17 7 0 10 -262144 -1 -1;
#X obj 551 0 loadbang;
#X obj 514 24 bng 15 250 50 0 empty empty empty 17 7 0 10 -262144 -1
-1;
#X obj 807 75 s \$1-fragdenum-rcv;
#X obj 576 89 s \$1-timemode-rcv;
#X obj 669 59 s \$1-palinmesure-rcv;
#X obj 360 56 s \$1-denum-rcv;
#X obj 470 68 s \$1-mode-rcv;
#X msg 360 35 1;
#X msg 470 47 3;
#X msg 575 68 1;
#X msg 668 36 3;
#X msg 805 51 2;
#X obj 637 405 vsl 10 60 0 1 0 0 \$1-vol-snd \$1-vol-rcv empty 0 -9
0 10 -258113 -1 -1 2980 1;
#X obj 160 357 r \$1-vol-snd;
#X msg 160 422 vol \$1;
#X obj 160 400 * 2;
#X obj 589 419 nbx 4 14 -24 72 0 0 \$1-pitch-snd \$1-pitch-rcv pitch
0 -8 0 10 -261682 -1 -1 0 256;
#X obj 116 202 r \$1-pitch-snd;
#X obj 138 311 r \$1-smooth-snd;
#X obj 606 448 bng 15 250 50 0 empty empty empty 17 7 0 10 -262144
-1 -1;
#X msg 605 477 0;
#X obj 449 452 hradio 15 1 0 4 empty empty sample 0 -8 0 10 -4034 -1
-1 0;
#X obj 194 247 + 1;
#X symbolatom 243 230 10 0 0 0 - - -, f 10;
#X msg 194 270 sample sample\$1;
#N canvas 945 438 450 300 QampleName 0;
#X obj 185 12 inlet;
#X obj 99 267 outlet;
#X obj 185 35 + 1;
#X obj 133 175 t b a;
#X msg 124 145 set sample \$1;
#X symbolatom 315 210 10 0 0 0 - - -, f 10;
#X msg 77 221 sample Dec1-sample-1;
#X obj 226 105 makesymbol \$2-sample-%d;
#X obj 183 61 makesymbol \$2-%s;
#X connect 0 0 2 0;
#X connect 2 0 8 0;
#X connect 3 0 6 0;
#X connect 3 1 6 0;
#X connect 4 0 3 0;
#X connect 6 0 1 0;
#X connect 8 0 4 0;
#X connect 8 0 5 0;
#X restore 443 515 pd QampleName;
#X obj 730 158 tgl 15 0 empty empty auto 17 7 0 10 -260097 -1 -1 0
1;
#X obj 384 178 mknob 25 100 1 3.5 0 0 empty empty mou -2 -6 0 8 -191407
-1 -1 0 1;
#N canvas 667 499 450 300 sa 0;
#X obj 87 48 r \$3-Sa1;
#X obj 159 44 r \$3-Sa2;
#X obj 229 45 r \$3-Sa3;
#X obj 300 39 r \$3-Sa4;
#X msg 163 93 1;
#X msg 93 104 0;
#X msg 227 92 2;
#X msg 290 93 3;
#X obj 221 265 outlet;
#X obj 48 32 loadbang;
#X floatatom 62 182 5 0 0 0 - - -, f 5;
#X obj 208 146 r \$3-tSHIFT-snd;
#X obj 139 208 spigot;
#X obj 100 148 f;
#X obj 324 147 t b;
#X floatatom 144 261 5 0 0 0 - - -, f 5;
#X obj 182 173 != 1;
#X obj 274 233 tgl 15 0 empty empty empty 17 7 0 10 -262144 -1 -1 1
1;
#X obj 87 71 sel 1;
#X obj 159 67 sel 1;
#X obj 228 68 sel 1;
#X obj 298 65 sel 1;
#X connect 0 0 18 0;
#X connect 1 0 19 0;
#X connect 2 0 20 0;
#X connect 3 0 21 0;
#X connect 4 0 13 0;
#X connect 5 0 13 0;
#X connect 6 0 13 0;
#X connect 7 0 13 0;
#X connect 9 0 5 0;
#X connect 11 0 16 0;
#X connect 12 0 15 0;
#X connect 12 0 8 0;
#X connect 13 0 10 0;
#X connect 13 0 12 0;
#X connect 16 0 17 0;
#X connect 16 0 12 1;
#X connect 18 0 5 0;
#X connect 19 0 4 0;
#X connect 20 0 6 0;
#X connect 21 0 7 0;
#X restore 466 488 pd sa;
#X obj 676 387 r \$3-Volume;
#N canvas 0 383 246 244 Denum 0;
#X obj 52 93 i;
#X obj 45 148 s \$1-denum-rcv;
#X obj 47 45 r \$3-Denum;
#X obj 53 69 * 6.9;
#X connect 0 0 1 0;
#X connect 2 0 3 0;
#X connect 3 0 0 0;
#X restore 471 106 pd Denum;
#N canvas 977 562 246 244 FragDenum 0;
#X obj 52 93 i;
#X obj 47 45 r \$3-FragDenum;
#X obj 45 148 s \$1-fragdenum-rcv;
#X obj 53 69 * 3.9;
#X connect 0 0 2 0;
#X connect 1 0 3 0;
#X connect 3 0 0 0;
#X restore 466 132 pd FragDenum;
#N canvas 974 588 246 244 PalinMesure 0;
#X obj 52 93 i;
#X obj 53 69 * 4.9;
#X obj 45 148 s \$1-palinmesure-rcv;
#X obj 47 45 r \$3-PalinMesure;
#X connect 0 0 2 0;
#X connect 1 0 0 0;
#X connect 3 0 1 0;
#X restore 461 180 pd PalinMesure;
#N canvas 968 640 246 244 Time 0;
#X obj 52 93 i;
#X obj 47 45 r \$3-Time;
#X obj 45 148 s \$1-timemode-rcv;
#X obj 53 69 * 3.9;
#X connect 0 0 2 0;
#X connect 1 0 3 0;
#X connect 3 0 0 0;
#X restore 462 203 pd Time;
#X floatatom 192 523 5 0 0 0 - - -, f 5;
#N canvas 0 329 450 300 Amorti 0;
#X obj 96 37 r \$3-Amorti;
#X obj 96 92 * 148;
#X obj 96 116 + 2;
#X obj 114 168 s \$1-smooth-rcv;
#X obj 96 68 pow 3;
#X connect 0 0 4 0;
#X connect 1 0 2 0;
#X connect 2 0 3 0;
#X connect 4 0 1 0;
#X restore 463 224 pd Amorti;
#N canvas 469 403 450 300 Pitch 0;
#X obj 95 37 r \$3-Pitch;
#X obj 96 92 * 96;
#X obj 96 116 - 24;
#X obj 114 168 s \$1-pitch-rcv;
#X obj 187 59 r \$3-P0;
#X obj 188 81 sel 1;
#X obj 277 148 s \$3-b4-rcv;
#X floatatom 59 78 5 0 0 0 - - -, f 5;
#X msg 196 108 0.25;
#X connect 0 0 1 0;
#X connect 0 0 7 0;
#X connect 1 0 2 0;
#X connect 2 0 3 0;
#X connect 4 0 5 0;
#X connect 5 0 8 0;
#X connect 8 0 6 0;
#X restore 466 247 pd Pitch;
#N canvas 0 327 450 300 Ch 0;
#X obj 178 90 sel 1;
#X obj 177 68 r \$3-Ch;
#X obj 183 156 s \$1-changeall-rcv;
#X obj 222 126 bng 15 250 50 0 empty empty empty 17 7 0 10 -262144
-1 -1;
#X connect 0 0 2 0;
#X connect 0 0 3 0;
#X connect 1 0 0 0;
#X restore 466 312 pd Ch;
#X obj 46 423 player \$2-1 \$0;
#N canvas 974 588 246 244 Time 0;
#X obj 52 93 i;
#X obj 45 148 s \$1-mode-rcv;
#X obj 53 69 * 4.9;
#X obj 47 45 r \$3-Time;
#X connect 0 0 1 0;
#X connect 2 0 0 0;
#X connect 3 0 2 0;
#X restore 463 157 pd Time;
#N canvas 0 330 450 300 Palin 0;
#X obj 111 244 s \$1-mode-rcv;
#X msg 163 93 1;
#X msg 89 93 0;
#X msg 227 92 2;
#X msg 317 94 3;
#X obj 304 28 loadbang;
#X obj 163 71 r \$3-Rever;
#X obj 89 70 r \$3-Norm;
#X obj 243 72 r \$3-Alea;
#X obj 317 72 r \$3-Palin;
#X connect 1 0 0 0;
#X connect 2 0 0 0;
#X connect 3 0 0 0;
#X connect 4 0 0 0;
#X connect 5 0 4 0;
#X connect 6 0 1 0;
#X connect 7 0 2 0;
#X connect 8 0 3 0;
#X connect 9 0 4 0;
#X restore 468 271 pd Palin;
#N canvas 466 402 450 300 Constance 0;
#X obj 95 37 r \$3-Constance;
#X obj 96 92 * 50;
#X obj 97 121 s \$1-constance-rcv;
#X connect 0 0 1 0;
#X connect 1 0 2 0;
#X restore 468 292 pd Constance;
#X connect 0 0 102 0;
#X connect 2 0 1 0;
#X connect 3 0 1 0;
#X connect 6 0 4 0;
#X connect 6 0 5 0;
#X connect 7 0 79 0;
#X connect 8 0 2 0;
#X connect 9 0 4 0;
#X connect 10 0 29 0;
#X connect 11 0 14 0;
#X connect 12 0 13 0;
#X connect 13 0 6 0;
#X connect 13 0 17 0;
#X connect 14 0 16 0;
#X connect 14 0 53 0;
#X connect 15 0 14 0;
#X connect 15 1 14 1;
#X connect 16 0 0 0;
#X connect 17 0 52 0;
#X connect 18 0 13 0;
#X connect 18 1 13 1;
#X connect 18 2 15 0;
#X connect 19 0 20 0;
#X connect 20 0 23 0;
#X connect 21 0 22 0;
#X connect 23 0 24 0;
#X connect 24 0 21 0;
#X connect 26 0 0 0;
#X connect 28 0 18 0;
#X connect 30 0 10 0;
#X connect 31 0 11 0;
#X connect 33 0 34 0;
#X connect 34 0 55 0;
#X connect 35 0 36 0;
#X connect 36 0 12 0;
#X connect 38 0 39 0;
#X connect 39 0 37 0;
#X connect 39 1 17 1;
#X connect 39 1 42 0;
#X connect 44 0 46 0;
#X connect 46 0 54 0;
#X connect 46 1 45 0;
#X connect 47 0 102 1;
#X connect 48 0 102 1;
#X connect 49 0 50 0;
#X connect 50 0 51 0;
#X connect 51 0 48 0;
#X connect 52 0 16 1;
#X connect 57 0 58 0;
#X connect 58 0 59 0;
#X connect 58 1 60 0;
#X connect 65 0 71 0;
#X connect 65 0 72 0;
#X connect 65 0 73 0;
#X connect 65 0 74 0;
#X connect 65 0 75 0;
#X connect 71 0 69 0;
#X connect 72 0 70 0;
#X connect 73 0 67 0;
#X connect 74 0 68 0;
#X connect 75 0 66 0;
#X connect 77 0 7 0;
#X connect 78 0 102 1;
#X connect 79 0 78 0;
#X connect 81 0 49 0;
#X connect 82 0 47 0;
#X connect 83 0 84 0;
#X connect 84 0 80 0;
#X connect 85 0 89 0;
#X connect 86 0 88 0;
#X connect 88 0 87 0;
#X connect 88 0 102 1;
#X connect 89 0 102 1;
#X connect 90 0 20 1;
#X connect 91 0 8 0;
#X connect 92 0 85 0;
#X connect 93 0 76 0;
#X connect 102 0 40 0;
#X connect 102 1 41 0;
#X coords 0 -1 1 1 400 70 1 250 400;
