#N canvas 797 79 800 821 10;
#X floatatom -64 84 5 0 0 0 - - -, f 5;
#X obj -60 33 bng 15 250 50 0 empty empty empty 17 7 0 10 -262144 -1
-1;
#X obj -65 52 init 2;
#X text 16 -26 KEPtype nomUnique;
#X obj 120 571 vsl 15 128 0 1 0 0 \$1-del1_time-snd \$1-del1_time-rcv
del1_time 0 -9 0 10 -262144 -1 -1 8723 1;
#X obj 57 17 KEPface \$1;
#X obj 47 473 MORPHgroup \$1 FX;
#X obj 172 545 param \$1 FX del1_time;
#X floatatom 47 432 5 0 0 0 - - -, f 5;
#X floatatom 165 434 5 0 0 0 - - -, f 5;
#N canvas 281 511 390 264 KEPboutons 0;
#X obj 174 137 KEPbus \$1 togl1 -togl1- tl1;
#X obj 7 160 KEPbus \$1 tog2 -tog2- t2;
#X obj 8 182 KEPbus \$1 tog3 -tog3- t3;
#X obj 9 203 KEPbus \$1 tog4 -tog4- t4;
#X obj 9 227 KEPbus \$1 togR -togR- tREC;
#X obj 172 158 KEPbus \$1 togl2 -togl2- tl2;
#X obj 174 179 KEPbus \$1 togl3 -togl3- tl3;
#X obj 172 200 KEPbus \$1 togl4 -togl4- tl4;
#X obj 174 226 KEPbus \$1 toglR -toglR- tlREC;
#X obj 8 8 KEPbus \$1 Speed SpeedRnd b1;
#X obj 9 139 KEPbus \$1 on -tog1- t1;
#X obj 8 30 KEPbus \$1 Density DensityRnd b2;
#X obj 8 53 KEPbus \$1 Pos -PosRnd- b3;
#X obj 8 75 KEPbus \$1 PosRnd Dur b4;
#X obj 8 97 KEPbus \$1 Volume Volume b5;
#X restore 50 157 pd KEPboutons;
#X obj 83 386 tgl 15 1 empty empty empty 17 7 0 10 -262144 -1 -1 1
1;
#X obj 82 404 switch~;
#X obj 369 21 t b;
#X obj 369 1 r SYNCHRO-clock;
#X obj 128 176 r \$1-tog1;
#X obj 442 290 r \$1-Volume;
#X obj 47 448 r \$1-Effet1;
#X obj 165 451 r \$1-Effet2;
#X obj 57 -5 l MASTERtypeIN \$1 2 \$0;
#X obj -76 115 Vmull~ 0 10;
#X obj 142 592 l orfilter \$1 FX orfilter1;
#X obj 142 612 orfilter \$1 FX orfilter1;
#X obj 161 201 tgl 15 0 empty empty empty 17 7 0 10 -262144 -1 -1 0
1;
#X obj 264 173 s \$1-tl1;
#X obj 380 43 s \$1-lrouge;
#N canvas 0 95 451 463 sample 0;
#X obj 219 68 r \$1-sample;
#X obj 219 93 t b f;
#X msg 219 117 1 \, 2 \, 3 \, 4;
#X obj 219 143 t f f;
#X obj 219 186 pack f f;
#X obj 246 166 ==;
#X obj 219 212 list prepend \$1;
#X msg 219 235 \; \$1--togl\$2- \$3;
#X obj 309 63 hradio 15 1 0 8 empty empty empty 0 -8 0 10 -262144 -1
-1 0;
#X obj 70 21 r \$1--tog1-;
#X msg 70 63 1;
#X obj 70 84 s \$1-sample;
#X obj 161 32 loadbang;
#X floatatom 294 111 5 0 0 0 - - -, f 5;
#X obj 70 41 sel 1;
#X obj 70 167 s \$1-sample;
#X obj 70 125 sel 1;
#X obj 71 252 s \$1-sample;
#X obj 71 209 sel 1;
#X obj 71 335 s \$1-sample;
#X obj 71 293 sel 1;
#X obj 70 105 r \$1--tog2-;
#X msg 70 147 2;
#X obj 71 189 r \$1--tog3-;
#X msg 71 231 3;
#X obj 71 273 r \$1--tog4-;
#X msg 71 315 4;
#X obj 216 290 r \$1-sample;
#X obj 218 363 s \$1-str-sample;
#X msg 218 341 symbol sample\$1;
#X obj 306 80 s \$1-sample;
#X floatatom 324 311 5 0 0 0 - - -, f 5;
#X obj 217 319 + 0;
#X obj 350 370 bng 15 250 50 0 empty empty empty 17 7 0 10 -262144
-1 -1;
#X connect 0 0 1 0;
#X connect 0 0 13 0;
#X connect 1 0 2 0;
#X connect 1 1 5 1;
#X connect 2 0 3 0;
#X connect 3 0 4 0;
#X connect 3 1 5 0;
#X connect 4 0 6 0;
#X connect 5 0 4 1;
#X connect 6 0 7 0;
#X connect 8 0 30 0;
#X connect 9 0 14 0;
#X connect 10 0 11 0;
#X connect 12 0 10 0;
#X connect 14 0 10 0;
#X connect 16 0 22 0;
#X connect 18 0 24 0;
#X connect 20 0 26 0;
#X connect 21 0 16 0;
#X connect 22 0 15 0;
#X connect 23 0 18 0;
#X connect 24 0 17 0;
#X connect 25 0 20 0;
#X connect 26 0 19 0;
#X connect 27 0 32 0;
#X connect 29 0 28 0;
#X connect 31 0 33 0;
#X connect 32 0 29 0;
#X connect 32 0 31 0;
#X restore 246 203 pd sample;
#X obj 52 241 r \$1-Speed;
#X obj 52 285 r \$1-SpeedRnd;
#X obj 329 239 r \$1-Pos;
#X obj 329 283 r \$1-PosRnd;
#X obj 191 239 r \$1-Density;
#X obj 191 283 r \$1-DensityRnd;
#X obj 328 304 * 0.5;
#X obj 329 324 + 0.5;
#X obj 215 121 r \$1-on;
#X obj 360 189 s \$1-str-on-rcv;
#X obj 215 189 tgl 15 0 empty empty empty 17 7 0 10 -262144 -1 -1 0
1;
#X obj 215 164 sel 1;
#X obj 215 143 change;
#X obj 460 236 r \$1-Dur;
#X obj 204 -7 l MASTERtypeOUT \$1 1;
#X obj 262 154 s \$1-togl1;
#X obj 380 79 r \$1-tog2;
#X obj 374 130 != 0;
#X obj 380 101 t b f;
#X obj 416 123 s \$1-togl2;
#X obj 1 1 cnv 15 40 654 empty empty \$1 1 5 1 8 -257985 -1 0;
#X obj 7 643 bng 10 250 50 0 empty empty empty 17 7 0 10 -4034 -1 -1
;
#X obj 24 643 bng 10 250 50 0 empty empty empty 17 7 0 10 -258113 -1
-1;
#X obj 4 100 MASTERtypeOUTstereo \$1 1;
#X obj 7 669 KEPCommon \$1 \$0;
#X obj 4 12 MASTERtypeIN \$1 1 \$0;
#X obj 624 331 outlet~ l;
#X obj 727 360 outlet~ r;
#X obj 616 375 r~ \$0-Main-in1;
#X obj 1170 59 decoupeur_ctl \$1-config \$1-dctl \$1;
#X obj 577 164 *~ 0.2;
#X obj 577 187 out \$0-Main;
#X obj 577 57 sample \$1-sample-1 60;
#X obj 577 83 sample \$1-sample-2 60;
#X obj 577 109 sample \$1-sample-3 60;
#X obj 576 135 sample \$1-sample-4 60;
#X obj 851 59 decoupeur \$1-sample-1 \$1-dctl;
#X obj 852 110 decoupeur \$1-sample-3 \$1-dctl;
#X obj 852 135 decoupeur \$1-sample-4 \$1-dctl;
#X obj 851 84 decoupeur \$1-sample-2 \$1-dctl;
#X obj 587 404 autorec \$1-config \$1-arec1 \$1-sample \$1;
#X obj 52 121 s~ \$0-Main-in1;
#X obj 160 365 stretcher \$1 \$1-sample;
#X obj 1105 424 mknob 25 100 0 1 0 0 \$1-Seuil-snd \$1-Seuil-rcv seuil:18dB
-2 -6 1 8 -257985 -1 -1 1800 1;
#X obj 1190 424 mknob 25 100 0 1 0 0 \$1-Lmin-snd \$1-Lmin-rcv lmin:11.61ms
-2 -6 1 8 -4032 -1 -1 1400 1;
#X obj 1282 423 mknob 25 100 0 1 0 0 \$1-Hmin-snd \$1-Hmin-rcv hmin:46.4399ms
-2 -6 1 8 -260097 -1 -1 2700 1;
#X obj 488 -25 paramsym \$1 SETTING sample-1-file;
#X obj 488 -4 paramsym \$1 SETTING sample-2-file;
#X obj 488 16 paramsym \$1 SETTING sample-3-file;
#X obj 488 36 paramsym \$1 SETTING sample-4-file;
#X obj 1103 470 mknob 25 100 0 1 0 0 \$1-THi-snd \$1-THi-rcv tHi:0.22s
-2 -6 1 8 -4032 -1 -1 2200 1;
#X obj 1188 470 mknob 25 100 0 1 0 0 \$1-TLow-snd \$1-TLow-rcv tLow:0.53s
-2 -6 1 8 -4032 -1 -1 1500 1;
#X obj 1280 469 mknob 25 100 0 1 0 0 \$1-Thresh-snd \$1-Thresh-rcv
Threshold:18.1818 -2 -6 1 8 -261234 -1 -1 900 1;
#N canvas 0 497 450 300 apf-etc 0;
#X symbolatom 8 156 0 0 0 0 - #1-sample-1-file-rcv #1-sample-1-file-snd
;
#X symbolatom 8 196 0 0 0 0 - #1-sample-2-file-rcv #1-sample-2-file-snd
;
#X symbolatom 8 229 0 0 0 0 - #1-sample-3-file-rcv #1-sample-3-file-snd
;
#X symbolatom 7 265 0 0 0 0 - #1-sample-4-file-rcv #1-sample-4-file-snd
;
#X obj 29 46 apf \$1-SETTING Seuil \$1-Seuil 2;
#X obj 28 67 apf \$1-SETTING Lmin \$1-Lmin 2;
#X obj 25 89 apf \$1-SETTING Hmin \$1-Hmin 2;
#X obj 255 45 apf \$1-SETTING Thresh \$1-Thresh 2;
#X obj 251 88 apf \$1-SETTING TLow \$1-TLow 2;
#X obj 254 65 apf \$1-SETTING THi \$1-THi 2;
#X obj 108 125 l aptab \$1-SETTING SnapTirage \$1-SnapTirage 2;
#X restore 480 60 pd apf-etc;
#X obj 450 514 ac;
#X obj 50 215 s \$1-str-speed-rcv;
#X obj 52 262 s \$1-speed-rcv;
#X obj 52 306 s \$1-speedrnd-rcv;
#X obj 191 260 s \$1-len-rcv;
#X obj 191 304 s \$1-lenrnd-rcv;
#X obj 291 446 out \$0-Main;
#X obj -129 -19 catch~ \$0-Main-out1;
#X obj -142 8 catch~ \$0-Main-out2;
#X floatatom 938 294 5 0 0 0 - - -, f 5;
#X obj 950 339 *~ 0.3;
#X obj 995 338 *~ 0.3;
#X obj 938 249 key;
#X obj 938 271 spigot;
#X obj 971 250 tgl 15 0 empty empty empty 17 7 0 10 -262144 -1 -1 0
1;
#X msg 1019 274 smooth \$1;
#X floatatom 1019 254 5 1 200 0 - - -, f 5;
#X obj 936 390 out \$0-Main;
#X obj 938 313 player \$1-sample-1;
#X obj 329 260 s \$1-pos-rcv;
#X obj 328 344 s \$1-posrnd-rcv;
#X obj 442 315 s \$1-vol-rcv;
#X obj 460 257 s \$1-dur-rcv;
#X connect 0 0 20 1;
#X connect 1 0 2 0;
#X connect 2 0 0 0;
#X connect 11 0 12 0;
#X connect 14 0 13 0;
#X connect 15 0 23 0;
#X connect 16 0 102 0;
#X connect 17 0 6 0;
#X connect 17 0 8 0;
#X connect 18 0 9 0;
#X connect 27 0 83 0;
#X connect 28 0 84 0;
#X connect 29 0 100 0;
#X connect 30 0 33 0;
#X connect 31 0 85 0;
#X connect 32 0 86 0;
#X connect 33 0 34 0;
#X connect 34 0 101 0;
#X connect 35 0 39 0;
#X connect 37 0 42 0;
#X connect 37 0 44 0;
#X connect 38 0 37 0;
#X connect 39 0 38 0;
#X connect 40 0 103 0;
#X connect 43 0 45 0;
#X connect 44 0 36 0;
#X connect 45 0 44 0;
#X connect 45 1 44 1;
#X connect 45 1 46 0;
#X connect 48 0 51 0;
#X connect 49 0 51 1;
#X connect 52 0 68 0;
#X connect 55 0 67 0;
#X connect 57 0 58 0;
#X connect 57 0 58 1;
#X connect 59 0 57 0;
#X connect 60 0 57 0;
#X connect 61 0 57 0;
#X connect 62 0 57 0;
#X connect 69 0 87 0;
#X connect 69 1 81 0;
#X connect 69 1 87 1;
#X connect 88 0 50 0;
#X connect 89 0 50 1;
#X connect 90 0 99 0;
#X connect 91 0 98 1;
#X connect 92 0 98 0;
#X connect 93 0 94 0;
#X connect 94 0 90 0;
#X connect 95 0 94 1;
#X connect 96 0 99 1;
#X connect 97 0 96 0;
#X connect 99 0 91 0;
#X connect 99 0 98 0;
#X connect 99 1 92 0;
#X connect 99 1 98 1;
#X coords 0 -1 1 1 42 656 2 0 0;
