#N canvas 1761 316 994 650 10;
#X obj 588 54 vsl 10 50 0 1 0 0 \$1-vol-snd \$1-vol-rcv empty 0 -9
0 10 -258113 -1 -1 3019 1;
#X obj 697 68 nbx 4 14 -24 72 0 0 \$1-pitch-snd \$1-pitch-rcv pitch
0 -8 0 10 -261682 -1 -1 0 256;
#X obj 744 67 bng 15 250 50 0 empty empty empty 17 7 0 10 -262144 -1
-1;
#X msg 697 29 0;
#X obj 524 91 hradio 15 1 0 4 empty empty sample 0 -8 0 10 -4034 -1
-1 1;
#X obj 529 114 + 1;
#X obj 563 432 v \$0-n;
#X msg 563 409 0;
#X obj 674 502 mull~ 1 50;
#X obj 311 284 s \$0-tfade;
#X obj 185 304 *;
#X obj 291 305 * 44.1;
#N canvas 144 171 600 400 count 0;
#X obj 167 192 i;
#X obj 193 192 + 1;
#X obj 219 192 mod 2;
#X obj 249 168 v \$0-n;
#X obj 152 151 metro 200;
#X obj 150 97 tgl 15 0 empty empty empty 20 8 0 8 -262144 -1 -1 0 1
;
#X floatatom 210 98 5 50 2000 0 - - -, f 5;
#X obj 227 135 sel 0 1;
#X obj 167 262 outlet;
#X obj 150 58 inlet;
#X obj 210 58 inlet;
#X obj 357 172 f;
#X obj 379 217 *;
#X obj 357 194 t f f b;
#X obj 415 240 / 10000;
#X obj 415 219 random 10000;
#X obj 399 262 *;
#X obj 391 59 inlet;
#X obj 383 284 +;
#X connect 0 0 1 0;
#X connect 0 0 8 0;
#X connect 1 0 2 0;
#X connect 2 0 0 1;
#X connect 3 0 2 1;
#X connect 4 0 0 0;
#X connect 4 0 11 0;
#X connect 5 0 4 0;
#X connect 5 0 7 0;
#X connect 6 0 4 1;
#X connect 7 1 3 0;
#X connect 9 0 5 0;
#X connect 10 0 6 0;
#X connect 10 0 11 1;
#X connect 11 0 13 0;
#X connect 12 0 16 0;
#X connect 13 0 18 0;
#X connect 13 1 12 0;
#X connect 13 2 15 0;
#X connect 14 0 16 1;
#X connect 15 0 14 0;
#X connect 16 0 18 1;
#X connect 17 0 12 1;
#X connect 18 0 4 1;
#X restore 102 244 pd count;
#X obj 153 335 pack f f f;
#X obj 310 240 / 3;
#N canvas 115 138 600 400 play 0;
#X obj 218 255 s \$0-command;
#X msg 218 234 play \$1 \$2 \$3 1;
#X obj 213 65 inlet;
#X obj 213 93 unpack f f f;
#X obj 262 65 inlet;
#X obj 319 65 inlet;
#X obj 218 214 pack f f f;
#N canvas 200 267 600 400 lenrand 0;
#X obj 53 143 *;
#X obj 30 49 t f f b;
#X obj 69 93 / 10000;
#X obj 69 72 random 10000;
#X obj 53 115 *;
#X obj 30 199 +;
#X obj 30 22 inlet;
#X obj 93 22 inlet;
#X obj 30 222 outlet;
#X msg 93 139 1 \$1;
#X obj 30 171 * 1;
#X obj 93 163 -;
#X connect 0 0 5 1;
#X connect 1 0 10 0;
#X connect 1 1 4 0;
#X connect 1 2 3 0;
#X connect 2 0 4 1;
#X connect 3 0 2 0;
#X connect 4 0 0 0;
#X connect 5 0 8 0;
#X connect 6 0 1 0;
#X connect 7 0 0 1;
#X connect 7 0 9 0;
#X connect 9 0 11 0;
#X connect 10 0 5 0;
#X connect 11 0 10 1;
#X restore 309 139 pd lenrand;
#N canvas 130 326 600 400 begrand 0;
#X obj 30 49 t f f b;
#X obj 88 95 / 10000;
#X obj 88 74 random 10000;
#X obj 88 117 *;
#X obj 56 139 +;
#X obj 30 22 inlet;
#X obj 183 52 inlet;
#X obj 56 162 outlet;
#X obj 188 90 * 44.1;
#X connect 0 0 4 0;
#X connect 0 2 2 0;
#X connect 1 0 3 0;
#X connect 2 0 1 0;
#X connect 3 0 4 1;
#X connect 4 0 7 0;
#X connect 5 0 0 0;
#X connect 6 0 3 1;
#X connect 8 0 3 1;
#X restore 231 139 pd begrand;
#X floatatom 401 225 5 0 0 0 - - -, f 5;
#X obj 360 189 print;
#X connect 1 0 0 0;
#X connect 2 0 3 0;
#X connect 3 0 6 0;
#X connect 3 1 8 0;
#X connect 3 2 7 0;
#X connect 4 0 8 1;
#X connect 5 0 7 1;
#X connect 6 0 1 0;
#X connect 7 0 6 2;
#X connect 8 0 6 1;
#X restore 282 456 pd play;
#X obj 779 501 mull~ 1 50;
#N canvas 4 287 450 479 tab_ctl 0;
#X obj 111 45 switch~;
#X obj 111 27 tgl 15 0 empty empty empty 0 -6 0 8 -262144 -1 -1 0 1
;
#X obj 162 130 r \$0-insamplength;
#N canvas 452 393 472 311 poltab_continue 0;
#X obj 62 260 outlet;
#X obj 262 265 outlet;
#X obj 63 -1 inlet;
#X obj 197 71 t f f;
#N canvas 0 50 326 258 rec2pol 0;
#X obj 27 10 inlet;
#X obj 27 217 outlet;
#X obj 27 31 unpack f f f;
#X obj 27 196 pack f f f;
#X obj 27 55 expr $f1*2-1;
#X obj 89 77 expr $f1*2-1;
#X obj 59 147 atan2;
#X obj 59 171 expr ($f1+3.14159)/(2*3.14159);
#X obj 27 81 t f f;
#X obj 27 103 expr sqrt($f1*$f1+$f2*$f2);
#X obj 27 125 min 1;
#X connect 0 0 2 0;
#X connect 2 0 4 0;
#X connect 2 1 5 0;
#X connect 2 2 3 2;
#X connect 3 0 1 0;
#X connect 4 0 8 0;
#X connect 5 0 6 1;
#X connect 5 0 9 1;
#X connect 6 0 7 0;
#X connect 7 0 3 1;
#X connect 8 0 9 0;
#X connect 8 1 6 0;
#X connect 9 0 10 0;
#X connect 10 0 3 0;
#X restore 63 73 pd rec2pol;
#X obj 63 93 unpack f f f;
#X obj 63 20 route xyp b1 b2 b3;
#N canvas 676 462 330 365 pitch 0;
#X obj 62 48 inlet;
#X obj 239 48 inlet;
#X text 58 28 position;
#X text 232 30 pression;
#X obj 17 252 f;
#X obj 61 207 -;
#X obj 61 251 +;
#X obj 239 89 moses 1;
#X obj 239 130 f;
#X msg 282 108 1;
#X obj 239 69 * 1.7;
#X obj 239 108 pow 3;
#X obj 62 80 sig~;
#X obj 61 120 unsig~ 10;
#X obj 61 161 t f f;
#X obj 61 185 -;
#X obj 61 140 * 0.2;
#N canvas 0 76 450 300 clip 0;
#X msg 147 185 0;
#X obj 50 145 moses -0.002;
#X obj 142 144 moses 0.002;
#X obj 147 246 outlet;
#X obj 50 120 inlet;
#X connect 0 0 3 0;
#X connect 1 0 3 0;
#X connect 1 1 2 0;
#X connect 2 0 0 0;
#X connect 2 1 3 0;
#X connect 4 0 1 0;
#X restore 17 295 pd clip;
#X obj 17 274 * 10000;
#X obj 62 100 lp2~ 6 0.707;
#X obj 61 232 *;
#X obj 17 317 outlet;
#X msg 17 82 0;
#X obj 168 45 inlet;
#X text 169 27 stop;
#X connect 0 0 12 0;
#X connect 1 0 10 0;
#X connect 4 0 5 1;
#X connect 4 0 6 1;
#X connect 4 0 18 0;
#X connect 5 0 20 0;
#X connect 6 0 4 0;
#X connect 7 0 11 0;
#X connect 7 1 9 0;
#X connect 8 0 20 1;
#X connect 9 0 8 0;
#X connect 10 0 7 0;
#X connect 11 0 8 0;
#X connect 12 0 19 0;
#X connect 13 0 16 0;
#X connect 14 0 15 1;
#X connect 14 1 15 0;
#X connect 15 0 5 0;
#X connect 16 0 14 0;
#X connect 17 0 21 0;
#X connect 18 0 17 0;
#X connect 19 0 13 0;
#X connect 20 0 6 0;
#X connect 22 0 4 0;
#X connect 23 0 22 0;
#X restore 62 229 pd pitch;
#N canvas 131 90 450 499 position_continue 0;
#X obj 86 167 t f f;
#X obj 87 191 -;
#X obj 143 343 f;
#X obj 116 343 +;
#X obj 86 126 spigot;
#X obj 153 155 sel 1;
#X msg 143 322 0;
#X obj 123 105 t f f;
#X msg 153 174 10;
#X obj 86 147 demux;
#X obj 116 366 / 10;
#X obj 116 322 * 1;
#X obj 116 390 outlet;
#X obj 86 234 moses -0.6;
#X obj 116 256 moses 0.6;
#X obj 86 253 + 1;
#X obj 139 298 - 1;
#X obj 87 212 moses -2;
#X obj 139 278 moses 2;
#X obj 62 48 inlet;
#X obj 151 45 inlet;
#X obj 235 44 inlet;
#X text 58 28 angle;
#X text 144 27 touche;
#X text 236 26 b3;
#X obj 253 394 outlet;
#X connect 0 0 1 1;
#X connect 0 1 1 0;
#X connect 1 0 17 0;
#X connect 2 0 3 1;
#X connect 3 0 2 0;
#X connect 3 0 10 0;
#X connect 4 0 9 0;
#X connect 5 0 8 0;
#X connect 6 0 2 0;
#X connect 7 0 4 1;
#X connect 7 1 5 0;
#X connect 8 0 1 1;
#X connect 9 0 0 0;
#X connect 9 1 25 0;
#X connect 10 0 12 0;
#X connect 11 0 3 0;
#X connect 13 0 15 0;
#X connect 13 1 14 0;
#X connect 14 0 11 0;
#X connect 14 1 18 0;
#X connect 15 0 11 0;
#X connect 16 0 11 0;
#X connect 17 1 13 0;
#X connect 18 0 16 0;
#X connect 19 0 4 0;
#X connect 20 0 7 0;
#X connect 21 0 9 1;
#X restore 62 131 pd position_continue;
#N canvas 652 116 262 353 set_pos_metro 0;
#X obj 29 117 -;
#X obj 29 75 * 800;
#X obj 28 55 pow 0.4;
#X obj 29 265 metro;
#X obj 29 287 f;
#X msg 29 96 820 \$1;
#X obj 29 140 t f f;
#X obj 29 160 -;
#X obj 29 200 b;
#X obj 29 179 moses -20;
#X obj 29 224 spigot;
#X obj 105 221 t f f;
#X obj 96 22 inlet;
#X obj 169 20 inlet;
#X obj 28 20 inlet;
#X text 92 2 angle;
#X text 165 2 onoff;
#X text 26 2 pression;
#X obj 29 309 outlet;
#X connect 0 0 3 1;
#X connect 0 0 6 0;
#X connect 1 0 5 0;
#X connect 2 0 1 0;
#X connect 3 0 4 0;
#X connect 4 0 18 0;
#X connect 5 0 0 0;
#X connect 6 0 7 1;
#X connect 6 1 7 0;
#X connect 7 0 9 0;
#X connect 8 0 10 0;
#X connect 9 0 8 0;
#X connect 10 0 3 0;
#X connect 11 0 3 0;
#X connect 11 1 10 1;
#X connect 12 0 4 1;
#X connect 13 0 11 0;
#X connect 14 0 2 0;
#X restore 262 240 pd set_pos_metro;
#X obj 369 217 &&;
#X obj 371 196 t b f;
#X obj 93 45 t f f;
#X obj 153 158 != 1;
#X obj 142 179 m 1;
#X floatatom 318 87 5 0 0 0 - - -, f 5;
#X connect 2 0 6 0;
#X connect 3 0 8 2;
#X connect 3 1 11 0;
#X connect 4 0 5 0;
#X connect 5 1 8 0;
#X connect 5 2 9 0;
#X connect 5 2 14 0;
#X connect 6 0 4 0;
#X connect 6 1 12 0;
#X connect 6 2 7 1;
#X connect 6 3 3 0;
#X connect 6 3 13 0;
#X connect 7 0 0 0;
#X connect 8 0 7 0;
#X connect 8 1 9 1;
#X connect 9 0 1 0;
#X connect 10 0 9 2;
#X connect 11 0 10 0;
#X connect 11 1 10 1;
#X connect 12 0 8 1;
#X connect 12 1 10 0;
#X connect 13 0 14 1;
#X connect 14 0 7 2;
#X restore 124 96 pd poltab_continue;
#X obj 132 188 /;
#X obj 132 209 t b f;
#X obj 124 231 *;
#X obj 132 26 subtoggle red 1 1;
#N canvas 80 309 262 180 tab 0;
#X obj 33 42 nitab yinv;
#X msg 33 66 xyp \$1 \$2 \$3;
#X msg 46 89 b1 \$1;
#X msg 91 89 b2 \$1;
#X msg 135 89 b3 \$1;
#X obj 33 118 t a;
#X obj 33 20 inlet;
#X obj 33 143 outlet;
#X connect 0 0 1 0;
#X connect 0 1 2 0;
#X connect 0 2 3 0;
#X connect 0 3 4 0;
#X connect 1 0 5 0;
#X connect 2 0 5 0;
#X connect 3 0 5 0;
#X connect 4 0 5 0;
#X connect 5 0 7 0;
#X connect 6 0 0 0;
#X restore 124 74 pd tab;
#X obj 111 7 init 0;
#X floatatom 135 267 0 0 0 0 - - -;
#X msg 132 168 441 \$1;
#X obj 320 317 f;
#X obj 131 310 +;
#X obj 193 379 i;
#X obj 163 399 -;
#X obj 163 311 t f f;
#X floatatom 129 454 5 0 0 0 - - -, f 5;
#X floatatom 43 166 5 0 0 0 - - -, f 5;
#X floatatom 319 338 5 0 0 0 - - -, f 5;
#X obj 193 338 moses 0;
#X obj 193 358 - 1;
#X floatatom 316 154 5 0 0 0 - - -, f 5;
#X obj 163 421 outlet;
#X obj 170 4 inlet;
#X obj 260 421 outlet;
#X connect 1 0 0 0;
#X connect 1 0 7 0;
#X connect 1 0 8 0;
#X connect 2 0 11 0;
#X connect 3 0 6 0;
#X connect 3 1 25 0;
#X connect 3 1 13 1;
#X connect 4 0 5 0;
#X connect 5 0 6 0;
#X connect 5 1 6 1;
#X connect 6 0 10 0;
#X connect 6 0 13 0;
#X connect 7 0 1 0;
#X connect 8 0 3 0;
#X connect 9 0 1 0;
#X connect 11 0 4 0;
#X connect 13 0 16 0;
#X connect 14 0 15 1;
#X connect 15 0 13 1;
#X connect 15 0 23 0;
#X connect 16 0 15 0;
#X connect 16 1 20 0;
#X connect 20 0 21 0;
#X connect 20 1 14 0;
#X connect 21 0 14 0;
#X connect 24 0 1 0;
#X restore 759 99 pd tab_ctl;
#X obj 505 329 s \$0-tfade;
#X obj 523 59 tgl 15 0 \$1-on-snd \$1-on-rcv on 0 -7 0 10 -4034 -1
-1 0 1;
#X obj 102 84 r \$1-on-snd;
#X obj 759 74 tgl 15 0 empty empty empty 17 7 0 10 -262144 -1 -1 0
1;
#X obj 256 76 hsl 80 10 0 1 0 0 \$1-speed-snd \$1-speed-rcv speed -2
-6 0 10 -257985 -1 -1 1668 1;
#X obj 256 96 hsl 80 10 0 1 0 0 \$1-speedrnd-snd \$1-speedrnd-rcv speedrnd
-2 -6 0 10 -260097 -1 -1 2107 1;
#X obj 345 76 hsl 80 10 0 1 0 0 \$1-pos-snd \$1-pos-rcv pos -2 -6 0
10 -261234 -1 -1 2538 1;
#X obj 124 152 r \$1-speed-snd;
#X obj 124 195 * 399;
#X obj 124 217 + 1;
#X obj 173 176 r \$1-speedrnd-snd;
#X obj 173 198 pow 2;
#X obj 185 232 r \$1-pos-snd;
#X obj 778 129 s \$1-pos-rcv;
#X obj 200 254 r \$0-samplelen;
#X obj 693 350 s \$0-samplelen;
#X obj 748 285 s \$0-peakstab;
#X obj 839 360 s \$0-nbfrag;
#X obj 748 210 s \$0-sample;
#X obj 748 166 loadbang;
#X obj 812 166 bng 15 250 50 0 empty empty empty 17 7 0 10 -262144
-1 -1;
#X obj 748 238 r \$0-sample;
#X msg 748 261 symbol \$1-peaks;
#X obj 693 328 iemlib/iem_receive;
#X msg 631 282 set \$1-len \, 0;
#X obj 631 304 tabread;
#X floatatom 694 396 8 0 0 0 - - -, f 8;
#X msg 693 308 set \$1-setlen;
#X obj 878 283 iemlib/iem_receive;
#X msg 878 263 set \$1-nbfrag;
#X obj 839 336 tabread;
#X floatatom 838 402 8 0 0 0 - - -, f 8;
#X msg 839 314 set \$1-nbfragtab \, 0;
#X obj 694 374 r \$0-samplelen;
#X obj 838 382 r \$0-nbfrag;
#X obj 748 188 symbol \$2;
#X obj 438 61 hsl 80 10 0 1 0 0 \$1-len-snd \$1-len-rcv len -2 -6 0
10 -204800 -1 -1 7740 1;
#X obj 291 166 r \$1-len-snd;
#X obj 291 188 pow 2;
#X obj 291 210 * 1000;
#X obj 345 96 hsl 80 10 0 1 0 0 \$1-posrnd-snd \$1-posrnd-rcv posrnd
-2 -6 0 10 -261234 -1 -1 4404 1;
#X obj 438 81 hsl 80 10 0 1 0 0 \$1-lenrnd-snd \$1-lenrnd-rcv lenrnd
-2 -6 0 10 -204800 -1 -1 1295 1;
#X obj 446 399 r \$1-lenrnd-snd;
#X obj 388 201 r \$1-posrnd-snd;
#X obj 388 223 * 2;
#X obj 388 245 - 1;
#X obj 388 267 moses 0;
#X obj 388 290 * -1;
#X obj 388 333 * -1;
#X obj 388 355 f;
#X obj 388 376 * 300;
#X floatatom 393 399 5 0 0 0 - - -, f 5;
#X obj 388 312 pow 3;
#X obj 427 311 pow 3;
#X obj 59 492 stretchvox \$0;
#X obj 59 509 stretchvox \$0;
#X obj 59 526 stretchvox \$0;
#X obj 59 543 stretchvox \$0;
#X obj 59 560 stretchvox \$0;
#X obj 59 577 stretchvox \$0;
#X obj 59 594 stretchvox \$0;
#X obj 59 611 stretchvox \$0;
#X obj 154 492 stretchvox \$0;
#X obj 154 509 stretchvox \$0;
#X obj 154 526 stretchvox \$0;
#X obj 154 543 stretchvox \$0;
#X obj 154 560 stretchvox \$0;
#X obj 154 577 stretchvox \$0;
#X obj 154 594 stretchvox \$0;
#X obj 154 611 stretchvox \$0;
#X obj 250 492 stretchvox \$0;
#X obj 250 509 stretchvox \$0;
#X obj 250 526 stretchvox \$0;
#X obj 250 543 stretchvox \$0;
#X obj 250 560 stretchvox \$0;
#X obj 250 577 stretchvox \$0;
#X obj 250 594 stretchvox \$0;
#X obj 250 611 stretchvox \$0;
#X obj 345 492 stretchvox \$0;
#X obj 345 509 stretchvox \$0;
#X obj 345 526 stretchvox \$0;
#X obj 345 543 stretchvox \$0;
#X obj 345 560 stretchvox \$0;
#X obj 345 577 stretchvox \$0;
#X obj 345 594 stretchvox \$0;
#X obj 345 611 stretchvox \$0;
#X obj 675 480 catch~ \$0-out1;
#X obj 779 479 catch~ \$0-out2;
#X obj 675 532 outlet~;
#X obj 778 536 outlet~;
#X obj 750 450 pow 2;
#X obj 750 424 r \$1-vol-snd;
#X obj 529 161 s \$0-sample;
#X obj 616 404 bng 15 250 50 0 empty empty empty 17 7 0 10 -262144
-1 -1;
#X floatatom 563 465 5 0 0 0 - - -, f 5;
#X floatatom 63 362 5 0 0 0 - - -, f 5;
#X floatatom 307 329 8 0 0 0 - - -, f 8;
#X obj 483 494 hsl 128 15 0 1 0 0 empty empty empty -2 -8 0 10 -262144
-1 -1 0 1;
#X obj 100 406 * 32;
#X obj 119 384 v \$0-n;
#X obj 119 366 bng 15 250 50 0 empty empty empty 17 7 0 10 -262144
-1 -1;
#X floatatom 111 437 5 0 0 0 - - -, f 5;
#X obj 334 187 t b f;
#X obj 123 174 pow 3;
#X obj 432 351 r \$0-samplelen;
#X obj 336 221 t b f;
#X floatatom 400 156 5 0 0 0 - - -, f 5;
#X obj 305 363 print;
#X obj 310 261 max 2;
#X obj 437 106 hsl 80 10 0 1 0 0 \$1-dur-snd \$1-dur-rcv dur -2 -6
0 10 -159808 -1 -1 3348 1;
#X obj 520 228 r \$1-dur-snd;
#X obj 517 252 pow 2;
#X obj 514 293 + 2;
#X obj 514 274 * 50;
#X obj 186 84 l switch~;
#X obj 613 113 r \$1-sample;
#X msg 529 137 symbol sample\$1;
#X obj 192 274 t b f;
#X obj 431 375 t b f;
#N canvas 2180 302 450 339 QampleName 0;
#X obj 185 12 inlet;
#X obj 99 267 outlet;
#X obj 185 35 + 1;
#X obj 133 175 t b a;
#X symbolatom 315 210 0 0 0 0 - - -;
#X msg 77 221 sample Stre1-sample-1;
#X obj 226 105 makesymbol \$2-sample%s;
#X obj 183 61 makesymbol \$2-%s;
#X obj 54 178 loadbang;
#X msg 124 145 set sample \$1;
#X connect 0 0 2 0;
#X connect 2 0 7 0;
#X connect 3 0 5 0;
#X connect 3 1 5 0;
#X connect 5 0 1 0;
#X connect 7 0 9 0;
#X connect 7 0 4 0;
#X connect 8 0 5 0;
#X connect 9 0 3 0;
#X restore 409 138 pd QampleName;
#X obj 451 172 s \$0-sample;
#X connect 2 0 3 0;
#X connect 3 0 1 0;
#X connect 4 0 137 0;
#X connect 5 0 134 0;
#X connect 6 0 112 0;
#X connect 7 0 6 0;
#X connect 8 0 106 0;
#X connect 10 0 13 1;
#X connect 11 0 13 2;
#X connect 12 0 13 0;
#X connect 13 0 15 0;
#X connect 14 0 126 0;
#X connect 16 0 107 0;
#X connect 20 0 12 0;
#X connect 21 0 17 0;
#X connect 25 0 121 0;
#X connect 26 0 27 0;
#X connect 27 0 12 1;
#X connect 27 0 113 0;
#X connect 27 0 116 0;
#X connect 28 0 29 0;
#X connect 29 0 12 2;
#X connect 30 0 10 0;
#X connect 32 0 135 0;
#X connect 37 0 53 0;
#X connect 38 0 53 0;
#X connect 39 0 40 0;
#X connect 39 0 42 0;
#X connect 39 0 45 0;
#X connect 39 0 47 0;
#X connect 39 0 50 0;
#X connect 40 0 34 0;
#X connect 41 0 33 0;
#X connect 42 0 43 0;
#X connect 43 0 33 0;
#X connect 45 0 41 0;
#X connect 46 0 35 0;
#X connect 47 0 46 0;
#X connect 48 0 35 0;
#X connect 50 0 48 0;
#X connect 51 0 44 0;
#X connect 52 0 49 0;
#X connect 53 0 36 0;
#X connect 55 0 56 0;
#X connect 56 0 57 0;
#X connect 57 0 14 0;
#X connect 57 0 11 0;
#X connect 57 0 114 0;
#X connect 60 0 15 2;
#X connect 61 0 62 0;
#X connect 62 0 63 0;
#X connect 63 0 64 0;
#X connect 64 0 65 0;
#X connect 64 1 71 0;
#X connect 65 0 70 0;
#X connect 66 0 67 0;
#X connect 67 0 68 0;
#X connect 68 0 15 1;
#X connect 68 0 69 0;
#X connect 70 0 66 0;
#X connect 71 0 67 0;
#X connect 104 0 8 0;
#X connect 105 0 16 0;
#X connect 108 0 8 1;
#X connect 108 0 16 1;
#X connect 109 0 108 0;
#X connect 111 0 6 0;
#X connect 116 0 119 0;
#X connect 116 0 120 0;
#X connect 117 0 116 1;
#X connect 118 0 117 0;
#X connect 120 0 57 0;
#X connect 120 1 57 1;
#X connect 121 0 26 0;
#X connect 122 0 136 0;
#X connect 123 0 14 0;
#X connect 123 1 14 1;
#X connect 124 0 123 0;
#X connect 126 0 9 0;
#X connect 128 0 129 0;
#X connect 129 0 131 0;
#X connect 130 0 123 0;
#X connect 131 0 130 0;
#X connect 134 0 110 0;
#X connect 135 0 10 0;
#X connect 135 1 10 1;
#X connect 136 0 68 0;
#X connect 136 1 68 1;
#X connect 137 0 138 0;
#X coords 0 -1 1 1 350 70 1 250 50;
