#N canvas 706 82 660 686 10;
#X obj 102 17 inlet~;
#X obj 101 336 outlet~;
#X obj 54 294 *~ 0.2;
#X obj 171 325 r \$1-Rec1;
#X obj 250 594 s \$1-config-\$1-arec1-auto;
#X msg 171 400 1;
#X obj 241 325 r \$1-Rec2;
#X obj 312 327 r \$1-Rec3;
#X obj 383 325 r \$1-Rec4;
#X msg 241 398 2;
#X msg 312 395 3;
#X msg 383 394 4;
#X obj 250 450 f;
#X msg 250 572 1;
#X obj 250 472 t b f;
#X obj 277 520 s \$1-config-\$1-arec1-sampnum;
#X obj 277 495 - 1;
#X obj 171 349 change;
#X obj 241 348 change;
#X obj 312 351 change;
#X obj 383 351 change;
#N canvas 20 400 470 368 dbl 0;
#X obj 178 39 inlet;
#X obj 178 61 sel 1 0;
#X obj 207 111 del 250;
#X obj 178 185 +;
#X msg 178 135 1;
#X obj 207 134 t b b;
#X obj 205 185 f;
#X obj 234 216 f;
#X msg 207 156 0;
#X obj 281 267 b;
#X obj 234 289 outlet;
#X obj 281 290 outlet;
#X msg 220 83 stop;
#X msg 103 68 0;
#X obj 203 291 bng 15 250 50 0 empty empty empty 17 7 0 10 -262144
-1 -1;
#X obj 373 223 bng 15 250 50 0 empty empty empty 17 7 0 10 -262144
-1 -1;
#X floatatom 171 245 5 0 0 0 - - -, f 5;
#X obj 234 241 sel 1 0;
#X msg 100 42 1 \, 0 \, 1 \, 0;
#X msg 98 16 1 \, 0;
#X connect 0 0 1 0;
#X connect 1 0 4 0;
#X connect 1 0 12 0;
#X connect 1 1 2 0;
#X connect 2 0 5 0;
#X connect 3 0 6 0;
#X connect 4 0 3 0;
#X connect 5 0 8 0;
#X connect 5 1 7 0;
#X connect 6 0 3 1;
#X connect 6 0 7 1;
#X connect 7 0 17 0;
#X connect 8 0 6 0;
#X connect 9 0 11 0;
#X connect 12 0 2 0;
#X connect 13 0 1 0;
#X connect 17 0 10 0;
#X connect 17 0 14 0;
#X connect 17 0 16 0;
#X connect 17 2 9 0;
#X connect 17 2 15 0;
#X connect 18 0 1 0;
#X connect 19 0 1 0;
#X restore 171 376 pd dbl;
#N canvas 836 895 470 368 dbl 0;
#X obj 178 39 inlet;
#X obj 178 61 sel 1 0;
#X obj 207 111 del 250;
#X obj 178 185 +;
#X msg 178 135 1;
#X obj 207 134 t b b;
#X obj 205 185 f;
#X obj 234 216 f;
#X msg 207 156 0;
#X obj 281 267 b;
#X obj 234 289 outlet;
#X obj 281 290 outlet;
#X msg 220 83 stop;
#X obj 234 241 sel 1 0;
#X connect 0 0 1 0;
#X connect 1 0 4 0;
#X connect 1 0 12 0;
#X connect 1 1 2 0;
#X connect 2 0 5 0;
#X connect 3 0 6 0;
#X connect 4 0 3 0;
#X connect 5 0 8 0;
#X connect 5 1 7 0;
#X connect 6 0 3 1;
#X connect 6 0 7 1;
#X connect 7 0 13 0;
#X connect 8 0 6 0;
#X connect 9 0 11 0;
#X connect 12 0 2 0;
#X connect 13 0 10 0;
#X connect 13 2 9 0;
#X restore 241 370 pd dbl;
#N canvas 464 818 470 368 dbl 0;
#X obj 178 39 inlet;
#X obj 178 61 sel 1 0;
#X obj 207 111 del 250;
#X obj 178 185 +;
#X msg 178 135 1;
#X obj 207 134 t b b;
#X obj 205 185 f;
#X obj 234 216 f;
#X msg 207 156 0;
#X obj 281 267 b;
#X obj 234 289 outlet;
#X obj 281 290 outlet;
#X msg 220 83 stop;
#X obj 234 241 sel 1 0;
#X connect 0 0 1 0;
#X connect 1 0 4 0;
#X connect 1 0 12 0;
#X connect 1 1 2 0;
#X connect 2 0 5 0;
#X connect 3 0 6 0;
#X connect 4 0 3 0;
#X connect 5 0 8 0;
#X connect 5 1 7 0;
#X connect 6 0 3 1;
#X connect 6 0 7 1;
#X connect 7 0 13 0;
#X connect 8 0 6 0;
#X connect 9 0 11 0;
#X connect 12 0 2 0;
#X connect 13 0 10 0;
#X connect 13 2 9 0;
#X restore 312 373 pd dbl;
#N canvas 1448 506 470 368 dbl 0;
#X obj 178 39 inlet;
#X obj 178 61 sel 1 0;
#X obj 207 111 del 250;
#X obj 178 185 +;
#X msg 178 135 1;
#X obj 207 134 t b b;
#X obj 205 185 f;
#X obj 234 216 f;
#X msg 207 156 0;
#X obj 281 267 b;
#X obj 234 289 outlet;
#X obj 281 290 outlet;
#X msg 220 83 stop;
#X obj 234 241 sel 1 0;
#X connect 0 0 1 0;
#X connect 1 0 4 0;
#X connect 1 0 12 0;
#X connect 1 1 2 0;
#X connect 2 0 5 0;
#X connect 3 0 6 0;
#X connect 4 0 3 0;
#X connect 5 0 8 0;
#X connect 5 1 7 0;
#X connect 6 0 3 1;
#X connect 6 0 7 1;
#X connect 7 0 13 0;
#X connect 8 0 6 0;
#X connect 9 0 11 0;
#X connect 12 0 2 0;
#X connect 13 0 10 0;
#X connect 13 2 9 0;
#X restore 383 374 pd dbl;
#X obj 121 281 hsl 128 15 0 1 0 0 empty empty empty -2 -8 0 10 -262144
-1 -1 0 1;
#X obj 118 304 pow 2;
#X obj 335 499 s \$1-sample-1-reload_file;
#X obj 344 480 s \$1-sample-2-reload_file;
#X obj 358 460 s \$1-sample-3-reload_file;
#X obj 366 441 s \$1-sample-4-reload_file;
#X obj 102 67 autorec \$1-config \$1-arec1 \$1;
#X symbolatom 423 73 0 0 0 0 - #1-sample-1-file-rcv #1-sample-1-file-snd
;
#X symbolatom 423 113 0 0 0 0 - #1-sample-2-file-rcv #1-sample-2-file-snd
;
#X symbolatom 423 146 0 0 0 0 - #1-sample-3-file-rcv #1-sample-3-file-snd
;
#X symbolatom 422 182 0 0 0 0 - #1-sample-4-file-rcv #1-sample-4-file-snd
;
#X obj 415 593 s \$1-config-\$1-arec1-rec;
#X obj 483 550 tgl 15 0 empty empty empty 17 7 0 10 -262144 -1 -1 0
1;
#X obj 102 153 sample \$1 sample-1 120;
#X obj 101 185 sample \$1 sample-2 120;
#X obj 102 217 sample \$1 sample-3 120;
#X obj 101 249 sample \$1 sample-4 120;
#X connect 0 0 31 0;
#X connect 2 0 1 0;
#X connect 3 0 17 0;
#X connect 5 0 12 0;
#X connect 6 0 18 0;
#X connect 7 0 19 0;
#X connect 8 0 20 0;
#X connect 9 0 12 0;
#X connect 10 0 12 0;
#X connect 11 0 12 0;
#X connect 12 0 14 0;
#X connect 13 0 4 0;
#X connect 14 0 13 0;
#X connect 14 1 16 0;
#X connect 16 0 15 0;
#X connect 17 0 21 0;
#X connect 18 0 22 0;
#X connect 19 0 23 0;
#X connect 20 0 24 0;
#X connect 21 0 5 0;
#X connect 22 0 9 0;
#X connect 23 0 10 0;
#X connect 24 0 11 0;
#X connect 25 0 26 0;
#X connect 26 0 2 1;
#X connect 37 0 36 0;
#X connect 38 0 2 0;
#X connect 39 0 2 0;
#X connect 40 0 2 0;
#X connect 41 0 2 0;
#X coords 0 -1 1 1 255 247 1 100 50;
