#N canvas 591 266 591 402 10;
#X obj 50 345 outlet~;
#X obj 78 26 inlet;
#X obj 18 71 sel 0;
#X obj 190 21 inlet;
#X msg 50 296 set \$1;
#X obj 216 214 symbol, f 11;
#X msg 22 132 IN-1;
#X msg 50 133 IN-2;
#X msg 77 133 IN-3;
#X msg 111 133 IN-4;
#X msg 145 133 IN-5;
#X msg 179 133 IN-6;
#X msg 213 133 IN-7;
#X msg 248 133 IN-8;
#X obj 18 49 f \$1;
#X obj 18 2 loadbang;
#X obj 18 24 del 10;
#X obj 50 317 r~ \$0-dummy;
#X obj 228 322 s~ \$0-dummy;
#X msg 285 133 IN-9;
#X msg 318 134 IN-10;
#X msg 359 134 IN-11;
#X msg 393 134 IN-12;
#X msg 431 135 IN-13;
#X msg 461 134 IN-14;
#X msg 495 134 IN-15;
#X msg 530 134 IN-16;
#X obj 57 93 sel 1 2 3 4 5 6 7 8 9 10 11 12 13 14 15 16, f 75;
#X connect 1 0 27 0;
#X connect 2 1 27 0;
#X connect 3 0 5 0;
#X connect 4 0 17 0;
#X connect 5 0 4 0;
#X connect 6 0 5 0;
#X connect 7 0 5 0;
#X connect 8 0 5 0;
#X connect 9 0 5 0;
#X connect 10 0 5 0;
#X connect 11 0 5 0;
#X connect 12 0 5 0;
#X connect 13 0 5 0;
#X connect 14 0 2 0;
#X connect 15 0 16 0;
#X connect 16 0 14 0;
#X connect 17 0 0 0;
#X connect 19 0 5 0;
#X connect 20 0 5 0;
#X connect 21 0 5 0;
#X connect 22 0 5 0;
#X connect 23 0 5 0;
#X connect 24 0 5 0;
#X connect 25 0 5 0;
#X connect 26 0 5 0;
#X connect 27 0 6 0;
#X connect 27 1 7 0;
#X connect 27 2 8 0;
#X connect 27 3 9 0;
#X connect 27 4 10 0;
#X connect 27 5 11 0;
#X connect 27 6 12 0;
#X connect 27 7 13 0;
#X connect 27 8 19 0;
#X connect 27 9 20 0;
#X connect 27 10 21 0;
#X connect 27 11 22 0;
#X connect 27 12 23 0;
#X connect 27 13 24 0;
#X connect 27 14 25 0;
#X connect 27 15 26 0;
