#N canvas 318 141 680 681 10;
#X obj 268 38 r KEP-Ctl;
#X obj 268 85 route load;
#X obj 268 62 route \$1;
#X text 109 6 \$1 : nom unique instrument;
#X obj 53 280 apmaster \$1-SETTING;
#X obj 198 560 s \$1-SETTING-apmaster-rcv;
#X msg 298 397 BASE;
#X obj 298 420 symbol;
#X obj 298 506 pack s s;
#X obj 105 145 bng 50 250 50 0 empty empty SAVE_SETTING 17 7 0 10 -258113
-1 -1;
#X obj 165 162 bng 15 250 50 0 empty empty empty 17 7 0 10 -4034 -1
-1;
#X obj 165 179 bng 15 250 50 0 empty empty empty 17 7 0 10 -258113
-1 -1;
#X obj 50 255 inlet;
#X obj 155 248 inlet;
#X msg 104 384 savein;
#X obj 104 407 s \$1-SETTING-apmaster-rcv;
#N canvas 655 396 284 213 apmaster_symbol 0;
#X obj 75 38 route loaded saved;
#X obj 75 155 outlet;
#X obj 75 67 symbol;
#X obj 75 100 split_path;
#X obj 75 16 r \$1-SETTING-apmaster-snd;
#X connect 0 0 2 0;
#X connect 0 1 2 0;
#X connect 2 0 3 0;
#X connect 3 1 1 0;
#X connect 4 0 0 0;
#X restore 263 108 pd apmaster_symbol;
#X symbolatom 101 125 0 0 0 0 - - -;
#X obj 449 266 loadbang;
#X obj 11 66 r \$1-loadfile;
#X text 20 6 KEPCommon :;
#X text 108 23 \$2 : \$0 pour prepa;
#X obj 263 129 s \$2-prepa;
#X obj 131 340 s \$1-SETTING-prepareSave;
#X obj 104 318 t b b;
#X obj 104 362 del 50;
#X obj 440 409 s \$1-SETTING-loaded;
#X obj 440 335 route loaded;
#X obj 440 362 b;
#X obj 440 389 del 50;
#X obj 440 312 r \$1-SETTING-apmaster-snd;
#X obj 413 409 bng 15 250 50 0 empty empty empty 17 7 0 10 -262144
-1 -1;
#X symbolatom 234 608 0 0 0 0 - - -;
#X obj 298 372 del 10;
#X obj 298 328 random 70;
#X msg 234 586 symbol \$1;
#X obj 298 350 + 10;
#X obj 414 16 r KEP_SETTINGSDIR;
#X obj 414 59 t s b;
#X obj 414 123 pack s s;
#X obj 441 101 split_path;
#X obj 441 79 getdir 1;
#X obj 414 36 symbol;
#X obj 414 167 symbol;
#X obj 414 189 s \$0-settingsDir;
#X symbolatom 368 218 0 0 0 0 - - -;
#X obj 392 145 bng 15 250 50 0 empty empty empty 17 7 0 10 -262144
-1 -1;
#X obj 298 284 r \$0-settingsDir;
#X obj 343 485 r \$0-settingsDir;
#X obj 298 306 b;
#X msg 298 533 loadfile \$2/\$1;
#X msg 147 436 BASE;
#X obj 147 459 symbol;
#X obj 147 484 pack s s;
#X obj 192 463 r \$0-settingsDir;
#X msg 147 511 savefile \$2/\$1;
#X msg 414 145 symbol \$1/ConfigInstrus/\$2;
#X obj 240 162 s \$1-SETTINGFILE-snd;
#X obj 317 457 r \$1-SETTINGFILE-rcv;
#X obj 379 563 apsym KEPsong \$1-SETTINGFILE \$1-SETTINGFILE 2;
#X connect 0 0 2 0;
#X connect 2 0 1 0;
#X connect 6 0 7 0;
#X connect 7 0 8 0;
#X connect 8 0 50 0;
#X connect 9 0 24 0;
#X connect 10 0 4 0;
#X connect 11 0 4 1;
#X connect 12 0 4 0;
#X connect 13 0 4 1;
#X connect 14 0 15 0;
#X connect 16 0 17 0;
#X connect 16 0 22 0;
#X connect 16 0 57 0;
#X connect 24 0 25 0;
#X connect 24 1 23 0;
#X connect 25 0 14 0;
#X connect 27 0 28 0;
#X connect 28 0 29 0;
#X connect 28 0 31 0;
#X connect 29 0 26 0;
#X connect 30 0 27 0;
#X connect 33 0 6 0;
#X connect 34 0 36 0;
#X connect 35 0 32 0;
#X connect 36 0 33 0;
#X connect 37 0 42 0;
#X connect 38 0 39 0;
#X connect 38 1 41 0;
#X connect 39 0 56 0;
#X connect 40 1 39 1;
#X connect 41 0 40 0;
#X connect 42 0 38 0;
#X connect 43 0 44 0;
#X connect 43 0 45 0;
#X connect 46 0 43 0;
#X connect 47 0 49 0;
#X connect 48 0 8 1;
#X connect 49 0 34 0;
#X connect 50 0 5 0;
#X connect 50 0 35 0;
#X connect 51 0 52 0;
#X connect 52 0 53 0;
#X connect 53 0 55 0;
#X connect 54 0 53 1;
#X connect 55 0 5 0;
#X connect 56 0 43 0;
#X connect 58 0 8 0;
#X coords 0 -1 1 1 85 100 1 100 100;
