#N canvas 314 149 613 681 10;
#X obj 268 38 r KEP-Ctl;
#X obj 268 85 route load;
#X obj 268 62 route \$1;
#X text 109 6 \$1 : nom unique instrument;
#X obj 53 280 apmaster \$1-SETTING;
#X obj 106 515 getdir 1;
#X msg 106 452 BASE;
#X obj 106 473 symbol;
#X obj 106 494 t b s;
#X obj 106 537 pack s s;
#X msg 106 559 savefile \$1/SETTING/\$2;
#X obj 177 596 s \$1-SETTING-apmaster-rcv;
#X obj 277 511 getdir 1;
#X msg 277 440 BASE;
#X obj 277 463 symbol;
#X obj 277 486 t b s;
#X obj 277 542 pack s s;
#X msg 277 569 loadfile \$1/SETTING/\$2;
#X obj 105 145 bng 50 250 50 0 empty empty SAVE_SETTING 17 7 0 10 -258113
-1 -1;
#X obj 165 162 bng 15 250 50 0 empty empty empty 17 7 0 10 -4034 -1
-1;
#X obj 165 179 bng 15 250 50 0 empty empty empty 17 7 0 10 -258113
-1 -1;
#X obj 50 255 inlet;
#X obj 155 248 inlet;
#X msg 104 384 savein;
#X obj 104 407 s \$1-SETTING-apmaster-rcv;
#N canvas 652 318 284 213 apmaster_symbol 0;
#X obj 75 38 route loaded saved;
#X obj 75 155 outlet;
#X obj 75 67 symbol;
#X obj 75 100 split_path;
#X obj 75 16 r \$1-SETTING-apmaster-snd;
#X connect 0 0 2 0;
#X connect 0 1 2 0;
#X connect 2 0 3 0;
#X connect 3 1 1 0;
#X connect 4 0 0 0;
#X restore 263 108 pd apmaster_symbol;
#X symbolatom 101 125 0 0 0 0 - - -;
#X symbolatom 58 615 0 0 0 0 - - -;
#X obj 277 351 loadbang;
#X obj 11 66 r \$1-loadfile;
#X text 20 6 KEPCommon :;
#X text 108 23 \$2 : \$0 pour prepa;
#X obj 263 129 s \$2-prepa;
#X obj 131 340 s \$1-SETTING-prepareSave;
#X obj 104 318 t b b;
#X obj 104 362 del 50;
#X obj 384 394 s \$1-SETTING-loaded;
#X obj 384 320 route loaded;
#X obj 384 347 b;
#X obj 384 374 del 50;
#X obj 384 297 r \$1-SETTING-apmaster-snd;
#X obj 357 394 bng 15 250 50 0 empty empty empty 17 7 0 10 -262144
-1 -1;
#X symbolatom 213 644 0 0 0 0 - - -;
#X obj 435 557 print;
#X obj 277 417 del 10;
#X obj 277 373 random 70;
#X msg 58 586 symbol \$1;
#X msg 213 622 symbol \$1;
#X obj 277 395 + 10;
#X connect 0 0 2 0;
#X connect 2 0 1 0;
#X connect 5 0 9 0;
#X connect 6 0 7 0;
#X connect 7 0 8 0;
#X connect 8 0 5 0;
#X connect 8 1 9 1;
#X connect 9 0 10 0;
#X connect 10 0 11 0;
#X connect 10 0 46 0;
#X connect 12 0 16 0;
#X connect 13 0 14 0;
#X connect 14 0 15 0;
#X connect 15 0 12 0;
#X connect 15 1 16 1;
#X connect 16 0 17 0;
#X connect 17 0 11 0;
#X connect 17 0 47 0;
#X connect 18 0 34 0;
#X connect 19 0 4 0;
#X connect 20 0 4 1;
#X connect 21 0 4 0;
#X connect 22 0 4 1;
#X connect 23 0 24 0;
#X connect 25 0 26 0;
#X connect 25 0 32 0;
#X connect 28 0 45 0;
#X connect 34 0 35 0;
#X connect 34 1 33 0;
#X connect 35 0 23 0;
#X connect 37 0 38 0;
#X connect 38 0 39 0;
#X connect 38 0 41 0;
#X connect 39 0 36 0;
#X connect 40 0 37 0;
#X connect 44 0 13 0;
#X connect 45 0 48 0;
#X connect 46 0 27 0;
#X connect 47 0 42 0;
#X connect 48 0 44 0;
#X coords 0 -1 1 1 85 100 1 100 100;
