#N canvas 2337 593 645 484 10;
#X obj 101 101 cnv 15 48 122 empty empty VOLUME 3 8 0 12 -260097 -1
0;
#X obj 102 125 vsl 15 95 0 1 0 0 MASTERVOL-snd MASTERVOL-rcv 44 6 -6
1 8 -159808 -257985 -1 4145 1;
#X obj 117 125 vsl 8 95 0 1 0 0 MASTERVOL_max-snd MASTERVOL_max-rcv
54 -2 -6 1 8 -260097 -257985 -1 5100 1;
#X msg 234 160 label \$1;
#X obj 234 140 makesymbol %s;
#X obj 185 238 m 1;
#X msg 205 381 label \$1;
#X obj 205 357 makesymbol %s;
#X obj 201 311 * 100;
#X obj 203 331 i;
#X obj 198 285 r MASTERVOL_max-snd;
#X obj 203 406 s MASTERVOL_max-rcv;
#X obj 200 218 r MASTERVOL_max-snd;
#X obj 234 71 r MASTERVOL-snd;
#X obj 233 185 s MASTERVOL-rcv;
#X obj 185 259 s MASTER-lvl;
#X obj 234 119 i;
#X obj 234 96 * 100;
#X obj 37 23 apf MASTERS MASTERVOL MASTERVOL 2;
#X obj 36 44 apf MASTERS MASTERVOL_max MASTERVOL_max 2;
#X obj 125 125 vsl 15 95 0 1 0 0 MONITORVOL-snd MONITORVOL-rcv 44 6
-6 1 8 -4034 -257985 -1 5300 1;
#X obj 140 125 vsl 8 95 0 1 0 0 MONITORVOL_max-snd MONITORVOL_max-rcv
43 -2 -6 1 8 -260097 -257985 -1 4100 1;
#X msg 398 157 label \$1;
#X obj 398 137 makesymbol %s;
#X obj 349 235 m 1;
#X msg 369 378 label \$1;
#X obj 369 354 makesymbol %s;
#X obj 365 308 * 100;
#X obj 367 328 i;
#X obj 398 116 i;
#X obj 398 93 * 100;
#X obj 398 68 r MONITORVOL-snd;
#X obj 397 182 s MONITORVOL-rcv;
#X obj 364 215 r MONITORVOL_max-snd;
#X obj 349 256 s MONITOR-lvl;
#X obj 362 282 r MONITORVOL_max-snd;
#X obj 367 403 s MONITORVOL_max-rcv;
#X obj 295 19 apf MASTERS MONITORVOL MONITORVOL 2;
#X obj 294 40 apf MASTERS MONITORVOL_max MONITORVOL_max 2;
#X obj 52 285 r MASTERSvol;
#X obj 39 324 s MASTERVOL-rcv;
#X obj 47 362 s MONITORVOL-rcv;
#X connect 3 0 14 0;
#X connect 4 0 3 0;
#X connect 5 0 15 0;
#X connect 6 0 11 0;
#X connect 7 0 6 0;
#X connect 8 0 9 0;
#X connect 9 0 7 0;
#X connect 10 0 8 0;
#X connect 12 0 5 1;
#X connect 13 0 17 0;
#X connect 13 0 5 0;
#X connect 16 0 4 0;
#X connect 17 0 16 0;
#X connect 22 0 32 0;
#X connect 23 0 22 0;
#X connect 24 0 34 0;
#X connect 25 0 36 0;
#X connect 26 0 25 0;
#X connect 27 0 28 0;
#X connect 28 0 26 0;
#X connect 29 0 23 0;
#X connect 30 0 29 0;
#X connect 31 0 30 0;
#X connect 31 0 24 0;
#X connect 33 0 24 1;
#X connect 35 0 27 0;
#X connect 39 0 40 0;
#X connect 39 0 41 0;
#X coords 0 -1 1 1 50 124 2 100 100;
