#N canvas 348 1192 669 477 10;
#X obj 267 411 +~;
#X obj 132 313 line~;
#X obj 12 35 table \$0-t1 882000;
#X obj 232 120 tgl 15 0 empty empty empty 0 -6 0 8 -262144 -1 -1 0
1;
#X obj 232 52 tgl 15 1 empty empty empty 0 -6 0 8 -262144 -1 -1 1 1
;
#X msg 355 57 const 0;
#X obj 355 111 s \$0-t1;
#X obj 243 78 switch~;
#X obj 439 81 mknob 25 100 0 1 0 1 \$0-long-snd \$0-long-rcv 0.3s -2
-6 0 8 -241291 -1 -1 132 1;
#N canvas 0 0 227 244 label 0;
#X obj 35 190 s \$0-long-rcv;
#X msg 35 162 label \$1;
#X obj 56 17 inlet;
#X obj 57 67 i;
#X obj 57 43 / 100;
#X obj 58 92 / 10;
#X obj 62 124 makesymbol %ss;
#X connect 1 0 0 0;
#X connect 2 0 4 0;
#X connect 3 0 5 0;
#X connect 4 0 3 0;
#X connect 5 0 6 0;
#X connect 6 0 1 0;
#X restore 483 339 pd label;
#X obj 439 109 max 0.005;
#X obj 438 255 t f f;
#X obj 457 358 s \$0-ms;
#X obj 483 283 s \$0-nbsmp;
#X msg 241 350 set \$1;
#X obj 241 330 makesymbol \$0-t%s;
#X obj 12 12 table \$0-t0 882000;
#X msg 262 263 set \$1;
#X obj 262 243 makesymbol \$0-t%s;
#X obj 241 309 == 0;
#X obj 232 139 t b f b b;
#X msg 290 284 stop;
#X obj 368 91 s \$0-t0;
#X obj 135 441 tabwrite~ \$0-t0;
#X obj 103 193 t b b;
#X obj 232 100 metro 2000;
#X obj 133 281 pack f 2000;
#X obj 180 255 r \$0-ms;
#X obj 270 185 88191;
#X obj 312 163 r \$0-nbsmp;
#X obj 493 68 bng 15 250 50 0 empty empty empty 0 -6 0 8 -262144 -1
-1;
#X obj 132 343 tabread~ \$0-t1;
#X msg 67 449 0;
#X floatatom 432 380 12 0 0 0 - - -;
#X floatatom 483 262 12 0 0 0 - - -;
#X obj 439 130 * 30000;
#X text 496 131 ms;
#X obj 433 285 / 44.1;
#X obj 439 169 * 44.1;
#X obj 439 210 i;
#X obj 439 190 / 128;
#X obj 439 230 * 128;
#X obj 432 305 i;
#X obj 432 325 + 1;
#X floatatom 517 168 0 0 0 0 - - -;
#X floatatom 13 327 5 0 0 0 - - -;
#X obj 28 304 -;
#X obj 132 366 mull~ 0 20;
#X obj 33 110 envrms~ 512;
#X obj 439 149 - 1;
#X obj 510 148 s \$0-ms0;
#X obj 297 76 r \$0-ms0;
#X obj 33 61 inlet~;
#X obj 439 49 / 30000;
#X obj 267 441 outlet~;
#X obj 261 0 inlet;
#X obj 25 257 pack f f;
#X msg 28 284 \$2 \$1;
#X obj 25 210 *;
#X obj 25 234 clip 0 1;
#X msg 52 132 1 \$1;
#X obj 52 195 * 1000;
#X floatatom 69 425 5 0 0 0 - - -;
#X obj 52 154 -;
#X obj 52 175 pow 4;
#X obj 270 163 demux;
#X msg 313 185 0;
#X obj 298 144 r \$0-oneway;
#X obj 493 47 s \$0-oneway;
#X obj 175 213 r \$0-nbsmp;
#X obj 133 213 demux;
#X obj 161 194 r \$0-oneway;
#X obj 163 234 f;
#X msg 133 233 0;
#X obj 144 124 *;
#X obj 144 103 t b f;
#X msg 144 77 1;
#X obj 171 56 del;
#X obj 187 16 r \$0-ms0;
#X obj 187 37 - 10;
#X msg 171 75 0;
#X floatatom 117 153 5 0 0 0 - - -;
#X obj 33 85 mull~ 0 1;
#X msg 509 74 0 \, 1;
#X obj 358 441 outlet;
#X obj 261 20 route rec reset time feed over oneway zero tic;
#X connect 0 0 23 0;
#X connect 1 0 31 0;
#X connect 3 0 20 0;
#X connect 4 0 7 0;
#X connect 5 0 6 0;
#X connect 5 0 22 0;
#X connect 8 0 10 0;
#X connect 10 0 35 0;
#X connect 11 0 37 0;
#X connect 11 1 13 0;
#X connect 11 1 34 0;
#X connect 14 0 23 0;
#X connect 15 0 14 0;
#X connect 17 0 31 0;
#X connect 18 0 17 0;
#X connect 19 0 15 0;
#X connect 20 0 24 0;
#X connect 20 1 18 0;
#X connect 20 1 19 0;
#X connect 20 1 84 0;
#X connect 20 2 65 0;
#X connect 20 3 21 0;
#X connect 20 3 77 0;
#X connect 20 3 76 0;
#X connect 21 0 23 0;
#X connect 24 0 23 0;
#X connect 24 1 70 0;
#X connect 25 0 3 0;
#X connect 26 0 1 0;
#X connect 27 0 26 1;
#X connect 28 0 1 0;
#X connect 29 0 28 1;
#X connect 30 0 8 0;
#X connect 31 0 47 0;
#X connect 35 0 44 0;
#X connect 35 0 49 0;
#X connect 35 0 50 0;
#X connect 37 0 42 0;
#X connect 38 0 40 0;
#X connect 39 0 41 0;
#X connect 40 0 39 0;
#X connect 41 0 11 0;
#X connect 42 0 43 0;
#X connect 43 0 12 0;
#X connect 43 0 9 0;
#X connect 43 0 33 0;
#X connect 46 0 47 1;
#X connect 46 0 45 0;
#X connect 47 0 0 0;
#X connect 47 0 54 0;
#X connect 48 0 58 0;
#X connect 49 0 38 0;
#X connect 51 0 25 1;
#X connect 52 0 82 0;
#X connect 53 0 8 0;
#X connect 55 0 85 0;
#X connect 56 0 57 0;
#X connect 57 0 46 0;
#X connect 58 0 59 0;
#X connect 59 0 56 0;
#X connect 60 0 63 0;
#X connect 61 0 58 1;
#X connect 63 0 64 0;
#X connect 64 0 61 0;
#X connect 65 0 28 0;
#X connect 65 1 66 0;
#X connect 66 0 1 0;
#X connect 67 0 65 1;
#X connect 69 0 72 1;
#X connect 70 0 73 0;
#X connect 70 1 72 0;
#X connect 71 0 70 1;
#X connect 72 0 26 0;
#X connect 73 0 26 0;
#X connect 74 0 82 1;
#X connect 74 0 81 0;
#X connect 75 0 74 0;
#X connect 75 1 74 1;
#X connect 76 0 75 0;
#X connect 77 0 80 0;
#X connect 78 0 79 0;
#X connect 79 0 77 1;
#X connect 80 0 75 0;
#X connect 82 0 48 0;
#X connect 82 0 0 0;
#X connect 83 0 25 0;
#X connect 85 0 74 0;
#X connect 85 1 5 0;
#X connect 85 2 53 0;
#X connect 85 3 56 1;
#X connect 85 4 60 0;
#X connect 85 5 68 0;
#X connect 85 6 83 0;
#X connect 85 7 3 0;
