#N canvas 852 509 401 344 10;
#X obj 84 23 inlet;
#X obj 119 178 sel 0 1;
#X msg 68 62 1;
#X msg 111 82 0, f 2;
#X obj 46 118 tgl 15 0 empty empty empty 17 7 0 10 -262144 -1 -1 0
1;
#X obj 16 45 bng 15 250 50 0 empty empty empty 17 7 0 10 -262144 -1
-1;
#X obj 110 61 del 100;
#X obj 146 9 r \$1-\$2-\$3-RafraichRB;
#X obj 116 304 s \$2-\$3-note\$4-rcv;
#X msg 61 236 color 5 13 21;
#X msg 207 239 color 16 13 14;
#X obj 247 189 r \$1-\$2-\$3-TrigRB;
#X obj 20 92 print;
#X obj 259 38 inlet;
#X obj 245 153 sel 0 1;
#X obj 197 47 t b f;
#X obj 33 152 tgl 15 0 empty empty empty 17 7 0 10 -262144 -1 -1 0
1;
#X obj 260 73 t f f;
#X obj 331 84 outlet;
#X obj 278 105 outlet;
#X msg 116 270 color 4 13 21;
#X obj 88 137 demux 0 1;
#X obj 166 167 tgl 15 0 empty empty empty 17 7 0 10 -262144 -1 -1 0
1;
#X obj 47 170 sel 0 1;
#X floatatom 335 156 5 0 0 0 - - -, f 5;
#X connect 0 0 2 0;
#X connect 0 0 5 0;
#X connect 0 0 6 0;
#X connect 1 0 9 0;
#X connect 1 1 10 0;
#X connect 2 0 4 0;
#X connect 2 0 21 0;
#X connect 3 0 4 0;
#X connect 3 0 21 0;
#X connect 6 0 3 0;
#X connect 7 0 6 1;
#X connect 9 0 8 0;
#X connect 10 0 8 0;
#X connect 13 0 17 0;
#X connect 13 0 18 0;
#X connect 13 0 24 0;
#X connect 14 0 9 0;
#X connect 17 0 14 0;
#X connect 17 1 21 1;
#X connect 20 0 8 0;
#X connect 21 0 16 0;
#X connect 21 0 23 0;
#X connect 21 1 22 0;
#X connect 21 1 1 0;
#X connect 23 0 9 0;
#X connect 23 1 20 0;
#X coords 0 344 1 343 208 234 0;
