#N canvas 394 430 783 422 10;
#X obj 277 14 loadbang;
#X obj 277 58 * 44100;
#X msg 277 80 resize \$1;
#X obj 173 100 bng 15 250 50 0 empty empty load 17 7 0 10 -4034 -1
-1;
#X obj 173 116 bng 15 250 50 0 empty empty save 17 7 0 10 -258113 -1
-1;
#X obj 218 103 tgl 15 0 empty empty play 17 7 0 10 -257985 -1 -1 0
1;
#X obj 369 150 sel 1 0;
#X msg 369 213 0 \$1;
#X msg 403 213 stop;
#X msg 465 289 0;
#X obj 465 261 del;
#X obj 465 240 / 44.1;
#X msg 369 172 0;
#X obj 11 114 cnv 10 100 10 empty \$0-time sec:4.7 5 5 0 10 -233017
-66577 0;
#X msg 347 68 0 \$1;
#X obj 527 145 / 4410;
#X obj 527 167 i;
#X obj 527 189 / 10;
#X msg 527 211 label sec:\$1;
#X obj 527 233 s \$0-time;
#X msg 440 21 50000;
#X obj 13 333 soundfiler;
#X obj 13 287 pack s s;
#X obj 13 201 openpanel;
#X obj 168 161 savepanel;
#X obj 168 278 soundfiler;
#X obj 168 231 pack s s f;
#X msg 168 256 write -wave -nframes \$3 \$1 \$2;
#X msg 13 310 read \$1 \$2;
#X obj 168 185 t s b;
#X obj 13 225 t s b;
#X floatatom 335 234 8 0 0 0 - - -, f 8;
#X obj 368 302 outlet~;
#X msg 582 178 label;
#X obj 582 152 loadbang;
#X msg 555 78 symbol \$1/DATAS/SAMPLES;
#X obj 555 31 loadbang;
#X obj 555 100 s \$0-dir;
#X obj 60 174 r \$0-dir;
#X obj 13 175 symbol;
#X obj 613 31 bng 15 250 50 0 empty empty empty 17 7 0 10 -262144 -1
-1;
#X obj 65 56 pack s s;
#X obj 110 32 r \$0-dir;
#X msg 65 77 symbol \$2/\$1;
#X obj 215 137 r \$0-dir;
#X obj 168 138 symbol;
#X obj 112 307 split_path;
#X obj 8 32 split_path;
#X obj 169 327 sel _;
#X obj 555 56 getdir 5;
#X obj 8 10 r \$1-\$2-file-snd;
#X obj 167 9 table \$1-\$2;
#X obj 167 31 table \$1-\$2-len 1;
#X obj 277 36 f \$3;
#X obj 277 103 s \$1-\$2;
#X obj 347 45 r \$1-\$2-setlen;
#X obj 440 43 s \$1-\$2-setlen;
#X obj 347 93 s \$1-\$2-len;
#X obj 369 261 tabplay~ \$1-\$2;
#X obj 195 206 symbol \$1-\$2;
#X obj 225 182 r \$1-\$2-setlen;
#X obj 196 305 r \$1-\$2-file-snd;
#X obj 58 224 symbol \$1-\$2;
#X obj 369 191 tabread \$1-\$2-len;
#X obj 13 356 s \$1-\$2-setlen;
#X obj 196 350 s \$1-\$2-file-rcv;
#X obj 554 6 paramsym \$1 SETTING \$2-file;
#X obj 13 261 symbol;
#X obj 112 370 r \$1-\$2-reload_file;
#X obj 112 392 b;
#X connect 0 0 53 0;
#X connect 1 0 2 0;
#X connect 2 0 54 0;
#X connect 3 0 39 0;
#X connect 4 0 45 0;
#X connect 5 0 6 0;
#X connect 6 0 12 0;
#X connect 6 1 8 0;
#X connect 7 0 58 0;
#X connect 8 0 58 0;
#X connect 9 0 5 0;
#X connect 10 0 9 0;
#X connect 11 0 10 0;
#X connect 12 0 63 0;
#X connect 14 0 57 0;
#X connect 15 0 16 0;
#X connect 16 0 17 0;
#X connect 17 0 18 0;
#X connect 18 0 19 0;
#X connect 20 0 56 0;
#X connect 21 0 64 0;
#X connect 22 0 28 0;
#X connect 23 0 30 0;
#X connect 24 0 29 0;
#X connect 26 0 27 0;
#X connect 27 0 25 0;
#X connect 28 0 21 0;
#X connect 29 0 26 0;
#X connect 29 1 59 0;
#X connect 30 0 46 0;
#X connect 30 0 67 0;
#X connect 30 1 62 0;
#X connect 33 0 19 0;
#X connect 34 0 33 0;
#X connect 35 0 37 0;
#X connect 36 0 49 0;
#X connect 38 0 39 1;
#X connect 39 0 23 0;
#X connect 40 0 49 0;
#X connect 41 0 43 0;
#X connect 42 0 41 1;
#X connect 43 0 30 0;
#X connect 44 0 45 1;
#X connect 45 0 24 0;
#X connect 46 1 48 0;
#X connect 47 1 41 0;
#X connect 48 1 65 0;
#X connect 49 0 35 0;
#X connect 50 0 47 0;
#X connect 53 0 1 0;
#X connect 55 0 14 0;
#X connect 55 0 15 0;
#X connect 58 0 32 0;
#X connect 58 1 9 0;
#X connect 59 0 26 1;
#X connect 60 0 26 2;
#X connect 61 0 48 1;
#X connect 62 0 22 1;
#X connect 63 0 7 0;
#X connect 63 0 11 0;
#X connect 63 0 31 0;
#X connect 67 0 22 0;
#X connect 68 0 69 0;
#X connect 69 0 67 0;
#X coords 0 -1 1 1 250 32 1 10 100;
