#N canvas 2407 210 361 766 10;
#X obj 1 1 cnv 15 40 654 empty empty \$1 1 5 1 8 -257985 -1 0;
#X text -27 -26 KEPtype nomUnique;
#X obj 7 643 bng 10 250 50 0 empty empty empty 17 7 0 10 -4034 -1 -1
;
#X obj 24 643 bng 10 250 50 0 empty empty empty 17 7 0 10 -258113 -1
-1;
#X obj 99 208 tgl 15 1 empty empty empty 17 7 0 10 -262144 -1 -1 1
1;
#X obj 98 226 switch~;
#N canvas 2241 190 827 594 son 1;
#N canvas 2531 119 736 960 ALLSOUND 1;
#X obj 25 905 outlet~;
#X obj 26 764 lop~ 10000;
#X obj 214 790 mull~ 0 10;
#X obj 25 877 +~;
#X obj 26 226 hip~ 10;
#X obj 73 391 *~;
#X obj 89 348 mull~ 0 3;
#X obj 169 288 mknob 25 100 0 1 0 0 \$1-Mul1-snd \$1-Mul1-rcv Mul1
-2 -6 1 8 -262144 -1 -1 3000 1;
#X obj 125 383 sig~ 1;
#X obj 159 350 -;
#X msg 159 329 1 \$1;
#X obj 74 300 dist~ 1;
#X obj 208 489 mknob 25 100 0 1 0 0 \$1-VolAdj-snd \$1-VolAdj-rcv VolAdj
-2 -6 1 8 -262144 -1 -1 7900 1;
#X obj 66 510 * 3;
#X obj 175 500 m;
#X obj 175 392 unpack f f;
#X obj 175 412 != -1;
#X obj 175 478 ||;
#X obj 273 423 tgl 15 0 empty empty empty 0 -6 0 8 -262144 -1 -1 1
1;
#X obj 273 403 sel 1;
#X obj 27 530 mull~ 0.7 1;
#X obj 118 328 * 10;
#N canvas 2019 927 190 272 vol-direct 0;
#X msg 102 74 1 \$1;
#X obj 72 203 outlet;
#X obj 102 156 spigot;
#X obj 102 133 f;
#X obj 57 82 t b f;
#X obj 23 130 sel 0;
#X msg 23 149 1;
#X obj 102 53 inlet;
#X floatatom 136 231 5 0 0 0 - - -, f 5;
#X obj 102 110 *;
#X obj 23 28 r \$1-Rec;
#X connect 0 0 9 0;
#X connect 2 0 1 0;
#X connect 2 0 8 0;
#X connect 3 0 2 0;
#X connect 4 0 3 0;
#X connect 4 1 2 1;
#X connect 5 0 6 0;
#X connect 6 0 1 0;
#X connect 7 0 0 0;
#X connect 9 0 3 0;
#X connect 10 0 5 0;
#X connect 10 0 4 0;
#X restore 96 198 pd vol-direct;
#X obj 184 453 t b f;
#X obj 273 383 change;
#X obj 171 521 tgl 15 0 empty empty empty 17 7 0 10 -262144 -1 -1 0.79798
0.79798;
#X obj 26 204 *~ 1;
#X obj 201 78 inlet~;
#X obj 224 125 mull~ 1 10;
#X obj 26 424 orfilter \$1 FX ortho1;
#X obj 214 811 aprev \$1 FX rev1;
#N canvas 2812 854 226 221 reverb-val 0;
#X obj 49 92 m 1;
#X obj 48 144 outlet;
#X obj 49 51 r \$1-Reverb;
#X obj 64 71 r \$1-Reverb_max;
#X connect 0 0 1 0;
#X connect 2 0 0 0;
#X connect 3 0 0 1;
#X restore 242 770 pd reverb-val;
#X obj 74 57 param \$1 FX Mul1;
#X obj 175 372 r SYNCHRO-clock;
#X obj 273 363 r \$1-tSHIFT-snd;
#X obj 265 82 s \$1-tlREC-rcv;
#X obj 74 78 param \$1 FX VolAdj;
#X obj 96 127 r \$1-Dir-in;
#X obj 27 617 demux~ . .;
#X floatatom 143 719 5 0 0 0 - - -, f 5;
#X obj 85 659 apdisto \$1 OVER disto1;
#X obj 67 594 tgl 15 0 empty empty empty 17 7 0 10 -262144 -1 -1 0
1;
#X obj 85 722 *~ 20;
#X floatatom 446 306 5 0 0 0 - - -, f 5;
#X obj 435 170 r \$1-Note;
#X obj 435 196 * 80;
#X obj 435 218 ++;
#X obj 467 195 r \$1-Key;
#X floatatom 473 238 5 0 0 0 - - -, f 5;
#X obj 466 217 r \$1-Phrases;
#N canvas 541 633 450 456 keyboardmono 1;
#X obj 74 -6894 tgl 15 0 empty empty empty 17 7 0 10 -262144 -1 -1
0 1;
#X obj 92 -6893 tgl 15 0 empty empty empty 17 7 0 10 -262144 -1 -1
0 1;
#X obj 110 -6893 tgl 15 0 empty empty empty 17 7 0 10 -262144 -1 -1
0 1;
#X obj 130 -6893 tgl 15 0 empty empty empty 17 7 0 10 -262144 -1 -1
0 1;
#X obj 101 -6868 * 2;
#X obj 73 -6868 * 1;
#X obj 165 -6847 t b f;
#X obj 160 -6825 +;
#X obj 117 -6819 t b f;
#X obj 112 -6797 +;
#X obj 72 -6800 t b f;
#X obj 56 -6777 +;
#X obj 136 -6868 * 4;
#X obj 171 -6868 * 8;
#X obj 56 -6756 sel 0;
#X obj 83 -6735 t b f;
#X obj 83 -6694 f;
#X msg 49 -6733 stop;
#X obj 83 -6714 del 25;
#X msg 24 -6713 -1;
#X obj 83 -6653 s \$1-keyboardmono;
#X obj 74 -6976 r \$1-N1;
#X obj 92 -6956 r \$1-N2;
#X obj 154 -6776 r \$1-keyboardmono;
#X obj 154 -6714 s \$1-Key;
#X obj 154 -6748 MR_table \$1 table5 \$1 \$2 \$3MR5 1 -1;
#X obj 361 -6774 r \$1-Rec;
#X floatatom 271 -6828 5 0 0 0 - - -, f 5;
#X obj 110 -6937 r \$1-N4;
#X obj 130 -6917 r \$1-N8;
#X floatatom 125 -6671 5 0 0 0 - - -, f 5;
#X connect 0 0 5 0;
#X connect 1 0 4 0;
#X connect 2 0 12 0;
#X connect 3 0 13 0;
#X connect 4 0 9 0;
#X connect 5 0 11 0;
#X connect 6 0 7 0;
#X connect 6 1 7 1;
#X connect 7 0 8 0;
#X connect 8 0 9 0;
#X connect 8 1 9 1;
#X connect 9 0 10 0;
#X connect 10 0 11 0;
#X connect 10 1 11 1;
#X connect 11 0 14 0;
#X connect 12 0 7 0;
#X connect 13 0 6 0;
#X connect 14 0 17 0;
#X connect 14 0 19 0;
#X connect 14 1 15 0;
#X connect 15 0 18 0;
#X connect 15 1 16 1;
#X connect 16 0 20 0;
#X connect 16 0 30 0;
#X connect 17 0 18 0;
#X connect 18 0 16 0;
#X connect 19 0 16 0;
#X connect 21 0 0 0;
#X connect 22 0 1 0;
#X connect 23 0 25 0;
#X connect 25 0 24 0;
#X connect 25 0 27 0;
#X connect 26 0 25 1;
#X connect 28 0 2 0;
#X connect 29 0 3 0;
#X restore 314 291 pd keyboardmono;
#X floatatom 568 238 5 0 0 0 - - -, f 5;
#X obj 435 280 ++;
#X obj 559 216 r \$1-Phrases_vitesse;
#X obj 337 258 s \$1-lvert;
#X obj 466 258 notemodrcvphrase \$0 \$1;
#X floatatom 303 121 5 0 0 0 - - -, f 5;
#X obj 251 59 r \$1-Rec;
#X obj 27 257 *~ 1;
#X obj 457 603 phasor~;
#X obj 457 628 -~ 0.5;
#N canvas 20 703 795 617 fft-analysis 0;
#X obj 94 511 *~;
#X obj 55 511 *~;
#X obj 413 356 *~;
#X obj 372 356 *~;
#X obj 372 379 +~;
#X obj 54 183 *~;
#X obj 54 158 inlet~;
#X obj 54 206 rfft~;
#X obj 54 560 *~;
#X obj 141 245 *~;
#X obj 372 333 rfft~;
#X obj 54 535 rifft~;
#X obj 54 583 outlet~;
#X obj 107 245 *~;
#X obj 107 268 +~;
#X text 458 408 modulus;
#X obj 107 420 *~;
#X obj 600 13 block~ 1024 4;
#X obj 107 398 clip~;
#X obj 87 184 tabreceive~ \$0-hann;
#X obj 515 12 loadbang;
#X obj 147 369 expr 0.01*$f1*$f1;
#X obj 107 294 +~ 1e-20;
#X obj 108 480 *~ 0.00065;
#X obj 87 560 tabreceive~ \$0-hann;
#X obj 373 307 *~;
#X obj 373 282 inlet~;
#X obj 406 308 tabreceive~ \$0-hann;
#X obj 107 321 q8_rsqrt~;
#X obj 372 402 q8_sqrt~;
#X text 458 425 of control;
#X text 456 442 amplitude;
#X text 196 248 reciprocal;
#X text 199 267 modulus of;
#X text 195 287 filter input;
#X text 196 306 amplitude;
#X msg 617 94 \; pd dsp 1 \; window-size 1024 \; squelch 30 \; squelch-set
set 30;
#X text 115 159 filter input;
#X text 438 282 control source;
#X text 434 332 Fourier transform;
#X text 28 17 Internal workings of the timbre stamping algorithm. First
the "filter input" is treated as in the compressor patch \, multiplying
each channel amplitude by one over its modulus (but limited by the
"squelch" parameter.) It is then multiplied by the modulus of the channel
amplitude for the control source (which is Fourier analyzed in parallel
with the filter input.);
#X text 145 422 multiply the two amplitude;
#X text 143 439 factors (for compression;
#X text 145 455 and to apply new timbre);
#X obj 148 346 r \$0-squelch;
#X obj 514 37 f 1024;
#X obj 513 59 s \$0-window-size;
#X connect 0 0 11 1;
#X connect 1 0 11 0;
#X connect 2 0 4 1;
#X connect 3 0 4 0;
#X connect 4 0 29 0;
#X connect 5 0 7 0;
#X connect 6 0 5 0;
#X connect 7 0 13 0;
#X connect 7 0 13 1;
#X connect 7 0 1 0;
#X connect 7 1 9 0;
#X connect 7 1 9 1;
#X connect 7 1 0 0;
#X connect 8 0 12 0;
#X connect 9 0 14 1;
#X connect 10 0 3 0;
#X connect 10 0 3 1;
#X connect 10 1 2 0;
#X connect 10 1 2 1;
#X connect 11 0 8 0;
#X connect 13 0 14 0;
#X connect 14 0 22 0;
#X connect 16 0 23 0;
#X connect 18 0 16 0;
#X connect 19 0 5 1;
#X connect 20 0 45 0;
#X connect 21 0 18 2;
#X connect 22 0 28 0;
#X connect 23 0 0 1;
#X connect 23 0 1 1;
#X connect 24 0 8 1;
#X connect 25 0 10 0;
#X connect 26 0 25 0;
#X connect 27 0 25 1;
#X connect 28 0 18 0;
#X connect 29 0 16 1;
#X connect 44 0 21 0;
#X connect 45 0 46 0;
#X restore 475 662 pd fft-analysis;
#X obj 453 550 mtof;
#X obj 218 252 ac;
#N canvas 1 1247 565 454 hann-window 0;
#N canvas 0 50 450 300 (subpatch) 0;
#X array \$0-hann 1024 float 0;
#X coords 0 1 1023 0 300 100 1;
#X restore 82 311 graph;
#X obj 378 165 osc~;
#X obj 378 190 *~ -0.5;
#X obj 378 214 +~ 0.5;
#X obj 331 247 tabwrite~ \$0-hann;
#X obj 38 173 /;
#X obj 127 142 samplerate~;
#X obj 177 204 swap;
#X obj 177 228 /;
#X obj 49 201 * 1000;
#X obj 38 115 t f b f;
#X msg 173 92 resize \$1;
#X obj 173 116 s \$0-hann;
#X msg 382 130 0;
#X obj 330 131 t f b;
#X text 15 8 calculate Hann window table (variable window size) and
constants window-hz (fundamental frequency of analysis) \, window-sec
and window-msec (analysis window size in seconds and msec).;
#X obj 49 228 s \$0-window-msec;
#X obj 38 251 s \$0-window-sec;
#X obj 177 252 s \$0-window-hz;
#X obj 330 105 r \$0-window-hz;
#X obj 37 88 r \$0-window-size;
#X msg 102 67 1;
#X connect 1 0 2 0;
#X connect 2 0 3 0;
#X connect 3 0 4 0;
#X connect 5 0 9 0;
#X connect 5 0 17 0;
#X connect 6 0 5 1;
#X connect 6 0 7 1;
#X connect 7 0 8 0;
#X connect 7 1 8 1;
#X connect 8 0 18 0;
#X connect 9 0 16 0;
#X connect 10 0 5 0;
#X connect 10 0 7 0;
#X connect 10 1 6 0;
#X connect 10 2 11 0;
#X connect 11 0 12 0;
#X connect 13 0 1 1;
#X connect 14 0 1 0;
#X connect 14 1 4 0;
#X connect 14 1 13 0;
#X connect 19 0 14 0;
#X connect 20 0 10 0;
#X connect 21 0 10 0;
#X restore 530 537 pd hann-window;
#X floatatom 579 625 0 0 500 0 - - -;
#X obj 579 649 s \$0-squelch;
#X obj 576 581 loadbang;
#X msg 578 605 100;
#X floatatom 135 177 5 0 0 0 - - -, f 5;
#X floatatom 100 256 5 0 0 0 - - -, f 5;
#X obj 33 298 +~;
#X obj 482 698 *~ 5;
#X obj 70 807 apecho \$1 FX echo1;
#X obj 227 308 ac;
#X obj 470 745 mull~ 1 10;
#X obj 94 220 * 3;
#X obj 434 780 ac;
#X connect 1 0 2 0;
#X connect 1 0 3 0;
#X connect 2 0 30 0;
#X connect 2 0 73 0;
#X connect 3 0 0 0;
#X connect 4 0 58 0;
#X connect 5 0 29 0;
#X connect 6 0 5 1;
#X connect 7 0 10 0;
#X connect 7 0 21 0;
#X connect 9 0 8 0;
#X connect 10 0 9 0;
#X connect 11 0 6 0;
#X connect 11 0 5 0;
#X connect 12 0 14 1;
#X connect 13 0 20 1;
#X connect 14 0 13 0;
#X connect 14 0 25 0;
#X connect 15 0 16 0;
#X connect 16 0 17 0;
#X connect 17 0 14 0;
#X connect 18 0 23 0;
#X connect 19 0 18 0;
#X connect 20 0 38 0;
#X connect 21 0 6 1;
#X connect 22 0 76 0;
#X connect 23 0 17 0;
#X connect 23 1 17 1;
#X connect 24 0 19 0;
#X connect 26 0 4 0;
#X connect 27 0 28 0;
#X connect 28 0 63 0;
#X connect 28 0 61 1;
#X connect 28 0 58 0;
#X connect 29 0 20 0;
#X connect 30 0 3 1;
#X connect 31 0 2 1;
#X connect 33 0 15 0;
#X connect 34 0 24 0;
#X connect 37 0 22 0;
#X connect 37 0 69 0;
#X connect 38 0 1 0;
#X connect 38 1 40 0;
#X connect 39 0 42 1;
#X connect 40 0 42 0;
#X connect 41 0 38 0;
#X connect 42 0 1 0;
#X connect 44 0 45 0;
#X connect 45 0 46 0;
#X connect 46 0 52 0;
#X connect 47 0 46 1;
#X connect 47 0 54 0;
#X connect 49 0 48 0;
#X connect 49 0 55 0;
#X connect 52 0 43 0;
#X connect 52 0 62 0;
#X connect 53 0 51 0;
#X connect 53 0 55 1;
#X connect 55 0 52 1;
#X connect 55 1 75 1;
#X connect 57 0 28 1;
#X connect 57 0 35 0;
#X connect 57 0 56 0;
#X connect 58 0 71 0;
#X connect 58 0 74 0;
#X connect 59 0 60 0;
#X connect 60 0 61 0;
#X connect 61 0 72 0;
#X connect 62 0 59 0;
#X connect 65 0 66 0;
#X connect 67 0 68 0;
#X connect 68 0 65 0;
#X connect 71 0 11 0;
#X connect 71 0 29 0;
#X connect 72 0 75 0;
#X connect 73 0 3 1;
#X connect 75 0 71 1;
#X connect 75 0 77 0;
#X connect 76 0 58 1;
#X connect 76 0 70 0;
#X restore 32 94 pd ALLSOUND;
#X obj 32 69 inlet~;
#X obj 32 276 outlet~;
#X obj 114 11 MORPHgroup \$1 FX;
#X floatatom 114 -25 5 0 0 0 - - -, f 5;
#X obj 33 251 Vmull~ 0 10;
#X obj 129 161 m 1;
#X obj 266 131 t b;
#X obj 266 109 r SYNCHRO-clock;
#X obj 296 226 m;
#X obj 296 259 nbx 5 14 -1e+37 1e+37 0 0 \$0-Tempo-snd \$0-Tempo-rcv
4 5 -8 0 10 -262144 -1 -1 0 256;
#X obj 129 118 r \$1-Volume;
#X obj 144 140 r \$1-Volume_max;
#X obj 296 181 r \$1-Vitesse;
#X obj 311 203 r \$1-Vitesse_max;
#X obj 114 -9 r \$1-Effet;
#X obj 268 153 s \$1-lrouge;
#X connect 0 0 5 0;
#X connect 1 0 0 0;
#X connect 5 0 2 0;
#X connect 6 0 5 1;
#X connect 7 0 16 0;
#X connect 8 0 7 0;
#X connect 9 0 10 0;
#X connect 11 0 6 0;
#X connect 12 0 6 1;
#X connect 13 0 9 0;
#X connect 14 0 9 1;
#X connect 15 0 3 0;
#X connect 15 0 4 0;
#X restore 63 153 pd son;
#X obj 102 47 KEPface \$1;
#N canvas 1734 276 311 592 KEPboutons 0;
#X obj 26 100 KEPbus \$1 Reverb Reverb_max b4;
#X obj 32 163 KEPbus \$1 N1 -t1- t1;
#X obj 30 184 KEPbus \$1 N2 -t2- t2;
#X obj 32 251 KEPbus \$1 Rec -tL- tREC;
#X obj 31 206 KEPbus \$1 N4 -t3- t3;
#X obj 32 227 KEPbus \$1 N8 -t4- t4;
#X obj 27 34 KEPbus \$1 Note Note_adjust b1;
#X obj 27 55 KEPbus \$1 Phrases Phrases_vitesse b2;
#X obj 25 275 KEPbus \$1 l1 -l1- tl1;
#X obj 25 298 KEPbus \$1 l2 -l2- tl2;
#X obj 27 320 KEPbus \$1 l3 -l3- tl3;
#X obj 27 341 KEPbus \$1 l4 -l4- tl4;
#X obj 22 366 KEPbus \$1 lR -lR- tlREC;
#X obj 158 270 KEPbus \$1 lr -lr- lrouge;
#X obj 158 293 KEPbus \$1 lv -lv- lvert;
#X obj 26 78 KEPbus \$1 Effet Dir-in b3;
#X obj 25 121 KEPbus \$1 Volume Reverb b5;
#X restore 184 414 pd KEPboutons;
#N canvas 1 1225 751 545 note_modulators 0;
#X msg 40 145 8 2 23 23 21 21 14 14 19 19 16 16 19 19 12 0 11 11;
#X msg 43 235 12 6 21 21 21 21 5 5 5 0 21 19 18 18 17 0 16 15;
#X msg 41 347 16 2 13 1 1 13 13 18 1 18 2 18 13 18 9 0 3 13;
#X msg 41 437 14 7 6 6 6 6 8 8 8 8 12 12 12 12 10 0 10 10;
#X msg 415 164 16 8 14 17 19 8 7 10 11 13 18 9 22 10 17 0 1 13;
#X msg 414 257 16 8 18 10 10 18 18 11 13 18 6 23 15 14 18 0 8 17;
#X msg 414 346 7 7 17 6 6 0 15 10 19 19 19 15 10 15 15 0 9 10;
#X msg 413 437 5 5 10 18 6 7 0 9 18 0 0 18 0 8 18 0 18 12;
#X obj 37 101 bng 15 250 50 0 empty empty initall 17 7 0 10 -262144
-1 -1;
#X obj 119 70 loadbang;
#X obj 40 192 notemod \$0 \$1 1;
#X obj 362 78 s \$1-notemods-rcv;
#X obj 355 56 list prepend -1;
#X msg 270 9 16 3 0 2 0 2 0 2 4 5 0 2 0 2 2 0 2 0;
#X msg 307 34 12 4 0 2 4 5 7 9 10 12 14 16 17 19;
#X msg 263 -17 16 4 0 4 2 5 4 7 5 9 7 10 9 12 10 14 12 16;
#X msg 197 8 1 1 1;
#X text 13 37 1°:mesure 2°:vitesse 3...:notes;
#X msg 14 -18 16 8 0 0 0 0 6 12 7 14 3 0 5 2 7 4 9 12;
#X obj 40 121 notemodinit \$0 \$1 1;
#X obj 42 216 notemodinit \$0 \$1 2;
#X obj 41 328 notemodinit \$0 \$1 3;
#X obj 41 418 notemodinit \$0 \$1 4;
#X obj 415 145 notemodinit \$0 \$1 5;
#X obj 414 238 notemodinit \$0 \$1 6;
#X obj 414 327 notemodinit \$0 \$1 7;
#X obj 413 417 notemodinit \$0 \$1 8;
#X obj 41 485 notemod \$0 \$1 4;
#X obj 43 296 notemod \$0 \$1 2;
#X obj 41 394 notemod \$0 \$1 3;
#X obj 415 215 notemod \$0 \$1 5;
#X obj 414 305 notemod \$0 \$1 6;
#X obj 414 394 notemod \$0 \$1 7;
#X obj 413 485 notemod \$0 \$1 8;
#X connect 0 0 10 0;
#X connect 1 0 28 0;
#X connect 2 0 29 0;
#X connect 3 0 27 0;
#X connect 4 0 30 0;
#X connect 5 0 31 0;
#X connect 6 0 32 0;
#X connect 7 0 33 0;
#X connect 8 0 19 0;
#X connect 9 0 8 0;
#X connect 12 0 11 0;
#X connect 13 0 12 0;
#X connect 14 0 12 0;
#X connect 15 0 12 0;
#X connect 16 0 12 0;
#X connect 18 0 12 0;
#X connect 19 0 0 0;
#X connect 20 0 1 0;
#X connect 21 0 2 0;
#X connect 22 0 3 0;
#X connect 23 0 4 0;
#X connect 24 0 5 0;
#X connect 25 0 6 0;
#X connect 26 0 7 0;
#X restore 173 435 pd note_modulators;
#N canvas 2469 348 852 538 KEPphrase_1>8 1;
#X obj 1 28 cnv 15 847 480 empty empty empty 20 12 0 14 -1 -66577 0
;
#X obj 214 270 KEPphrase \$0 \$1 6;
#X obj 4 32 KEPphrase \$0 \$1 1;
#X obj 425 32 KEPphrase \$0 \$1 3;
#X obj 3 270 KEPphrase \$0 \$1 5;
#X obj 214 32 KEPphrase \$0 \$1 2;
#X obj 636 32 KEPphrase \$0 \$1 4;
#X obj 425 270 KEPphrase \$0 \$1 7;
#X obj 636 270 KEPphrase \$0 \$1 8;
#X coords 0 538 1 537 85 60 0;
#X restore 152 165 pd KEPphrase_1>8;
#X obj 171 303 fiddle~;
#X obj 187 550 Instru2Net \$1;
#N canvas 2275 833 450 300 video 0;
#X obj 52 59;
#X restore 109 344 pd video;
#X obj 4 100 MASTERtypeOUT \$1 1;
#X obj 7 661 KEPCommon \$1 \$0;
#X obj 4 12 MASTERtypeIN \$1 1 \$0;
#X connect 2 0 15 0;
#X connect 3 0 15 1;
#X connect 4 0 5 0;
#X connect 6 0 14 0;
#X connect 16 0 6 0;
#X coords 0 -1 1 1 42 656 2 0 0;
