#N canvas 1811 75 750 703 10;
#X declare -path ~/Documents/Fraise2.1/lib/Fraise/pd/;
#X declare -path ~/Pd/build/linux/;
#X declare -path ~/Pd/Demo;
#X obj 51 11 cnv 15 40 570 empty empty \$1 1 5 1 8 -257985 -1 0;
#X text 23 -16 KEPtype nomUnique;
#X obj 126 519 l MASTERtypeIN \$1 1;
#X obj 127 497 l MASTERtypeOUT\$1 1;
#X obj 112 5 l KEPface \$1;
#X obj 58 569 bng 10 250 50 0 empty empty empty 17 7 0 10 -4034 -1
-1;
#X obj 75 569 bng 10 250 50 0 empty empty empty 17 7 0 10 -258113 -1
-1;
#X obj 54 110 MASTERtypeOUT \$1 1;
#X obj 126 552 l MASTERtypeNO_IN;
#N canvas 357 492 311 407 KEPboutons 0;
#X obj 188 142 tLock \$1 1/1;
#X obj 188 162 tLock \$1 1/2;
#X obj 189 182 tLock \$1 1/3;
#X obj 189 202 tLock \$1 1/4;
#X obj 8 8 KEPbus \$1 Vitesse Vitesse_max b1;
#X obj 8 30 KEPbus \$1 Phrases Phrases_max b2;
#X obj 8 53 KEPbus \$1 Effet Decay b3;
#X obj 8 75 KEPbus \$1 Reverb Reverb_max b4;
#X obj 8 97 KEPbus \$1 Volume Volume_max b5;
#X obj 9 139 KEPbus \$1 1/1 -t1- t1;
#X obj 7 160 KEPbus \$1 1/2 -t2- t2;
#X obj 8 182 KEPbus \$1 1/3 -t3- t3;
#X obj 9 203 KEPbus \$1 1/4 -t4- t4;
#X obj 9 227 KEPbus \$1 Lock -tL- tREC;
#X obj 15 265 KEPbus \$1 l1 -l1- tl1;
#X obj 15 288 KEPbus \$1 l2 -l2- tl2;
#X obj 17 310 KEPbus \$1 l3 -l3- tl3;
#X obj 17 331 KEPbus \$1 l4 -l4- tl4;
#X obj 12 356 KEPbus \$1 lR -lR- tlREC;
#X obj 148 260 KEPbus \$1 lr -lr- lrouge;
#X obj 148 283 KEPbus \$1 lv -lv- lvert;
#X restore 127 432 pd KEPboutons;
#N canvas 1025 179 572 401 son 0;
#N canvas 126 223 411 676 ALLSOUND 0;
#X obj 19 317 lop~ 3000;
#X obj 19 498 outlet~;
#X obj 165 232 s \$0-caninstru;
#X obj 166 189 r \$0-visu;
#X msg 166 211 vis 1;
#X obj 18 131 inlet;
#X obj 18 429 +~;
#N canvas 253 151 422 533 synth 0;
#X obj 181 487 outlet~;
#X obj 182 376 *~;
#X obj 184 105 ead~ 1 100;
#X obj 246 17 mknob 25 100 0 1 0 0 \$1-r-snd \$1-r-rcv r -2 -6 193
8 -262144 -1 -1 2648 1;
#X obj 249 85 * 1000;
#X obj 204 53 mknob 25 100 0 1 0 0 \$1-a-snd \$1-a-rcv a -2 -6 193
8 -262144 -1 -1 477 1;
#X obj 204 82 * 100;
#X obj 228 293 osc~ 80;
#X obj 132 60 t b b;
#X msg 133 85 0;
#X obj 228 271 *~ 120;
#X obj 341 178 mknob 25 100 0 1 0 0 \$1-f-snd \$1-f-rcv f -2 -6 193
8 -262144 -1 -1 3514 1;
#X obj 341 218 * 130;
#X obj 340 237 mtof;
#X obj 269 139 mknob 25 100 0 1 0 0 \$1-env2f-snd \$1-env2f-rcv env2f
-2 -6 193 8 -262144 -1 -1 6817 1;
#X obj 260 185 *~;
#X msg 287 185 1 \$1;
#X obj 287 204 -;
#X obj 260 206 +~;
#X obj 110 160 mknob 25 100 0 1 0 0 \$1-volnoise-snd \$1-volnoise-rcv
volnoise -2 -6 193 8 -262144 -1 -1 362 1;
#X obj 66 208 mull~ 0 10;
#X obj 58 187 noise~;
#X obj 132 32 inlet;
#X floatatom 336 273 5 0 0 0 - - -;
#N canvas 2051 417 294 218 shiftcon 0;
#X obj 30 40 inlet;
#X obj 135 32 inlet;
#X text 136 15 shift;
#X obj 135 53 t f f;
#X obj 30 106 f;
#X obj 128 98 spigot;
#X obj 67 109 == 0;
#X obj 30 132 spigot;
#X obj 165 75 != 0;
#X obj 45 180 outlet;
#X obj 79 79 sel 0;
#X text 25 22 normal;
#X obj 128 122 maxlib/scale 0 1 0.01 1;
#X connect 0 0 4 0;
#X connect 1 0 3 0;
#X connect 3 0 5 0;
#X connect 3 0 10 0;
#X connect 3 1 8 0;
#X connect 3 1 6 0;
#X connect 4 0 7 0;
#X connect 5 0 12 0;
#X connect 6 0 7 1;
#X connect 7 0 9 0;
#X connect 8 0 5 1;
#X connect 10 0 4 0;
#X connect 12 0 9 0;
#X restore 249 56 pd shiftcon;
#X floatatom 307 83 5 0 0 0 - - -;
#X obj 96 21 bng 15 250 50 0 empty empty empty 17 7 0 10 -262144 -1
-1;
#X obj 182 415 apcheb \$1 FX cheb1;
#X obj 316 20 r \$1-Decay;
#X connect 1 0 27 0;
#X connect 2 0 1 1;
#X connect 2 0 15 1;
#X connect 3 0 24 0;
#X connect 4 0 2 2;
#X connect 5 0 6 0;
#X connect 6 0 2 1;
#X connect 7 0 1 0;
#X connect 8 0 9 0;
#X connect 8 1 2 0;
#X connect 9 0 7 1;
#X connect 10 0 7 0;
#X connect 11 0 12 0;
#X connect 12 0 13 0;
#X connect 13 0 10 1;
#X connect 13 0 23 0;
#X connect 14 0 15 0;
#X connect 14 0 16 0;
#X connect 15 0 18 0;
#X connect 16 0 17 0;
#X connect 17 0 18 1;
#X connect 18 0 10 0;
#X connect 19 0 20 1;
#X connect 20 0 1 0;
#X connect 21 0 20 0;
#X connect 22 0 8 0;
#X connect 24 0 4 0;
#X connect 24 0 25 0;
#X connect 26 0 8 0;
#X connect 27 0 0 0;
#X connect 28 0 24 1;
#X restore 18 153 pd synth;
#X obj 19 455 *~ 2;
#X obj 18 477 hip~ 10;
#X obj 34 342 mull~ 1 10;
#X obj 223 26 param \$1 FX volnoise;
#X obj 224 52 param \$1 FX a;
#X obj 225 78 param \$1 FX r;
#X obj 225 104 param \$1 FX f;
#X obj 228 131 param \$1 FX env2f;
#X obj 18 175 apdisto \$1 FX disto1;
#X obj 18 235 orfilter \$1 FX ortho1;
#X obj 34 363 aprev \$1 FX rev1;
#X obj 35 15 namecanvas \$0-caninstru;
#X obj 164 300 m 1;
#X obj 164 259 r \$1-Reverb;
#X obj 179 279 r \$1-Reverb_max;
#X connect 0 0 6 0;
#X connect 0 0 10 0;
#X connect 3 0 4 0;
#X connect 4 0 2 0;
#X connect 5 0 7 0;
#X connect 6 0 8 0;
#X connect 7 0 16 0;
#X connect 8 0 9 0;
#X connect 9 0 1 0;
#X connect 10 0 18 0;
#X connect 16 0 17 0;
#X connect 17 0 0 0;
#X connect 18 0 6 1;
#X connect 20 0 10 1;
#X connect 21 0 20 0;
#X connect 22 0 20 1;
#X restore 55 -447 pd ALLSOUND;
#X obj 55 -278 Vmull~ 0 10;
#X obj 56 -252 outlet~;
#X obj 229 -433 t b;
#X obj 229 -455 r SYNCHRO-clock;
#N canvas 2834 801 199 392 touches 0;
#X obj 51 46 ++;
#X obj 51 94 ++;
#X obj 51 70 ++;
#X obj 51 118 sel 0;
#X msg 51 144 -1;
#X obj 24 173 inlet;
#X obj 24 282 outlet;
#X obj 24 237 spigot;
#X obj 78 204 != -1;
#X obj 32 259 bng 15 250 50 0 empty empty empty 17 7 0 10 -262144 -1
-1;
#X obj 78 176 pipe 1;
#X obj 78 230 change;
#X obj 78 253 sel 1;
#X obj 78 286 bng 15 250 50 0 empty empty empty 17 7 0 10 -262144 -1
-1;
#X obj 51 2 r \$1-1/1-lock;
#X obj 66 24 r \$1-1/2-lock;
#X obj 82 48 r \$1-1/3-lock;
#X obj 80 73 r \$1-1/4-lock;
#X connect 0 0 2 0;
#X connect 1 0 3 0;
#X connect 2 0 1 0;
#X connect 3 0 4 0;
#X connect 3 1 10 0;
#X connect 4 0 10 0;
#X connect 5 0 7 0;
#X connect 7 0 6 0;
#X connect 7 0 9 0;
#X connect 8 0 7 1;
#X connect 8 0 11 0;
#X connect 10 0 8 0;
#X connect 11 0 12 0;
#X connect 12 0 6 0;
#X connect 12 0 13 0;
#X connect 14 0 0 0;
#X connect 15 0 0 1;
#X connect 16 0 2 1;
#X connect 17 0 1 1;
#X restore 55 -490 pd touches;
#N canvas 589 1399 708 443 Vitesse 0;
#X obj 140 365 outlet;
#X obj 102 96 i;
#X obj 150 324 t a;
#X obj 99 131 change -1;
#X obj 408 54 i;
#X obj 376 295 t a;
#X obj 408 85 change -1;
#X obj 408 6 r \$0-Tempo-snd;
#X obj 66 319 bng 15 250 50 0 empty empty empty 17 7 0 10 -262144 -1
-1;
#X obj 102 16 r \$0-Tempo-snd;
#X obj 102 42 * 7.9;
#X msg 48 185 1;
#X msg 81 205 2;
#X msg 111 221 3;
#X msg 133 198 4;
#X msg 153 228 6;
#X msg 169 196 8;
#X msg 183 221 12;
#X msg 215 235 16;
#X obj 102 70 + 0;
#X obj 99 154 sel 0 1 2 3 4 5 6 7;
#X obj 407 113 sel 0 1 2 3 4 5 6 7;
#X msg 357 147 1;
#X msg 390 167 2;
#X msg 420 183 3;
#X msg 439 161 4;
#X msg 459 194 6;
#X msg 478 159 8;
#X msg 492 183 12;
#X msg 518 198 16;
#X obj 408 32 * 7.9;
#X msg 376 340 label \$1;
#X obj 376 361 s \$0-Tempo-rcv;
#X msg 376 340 label \$1;
#X obj 376 361 s \$0-Tempo-rcv;
#X obj 376 319 makesymbol %s;
#X connect 1 0 3 0;
#X connect 2 0 0 0;
#X connect 3 0 20 0;
#X connect 4 0 6 0;
#X connect 5 0 35 0;
#X connect 6 0 21 0;
#X connect 7 0 30 0;
#X connect 9 0 10 0;
#X connect 10 0 19 0;
#X connect 11 0 2 0;
#X connect 12 0 2 0;
#X connect 13 0 2 0;
#X connect 14 0 2 0;
#X connect 15 0 2 0;
#X connect 16 0 2 0;
#X connect 17 0 2 0;
#X connect 18 0 2 0;
#X connect 19 0 1 0;
#X connect 20 0 11 0;
#X connect 20 1 12 0;
#X connect 20 2 13 0;
#X connect 20 3 14 0;
#X connect 20 4 15 0;
#X connect 20 5 16 0;
#X connect 20 6 17 0;
#X connect 20 7 18 0;
#X connect 21 0 22 0;
#X connect 21 1 23 0;
#X connect 21 2 24 0;
#X connect 21 3 25 0;
#X connect 21 4 26 0;
#X connect 21 5 27 0;
#X connect 21 6 28 0;
#X connect 21 7 29 0;
#X connect 22 0 5 0;
#X connect 23 0 5 0;
#X connect 24 0 5 0;
#X connect 25 0 5 0;
#X connect 26 0 5 0;
#X connect 27 0 5 0;
#X connect 28 0 5 0;
#X connect 29 0 5 0;
#X connect 30 0 4 0;
#X connect 31 0 32 0;
#X connect 33 0 34 0;
#X connect 35 0 31 0;
#X restore 55 -560 pd Vitesse;
#N canvas 1655 692 740 507 trig 0;
#X obj 160 67 outlet;
#X obj 160 -97 NDmetro;
#X obj 160 44 sel 0;
#X obj 147 -207 spigot;
#X msg 264 -183 -1;
#X obj 265 -245 t f f;
#X obj 264 -206 sel 0;
#X msg 216 -209 \$2 \$1;
#X obj 216 -185 /;
#X obj 205 -128 pack 1 1;
#X obj 216 -162 t b f;
#X obj 161 9 tabread \$0-tt;
#X obj 399 -181 s \$0-tt;
#X msg 371 -248 8 0 1 0 1 0 0 1 0;
#X obj 161 -26 + 1;
#X obj 279 -43 tabread \$0-tt;
#X msg 279 -65 0;
#X obj 371 -223 t b a;
#X obj 183 -280 inlet ND;
#X obj 109 61 bng 15 250 50 0 empty empty empty 17 7 0 10 -262144 -1
-1;
#X obj 80 -155 bng 15 250 50 0 empty empty empty 17 7 0 10 -262144
-1 -1;
#X obj 341 -208 tgl 15 0 empty empty empty 17 7 0 10 -262144 -1 -1
1 1;
#X floatatom 281 5 5 0 0 0 - - -;
#X floatatom 95 22 5 0 0 0 - - -;
#X msg 306 -99 set \$1;
#X symbolatom 510 -43 0 0 0 0 - - -;
#X obj 499 -115 change;
#X obj 499 -158 + 0.5;
#X obj 499 -136 i;
#X obj 499 -183 * 8;
#X floatatom 499 -92 5 0 0 0 - - -;
#X obj 279 -121 t b s;
#X obj 371 -160 symbol \$0-tt;
#X obj 374 -128 table \$0-tt 64;
#X obj 147 -239 r SYNCHRO-clock;
#X floatatom 89 -65 5 0 0 0 - - -;
#X floatatom 283 -151 5 0 0 0 - - -;
#X obj 265 -266 r \$0-onoff;
#X floatatom 116 105 5 0 0 0 - - -;
#X floatatom 49 -27 5 0 0 0 - - -;
#X obj 398 -202 list prepend O;
#X obj 500 -69 makesymbol \$1-STEP-seq%s;
#X obj 506 -13 table \$1-STEP-seq0 64;
#X obj 506 7 table \$1-STEP-seq1 64;
#X obj 505 27 table \$1-STEP-seq2 64;
#X obj 505 47 table \$1-STEP-seq3 64;
#X obj 505 67 table \$1-STEP-seq4 64;
#X obj 505 87 table \$1-STEP-seq5 64;
#X obj 504 107 table \$1-STEP-seq6 64;
#X obj 504 127 table \$1-STEP-seq7 64;
#X obj 504 149 table \$1-STEP-seq8 64;
#X obj 499 -205 m;
#X obj 131 -85 bng 15 250 50 0 empty empty empty 17 7 0 10 -262144
-1 -1;
#X obj 363 79 s \$1-STEP-seq0;
#X obj 363 23 loadbang;
#X msg 363 48 const 1 \, 0 64 \, 1 0;
#X obj 498 -250 r \$1-Phrases;
#X obj 514 -228 r \$1-Phrases_max;
#X connect 1 0 14 0;
#X connect 2 0 0 0;
#X connect 3 0 1 0;
#X connect 3 0 35 0;
#X connect 4 0 1 0;
#X connect 5 0 6 0;
#X connect 5 1 3 1;
#X connect 5 1 21 0;
#X connect 6 0 4 0;
#X connect 7 0 8 0;
#X connect 8 0 10 0;
#X connect 9 0 1 1;
#X connect 10 0 9 0;
#X connect 10 1 9 1;
#X connect 10 1 36 0;
#X connect 11 0 2 0;
#X connect 13 0 17 0;
#X connect 14 0 11 0;
#X connect 16 0 15 0;
#X connect 17 0 32 0;
#X connect 17 1 40 0;
#X connect 18 0 1 1;
#X connect 24 0 15 0;
#X connect 24 0 11 0;
#X connect 26 0 30 0;
#X connect 27 0 28 0;
#X connect 28 0 26 0;
#X connect 29 0 27 0;
#X connect 30 0 41 0;
#X connect 31 0 16 0;
#X connect 31 1 24 0;
#X connect 32 0 31 0;
#X connect 34 0 3 0;
#X connect 37 0 5 0;
#X connect 40 0 12 0;
#X connect 41 0 25 0;
#X connect 41 0 31 0;
#X connect 51 0 29 0;
#X connect 54 0 55 0;
#X connect 55 0 53 0;
#X connect 56 0 51 0;
#X connect 57 0 51 1;
#X restore 55 -512 pd trig;
#X obj 173 -525 MORPHgroup \$1 FX;
#X floatatom 173 -561 5 0 0 0 - - -;
#N canvas 2423 835 313 391 vitesse_push 0;
#X obj 56 278 outlet;
#X obj 74 11 inlet;
#X obj 132 93 ++;
#X obj 147 66 * 2;
#X obj 132 160 ++;
#X obj 147 139 * 3;
#X obj 147 206 * 4;
#X obj 132 230 ++;
#X obj 74 221 t b f;
#X obj 56 253 pack f 1;
#X floatatom 132 265 5 0 0 0 - - -;
#X obj 169 342 s \$1-STEPnum;
#X obj 132 11 r \$1-1/1-lock;
#X obj 147 43 r \$1-1/2-lock;
#X obj 147 114 r \$1-1/3-lock;
#X obj 147 182 r \$1-1/4-lock;
#X connect 1 0 8 0;
#X connect 2 0 4 0;
#X connect 3 0 2 1;
#X connect 4 0 7 0;
#X connect 5 0 4 1;
#X connect 6 0 7 1;
#X connect 7 0 10 0;
#X connect 7 0 9 0;
#X connect 7 0 11 0;
#X connect 8 0 9 0;
#X connect 8 1 9 1;
#X connect 9 0 0 0;
#X connect 12 0 2 0;
#X connect 13 0 3 0;
#X connect 14 0 5 0;
#X connect 15 0 6 0;
#X restore 55 -537 pd vitesse_push;
#X obj 86 -382 m 1;
#X obj 348 -349 nbx 5 14 -1e+37 1e+37 0 0 \$0-Tempo-snd \$0-Tempo-rcv
2 5 -8 0 10 -262144 -1 -1 0.167251 256;
#X obj -12 -388 s \$0-onoff;
#X obj -12 -405 tgl 15 1 empty empty empty 17 7 0 10 -262144 -1 -1
1 1;
#N canvas 2813 593 592 300 led 0;
#X obj 113 -125 tgl 15 0 empty empty empty 17 7 0 10 -262144 -1 -1
0 1;
#X obj 33 -126 tgl 15 0 empty empty empty 17 7 0 10 -262144 -1 -1 1
1;
#X obj 19 -236 change;
#X obj 111 -234 change;
#X obj 202 -233 change;
#X obj 292 -231 change;
#X obj 382 -233 change;
#X obj 207 -113 tgl 15 0 empty empty empty 17 7 0 10 -262144 -1 -1
0 1;
#X obj 19 -193 s \$1-tl1-rcv;
#X obj 111 -193 s \$1-tl2-rcv;
#X obj 202 -193 s \$1-tl3-rcv;
#X obj 292 -193 s \$1-tl4-rcv;
#X obj 382 -192 s \$1-tlREC-rcv;
#X obj 382 -271 r \$1-Lock;
#X obj 19 -271 r \$1-1/1-lock;
#X obj 111 -271 r \$1-1/2-lock;
#X obj 202 -271 r \$1-1/3-lock;
#X obj 292 -271 r \$1-1/4-lock;
#X connect 0 0 9 0;
#X connect 2 0 8 0;
#X connect 3 0 9 0;
#X connect 4 0 10 0;
#X connect 5 0 11 0;
#X connect 6 0 12 0;
#X connect 7 0 8 0;
#X connect 7 0 9 0;
#X connect 7 0 10 0;
#X connect 7 0 11 0;
#X connect 13 0 6 0;
#X connect 14 0 1 0;
#X connect 14 0 2 0;
#X connect 15 0 3 0;
#X connect 16 0 4 0;
#X connect 17 0 5 0;
#X restore 252 -317 pd led;
#X obj 348 -384 m 1;
#X obj 348 -429 r \$1-Vitesse;
#X obj 363 -407 r \$1-Vitesse_max;
#X obj 86 -425 r \$1-Volume;
#X obj 101 -403 r \$1-Volume_max;
#X obj 173 -545 r \$1-Effet;
#X obj 86 -299 m 1;
#X obj 101 -362 r modsmuteck;
#X obj 101 -320 != 1;
#X obj 134 -341 tgl 15 0 \$1-mute-reverse-snd \$1-mute-reverse-rcv
mute-reverse 17 7 0 10 -262144 -1 -1 0 1;
#X obj 165 -274 param \$1 SETTING mute-reverse;
#X obj 229 -411 s \$1-lrouge;
#X obj -34 -429 s \$1-lvert;
#X connect 0 0 1 0;
#X connect 1 0 2 0;
#X connect 3 0 27 0;
#X connect 4 0 3 0;
#X connect 5 0 0 0;
#X connect 5 0 28 0;
#X connect 6 0 10 0;
#X connect 7 0 5 0;
#X connect 10 0 7 0;
#X connect 11 0 22 0;
#X connect 14 0 13 0;
#X connect 16 0 12 0;
#X connect 17 0 16 0;
#X connect 18 0 16 1;
#X connect 19 0 11 0;
#X connect 20 0 11 1;
#X connect 21 0 8 0;
#X connect 21 0 9 0;
#X connect 22 0 1 1;
#X connect 23 0 24 0;
#X connect 24 0 22 1;
#X connect 25 0 24 1;
#X restore 113 126 pd son;
#X obj 109 152 cnv 15 336 250 \$1-seq0-STEPcan-snd \$1-seq0-STEPcan-rcv
empty 20 12 0 14 -42246 -233017 0;
#N canvas 1236 517 262 382 sel_color_STEP 0;
#X obj 52 -96 change;
#X obj 52 -142 + 0.5;
#X obj 52 -120 i;
#X obj 52 -167 * 8;
#X obj 52 -189 m;
#X obj 103 -76 STEPcolor \$1 0;
#X obj 102 -54 STEPcolor \$1 1;
#X obj 103 -32 STEPcolor \$1 2;
#X obj 103 -10 STEPcolor \$1 3;
#X obj 104 12 STEPcolor \$1 4;
#X obj 104 35 STEPcolor \$1 5;
#X obj 103 57 STEPcolor \$1 6;
#X obj 104 79 STEPcolor \$1 7;
#X obj 105 103 STEPcolor \$1 8;
#X obj 51 -234 r \$1-Phrases;
#X obj 67 -212 r \$1-Phrases_max;
#X floatatom 128 -171 5 0 0 0 - - -;
#X connect 0 0 5 0;
#X connect 0 0 6 0;
#X connect 0 0 7 0;
#X connect 0 0 8 0;
#X connect 0 0 9 0;
#X connect 0 0 10 0;
#X connect 0 0 11 0;
#X connect 0 0 12 0;
#X connect 0 0 13 0;
#X connect 1 0 2 0;
#X connect 2 0 0 0;
#X connect 2 0 16 0;
#X connect 3 0 1 0;
#X connect 4 0 3 0;
#X connect 14 0 4 0;
#X connect 15 0 4 1;
#X restore 129 411 pd sel_color_STEP;
#X obj 106 27 KEPface \$1;
#X obj 54 22 MASTERtypeNO_IN \$0;
#X obj 34 611 KEPCommon \$1 \$0;
#X obj 115 158 STEPseq \$1 seq1;
#X obj 280 158 STEPseq \$1 seq2;
#X obj 115 219 STEPseq \$1 seq3;
#X obj 280 219 STEPseq \$1 seq4;
#X obj 115 280 STEPseq \$1 seq5;
#X obj 280 280 STEPseq \$1 seq6;
#X obj 114 341 STEPseq \$1 seq7;
#X obj 280 341 STEPseq \$1 seq8;
#N canvas 1634 203 983 450 Serveur 0;
#X obj 50 59 PdClient \$0 Local;
#X obj 230 77 spigot;
#X obj 282 84 tgl 15 0 empty empty empty 17 7 0 10 -262144 -1 -1 0
1;
#X obj 230 105 print;
#X obj 230 47 r \$0-fromclients;
#X obj 55 177 route fader1;
#X obj 55 210 vsl 15 128 0 1 0 0 empty empty empty 0 -9 0 10 -262144
-1 -1 7493 1;
#X obj 57 404 s \$0-toclients;
#X msg 51 358 Local bonjour;
#X obj 244 175 r \$0-fromserver;
#X msg 75 379 _all_ bonjour;
#X obj 209 376 s \$0-toserver;
#X msg 208 344 TALK _all_ bonjour je suis Arsene;
#X msg 203 310 TALK _all_ BCF3000 fader1 101;
#X obj 244 223 route fader;
#X obj 177 230 spigot;
#X obj 229 237 tgl 15 0 empty empty empty 17 7 0 10 -262144 -1 -1 0
1;
#X obj 177 258 print;
#X obj 55 105 r \$0-fromserver;
#X obj 361 283 s \$0-toserver;
#X floatatom 369 225 5 0 0 0 - - -;
#X msg 355 255 TALK Synth note \$1;
#X obj 360 120 hsl 128 15 0 127 0 0 empty empty empty -2 -8 0 10 -262144
-1 -1 0 1;
#X obj 244 200 route BCF3000;
#X obj 472 29 r \$0-fromserver;
#X obj 472 54 route Lyre;
#X obj 471 75 route X Y;
#X floatatom 468 99 5 0 0 0 - - -;
#X floatatom 506 99 5 0 0 0 - - -;
#X obj 520 144 print;
#X obj 55 137 route nanokontrol;
#X msg 454 318 TALK _all_ Lyre setX \$1;
#X obj 465 292 hsl 128 15 0 1 0 0 empty empty empty -2 -8 0 10 -262144
-1 -1 0 1;
#X obj 461 351 hsl 128 15 0 1 0 0 empty empty empty -2 -8 0 10 -262144
-1 -1 0 1;
#X msg 450 377 TALK _all_ Lyre setY \$1;
#X connect 1 0 3 0;
#X connect 2 0 1 1;
#X connect 4 0 1 0;
#X connect 5 0 6 0;
#X connect 8 0 7 0;
#X connect 9 0 15 0;
#X connect 9 0 23 0;
#X connect 10 0 7 0;
#X connect 12 0 11 0;
#X connect 13 0 11 0;
#X connect 15 0 17 0;
#X connect 16 0 15 1;
#X connect 18 0 30 0;
#X connect 20 0 21 0;
#X connect 21 0 19 0;
#X connect 22 0 20 0;
#X connect 24 0 25 0;
#X connect 25 0 26 0;
#X connect 26 0 27 0;
#X connect 26 1 28 0;
#X connect 30 0 5 0;
#X connect 31 0 11 0;
#X connect 32 0 31 0;
#X connect 33 0 34 0;
#X connect 34 0 11 0;
#X restore 133 586 pd Serveur;
#X obj 308 434 r \$0-fromserver;
#X obj 311 480 route X Y;
#X floatatom 308 504 5 0 0 0 - - -;
#X floatatom 346 504 5 0 0 0 - - -;
#X obj 279 531 r \$0-fromserver;
#X floatatom 240 590 5 0 0 0 - - -;
#X obj 146 677 declare -path ~/Documents/Fraise2.1/lib/Fraise/pd/;
#X obj 150 654 declare -path ~/Pd/build/linux/;
#X obj 148 629 declare -path ~/Pd/Demo;
#X obj 281 597 s \$1-b1-rcv;
#X obj 305 457 route Lyre LyreScreen;
#X obj 279 573 route Vitesse;
#X obj 279 551 route KEP;
#X obj 416 495 r \$0-fromserver;
#X floatatom 377 554 5 0 0 0 - - -;
#X obj 416 515 route KEP;
#X obj 416 537 route Phrases;
#X obj 418 560 s \$1-b2-rcv;
#X obj 385 592 r \$0-fromserver;
#X floatatom 346 651 5 0 0 0 - - -;
#X obj 385 612 route KEP;
#X obj 385 634 route Effet;
#X obj 387 657 s \$1-b3-rcv;
#X obj 506 554 r \$0-fromserver;
#X floatatom 467 613 5 0 0 0 - - -;
#X obj 506 574 route KEP;
#X obj 506 596 route Reverb;
#X obj 508 619 s \$1-b4-rcv;
#X obj 498 310 r \$0-fromserver;
#X floatatom 459 369 5 0 0 0 - - -;
#X obj 498 330 route KEP;
#X obj 501 375 s \$1-b5-rcv;
#X obj 501 352 route Volume;
#X obj 405 7 r \$0-fromserver;
#X floatatom 366 66 5 0 0 0 - - -;
#X obj 405 27 route KEP;
#X obj 409 51 route t1;
#X obj 408 72 s \$1-t1-rcv;
#X obj 498 44 r \$0-fromserver;
#X floatatom 459 103 5 0 0 0 - - -;
#X obj 498 64 route KEP;
#X obj 503 88 route t2;
#X obj 501 109 s \$1-t2-rcv;
#X obj 514 138 r \$0-fromserver;
#X floatatom 475 197 5 0 0 0 - - -;
#X obj 514 158 route KEP;
#X obj 520 181 route t3;
#X obj 517 203 s \$1-t3-rcv;
#X obj 487 404 r \$0-fromserver;
#X floatatom 448 463 5 0 0 0 - - -;
#X obj 487 424 route KEP;
#X obj 493 447 route t4;
#X obj 491 468 s \$1-t4-rcv;
#X obj 487 225 r \$0-fromserver;
#X floatatom 448 284 5 0 0 0 - - -;
#X obj 487 245 route KEP;
#X obj 494 269 route tl;
#X obj 492 290 s \$1-tREC-rcv;
#X obj 245 441 tgl 15 1 empty empty empty 17 7 0 10 -262144 -1 -1 1
1;
#X obj 244 459 switch~;
#X connect 5 0 15 0;
#X connect 6 0 15 1;
#X connect 10 0 7 0;
#X connect 25 0 35 0;
#X connect 26 0 27 0;
#X connect 26 1 28 0;
#X connect 29 0 37 0;
#X connect 35 0 26 0;
#X connect 36 0 30 0;
#X connect 36 0 34 0;
#X connect 37 0 36 0;
#X connect 38 0 40 0;
#X connect 40 0 41 0;
#X connect 41 0 39 0;
#X connect 41 0 42 0;
#X connect 43 0 45 0;
#X connect 45 0 46 0;
#X connect 46 0 44 0;
#X connect 46 0 47 0;
#X connect 48 0 50 0;
#X connect 50 0 51 0;
#X connect 51 0 49 0;
#X connect 51 0 52 0;
#X connect 53 0 55 0;
#X connect 55 0 57 0;
#X connect 57 0 54 0;
#X connect 57 0 56 0;
#X connect 58 0 60 0;
#X connect 60 0 61 0;
#X connect 61 0 59 0;
#X connect 61 0 62 0;
#X connect 63 0 65 0;
#X connect 65 0 66 0;
#X connect 66 0 64 0;
#X connect 66 0 67 0;
#X connect 68 0 70 0;
#X connect 70 0 71 0;
#X connect 71 0 69 0;
#X connect 71 0 72 0;
#X connect 73 0 75 0;
#X connect 75 0 76 0;
#X connect 76 0 74 0;
#X connect 76 0 77 0;
#X connect 78 0 80 0;
#X connect 80 0 81 0;
#X connect 81 0 79 0;
#X connect 81 0 82 0;
#X connect 83 0 84 0;
#X coords 0 -1 1 1 42 572 2 50 10;
