#N canvas 242 213 555 316 12;
#X declare -stdpath mrpeach;
#X declare -stdpath cxc;
#X declare -stdpath hcs;
#X declare -stdpath mapping;
#X declare -path ../modules;
#X declare -path ../bf-pd;
#X declare -stdpath mrpeach/net;
#X declare -stdpath osc;
#X declare -stdpath purepd;
#X text 90 81 Premiers pas avec PureData;
#X text 90 115 Structure d'un instrument de musique numérique;
#X text 115 149 Processus Sonores;
#X text 115 183 Dispositif d'interaction;
#X text 115 217 Mappings;
#X text 115 251 Retours;
#X text 21 12 Conception d'un instrument de musique numérique;
#X text 90 47 PureData et fichiers de l'atelier;
#X obj 10 47 partie1_1;
#X obj 10 81 partie1_2;
#X obj 10 115 partie1_3;
#N canvas 3 99 531 232 declares 0;
#X obj 15 60 declare -stdpath mrpeach;
#X obj 15 80 declare -stdpath cxc;
#X obj 15 100 declare -stdpath hcs;
#X obj 15 120 declare -stdpath mapping;
#X obj 273 38 declare -path ../modules;
#X obj 273 58 declare -path ../bf-pd;
#X obj 15 40 declare -stdpath mrpeach/net;
#X obj 15 140 declare -stdpath osc;
#X obj 15 160 declare -stdpath purepd;
#X restore 425 13 pd declares;
