#N canvas 480 109 791 349 24;
#X obj 46 408 bf-parameter moninstru param1 1 cont;
#X obj 45 480 bf-parameter moninstru param2 4 cont;
#X obj 48 555 bf-parameter moninstru param3 8 bool;
#X obj 22 864 bf-output moninstru out1 6 bang;
#X text 265 23 Coopération;
#X text 43 126 Deux composants sont utilisés pour la coopération
: bf-parameter et bf-output;
#X text 288 359 bf-parameter;
#X text 305 734 bf-output;
#X text 19 1384 fin;
#X text 213 1228 Improvisation libre 3-5mn;
#X text 171 1087 Troisième session par groupes de 3;
#X text 153 1192 Ajoutez des bf-parameter et bf-output;
#X text 341 400 chaque bf-parameter représente un paramètre à partager
, f 30;
#X text 344 465 nom \, 1 ou plusieurs valeurs \, et type (cont \, midi
\, bool \, bang), f 30;
#X text 339 537 valeurs demandées depuis le patch de collaboration
acceptées \, ou accès donné, f 29;
#X text 344 865 nom \, 1 ou plusieurs valeurs \, et type (cont \, midi
\, bool \, bang), f 30;
#X text 341 800 chaque bf-output représente une sortie musicale à
partager, f 30;
#X obj 21 970 bf-watch soninstru;
#X text 343 964 peut être routé depuis le patch de collaboration
vers un des canaux de bf-watch, f 27;
#X obj 21 1024 bng 15 250 50 0 empty empty empty 17 7 0 10 -262144
-1 -1;
#X obj 67 1024 bng 15 250 50 0 empty empty empty 17 7 0 10 -262144
-1 -1;
#X obj 49 647 bf-ask soninstru;
#X obj 52 627 hsl 128 15 0 1 0 0 empty empty empty -2 -8 0 10 -262144
-1 -1 0 1;
#X text 338 627 routées depuis bf-ask vers le patch de collaboration
, f 28;
#X connect 17 0 19 0;
#X connect 17 1 20 0;
#X connect 22 0 21 0;
