#N canvas 15 291 469 303 12;
#X declare -stdpath mrpeach;
#X declare -stdpath cxc;
#X declare -stdpath hcs;
#X declare -stdpath mapping;
#X declare -path ../modules;
#X declare -path ../bf-pd;
#X declare -stdpath mrpeach/net;
#X declare -stdpath osc;
#X declare -stdpath purepd;
#X text 21 32 Conception d'un orchestre d'instruments numériques;
#X text 100 87 Historique;
#X text 100 155 Communication avec BOEUF;
#X text 100 189 Coopération avec BOEUF;
#X text 100 121 Modes de collaboration et BOEUF;
#X obj 12 86 partie2_1;
#X obj 12 121 partie2_2;
#X obj 12 155 partie2_3;
#X obj 12 189 partie2_4;
#N canvas 3 104 531 232 declares 0;
#X obj 15 60 declare -stdpath mrpeach;
#X obj 15 80 declare -stdpath cxc;
#X obj 15 100 declare -stdpath hcs;
#X obj 15 120 declare -stdpath mapping;
#X obj 273 38 declare -path ../modules;
#X obj 273 58 declare -path ../bf-pd;
#X obj 15 40 declare -stdpath mrpeach/net;
#X obj 15 140 declare -stdpath osc;
#X obj 15 160 declare -stdpath purepd;
#X restore 366 263 pd declares;
