#N canvas 424 460 853 413 24;
#X obj 62 2518 inlet;
#X obj 603 2881 outlet;
#X obj 63 2882 outlet~;
#X text 262 150 Processus sonores;
#X text 227 430 Objets et flux audio;
#X obj 101 680 dac~;
#X obj 101 574 osc~;
#X obj 104 500 hsl 128 15 0 127 0 0 empty empty empty -2 -8 0 10 -262144
-1 -1 3100 1;
#X text 262 569 sinusoide;
#X obj 101 626 *~ 0.5;
#X obj 101 529 mtof;
#X text 260 527 conversion en fréquence (Hz);
#X text 261 623 volume;
#X text 265 678 sorties de la carte son;
#X text 98 733 Choix de la carte son (Media->Audio Settings);
#X text 99 765 Activation des flux audio (Media->DSP on);
#X text 260 491 valeur entre 0 et 127 (Put->Hslider);
#X obj 227 1165 dac~;
#X obj 354 1029 osc~;
#X obj 227 1126 *~ 0.5;
#X obj 354 1000 mtof;
#X text 252 848 Séquences et Notes;
#X obj 14 936 tgl 15 0 empty empty empty 17 7 0 10 -262144 -1 -1 0
1;
#X obj 14 961 metro 500;
#X obj 157 1038 vline~;
#X msg 157 1003 1 10 \, 0 100 10;
#X obj 227 1087 *~;
#X msg 181 913 54;
#X msg 231 913 56;
#X obj 223 962 t b f;
#X text 424 957 Contrôle la fréquence puis envoie un bang pour déclencher
une enveloppe, f 27;
#X text 380 956 <-;
#X text 6 1008 bang toutes les 500ms, f 12;
#X msg 283 913 58;
#X obj 252 1585 dac~;
#X obj 285 1375 soundfiler;
#X obj 48 1317 table buffer1;
#X obj 135 2015 dac~;
#X obj 135 1699 adc~;
#X text 286 1245 Buffers;
#X text 239 1662 Entrée audio et effets;
#X obj 135 1944 +~;
#X obj 135 1802 vcf~ 5;
#X obj 172 1753 hsl 128 15 0 127 0 0 empty empty empty -2 -8 0 10 -262144
-1 -1 0 1;
#X obj 169 1773 mtof;
#X obj 40 2164 bfw-metro;
#X obj 346 1946 hsl 128 15 0 0.9 0 0 empty empty empty -2 -8 0 10 -262144
-1 -1 0 1;
#X obj 310 1972 *~;
#X obj 176 1842 hsl 128 15 0 1000 0 0 empty empty empty -2 -8 0 10
-262144 -1 -1 0 1;
#X obj 173 1914 vd~ delai1;
#X obj 310 2001 delwrite~ delai1 5000;
#X obj 173 1886 line~;
#X msg 173 1857 \$1 10;
#X text 387 1765 Filtre passe-bande avec contrôle de la fréquence
, f 24;
#X text 384 1863 Délai variable avec contrôle de durée et de feedback
, f 28;
#X text 382 1699 Entrée de la carte son;
#X obj 252 1542 tabread4~ buffer1;
#X obj 85 1414 hsl 128 15 0 1 0 0 empty empty empty -2 -8 0 10 -262144
-1 -1 0 1;
#X obj 252 1443 *;
#X obj 252 1505 line~;
#X msg 252 1474 \$1 100;
#X text 31 1281 Tableau de float;
#X text 23 1379 Parcours du fichier;
#X text 464 1543 Lecture du flux audio;
#X text 420 1376 Renvoie la taille du buffer;
#X obj 33 2140 hsl 128 15 0 127 0 0 empty empty empty -2 -8 0 10 -262144
-1 -1 0 1;
#X text 283 1301 Remplissage depuis un fichier audio;
#X obj 40 2241 bfw-bip;
#X text 180 2134 bpm;
#X text 121 2201 note et amplitude;
#X obj 30 2290 dac~;
#X obj 164 2303 bfw-poum;
#X obj 274 2303 bfw-basse;
#X obj 84 2457 bfw-filtre;
#X obj 218 2457 bfw-delai;
#X obj 396 2303 bfw-tss;
#X text 210 2093 Abstractions de l'atelier;
#X msg 30 2203 64 0.4;
#X obj 340 2457 bfw-distorsion;
#X text 448 2174 N'hésitez pas à les ouvrir pour les étudier \,
à les modifier et à en créer de nouvelles, f 25;
#X obj 256 2418 bfw-sequence 8;
#X obj 526 2457 bfw-volume;
#X msg 285 1339 read -resize loop.wav buffer1;
#X obj 95 2343 bfw-boucle ../presentation/loop.wav 60 8;
#X obj 119 2383 bfw-granulaire ../presentation/loop.wav;
#X connect 6 0 9 0;
#X connect 7 0 10 0;
#X connect 9 0 5 0;
#X connect 9 0 5 1;
#X connect 10 0 6 0;
#X connect 18 0 26 1;
#X connect 19 0 17 0;
#X connect 19 0 17 1;
#X connect 20 0 18 0;
#X connect 22 0 23 0;
#X connect 23 0 25 0;
#X connect 24 0 26 0;
#X connect 25 0 24 0;
#X connect 26 0 19 0;
#X connect 27 0 29 0;
#X connect 28 0 29 0;
#X connect 29 0 25 0;
#X connect 29 1 20 0;
#X connect 33 0 29 0;
#X connect 35 0 58 1;
#X connect 38 0 42 0;
#X connect 38 1 42 0;
#X connect 41 0 37 0;
#X connect 41 0 37 1;
#X connect 41 0 47 0;
#X connect 42 0 41 0;
#X connect 43 0 44 0;
#X connect 44 0 42 1;
#X connect 45 0 77 0;
#X connect 46 0 47 1;
#X connect 47 0 50 0;
#X connect 48 0 52 0;
#X connect 49 0 41 1;
#X connect 51 0 49 0;
#X connect 52 0 51 0;
#X connect 56 0 34 0;
#X connect 56 0 34 1;
#X connect 57 0 58 0;
#X connect 58 0 60 0;
#X connect 59 0 56 0;
#X connect 60 0 59 0;
#X connect 65 0 45 0;
#X connect 67 0 70 0;
#X connect 67 0 70 1;
#X connect 77 0 67 0;
#X connect 82 0 35 0;
