#N canvas 2165 222 477 794 10;
#X obj 51 11 cnv 15 40 654 empty empty \$1 1 5 1 8 -257985 -1 0;
#X text 23 -16 KEPtype nomUnique;
#X obj 216 32 KEPface \$1;
#X obj 57 653 bng 10 250 50 0 empty empty empty 17 7 0 10 -4034 -1
-1;
#X obj 74 653 bng 10 250 50 0 empty empty empty 17 7 0 10 -258113 -1
-1;
#N canvas 938 1190 311 592 KEPboutons 0;
#X obj 26 78 KEPbus \$1 Effet Decay b3;
#X obj 32 163 KEPbus \$1 N1 -t1- t1;
#X obj 30 184 KEPbus \$1 N2 -t2- t2;
#X obj 32 251 KEPbus \$1 Rec -tL- tREC;
#X obj 31 206 KEPbus \$1 N4 -t3- t3;
#X obj 32 227 KEPbus \$1 N8 -t4- t4;
#X obj 27 34 KEPbus \$1 Note Note_adjust b1;
#X obj 27 55 KEPbus \$1 Phrases Phrases_vitesse b2;
#X obj 25 275 KEPbus \$1 l1 -l1- tl1;
#X obj 25 298 KEPbus \$1 l2 -l2- tl2;
#X obj 27 320 KEPbus \$1 l3 -l3- tl3;
#X obj 27 341 KEPbus \$1 l4 -l4- tl4;
#X obj 22 366 KEPbus \$1 lR -lR- tlREC;
#X obj 158 270 KEPbus \$1 lr -lr- lrouge;
#X obj 158 293 KEPbus \$1 lv -lv- lvert;
#X obj 26 99 KEPbus \$1 Reverb Reverb b4;
#X obj 25 121 KEPbus \$1 Volume Volume b5;
#X restore 174 404 pd KEPboutons;
#X obj 127 467 tgl 15 1 empty empty empty 17 7 0 10 -262144 -1 -1 1
1;
#X obj 126 485 switch~;
#X obj 105 147 cnv 15 336 250 \$1-seq0-STEPcan-snd \$1-seq0-STEPcan-rcv
empty 20 12 0 14 -260097 -233017 0;
#X obj 57 674 KEPCommon \$1 \$0;
#N canvas 1 1441 751 545 note_modulators 0;
#X msg 40 145 8 2 23 24 21 24 19 24 18 24 16 24 14 24 12 12 11 24;
#X msg 43 235 12 6 21 23 24 24 24 5 24 0 21 19 18 24 24 12 16 15;
#X msg 41 347 16 4 9 10 11 24 13 18 2 24 2 18 2 24 12 12 10 24;
#X msg 41 437 14 7 6 24 24 24 8 24 24 24 12 24 13 24 10 12 24 24;
#X msg 415 164 16 6 14 13 12 14 10 10 11 14 24 24 24 9 15 12 14 8;
#X msg 414 257 16 8 18 10 10 24 24 11 13 24 6 23 15 14 24 12 8 17;
#X msg 414 346 7 7 17 6 6 0 15 10 19 19 19 24 10 24 15 12 9 10;
#X msg 413 437 4 5 10 18 6 7 0 9 24 0 0 24 0 8 24 12 24 12;
#X obj 37 101 bng 15 250 50 0 empty empty initall 17 7 0 10 -262144
-1 -1;
#X obj 119 70 loadbang;
#X obj 40 192 notemod \$0 \$1 1;
#X obj 362 78 s \$1-notemods-rcv;
#X obj 355 56 list prepend -1;
#X msg 270 9 16 3 0 2 0 2 0 2 4 5 0 2 0 2 2 0 2 0;
#X msg 307 34 12 4 0 2 4 5 7 9 10 12 14 16 17 19;
#X msg 263 -17 16 4 0 4 2 5 4 7 5 9 7 10 9 12 10 14 12 16;
#X msg 197 8 1 1 1;
#X text 13 37 1°:mesure 2°:vitesse 3...:notes;
#X msg 14 -18 16 8 0 0 0 0 6 12 7 14 3 0 5 2 7 4 9 12;
#X obj 40 121 notemodinit \$0 \$1 1;
#X obj 42 216 notemodinit \$0 \$1 2;
#X obj 41 328 notemodinit \$0 \$1 3;
#X obj 41 418 notemodinit \$0 \$1 4;
#X obj 415 145 notemodinit \$0 \$1 5;
#X obj 414 238 notemodinit \$0 \$1 6;
#X obj 414 327 notemodinit \$0 \$1 7;
#X obj 413 417 notemodinit \$0 \$1 8;
#X obj 41 485 notemod \$0 \$1 4;
#X obj 43 296 notemod \$0 \$1 2;
#X obj 41 394 notemod \$0 \$1 3;
#X obj 415 215 notemod \$0 \$1 5;
#X obj 414 305 notemod \$0 \$1 6;
#X obj 414 394 notemod \$0 \$1 7;
#X obj 413 485 notemod \$0 \$1 8;
#X connect 0 0 10 0;
#X connect 1 0 28 0;
#X connect 2 0 29 0;
#X connect 3 0 27 0;
#X connect 4 0 30 0;
#X connect 5 0 31 0;
#X connect 6 0 32 0;
#X connect 7 0 33 0;
#X connect 8 0 19 0;
#X connect 9 0 8 0;
#X connect 12 0 11 0;
#X connect 13 0 12 0;
#X connect 14 0 12 0;
#X connect 15 0 12 0;
#X connect 16 0 12 0;
#X connect 18 0 12 0;
#X connect 19 0 0 0;
#X connect 20 0 1 0;
#X connect 21 0 2 0;
#X connect 22 0 3 0;
#X connect 23 0 4 0;
#X connect 24 0 5 0;
#X connect 25 0 6 0;
#X connect 26 0 7 0;
#X restore 163 425 pd note_modulators;
#N canvas 369 386 852 538 KEPphrase_1>8 0;
#X obj 0 38 cnv 15 847 480 empty empty empty 20 12 0 14 -1 -66577 0
;
#X obj 214 280 KEPphrase \$0 \$1 6;
#X obj 4 42 KEPphrase \$0 \$1 1;
#X obj 425 42 KEPphrase \$0 \$1 3;
#X obj 3 280 KEPphrase \$0 \$1 5;
#X obj 214 42 KEPphrase \$0 \$1 2;
#X obj 636 42 KEPphrase \$0 \$1 4;
#X obj 425 280 KEPphrase \$0 \$1 7;
#X obj 636 280 KEPphrase \$0 \$1 8;
#X coords 0 538 1 537 85 60 0;
#X restore 142 155 pd KEPphrase_1>8;
#X obj 191 522 Instru2Net \$1;
#X obj 54 110 MASTERtypeOUT \$1 1;
#N canvas 1619 662 572 327 son 0;
#N canvas 402 961 746 771 ALLSOUND 0;
#X obj 19 317 lop~ 3000;
#X obj 21 944 outlet~;
#X obj 16 117 inlet;
#X obj 18 429 +~;
#X obj 19 455 *~ 2;
#X obj 201 588 *~ 20;
#X obj 277 640 ac;
#X obj 116 446 r \$1-Reverb;
#X obj 359 275 sel -1;
#X msg 359 297 0;
#X msg 392 297 100;
#X obj 349 402 pack;
#N canvas 565 340 465 435 gam-pitch 0;
#X obj 198 62 inlet;
#X obj 230 349 outlet;
#X obj 230 147 pack f f;
#X obj 251 124 t b f;
#X obj 252 47 pow 3;
#X obj 251 68 * 100;
#X obj 31 67 r \$0-pitch-snd;
#X obj 113 26 r \$0-gamprepost-snd;
#X obj 97 227 demux;
#X obj 211 112 +;
#X obj 211 90 t b f;
#X obj 230 322 +;
#X obj 216 298 t b f;
#X obj 31 89 * 49;
#X obj 31 110 - 25;
#X obj 31 153 sel -25;
#X msg 31 174 0;
#X obj 97 204 f;
#X obj 113 47 t b f;
#X obj 144 215 demux;
#X msg 144 195 0;
#X floatatom 49 243 5 0 0 0 - - -, f 5;
#X obj 31 129 i;
#X obj 251 103 m 1;
#X obj 280 103 != 0;
#X obj 230 275 +;
#X obj 281 300 t b f;
#X floatatom 311 323 5 0 0 0 - - -, f 5;
#X obj 281 269 r \$0-transgam;
#X obj 281 82 r \$0-ongam;
#X obj 337 39 inlet;
#X msg 364 13 1;
#X floatatom 348 111 5 0 0 0 - - -, f 5;
#X obj 241 7 r \$1-Note_adjust;
#X obj 230 175 gammeRound GAMME1;
#X connect 0 0 9 0;
#X connect 2 0 34 0;
#X connect 3 0 2 0;
#X connect 3 1 2 1;
#X connect 4 0 5 0;
#X connect 5 0 23 0;
#X connect 6 0 13 0;
#X connect 7 0 18 0;
#X connect 8 0 10 0;
#X connect 8 1 12 0;
#X connect 9 0 2 0;
#X connect 10 0 9 0;
#X connect 10 1 9 1;
#X connect 11 0 1 0;
#X connect 12 0 11 0;
#X connect 12 1 11 1;
#X connect 13 0 14 0;
#X connect 14 0 22 0;
#X connect 15 0 16 0;
#X connect 15 1 17 0;
#X connect 16 0 17 0;
#X connect 17 0 8 0;
#X connect 17 0 21 0;
#X connect 18 0 17 0;
#X connect 18 0 20 0;
#X connect 18 1 8 1;
#X connect 18 1 19 1;
#X connect 19 0 12 0;
#X connect 19 1 10 0;
#X connect 20 0 19 0;
#X connect 22 0 15 0;
#X connect 23 0 3 0;
#X connect 24 0 23 1;
#X connect 25 0 11 0;
#X connect 26 0 25 0;
#X connect 26 1 25 1;
#X connect 26 1 27 0;
#X connect 28 0 26 0;
#X connect 29 0 24 0;
#X connect 29 0 32 0;
#X connect 30 0 24 0;
#X connect 31 0 4 0;
#X connect 33 0 4 0;
#X connect 34 0 25 0;
#X restore 338 226 pd gam-pitch;
#X floatatom 349 163 5 0 0 0 - - -, f 5;
#X obj 338 27 r \$1-Note;
#X obj 338 53 * 80;
#X obj 338 75 ++;
#X obj 370 52 r \$1-Key;
#X obj 359 252 r \$1-Key;
#X obj 609 33 cnv 15 72 20 empty empty gam 0 4 1 12 -260818 -1 0;
#X obj 640 33 mknob 12 100 0 1 0 0 \$0-adj-snd \$0-adj-rcv adj -2 16
1 8 -44926 -1 -1 0 1;
#X obj 619 45 tgl 8 0 \$0-gamprepost-snd \$0-gamprepost-rcv empty 0
-6 0 8 -44926 -1 -1 0 1;
#X obj 657 33 mknob 12 100 0 1 0 0 \$0-gamnum-snd \$0-gamnum-rcv off
-2 16 1 8 -62784 -1 -1 0 1;
#X obj 610 9 cnv 15 35 20 empty empty pitch 0 5 1 10 -24198 -258699
0;
#X obj 617 16 mknob 15 100 0 1 0 0 \$0-pitch-snd \$0-pitch-rcv empty
-2 -6 0 8 -241291 -1 -262144 0 1;
#X floatatom 376 95 5 0 0 0 - - -, f 5;
#X obj 369 74 r \$1-Phrases;
#N canvas 541 1192 450 456 keyboardmono 0;
#X obj 74 -7764 tgl 15 0 empty empty empty 17 7 0 10 -262144 -1 -1
0 1;
#X obj 92 -7763 tgl 15 0 empty empty empty 17 7 0 10 -262144 -1 -1
0 1;
#X obj 110 -7763 tgl 15 0 empty empty empty 17 7 0 10 -262144 -1 -1
0 1;
#X obj 130 -7763 tgl 15 0 empty empty empty 17 7 0 10 -262144 -1 -1
0 1;
#X obj 101 -7738 * 2;
#X obj 73 -7738 * 1;
#X obj 165 -7717 t b f;
#X obj 160 -7695 +;
#X obj 117 -7689 t b f;
#X obj 112 -7667 +;
#X obj 72 -7670 t b f;
#X obj 56 -7647 +;
#X obj 136 -7738 * 4;
#X obj 171 -7738 * 8;
#X obj 56 -7626 sel 0;
#X obj 83 -7605 t b f;
#X obj 83 -7564 f;
#X msg 49 -7603 stop;
#X obj 83 -7584 del 25;
#X msg 24 -7583 -1;
#X obj 83 -7523 s \$1-keyboardmono;
#X obj 74 -7846 r \$1-N1;
#X obj 92 -7826 r \$1-N2;
#X obj 154 -7646 r \$1-keyboardmono;
#X obj 154 -7584 s \$1-Key;
#X obj 154 -7618 MR_table \$1 table5 \$1 \$2 \$3MR5 1 -1;
#X obj 361 -7644 r \$1-Rec;
#X floatatom 271 -7698 5 0 0 0 - - -, f 5;
#X obj 110 -7807 r \$1-N4;
#X obj 130 -7787 r \$1-N8;
#X floatatom 125 -7541 5 0 0 0 - - -, f 5;
#X connect 0 0 5 0;
#X connect 1 0 4 0;
#X connect 2 0 12 0;
#X connect 3 0 13 0;
#X connect 4 0 9 0;
#X connect 5 0 11 0;
#X connect 6 0 7 0;
#X connect 6 1 7 1;
#X connect 7 0 8 0;
#X connect 8 0 9 0;
#X connect 8 1 9 1;
#X connect 9 0 10 0;
#X connect 10 0 11 0;
#X connect 10 1 11 1;
#X connect 11 0 14 0;
#X connect 12 0 7 0;
#X connect 13 0 6 0;
#X connect 14 0 17 0;
#X connect 14 0 19 0;
#X connect 14 1 15 0;
#X connect 15 0 18 0;
#X connect 15 1 16 1;
#X connect 16 0 20 0;
#X connect 16 0 30 0;
#X connect 17 0 18 0;
#X connect 18 0 16 0;
#X connect 19 0 16 0;
#X connect 21 0 0 0;
#X connect 22 0 1 0;
#X connect 23 0 25 0;
#X connect 25 0 24 0;
#X connect 25 0 27 0;
#X connect 26 0 25 1;
#X connect 28 0 2 0;
#X connect 29 0 3 0;
#X restore 217 148 pd keyboardmono;
#N canvas 139 496 450 300 env&juste 0;
#X obj 232 141 > 0.95;
#X obj 232 164 change;
#X obj 232 187 + 2;
#X obj 233 208 / 3;
#X obj 235 235 s \$1-gamnum-rcv;
#X obj 232 120 r \$1-juste-snd;
#X obj 41 135 r Gammes;
#X obj 40 177 del 1;
#X obj 41 157 b;
#X obj 40 198 s \$1-juste-rcv;
#X obj 63 43 mknob 25 100 0 1 0 0 \$1-juste-snd \$1-juste-rcv juste
-2 -6 1 8 -262144 -1 -1 8700 1;
#X obj 115 30 r \$1-setap-snd;
#X obj 117 56 route _loaded_;
#X obj 118 78 b;
#X obj 117 98 init 1;
#X obj 25 43 mknob 25 100 0 1 0 0 \$1-env-snd \$1-env-rcv env -2 -6
1 8 -262144 -1 -1 7900 1;
#X obj 29 77 init 0;
#X obj 236 25 param \$1 SETTING env;
#X obj 237 49 param \$1 SETTING juste;
#X connect 0 0 1 0;
#X connect 1 0 2 0;
#X connect 2 0 3 0;
#X connect 3 0 4 0;
#X connect 5 0 0 0;
#X connect 6 0 8 0;
#X connect 7 0 9 0;
#X connect 8 0 7 0;
#X connect 11 0 12 0;
#X connect 12 0 13 0;
#X connect 13 0 14 0;
#X connect 14 0 10 0;
#X connect 16 0 15 0;
#X coords 0 -1 1 1 85 60 1 10 10;
#X restore 210 368 pd env&juste;
#N canvas 249 388 991 295 MRTABLES 0;
#X floatatom 40 183 5 0 0 0 - - -, f 5;
#X obj 105 191 hsl 128 15 0 1 0 0 empty empty empty -2 -6 0 8 -262144
-1 -1 0 1;
#X obj 459 95 r \$1-Reverb-snd;
#X obj 678 92 r \$1-Select-snd;
#X obj 894 100 r \$1-Vol-snd;
#X obj 894 126 s \$1-Vol;
#X obj 678 154 s \$1-Select;
#X obj 460 155 s \$1-Reverb;
#X obj 17 44 r \$1-Play-snd;
#X obj 15 150 s \$1-Play;
#X obj 239 36 r \$1-Note-snd;
#X obj 304 169 s \$1-Note;
#N canvas 109 389 382 377 keybd 0;
#X obj 19 23 inlet;
#X obj 146 19 r \$0-keyboardmono;
#X obj 146 43 != -1;
#X obj 189 238 tgl 15 0 empty empty empty 0 -6 0 8 -262144 -1 -1 0
1;
#X obj 189 289 f;
#X obj 44 336 outlet;
#X obj 44 295 line;
#X msg 233 139 stop;
#X msg 217 290 1;
#X obj 146 67 t f f;
#X obj 63 204 f;
#X obj 176 91 sel 1 0;
#X msg 189 140 set 0;
#X obj 189 261 sel 0 1;
#X obj 282 72 r \$1-clock;
#X obj 231 235 spigot;
#X obj 109 87 tgl 15 0 empty empty empty 0 -6 0 8 -262144 -1 -1 0 1
;
#X obj 231 213 b;
#X msg 63 226 \$1 \, 1 100;
#X obj 281 200 unpack f f;
#X obj 189 314 pack f 125;
#X obj 317 226 / 4;
#X obj 231 169 ndmetro 2 8;
#X obj 231 190 sel 1;
#X connect 0 0 4 1;
#X connect 0 0 6 0;
#X connect 0 0 10 1;
#X connect 1 0 2 0;
#X connect 2 0 9 0;
#X connect 3 0 13 0;
#X connect 4 0 20 0;
#X connect 6 0 5 0;
#X connect 7 0 6 0;
#X connect 8 0 20 0;
#X connect 9 0 15 1;
#X connect 9 0 16 0;
#X connect 9 1 11 0;
#X connect 10 0 18 0;
#X connect 11 0 10 0;
#X connect 11 1 7 0;
#X connect 11 1 12 0;
#X connect 12 0 3 0;
#X connect 13 0 4 0;
#X connect 13 1 8 0;
#X connect 14 0 19 0;
#X connect 14 0 22 0;
#X connect 15 0 3 0;
#X connect 17 0 15 0;
#X connect 18 0 6 0;
#X connect 19 1 21 0;
#X connect 20 0 6 0;
#X connect 21 0 20 1;
#X connect 22 0 23 0;
#X connect 23 0 17 0;
#X restore 17 75 pd keybd;
#N canvas 1 1220 239 239 keyb 0;
#X obj 84 18 r \$0-keyboardmono;
#X obj 20 18 inlet;
#X obj 84 201 outlet;
#X obj 132 53 sel -1;
#X obj 169 75 / 28;
#X obj 169 97 - 0.25;
#X obj 84 60 != -1;
#X obj 84 80 metro 125;
#X obj 84 39 t f f;
#X obj 84 103 t b b;
#X msg 114 124 -2;
#X obj 84 170 + 0.5;
#X connect 0 0 8 0;
#X connect 1 0 2 0;
#X connect 1 0 11 1;
#X connect 3 1 4 0;
#X connect 4 0 5 0;
#X connect 5 0 11 0;
#X connect 6 0 7 0;
#X connect 7 0 9 0;
#X connect 8 0 6 0;
#X connect 8 1 3 0;
#X connect 9 0 11 0;
#X connect 9 1 10 0;
#X connect 10 0 2 0;
#X connect 11 0 2 0;
#X restore 239 65 pd keyb;
#X obj 239 146 moses -0.5;
#X obj 589 206 r \$1-keyboardmono;
#X obj 589 268 s \$1-Key;
#X obj 460 121 MR_table \$1 table3 \$1 \$2 \$3MR3;
#X obj 589 234 MR_table \$1 table5 \$1 \$2 \$3MR5 1 -1;
#X obj 17 123 MR_table \$1 table1 \$1 \$2 \$3MR1 1;
#X obj 239 121 MR_table \$1 table2 \$1 \$2 \$3MR2 1;
#X obj 678 120 MR_table \$1 table4 \$1 \$2 \$3MR4 1;
#X obj 371 35 r \$1-Rec;
#X connect 0 0 1 0;
#X connect 2 0 17 0;
#X connect 3 0 21 0;
#X connect 4 0 5 0;
#X connect 8 0 12 0;
#X connect 10 0 13 0;
#X connect 12 0 19 0;
#X connect 13 0 20 0;
#X connect 14 1 11 0;
#X connect 15 0 18 0;
#X connect 17 0 7 0;
#X connect 18 0 16 0;
#X connect 19 0 9 0;
#X connect 20 0 14 0;
#X connect 21 0 6 0;
#X connect 22 0 17 1;
#X connect 22 0 18 1;
#X connect 22 0 19 1;
#X connect 22 0 20 1;
#X connect 22 0 21 1;
#X restore 90 922 pd MRTABLES;
#X floatatom 471 95 5 0 0 0 - - -, f 5;
#X obj 338 137 ++;
#X obj 462 73 r \$1-Phrases_vitesse;
#X obj 407 205 r \$1-Note_adjust;
#X obj 359 323 f;
#N canvas 1 461 381 330 Gamme 0;
#N canvas 495 74 450 382 i2l 0;
#X obj 221 41 inlet;
#X obj 221 243 outlet;
#X obj 221 90 for++ 0 11;
#X obj 221 62 t b f;
#X obj 251 133 f;
#X obj 251 156 & 1;
#X obj 280 133 >> 1;
#X obj 221 111 t f b;
#X obj 221 184 pack f f;
#X obj 145 243 print;
#X msg 167 71 1625;
#X msg 221 213 set \$1 \$2;
#X connect 0 0 3 0;
#X connect 2 0 7 0;
#X connect 3 0 2 0;
#X connect 3 1 4 1;
#X connect 4 0 5 0;
#X connect 4 0 6 0;
#X connect 5 0 8 1;
#X connect 6 0 4 1;
#X connect 7 0 8 0;
#X connect 7 1 4 0;
#X connect 8 0 11 0;
#X connect 10 0 3 0;
#X connect 11 0 1 0;
#X restore 19 177 pd i2l;
#X obj 19 56 r Gammes;
#X obj 19 154 unpack f f;
#X obj 177 16 r \$0-gamnum-snd;
#X obj 177 36 * 3.9;
#X obj 177 57 i;
#X msg 221 196 label \$1;
#X obj 221 218 s \$0-gamnum-rcv;
#X obj 177 76 change -1;
#X obj 221 175 makesymbol gam%s;
#X obj 177 96 sel 0 1;
#X obj 221 155 - 1;
#X msg 177 115 label off;
#X msg 199 135 label semi;
#X obj 80 222 tabread Gammestab;
#X obj 152 155 * 2;
#X obj 98 262 tabread Gammestab;
#X obj 98 242 + 1;
#X msg 99 154 4095 0;
#X obj 19 90 unwonk f;
#X obj 19 133 l;
#X floatatom 166 190 5 0 0 0 - - -, f 5;
#X msg 83 115 -1;
#X obj 122 114 sel 0 1;
#X obj 152 135 - 2;
#X obj 19 111 sel 0;
#X obj 19 198 s \$0-setgam;
#X obj 84 299 s \$0-transgam;
#X obj 256 95 s \$0-ongam;
#X connect 0 0 26 0;
#X connect 1 0 19 0;
#X connect 2 0 0 0;
#X connect 2 1 27 0;
#X connect 3 0 4 0;
#X connect 4 0 5 0;
#X connect 5 0 8 0;
#X connect 6 0 7 0;
#X connect 8 0 10 0;
#X connect 8 0 23 0;
#X connect 8 0 28 0;
#X connect 9 0 6 0;
#X connect 10 0 12 0;
#X connect 10 1 13 0;
#X connect 10 2 11 0;
#X connect 11 0 9 0;
#X connect 12 0 7 0;
#X connect 13 0 7 0;
#X connect 14 0 0 0;
#X connect 15 0 14 0;
#X connect 15 0 17 0;
#X connect 16 0 27 0;
#X connect 17 0 16 0;
#X connect 18 0 2 0;
#X connect 19 0 25 0;
#X connect 19 1 20 1;
#X connect 20 0 2 0;
#X connect 22 0 25 1;
#X connect 23 0 18 0;
#X connect 23 0 22 0;
#X connect 23 1 18 0;
#X connect 23 1 22 0;
#X connect 23 2 24 0;
#X connect 24 0 15 0;
#X connect 24 0 21 0;
#X connect 24 0 25 1;
#X connect 25 0 20 0;
#X restore 143 82 pd Gamme;
#X obj 240 115 s \$1-lvert;
#X obj 543 157 l notemodrcv \$0 \$1;
#X obj 20 483 mull~ 1 10;
#X floatatom 204 324 5 0 0 0 - - -, f 5;
#X obj 55 614 mull~ 1 10;
#X obj 19 587 +~;
#X obj 21 720 +~;
#X obj 67 506 mull~ 1 10;
#N canvas 1670 899 450 300 env 0;
#X obj 38 16 inlet~;
#X obj 36 279 outlet~;
#X obj 80 188 ead~ 1 100;
#X obj 154 128 mknob 25 100 0 1 0 0 \$1-r-snd \$1-r-rcv r -2 -6 1 8
-262144 -1 -1 9900 1;
#X obj 109 131 mknob 25 100 0 1 0 0 \$1-a-snd \$1-a-rcv a -2 -6 1 8
-262144 -1 -1 0 1;
#N canvas 2047 495 294 218 shiftcon 0;
#X obj 30 40 inlet;
#X obj 135 32 inlet;
#X text 136 15 shift;
#X obj 135 53 t f f;
#X obj 30 106 f;
#X obj 128 98 spigot;
#X obj 67 109 == 0;
#X obj 30 132 spigot;
#X obj 165 75 != 0;
#X obj 45 180 outlet;
#X obj 79 79 sel 0;
#X text 25 22 normal;
#X obj 128 122 maxlib/scale 0 1 0.01 1;
#X connect 0 0 4 0;
#X connect 1 0 3 0;
#X connect 3 0 5 0;
#X connect 3 0 10 0;
#X connect 3 1 8 0;
#X connect 3 1 6 0;
#X connect 4 0 7 0;
#X connect 5 0 12 0;
#X connect 6 0 7 1;
#X connect 7 0 9 0;
#X connect 8 0 5 1;
#X connect 10 0 4 0;
#X connect 12 0 9 0;
#X restore 187 172 pd shiftcon;
#X floatatom 245 199 5 0 0 0 - - -, f 5;
#X obj 57 231 *~;
#X obj 226 36 inlet;
#X obj 84 29 inlet;
#X floatatom 192 240 5 0 0 0 - - -, f 5;
#X obj 187 201 * 10000;
#X obj 266 95 param \$1 SETTING a;
#X obj 267 116 param \$1 SETTING r;
#X obj 111 68 init 0;
#X obj 311 166 r \$1-setap-snd;
#X obj 313 192 route _loaded_;
#X obj 314 214 b;
#X obj 313 234 init 1;
#X obj 103 163 * 500;
#X connect 0 0 7 0;
#X connect 2 0 7 1;
#X connect 3 0 5 0;
#X connect 4 0 19 0;
#X connect 5 0 6 0;
#X connect 5 0 11 0;
#X connect 7 0 1 0;
#X connect 8 0 5 1;
#X connect 9 0 2 0;
#X connect 11 0 2 2;
#X connect 11 0 10 0;
#X connect 14 0 4 0;
#X connect 15 0 16 0;
#X connect 16 0 17 0;
#X connect 17 0 18 0;
#X connect 18 0 3 0;
#X connect 19 0 2 1;
#X coords 0 -1 1 1 85 60 1 100 100;
#X restore 337 677 pd env;
#X obj 415 654 r \$1-Decay;
#X obj 366 651 sel 1;
#X obj 462 417 mknob 25 100 0 1 0 0 \$1-cf-snd \$1-cf-rcv cf -2 -6
0 8 -261689 -1 -66577 2800 1;
#X obj 504 419 mknob 25 100 0 1 0 0 \$1-bw-snd \$1-bw-rcv bw -2 -6
0 8 -225271 -1 -66577 6400 1;
#X floatatom 300 479 5 0 0 0 - - -, f 5;
#X obj 541 432 mknob 25 100 0 1 0 0 \$1-vib-snd \$1-vib-rcv vib -2
-6 0 8 -225280 -1 -66577 0 1;
#X obj 576 433 mknob 25 100 0 1 0 0 \$1-vfr-snd \$1-vfr-rcv vfr -2
-6 0 8 -257472 -1 -66577 0 1;
#X obj 624 441 mknob 25 100 0 1 0 0 \$1-shift-snd \$1-shift-rcv shift
-2 -6 0 8 -228992 -1 -66577 0 1;
#N canvas 0 647 696 503 pafffffffffffff 0;
#X obj 86 360 outlet~;
#X obj 27 27 inlet;
#X obj 25 105 mtof;
#X obj 200 106 mtof;
#X obj 274 106 mtof;
#X obj 115 105 dbtorms;
#X msg 614 133 phase 0 0 0;
#X floatatom 621 12 5 0 0 0 - - -, f 5;
#X obj 223 5 inlet;
#X obj 279 2 inlet;
#X obj 431 94 * 127;
#X obj 532 61 * 127;
#X obj 361 18 inlet;
#X obj 417 15 inlet;
#X obj 535 13 inlet;
#X obj 157 6 inlet;
#X obj 121 67 * 127;
#X obj 276 52 * 127;
#X obj 152 47 pow 2;
#X floatatom 296 308 9 0 0 0 - - -, f 9;
#X obj 208 51 * 127;
#X obj 362 88 * 0.5;
#X obj 429 70 pow 2;
#X obj 361 63 pow 2;
#X msg 25 130 freq \$1 1;
#X msg 115 130 amp \$1 10;
#X msg 200 131 cf \$1 10;
#X msg 274 131 bw \$1 10;
#X msg 353 131 vib \$1 10;
#X msg 433 131 vfr \$1 10;
#X msg 518 131 shift \$1 10;
#X floatatom 597 82 5 0 0 0 - - -, f 5;
#X obj 518 107 max 0.6;
#X obj 86 333 hip~ 15;
#X obj 29 63 unpack f f;
#X floatatom 101 200 5 0 0 0 - - -, f 5;
#X floatatom 24 199 5 0 0 0 - - -, f 5;
#N canvas 917 432 654 565 paf 0;
#X obj 127 335 cos~;
#X obj 127 312 *~;
#X obj 170 335 cos~;
#X obj 225 280 wrap~;
#X obj 189 280 -~;
#X obj 170 312 +~;
#X obj 163 365 -~;
#X obj 183 397 *~;
#X obj 145 397 +~;
#X obj 189 248 samphold~;
#X floatatom 189 48 4 0 127 0 - - -, f 4;
#X text 185 10 center;
#X obj 189 115 line~;
#X obj 189 92 pack 0 50;
#X obj 80 191 phasor~;
#X floatatom 80 97 0 0 127 0 - - -;
#X text 71 58 fundamental;
#X floatatom 387 111 4 0 127 0 - - -, f 4;
#X obj 387 182 line~;
#X obj 298 311 *~;
#X obj 387 159 pack 0 50;
#N canvas 88 330 600 388 make-table 0;
#X msg 81 44 bang;
#X obj 81 73 t b b;
#X obj 159 142 f;
#X obj 197 142 + 1;
#X msg 175 112 0;
#X obj 81 102 until;
#X obj 161 177 t f f;
#X obj 52 270 expr exp(-$f1*$f1);
#X obj 63 168 sel 199;
#X obj 51 241 expr ($f1-100)/25;
#N canvas 0 50 450 300 (subpatch) 0;
#X array \$0-bell-curve 200 float 1;
#A 0 1.12535e-07 1.54727e-07 2.12059e-07 2.89706e-07 3.94519e-07 5.35535e-07
7.24633e-07 9.77371e-07 1.31404e-06 1.76105e-06 2.35258e-06 3.13275e-06
4.15832e-06 5.50199e-06 7.25659e-06 9.54016e-06 1.25023e-05 1.63317e-05
2.1266e-05 2.76026e-05 3.57128e-05 4.60584e-05 5.92113e-05 7.58768e-05
9.69224e-05 0.00012341 0.000156634 0.000198167 0.000249912 0.000314163
0.000393669 0.000491721 0.000612231 0.000759842 0.000940028 0.00115923
0.00142498 0.00174605 0.00213263 0.00259648 0.00315111 0.00381201 0.00459678
0.0055254 0.0066204 0.00790705 0.0094136 0.0111714 0.013215 0.0155826
0.0183156 0.0214592 0.0250621 0.0291763 0.0338573 0.0391639 0.0451575
0.0519019 0.0594631 0.0679081 0.0773047 0.0877205 0.0992216 0.111872
0.125732 0.140858 0.1573 0.1751 0.194291 0.214896 0.236928 0.260383
0.285247 0.311486 0.339053 0.367879 0.397882 0.428956 0.46098 0.493812
0.527292 0.561244 0.595473 0.62977 0.663916 0.697676 0.730811 0.763074
0.794216 0.823987 0.852144 0.878447 0.902668 0.924595 0.944027 0.960789
0.974725 0.985703 0.99362 0.998401 1 0.998401 0.99362 0.985703 0.974725
0.960789 0.944027 0.924595 0.902668 0.878447 0.852144 0.823987 0.794216
0.763074 0.730811 0.697676 0.663916 0.62977 0.595473 0.561244 0.527292
0.493812 0.46098 0.428956 0.397882 0.367879 0.339053 0.311486 0.285247
0.260383 0.236928 0.214896 0.194291 0.1751 0.1573 0.140858 0.125732
0.111872 0.0992216 0.0877205 0.0773047 0.0679081 0.0594631 0.0519019
0.0451575 0.0391639 0.0338573 0.0291763 0.0250621 0.0214592 0.0183156
0.0155826 0.013215 0.0111714 0.0094136 0.00790705 0.0066204 0.0055254
0.00459678 0.00381201 0.00315111 0.00259648 0.00213263 0.00174605 0.00142498
0.00115923 0.000940028 0.000759842 0.000612231 0.000491721 0.000393669
0.000314163 0.000249912 0.000198167 0.000156634 0.00012341 9.69224e-05
7.58768e-05 5.92113e-05 4.60584e-05 3.57128e-05 2.76026e-05 2.1266e-05
1.63317e-05 1.25023e-05 9.54016e-06 7.25659e-06 5.50199e-06 4.15832e-06
3.13275e-06 2.35258e-06 1.76105e-06 1.31404e-06 9.77371e-07 7.24633e-07
5.35535e-07 3.94519e-07 2.89706e-07 2.12059e-07 1.54727e-07;
#X coords 0 1 199 0 200 140 1;
#X restore 342 85 graph;
#X obj 76 306 tabwrite \$0-bell-curve;
#X connect 0 0 1 0;
#X connect 1 0 5 0;
#X connect 1 1 4 0;
#X connect 2 0 3 0;
#X connect 2 0 6 0;
#X connect 2 0 8 0;
#X connect 3 0 2 1;
#X connect 4 0 2 1;
#X connect 5 0 2 0;
#X connect 6 0 9 0;
#X connect 6 1 11 1;
#X connect 7 0 11 0;
#X connect 8 0 5 1;
#X connect 9 0 7 0;
#X restore 536 374 pd make-table;
#X obj 298 285 cos~;
#X obj 298 260 -~ 0.25;
#X obj 298 337 +~ 100;
#X obj 184 426 *~;
#X text 330 385 waveshaper;
#X obj 80 121 mtof;
#X obj 211 140 expr 1/$f1;
#X obj 189 68 mtof;
#X text 184 25 freq.;
#X obj 189 164 *~;
#X text 385 84 bandwidth;
#X obj 387 133 mtof;
#X obj 387 218 *~;
#X obj 387 242 *~ 25;
#X text 427 217 divide by fundamental;
#X text 445 241 range for table;
#X text 364 336 offset to middle of table;
#X text 196 186 C.F. relative;
#X text 197 202 to fundamental;
#X text 69 73 (MIDI units);
#X text 220 424 ring mod;
#X obj 298 235 *~ 0.5;
#X obj 298 360 tabread4~ \$0-bell-curve;
#X obj 28 16 inlet;
#X obj 255 8 inlet;
#X obj 256 30 * 128;
#X obj 355 43 inlet;
#X obj 356 65 * 128;
#X obj 185 493 outlet~;
#X obj 186 457 *~ 0.1;
#X connect 0 0 6 1;
#X connect 0 0 8 0;
#X connect 1 0 5 0;
#X connect 1 0 0 0;
#X connect 2 0 6 0;
#X connect 3 0 4 1;
#X connect 3 0 7 1;
#X connect 4 0 1 1;
#X connect 5 0 2 0;
#X connect 6 0 7 0;
#X connect 7 0 8 1;
#X connect 8 0 25 0;
#X connect 9 0 4 0;
#X connect 9 0 3 0;
#X connect 10 0 29 0;
#X connect 12 0 31 0;
#X connect 13 0 12 0;
#X connect 14 0 9 1;
#X connect 14 0 1 0;
#X connect 14 0 5 1;
#X connect 14 0 43 0;
#X connect 15 0 27 0;
#X connect 17 0 33 0;
#X connect 18 0 34 0;
#X connect 19 0 24 0;
#X connect 20 0 18 0;
#X connect 22 0 19 0;
#X connect 23 0 22 0;
#X connect 24 0 44 0;
#X connect 25 0 51 0;
#X connect 27 0 28 0;
#X connect 27 0 14 0;
#X connect 28 0 31 1;
#X connect 28 0 34 1;
#X connect 29 0 13 0;
#X connect 31 0 9 0;
#X connect 33 0 20 0;
#X connect 34 0 35 0;
#X connect 35 0 19 1;
#X connect 43 0 23 0;
#X connect 44 0 25 1;
#X connect 45 0 15 0;
#X connect 46 0 47 0;
#X connect 47 0 10 0;
#X connect 48 0 49 0;
#X connect 49 0 17 0;
#X connect 51 0 50 0;
#X restore 143 237 pd paf;
#X obj 82 239 l paf~;
#X floatatom 291 189 5 0 0 0 - - -, f 5;
#X obj 143 263 mull~ 0 10;
#X connect 1 0 34 0;
#X connect 2 0 24 0;
#X connect 3 0 26 0;
#X connect 3 0 19 0;
#X connect 4 0 27 0;
#X connect 5 0 25 0;
#X connect 8 0 20 0;
#X connect 8 0 37 1;
#X connect 9 0 17 0;
#X connect 9 0 37 2;
#X connect 10 0 29 0;
#X connect 11 0 32 0;
#X connect 12 0 23 0;
#X connect 13 0 22 0;
#X connect 14 0 11 0;
#X connect 15 0 16 0;
#X connect 15 0 39 0;
#X connect 15 0 40 1;
#X connect 16 0 5 0;
#X connect 17 0 4 0;
#X connect 18 0 20 0;
#X connect 20 0 3 0;
#X connect 21 0 28 0;
#X connect 22 0 10 0;
#X connect 23 0 21 0;
#X connect 32 0 30 0;
#X connect 33 0 0 0;
#X connect 34 0 2 0;
#X connect 34 0 36 0;
#X connect 34 0 37 0;
#X connect 34 1 35 0;
#X connect 37 0 40 0;
#X connect 38 0 33 0;
#X connect 40 0 33 0;
#X restore 442 608 pd pafffffffffffff;
#X obj 427 425 mknob 25 100 0 1 0 0 \$1-amp-snd \$1-amp-rcv amp -2
-6 0 8 -258699 -1 -66577 6726 1;
#X floatatom 313 317 5 0 0 0 - - -, f 5;
#X obj 564 193 param \$1 FX amp;
#X obj 566 214 param \$1 FX cf;
#X obj 565 235 param \$1 FX bw;
#X obj 567 258 param \$1 FX vib;
#X obj 568 301 param \$1 SETTING shift;
#X obj 566 278 param \$1 FX vfr;
#X obj 492 350 l MeloGamme \$0 20 77 15;
#X obj 369 115 notemodrcvphrase \$0 \$1;
#X obj 18 175 apdisto \$1 FX disto1;
#X obj 18 235 orfilter \$1 FX ortho1;
#X obj 67 527 apecho \$1 FX echo1;
#X obj 55 637 aprev \$1 FX rev1;
#X obj 21 877 hip~ 50;
#X obj 20 904 hip~ 50;
#X obj 21 853 *~ 2;
#X connect 0 0 3 0;
#X connect 3 0 4 0;
#X connect 4 0 38 0;
#X connect 7 0 43 1;
#X connect 7 0 40 1;
#X connect 8 0 9 0;
#X connect 8 1 10 0;
#X connect 9 0 34 0;
#X connect 10 0 34 0;
#X connect 11 0 53 0;
#X connect 12 0 11 0;
#X connect 12 0 55 0;
#X connect 14 0 15 0;
#X connect 15 0 16 0;
#X connect 16 0 31 0;
#X connect 17 0 16 1;
#X connect 17 0 36 0;
#X connect 18 0 8 0;
#X connect 26 0 25 0;
#X connect 26 0 63 0;
#X connect 31 0 12 0;
#X connect 31 0 13 0;
#X connect 32 0 30 0;
#X connect 32 0 63 1;
#X connect 33 0 12 1;
#X connect 34 0 11 1;
#X connect 38 0 41 0;
#X connect 38 0 43 0;
#X connect 38 0 40 0;
#X connect 40 0 67 0;
#X connect 41 0 42 0;
#X connect 42 0 70 0;
#X connect 43 0 66 0;
#X connect 44 0 64 0;
#X connect 45 0 44 2;
#X connect 46 0 44 1;
#X connect 47 0 53 2;
#X connect 48 0 53 3;
#X connect 50 0 53 4;
#X connect 51 0 53 5;
#X connect 52 0 53 6;
#X connect 53 0 44 0;
#X connect 54 0 53 1;
#X connect 63 0 31 1;
#X connect 63 1 38 1;
#X connect 63 1 46 0;
#X connect 64 0 65 0;
#X connect 65 0 0 0;
#X connect 66 0 41 1;
#X connect 67 0 42 1;
#X connect 68 0 69 0;
#X connect 69 0 1 0;
#X connect 70 0 68 0;
#X restore 99 127 pd ALLSOUND;
#X obj 99 213 Vmull~ 0 10;
#X obj 100 239 outlet~;
#X obj 273 141 t b;
#X obj 273 119 r SYNCHRO-clock;
#X obj 217 49 MORPHgroup \$1 FX;
#X floatatom 217 13 5 0 0 0 - - -, f 5;
#X obj 392 145 r \$1-Vitesse-snd;
#X obj 392 225 nbx 5 14 -1e+37 1e+37 0 0 \$0-Tempo-snd \$0-Tempo-rcv
4/3 0 -8 0 10 -262144 -1 -1 0 256;
#X obj 392 190 m;
#X obj 407 167 r \$1-Vitesse_max-snd;
#X obj 372 120 param \$1 FX del1_time;
#X obj 32 186 s \$0-onoff;
#X obj 32 169 tgl 15 1 empty empty empty 17 7 0 10 -262144 -1 -1 1
1;
#X obj 130 149 r \$1-Volume;
#X obj 217 29 r \$1-Effet;
#X obj 10 145 s \$1-lvert;
#X obj 274 164 s \$1-lrouge;
#X connect 0 0 1 0;
#X connect 1 0 2 0;
#X connect 3 0 17 0;
#X connect 4 0 3 0;
#X connect 7 0 9 0;
#X connect 9 0 8 0;
#X connect 10 0 9 1;
#X connect 13 0 12 0;
#X connect 14 0 1 1;
#X connect 15 0 5 0;
#X connect 15 0 6 0;
#X coords 0 327 1 326 85 60 0;
#X restore 129 64 pd son;
#X obj 54 22 MASTERtypeNO_IN \$0;
#X connect 3 0 9 0;
#X connect 4 0 9 1;
#X connect 6 0 7 0;
#X connect 14 0 13 0;
#X coords 0 -1 1 1 42 656 2 50 10;
