#N canvas 384 246 371 226 10;
#X obj 34 33 inlet pwm;
#X obj 142 31 inlet speed;
#X obj 226 31 inlet servo;
#X msg 34 112 c \$2 i \$1;
#X obj 34 69 range 0 1 0 1023;
#X obj 34 92 pack f \$2;
#X obj 142 180 FruitSend \$1;
#X msg 142 114 c \$2 i \$1;
#X obj 142 92 pack f \$3;
#X msg 226 116 c \$3 c \$2 i \$1;
#X obj 226 93 pack f 0 \$4;
#X connect 0 0 4 0;
#X connect 1 0 8 0;
#X connect 2 0 10 0;
#X connect 3 0 6 0;
#X connect 4 0 5 0;
#X connect 5 0 3 0;
#X connect 7 0 6 0;
#X connect 8 0 7 0;
#X connect 9 0 6 0;
#X connect 10 0 9 0;
