#N canvas 58 405 1631 947 10;
#X obj 107 118 tgl 15 0 empty empty empty 17 7 0 10 -262144 -1 -1 1
1;
#X text 124 116 on/off;
#X obj 226 196 translateXYZ -10.66 0 0;
#X floatatom 263 219 5 0 0 0 - - -;
#X obj 317 25 loadbang;
#X obj 322 70 route 1 2 3;
#X obj 107 74 init 0;
#X floatatom 809 225 5 0 0 0 - - -;
#X obj 701 160 colorRGB 1 0 0;
#X obj 493 204 translateXYZ -10.66 0 0;
#X obj 481 318 rectangle 4 3;
#X floatatom 530 227 5 0 0 0 - - -;
#X obj 484 169 color 0 0 0;
#X floatatom 909 201 5 0 0 0 - - -;
#X obj 871 154 colorRGB 1 1 1;
#X obj 226 292 rectangle 4 3;
#X obj 227 259 scaleXYZ 1.33 1.33 1;
#X obj 480 281 scaleXYZ 1.28 1.28 1;
#X obj 695 321 rectangle 4 3;
#X obj 875 296 rectangle 4 3;
#X obj 860 252 scaleXYZ 1.33 0.005 1;
#X obj 704 187 translateXYZ -10.66 -1 0;
#X obj 868 185 translateXYZ -10.66 -1 0;
#X floatatom 713 226 5 0 0 0 - - -;
#X floatatom 651 59 5 0 0 0 - - -;
#X obj 612 93 t b f;
#X msg 652 33 0;
#X obj 693 272 scaleXYZ -0.28 0.15 1;
#X floatatom 1109 217 5 0 0 0 - - -;
#X obj 1063 163 colorRGB 1 1 1;
#X obj 1055 341 rectangle 4 3;
#X obj 1047 289 translateXYZ -10.66 -1 0;
#X msg 331 109 0;
#X msg 363 107 1;
#X msg 393 109 2;
#X obj 451 62 t b f;
#X obj 411 178 * 10.66;
#X obj 411 144 - 0.5;
#X obj 1055 93 tgl 15 0 empty empty empty 17 7 0 10 -262144 -1 -1 0
1;
#X obj 862 85 tgl 15 0 empty empty empty 17 7 0 10 -262144 -1 -1 1
1;
#X obj 718 58 tgl 15 0 empty empty empty 17 7 0 10 -262144 -1 -1 0
1;
#X obj 113 451 mesh_square 4 4;
#X obj 123 265 gemhead;
#X msg 239 374 draw line;
#X floatatom 256 419 5 0 0 0 - - -;
#X text 256 403 size;
#X msg 87 324 grid \$1;
#X floatatom 87 306 5 0 0 0 - - -;
#X floatatom 92 348 5 0 0 0 - - -;
#X msg 92 366 gridX \$1;
#X floatatom 161 348 5 0 0 0 - - -;
#X msg 161 366 gridY \$1;
#X obj 87 393 t a;
#X obj 110 477 color 0 1 0;
#X obj 107 500 rotateXYZ 0 0 180;
#X obj 104 531 mesh_square 4 4;
#X obj 224 160 translateXYZ 0 0 0;
#X obj 528 141 translateXYZ 0 0 0;
#X obj 700 141 translateXYZ 0 0 0;
#X obj 954 127 translateXYZ 0 0 0;
#X obj 1061 140 translateXYZ 0 0 0;
#X floatatom 443 19 5 0 0 0 - - -;
#X obj 443 -15 inlet;
#X obj 59 41 inlet onoff;
#X obj 721 89 tgl 15 0 empty empty empty 17 7 0 10 -262144 -1 -1 0
1;
#X obj 870 109 gemhead 520;
#X obj 1062 115 gemhead 520;
#X obj 501 93 gemhead 505;
#X obj 224 127 gemhead 500;
#X floatatom 1169 284 5 0 0 0 - - -;
#X obj 696 115 gemhead 510;
#X msg 957 435;
#X msg 957 457;
#X msg 926 479;
#X obj 1052 316 scaleXYZ 0.005 2.33 1;
#X floatatom 1247 528 5 0 0 0 - - -;
#X obj 1264 374 rectangle 4 3;
#X obj 1257 263 translateXYZ -10.66 -1 0;
#X obj 1259 168 gemhead 520;
#X floatatom 1366 356 5 0 0 0 - - -;
#X floatatom 1480 369 5 0 0 0 - - -;
#X obj 1424 463 rectangle 4 3;
#X obj 1412 310 translateXYZ -10.66 -1 0;
#X obj 1414 234 gemhead 520;
#X floatatom 1514 352 5 0 0 0 - - -;
#X floatatom 1216 399 5 0 0 0 - - -;
#X obj 1264 129 tgl 15 0 empty empty empty 17 7 0 10 -262144 -1 -1
0 1;
#X obj 298 41 bng 15 250 50 0 empty empty empty 17 7 0 10 -262144 -1
-1;
#X floatatom 1362 170 5 0 0 0 - - -;
#X obj 1260 235 colorRGB 0.3 1 1;
#X obj 318 44 f 1;
#X obj 1249 330 scaleXYZ 0.005 2.85 1;
#X obj 1438 214 tgl 15 0 empty empty empty 17 7 0 10 -262144 -1 -1
0 1;
#X obj 1415 282 colorRGB 0.3 1 1;
#X floatatom 1524 231 5 0 0 0 - - -;
#X obj 1427 442 scaleXYZ 0.005 2.85 1;
#X obj 227 81 tgl 15 0 empty empty empty 17 7 0 10 -262144 -1 -1 0
1;
#X obj 78 139 bng 15 250 50 0 empty empty empty 17 7 0 10 -262144 -1
-1;
#X obj 113 140 tgl 15 0 empty empty bords 17 7 0 10 -262144 -1 -1 0
1;
#X obj 1259 199 translateXYZ 0 4.08 0;
#X obj 1415 258 translateXYZ 0 4.08 0;
#X floatatom 987 220 5 0 0 0 - - -;
#X obj 624 476 translateXYZ -10.66 -1 0;
#X obj 620 430 translateXYZ 0 0 0;
#X obj 616 404 gemhead 510;
#X obj 616 382 tgl 15 0 empty empty empty 17 7 0 10 -262144 -1 -1 1
1;
#X floatatom 758 534 5 0 0 0 - - -;
#X floatatom 690 522 5 0 0 0 - - -;
#X obj 615 607 rectangle 3 3;
#X floatatom 564 466 5 0 0 0 - - -;
#X floatatom 555 519 5 0 0 0 - - -;
#X obj 785 580 print;
#X obj 621 449 colorRGB 1 0.5 0.8;
#X floatatom 741 594 5 0 0 0 - - -;
#X obj 505 579 print trans;
#X obj 606 506 translateXYZ 1.15 0 0;
#X obj 614 562 scaleXYZ 0.86 0.005 1;
#X obj 1412 567 print rot;
#X obj 1420 402 rotateXYZ 0 0 -42.56;
#X obj 1240 301 rotateXYZ 0 0 41.09;
#X connect 0 0 65 0;
#X connect 0 0 66 0;
#X connect 0 0 67 0;
#X connect 0 0 68 0;
#X connect 0 0 70 0;
#X connect 0 0 78 0;
#X connect 0 0 83 0;
#X connect 2 0 16 0;
#X connect 4 0 90 0;
#X connect 5 0 32 0;
#X connect 5 1 33 0;
#X connect 5 2 34 0;
#X connect 6 0 0 0;
#X connect 7 0 21 2;
#X connect 8 0 21 0;
#X connect 9 0 17 0;
#X connect 12 0 9 0;
#X connect 14 0 22 0;
#X connect 16 0 15 0;
#X connect 17 0 10 0;
#X connect 20 0 19 0;
#X connect 21 0 27 0;
#X connect 22 0 20 0;
#X connect 23 0 27 1;
#X connect 24 0 25 0;
#X connect 26 0 24 0;
#X connect 27 0 18 0;
#X connect 29 0 31 0;
#X connect 31 0 74 0;
#X connect 32 0 37 0;
#X connect 33 0 37 0;
#X connect 34 0 37 0;
#X connect 36 0 2 1;
#X connect 36 0 9 1;
#X connect 36 0 21 1;
#X connect 36 0 22 1;
#X connect 36 0 31 1;
#X connect 36 0 77 1;
#X connect 36 0 82 1;
#X connect 36 0 103 2;
#X connect 37 0 36 0;
#X connect 38 0 66 0;
#X connect 39 0 65 0;
#X connect 41 0 53 0;
#X connect 43 0 41 0;
#X connect 43 0 55 0;
#X connect 44 0 41 0;
#X connect 44 0 55 1;
#X connect 46 0 52 0;
#X connect 47 0 46 0;
#X connect 48 0 49 0;
#X connect 49 0 52 0;
#X connect 50 0 51 0;
#X connect 51 0 52 0;
#X connect 52 0 41 0;
#X connect 52 0 55 0;
#X connect 53 0 54 0;
#X connect 54 0 55 0;
#X connect 56 0 2 0;
#X connect 57 0 12 0;
#X connect 58 0 8 0;
#X connect 59 0 14 0;
#X connect 60 0 29 0;
#X connect 61 0 56 1;
#X connect 61 0 57 1;
#X connect 61 0 58 1;
#X connect 61 0 59 1;
#X connect 61 0 60 1;
#X connect 62 0 61 0;
#X connect 63 0 0 0;
#X connect 64 0 70 0;
#X connect 65 0 59 0;
#X connect 66 0 60 0;
#X connect 67 0 57 0;
#X connect 68 0 56 0;
#X connect 69 0 74 2;
#X connect 70 0 58 0;
#X connect 71 0 72 0;
#X connect 72 0 73 0;
#X connect 74 0 30 0;
#X connect 77 0 119 0;
#X connect 78 0 99 0;
#X connect 79 0 91 2;
#X connect 80 0 118 3;
#X connect 82 0 118 0;
#X connect 83 0 100 0;
#X connect 84 0 95 2;
#X connect 85 0 117 0;
#X connect 85 0 119 3;
#X connect 86 0 78 0;
#X connect 87 0 90 0;
#X connect 88 0 99 2;
#X connect 89 0 77 0;
#X connect 90 0 5 0;
#X connect 91 0 76 0;
#X connect 92 0 83 0;
#X connect 93 0 82 0;
#X connect 94 0 100 2;
#X connect 95 0 81 0;
#X connect 96 0 68 0;
#X connect 96 0 67 0;
#X connect 98 0 96 0;
#X connect 99 0 89 0;
#X connect 100 0 93 0;
#X connect 102 0 115 0;
#X connect 103 0 112 0;
#X connect 104 0 103 0;
#X connect 105 0 104 0;
#X connect 106 0 102 2;
#X connect 107 0 111 0;
#X connect 107 0 116 1;
#X connect 109 0 102 1;
#X connect 110 0 114 0;
#X connect 110 0 115 1;
#X connect 112 0 102 0;
#X connect 113 0 116 3;
#X connect 115 0 116 0;
#X connect 116 0 108 0;
#X connect 118 0 95 0;
#X connect 119 0 91 0;
#X coords 0 -1 1 1 85 60 1 100 100;
