#N canvas 50 82 1024 693 10;
#X obj 101 111 cnv 10 78 56 empty \$1-\$2-\$3-cnv-selected-rcv empty
20 12 0 14 -262144 -262144 0;
#X floatatom 105 145 5 0 0 0 - - -;
#X floatatom 143 146 5 0 0 0 - - -;
#X floatatom 181 144 5 0 0 0 - - -;
#X text 112 131 x;
#X text 150 129 y;
#X text 184 122 z;
#X obj 113 236 f;
#X obj 169 236 f;
#X obj 217 237 f;
#X obj 102 191 t f b b;
#X obj 163 193 t b f b;
#X obj 218 195 t b b f;
#X obj 143 259 pack f f f;
#X obj 127 345 list prepend;
#X obj 142 290 t l b;
#X obj 78 403 outlet;
#X obj 186 298 symbol \$1;
#X obj 188 322 pack s \$2 \$3;
#X msg 368 234 0;
#X obj 430 206 t b b b;
#X msg 378 244 0;
#X msg 388 254 0;
#X obj 306 82 r \$1-\$2-\$3-pointCurve3D-snd;
#X obj 306 105 unpack f f;
#X obj 236 10 r \$1-all-\$3-Y-pointCurve3D-snd;
#X obj 31 12 r \$1-all-\$2-X-pointCurve3D-snd;
#X obj 107 117 bng 15 250 50 0 bng-selectedPointCurve-\$1-\$5-\$2-\$3-snd
bng-selectedPointCurve-\$1-\$5-\$2-\$3-rcv select 17 7 0 10 -262144
-1 -1;
#X obj 580 417 l \$1 \$2 \$3;
#X msg 524 552 \; \$1-\$2-\$3-cnv-selected-rcv color 16 0 0;
#X msg 573 474 \; \$1-\$2-\$3-cnv-selected-rcv color 0 0 0;
#X obj 585 113 send deselectAll;
#X obj 499 241 t b b b;
#X obj 440 9 r deselectAll;
#X obj 521 403 del 10;
#X obj 560 520 l \$1 \$2 \$3;
#X obj 763 213 keyname;
#X obj 803 289 spigot;
#X msg 823 247 0;
#X obj 598 277 t b b;
#X msg 858 245 1;
#X obj 802 354 sel Up Down Left Right;
#X obj 781 395 f;
#X obj 781 418 - 0.001;
#X obj 736 394 f;
#X obj 722 415 + 0.001;
#X obj 915 403 f;
#X obj 870 402 f;
#X obj 856 423 - 0.001;
#X obj 915 426 + 0.001;
#X msg 774 549 \; \$1-\$2-\$3-colorPoint 0 1 0;
#X obj 188 44 sssad y\$2\$3 \$4;
#X obj 62 33 sssad x\$2\$3 \$4;
#X obj 311 51 sssad z\$2\$3 \$4;
#X obj 55 502 s \$1-\$4-pointCurve3D;
#X obj 194 375 parentdollarzero;
#X obj 155 374 t a b;
#X msg 279 495 \; \$1-\$2-pointCurve3D \$3 \$4 \$5 \$6 \$7;
#X obj 193 399 symbol \$1;
#X obj 180 435 list prepend;
#X obj 378 185 r \$1-\$5-resetPointsCurve;
#X obj 670 133 loadbang;
#X obj 537 8 r \$1-\$5-selectAll-X\$2-snd;
#X obj 745 -9 r \$1-\$5-selectAll-Y\$3-snd;
#X obj 537 54 route 0 1;
#X obj 747 32 route 0 1;
#X obj 586 93 spigot;
#X obj 619 66 expr ($f1+1)%2;
#X obj 537 28 t f f;
#X obj 746 11 t f f;
#X obj 775 61 expr ($f1+1)%2;
#X obj 439 31 t b b;
#X msg 591 74 1;
#X obj 884 79 r \$1-\$5-multiselect-snd;
#X obj 639 525 r \$1-\$5-colorOfThePoint;
#X obj 666 605 lister;
#X obj 567 605 t a b;
#X obj 660 627 unpack f f f;
#X msg 563 707 \; \$1-\$2-\$3-colorPoint \$4 \$5 \$6;
#X obj 568 629 unpack s f f;
#X obj 563 666 pack s f f f f f;
#N canvas 261 168 853 547 drawPoint 0;
#X obj 466 18 inlet points;
#N canvas 595 319 450 458 compare 0;
#X obj 70 69 inlet points;
#X obj 96 122 unpack f f f;
#X obj -20 74 inlet souris;
#X obj 342 74 inlet rayon;
#X obj -29 126 unpack f f;
#X obj 51 180 -;
#X obj 334 103 t f;
#X obj 48 209 abs;
#X obj 115 181 -;
#X obj 112 210 abs;
#X obj 67 282 <;
#X obj 127 281 <;
#X obj 104 315 &&;
#X obj 79 415 outlet;
#X connect 0 0 1 0;
#X connect 1 0 5 1;
#X connect 1 1 8 1;
#X connect 2 0 4 0;
#X connect 3 0 6 0;
#X connect 4 0 5 0;
#X connect 4 1 8 0;
#X connect 5 0 7 0;
#X connect 6 0 10 1;
#X connect 6 0 11 1;
#X connect 7 0 10 0;
#X connect 8 0 9 0;
#X connect 9 0 11 0;
#X connect 10 0 12 0;
#X connect 11 0 12 1;
#X connect 12 0 13 0;
#X restore 66 292 pd compare;
#X obj 51 260 pack f f;
#X obj 50 425 spigot;
#X obj 67 370 &&;
#X obj 82 396 &&;
#X obj 51 476 s \$1-\$2-\$3-pointCurve3D-snd;
#X obj 411 327 translateXYZ;
#X obj 441 463 circle 0.025;
#X obj 466 76 unpack f f f;
#X obj 50 179 maxlib/scale 0 1 -5.3333 5.3333;
#X obj 66 229 maxlib/scale 0 1 4 -4;
#X obj 575 331 / 1000;
#X obj 578 277 r \$1-\$2-\$3-colorPoint;
#X obj 321 150 r \$1-\$5-tgl-drawPointsCurve3D-snd;
#X obj 574 305 r \$1-\$5-rayonPoints;
#X obj 125 143 r \$1-\$5-rayonEdit-rcv;
#X obj 97 319 r \$1-\$5-mouseEdit-rcv;
#X obj 562 408 f;
#X obj 559 511 line;
#X obj 675 45 inlet highlight;
#X obj 677 391 t b;
#X obj 692 368 bng 15 250 50 0 empty empty empty 17 7 0 10 -262144
-1 -1;
#X obj 576 356 t f f;
#X obj 558 448 * 10;
#X obj 563 427 t f f;
#X obj 559 466 pack f f;
#X msg 559 486 \$1 \, \$2 500;
#X obj 565 169 r \$1-\$5-pointgemhead;
#X obj 441 437 color 0 1 0;
#X obj 333 186 gemhead 200;
#N canvas 430 354 849 421 transformation 0;
#X obj 594 55 gemlist_info;
#X obj 596 29 inlet;
#X obj 419 6 inlet;
#X obj 420 423 outlet;
#X obj 435 179 unpack f f f;
#X obj 421 147 translateXYZ;
#X obj 436 345 unpack f f f;
#X obj 443 101 unpack f f f;
#X obj 421 32 GEMglLoadIdentity;
#X obj 421 61 color 1 0 0;
#X obj 435 254 unpack f f f;
#N canvas 296 410 419 328 shear 0;
#X obj 28 17 inlet;
#X obj 28 270 outlet;
#X obj 108 21 inlet;
#X obj 205 20 inlet;
#X obj 297 18 inlet;
#X text 117 38 ShearXY;
#X text 217 37 ShearXZ;
#X text 306 36 ShearYZ;
#X obj 28 104 shearYX;
#X obj 28 153 shearZX;
#X obj 28 212 shearZY;
#X connect 0 0 8 0;
#X connect 2 0 8 1;
#X connect 3 0 9 1;
#X connect 4 0 10 1;
#X connect 8 0 9 0;
#X connect 9 0 10 0;
#X connect 10 0 1 0;
#X restore 421 322 pd shear;
#X obj 421 396 rotateXYZ;
#X obj 421 221 scaleXYZ;
#X connect 0 1 6 0;
#X connect 0 2 10 0;
#X connect 0 3 4 0;
#X connect 0 4 7 0;
#X connect 1 0 0 0;
#X connect 2 0 8 0;
#X connect 4 0 13 1;
#X connect 4 1 13 2;
#X connect 4 2 13 3;
#X connect 5 0 13 0;
#X connect 6 0 12 1;
#X connect 6 1 12 2;
#X connect 6 2 12 3;
#X connect 7 0 5 1;
#X connect 7 1 5 2;
#X connect 7 2 5 3;
#X connect 8 0 9 0;
#X connect 9 0 5 0;
#X connect 10 0 11 1;
#X connect 10 1 11 2;
#X connect 10 2 11 3;
#X connect 11 0 12 0;
#X connect 12 0 3 0;
#X connect 13 0 11 0;
#X restore 385 224 pd transformation;
#X obj 549 219 separator;
#X obj 49 95 l gemmouse 1 1;
#X obj 547 255 spigot;
#X floatatom 511 314 5 0 0 0 - - -;
#X floatatom 472 373 5 0 0 0 - - -;
#X obj 348 294 separator;
#X obj 349 268 r \$1-\$5-pointgemhead;
#X connect 0 0 1 1;
#X connect 0 0 9 0;
#X connect 1 0 4 0;
#X connect 2 0 1 0;
#X connect 2 0 3 0;
#X connect 3 0 6 0;
#X connect 4 0 5 0;
#X connect 5 0 3 1;
#X connect 7 0 29 0;
#X connect 9 0 7 1;
#X connect 9 1 7 2;
#X connect 9 2 7 3;
#X connect 10 0 2 0;
#X connect 11 0 2 1;
#X connect 12 0 23 0;
#X connect 13 0 29 1;
#X connect 14 0 30 0;
#X connect 15 0 12 0;
#X connect 16 0 1 2;
#X connect 17 0 5 1;
#X connect 18 0 25 0;
#X connect 19 0 8 1;
#X connect 20 0 21 0;
#X connect 21 0 18 0;
#X connect 22 0 21 0;
#X connect 23 0 18 1;
#X connect 23 1 8 1;
#X connect 24 0 26 0;
#X connect 25 0 24 0;
#X connect 25 1 26 1;
#X connect 26 0 27 0;
#X connect 27 0 19 0;
#X connect 28 0 32 0;
#X connect 29 0 8 0;
#X connect 32 0 31 1;
#X connect 33 0 10 0;
#X connect 35 0 7 3;
#X connect 36 0 7 2;
#X connect 37 0 7 0;
#X connect 38 0 37 0;
#X restore 380 445 pd drawPoint;
#X obj 449 417 spigot 1;
#X obj 376 356 r highlightPointOnSelect-snd;
#X obj 677 242 bng 15 250 50 0 empty empty empty 17 7 0 10 -262144
-1 -1;
#X obj 225 490 print;
#X obj 584 191 pack \$2 \$3;
#X obj 584 217 s lastPoint-\$1-selected;
#X obj 879 278 r CtrlPressed;
#X obj 803 327 spigot 1;
#X obj 879 302 expr ($f1 + 1) % 2;
#X connect 1 0 10 0;
#X connect 1 0 47 1;
#X connect 1 0 46 1;
#X connect 1 0 52 1;
#X connect 2 0 11 0;
#X connect 2 0 42 1;
#X connect 2 0 44 1;
#X connect 2 0 51 1;
#X connect 3 0 12 0;
#X connect 3 0 53 1;
#X connect 7 0 13 0;
#X connect 8 0 13 1;
#X connect 9 0 13 2;
#X connect 10 0 7 0;
#X connect 10 1 8 0;
#X connect 10 2 9 0;
#X connect 11 0 7 0;
#X connect 11 1 8 0;
#X connect 11 2 9 0;
#X connect 12 0 7 0;
#X connect 12 1 8 0;
#X connect 12 2 9 0;
#X connect 13 0 15 0;
#X connect 13 0 81 0;
#X connect 14 0 16 0;
#X connect 14 0 56 0;
#X connect 15 0 14 0;
#X connect 15 1 17 0;
#X connect 17 0 18 0;
#X connect 18 0 14 1;
#X connect 19 0 1 0;
#X connect 20 0 19 0;
#X connect 20 1 21 0;
#X connect 20 2 22 0;
#X connect 21 0 2 0;
#X connect 22 0 3 0;
#X connect 23 0 24 0;
#X connect 24 0 1 0;
#X connect 24 1 2 0;
#X connect 25 0 2 0;
#X connect 26 0 1 0;
#X connect 27 0 32 0;
#X connect 28 0 30 0;
#X connect 28 0 50 0;
#X connect 32 0 40 0;
#X connect 32 1 34 0;
#X connect 32 2 66 0;
#X connect 32 2 86 0;
#X connect 33 0 71 0;
#X connect 34 0 35 0;
#X connect 34 0 82 0;
#X connect 35 0 29 0;
#X connect 35 0 76 0;
#X connect 36 1 37 0;
#X connect 37 0 89 0;
#X connect 38 0 37 1;
#X connect 39 0 28 0;
#X connect 39 1 38 0;
#X connect 40 0 37 1;
#X connect 41 0 44 0;
#X connect 41 1 42 0;
#X connect 41 2 47 0;
#X connect 41 3 46 0;
#X connect 42 0 43 0;
#X connect 43 0 2 0;
#X connect 44 0 45 0;
#X connect 45 0 2 0;
#X connect 46 0 49 0;
#X connect 47 0 48 0;
#X connect 48 0 1 0;
#X connect 49 0 1 0;
#X connect 51 0 2 0;
#X connect 52 0 1 0;
#X connect 53 0 3 0;
#X connect 55 0 58 0;
#X connect 56 0 59 0;
#X connect 56 1 55 0;
#X connect 58 0 59 1;
#X connect 59 0 57 0;
#X connect 60 0 20 0;
#X connect 61 0 39 0;
#X connect 62 0 68 0;
#X connect 63 0 69 0;
#X connect 64 0 39 0;
#X connect 64 1 32 0;
#X connect 65 0 39 0;
#X connect 65 1 32 0;
#X connect 66 0 31 0;
#X connect 67 0 66 1;
#X connect 68 0 64 0;
#X connect 68 1 67 0;
#X connect 69 0 65 0;
#X connect 69 1 70 0;
#X connect 70 0 66 1;
#X connect 71 0 39 0;
#X connect 71 1 72 0;
#X connect 72 0 66 1;
#X connect 73 0 66 1;
#X connect 74 0 75 1;
#X connect 75 0 77 0;
#X connect 76 0 79 0;
#X connect 76 1 75 0;
#X connect 77 0 80 3;
#X connect 77 1 80 4;
#X connect 77 2 80 5;
#X connect 79 0 80 0;
#X connect 79 1 80 1;
#X connect 79 2 80 2;
#X connect 80 0 78 0;
#X connect 82 0 81 1;
#X connect 83 0 82 1;
#X connect 84 0 39 0;
#X connect 86 0 87 0;
#X connect 88 0 90 0;
#X connect 89 0 41 0;
#X connect 90 0 89 1;
#X coords 0 -1 1 1 80 58 2 100 110;
