#N canvas 60 475 450 300 10;
#X msg 290 152 reload;
#X msg 295 190 envMap 0;
#X obj 134 142 pix_texture;
#X msg 176 94 quality \$1;
#X obj 178 74 tgl 15 0 empty empty empty 17 7 0 10 -262144 -1 -1 1
1;
#X obj 177 28 loadbang;
#X msg 179 50 1;
#X obj 280 215 s proj\$1ShaderLoaded;
#X obj 295 126 r proj\$1Shader;
#X obj 93 59 inlet;
#X obj 115 236 outlet;
#X obj 94 81 separator;
#X obj 200 122 r cubetex;
#X msg 273 99 angle \$1;
#X floatatom 365 57 5 0 0 0 - - -;
#X obj 284 29 loadbang;
#X obj 277 51 f \$1;
#X obj 253 30 bng 15 250 50 0 empty empty empty 17 7 0 10 -262144 -1
-1;
#X msg 355 29 1;
#X msg 382 31 2;
#X msg 412 32 3;
#X obj 249 10 r projShaderReset;
#X obj 273 72 * 120;
#X obj 134 173 shaderLoad base proj3;
#X obj 361 7 r cleanAll;
#X connect 0 0 23 1;
#X connect 1 0 23 1;
#X connect 2 0 23 0;
#X connect 3 0 2 0;
#X connect 4 0 3 0;
#X connect 5 0 6 0;
#X connect 6 0 4 0;
#X connect 8 0 23 1;
#X connect 9 0 11 0;
#X connect 11 0 2 0;
#X connect 12 0 2 1;
#X connect 13 0 23 1;
#X connect 14 0 13 0;
#X connect 15 0 16 0;
#X connect 16 0 22 0;
#X connect 17 0 16 0;
#X connect 18 0 22 0;
#X connect 19 0 22 0;
#X connect 20 0 22 0;
#X connect 21 0 17 0;
#X connect 22 0 13 0;
#X connect 23 0 10 0;
#X connect 23 2 7 0;
#X connect 24 0 17 0;
