#N canvas 17 117 874 650 10;
#X obj 87 236 bng 15 250 50 0 empty empty empty 17 7 0 10 -262144 -1
-1;
#X obj 111 148 cnv 15 320 80 empty empty empty 20 12 0 14 -204800 -66577
0;
#X obj 117 213 bng 15 250 50 0 empty empty edit_curve 17 7 0 10 -262144
-1 -1;
#X obj 115 153 tgl 15 0 \$0-tgl-showgrid-snd empty show_grid 17 7 0
10 -262144 -1 -1 0 1;
#X obj 378 210 bng 15 250 50 0 \$0-bng-save-snd empty empty 17 7 0
10 -258113 -1 -1;
#X text 394 211 save;
#X obj 377 190 bng 15 250 50 0 \$0-bng-load-snd empty empty 17 7 0
10 -4034 -1 -1;
#X text 393 192 load;
#X msg 87 276 \; pd-\$1-dessineCurve vis 1;
#N canvas 98 82 1181 693 saveload 0;
#X obj 23 325 cnv 15 400 300 empty empty Restore 300 12 0 14 -233017
-123526 0;
#X obj 249 247 textfile;
#X msg 136 221 clear;
#X msg 332 209 print;
#X obj 249 171 list prepend add;
#X obj 249 197 list trim;
#X obj 96 530 textfile;
#X obj 96 472 until;
#X msg 40 513 print;
#X text 91 582 also received inside sssad;
#X obj 249 147 route persist;
#X obj 249 125 list trim;
#X msg 114 255 save;
#X msg 53 263 set;
#X msg 164 532 set;
#X obj 92 185 t a b b;
#X msg 94 295 write \$1;
#X obj 96 428 t b a;
#X msg 143 473 read \$1 \, rewind;
#X text 128 451 Avoid loops. A bang normally also works.;
#X obj 92 164 symbol;
#X obj 96 405 symbol;
#X msg 469 378 bang;
#X text 269 352 again;
#X text 50 607 Hint: get creative with the [OSCroute] external!;
#X obj 71 51 inlet bang;
#X obj 477 49 inlet reload;
#X obj 229 46 loadbang;
#X obj 315 20 bng 15 250 50 0 empty empty empty 17 7 0 10 -262144 -1
-1;
#X obj 572 49 inlet load_defaut;
#X msg 553 91 symbol save-defaut.txt;
#X obj 184 329 print;
#X obj 248 103 r \$0-SSSAD_ADMIN;
#X obj 98 560 s \$0-SSSAD;
#X obj 192 560 s \$0-SSSAD_ADMIN;
#X obj 217 295 s \$0-SSSAD_ADMIN;
#X obj 392 248 print fromSSAD_ADMIN;
#X obj 24 221 bng 15 250 50 0 empty empty empty 17 7 0 10 -262144 -1
-1;
#X obj 61 604 s \$0-SSSAD_ADMIN;
#X obj 204 500 t b;
#X obj 240 78 makesymbol save-surface3D-8x8-\$2-\$3.txt;
#X obj 232 499 del 2500;
#X msg 96 451 500;
#X obj 688 128 inlet saveTmp;
#X obj 842 83 inlet loadTmp;
#X obj 712 186 makesymbol save-surface3D-\$2-\$3-tmp.txt;
#X obj 680 217 symbol;
#X obj 872 124 makesymbol save-surface3D-\$2-\$3-tmp.txt;
#X obj 841 144 symbol;
#X obj 843 105 t b b;
#X obj 687 151 t b b;
#X connect 1 0 31 0;
#X connect 2 0 1 0;
#X connect 3 0 1 0;
#X connect 4 0 5 0;
#X connect 5 0 1 0;
#X connect 6 0 33 0;
#X connect 6 0 39 0;
#X connect 6 1 7 1;
#X connect 6 1 14 0;
#X connect 7 0 6 0;
#X connect 8 0 6 0;
#X connect 10 0 4 0;
#X connect 11 0 10 0;
#X connect 12 0 35 0;
#X connect 13 0 35 0;
#X connect 14 0 34 0;
#X connect 15 0 16 0;
#X connect 15 1 12 0;
#X connect 15 2 2 0;
#X connect 16 0 1 0;
#X connect 17 0 42 0;
#X connect 17 1 18 0;
#X connect 18 0 6 0;
#X connect 20 0 15 0;
#X connect 21 0 17 0;
#X connect 22 0 21 0;
#X connect 25 0 20 0;
#X connect 26 0 22 0;
#X connect 27 0 40 0;
#X connect 28 0 40 0;
#X connect 29 0 30 0;
#X connect 30 0 17 0;
#X connect 32 0 11 0;
#X connect 32 0 36 0;
#X connect 37 0 20 0;
#X connect 39 0 41 0;
#X connect 40 0 20 1;
#X connect 40 0 21 1;
#X connect 41 0 14 0;
#X connect 42 0 7 0;
#X connect 43 0 50 0;
#X connect 44 0 49 0;
#X connect 45 0 46 1;
#X connect 46 0 15 0;
#X connect 47 0 48 1;
#X connect 48 0 17 0;
#X connect 49 0 48 0;
#X connect 49 1 47 0;
#X connect 50 0 46 0;
#X connect 50 1 45 0;
#X restore 537 49 pd saveload;
#X obj 422 50 r loadZoneCurve;
#X obj 67 20 inlet;
#X obj 519 1 bng 15 250 50 0 empty empty defaut 17 7 0 10 -262144 -1
-1;
#X obj 427 11 loadbang;
#X obj 115 175 tgl 15 0 \$2-\$3-tgl-drawPointsCurve3D-snd empty show_points
17 7 0 10 -262144 -1 -1 0 1;
#X obj 67 333 t a a a;
#X obj 209 213 bng 15 250 50 0 \$0-resetSurface3d empty reset-curve
17 7 0 10 -258113 -1 -1;
#N canvas 180 82 1064 693 \$0-dessineCurve 0;
#X obj 84 509 bng 15 250 50 0 empty empty empty 17 7 0 10 -258113 -1
-1;
#X text 99 510 reset;
#X obj 1237 -115 tgl 15 0 empty empty empty 17 7 0 10 -262144 -1 -1
0 1;
#X text 1260 -117 mouse edit;
#X obj 1236 -99 s \$2-mouseEdit-rcv;
#X obj 1223 -55 nbx 5 14 -1e+37 1e+37 0 1 empty empty empty 0 -8 0
10 -262144 -1 -1 0.18 256;
#X obj 1224 -40 s \$2-rayonEdit-rcv;
#X obj 1239 32 tgl 15 0 \$2-tgl-drawPointsCurve3D-snd \$2-tgl-drawPointsCurve3D-rcv
empty 17 7 0 10 -262144 -1 -1 0 1;
#X text 1259 28 draw points;
#X obj 1242 12 init 0;
#X obj 1280 -59 bng 15 250 50 0 empty empty empty 17 7 0 10 -262144
-1 -1;
#X obj 1233 -166 nbx 5 14 -1e+37 1e+37 0 1 empty empty empty 0 -8 0
10 -204800 -1 -1 51.96 256;
#X obj 1290 -170 bng 15 250 50 0 empty empty empty 17 7 0 10 -262144
-1 -1;
#N canvas 682 232 661 603 reset 0;
#X obj 36 37 inlet bang;
#X obj 203 45 inlet basG;
#X obj 201 79 unpack f f f;
#X obj 328 81 unpack f f f;
#X obj 327 43 inlet hautD;
#X obj 256 163 -;
#X obj 296 121 t b f;
#X obj 255 194 abs;
#X floatatom 216 191 5 0 0 0 - - -;
#X floatatom 268 252 5 0 0 0 - - -;
#X obj 36 62 t b b;
#X obj 163 347 *;
#X obj 170 379 +;
#X obj 202 115 t f f;
#X obj 134 316 t f f;
#X obj 166 431 f;
#X obj 119 386 t f b;
#X obj 397 173 -;
#X obj 437 131 t b f;
#X obj 396 204 abs;
#X obj 396 236 / 4;
#X floatatom 357 201 5 0 0 0 - - -;
#X obj 357 126 t f f;
#X floatatom 513 247 5 0 0 0 - - -;
#X floatatom 481 275 5 0 0 0 - - -;
#X obj 482 303 s \$2-all-X-0-snd;
#X obj 155 507 list prepend \$2;
#X obj 74 258 t b f;
#X obj 77 145 bng 15 250 50 0 empty empty empty 17 7 0 10 -262144 -1
-1;
#X msg 152 538 \; \$1-\$2-\$5-pointCurve3D-snd \$3 \$4;
#X obj 155 483 pack f f f f;
#X obj 80 196 t f f;
#X floatatom 162 195 5 0 0 0 - - -;
#X msg 383 460 \$1-\$2-\$5;
#X obj 370 487 print gggggggggggg;
#X obj 255 226 / 9;
#X obj 80 169 for++ 0 9 100;
#X obj 133 288 for++ 0 9 10;
#X obj 78 227 maxlib/scale 0 9 -4 4;
#X connect 0 0 10 0;
#X connect 1 0 2 0;
#X connect 2 0 13 0;
#X connect 2 1 22 0;
#X connect 3 0 6 0;
#X connect 3 1 18 0;
#X connect 4 0 3 0;
#X connect 5 0 7 0;
#X connect 5 0 8 0;
#X connect 6 0 5 0;
#X connect 6 1 5 1;
#X connect 7 0 35 0;
#X connect 10 0 36 0;
#X connect 11 0 12 0;
#X connect 12 0 15 1;
#X connect 13 0 5 0;
#X connect 13 1 12 1;
#X connect 14 0 16 0;
#X connect 14 1 11 0;
#X connect 15 0 30 1;
#X connect 16 0 30 0;
#X connect 16 1 15 0;
#X connect 17 0 19 0;
#X connect 17 0 21 0;
#X connect 18 0 17 0;
#X connect 18 1 17 1;
#X connect 19 0 20 0;
#X connect 22 0 17 0;
#X connect 24 0 25 0;
#X connect 26 0 29 0;
#X connect 27 0 37 0;
#X connect 27 1 30 2;
#X connect 28 0 36 0;
#X connect 30 0 26 0;
#X connect 31 0 38 0;
#X connect 31 1 30 3;
#X connect 33 0 34 0;
#X connect 35 0 9 0;
#X connect 35 0 11 1;
#X connect 36 0 31 0;
#X connect 36 0 32 0;
#X connect 37 0 14 0;
#X connect 38 0 27 0;
#X restore 306 538 pd reset;
#X obj 296 514 bng 15 250 50 0 empty empty empty 17 7 0 10 -262144
-1 -1;
#X msg 374 513 4 3 0;
#X obj 309 481 t b b b;
#X obj 310 452 inlet reset;
#X obj 153 542 bng 15 250 50 0 empty empty empty 17 7 0 10 -262144
-1 -1;
#X msg 320 512 -4 -3 0;
#X obj 196 558 r \$0-resetSurface3d;
#X obj 436 -331 bng 15 250 50 0 deselectAll empty deselectAll 17 7
0 10 -4034 -1 -1;
#X obj 1235 -146 s \$2-\$3-rayonPoints;
#X obj 840 -311 tgl 15 0 \$2-\$3-multiselect-snd \$2-\$3-multiselect-rcv
selectionUnique 17 7 0 10 -260097 -1 -1 1 1;
#X obj 103 -275 tgl 15 0 \$2-\$3-selectAll-X0-snd \$2-\$3-selectAll-X0-rcv
selectAll 17 7 0 10 -260097 -1 -1 0 1;
#X obj 197 -274 tgl 15 0 \$2-\$3-selectAll-X1-snd \$2-\$3-selectAll-X1-rcv
selectAll 17 7 0 10 -260097 -1 -1 0 1;
#X obj 293 -268 tgl 15 0 \$2-\$3-selectAll-X2-snd \$2-\$3-selectAll-X2-rcv
selectAll 17 7 0 10 -260097 -1 -1 0 1;
#X obj 385 -269 tgl 15 0 \$2-\$3-selectAll-X3-snd \$2-\$3-selectAll-X3-rcv
selectAll 17 7 0 10 -260097 -1 -1 0 1;
#X obj 479 -271 tgl 15 0 \$2-\$3-selectAll-X4-snd \$2-\$3-selectAll-X4-rcv
selectAll 17 7 0 10 -260097 -1 -1 0 1;
#X obj 567 -265 tgl 15 0 \$2-\$3-selectAll-X5-snd \$2-\$3-selectAll-X5-rcv
selectAll 17 7 0 10 -260097 -1 -1 0 1;
#X obj 663 -270 tgl 15 0 \$2-\$3-selectAll-X6-snd \$2-\$3-selectAll-X6-rcv
selectAll 17 7 0 10 -260097 -1 -1 0 1;
#X obj 750 -273 tgl 15 0 \$2-\$3-selectAll-X7-snd \$2-\$3-selectAll-X7-rcv
selectAll 17 7 0 10 -260097 -1 -1 0 1;
#X obj 852 -273 tgl 15 0 \$2-\$3-selectAll-X8-snd \$2-\$3-selectAll-X8-rcv
selectAll 17 7 0 10 -260097 -1 -1 0 1;
#X obj 945 -274 tgl 15 0 \$2-\$3-selectAll-X9-snd \$2-\$3-selectAll-X9-rcv
selectAll 17 7 0 10 -260097 -1 -1 0 1;
#X obj 22 -236 tgl 15 0 \$2-\$3-selectAll-Y9-snd \$2-\$3-selectAll-Y9-rcv
selectAll 17 7 0 10 -260097 -1 -1 0 1;
#X obj 24 -164 tgl 15 0 \$2-\$3-selectAll-Y8-snd \$2-\$3-selectAll-Y8-rcv
selectAll 17 7 0 10 -260097 -1 -1 0 1;
#X obj 28 -89 tgl 15 0 \$2-\$3-selectAll-Y7-snd \$2-\$3-selectAll-Y7-rcv
selectAll 17 7 0 10 -260097 -1 -1 0 1;
#X obj 27 -20 tgl 15 0 \$2-\$3-selectAll-Y6-snd \$2-\$3-selectAll-Y6-rcv
selectAll 17 7 0 10 -260097 -1 -1 0 1;
#X obj 28 63 tgl 15 0 \$2-\$3-selectAll-Y5-snd \$2-\$3-selectAll-Y5-rcv
selectAll 17 7 0 10 -260097 -1 -1 0 1;
#X obj 28 122 tgl 15 0 \$2-\$3-selectAll-Y4-snd \$2-\$3-selectAll-Y4-rcv
selectAll 17 7 0 10 -260097 -1 -1 0 1;
#X obj 28 187 tgl 15 0 \$2-\$3-selectAll-Y3-snd \$2-\$3-selectAll-Y3-rcv
selectAll 17 7 0 10 -260097 -1 -1 0 1;
#X obj 26 252 tgl 15 0 \$2-\$3-selectAll-Y2-snd \$2-\$3-selectAll-Y2-rcv
selectAll 17 7 0 10 -260097 -1 -1 0 1;
#X obj 25 323 tgl 15 0 \$2-\$3-selectAll-Y1-snd \$2-\$3-selectAll-Y1-rcv
selectAll 17 7 0 10 -260097 -1 -1 0 1;
#X obj 25 389 tgl 15 0 \$2-\$3-selectAll-Y0-snd \$2-\$3-selectAll-Y0-rcv
selectAll 17 7 0 10 -260097 -1 -1 0 1;
#X obj 838 -331 init 1;
#X obj 1303 -275 s \$2-\$3-colorOfThePoint;
#X msg 1260 -274 1 0 0;
#X obj 1259 -295 loadbang;
#X obj 554 -335 tgl 15 0 highlightPointOnSelect-snd empty highlight_if_selected
17 7 0 10 -262144 -1 -1 0 1;
#X obj 555 -318 tgl 15 1 \$0-tgl-MAJMultiSelect-snd \$0-tgl-MAJMultiSelect-rcv
MAJ_pour_multiselect 17 7 0 10 -262144 -1 -1 0 1;
#N canvas 1467 91 450 300 MAJMultiselect 0;
#X obj 120 90 r \$0-tgl-MAJMultiSelect-snd;
#X obj 89 146 keyname;
#X obj 129 185 sel Shift_L Shift_R;
#X obj 89 212 expr ($f1 + 1) %2;
#X obj 89 187 spigot;
#X obj 54 257 tgl 15 0 empty empty empty 17 7 0 10 -262144 -1 -1 1
1;
#X obj 87 240 s \$2-\$3-multiselect-rcv;
#X connect 0 0 4 1;
#X connect 1 0 4 0;
#X connect 1 1 2 0;
#X connect 3 0 5 0;
#X connect 3 0 6 0;
#X connect 4 0 3 0;
#X restore 1237 -218 pd MAJMultiselect;
#X obj 556 -298 tgl 15 1 \$0-tgl-ctrlFleches-snd \$0-tgl-ctrlFleches-rcv
CTRL+fleches_pour_changer_de_point 17 7 0 10 -262144 -1 -1 0 1;
#N canvas 1042 295 615 654 ctrlFleches 0;
#X obj 302 235 unpack f f;
#X obj 302 202 r lastPoint-\$2-selected;
#X obj 47 353 f;
#X obj 147 22 keyname;
#X obj 161 125 sel Control_L Control_R;
#X obj 147 84 spigot;
#X msg 188 161 1;
#X obj 48 268 &&;
#X obj 161 236 &&;
#X msg 214 161 0;
#X obj 179 48 r \$0-tgl-ctrlFleches-snd;
#X obj 86 108 t a a;
#X obj 51 180 sel Left Right Up Down;
#X msg 48 211 1;
#X obj 231 259 tgl 15 0 empty empty empty 17 7 0 10 -262144 -1 -1 0
1;
#X obj 82 272 &&;
#X msg 82 215 1;
#X obj 110 269 &&;
#X msg 110 212 1;
#X obj 144 273 &&;
#X msg 144 216 1;
#X obj 48 316 sel 1;
#X obj 89 354 f;
#X obj 89 314 sel 1;
#X obj 47 384 - 1;
#X obj 89 384 + 1;
#X obj 278 382 f;
#X obj 213 307 sel 1;
#X obj 306 378 f;
#X obj 267 300 sel 1;
#X obj 278 404 + 1;
#X obj 308 407 - 1;
#X obj 47 441 pack f f;
#X obj -86 533 list prepend \$2 \$3;
#X msg -88 588 \; bng-selectedPointCurve-\$1-\$2-\$3-\$4-rcv bang;
#X obj -86 558 t a b;
#X msg -46 560 \; deselectAll bang;
#X obj 262 457 pack f f;
#X obj 213 335 t b b;
#X obj 271 323 t b b;
#X obj 245 402 f;
#X connect 0 0 2 1;
#X connect 0 0 22 1;
#X connect 0 0 40 1;
#X connect 0 1 26 1;
#X connect 0 1 28 1;
#X connect 0 1 32 1;
#X connect 1 0 0 0;
#X connect 2 0 24 0;
#X connect 3 0 5 0;
#X connect 3 1 11 0;
#X connect 4 0 6 0;
#X connect 4 1 6 0;
#X connect 4 2 9 0;
#X connect 5 0 8 0;
#X connect 6 0 8 1;
#X connect 7 0 21 0;
#X connect 8 0 7 1;
#X connect 8 0 14 0;
#X connect 8 0 15 1;
#X connect 8 0 17 1;
#X connect 8 0 19 1;
#X connect 9 0 8 1;
#X connect 10 0 5 1;
#X connect 11 0 12 0;
#X connect 11 1 4 0;
#X connect 12 0 13 0;
#X connect 12 1 16 0;
#X connect 12 2 18 0;
#X connect 12 3 20 0;
#X connect 13 0 7 0;
#X connect 15 0 23 0;
#X connect 16 0 15 0;
#X connect 17 0 27 0;
#X connect 18 0 17 0;
#X connect 19 0 29 0;
#X connect 20 0 19 0;
#X connect 21 0 2 0;
#X connect 22 0 25 0;
#X connect 23 0 22 0;
#X connect 24 0 32 0;
#X connect 25 0 32 0;
#X connect 26 0 30 0;
#X connect 27 0 38 0;
#X connect 28 0 31 0;
#X connect 29 0 39 0;
#X connect 30 0 37 1;
#X connect 31 0 37 1;
#X connect 32 0 33 0;
#X connect 33 0 35 0;
#X connect 35 0 34 0;
#X connect 35 1 36 0;
#X connect 37 0 33 0;
#X connect 38 0 40 0;
#X connect 38 1 26 0;
#X connect 39 0 40 0;
#X connect 39 1 28 0;
#X connect 40 0 37 0;
#X restore 1232 199 pd ctrlFleches;
#X obj 100 -111 pointCurve \$2 0 7 \$0 \$3;
#X obj 563 168 pointCurve \$2 5 3 \$0 \$3;
#X obj 288 32 pointCurve \$2 2 5 \$0 \$3;
#X obj 567 -104 pointCurve \$2 5 7 \$0 \$3;
#X obj 470 34 pointCurve \$2 4 5 \$0 \$3;
#X obj 473 -249 pointCurve \$2 4 9 \$0 \$3;
#X obj 293 -107 pointCurve \$2 2 7 \$0 \$3;
#X obj 384 -36 pointCurve \$2 3 6 \$0 \$3;
#X obj 381 -176 pointCurve \$2 3 8 \$0 \$3;
#X obj 196 -110 pointCurve \$2 1 7 \$0 \$3;
#X obj 561 103 pointCurve \$2 5 4 \$0 \$3;
#X obj 565 -174 pointCurve \$2 5 8 \$0 \$3;
#X obj 568 -34 pointCurve \$2 5 6 \$0 \$3;
#X obj 380 -249 pointCurve \$2 3 9 \$0 \$3;
#X obj 97 -254 pointCurve \$2 0 9 \$0 \$3;
#X obj 101 -41 pointCurve \$2 0 6 \$0 \$3;
#X obj 197 -40 pointCurve \$2 1 6 \$0 \$3;
#X obj 294 -37 pointCurve \$2 2 6 \$0 \$3;
#X obj 477 -36 pointCurve \$2 4 6 \$0 \$3;
#X obj 662 -38 pointCurve \$2 6 6 \$0 \$3;
#X obj 649 38 pointCurve \$2 6 5 \$0 \$3;
#X obj 650 103 pointCurve \$2 6 4 \$0 \$3;
#X obj 652 171 pointCurve \$2 6 3 \$0 \$3;
#X obj 652 242 pointCurve \$2 6 2 \$0 \$3;
#X obj 652 306 pointCurve \$2 6 1 \$0 \$3;
#X obj 650 375 pointCurve \$2 6 0 \$0 \$3;
#X obj 562 373 pointCurve \$2 5 0 \$0 \$3;
#X obj 563 306 pointCurve \$2 5 1 \$0 \$3;
#X obj 563 239 pointCurve \$2 5 2 \$0 \$3;
#X obj 560 38 pointCurve \$2 5 5 \$0 \$3;
#X obj 472 372 pointCurve \$2 4 0 \$0 \$3;
#X obj 473 303 pointCurve \$2 4 1 \$0 \$3;
#X obj 473 236 pointCurve \$2 4 2 \$0 \$3;
#X obj 473 165 pointCurve \$2 4 3 \$0 \$3;
#X obj 471 100 pointCurve \$2 4 4 \$0 \$3;
#X obj 380 371 pointCurve \$2 3 0 \$0 \$3;
#X obj 381 300 pointCurve \$2 3 1 \$0 \$3;
#X obj 380 233 pointCurve \$2 3 2 \$0 \$3;
#X obj 379 164 pointCurve \$2 3 3 \$0 \$3;
#X obj 378 96 pointCurve \$2 3 4 \$0 \$3;
#X obj 380 32 pointCurve \$2 3 5 \$0 \$3;
#X obj 289 370 pointCurve \$2 2 0 \$0 \$3;
#X obj 289 301 pointCurve \$2 2 1 \$0 \$3;
#X obj 289 235 pointCurve \$2 2 2 \$0 \$3;
#X obj 288 166 pointCurve \$2 2 3 \$0 \$3;
#X obj 287 99 pointCurve \$2 2 4 \$0 \$3;
#X obj 193 369 pointCurve \$2 1 0 \$0 \$3;
#X obj 195 301 pointCurve \$2 1 1 \$0 \$3;
#X obj 195 232 pointCurve \$2 1 2 \$0 \$3;
#X obj 191 166 pointCurve \$2 1 3 \$0 \$3;
#X obj 195 99 pointCurve \$2 1 4 \$0 \$3;
#X obj 196 35 pointCurve \$2 1 5 \$0 \$3;
#X obj 101 369 pointCurve \$2 0 0 \$0 \$3;
#X obj 99 301 pointCurve \$2 0 1 \$0 \$3;
#X obj 100 231 pointCurve \$2 0 2 \$0 \$3;
#X obj 101 164 pointCurve \$2 0 3 \$0 \$3;
#X obj 102 99 pointCurve \$2 0 4 \$0 \$3;
#X obj 102 34 pointCurve \$2 0 5 \$0 \$3;
#X obj 751 -39 pointCurve \$2 7 6 \$0 \$3;
#X obj 738 37 pointCurve \$2 7 5 \$0 \$3;
#X obj 739 102 pointCurve \$2 7 4 \$0 \$3;
#X obj 741 170 pointCurve \$2 7 3 \$0 \$3;
#X obj 741 241 pointCurve \$2 7 2 \$0 \$3;
#X obj 741 305 pointCurve \$2 7 1 \$0 \$3;
#X obj 739 374 pointCurve \$2 7 0 \$0 \$3;
#X obj 847 -40 pointCurve \$2 8 6 \$0 \$3;
#X obj 834 36 pointCurve \$2 8 5 \$0 \$3;
#X obj 835 101 pointCurve \$2 8 4 \$0 \$3;
#X obj 837 169 pointCurve \$2 8 3 \$0 \$3;
#X obj 837 240 pointCurve \$2 8 2 \$0 \$3;
#X obj 837 304 pointCurve \$2 8 1 \$0 \$3;
#X obj 835 373 pointCurve \$2 8 0 \$0 \$3;
#X obj 942 -41 pointCurve \$2 9 6 \$0 \$3;
#X obj 929 35 pointCurve \$2 9 5 \$0 \$3;
#X obj 930 100 pointCurve \$2 9 4 \$0 \$3;
#X obj 932 168 pointCurve \$2 9 3 \$0 \$3;
#X obj 932 239 pointCurve \$2 9 2 \$0 \$3;
#X obj 932 303 pointCurve \$2 9 1 \$0 \$3;
#X obj 930 372 pointCurve \$2 9 0 \$0 \$3;
#X obj 383 -106 pointCurve \$2 3 7 \$0 \$3;
#X obj 476 -106 pointCurve \$2 4 7 \$0 \$3;
#X obj 661 -108 pointCurve \$2 6 7 \$0 \$3;
#X obj 750 -109 pointCurve \$2 7 7 \$0 \$3;
#X obj 846 -110 pointCurve \$2 8 7 \$0 \$3;
#X obj 941 -111 pointCurve \$2 9 7 \$0 \$3;
#X obj 98 -181 pointCurve \$2 0 8 \$0 \$3;
#X obj 194 -180 pointCurve \$2 1 8 \$0 \$3;
#X obj 291 -177 pointCurve \$2 2 8 \$0 \$3;
#X obj 474 -176 pointCurve \$2 4 8 \$0 \$3;
#X obj 659 -178 pointCurve \$2 6 8 \$0 \$3;
#X obj 748 -179 pointCurve \$2 7 8 \$0 \$3;
#X obj 844 -180 pointCurve \$2 8 8 \$0 \$3;
#X obj 939 -181 pointCurve \$2 9 8 \$0 \$3;
#X obj 193 -253 pointCurve \$2 1 9 \$0 \$3;
#X obj 290 -250 pointCurve \$2 2 9 \$0 \$3;
#X obj 564 -247 pointCurve \$2 5 9 \$0 \$3;
#X obj 658 -251 pointCurve \$2 6 9 \$0 \$3;
#X obj 747 -252 pointCurve \$2 7 9 \$0 \$3;
#X obj 843 -253 pointCurve \$2 8 9 \$0 \$3;
#X obj 938 -254 pointCurve \$2 9 9 \$0 \$3;
#X connect 0 0 16 0;
#X connect 2 0 4 0;
#X connect 5 0 6 0;
#X connect 9 0 7 0;
#X connect 10 0 5 0;
#X connect 11 0 22 0;
#X connect 12 0 11 0;
#X connect 14 0 13 0;
#X connect 15 0 13 2;
#X connect 16 0 14 0;
#X connect 16 1 19 0;
#X connect 16 2 15 0;
#X connect 17 0 16 0;
#X connect 18 0 16 0;
#X connect 19 0 13 1;
#X connect 20 0 0 0;
#X connect 44 0 23 0;
#X connect 46 0 45 0;
#X connect 47 0 46 0;
#X restore 476 256 pd \$0-dessineCurve;
#X obj 87 255 list prepend \$0;
#X obj 194 487 nbx 2 14 0 60 0 1 empty empty nbPoints 32 8 0 10 -262144
-1 -1 26 256;
#X msg 202 517 grid \$1 \$1;
#X obj 277 452 loadbang;
#X obj 305 211 bng 15 250 50 0 \$0-bng-saveTmp-snd empty saveTmp 17
7 0 10 -260097 -1 -1;
#X obj 305 191 bng 15 250 50 0 \$0-bng-loadTmp-snd empty loadTmp 17
7 0 10 -204786 -1 -1;
#N canvas 525 82 621 693 toCurve 0;
#X msg -433 569 set \$1 \$2 \$3 \$4 \$5;
#X obj -43 717 tgl 15 0 empty \$0-tgl-showgrid-snd empty 17 7 0 10
-262144 -1 -1 0 1;
#X text -23 716 show grid;
#X obj -42 742 sel 1;
#X msg 0 786 draw fill;
#X msg 15 758 draw line;
#X obj -439 514 route list;
#X obj -465 540 route \$2;
#X obj -73 491 r init;
#X obj -9 528 r \$2-resetPointsCurve;
#X obj -15 551 del 20;
#X msg -235 158 draw line;
#X msg -235 138 draw fill;
#X msg -235 178 draw point;
#X msg -235 199 draw line1;
#X msg -235 220 draw line2;
#X msg -235 241 draw line3;
#X msg -195 366 draw control_line;
#X msg -195 387 draw control_line1;
#X msg -195 408 draw control_line2;
#X msg -195 429 draw control_fill;
#X msg -195 450 draw control_point;
#X obj -231 466 t a;
#X msg -126 768 res 4 4;
#X obj -186 106 loadbang;
#X obj -4 505 r loadbang;
#X obj -439 476 r \$0-\$2-pointCurve3D;
#X obj -261 856 outlet;
#X obj -40 605 f \$4;
#X obj -41 624 + 2;
#X obj 3 628 + 2;
#X obj 5 601 f \$5;
#X obj -38 652 pack f f;
#X msg -50 685 res \$1 \$2;
#X obj -28 458 bng 15 250 50 0 empty empty empty 17 7 0 10 -262144
-1 -1;
#X obj -36 577 t b b b;
#X msg -207 678 grid 55 55;
#X connect 0 0 27 0;
#X connect 1 0 3 0;
#X connect 3 0 5 0;
#X connect 3 1 4 0;
#X connect 4 0 27 0;
#X connect 5 0 27 0;
#X connect 6 0 7 0;
#X connect 6 0 0 0;
#X connect 8 0 35 0;
#X connect 9 0 10 0;
#X connect 10 0 35 0;
#X connect 11 0 22 0;
#X connect 12 0 22 0;
#X connect 13 0 22 0;
#X connect 14 0 22 0;
#X connect 15 0 22 0;
#X connect 16 0 22 0;
#X connect 17 0 22 0;
#X connect 18 0 22 0;
#X connect 19 0 22 0;
#X connect 20 0 22 0;
#X connect 21 0 22 0;
#X connect 22 0 27 0;
#X connect 23 0 27 0;
#X connect 24 0 12 0;
#X connect 25 0 10 0;
#X connect 26 0 6 0;
#X connect 28 0 29 0;
#X connect 29 0 32 0;
#X connect 30 0 32 1;
#X connect 31 0 30 0;
#X connect 32 0 33 0;
#X connect 33 0 27 0;
#X connect 34 0 35 0;
#X connect 35 0 28 0;
#X connect 35 1 31 0;
#X connect 35 2 36 0;
#X connect 36 0 27 0;
#X restore 521 604 pd toCurve;
#X obj 192 154 nbx 3 14 0 100 0 1 empty empty sizeOfPoints 40 6 0 10
-262130 -1 -1 58 256;
#X obj 246 32 bng 15 250 50 0 empty empty empty 17 7 0 10 -262144 -1
-1;
#X obj 248 270 s \$2-\$3-rayonPoints;
#X obj 459 79 del 200;
#X obj 596 202 import maxlib;
#X obj 597 182 import flatspace;
#X obj 418 604 surface3d 10 10;
#X text 84 97 Attention au proc!;
#X text 83 112 lié au nbPoints -> def de la deformation;
#N canvas 43 92 707 421 drawControlPoints 0;
#X obj 209 40 inlet;
#X obj 219 149 spigot;
#X obj 281 48 r \$2-\$3-tgl-drawPointsCurve3D-snd;
#X obj 150 380 s \$2-\$3-pointgemhead;
#X obj 389 144 tgl 15 0 empty empty empty 17 7 0 10 -262144 -1 -1 0
1;
#X obj 291 232 translateXYZ;
#X floatatom 415 194 5 0 0 0 - - -;
#X obj 198 108 separator;
#X floatatom 380 185 5 0 0 0 - - -;
#X obj 553 197 r \$1-\$5-pointgemhead;
#N canvas 317 184 873 485 transformation 0;
#X obj 594 55 gemlist_info;
#X obj 596 29 inlet;
#X obj 419 6 inlet;
#X obj 397 446 outlet;
#X obj 435 179 unpack f f f;
#X obj 421 147 translateXYZ;
#X obj 436 345 unpack f f f;
#X obj 443 101 unpack f f f;
#X obj 419 36 GEMglLoadIdentity;
#X obj 421 75 color 1 0 0;
#X obj 435 254 unpack f f f;
#N canvas 296 410 419 328 shear 0;
#X obj 28 17 inlet;
#X obj 28 270 outlet;
#X obj 108 21 inlet;
#X obj 205 20 inlet;
#X obj 297 18 inlet;
#X text 117 38 ShearXY;
#X text 217 37 ShearXZ;
#X text 306 36 ShearYZ;
#X obj 28 104 shearYX;
#X obj 28 153 shearZX;
#X obj 28 212 shearZY;
#X connect 0 0 8 0;
#X connect 2 0 8 1;
#X connect 3 0 9 1;
#X connect 4 0 10 1;
#X connect 8 0 9 0;
#X connect 9 0 10 0;
#X connect 10 0 1 0;
#X restore 430 318 pd shear;
#X obj 421 396 rotateXYZ;
#X obj 433 216 scaleXYZ;
#X obj 260 91 GEMglOrtho;
#X floatatom 328 160 5 0 0 0 - - -;
#X floatatom 358 182 5 0 0 0 - - -;
#X connect 0 1 6 0;
#X connect 0 2 10 0;
#X connect 0 3 4 0;
#X connect 0 4 7 0;
#X connect 1 0 0 0;
#X connect 2 0 8 0;
#X connect 4 0 13 1;
#X connect 4 1 13 2;
#X connect 4 2 13 3;
#X connect 5 0 13 0;
#X connect 6 0 12 1;
#X connect 6 1 12 2;
#X connect 6 2 12 3;
#X connect 7 0 5 1;
#X connect 7 1 5 2;
#X connect 7 2 5 3;
#X connect 8 0 9 0;
#X connect 9 0 5 0;
#X connect 10 0 11 1;
#X connect 10 1 11 2;
#X connect 10 2 11 3;
#X connect 11 0 12 0;
#X connect 12 0 3 0;
#X connect 13 0 11 0;
#X restore 54 219 pd transformation;
#X obj 552 227 separator;
#X obj 101 174 gemhead 200;
#X obj 105 136 tgl 15 0 empty empty empty 17 7 0 10 -262144 -1 -1 0
1;
#X obj 258 348 square 1;
#X obj 118 198 ortho;
#X obj 239 288 separator;
#X floatatom 330 199 5 0 0 0 - - -;
#X obj 235 196 bng 15 250 50 0 empty empty empty 17 7 0 10 -262144
-1 -1;
#X connect 0 0 7 0;
#X connect 1 0 3 0;
#X connect 2 0 1 1;
#X connect 2 0 4 0;
#X connect 5 0 16 0;
#X connect 6 0 5 3;
#X connect 7 0 1 0;
#X connect 8 0 5 2;
#X connect 9 0 11 0;
#X connect 10 0 16 0;
#X connect 12 0 10 0;
#X connect 13 0 12 0;
#X connect 15 0 10 0;
#X connect 16 0 14 0;
#X connect 17 0 5 1;
#X restore 51 431 pd drawControlPoints;
#X obj 274 491 tgl 15 0 empty empty normal-onOff 17 7 0 10 -262144
-1 -1 0 1;
#X msg 274 518 normal \$1;
#X msg 274 471 0;
#X obj 421 574 scaleXYZ 1.333 1 1;
#X obj 473 548 * 1.333;
#X floatatom 519 498 5 0 0 0 - - -;
#X obj 495 464 / 100;
#X floatatom 504 443 5 0 0 0 - - -;
#X msg 544 465 0.9652;
#X obj 544 447 loadbang;
#N canvas 71 87 808 626 mire 0;
#X floatatom 95 192 5 0 0 0 - - -;
#X floatatom 426 187 5 0 0 0 - - -;
#X obj 318 122 colorRGB 1 0 0;
#X floatatom 525 191 5 0 0 0 - - -;
#X obj 487 144 colorRGB 1 1 1;
#X obj 59 280 rectangle 4 3;
#X obj 312 283 rectangle 4 3;
#X obj 491 286 rectangle 4 3;
#X obj 476 242 scaleXYZ 1.33 0.005 1;
#X floatatom 330 188 5 0 0 0 - - -;
#X obj 310 234 scaleXYZ -0.28 0.15 1;
#X obj 628 155 colorRGB 1 1 1;
#X obj 634 241 rectangle 4 3;
#X obj 59 161 translateXYZ 0 0 0;
#X floatatom 748 184 5 0 0 0 - - -;
#X obj 631 216 scaleXYZ 0.005 2.33 1;
#X obj 216 549 rectangle 4 3;
#X floatatom 315 479 5 0 0 0 - - -;
#X floatatom 431 472 5 0 0 0 - - -;
#X obj 375 566 rectangle 4 3;
#X floatatom 465 455 5 0 0 0 - - -;
#X floatatom 293 346 5 0 0 0 - - -;
#X obj 212 410 colorRGB 0.3 1 1;
#X obj 201 505 scaleXYZ 0.005 2.85 1;
#X obj 366 385 colorRGB 0.3 1 1;
#X floatatom 475 334 5 0 0 0 - - -;
#X obj 378 545 scaleXYZ 0.005 2.85 1;
#X obj 211 374 translateXYZ 0 4.08 0;
#X obj 366 361 translateXYZ 0 4.08 0;
#X obj 371 505 rotateXYZ 0 0 -42.56;
#X obj 192 476 rotateXYZ 0 0 41.09;
#X obj 59 128 separator;
#X obj 313 77 separator;
#X obj 486 99 separator;
#X obj 361 336 separator;
#X obj 211 343 separator;
#X obj 627 107 separator;
#X msg 137 190 1.33;
#X obj 142 -3 inlet;
#X msg 172 272 draw line \, width 20;
#X obj 174 253 loadbang;
#X obj 59 232 scaleXYZ 1.39 1.39 1;
#X obj 321 149 translateXYZ 0 -1 0;
#X obj 484 175 translateXYZ 0 -1 0;
#X obj 626 189 translateXYZ 0 -1 0;
#X obj 209 438 translateXYZ 0 -1 0;
#X obj 363 413 translateXYZ 0 -1 0;
#X connect 0 0 41 1;
#X connect 0 0 41 2;
#X connect 1 0 42 2;
#X connect 2 0 42 0;
#X connect 4 0 43 0;
#X connect 8 0 7 0;
#X connect 9 0 10 1;
#X connect 10 0 6 0;
#X connect 11 0 44 0;
#X connect 13 0 41 0;
#X connect 14 0 15 2;
#X connect 15 0 12 0;
#X connect 17 0 23 2;
#X connect 18 0 29 3;
#X connect 20 0 26 2;
#X connect 21 0 27 2;
#X connect 22 0 45 0;
#X connect 23 0 16 0;
#X connect 24 0 46 0;
#X connect 25 0 28 2;
#X connect 26 0 19 0;
#X connect 27 0 22 0;
#X connect 28 0 24 0;
#X connect 29 0 26 0;
#X connect 30 0 23 0;
#X connect 32 0 2 0;
#X connect 33 0 4 0;
#X connect 36 0 11 0;
#X connect 37 0 41 1;
#X connect 37 0 41 2;
#X connect 38 0 31 0;
#X connect 38 0 32 0;
#X connect 38 0 33 0;
#X connect 38 0 36 0;
#X connect 38 0 35 0;
#X connect 38 0 34 0;
#X connect 39 0 5 0;
#X connect 40 0 39 0;
#X connect 41 0 5 0;
#X connect 42 0 10 0;
#X connect 43 0 8 0;
#X connect 44 0 15 0;
#X connect 45 0 30 0;
#X connect 46 0 29 0;
#X restore 69 599 pd mire;
#X obj 71 545 scaleXYZ 1 1 1;
#X floatatom 176 567 5 0 0 0 - - -;
#X floatatom 181 415 5 0 0 0 - - -;
#X obj 179 443 / 100;
#X obj 237 388 loadbang;
#X obj 69 568 colorRGB 1 1 1 1;
#X obj 74 525 separator;
#X obj 559 571 rectangle 4 3;
#X obj 410 380 separator;
#X obj 42 495 spigot;
#X obj 306 154 tgl 15 0 \$2-\$3-tgl-showMire-snd empty showMire 17
7 0 10 -262144 -1 -1 0 1;
#X obj 71 456 r \$2-\$3-tgl-showMire-snd;
#X obj 68 473 tgl 15 0 empty empty empty 17 7 0 10 -262144 -1 -1 0
1;
#X msg 235 411 70.57;
#X obj 410 466 demux 0 1;
#X obj 378 155 tgl 15 0 empty empty bypass 17 7 0 10 -262144 -1 -1
0 1;
#X obj 410 403 projShader \$4;
#X obj 67 66 spigot 1;
#X obj 210 181 tgl 15 0 empty empty OFF 17 7 0 10 -228856 -1 -1 0 1
;
#X obj 112 45 == 0;
#X connect 0 0 18 0;
#X connect 2 0 0 0;
#X connect 4 0 9 0;
#X connect 6 0 9 1;
#X connect 10 0 6 0;
#X connect 11 0 63 0;
#X connect 12 0 9 2;
#X connect 13 0 6 0;
#X connect 13 0 28 0;
#X connect 13 0 17 0;
#X connect 15 0 34 0;
#X connect 15 1 55 0;
#X connect 15 2 54 0;
#X connect 18 0 8 0;
#X connect 19 0 20 0;
#X connect 20 0 31 0;
#X connect 21 0 37 0;
#X connect 22 0 9 3;
#X connect 23 0 9 4;
#X connect 24 0 31 0;
#X connect 25 0 27 0;
#X connect 26 0 25 0;
#X connect 28 0 6 0;
#X connect 35 0 36 0;
#X connect 36 0 31 0;
#X connect 37 0 35 0;
#X connect 38 0 31 0;
#X connect 39 0 38 1;
#X connect 40 0 39 0;
#X connect 40 0 38 2;
#X connect 41 0 40 0;
#X connect 42 0 41 0;
#X connect 43 0 40 0;
#X connect 44 0 43 0;
#X connect 46 0 51 0;
#X connect 47 0 46 1;
#X connect 47 0 46 2;
#X connect 48 0 49 0;
#X connect 49 0 47 0;
#X connect 50 0 59 0;
#X connect 51 0 45 0;
#X connect 52 0 46 0;
#X connect 54 0 62 0;
#X connect 55 0 52 0;
#X connect 57 0 58 0;
#X connect 58 0 55 1;
#X connect 59 0 49 0;
#X connect 60 0 38 0;
#X connect 60 1 53 0;
#X connect 61 0 60 1;
#X connect 62 0 60 0;
#X connect 63 0 15 0;
#X connect 64 0 65 0;
#X connect 65 0 63 1;
#X coords 0 -1 1 1 322 102 1 110 128;
