#N canvas 2250 251 624 771 10;
#X obj 1 1 cnv 15 40 654 empty empty \$1 2 5 1 8 -4032 -1 0;
#X obj -76 149 mull~ 0 10;
#X floatatom -64 118 5 0 0 0 - - -, f 5;
#X obj -60 67 bng 15 250 50 0 empty empty empty 17 7 0 10 -262144 -1
-1;
#X obj -65 86 init 2;
#X text -27 -26 KEPtype nomUnique;
#X obj 439 322 vsl 15 128 0 1 0 0 \$1-del1_time-snd \$1-del1_time-rcv
del1_time 0 -9 0 10 -262144 -1 -1 12700 1;
#X obj -122 4 l MASTERtypeIN \$1 1;
#X obj -122 216 l MASTERtypeOUT\$1 1;
#X obj 62 -5 l KEPface \$1;
#X obj 161 468 MORPHgroup \$1 FX;
#X obj 8 643 bng 10 250 50 0 empty empty empty 17 7 0 10 -4034 -1 -1
;
#X obj 25 643 bng 10 250 50 0 empty empty empty 17 7 0 10 -258113 -1
-1;
#X obj 160 226 hsl 128 15 0 127 0 0 \$1-Volume-snd \$1-Volume-rcv volume
-2 -8 0 10 -262144 -1 -1 100 1;
#X obj 326 234 param \$1 FX del1_time;
#X obj 157 251 paramfixe \$1 volume;
#X obj 249 42 KEPface \$1;
#X obj 287 378 r \$1-Vitesse;
#X floatatom 285 400 5 0 0 0 - - -, f 5;
#N canvas 593 163 631 617 FX 1;
#X obj 98 48 inlet~;
#X obj 73 560 outlet~;
#X obj 131 419 mull~ 0 10;
#X obj 227 127 +~;
#X obj 110 459 +~;
#X obj 33 338 -;
#X msg 33 317 1 \$1;
#X obj 31 288 clip 0 1;
#X obj 47 147 hsl 128 15 0 1 0 0 empty empty empty -2 -8 0 10 -262144
-1 -1 12700 1;
#X obj 185 218 hsl 128 15 0 135 0 0 empty empty empty -2 -8 0 10 -262144
-1 -1 12700 1;
#X obj 182 238 mtof;
#X obj 215 239 f2s;
#X symbolatom 243 240 10 0 0 0 - - -, f 10;
#X obj 167 291 hsl 128 15 0 135 0 0 empty empty empty -2 -8 0 10 -262144
-1 -1 7825 1;
#X obj 164 311 mtof;
#X obj 197 312 f2s;
#X symbolatom 225 313 10 0 0 0 - - -, f 10;
#X obj 49 184 pow 2;
#X obj 140 342 hp8_cheb~ 10;
#X obj 141 264 lp8_cheb~ 20000;
#X obj 294 333 clip 0 0.5;
#X obj 452 328 clip 0.5 1;
#X obj 359 253 * 1;
#X obj 295 353 maxlib/scale 0 0.5 0 135;
#X obj 453 354 maxlib/scale 0.5 1 0 135;
#X obj 44 116 r \$1-Volume;
#X obj 359 95 param \$1 FX filtre;
#X obj 419 135 mknob 15 100 0 1 0 0 \$1-filtre-snd \$1-filtre-rcv filtre
-2 -6 1 8 -159808 -1 -1 6900 1;
#X floatatom 418 233 5 0 0 0 - - -, f 5;
#X obj 365 195 r \$1-Filtre;
#X obj 222 411 apflang \$1 FX flange1;
#X connect 0 0 30 0;
#X connect 2 0 4 0;
#X connect 3 0 19 0;
#X connect 4 0 1 0;
#X connect 5 0 2 1;
#X connect 6 0 5 0;
#X connect 7 0 6 0;
#X connect 8 0 17 0;
#X connect 9 0 10 0;
#X connect 10 0 11 0;
#X connect 10 0 19 1;
#X connect 11 0 12 0;
#X connect 13 0 14 0;
#X connect 14 0 15 0;
#X connect 14 0 18 1;
#X connect 15 0 16 0;
#X connect 17 0 2 1;
#X connect 19 0 18 0;
#X connect 20 0 23 0;
#X connect 21 0 24 0;
#X connect 22 0 20 0;
#X connect 22 0 21 0;
#X connect 23 0 9 0;
#X connect 24 0 13 0;
#X connect 25 0 8 0;
#X connect 29 0 22 0;
#X connect 29 0 28 0;
#X connect 30 0 2 0;
#X restore 94 177 pd FX;
#N canvas 2003 505 311 407 KEPboutons 0;
#X obj 188 142 tLock \$1 1/1;
#X obj 188 162 tLock \$1 1/2;
#X obj 189 182 tLock \$1 1/3;
#X obj 189 202 tLock \$1 1/4;
#X obj 8 53 KEPbus \$1 Effet Decay b3;
#X obj 9 139 KEPbus \$1 1/1 -t1- t1;
#X obj 7 160 KEPbus \$1 1/2 -t2- t2;
#X obj 8 182 KEPbus \$1 1/3 -t3- t3;
#X obj 9 203 KEPbus \$1 1/4 -t4- t4;
#X obj 9 227 KEPbus \$1 Lock -tL- tREC;
#X obj 15 265 KEPbus \$1 l1 -l1- tl1;
#X obj 15 288 KEPbus \$1 l2 -l2- tl2;
#X obj 17 310 KEPbus \$1 l3 -l3- tl3;
#X obj 17 331 KEPbus \$1 l4 -l4- tl4;
#X obj 12 356 KEPbus \$1 lR -lR- tlREC;
#X obj 148 260 KEPbus \$1 lr -lr- lrouge;
#X obj 148 283 KEPbus \$1 lv -lv- lvert;
#X obj 8 97 KEPbus \$1 Volume Volume b5;
#X obj 8 30 KEPbus \$1 Phrases Phrases b2;
#X obj 8 75 KEPbus \$1 Reverb Reverb b4;
#X obj 8 7 KEPbus \$1 Filtre Filtre b1;
#X restore 94 387 pd KEPboutons;
#X obj 163 431 r \$1-Effet;
#X floatatom 254 440 5 0 0 0 - - -, f 5;
#X obj 4 100 MASTERtypeOUT \$1 1;
#X obj 8 664 KEPCommon \$1 \$0;
#X obj 4 12 FXtypeIN \$1 1 \$0;
#X connect 2 0 1 1;
#X connect 3 0 4 0;
#X connect 4 0 2 0;
#X connect 11 0 24 0;
#X connect 12 0 24 1;
#X connect 17 0 18 0;
#X connect 19 0 23 0;
#X connect 21 0 10 0;
#X connect 21 0 22 0;
#X connect 25 0 19 0;
#X coords 0 -1 1 1 42 656 2 0 0;
