#N canvas 800 79 800 821 10;
#X floatatom -64 84 5 0 0 0 - - -, f 5;
#X obj -60 33 bng 15 250 50 0 empty empty empty 17 7 0 10 -262144 -1
-1;
#X obj -65 52 init 2;
#X text -27 -26 KEPtype nomUnique;
#X obj 174 591 vsl 15 128 0 1 0 0 \$1-del1_time-snd \$1-del1_time-rcv
del1_time 0 -9 0 10 -262144 -1 -1 8723 1;
#X obj 57 17 KEPface \$1;
#X obj 47 473 MORPHgroup \$1 FX;
#X obj 172 545 param \$1 FX del1_time;
#X floatatom 47 432 5 0 0 0 - - -, f 5;
#N canvas 283 511 390 264 KEPboutons 0;
#X obj 174 137 KEPbus \$1 togl1 -togl1- tl1;
#X obj 7 160 KEPbus \$1 tog2 -tog2- t2;
#X obj 8 182 KEPbus \$1 tog3 -tog3- t3;
#X obj 9 203 KEPbus \$1 tog4 -tog4- t4;
#X obj 9 227 KEPbus \$1 togR -togR- tREC;
#X obj 172 158 KEPbus \$1 togl2 -togl2- tl2;
#X obj 174 179 KEPbus \$1 togl3 -togl3- tl3;
#X obj 172 200 KEPbus \$1 togl4 -togl4- tl4;
#X obj 174 226 KEPbus \$1 toglR -toglR- tlREC;
#X obj 9 139 KEPbus \$1 on -tog1- t1;
#X obj 8 97 KEPbus \$1 Volume Volume b5;
#X obj 8 30 KEPbus \$1 Constance -mode- b2;
#X obj 8 52 KEPbus \$1 Mode -const- b3;
#X obj 8 75 KEPbus \$1 Pitch Mou b4;
#X obj 8 8 KEPbus \$1 Mesure -pitch- b1;
#X restore 55 128 pd KEPboutons;
#X obj 83 386 tgl 15 1 empty empty empty 17 7 0 10 -262144 -1 -1 1
1;
#X obj 82 404 switch~;
#X obj 378 72 t b;
#X obj 378 52 r SYNCHRO-clock;
#X obj 351 163 r \$1-Volume;
#X obj 47 448 r \$1-Effet1;
#X obj 57 -5 l MASTERtypeIN \$1 2 \$0;
#X obj -76 115 Vmull~ 0 10;
#X obj 349 598 l orfilter \$1 FX orfilter1;
#X obj 349 618 orfilter \$1 FX orfilter1;
#X obj 283 158 s \$1-tl1;
#X obj 389 94 s \$1-lrouge;
#N canvas 0 101 451 463 sample 0;
#X obj 219 68 r \$1-sample;
#X obj 219 93 t b f;
#X msg 219 117 1 \, 2 \, 3 \, 4;
#X obj 219 143 t f f;
#X obj 219 186 pack f f;
#X obj 246 166 ==;
#X obj 219 212 list prepend \$1;
#X msg 219 235 \; \$1--togl\$2- \$3;
#X obj 309 63 hradio 15 1 0 8 empty empty empty 0 -8 0 10 -262144 -1
-1 0;
#X obj 70 21 r \$1--tog1-;
#X msg 70 63 1;
#X obj 70 84 s \$1-sample;
#X obj 161 32 loadbang;
#X floatatom 294 111 5 0 0 0 - - -, f 5;
#X obj 70 41 sel 1;
#X obj 70 167 s \$1-sample;
#X obj 70 125 sel 1;
#X obj 71 252 s \$1-sample;
#X obj 71 209 sel 1;
#X obj 71 335 s \$1-sample;
#X obj 71 293 sel 1;
#X obj 70 105 r \$1--tog2-;
#X msg 70 147 2;
#X obj 71 189 r \$1--tog3-;
#X msg 71 231 3;
#X obj 71 273 r \$1--tog4-;
#X msg 71 315 4;
#X obj 216 290 r \$1-sample;
#X obj 218 363 s \$1-str-sample;
#X msg 218 341 symbol sample\$1;
#X obj 306 80 s \$1-sample;
#X floatatom 324 311 5 0 0 0 - - -, f 5;
#X obj 217 319 + 0;
#X obj 350 370 bng 15 250 50 0 empty empty empty 17 7 0 10 -262144
-1 -1;
#X connect 0 0 1 0;
#X connect 0 0 13 0;
#X connect 1 0 2 0;
#X connect 1 1 5 1;
#X connect 2 0 3 0;
#X connect 3 0 4 0;
#X connect 3 1 5 0;
#X connect 4 0 6 0;
#X connect 5 0 4 1;
#X connect 6 0 7 0;
#X connect 8 0 30 0;
#X connect 9 0 14 0;
#X connect 10 0 11 0;
#X connect 12 0 10 0;
#X connect 14 0 10 0;
#X connect 16 0 22 0;
#X connect 18 0 24 0;
#X connect 20 0 26 0;
#X connect 21 0 16 0;
#X connect 22 0 15 0;
#X connect 23 0 18 0;
#X connect 24 0 17 0;
#X connect 25 0 20 0;
#X connect 26 0 19 0;
#X connect 27 0 32 0;
#X connect 29 0 28 0;
#X connect 31 0 33 0;
#X connect 32 0 29 0;
#X connect 32 0 31 0;
#X restore 150 126 pd sample;
#X obj 351 188 s \$1-str-vol-rcv;
#X obj 215 123 r \$1-on;
#X obj 215 190 s \$1-str-on-rcv;
#X obj 260 165 tgl 15 0 empty empty empty 17 7 0 10 -262144 -1 -1 0
1;
#X obj 215 167 sel 1;
#X obj 215 143 change;
#X obj 238 -15 l MASTERtypeOUT \$1 1;
#N canvas 0 105 451 463 denum 0;
#X obj 125 221 * 2;
#X obj 63 282 +;
#X obj 125 244 t b f;
#X obj 188 145 * 2;
#X obj 125 197 +;
#X obj 188 168 t b f;
#X floatatom 93 325 5 0 0 0 - - -, f 5;
#X obj 63 122 tgl 15 0 empty empty empty 17 7 0 10 -262144 -1 -1 0
1;
#X obj 63 84 sel 1;
#X obj 63 60 change;
#X obj 125 123 tgl 15 0 empty empty empty 17 7 0 10 -262144 -1 -1 0
1;
#X obj 125 85 sel 1;
#X obj 125 61 change;
#X obj 188 124 tgl 15 0 empty empty empty 17 7 0 10 -262144 -1 -1 0
1;
#X obj 188 86 sel 1;
#X obj 188 62 change;
#X obj 63 38 r \$1-tog2;
#X obj 125 37 r \$1-tog3;
#X obj 188 36 r \$1-tog4;
#X obj 70 147 s \$1-tl2;
#X obj 132 148 s \$1-tl3;
#X msg 216 117 set \$1;
#X msg 144 116 set \$1;
#X msg 82 116 set \$1;
#X obj 343 146 s \$1-tl4;
#X obj 153 324 + 1;
#X obj 153 346 s \$1-str-denum-rcv;
#X obj 282 34 r \$1-str-denum-snd;
#X obj 282 56 - 1;
#X obj 282 78 t f f f;
#X obj 343 101 & 4;
#X obj 343 123 != 0;
#X obj 301 143 != 0;
#X obj 301 166 s \$1-tl3;
#X obj 301 121 & 2;
#X obj 274 181 != 0;
#X obj 274 159 & 1;
#X obj 274 204 s \$1-tl2;
#X connect 0 0 2 0;
#X connect 1 0 6 0;
#X connect 1 0 25 0;
#X connect 2 0 1 0;
#X connect 2 1 1 1;
#X connect 3 0 5 0;
#X connect 4 0 0 0;
#X connect 5 0 4 0;
#X connect 5 1 4 1;
#X connect 7 0 1 0;
#X connect 7 0 19 0;
#X connect 8 0 7 0;
#X connect 9 0 8 0;
#X connect 10 0 4 0;
#X connect 10 0 20 0;
#X connect 11 0 10 0;
#X connect 12 0 11 0;
#X connect 13 0 3 0;
#X connect 14 0 13 0;
#X connect 15 0 14 0;
#X connect 16 0 9 0;
#X connect 17 0 12 0;
#X connect 18 0 15 0;
#X connect 21 0 13 0;
#X connect 22 0 10 0;
#X connect 23 0 7 0;
#X connect 25 0 26 0;
#X connect 27 0 28 0;
#X connect 28 0 29 0;
#X connect 29 0 36 0;
#X connect 29 1 34 0;
#X connect 29 2 30 0;
#X connect 30 0 31 0;
#X connect 31 0 24 0;
#X connect 31 0 21 0;
#X connect 32 0 33 0;
#X connect 32 0 22 0;
#X connect 34 0 32 0;
#X connect 35 0 37 0;
#X connect 35 0 23 0;
#X connect 36 0 35 0;
#X restore 149 147 pd denum;
#X obj 282 133 r \$1-str-on-snd;
#X obj 329 216 r \$1-Pitch;
#X obj 501 224 r \$1-Mou;
#X obj 501 316 s \$1-str-smooth-rcv;
#X obj 501 272 * 150;
#X obj 501 294 + 2;
#X obj 501 246 pow 2;
#X obj 329 272 moses 0.45;
#X obj 398 272 moses 0.55;
#X obj 329 292 - 0.45;
#X obj 423 293 - 0.55;
#X msg 383 311 0;
#X obj 329 338 s \$1-str-pitch-rcv;
#X obj 329 238 sel 0;
#X obj 329 314 * 48;
#X obj 423 316 * 48;
#X obj 496 15 r \$1-Constance;
#X obj 497 126 s \$1-str-constance-rcv;
#X obj 496 60 * 50;
#N canvas 131 363 609 341 Mode 0;
#X obj 131 87 i;
#X obj 131 109 change;
#X obj 131 131 t f f f;
#X obj 131 275 min 3;
#X obj 131 297 s \$1-str-mode-rcv;
#X floatatom 73 159 5 0 0 0 - - -, f 5;
#X obj 131 65 * 7.9;
#X obj 131 45 r \$1-Mode;
#X obj 314 37 r \$1-str-mode-rcv;
#X obj 314 59 route label;
#X symbolatom 356 235 15 0 0 0 - - -, f 15;
#X obj 314 81 symbol;
#X obj 150 174 > 3;
#X obj 150 196 change;
#X obj 150 218 + 1;
#X obj 150 240 s \$1-str-timemode-rcv;
#X obj 200 171 change;
#X obj 200 128 - 4;
#X obj 200 150 max 0;
#X obj 200 193 + 0;
#X obj 200 215 s \$1-str-fragdenum-rcv;
#X obj 397 100 r \$1-str-fragdenum;
#X floatatom 397 134 5 0 0 0 - - -, f 5;
#X obj 428 36 r \$1-str-timemode-snd;
#X obj 428 58 == 2;
#X obj 314 103 pack s f f;
#X obj 314 147 route 0 1;
#X msg 345 189 symbol \$1;
#X msg 413 188 symbol \$1/\$2;
#X msg 314 125 \$2 list \$1 \$3;
#X msg 358 266 label \$1;
#X obj 344 293 s \$1-b3-info;
#X connect 0 0 1 0;
#X connect 1 0 2 0;
#X connect 1 0 5 0;
#X connect 2 0 3 0;
#X connect 2 1 12 0;
#X connect 2 2 17 0;
#X connect 3 0 4 0;
#X connect 6 0 0 0;
#X connect 7 0 6 0;
#X connect 8 0 9 0;
#X connect 9 0 11 0;
#X connect 10 0 30 0;
#X connect 11 0 25 0;
#X connect 12 0 13 0;
#X connect 13 0 14 0;
#X connect 14 0 15 0;
#X connect 16 0 19 0;
#X connect 17 0 18 0;
#X connect 18 0 16 0;
#X connect 19 0 20 0;
#X connect 21 0 22 0;
#X connect 21 0 25 2;
#X connect 23 0 24 0;
#X connect 24 0 25 1;
#X connect 25 0 29 0;
#X connect 26 0 27 0;
#X connect 26 1 28 0;
#X connect 27 0 10 0;
#X connect 28 0 10 0;
#X connect 29 0 26 0;
#X connect 30 0 31 0;
#X restore 193 252 pd Mode;
#X obj 496 82 i;
#X obj 54 206 * 4.9;
#X obj 54 227 i;
#X obj 54 268 s \$1-str-palinmesure-rcv;
#X obj 54 183 r \$1-Mesure;
#X obj 54 291 r \$1-str-palinmesure;
#X msg 55 313 label Mesure:\$1;
#X obj 55 338 s \$1-b1-info;
#X obj 54 249 change;
#X obj 496 37 pow 2;
#X obj 512 194 s \$1-b2-info;
#X obj 496 104 change;
#X obj 496 146 r \$1-str-constance-snd;
#X msg 513 168 label Const:\$1;
#X obj 1 1 cnv 15 40 654 empty empty \$1 1 5 1 8 -257985 -1 0;
#X obj 7 643 bng 10 250 50 0 empty empty empty 17 7 0 10 -4034 -1 -1
;
#X obj 24 643 bng 10 250 50 0 empty empty empty 17 7 0 10 -258113 -1
-1;
#X obj 4 100 MASTERtypeOUTstereo \$1 1;
#X obj 7 669 KEPCommon \$1 \$0;
#X obj 4 12 MASTERtypeIN \$1 1 \$0;
#X obj 367 494 mknob 25 100 0 1 0 0 \$1-Seuil-snd \$1-Seuil-rcv seuil:5dB
-2 -6 1 8 -257985 -1 -1 500 1;
#X obj 452 494 mknob 25 100 0 1 0 0 \$1-Lmin-snd \$1-Lmin-rcv lmin:11.61ms
-2 -6 1 8 -4032 -1 -1 1400 1;
#X obj 544 493 mknob 25 100 0 1 0 0 \$1-Hmin-snd \$1-Hmin-rcv hmin:0ms
-2 -6 1 8 -260097 -1 -1 1100 1;
#X obj 365 540 mknob 25 100 0 1 0 0 \$1-THi-snd \$1-THi-rcv tHi:0.1s
-2 -6 1 8 -4032 -1 -1 1500 1;
#X obj 450 540 mknob 25 100 0 1 0 0 \$1-TLow-snd \$1-TLow-rcv tLow:0.53s
-2 -6 1 8 -4032 -1 -1 2200 1;
#X obj 542 539 mknob 25 100 0 1 0 0 \$1-Thresh-snd \$1-Thresh-rcv Threshold:82.7273
-2 -6 1 8 -261234 -1 -1 2900 1;
#X obj 567 40 paramsym \$1 SETTING sample-1-file;
#X obj 567 61 paramsym \$1 SETTING sample-2-file;
#X obj 567 81 paramsym \$1 SETTING sample-3-file;
#X obj 567 101 paramsym \$1 SETTING sample-4-file;
#N canvas 0 499 527 300 apf-etc 0;
#X symbolatom 18 146 0 0 0 0 - #1-sample-1-file-rcv #1-sample-1-file-snd
;
#X symbolatom 18 186 0 0 0 0 - #1-sample-2-file-rcv #1-sample-2-file-snd
;
#X symbolatom 18 219 0 0 0 0 - #1-sample-3-file-rcv #1-sample-3-file-snd
;
#X symbolatom 17 255 0 0 0 0 - #1-sample-4-file-rcv #1-sample-4-file-snd
;
#X obj 39 36 apf \$1-SETTING Seuil \$1-Seuil 2;
#X obj 38 57 apf \$1-SETTING Lmin \$1-Lmin 2;
#X obj 35 79 apf \$1-SETTING Hmin \$1-Hmin 2;
#X obj 33 103 aptab \$1-SETTING SnapTirage \$1-SnapTirage 2;
#X obj 265 35 apf \$1-SETTING Thresh \$1-Thresh 2;
#X obj 261 78 apf \$1-SETTING TLow \$1-TLow 2;
#X obj 264 55 apf \$1-SETTING THi \$1-THi 2;
#X restore 633 16 pd apf-etc;
#X floatatom 862 325 5 0 0 0 - - -, f 5;
#X obj 874 370 *~ 0.3;
#X obj 919 369 *~ 0.3;
#X obj 862 280 key;
#X obj 862 302 spigot;
#X obj 895 281 tgl 15 0 empty empty empty 17 7 0 10 -262144 -1 -1 0
1;
#X msg 943 305 smooth \$1;
#X floatatom 943 285 5 1 200 0 - - -, f 5;
#N canvas 0 329 450 512 clock 0;
#X obj 136 203 ndmetro 64 1;
#X obj 103 22 tgl 30 0 clockon-snd clockon-rcv ON 8 15 0 12 -24198
-1 -258699 0 1;
#X obj 137 66 r clockon-snd;
#X obj 136 98 sel 0 1;
#X obj 178 133 f;
#X msg 106 131 -1;
#X msg 178 153 0 \$1;
#X obj 136 227 pack f f;
#X obj 147 22 hsl 128 30 20 240 0 0 clockBPM-snd clockBPM-rcv BPM:96
8 15 0 12 -257985 -1 -1 4404 1;
#X obj 318 122 r clockBPM-snd;
#X obj 295 29 loadbang;
#X msg 295 50 120;
#X obj 295 88 s clockBPM-rcv;
#X obj 318 166 i;
#X msg 318 207 label BPM:\$1;
#X obj 318 229 s clockBPM-rcv;
#X obj 318 143 * 1;
#X obj 318 188 / 1;
#X msg 215 153 tempo \$1;
#X msg 215 107 60000 \$1;
#X obj 215 129 /;
#X obj 136 249 s clock;
#X obj 226 217 r clock;
#X obj 226 282 change;
#X obj 226 239 unpack f f;
#X obj 226 261 i;
#X obj 226 327 f;
#X obj 226 348 t f b;
#X obj 226 370 del;
#X obj 226 414 s clockon-rcv;
#X msg 226 392 color 16 22 13;
#X obj 226 304 b;
#X obj 277 279 * 0.125;
#X msg 253 370 color 13 22 13;
#X obj -1 191 r SYNCHRO-clock;
#X floatatom 121 310 5 0 0 0 - - -, f 5;
#X obj 308 4 r SYNCHRO-bpm-snd;
#X connect 0 0 7 0;
#X connect 2 0 3 0;
#X connect 3 0 5 0;
#X connect 3 1 4 0;
#X connect 4 0 6 0;
#X connect 5 0 0 0;
#X connect 5 0 21 0;
#X connect 6 0 0 0;
#X connect 7 0 21 0;
#X connect 7 0 35 0;
#X connect 9 0 16 0;
#X connect 10 0 11 0;
#X connect 13 0 17 0;
#X connect 14 0 15 0;
#X connect 16 0 13 0;
#X connect 17 0 14 0;
#X connect 17 0 19 0;
#X connect 18 0 0 0;
#X connect 19 0 20 0;
#X connect 20 0 18 0;
#X connect 20 0 4 1;
#X connect 20 0 7 1;
#X connect 22 0 24 0;
#X connect 23 0 31 0;
#X connect 24 0 25 0;
#X connect 24 1 32 0;
#X connect 25 0 23 0;
#X connect 26 0 27 0;
#X connect 27 0 28 0;
#X connect 27 1 33 0;
#X connect 28 0 30 0;
#X connect 30 0 29 0;
#X connect 31 0 26 0;
#X connect 32 0 26 1;
#X connect 33 0 29 0;
#X connect 34 0 21 0;
#X connect 36 0 12 0;
#X coords 0 -1 1 1 180 50 1 100 5;
#X restore 882 99 pd clock;
#X obj 1021 342 out \$0-Main;
#X obj 860 421 out \$0-Main;
#X obj 862 344 player \$1-sample-1;
#X obj 1081 39 decoupeur_ctl \$1-config \$1-dctl \$1;
#X obj 664 261 *~ 0.2;
#X obj 664 284 out \$0-Main;
#X obj 664 154 sample \$1-sample-1 60;
#X obj 664 180 sample \$1-sample-2 60;
#X obj 664 206 sample \$1-sample-3 60;
#X obj 663 232 sample \$1-sample-4 60;
#X obj 938 156 decoupeur \$1-sample-1 \$1-dctl;
#X obj 939 207 decoupeur \$1-sample-3 \$1-dctl;
#X obj 939 232 decoupeur \$1-sample-4 \$1-dctl;
#X obj 938 181 decoupeur \$1-sample-2 \$1-dctl;
#X obj 287 450 out \$0-Main;
#X obj -129 -19 catch~ \$0-Main-out1;
#X obj -142 8 catch~ \$0-Main-out2;
#X obj 135 371 fragseq \$1-str \$1-sample \$1;
#X obj 561 429 ac;
#X connect 0 0 17 1;
#X connect 1 0 2 0;
#X connect 2 0 0 0;
#X connect 10 0 11 0;
#X connect 13 0 12 0;
#X connect 14 0 23 0;
#X connect 15 0 6 0;
#X connect 15 0 8 0;
#X connect 24 0 28 0;
#X connect 26 0 20 0;
#X connect 27 0 25 0;
#X connect 28 0 27 0;
#X connect 31 0 20 0;
#X connect 32 0 44 0;
#X connect 33 0 37 0;
#X connect 35 0 36 0;
#X connect 36 0 34 0;
#X connect 37 0 35 0;
#X connect 38 0 40 0;
#X connect 38 1 39 0;
#X connect 39 0 42 0;
#X connect 39 1 41 0;
#X connect 40 0 45 0;
#X connect 41 0 46 0;
#X connect 42 0 43 0;
#X connect 44 0 42 0;
#X connect 44 1 38 0;
#X connect 45 0 43 0;
#X connect 46 0 43 0;
#X connect 47 0 60 0;
#X connect 49 0 51 0;
#X connect 51 0 62 0;
#X connect 52 0 53 0;
#X connect 53 0 59 0;
#X connect 55 0 52 0;
#X connect 56 0 57 0;
#X connect 57 0 58 0;
#X connect 59 0 54 0;
#X connect 60 0 49 0;
#X connect 62 0 48 0;
#X connect 63 0 64 0;
#X connect 64 0 61 0;
#X connect 66 0 69 0;
#X connect 67 0 69 1;
#X connect 82 0 93 0;
#X connect 83 0 92 1;
#X connect 84 0 92 0;
#X connect 85 0 86 0;
#X connect 86 0 82 0;
#X connect 87 0 86 1;
#X connect 88 0 93 1;
#X connect 89 0 88 0;
#X connect 93 0 83 0;
#X connect 93 0 92 0;
#X connect 93 1 84 0;
#X connect 93 1 92 1;
#X connect 95 0 96 0;
#X connect 95 0 96 1;
#X connect 97 0 95 0;
#X connect 98 0 95 0;
#X connect 99 0 95 0;
#X connect 100 0 95 0;
#X connect 106 0 68 0;
#X connect 107 0 68 1;
#X connect 108 0 105 0;
#X connect 108 1 105 1;
#X connect 108 1 109 0;
#X coords 0 -1 1 1 42 656 2 0 0;
