#N canvas 800 79 800 821 10;
#X floatatom -64 84 5 0 0 0 - - -, f 5;
#X obj -60 33 bng 15 250 50 0 empty empty empty 17 7 0 10 -262144 -1
-1;
#X obj -65 52 init 2;
#X text -27 -26 KEPtype nomUnique;
#X obj 174 591 vsl 15 128 0 1 0 0 \$1-del1_time-snd \$1-del1_time-rcv
del1_time 0 -9 0 10 -262144 -1 -1 11302 1;
#X obj 57 17 KEPface \$1;
#X obj 47 473 MORPHgroup \$1 FX;
#X obj 172 545 param \$1 FX del1_time;
#X floatatom 47 432 5 0 0 0 - - -, f 5;
#N canvas 283 511 390 264 KEPboutons 0;
#X obj 174 137 KEPbus \$1 togl1 -togl1- tl1;
#X obj 7 160 KEPbus \$1 tog2 -tog2- t2;
#X obj 8 182 KEPbus \$1 tog3 -tog3- t3;
#X obj 9 203 KEPbus \$1 tog4 -tog4- t4;
#X obj 9 227 KEPbus \$1 togR -togR- tREC;
#X obj 172 158 KEPbus \$1 togl2 -togl2- tl2;
#X obj 174 179 KEPbus \$1 togl3 -togl3- tl3;
#X obj 172 200 KEPbus \$1 togl4 -togl4- tl4;
#X obj 174 226 KEPbus \$1 toglR -toglR- tlREC;
#X obj 9 139 KEPbus \$1 on -tog1- t1;
#X obj 8 97 KEPbus \$1 Volume Volume b5;
#X obj 8 30 KEPbus \$1 Constance -mode- b2;
#X obj 8 52 KEPbus \$1 Mode -const- b3;
#X obj 8 75 KEPbus \$1 Pitch Mou b4;
#X obj 8 8 KEPbus \$1 Mesure -pitch- b1;
#X restore 55 128 pd KEPboutons;
#X obj 83 386 tgl 15 1 empty empty empty 17 7 0 10 -262144 -1 -1 1
1;
#X obj 82 404 switch~;
#X obj 378 72 t b;
#X obj 378 52 r SYNCHRO-clock;
#X obj 402 165 r \$1-Volume;
#X obj 47 448 r \$1-Effet1;
#X obj 57 -5 l MASTERtypeIN \$1 2 \$0;
#X obj -76 115 Vmull~ 0 10;
#X obj 349 598 l orfilter \$1 FX orfilter1;
#X obj 349 618 orfilter \$1 FX orfilter1;
#X obj 283 158 s \$1-tl1;
#X obj 389 94 s \$1-lrouge;
#N canvas 1 102 451 463 sample 0;
#X obj 219 68 r \$1-sample;
#X obj 219 93 t b f;
#X msg 219 117 1 \, 2 \, 3 \, 4;
#X obj 219 143 t f f;
#X obj 219 186 pack f f;
#X obj 246 166 ==;
#X obj 219 212 list prepend \$1;
#X msg 219 235 \; \$1--togl\$2- \$3;
#X obj 309 63 hradio 15 1 0 8 empty empty empty 0 -8 0 10 -262144 -1
-1 0;
#X obj 70 21 r \$1--tog1-;
#X msg 70 63 1;
#X obj 70 84 s \$1-sample;
#X obj 161 32 loadbang;
#X floatatom 294 111 5 0 0 0 - - -, f 5;
#X obj 70 41 sel 1;
#X obj 70 167 s \$1-sample;
#X obj 70 125 sel 1;
#X obj 71 252 s \$1-sample;
#X obj 71 209 sel 1;
#X obj 71 335 s \$1-sample;
#X obj 71 293 sel 1;
#X obj 70 105 r \$1--tog2-;
#X msg 70 147 2;
#X obj 71 189 r \$1--tog3-;
#X msg 71 231 3;
#X obj 71 273 r \$1--tog4-;
#X msg 71 315 4;
#X obj 216 290 r \$1-sample;
#X obj 218 363 s \$1-str-sample;
#X msg 218 341 symbol sample\$1;
#X obj 306 80 s \$1-sample;
#X floatatom 324 311 5 0 0 0 - - -, f 5;
#X obj 217 319 + 0;
#X obj 350 370 bng 15 250 50 0 empty empty empty 17 7 0 10 -262144
-1 -1;
#X connect 0 0 1 0;
#X connect 0 0 13 0;
#X connect 1 0 2 0;
#X connect 1 1 5 1;
#X connect 2 0 3 0;
#X connect 3 0 4 0;
#X connect 3 1 5 0;
#X connect 4 0 6 0;
#X connect 5 0 4 1;
#X connect 6 0 7 0;
#X connect 8 0 30 0;
#X connect 9 0 14 0;
#X connect 10 0 11 0;
#X connect 12 0 10 0;
#X connect 14 0 10 0;
#X connect 16 0 22 0;
#X connect 18 0 24 0;
#X connect 20 0 26 0;
#X connect 21 0 16 0;
#X connect 22 0 15 0;
#X connect 23 0 18 0;
#X connect 24 0 17 0;
#X connect 25 0 20 0;
#X connect 26 0 19 0;
#X connect 27 0 32 0;
#X connect 29 0 28 0;
#X connect 31 0 33 0;
#X connect 32 0 29 0;
#X connect 32 0 31 0;
#X restore 150 126 pd sample;
#X obj 402 190 s \$1-str-vol-rcv;
#X obj 215 123 r \$1-on;
#X obj 215 190 s \$1-str-on-rcv;
#X obj 260 165 tgl 15 0 empty empty empty 17 7 0 10 -262144 -1 -1 0
1;
#X obj 215 167 sel 1;
#X obj 215 143 change;
#X obj 204 -7 l MASTERtypeOUT \$1 1;
#X obj 135 371 fragseq \$1-str sample1;
#N canvas 1 107 451 463 denum 0;
#X obj 125 221 * 2;
#X obj 63 282 +;
#X obj 125 244 t b f;
#X obj 188 145 * 2;
#X obj 125 197 +;
#X obj 188 168 t b f;
#X floatatom 93 325 5 0 0 0 - - -, f 5;
#X obj 63 122 tgl 15 0 empty empty empty 17 7 0 10 -262144 -1 -1 0
1;
#X obj 63 84 sel 1;
#X obj 63 60 change;
#X obj 125 123 tgl 15 0 empty empty empty 17 7 0 10 -262144 -1 -1 0
1;
#X obj 125 85 sel 1;
#X obj 125 61 change;
#X obj 188 124 tgl 15 0 empty empty empty 17 7 0 10 -262144 -1 -1 0
1;
#X obj 188 86 sel 1;
#X obj 188 62 change;
#X obj 63 38 r \$1-tog2;
#X obj 125 37 r \$1-tog3;
#X obj 188 36 r \$1-tog4;
#X obj 70 147 s \$1-tl2;
#X obj 132 148 s \$1-tl3;
#X msg 216 117 set \$1;
#X msg 144 116 set \$1;
#X msg 82 116 set \$1;
#X obj 343 146 s \$1-tl4;
#X obj 153 324 + 1;
#X obj 153 346 s \$1-str-denum-rcv;
#X obj 282 34 r \$1-str-denum-snd;
#X obj 282 56 - 1;
#X obj 282 78 t f f f;
#X obj 343 101 & 4;
#X obj 343 123 != 0;
#X obj 301 143 != 0;
#X obj 301 166 s \$1-tl3;
#X obj 301 121 & 2;
#X obj 274 181 != 0;
#X obj 274 159 & 1;
#X obj 274 204 s \$1-tl2;
#X connect 0 0 2 0;
#X connect 1 0 6 0;
#X connect 1 0 25 0;
#X connect 2 0 1 0;
#X connect 2 1 1 1;
#X connect 3 0 5 0;
#X connect 4 0 0 0;
#X connect 5 0 4 0;
#X connect 5 1 4 1;
#X connect 7 0 1 0;
#X connect 7 0 19 0;
#X connect 8 0 7 0;
#X connect 9 0 8 0;
#X connect 10 0 4 0;
#X connect 10 0 20 0;
#X connect 11 0 10 0;
#X connect 12 0 11 0;
#X connect 13 0 3 0;
#X connect 14 0 13 0;
#X connect 15 0 14 0;
#X connect 16 0 9 0;
#X connect 17 0 12 0;
#X connect 18 0 15 0;
#X connect 21 0 13 0;
#X connect 22 0 10 0;
#X connect 23 0 7 0;
#X connect 25 0 26 0;
#X connect 27 0 28 0;
#X connect 28 0 29 0;
#X connect 29 0 36 0;
#X connect 29 1 34 0;
#X connect 29 2 30 0;
#X connect 30 0 31 0;
#X connect 31 0 24 0;
#X connect 31 0 21 0;
#X connect 32 0 33 0;
#X connect 32 0 22 0;
#X connect 34 0 32 0;
#X connect 35 0 37 0;
#X connect 35 0 23 0;
#X connect 36 0 35 0;
#X restore 149 147 pd denum;
#X obj 282 133 r \$1-str-on-snd;
#X obj 329 216 r \$1-Pitch;
#X obj 501 224 r \$1-Mou;
#X obj 501 316 s \$1-str-smooth-rcv;
#X obj 501 272 * 150;
#X obj 501 294 + 2;
#X obj 501 246 pow 2;
#X obj 329 272 moses 0.45;
#X obj 398 272 moses 0.55;
#X obj 329 292 - 0.45;
#X obj 423 293 - 0.55;
#X msg 383 311 0;
#X obj 329 338 s \$1-str-pitch-rcv;
#X obj 329 238 sel 0;
#X obj 329 314 * 48;
#X obj 423 316 * 48;
#X obj 496 15 r \$1-Constance;
#X obj 497 126 s \$1-str-constance-rcv;
#X obj 496 60 * 50;
#N canvas 137 365 609 341 Mode 0;
#X obj 131 87 i;
#X obj 131 109 change;
#X obj 131 131 t f f f;
#X obj 131 275 min 3;
#X obj 131 297 s \$1-str-mode-rcv;
#X floatatom 73 159 5 0 0 0 - - -, f 5;
#X obj 131 65 * 7.9;
#X obj 131 45 r \$1-Mode;
#X obj 314 37 r \$1-str-mode-rcv;
#X obj 314 59 route label;
#X symbolatom 356 235 15 0 0 0 - - -, f 15;
#X obj 314 81 symbol;
#X obj 150 174 > 3;
#X obj 150 196 change;
#X obj 150 218 + 1;
#X obj 150 240 s \$1-str-timemode-rcv;
#X obj 200 171 change;
#X obj 200 128 - 4;
#X obj 200 150 max 0;
#X obj 200 193 + 0;
#X obj 200 215 s \$1-str-fragdenum-rcv;
#X obj 397 100 r \$1-str-fragdenum;
#X floatatom 397 134 5 0 0 0 - - -, f 5;
#X obj 428 36 r \$1-str-timemode-snd;
#X obj 428 58 == 2;
#X obj 314 103 pack s f f;
#X obj 314 147 route 0 1;
#X msg 345 189 symbol \$1;
#X msg 413 188 symbol \$1/\$2;
#X msg 314 125 \$2 list \$1 \$3;
#X msg 358 266 label \$1;
#X obj 344 293 s \$1-b3-info;
#X connect 0 0 1 0;
#X connect 1 0 2 0;
#X connect 1 0 5 0;
#X connect 2 0 3 0;
#X connect 2 1 12 0;
#X connect 2 2 17 0;
#X connect 3 0 4 0;
#X connect 6 0 0 0;
#X connect 7 0 6 0;
#X connect 8 0 9 0;
#X connect 9 0 11 0;
#X connect 10 0 30 0;
#X connect 11 0 25 0;
#X connect 12 0 13 0;
#X connect 13 0 14 0;
#X connect 14 0 15 0;
#X connect 16 0 19 0;
#X connect 17 0 18 0;
#X connect 18 0 16 0;
#X connect 19 0 20 0;
#X connect 21 0 22 0;
#X connect 21 0 25 2;
#X connect 23 0 24 0;
#X connect 24 0 25 1;
#X connect 25 0 29 0;
#X connect 26 0 27 0;
#X connect 26 1 28 0;
#X connect 27 0 10 0;
#X connect 28 0 10 0;
#X connect 29 0 26 0;
#X connect 30 0 31 0;
#X restore 193 252 pd Mode;
#X obj 496 82 i;
#X obj 54 206 * 4.9;
#X obj 54 227 i;
#X obj 54 268 s \$1-str-palinmesure-rcv;
#X obj 54 183 r \$1-Mesure;
#X obj 54 291 r \$1-str-palinmesure;
#X msg 55 313 label Mesure:\$1;
#X obj 55 338 s \$1-b1-info;
#X obj 54 249 change;
#X obj 496 37 pow 2;
#X obj 512 194 s \$1-b2-info;
#X obj 496 104 change;
#X obj 496 146 r \$1-str-constance-snd;
#X msg 513 168 label Const:\$1;
#X obj 1 1 cnv 15 40 654 empty empty \$1 1 5 1 8 -257985 -1 0;
#X obj 7 643 bng 10 250 50 0 empty empty empty 17 7 0 10 -4034 -1 -1
;
#X obj 24 643 bng 10 250 50 0 empty empty empty 17 7 0 10 -258113 -1
-1;
#X obj 4 100 MASTERtypeOUTstereo \$1 1;
#X obj 7 669 KEPCommon \$1 \$0;
#X obj 4 12 MASTERtypeIN \$1 1 \$0;
#N canvas 0 106 342 172 Out~ 0;
#X obj 25 40 inlet~;
#X obj 164 42 inlet~;
#X obj 25 63 s~ \$0-left;
#X obj 163 65 s~ \$0-right;
#X connect 0 0 2 0;
#X connect 1 0 3 0;
#X restore 327 454 pd Out~;
#N canvas 0 132 305 150 In~ 0;
#X obj 25 86 outlet~;
#X obj 164 87 outlet~;
#X obj 163 65 r~ \$0-right;
#X obj 25 63 r~ \$0-left;
#X connect 2 0 1 0;
#X connect 3 0 0 0;
#X restore -55 0 pd In~;
#X connect 0 0 17 1;
#X connect 1 0 2 0;
#X connect 2 0 0 0;
#X connect 10 0 11 0;
#X connect 13 0 12 0;
#X connect 14 0 23 0;
#X connect 15 0 6 0;
#X connect 15 0 8 0;
#X connect 24 0 28 0;
#X connect 26 0 20 0;
#X connect 27 0 25 0;
#X connect 28 0 27 0;
#X connect 30 0 72 0;
#X connect 30 1 72 1;
#X connect 32 0 20 0;
#X connect 33 0 45 0;
#X connect 34 0 38 0;
#X connect 36 0 37 0;
#X connect 37 0 35 0;
#X connect 38 0 36 0;
#X connect 39 0 41 0;
#X connect 39 1 40 0;
#X connect 40 0 43 0;
#X connect 40 1 42 0;
#X connect 41 0 46 0;
#X connect 42 0 47 0;
#X connect 43 0 44 0;
#X connect 45 0 43 0;
#X connect 45 1 39 0;
#X connect 46 0 44 0;
#X connect 47 0 44 0;
#X connect 48 0 61 0;
#X connect 50 0 52 0;
#X connect 52 0 63 0;
#X connect 53 0 54 0;
#X connect 54 0 60 0;
#X connect 56 0 53 0;
#X connect 57 0 58 0;
#X connect 58 0 59 0;
#X connect 60 0 55 0;
#X connect 61 0 50 0;
#X connect 63 0 49 0;
#X connect 64 0 65 0;
#X connect 65 0 62 0;
#X connect 67 0 70 0;
#X connect 68 0 70 1;
#X connect 73 0 69 0;
#X connect 73 1 69 1;
#X coords 0 -1 1 1 42 656 2 0 0;
