#N canvas 0 22 333 234 10;
#X obj 220 99 s asked-\$1;
#X obj 20 31 inlet;
#X obj 54 31 inlet;
#X obj 88 31 inlet;
#X obj 122 31 inlet;
#X obj 156 31 inlet;
#X obj 220 31 inlet;
#X obj 20 48 t b a;
#X obj 54 48 t b a;
#X obj 88 48 t b a;
#X obj 122 48 t b a;
#X obj 156 48 t b a;
#X obj 108 65 unpack f f;
#X obj 96 82 pack f f f;
#X obj 23 176 outlet;
#X obj 63 176 outlet;
#X obj 103 176 outlet;
#X obj 23 159 route 1 2 3 4 5;
#X obj 143 176 outlet;
#X obj 183 176 outlet;
#X obj 223 176 outlet;
#X obj 23 142 r asked-\$1;
#X msg 20 65 1, f 1;
#X msg 34 65 2, f 1;
#X msg 48 65 3, f 1;
#X msg 62 65 4, f 1;
#X msg 76 65 5, f 1;
#X connect 1 0 7 0;
#X connect 2 0 8 0;
#X connect 3 0 9 0;
#X connect 4 0 10 0;
#X connect 5 0 11 0;
#X connect 6 0 0 0;
#X connect 7 0 22 0;
#X connect 7 1 12 0;
#X connect 8 0 23 0;
#X connect 8 1 12 0;
#X connect 9 0 24 0;
#X connect 9 1 12 0;
#X connect 10 0 25 0;
#X connect 10 1 12 0;
#X connect 11 0 26 0;
#X connect 11 1 12 0;
#X connect 12 0 13 1;
#X connect 12 1 13 2;
#X connect 13 0 0 0;
#X connect 17 0 14 0;
#X connect 17 1 15 0;
#X connect 17 2 16 0;
#X connect 17 3 18 0;
#X connect 17 4 19 0;
#X connect 17 5 20 0;
#X connect 21 0 17 0;
#X connect 22 0 13 0;
#X connect 23 0 13 0;
#X connect 24 0 13 0;
#X connect 25 0 13 0;
#X connect 26 0 13 0;
