#N canvas 214 304 743 733 10;
#X declare -path ..;
#X declare -stdpath mrpeach;
#X declare -stdpath mrpeach/net;
#X declare -stdpath osc;
#X declare -stdpath cxc;
#X declare -stdpath mapping;
#X declare -stdpath bf-pd;
#X obj 348 107 r fromBoeuf;
#X msg 78 30 clear;
#X obj 276 17 loadbang;
#N canvas 535 779 1248 283 \$1-others 1;
#X obj 10 0 bf-util/bf-others-instrument moninstru;
#X obj 20 90 bf-util/bf-others-output test moninstru out1 moninstru/outputs/out1
soninstru 6 bang;
#X obj 190 90 bf-util/bf-others-parameter test moninstru param3 moninstru/parameters/param3
soninstru 8 bool;
#X obj 190 170 bf-util/bf-others-parameter test moninstru param2 moninstru/parameters/param2
soninstru 4 cont;
#X obj 190 250 bf-util/bf-others-parameter test moninstru param1 moninstru/parameters/param1
soninstru 1 cont;
#X obj 100 5 bf-util/bf-others-meter test moninstru activity moninstru/meters/activity
soninstru 12 cont;
#X restore 78 66 pd \$1-others;
#X obj 78 47 s pd-\$1-others;
#X obj 353 456 pack f s;
#X obj 212 320 unpack s s s, f 13;
#X obj 212 422 value \$1-curOtherPos;
#X obj 323 74 s clear-\$1-others;
#X obj 78 13 r clear-\$1-others;
#X obj 329 371 r clear-\$1-others;
#X obj 336 19 bng 15 250 50 0 empty empty empty 17 7 0 10 -262144 -1
-1;
#X obj 300 354 s \$1-curOtherFullName;
#X msg 455 68 \; pd-\$1-others vis 1;
#X obj 455 51 symbol \$1;
#X msg 300 320 \$1/\$2/\$3;
#X obj 300 337 symbol;
#X obj 348 124 routeOSC /\$1;
#X obj 25 66 inlet~;
#X obj 353 422 * 400;
#X obj 401 507 s pd-\$1-others;
#X obj 353 439 + 10;
#X obj 222 701 s pd-\$1-others;
#X obj 340 405 t f f;
#X obj 353 473 t b a;
#X obj 256 490 s refreshOthersNames;
#X obj 78 701 s refreshOthersNames;
#X obj 175 684 t b a;
#X obj 229 17 t b;
#X obj 256 74 s toBoeuf;
#X msg 256 57 sendtyped /boeuf/request N;
#X obj 348 243 spigot;
#X obj 371 158 cxc_split /;
#X obj 371 175 unpack s s s s;
#X obj 452 192 select declare;
#X obj 487 209 t b;
#X msg 512 209 1;
#X msg 452 209 0;
#X obj 452 226 t f f;
#X obj 479 243 expr 1-$f1;
#X obj 348 141 t a a a;
#X obj 207 277 spigot;
#X obj 41 453 unpack s f s;
#X obj 371 192 pack s s s;
#X obj 479 260 t f f;
#X obj 261 277 spigot;
#X obj 276 34 t b b b;
#X obj 373 633 r bf-session-name;
#X obj 41 504 select parameters meters outputs;
#X obj 41 487 symbol;
#X obj 41 470 t b;
#X obj 41 521 t b b;
#X obj 104 557 t b b;
#X obj 167 592 t b b;
#X obj 496 633 r \$1-curOtherFullName;
#X obj 647 616 loadbang;
#X obj 647 633 symbol \$1;
#X obj 212 371 t a a a;
#X obj 261 303 t a a;
#X text 327 699 x y obj session otherInstru compoName fullCompoName
instru valuesNb valuesType;
#X msg 77 667 obj \$1 \$2 \$3 \$4 \$5 \$6 \$7 \$8 \$9 \$10;
#X obj 258 650 pack f f s s s s s s f s;
#X obj 707 618 bng 15 250 50 0 empty empty empty 17 7 0 10 -262144
-1 -1;
#X obj 212 388 bf-util/bf-util-symbolmap \$1-instrus;
#X obj 16 574 bf-util/bf-others-parser \$1 meter 100 5 400 30;
#X msg 401 490 obj \$1 0 bf-util/bf-others-instrument \$2;
#X obj 374 538 symbol bf-util/bf-others-parameter;
#X obj 342 574 symbol bf-util/bf-others-meter;
#X obj 353 609 symbol bf-util/bf-others-output;
#X obj 13 538 bf-util/bf-others-parser \$1 parameter 190 90 400 80
;
#X obj 348 260 s to-\$1-others;
#X obj 13 609 bf-util/bf-others-parser \$1 output 20 90 400 105;
#X obj 101 121 cnv 15 170 28 empty empty empty 20 12 0 14 -262144 -66577
0;
#X obj 104 127 bng 15 250 50 0 empty empty empty 17 7 0 10 -262144
-1 -1;
#X text 123 125 < refresh others;
#X obj 51 227 bf-util/bf-barkbands;
#X obj 482 461 s pd-\$1-others;
#X obj 482 410 r refreshOthersNames;
#X obj 482 427 t b;
#X msg 482 444 dirty 0;
#X obj 26 258 bf-util/bf-activityscope;
#N canvas 3 68 450 300 declares 0;
#X obj 29 21 declare -path ..;
#X obj 29 51 declare -stdpath mrpeach;
#X obj 28 77 declare -stdpath mrpeach/net;
#X obj 28 107 declare -stdpath osc;
#X obj 28 137 declare -stdpath cxc;
#X obj 30 166 declare -stdpath mapping;
#X obj 30 196 declare -stdpath bf-pd;
#X restore 374 18 pd declares;
#X obj 100 120 bf-meter \$1 activity 12 cont;
#X connect 0 0 17 0;
#X connect 1 0 4 0;
#X connect 2 0 46 0;
#X connect 5 0 24 0;
#X connect 6 0 57 0;
#X connect 6 1 49 1;
#X connect 6 2 61 5;
#X connect 9 0 1 0;
#X connect 10 0 63 1;
#X connect 11 0 46 0;
#X connect 14 0 13 0;
#X connect 15 0 16 0;
#X connect 16 0 12 0;
#X connect 17 1 40 0;
#X connect 18 0 75 0;
#X connect 18 0 80 0;
#X connect 19 0 21 0;
#X connect 21 0 5 0;
#X connect 23 0 7 0;
#X connect 23 1 19 0;
#X connect 24 0 25 0;
#X connect 24 1 65 0;
#X connect 27 0 26 0;
#X connect 27 1 22 0;
#X connect 28 0 46 0;
#X connect 30 0 29 0;
#X connect 31 0 70 0;
#X connect 32 0 33 0;
#X connect 33 0 43 0;
#X connect 33 1 43 1;
#X connect 33 2 43 2;
#X connect 33 3 34 0;
#X connect 34 0 37 0;
#X connect 34 1 35 0;
#X connect 35 0 36 0;
#X connect 36 0 38 0;
#X connect 37 0 38 0;
#X connect 38 0 31 1;
#X connect 38 1 39 0;
#X connect 39 0 44 0;
#X connect 40 0 31 0;
#X connect 40 1 41 0;
#X connect 40 2 32 0;
#X connect 41 0 42 0;
#X connect 42 0 50 0;
#X connect 42 1 61 8;
#X connect 42 2 61 9;
#X connect 43 0 45 0;
#X connect 44 0 41 1;
#X connect 44 1 45 1;
#X connect 45 0 58 0;
#X connect 46 0 30 0;
#X connect 46 1 8 0;
#X connect 46 2 14 0;
#X connect 47 0 61 3;
#X connect 48 0 51 0;
#X connect 48 1 52 0;
#X connect 48 2 53 0;
#X connect 49 0 48 0;
#X connect 50 0 49 0;
#X connect 51 0 69 0;
#X connect 51 1 66 0;
#X connect 52 0 64 0;
#X connect 52 1 67 0;
#X connect 53 0 71 0;
#X connect 53 1 68 0;
#X connect 54 0 61 6;
#X connect 55 0 56 0;
#X connect 56 0 61 7;
#X connect 57 0 63 0;
#X connect 57 1 5 1;
#X connect 57 2 61 4;
#X connect 58 0 6 0;
#X connect 58 1 15 0;
#X connect 60 0 27 0;
#X connect 61 0 60 0;
#X connect 62 0 56 0;
#X connect 63 0 7 0;
#X connect 63 1 23 0;
#X connect 64 0 61 0;
#X connect 64 1 61 1;
#X connect 65 0 20 0;
#X connect 66 0 61 2;
#X connect 67 0 61 2;
#X connect 68 0 61 2;
#X connect 69 0 61 0;
#X connect 69 1 61 1;
#X connect 71 0 61 0;
#X connect 71 1 61 1;
#X connect 73 0 28 0;
#X connect 75 0 82 0;
#X connect 77 0 78 0;
#X connect 78 0 79 0;
#X connect 79 0 76 0;
#X coords 0 -1 1 1 180 80 1 100 100;
