#N canvas 3 444 946 633 10;
#X obj 384 286 inlet;
#X obj 35 441 r bf-session-name;
#X obj -4 526 s toBoeuf;
#X obj 42 475 symbol \$1;
#X obj 109 475 symbol \$2;
#X obj -4 475 symbol;
#X obj 35 458 t a b b b;
#X obj -4 458 t b a;
#X obj 176 475 unpack f f;
#X obj -4 492 pack s s s f f;
#X msg -4 509 sendtyped /boeuf/\$1/\$2/meters/\$3/set ffs \$4 \$5 \$2
;
#X obj 299 60 loadbang;
#X obj 299 94 r bf-session-name;
#X obj 299 77 s bf-ask-session-name;
#X obj 299 111 t a b b b b;
#X obj 299 179 s toBoeuf;
#X obj 299 128 symbol \$1;
#X obj 366 128 symbol \$2;
#X obj 433 128 float \$3;
#X obj 493 128 symbol \$4;
#X obj 299 145 pack s s s f s;
#X obj 359 62 bng 15 250 50 0 empty empty empty 17 7 0 10 -262144 -1
-1;
#X msg 299 162 sendtyped /boeuf/\$1/\$2/meters/\$3/declare fs \$4 \$5
;
#X obj 362 204 loadbang;
#X obj 414 206 bng 15 250 50 0 empty empty empty 17 7 0 10 -262144
-1 -1;
#X obj 440 255 s pd-\$1-\$2-gui;
#X text 394 189 make gui;
#N canvas 3 58 450 300 \$1-\$2-gui 0;
#X obj 100 115 bf-util/bf-util-array instru1-activity-ask 0 12 45 10
;
#X coords 0 -1 1 1 100 45 2 100 100;
#X restore 100 115 pd \$1-\$2-gui;
#X obj -4 407 t a a;
#X obj 35 424 s to-\$1-\$2-ask-gui;
#X obj 413 221 t b b;
#X obj 310 255 s to-\$1-\$2-ask-gui;
#X text 297 38 declare meter when receives session name;
#X msg 310 238 init 0;
#X obj 440 238 bf-util/bf-util-makeinstrucompoout \$1 \$2 \$3 \$4;
#X obj 412 525 pack s s s f f f f f f f f f f f f f f f f f f f f f
f f f;
#X obj 458 320 route 0 1 2 3 4 5 6 7 8 9 10 11 12 13 14 15 16 17 18
19 20 21 22 23;
#X obj 427 491 r bf-session-name;
#X obj 384 508 symbol;
#X obj 384 473 t b b b;
#X obj 630 508 symbol \$1;
#X obj 384 303 t a a a;
#X obj 437 303 s to-\$1-\$2-ask-gui;
#X obj 412 585 s toBoeuf;
#X obj 430 508 symbol \$1/meters/\$2/multiset;
#X msg 412 542 sendtyped /boeuf/\$1/\$2 ffffffffffffffffffffffffs \$4
\$5 \$6 \$7 \$8 \$9 \$10 \$11 \$12 \$13 \$14 \$15 \$16 \$17 \$18 \$19
\$20 \$21 \$22 \$23 \$24 \$25 \$26 \$27 \$3;
#X obj 351 388 + 0;
#X obj 284 320 unpack f f;
#X msg 292 371 0;
#X obj 284 337 select \$3;
#X obj 359 320 expr \$3-1;
#X obj 189 303 loadbang;
#X obj 351 405 t f f;
#X obj 283 422 float 0;
#X obj 283 354 t b b;
#X obj 249 286 r bf-session-name;
#X obj 249 303 t b;
#X obj 283 456 select 1;
#X obj 274 305 bng 15 250 50 0 empty empty empty 17 7 0 10 -262144
-1 -1;
#X obj 283 439 > 0.0001;
#X connect 0 0 41 0;
#X connect 1 0 6 0;
#X connect 3 0 9 1;
#X connect 4 0 9 2;
#X connect 5 0 9 0;
#X connect 6 0 5 1;
#X connect 6 1 3 0;
#X connect 6 2 4 0;
#X connect 7 0 5 0;
#X connect 7 1 8 0;
#X connect 8 0 9 3;
#X connect 8 1 9 4;
#X connect 9 0 10 0;
#X connect 10 0 2 0;
#X connect 11 0 13 0;
#X connect 12 0 14 0;
#X connect 14 0 20 0;
#X connect 14 1 16 0;
#X connect 14 2 17 0;
#X connect 14 3 18 0;
#X connect 14 4 19 0;
#X connect 16 0 20 1;
#X connect 17 0 20 2;
#X connect 18 0 20 3;
#X connect 19 0 20 4;
#X connect 20 0 22 0;
#X connect 21 0 13 0;
#X connect 22 0 15 0;
#X connect 23 0 30 0;
#X connect 24 0 30 0;
#X connect 28 0 7 0;
#X connect 28 1 29 0;
#X connect 30 0 33 0;
#X connect 30 1 34 0;
#X connect 33 0 31 0;
#X connect 34 0 25 0;
#X connect 35 0 45 0;
#X connect 36 0 35 3;
#X connect 36 1 35 4;
#X connect 36 2 35 5;
#X connect 36 3 35 6;
#X connect 36 4 35 7;
#X connect 36 5 35 8;
#X connect 36 6 35 9;
#X connect 36 7 35 10;
#X connect 36 8 35 11;
#X connect 36 9 35 12;
#X connect 36 10 35 13;
#X connect 36 11 35 14;
#X connect 36 12 35 15;
#X connect 36 13 35 16;
#X connect 36 14 35 17;
#X connect 36 15 35 18;
#X connect 36 16 35 19;
#X connect 36 17 35 20;
#X connect 36 18 35 21;
#X connect 36 19 35 22;
#X connect 36 20 35 23;
#X connect 36 21 35 24;
#X connect 36 22 35 25;
#X connect 36 23 35 26;
#X connect 37 0 38 1;
#X connect 38 0 35 0;
#X connect 39 0 38 0;
#X connect 39 1 44 0;
#X connect 39 2 40 0;
#X connect 40 0 35 2;
#X connect 41 0 47 0;
#X connect 41 1 36 0;
#X connect 41 2 42 0;
#X connect 44 0 35 1;
#X connect 45 0 43 0;
#X connect 46 0 52 0;
#X connect 47 0 49 0;
#X connect 47 1 46 0;
#X connect 48 0 46 1;
#X connect 49 0 54 0;
#X connect 50 0 49 1;
#X connect 51 0 50 0;
#X connect 52 0 53 1;
#X connect 52 1 46 1;
#X connect 53 0 59 0;
#X connect 54 0 53 0;
#X connect 54 1 48 0;
#X connect 55 0 56 0;
#X connect 56 0 50 0;
#X connect 57 0 39 0;
#X connect 58 0 50 0;
#X connect 59 0 57 0;
#X coords 0 -1 1 1 100 60 1 100 100;
