#N canvas 614 205 670 376 10;
#X obj 30 195 inlet;
#X obj 67 254 r bf-session-name;
#X obj 30 339 s toBoeuf;
#X obj 70 288 symbol \$1;
#X obj 128 288 symbol \$2;
#X obj 30 288 symbol;
#X obj 67 271 t a b b b;
#X obj 30 271 t b a;
#X obj 186 288 unpack f f;
#X obj 30 305 pack s s s f f;
#X msg 30 322 sendtyped /boeuf/\$1/\$2/meters/\$3/set ffs \$4 \$5 \$2
;
#X obj 299 60 loadbang;
#X obj 299 94 r bf-session-name;
#X obj 299 77 s bf-ask-session-name;
#X obj 299 111 t a b b b b;
#X obj 299 179 s toBoeuf;
#X obj 299 128 symbol \$1;
#X obj 357 128 symbol \$2;
#X obj 415 128 float \$3;
#X obj 467 128 symbol \$4;
#X obj 299 145 pack s s s f s;
#X obj 351 62 bng 15 250 50 0 empty empty empty 17 7 0 10 -262144 -1
-1;
#X msg 299 162 sendtyped /boeuf/\$1/\$2/meters/\$3/declare fs \$4 \$5
;
#X obj 312 246 loadbang;
#X obj 364 248 bng 15 250 50 0 empty empty empty 17 7 0 10 -262144
-1 -1;
#X obj 373 297 s pd-\$1-\$2-gui;
#X text 344 231 make gui;
#N canvas 581 112 450 300 \$1-\$2-gui 0;
#X obj 100 115 bf-util/bf-util-array test-blup-ask 0 24;
#X coords 0 -1 1 1 100 45 2 100 100;
#X restore 100 115 pd \$1-\$2-gui;
#X obj 30 220 t a a;
#X obj 67 237 s to-\$1-\$2-ask-gui;
#X obj 363 263 t b b;
#X obj 261 297 s to-\$1-\$2-ask-gui;
#X text 297 38 declare meter when receives session name;
#X msg 261 280 init 0;
#X obj 372 280 bf-util/bf-util-makeinstrucompoout \$1 \$2 \$3 \$4;
#X connect 0 0 28 0;
#X connect 1 0 6 0;
#X connect 3 0 9 1;
#X connect 4 0 9 2;
#X connect 5 0 9 0;
#X connect 6 0 5 1;
#X connect 6 1 3 0;
#X connect 6 2 4 0;
#X connect 7 0 5 0;
#X connect 7 1 8 0;
#X connect 8 0 9 3;
#X connect 8 1 9 4;
#X connect 9 0 10 0;
#X connect 10 0 2 0;
#X connect 11 0 13 0;
#X connect 12 0 14 0;
#X connect 14 0 20 0;
#X connect 14 1 16 0;
#X connect 14 2 17 0;
#X connect 14 3 18 0;
#X connect 14 4 19 0;
#X connect 16 0 20 1;
#X connect 17 0 20 2;
#X connect 18 0 20 3;
#X connect 19 0 20 4;
#X connect 20 0 22 0;
#X connect 21 0 13 0;
#X connect 22 0 15 0;
#X connect 23 0 30 0;
#X connect 24 0 30 0;
#X connect 28 0 7 0;
#X connect 28 1 29 0;
#X connect 30 0 33 0;
#X connect 30 1 34 0;
#X connect 33 0 31 0;
#X connect 34 0 25 0;
#X coords 0 -1 1 1 100 60 1 100 100;
