#N canvas 13 23 659 334 10;
#X obj 310 209 loadbang;
#X obj 362 211 bng 15 250 50 0 empty empty empty 17 7 0 10 -262144
-1 -1;
#X obj 371 260 s pd-\$1-\$2-gui;
#X text 317 194 make gui;
#X obj 361 226 t b b;
#X obj 259 260 s to-\$1-\$2-ask-gui;
#X obj 303 25 loadbang;
#X obj 303 59 r bf-session-name;
#X obj 303 42 s bf-ask-session-name;
#X obj 303 76 t a b b b b;
#X obj 303 144 s toBoeuf;
#X obj 303 93 symbol \$1;
#X obj 361 93 symbol \$2;
#X obj 419 93 float \$3;
#X obj 471 93 symbol \$4;
#X obj 303 110 pack s s s f s;
#X obj 355 27 bng 15 250 50 0 empty empty empty 17 7 0 10 -262144 -1
-1;
#X text 301 3 declare meter when receives session name;
#X msg 259 243 init 0;
#X obj 22 157 inlet;
#X obj 59 216 r bf-session-name;
#X obj 22 301 s toBoeuf;
#X obj 62 250 symbol \$1;
#X obj 120 250 symbol \$2;
#X obj 22 250 symbol;
#X obj 59 233 t a b b b;
#X obj 22 233 t b a;
#X obj 178 250 unpack f f;
#X obj 22 267 pack s s s f f;
#X obj 22 182 t a a;
#X obj 59 199 s to-\$1-\$2-ask-gui;
#X msg 22 284 sendtyped /boeuf/\$1/\$2/outputs/\$3/set ffs \$4 \$5
\$2;
#X msg 303 127 sendtyped /boeuf/\$1/\$2/outputs/\$3/declare fs \$4
\$5;
#N canvas 84 396 450 300 \$1-\$2-gui 0;
#X obj 100 100 bf-util/bf-util-bang instru1-onsets-ask 0 45 45 10;
#X coords 0 -1 1 1 100 45 2 100 100;
#X restore 100 115 pd \$1-\$2-gui;
#X obj 371 243 bf-util/bf-util-makeinstrucompoout \$1 \$2 \$3 \$4;
#X connect 0 0 4 0;
#X connect 1 0 4 0;
#X connect 4 0 18 0;
#X connect 4 1 34 0;
#X connect 6 0 8 0;
#X connect 7 0 9 0;
#X connect 9 0 15 0;
#X connect 9 1 11 0;
#X connect 9 2 12 0;
#X connect 9 3 13 0;
#X connect 9 4 14 0;
#X connect 11 0 15 1;
#X connect 12 0 15 2;
#X connect 13 0 15 3;
#X connect 14 0 15 4;
#X connect 15 0 32 0;
#X connect 16 0 8 0;
#X connect 18 0 5 0;
#X connect 19 0 29 0;
#X connect 20 0 25 0;
#X connect 22 0 28 1;
#X connect 23 0 28 2;
#X connect 24 0 28 0;
#X connect 25 0 24 1;
#X connect 25 1 22 0;
#X connect 25 2 23 0;
#X connect 26 0 24 0;
#X connect 26 1 27 0;
#X connect 27 0 28 3;
#X connect 27 1 28 4;
#X connect 28 0 31 0;
#X connect 29 0 26 0;
#X connect 29 1 30 0;
#X connect 31 0 21 0;
#X connect 32 0 10 0;
#X connect 34 0 2 0;
#X coords 0 -1 1 1 100 60 1 100 100;
