#N canvas 0 93 889 485 10;
#X obj 9 25 inlet;
#X obj 9 444 outlet;
#X obj 339 15 r fromBoeuf;
#X obj 339 32 routeOSC /\$1;
#X obj 219 134 tgl 10 0 empty empty empty 17 7 0 10 -261234 -1 -1 0
1;
#X obj 426 177 spigot;
#X obj 339 49 routeOSC /parameters;
#X obj 339 66 routeOSC /\$2, f 14;
#X obj 339 83 routeOSC /ask, f 14;
#X obj 527 323 loadbang;
#X obj 166 22 inlet;
#X obj 406 363 outlet;
#X obj 585 325 bng 15 250 50 0 empty empty empty 17 7 0 10 -262144
-1 -1;
#X obj 166 39 pack f 0;
#X obj 9 49 t a a;
#X obj 470 56 loadbang;
#X obj 470 90 r bf-session-name;
#X obj 470 73 s bf-ask-session-name;
#X obj 470 107 t a b b b b;
#X obj 470 175 s toBoeuf;
#X obj 470 124 symbol \$1;
#X obj 528 124 symbol \$2;
#X obj 586 124 float \$3;
#X obj 638 124 symbol \$4;
#X obj 470 141 pack s s s f s;
#X obj 480 215 r bf-session-name;
#X obj 443 300 s toBoeuf;
#X obj 483 249 symbol \$1;
#X obj 541 249 symbol \$2;
#X obj 443 249 symbol;
#X obj 480 232 t a b b b;
#X obj 443 232 t b f;
#X obj 522 58 bng 15 250 50 0 empty empty empty 17 7 0 10 -262144 -1
-1;
#X msg 443 283 sendtyped /boeuf/\$1/\$2/parameters/\$3/grant f \$4
;
#X obj 443 266 pack s s s f;
#X msg 470 158 sendtyped /boeuf/\$1/\$2/parameters/\$3/declare fs \$4
\$5;
#X text 468 34 declare parameter when receives session name;
#X obj 98 364 r bf-session-name;
#X obj 61 449 s toBoeuf;
#X obj 101 398 symbol \$1;
#X obj 159 398 symbol \$2;
#X obj 61 398 symbol;
#X obj 98 381 t a b b b;
#X obj 61 381 t b a;
#X obj 9 364 t a a;
#X obj 217 398 unpack f f;
#X text 476 199 grant access;
#X obj 61 415 pack s s s f f;
#X msg 61 432 sendtyped /boeuf/\$1/\$2/parameters/\$3/set ffs \$4 \$5
\$2;
#X obj 36 73 s to-\$1-\$2-gui;
#X obj 9 340 r from-\$1-\$2-gui;
#X obj 686 374 s pd-\$1-\$2-gui;
#N canvas 11 26 450 300 \$1-\$2-gui 0;
#X obj 100 130 bf-util/bf-util-cont instru1-seq-ask 0 12.5 15 10;
#X obj 100 100 bf-util/bf-util-cont instru1-seq 0 12.5 30 0;
#X obj 112 130 bf-util/bf-util-cont instru1-seq-ask 1 12.5 15 10;
#X obj 112 100 bf-util/bf-util-cont instru1-seq 1 12.5 30 0;
#X obj 125 130 bf-util/bf-util-cont instru1-seq-ask 2 12.5 15 10;
#X obj 125 100 bf-util/bf-util-cont instru1-seq 2 12.5 30 0;
#X obj 137 130 bf-util/bf-util-cont instru1-seq-ask 3 12.5 15 10;
#X obj 137 100 bf-util/bf-util-cont instru1-seq 3 12.5 30 0;
#X obj 150 130 bf-util/bf-util-cont instru1-seq-ask 4 12.5 15 10;
#X obj 150 100 bf-util/bf-util-cont instru1-seq 4 12.5 30 0;
#X obj 162 130 bf-util/bf-util-cont instru1-seq-ask 5 12.5 15 10;
#X obj 162 100 bf-util/bf-util-cont instru1-seq 5 12.5 30 0;
#X obj 175 130 bf-util/bf-util-cont instru1-seq-ask 6 12.5 15 10;
#X obj 175 100 bf-util/bf-util-cont instru1-seq 6 12.5 30 0;
#X obj 187 130 bf-util/bf-util-cont instru1-seq-ask 7 12.5 15 10;
#X obj 187 100 bf-util/bf-util-cont instru1-seq 7 12.5 30 0;
#X coords 0 -1 1 1 100 45 2 100 100;
#X restore 102 114 pd \$1-\$2-gui;
#X text 204 116 < value;
#X text 204 145 < asked;
#X obj 166 56 s ask-\$1-\$2-gui;
#X obj 406 329 r asked-\$1-\$2-gui;
#X msg 54 23 0 0.5;
#X obj 339 108 t a a;
#X obj 339 125 s to-\$1-\$2-ask-gui;
#X obj 363 194 s to-\$1-\$2-gui;
#X obj 306 240 until 1;
#X obj 306 223 float \$3;
#X obj 306 308 s ask-\$1-\$2-ask-gui;
#X obj 296 177 r asked-\$1-\$2-ask-gui;
#X obj 306 291 pack f 0;
#X obj 306 257 float 0;
#X obj 306 274 t f f;
#X obj 352 257 + 1;
#X msg 363 222 0;
#X obj 406 346 unpack f f;
#X text 525 307 make gui;
#X obj 576 357 bf-util/bf-util-makeinstrucompo \$1 \$2 \$3 \$4;
#X msg 530 357 init 0;
#X obj 598 374 s to-\$1-\$2-gui;
#X obj 527 340 t b b b;
#X msg 486 357 init 0;
#X obj 486 374 s to-\$1-\$2-ask-gui;
#X obj 205 134 bng 10 250 50 0 empty empty empty 17 7 0 10 -262144
-1 -1;
#X obj 321 160 t f f;
#X text 234 130 < grant;
#X obj 306 206 t b b b;
#X obj 50 206 r bf-session-name;
#X obj 13 291 s toBoeuf;
#X obj 53 240 symbol \$1;
#X obj 111 240 symbol \$2;
#X obj 13 240 symbol;
#X obj 50 223 t a b b b;
#X obj 13 257 pack s s s f;
#X text 10 315 send set values;
#X text 46 190 import asked values;
#X obj 13 223 t b;
#X msg 13 274 sendtyped /boeuf/\$1/\$2/parameters/\$3/import f 1;
#X connect 0 0 14 0;
#X connect 2 0 3 0;
#X connect 3 0 6 0;
#X connect 4 0 79 0;
#X connect 5 0 60 0;
#X connect 6 0 7 0;
#X connect 7 0 8 0;
#X connect 8 0 58 0;
#X connect 9 0 75 0;
#X connect 10 0 13 0;
#X connect 12 0 75 0;
#X connect 13 0 55 0;
#X connect 14 1 49 0;
#X connect 15 0 17 0;
#X connect 16 0 18 0;
#X connect 18 0 24 0;
#X connect 18 1 20 0;
#X connect 18 2 21 0;
#X connect 18 3 22 0;
#X connect 18 4 23 0;
#X connect 20 0 24 1;
#X connect 21 0 24 2;
#X connect 22 0 24 3;
#X connect 23 0 24 4;
#X connect 24 0 35 0;
#X connect 25 0 30 0;
#X connect 27 0 34 1;
#X connect 28 0 34 2;
#X connect 29 0 34 0;
#X connect 30 0 29 1;
#X connect 30 1 27 0;
#X connect 30 2 28 0;
#X connect 31 0 29 0;
#X connect 31 1 34 3;
#X connect 32 0 17 0;
#X connect 33 0 26 0;
#X connect 34 0 33 0;
#X connect 35 0 19 0;
#X connect 37 0 42 0;
#X connect 39 0 47 1;
#X connect 40 0 47 2;
#X connect 41 0 47 0;
#X connect 42 0 41 1;
#X connect 42 1 39 0;
#X connect 42 2 40 0;
#X connect 43 0 41 0;
#X connect 43 1 45 0;
#X connect 44 0 1 0;
#X connect 44 1 43 0;
#X connect 45 0 47 3;
#X connect 45 1 47 4;
#X connect 47 0 48 0;
#X connect 48 0 38 0;
#X connect 50 0 44 0;
#X connect 56 0 70 0;
#X connect 57 0 14 0;
#X connect 58 0 5 0;
#X connect 58 1 59 0;
#X connect 61 0 66 0;
#X connect 62 0 61 0;
#X connect 64 0 60 0;
#X connect 65 0 63 0;
#X connect 66 0 67 0;
#X connect 67 0 65 0;
#X connect 67 1 68 0;
#X connect 68 0 66 1;
#X connect 69 0 66 1;
#X connect 70 1 11 0;
#X connect 72 0 51 0;
#X connect 73 0 74 0;
#X connect 75 0 76 0;
#X connect 75 1 73 0;
#X connect 75 2 72 0;
#X connect 76 0 77 0;
#X connect 78 0 81 0;
#X connect 79 0 5 1;
#X connect 79 1 31 0;
#X connect 81 0 62 0;
#X connect 81 1 69 0;
#X connect 81 2 91 0;
#X connect 82 0 87 0;
#X connect 84 0 88 1;
#X connect 85 0 88 2;
#X connect 86 0 88 0;
#X connect 87 0 86 1;
#X connect 87 1 84 0;
#X connect 87 2 85 0;
#X connect 88 0 92 0;
#X connect 91 0 86 0;
#X connect 92 0 83 0;
#X coords 0 -1 1 1 180 60 1 100 100;
