#N canvas 47 655 453 304 10;
#X declare -path ..;
#X declare -stdpath mrpeach;
#X declare -stdpath mrpeach/net;
#X declare -stdpath osc;
#X declare -stdpath cxc;
#X declare -stdpath mapping;
#X declare -stdpath bf-pd;
#X obj 166 247 udpsend;
#X obj 166 196 loadbang;
#X obj 166 213 symbol \$2;
#X obj 91 196 r toBoeuf;
#X obj 91 230 packOSC;
#X msg 166 230 connect \$1 8327;
#X obj 5 117 s fromBoeuf;
#X obj 5 16 udpreceive 8327;
#X obj 5 33 unpackOSC;
#X obj 5 50 routeOSC /boeuf;
#X obj 165 84 outlet;
#X obj 5 67 t a a;
#X obj 149 112 loadbang;
#X obj 149 129 symbol \$1;
#X obj 149 146 s bf-session-name;
#X obj 209 112 r bf-ask-session-name;
#X obj 5 84 routeOSC /\$1 /request;
#X obj 91 112 t b;
#X obj 91 213 spigot 1;
#X obj 35 199 tgl 15 0 empty empty empty 17 7 0 10 -262144 -1 -1 0
1;
#N canvas 3 68 450 300 declares 1;
#X obj 29 21 declare -path ..;
#X obj 29 51 declare -stdpath mrpeach;
#X obj 28 77 declare -stdpath mrpeach/net;
#X obj 28 107 declare -stdpath osc;
#X obj 28 137 declare -stdpath cxc;
#X obj 30 166 declare -stdpath mapping;
#X obj 30 196 declare -stdpath bf-pd;
#X restore 144 18 pd declares;
#X connect 1 0 2 0;
#X connect 2 0 5 0;
#X connect 3 0 18 0;
#X connect 4 0 0 0;
#X connect 5 0 0 0;
#X connect 7 0 8 0;
#X connect 8 0 9 0;
#X connect 9 0 11 0;
#X connect 11 0 16 0;
#X connect 11 1 10 0;
#X connect 12 0 13 0;
#X connect 13 0 14 0;
#X connect 15 0 13 0;
#X connect 16 0 6 0;
#X connect 16 1 17 0;
#X connect 17 0 13 0;
#X connect 18 0 4 0;
#X connect 19 0 18 1;
