#N canvas 0 22 450 300 10;
#X obj 15 81 outlet;
#X obj 15 30 routeOSC /\$2;
#X obj 15 13 r fromBoeuf;
#X obj 15 47 routeOSC /parameters /outputs;
#X obj 15 64 routeOSC /\$3/set;
#X connect 1 0 3 0;
#X connect 2 0 1 0;
#X connect 3 0 4 0;
#X connect 3 1 4 0;
#X connect 4 0 0 0;
