#N canvas 0 23 393 205 10;
#X obj 29 37 inlet;
#X obj 29 136 outlet;
#X obj 29 86 float 0;
#X obj 195 35 inlet;
#X text 23 14 bang pour avancer;
#X text 28 158 position;
#X obj 29 103 t f f;
#X obj 68 103 expr fmod($f1+1 \, \$1);
#X text 159 12 position dans la sequence (0-1);
#X obj 195 52 * \$1;
#X obj 195 69 int;
#X connect 0 0 2 0;
#X connect 2 0 6 0;
#X connect 3 0 9 0;
#X connect 6 0 1 0;
#X connect 6 1 7 0;
#X connect 7 0 2 1;
#X connect 9 0 10 0;
#X connect 10 0 2 1;
#X coords 0 205 1 204 150 60 0;
