#N canvas 0 23 450 300 10;
#X obj 49 51 inlet~;
#X obj 113 50 inlet;
#X obj 49 233 outlet~;
#X obj 49 163 vcf~ 5;
#X obj 113 88 * 127;
#X obj 113 107 mtof;
#X obj 113 146 line~;
#X msg 113 126 \$1 10;
#X connect 0 0 3 0;
#X connect 1 0 4 0;
#X connect 3 0 2 0;
#X connect 4 0 5 0;
#X connect 5 0 7 0;
#X connect 6 0 3 1;
#X connect 7 0 6 0;
