#N canvas 547 23 450 300 10;
#X obj 109 30 inlet;
#X obj 38 198 outlet~;
#X obj 38 168 *~;
#X obj 109 151 vline~;
#X text 126 199 Sortie : audio;
#X obj 38 108 noise~;
#X text 157 32 Entrée : amplitude duree;
#X msg 109 134 \$1 10 \, 0 \$2 10;
#X obj 38 134 hip~ 10000;
#X connect 0 0 7 0;
#X connect 2 0 1 0;
#X connect 3 0 2 1;
#X connect 5 0 8 0;
#X connect 7 0 3 0;
#X connect 8 0 2 0;
