#N canvas 3 78 450 300 10;
#X obj 22 257 outlet~;
#X obj 22 37 inlet;
#X obj 91 37 inlet;
#X obj 204 37 inlet;
#X obj 185 223 osc~;
#X obj 204 164 osc~;
#X obj 91 147 mtof;
#X obj 204 113 mtof;
#X obj 185 198 +~;
#X msg 91 164 \$1 10;
#X obj 91 181 line~;
#X msg 204 130 \$1 10;
#X obj 204 147 line~;
#X text 16 11 volume;
#X text 82 11 frequence;
#X obj 72 240 *~;
#X obj 22 223 line~;
#X msg 22 206 \$1 10;
#X obj 204 181 *~ 100;
#X obj 204 59 t b f;
#X text 162 11 modulation (0-1);
#X obj 204 89 expr $f1*(1-$f2);
#X obj 91 72 t f f;
#X connect 1 0 17 0;
#X connect 2 0 22 0;
#X connect 3 0 19 0;
#X connect 4 0 15 1;
#X connect 5 0 18 0;
#X connect 6 0 9 0;
#X connect 7 0 11 0;
#X connect 8 0 4 0;
#X connect 9 0 10 0;
#X connect 10 0 8 0;
#X connect 11 0 12 0;
#X connect 12 0 5 0;
#X connect 15 0 0 0;
#X connect 16 0 15 0;
#X connect 17 0 16 0;
#X connect 18 0 8 1;
#X connect 19 0 21 0;
#X connect 19 1 21 1;
#X connect 21 0 7 0;
#X connect 22 0 6 0;
#X connect 22 1 21 0;
