#N canvas 3 63 476 357 10;
#X obj 51 290 outlet~;
#X obj 23 24 inlet;
#X obj 171 23 inlet;
#X obj 23 63 select 0 1;
#X obj 51 239 phasor~;
#X obj 265 205 soundfiler;
#X msg 265 188 read -resize \$1 \$2;
#X obj 51 256 *~;
#X obj 51 273 tabread4~ \$0-buffer;
#X obj 339 205 table \$0-buffer;
#X obj 127 239 line~;
#X obj 51 222 line~;
#X msg 51 205 \$1 10;
#X msg 127 222 \$1 10;
#X obj 265 120 loadbang;
#X obj 265 137 t b b;
#X obj 333 154 symbol \$0-buffer;
#X obj 265 154 symbol \$1;
#X obj 265 171 pack s s;
#X obj 51 120 float \$2;
#X msg 23 205 0;
#X obj 317 122 bng 15 250 50 0 empty empty empty 17 7 0 10 -262144
-1 -1;
#X obj 51 137 expr 1.0/(\$3*60/\$2)*($f1/\$2);
#X obj 51 80 t b b;
#X msg 89 220 0;
#X text 23 6 0:stop \, 1:start;
#X text 169 5 tempo en bpm;
#X obj 97 63 spigot 0;
#X obj 23 46 t f f;
#X obj 171 46 t f f;
#X connect 1 0 28 0;
#X connect 2 0 29 0;
#X connect 3 0 20 0;
#X connect 3 1 23 0;
#X connect 4 0 7 0;
#X connect 5 0 13 0;
#X connect 6 0 5 0;
#X connect 7 0 8 0;
#X connect 8 0 0 0;
#X connect 10 0 7 1;
#X connect 11 0 4 0;
#X connect 12 0 11 0;
#X connect 13 0 10 0;
#X connect 14 0 15 0;
#X connect 15 0 17 0;
#X connect 15 1 16 0;
#X connect 16 0 18 1;
#X connect 17 0 18 0;
#X connect 18 0 6 0;
#X connect 19 0 22 0;
#X connect 20 0 11 0;
#X connect 21 0 15 0;
#X connect 22 0 12 0;
#X connect 23 0 19 0;
#X connect 23 1 24 0;
#X connect 24 0 4 1;
#X connect 27 0 19 0;
#X connect 28 0 3 0;
#X connect 28 1 27 1;
#X connect 29 0 27 0;
#X connect 29 1 19 1;
