#N canvas 0 23 453 515 10;
#X obj 22 27 inlet~;
#X obj 28 480 outlet~;
#X obj 107 125 float 0;
#X text 105 53 amp;
#X text 169 53 smooth;
#X obj 92 193 -~;
#X obj 107 142 t f f;
#X obj 107 176 line~;
#X msg 107 159 \$1 10;
#X obj 51 176 abs~;
#X obj 107 108 * 0.1;
#X text 97 23 replicates crossover distortion ladspa plugin from steve
harris;
#X obj 141 108 t b f f;
#X obj 36 264 env~;
#X msg 36 316 \$1 10;
#X obj 38 243 expr~ if($v1<0 \, -1 \, 1);
#X obj 97 263 *~;
#X obj 271 57 loadbang;
#X obj 271 74 t b b;
#X obj 153 193 line~;
#X msg 153 176 \$1 10;
#X obj 232 190 line~;
#X msg 232 173 \$1 10;
#X obj 36 333 line~;
#X obj 154 159 * 1;
#X obj 92 220 expr~ if($v1<0 \, $v1*(1+$v1/($v2+0.0001))*$v3 \, $v1)
;
#X obj 352 74 inlet;
#X text 348 56 wet;
#X obj 28 433 +~;
#X obj 77 409 *~;
#X obj 28 409 *~;
#X obj 42 392 line~;
#X msg 42 375 \$1 10;
#X obj 100 392 line~;
#X msg 100 375 \$1 10;
#X obj 270 358 t f f;
#X obj 199 358 expr 1-$f1;
#X obj 36 299 clip 0 1;
#X obj 84 336 *~;
#X obj 36 282 expr if($f1<50 \, $f1/400 \, $f1/90);
#X obj 107 91 float 0.5;
#X obj 171 91 float 0.1;
#X connect 0 0 13 0;
#X connect 0 0 9 0;
#X connect 0 0 30 0;
#X connect 0 0 15 0;
#X connect 2 0 6 0;
#X connect 5 0 25 0;
#X connect 6 0 8 0;
#X connect 6 1 24 0;
#X connect 7 0 5 1;
#X connect 8 0 7 0;
#X connect 9 0 5 0;
#X connect 10 0 2 0;
#X connect 12 0 2 0;
#X connect 12 1 24 1;
#X connect 12 2 22 0;
#X connect 13 0 39 0;
#X connect 14 0 23 0;
#X connect 15 0 16 0;
#X connect 16 0 38 1;
#X connect 17 0 18 0;
#X connect 18 0 40 0;
#X connect 18 1 41 0;
#X connect 19 0 25 1;
#X connect 20 0 19 0;
#X connect 21 0 25 2;
#X connect 22 0 21 0;
#X connect 23 0 38 0;
#X connect 24 0 20 0;
#X connect 25 0 16 1;
#X connect 26 0 35 0;
#X connect 28 0 1 0;
#X connect 29 0 28 1;
#X connect 30 0 28 0;
#X connect 31 0 30 1;
#X connect 32 0 31 0;
#X connect 33 0 29 1;
#X connect 34 0 33 0;
#X connect 35 0 36 0;
#X connect 35 1 34 0;
#X connect 36 0 32 0;
#X connect 37 0 14 0;
#X connect 38 0 29 0;
#X connect 39 0 37 0;
#X connect 40 0 10 0;
#X connect 41 0 12 0;
