#N canvas 3 58 450 300 10;
#X obj 47 33 inlet~;
#X obj 257 36 inlet;
#X obj 44 221 outlet~;
#X obj 49 139 *~;
#X obj 68 112 line~;
#X msg 140 79 \$1 5;
#X connect 0 0 3 0;
#X connect 1 0 5 0;
#X connect 3 0 2 0;
#X connect 4 0 3 1;
#X connect 5 0 4 0;
