#N canvas 0 23 450 300 10;
#X obj 149 30 inlet;
#X obj 38 198 outlet~;
#X obj 38 168 *~;
#X obj 176 151 vline~;
#X text 126 199 Sortie : audio;
#X obj 38 138 osc~;
#X obj 38 115 vline~;
#X obj 149 60 t f f;
#X msg 176 134 \$1 5 \, 0 200 10;
#X text 196 31 Entrée : amplitude;
#X msg 38 94 200 1 \, 30 20 10;
#X connect 0 0 7 0;
#X connect 2 0 1 0;
#X connect 3 0 2 1;
#X connect 5 0 2 0;
#X connect 6 0 5 0;
#X connect 7 0 10 0;
#X connect 7 1 8 0;
#X connect 8 0 3 0;
#X connect 10 0 6 0;
