#N canvas 3 68 450 300 10;
#X obj 36 137 +~;
#X obj 179 154 *~;
#X obj 94 86 line~;
#X msg 94 69 \$1 10;
#X obj 36 19 inlet~;
#X obj 36 233 outlet~;
#X obj 94 107 vd~ bfw-delay\$0;
#X obj 179 183 delwrite~ bfw-delay\$0 5000;
#X obj 194 121 line~;
#X msg 194 99 \$1 10;
#X obj 94 19 inlet;
#X obj 194 22 inlet;
#X text 97 2 durée;
#X text 186 4 feedback;
#X obj 194 55 * 0.9;
#X obj 94 43 expr $f1*2000;
#X connect 0 0 1 0;
#X connect 0 0 5 0;
#X connect 1 0 7 0;
#X connect 2 0 6 0;
#X connect 3 0 2 0;
#X connect 4 0 0 0;
#X connect 6 0 0 1;
#X connect 8 0 1 1;
#X connect 9 0 8 0;
#X connect 10 0 15 0;
#X connect 11 0 14 0;
#X connect 14 0 9 0;
#X connect 15 0 3 0;
