#N canvas 3 94 632 317 10;
#X obj 17 33 inlet;
#X obj 17 181 loadbang;
#X obj 17 215 symbol \$1;
#X obj 17 198 t b b;
#X text 17 14 windowStart;
#X text 403 13 grainSize;
#X obj 413 254 outlet~;
#X obj 211 35 inlet;
#X obj 413 33 inlet;
#X obj 17 266 soundfiler;
#X msg 17 249 read -resize \$1 \$2;
#X obj 413 118 t f f;
#X obj 413 101 + 96;
#X obj 413 152 expr 1/$f1;
#X obj 413 135 / 44100;
#X obj 211 103 t f b b;
#X obj 211 154 -;
#X obj 211 171 *;
#X obj 413 50 loadbang;
#X msg 413 67 1;
#X obj 212 52 loadbang;
#X obj 413 84 * 4000;
#X obj 211 86 float 0.1;
#X obj 413 169 t f f f f;
#X obj 413 186 grain \$0-gran 0;
#X obj 469 135 s \$0-gran-grainSize;
#X obj 36 120 value \$0-gran-windowStart;
#X text 208 14 windowSize;
#X obj 230 137 value \$0-gran-recSize;
#X obj 226 120 value \$0-gran-windowStart;
#X obj 211 188 value \$0-gran-windowSize;
#X obj 17 283 value \$0-gran-recSize;
#X obj 91 266 table \$0-gran-buffer;
#X obj 75 215 symbol \$0-gran-buffer;
#X obj 17 232 pack s s;
#X obj 36 103 *;
#X obj 56 86 value \$0-gran-recSize;
#X obj 17 69 t b f b;
#X obj 69 183 bng 15 250 50 0 empty empty empty 17 7 0 10 -262144 -1
-1;
#X obj 433 237 grain \$0-gran 0.25;
#X obj 427 220 grain \$0-gran 0.75;
#X obj 423 203 grain \$0-gran 0.5;
#X msg 212 69 0.01;
#X connect 0 0 37 0;
#X connect 1 0 3 0;
#X connect 2 0 34 0;
#X connect 3 0 2 0;
#X connect 3 1 33 0;
#X connect 7 0 22 0;
#X connect 8 0 21 0;
#X connect 9 0 31 0;
#X connect 10 0 9 0;
#X connect 11 0 14 0;
#X connect 11 1 25 0;
#X connect 12 0 11 0;
#X connect 13 0 23 0;
#X connect 14 0 13 0;
#X connect 15 0 17 0;
#X connect 15 1 28 0;
#X connect 15 2 29 0;
#X connect 16 0 17 1;
#X connect 17 0 30 0;
#X connect 18 0 19 0;
#X connect 19 0 21 0;
#X connect 20 0 42 0;
#X connect 21 0 12 0;
#X connect 22 0 15 0;
#X connect 23 0 24 0;
#X connect 23 1 41 0;
#X connect 23 2 40 0;
#X connect 23 3 39 0;
#X connect 24 0 6 0;
#X connect 28 0 16 0;
#X connect 29 0 16 1;
#X connect 33 0 34 1;
#X connect 34 0 10 0;
#X connect 35 0 26 0;
#X connect 36 0 35 1;
#X connect 37 0 22 0;
#X connect 37 1 35 0;
#X connect 37 2 36 0;
#X connect 38 0 3 0;
#X connect 39 0 6 0;
#X connect 40 0 6 0;
#X connect 41 0 6 0;
#X connect 42 0 22 0;
