#N canvas 0 23 450 300 10;
#X obj 52 29 inlet;
#X obj 52 268 outlet~;
#X obj 52 226 *~;
#X obj 59 79 mtof;
#X obj 59 113 line~;
#X msg 59 96 \$1 10;
#X obj 52 55 unpack f f;
#X obj 109 209 vline~;
#X text 126 269 Sortie : audio;
#X obj 52 202 *~;
#X obj 52 138 phasor~;
#X obj 98 138 osc~;
#X obj 52 160 +~;
#X msg 109 192 \$1 10 \, 0 1000 10;
#X obj 52 177 /~ 2;
#X obj 128 167 osc~ 1.5;
#X text 64 7 Entrées : liste (note amplitude);
#X obj 52 246 lop~ 500;
#X connect 0 0 6 0;
#X connect 2 0 17 0;
#X connect 3 0 5 0;
#X connect 4 0 10 0;
#X connect 4 0 11 0;
#X connect 5 0 4 0;
#X connect 6 0 3 0;
#X connect 6 1 13 0;
#X connect 7 0 2 1;
#X connect 9 0 2 0;
#X connect 10 0 12 0;
#X connect 11 0 12 1;
#X connect 12 0 14 0;
#X connect 13 0 7 0;
#X connect 14 0 9 0;
#X connect 15 0 9 1;
#X connect 17 0 1 0;
