#N canvas 0 22 450 300 10;
#X obj 52 29 inlet;
#X obj 52 138 osc~;
#X obj 52 198 outlet~;
#X obj 52 168 *~;
#X obj 52 87 mtof;
#X obj 52 121 line~;
#X msg 52 104 \$1 10;
#X obj 52 55 unpack f f;
#X obj 109 151 vline~;
#X msg 109 134 \$1 10 \, 0 100 10;
#X text 122 29 Entrée : liste (note amplitude);
#X text 126 199 Sortie : audio;
#X connect 0 0 7 0;
#X connect 1 0 3 0;
#X connect 3 0 2 0;
#X connect 4 0 6 0;
#X connect 5 0 1 0;
#X connect 6 0 5 0;
#X connect 7 0 4 0;
#X connect 7 1 9 0;
#X connect 8 0 3 1;
#X connect 9 0 8 0;
