#N canvas 29 399 410 240 10;
#X obj 135 190 *~;
#X obj 216 88 random;
#X obj 125 54 line~;
#X obj 135 139 *~ 0.5;
#X obj 135 122 +~ 1;
#X obj 150 156 +~;
#X obj 31 54 r \$1-grainSize;
#X obj 33 139 *~;
#X obj 235 71 value \$1-windowSize;
#X obj 216 54 t b b b;
#X obj 255 88 value \$1-windowStart;
#X obj 135 105 cos~;
#X obj 135 88 -~ 0.5;
#X obj 216 139 samphold~;
#X obj 150 173 tabread4~ \$1-buffer;
#X obj 135 207 outlet~;
#X obj 135 71 phasor~;
#X obj 216 3 loadbang;
#X obj 216 37 metro 50;
#X obj 268 5 bng 15 250 50 0 empty empty empty 17 7 0 10 -262144 -1
-1;
#X obj 216 122 sig~;
#X obj 31 71 sig~;
#X obj 48 88 samphold~;
#X obj 216 20 t b b;
#X obj 162 54 float \$2;
#X obj 125 12 inlet;
#X msg 125 29 \$1 10;
#X obj 216 105 +;
#X connect 0 0 15 0;
#X connect 1 0 27 0;
#X connect 2 0 16 0;
#X connect 3 0 0 0;
#X connect 4 0 3 0;
#X connect 5 0 14 0;
#X connect 6 0 21 0;
#X connect 7 0 5 0;
#X connect 8 0 1 1;
#X connect 9 0 1 0;
#X connect 9 1 8 0;
#X connect 9 2 10 0;
#X connect 10 0 27 1;
#X connect 11 0 4 0;
#X connect 12 0 11 0;
#X connect 13 0 5 1;
#X connect 14 0 0 1;
#X connect 16 0 7 0;
#X connect 16 0 12 0;
#X connect 16 0 22 1;
#X connect 16 0 13 1;
#X connect 17 0 23 0;
#X connect 18 0 9 0;
#X connect 19 0 23 0;
#X connect 20 0 13 0;
#X connect 21 0 22 0;
#X connect 22 0 7 1;
#X connect 23 0 24 0;
#X connect 23 1 18 0;
#X connect 24 0 16 1;
#X connect 25 0 26 0;
#X connect 26 0 2 0;
#X connect 27 0 20 0;
