#N canvas 801 919 456 821 10;
#X declare -lib libdir -lib ggee -stdpath ggee;
#X declare -lib libdir -lib ggee -stdpath ggee;
#X declare -stdlib zexy;
#X declare -stdlib iemlib -stdpath iemlib;
#X declare -lib libdir -lib ggee -stdpath ggee;
#X declare -lib libdir -lib ggee -stdpath ggee;
#X declare -stdlib zexy;
#X declare -stdlib iemlib -stdpath iemlib;
#X declare -lib libdir -lib ggee -stdpath ggee;
#X declare -lib libdir -lib ggee -stdpath ggee;
#X declare -stdlib zexy;
#X declare -stdlib iemlib -stdpath iemlib;
#X declare -lib libdir -lib ggee -stdpath ggee;
#X declare -lib libdir -lib ggee -stdpath ggee;
#X declare -stdlib zexy;
#X declare -stdlib iemlib -stdpath iemlib;
#X declare -lib libdir -lib ggee -stdpath ggee;
#X declare -lib libdir -lib ggee -stdpath ggee;
#X declare -stdlib zexy;
#X declare -stdlib iemlib -stdpath iemlib;
#X declare -lib libdir -lib ggee -stdpath ggee;
#X declare -lib libdir -lib ggee -stdpath ggee;
#X declare -stdlib zexy;
#X declare -stdlib iemlib -stdpath iemlib;
#X declare -lib libdir -lib ggee -stdpath ggee;
#X declare -lib libdir -lib ggee -stdpath ggee;
#X declare -stdlib zexy;
#X declare -stdlib iemlib -stdpath iemlib;
#X declare -lib libdir -lib ggee -stdpath ggee;
#X declare -lib libdir -lib ggee -stdpath ggee;
#X declare -stdlib zexy;
#X declare -stdlib iemlib -stdpath iemlib;
#X declare -lib libdir -lib ggee -stdpath ggee;
#X declare -lib libdir -lib ggee -stdpath ggee;
#X declare -stdlib zexy;
#X declare -stdlib iemlib -stdpath iemlib;
#X declare -lib libdir -lib ggee -stdpath ggee;
#X declare -lib libdir -lib ggee -stdpath ggee;
#X declare -stdlib zexy;
#X declare -stdlib iemlib -stdpath iemlib;
#X declare -lib libdir -lib ggee -stdpath ggee;
#X declare -lib libdir -lib ggee -stdpath ggee;
#X declare -stdlib zexy;
#X declare -stdlib iemlib -stdpath iemlib;
#X declare -lib libdir -lib ggee -stdpath ggee;
#X declare -lib libdir -lib ggee -stdpath ggee;
#X declare -stdlib zexy;
#X declare -stdlib iemlib -stdpath iemlib;
#X declare -lib libdir -lib ggee -stdpath ggee;
#X declare -lib libdir -lib ggee -stdpath ggee;
#X declare -stdlib zexy;
#X declare -stdlib iemlib -stdpath iemlib;
#X declare -lib libdir -lib ggee -stdpath ggee;
#X declare -lib libdir -lib ggee -stdpath ggee;
#X declare -stdlib zexy;
#X declare -stdlib iemlib -stdpath iemlib;
#X declare -lib libdir -lib ggee -stdpath ggee;
#X declare -lib libdir -lib ggee -stdpath ggee;
#X declare -stdlib zexy;
#X declare -stdlib iemlib -stdpath iemlib;
#X declare -lib libdir -lib ggee -stdpath ggee;
#X declare -lib libdir -lib ggee -stdpath ggee;
#X declare -stdlib zexy;
#X declare -stdlib iemlib -stdpath iemlib;
#X declare -lib libdir -lib ggee -stdpath ggee;
#X declare -lib libdir -lib ggee -stdpath ggee;
#X declare -stdlib zexy;
#X declare -stdlib iemlib -stdpath iemlib;
#X declare -lib libdir -lib ggee -stdpath ggee;
#X declare -lib libdir -lib ggee -stdpath ggee;
#X declare -lib libdir -lib ggee -stdpath ggee;
#X declare -lib libdir -lib ggee -stdpath ggee;
#X declare -lib libdir -lib ggee -stdpath ggee;
#X declare -lib libdir -lib ggee -stdpath ggee;
#X declare -lib libdir -lib ggee -stdpath ggee;
#X declare -lib libdir -lib ggee -stdpath ggee;
#X declare -lib libdir -lib ggee -stdpath ggee;
#X declare -lib libdir -lib ggee -stdpath ggee;
#X declare -lib libdir -lib ggee -stdpath ggee;
#X declare -lib libdir -lib ggee -stdpath ggee;
#X declare -lib libdir -lib ggee -stdpath ggee;
#X declare -lib libdir -lib ggee -stdpath ggee;
#X declare -lib libdir -lib ggee -stdpath ggee;
#X declare -lib libdir -lib ggee -stdpath ggee;
#X declare -lib libdir -lib ggee -stdpath ggee;
#X declare -lib libdir -lib ggee -stdpath ggee;
#X declare -lib libdir -lib ggee -stdpath ggee;
#X declare -lib libdir -lib ggee -stdpath ggee;
#X declare -lib libdir -lib ggee -stdpath ggee;
#X declare -lib libdir -lib ggee -stdpath ggee;
#X declare -lib libdir -lib ggee -stdpath ggee;
#X declare -lib libdir -lib ggee -stdpath ggee;
#X declare -lib libdir -lib ggee -stdpath ggee;
#X declare -lib libdir -lib ggee -stdpath ggee;
#X declare -lib libdir -lib ggee -stdpath ggee;
#X declare -lib libdir -lib ggee -stdpath ggee;
#X declare -lib libdir -lib ggee -stdpath ggee;
#X declare -lib libdir -lib ggee -stdpath ggee;
#X declare -lib libdir -lib ggee -stdpath ggee;
#X declare -lib libdir -lib ggee -stdpath ggee;
#X declare -stdpath moonlib;
#X declare -lib libdir -lib ggee -stdpath ggee;
#X declare -lib libdir -lib ggee -stdpath ggee;
#X declare -lib libdir -lib ggee -stdpath ggee;
#X declare -lib libdir -lib ggee -stdpath ggee;
#X declare -lib libdir -lib ggee -stdpath ggee;
#X declare -lib libdir -lib ggee -stdpath ggee;
#X declare -lib libdir -lib ggee -stdpath ggee;
#X declare -lib libdir -lib ggee -stdpath ggee;
#X declare -lib libdir -lib ggee -stdpath ggee;
#X declare -lib libdir -lib ggee -stdpath ggee;
#X declare -lib libdir -lib ggee -stdpath ggee;
#X declare -lib libdir -lib ggee -stdpath ggee;
#X declare -lib libdir -lib ggee -stdpath ggee;
#X declare -lib libdir -lib ggee -stdpath ggee;
#X declare -lib libdir -lib ggee -stdpath ggee;
#X declare -lib libdir -lib ggee -stdpath ggee;
#X declare -lib libdir -lib ggee -stdpath ggee;
#X declare -lib libdir -lib ggee -stdpath ggee;
#X declare -lib libdir -lib ggee -stdpath ggee;
#X declare -lib libdir -lib ggee -stdpath ggee;
#X declare -lib libdir -lib ggee -stdpath ggee;
#X declare -lib libdir -lib ggee -stdpath ggee;
#X declare -lib libdir -lib ggee -stdpath ggee;
#X declare -lib libdir -lib ggee -stdpath ggee;
#X declare -lib libdir -lib ggee -stdpath ggee;
#X declare -lib libdir -lib ggee -stdpath ggee;
#X declare -lib libdir -lib ggee -stdpath ggee;
#X declare -lib libdir -lib ggee -stdpath ggee;
#X declare -lib libdir -lib ggee -stdpath ggee;
#X declare -lib libdir -lib ggee -stdpath ggee;
#X declare -lib libdir -lib ggee -stdpath ggee;
#X declare -lib libdir -lib ggee -stdpath ggee;
#X declare -lib libdir -lib ggee -stdpath ggee;
#X declare -lib libdir -lib ggee -stdpath ggee;
#X declare -lib libdir -lib ggee -stdpath ggee;
#X declare -lib libdir -lib ggee -stdpath ggee;
#X declare -lib libdir -lib ggee -stdpath ggee;
#X declare -lib libdir -lib ggee -stdpath ggee;
#X declare -lib libdir -lib ggee -stdpath ggee;
#X declare -lib libdir -lib ggee -stdpath ggee;
#X declare -lib libdir -lib ggee -stdpath ggee;
#X declare -lib libdir -lib ggee -stdpath ggee;
#X declare -lib libdir -lib ggee -stdpath ggee;
#X declare -lib libdir -lib ggee -stdpath ggee;
#X declare -lib libdir -lib ggee -stdpath ggee;
#X declare -lib libdir -lib ggee -stdpath ggee;
#X declare -lib libdir -lib ggee -stdpath ggee;
#X declare -lib libdir -lib ggee -stdpath ggee;
#X declare -lib libdir -lib ggee -stdpath ggee;
#X declare -lib libdir -lib ggee -stdpath ggee;
#X declare -lib libdir -lib ggee -stdpath ggee;
#X declare -lib libdir -lib ggee -stdpath ggee;
#X declare -lib libdir -lib ggee -stdpath ggee;
#X declare -lib libdir -lib ggee -stdpath ggee;
#X declare -lib libdir -lib ggee -stdpath ggee;
#X declare -lib libdir -lib ggee -stdpath ggee;
#X declare -lib libdir -lib ggee -stdpath ggee;
#X declare -lib libdir -lib ggee -stdpath ggee;
#X declare -lib libdir -lib ggee -stdpath ggee;
#X declare -lib libdir -lib ggee -stdpath ggee;
#X declare -lib libdir -lib ggee -stdpath ggee;
#X declare -lib libdir -lib ggee -stdpath ggee;
#X declare -lib libdir -lib ggee -stdpath ggee;
#X declare -lib libdir -lib ggee -stdpath ggee;
#X declare -lib libdir -lib ggee -stdpath ggee;
#X declare -lib libdir -lib ggee -stdpath ggee;
#X obj 51 11 cnv 15 40 654 empty empty \$1 1 5 1 8 -257985 -1 0;
#X text 23 -16 KEPtype nomUnique;
#X obj 126 519 l MASTERtypeIN \$1 1;
#X obj 127 497 l MASTERtypeOUT\$1 1;
#X obj 112 5 l KEPface \$1;
#X obj 57 653 bng 10 250 50 0 empty empty empty 17 7 0 10 -4034 -1
-1;
#X obj 74 653 bng 10 250 50 0 empty empty empty 17 7 0 10 -258113 -1
-1;
#X obj 146 567 l MASTERtypeNO_IN;
#N canvas 2004 453 311 407 KEPboutons 0;
#X obj 188 142 tLock \$1 1/1;
#X obj 188 162 tLock \$1 1/2;
#X obj 189 182 tLock \$1 1/3;
#X obj 189 202 tLock \$1 1/4;
#X obj 8 53 KEPbus \$1 Effet Decay b3;
#X obj 9 139 KEPbus \$1 1/1 -t1- t1;
#X obj 7 160 KEPbus \$1 1/2 -t2- t2;
#X obj 8 182 KEPbus \$1 1/3 -t3- t3;
#X obj 9 203 KEPbus \$1 1/4 -t4- t4;
#X obj 9 227 KEPbus \$1 Lock -tL- tREC;
#X obj 15 265 KEPbus \$1 l1 -l1- tl1;
#X obj 15 288 KEPbus \$1 l2 -l2- tl2;
#X obj 17 310 KEPbus \$1 l3 -l3- tl3;
#X obj 17 331 KEPbus \$1 l4 -l4- tl4;
#X obj 12 356 KEPbus \$1 lR -lR- tlREC;
#X obj 148 260 KEPbus \$1 lr -lr- lrouge;
#X obj 148 283 KEPbus \$1 lv -lv- lvert;
#X obj 8 97 KEPbus \$1 Volume Volume b5;
#X obj 8 8 KEPbus \$1 Vitesse Vitesse b1;
#X obj 8 30 KEPbus \$1 Phrases Phrases b2;
#X obj 8 75 KEPbus \$1 Reverb Reverb b4;
#X restore 127 432 pd KEPboutons;
#N canvas 1893 390 712 401 son 0;
#N canvas 1949 118 411 676 ALLSOUND 0;
#X obj 19 317 lop~ 3000;
#X obj 20 586 outlet~;
#X obj 165 232 s \$0-caninstru;
#X obj 166 189 r \$0-visu;
#X msg 166 211 vis 1;
#X obj 18 131 inlet;
#X obj 19 517 +~;
#N canvas 1681 322 529 533 synth 0;
#X obj 181 487 outlet~;
#X obj 182 376 *~;
#X obj 184 105 ead~ 1 100;
#X obj 244 20 mknob 25 100 0 1 0 0 \$1-r-snd \$1-r-rcv r -2 -6 1 8
-262144 -1 -1 3300 1;
#X obj 249 85 * 1000;
#X obj 204 53 mknob 25 100 0 1 0 0 \$1-a-snd \$1-a-rcv a -2 -6 1 8
-262144 -1 -1 0 1;
#X obj 204 82 * 100;
#X obj 228 293 osc~ 80;
#X msg 133 85 0;
#X obj 228 271 *~ 120;
#X obj 341 178 mknob 25 100 0 1 0 0 \$1-f-snd \$1-f-rcv f -2 -6 1 8
-262144 -1 -1 2400 1;
#X obj 341 218 * 130;
#X obj 341 311 mtof;
#X obj 269 139 mknob 25 100 0 1 0 0 \$1-env2f-snd \$1-env2f-rcv env2f
-2 -6 1 8 -262144 -1 -1 0 1;
#X obj 260 185 *~;
#X msg 287 185 1 \$1;
#X obj 287 204 -;
#X obj 260 206 +~;
#X obj 110 160 mknob 25 100 0 1 0 0 \$1-volnoise-snd \$1-volnoise-rcv
volnoise -2 -6 1 8 -262144 -1 -1 0 1;
#X obj 66 208 mull~ 0 10;
#X obj 58 187 noise~;
#X obj 132 32 inlet;
#X floatatom 337 347 5 0 0 0 - - -, f 5;
#N canvas 2051 417 294 218 shiftcon 0;
#X obj 30 40 inlet;
#X obj 135 32 inlet;
#X text 136 15 shift;
#X obj 135 53 t f f;
#X obj 30 106 f;
#X obj 128 98 spigot;
#X obj 67 109 == 0;
#X obj 30 132 spigot;
#X obj 165 75 != 0;
#X obj 45 180 outlet;
#X obj 79 79 sel 0;
#X text 25 22 normal;
#X obj 128 122 maxlib/scale 0 1 0.01 1;
#X connect 0 0 4 0;
#X connect 1 0 3 0;
#X connect 3 0 5 0;
#X connect 3 0 10 0;
#X connect 3 1 8 0;
#X connect 3 1 6 0;
#X connect 4 0 7 0;
#X connect 5 0 12 0;
#X connect 6 0 7 1;
#X connect 7 0 9 0;
#X connect 8 0 5 1;
#X connect 10 0 4 0;
#X connect 12 0 9 0;
#X restore 249 56 pd shiftcon;
#X floatatom 307 83 5 0 0 0 - - -, f 5;
#X obj 96 21 bng 15 250 50 0 empty empty empty 17 7 0 10 -262144 -1
-1;
#X obj 316 20 r \$1-Decay;
#N canvas 1609 464 465 435 gam-pitch 0;
#X obj 198 62 inlet;
#X obj 230 349 outlet;
#X obj 230 147 pack f f;
#X obj 251 124 t b f;
#X obj 252 47 pow 3;
#X obj 251 68 * 100;
#X obj 31 67 r \$0-pitch-snd;
#X obj 113 26 r \$0-gamprepost-snd;
#X obj 97 227 demux;
#X obj 211 112 +;
#X obj 211 90 t b f;
#X obj 230 322 +;
#X obj 216 298 t b f;
#X obj 31 89 * 49;
#X obj 31 110 - 25;
#X obj 31 153 sel -25;
#X msg 31 174 0;
#X obj 97 204 f;
#X obj 113 47 t b f;
#X obj 144 215 demux;
#X msg 144 195 0;
#X floatatom 49 243 5 0 0 0 - - -, f 5;
#X obj 31 129 i;
#X obj 251 103 m 1;
#X obj 280 103 != 0;
#X obj 230 275 +;
#X obj 281 300 t b f;
#X floatatom 311 323 5 0 0 0 - - -, f 5;
#X obj 281 269 r \$0-transgam;
#X obj 281 82 r \$0-ongam;
#X obj 337 39 inlet;
#X msg 364 13 1;
#X floatatom 348 111 5 0 0 0 - - -, f 5;
#X obj 241 7 r \$1-Note_adjust;
#X obj 397 61 loadbang;
#X obj 230 175 gammeRound GAMME1;
#X connect 0 0 9 0;
#X connect 2 0 35 0;
#X connect 3 0 2 0;
#X connect 3 1 2 1;
#X connect 4 0 5 0;
#X connect 5 0 23 0;
#X connect 6 0 13 0;
#X connect 7 0 18 0;
#X connect 8 0 10 0;
#X connect 8 1 12 0;
#X connect 9 0 2 0;
#X connect 10 0 9 0;
#X connect 10 1 9 1;
#X connect 11 0 1 0;
#X connect 12 0 11 0;
#X connect 12 1 11 1;
#X connect 13 0 14 0;
#X connect 14 0 22 0;
#X connect 15 0 16 0;
#X connect 15 1 17 0;
#X connect 16 0 17 0;
#X connect 17 0 8 0;
#X connect 17 0 21 0;
#X connect 18 0 17 0;
#X connect 18 0 20 0;
#X connect 18 1 8 1;
#X connect 18 1 19 1;
#X connect 19 0 12 0;
#X connect 19 1 10 0;
#X connect 20 0 19 0;
#X connect 22 0 15 0;
#X connect 23 0 3 0;
#X connect 24 0 23 1;
#X connect 25 0 11 0;
#X connect 26 0 25 0;
#X connect 26 1 25 1;
#X connect 26 1 27 0;
#X connect 28 0 26 0;
#X connect 29 0 24 0;
#X connect 29 0 32 0;
#X connect 30 0 24 0;
#X connect 31 0 4 0;
#X connect 33 0 4 0;
#X connect 34 0 31 0;
#X connect 35 0 25 0;
#X restore 341 287 pd gam-pitch;
#X obj 410 266 r \$1-Note_adjust;
#X floatatom 275 246 5 0 0 0 - - -, f 5;
#X floatatom 402 321 5 0 0 0 - - -, f 5;
#X obj 132 60 t b b;
#X floatatom 456 302 5 0 0 0 - - -, f 5;
#X obj 182 411 apcheb \$1 FX cheb1;
#X obj 91 95 bng 15 250 50 0 empty empty empty 17 7 0 10 -262144 -1
-1;
#X connect 1 0 33 0;
#X connect 2 0 1 1;
#X connect 2 0 14 1;
#X connect 3 0 23 0;
#X connect 4 0 2 2;
#X connect 5 0 6 0;
#X connect 6 0 2 1;
#X connect 7 0 1 0;
#X connect 8 0 7 1;
#X connect 9 0 7 0;
#X connect 10 0 11 0;
#X connect 11 0 29 0;
#X connect 11 0 27 0;
#X connect 12 0 9 1;
#X connect 12 0 22 0;
#X connect 13 0 14 0;
#X connect 13 0 15 0;
#X connect 14 0 17 0;
#X connect 15 0 16 0;
#X connect 16 0 17 1;
#X connect 17 0 9 0;
#X connect 18 0 19 1;
#X connect 19 0 1 0;
#X connect 20 0 19 0;
#X connect 21 0 31 0;
#X connect 23 0 4 0;
#X connect 23 0 24 0;
#X connect 25 0 31 0;
#X connect 26 0 23 1;
#X connect 27 0 12 0;
#X connect 27 0 30 0;
#X connect 28 0 27 1;
#X connect 28 0 32 0;
#X connect 31 0 8 0;
#X connect 31 0 34 0;
#X connect 31 1 2 0;
#X connect 33 0 0 0;
#X restore 18 153 pd synth;
#X obj 20 543 *~ 2;
#X obj 19 565 hip~ 10;
#X obj 197 333 mull~ 1 10;
#X obj 223 26 param \$1 FX volnoise;
#X obj 224 52 param \$1 FX a;
#X obj 225 78 param \$1 FX r;
#X obj 225 104 param \$1 FX f;
#X obj 228 131 param \$1 FX env2f;
#X obj 18 176 apdisto \$1 FX disto1;
#X obj 18 236 orfilter \$1 FX ortho1;
#X obj 196 370 aprev \$1 FX rev1;
#X obj 35 15 namecanvas \$0-caninstru;
#X obj 225 294 m 1;
#X obj 225 253 r \$1-Reverb;
#X obj 240 273 r \$1-Reverb_max;
#X obj 33 401 apecho \$1 FX echo1;
#X obj 18 491 +~;
#X connect 0 0 10 0;
#X connect 0 0 24 0;
#X connect 3 0 4 0;
#X connect 4 0 2 0;
#X connect 5 0 7 0;
#X connect 6 0 8 0;
#X connect 7 0 16 0;
#X connect 8 0 9 0;
#X connect 9 0 1 0;
#X connect 10 0 18 0;
#X connect 10 0 23 0;
#X connect 16 0 17 0;
#X connect 17 0 0 0;
#X connect 18 0 6 1;
#X connect 20 0 10 1;
#X connect 21 0 20 0;
#X connect 22 0 20 1;
#X connect 23 0 24 1;
#X connect 24 0 6 0;
#X restore 55 123 pd ALLSOUND;
#X obj 55 292 Vmull~ 0 10;
#X obj 56 318 outlet~;
#X obj 231 167 t b;
#X obj 231 145 r SYNCHRO-clock;
#N canvas 106 552 199 392 touches 0;
#X obj 51 46 ++;
#X obj 51 94 ++;
#X obj 51 70 ++;
#X obj 51 118 sel 0;
#X msg 51 144 -1;
#X obj 24 173 inlet;
#X obj 24 282 outlet;
#X obj 24 237 spigot;
#X obj 78 204 != -1;
#X obj 32 259 bng 15 250 50 0 empty empty empty 17 7 0 10 -262144 -1
-1;
#X obj 78 176 pipe 1;
#X obj 78 230 change;
#X obj 78 253 sel 1;
#X obj 78 286 bng 15 250 50 0 empty empty empty 17 7 0 10 -262144 -1
-1;
#X obj 51 2 r \$1-1/1-lock;
#X obj 66 24 r \$1-1/2-lock;
#X obj 82 48 r \$1-1/3-lock;
#X obj 80 73 r \$1-1/4-lock;
#X connect 0 0 2 0;
#X connect 1 0 3 0;
#X connect 2 0 1 0;
#X connect 3 0 4 0;
#X connect 3 1 10 0;
#X connect 4 0 10 0;
#X connect 5 0 7 0;
#X connect 7 0 6 0;
#X connect 7 0 9 0;
#X connect 8 0 7 1;
#X connect 8 0 11 0;
#X connect 10 0 8 0;
#X connect 11 0 12 0;
#X connect 12 0 6 0;
#X connect 12 0 13 0;
#X connect 14 0 0 0;
#X connect 15 0 0 1;
#X connect 16 0 2 1;
#X connect 17 0 1 1;
#X restore 55 80 pd touches;
#N canvas 558 498 708 443 Vitesse 0;
#X obj 140 365 outlet;
#X obj 102 96 i;
#X obj 150 324 t a;
#X obj 99 131 change -1;
#X obj 408 54 i;
#X obj 376 295 t a;
#X obj 408 85 change -1;
#X obj 408 6 r \$0-Tempo-snd;
#X obj 66 319 bng 15 250 50 0 empty empty empty 17 7 0 10 -262144 -1
-1;
#X obj 102 16 r \$0-Tempo-snd;
#X obj 102 42 * 7.9;
#X msg 48 185 1;
#X msg 81 205 2;
#X msg 111 221 3;
#X msg 133 198 4;
#X msg 153 228 6;
#X msg 169 196 8;
#X msg 183 221 12;
#X msg 215 235 16;
#X obj 102 70 + 0;
#X obj 99 154 sel 0 1 2 3 4 5 6 7;
#X obj 407 113 sel 0 1 2 3 4 5 6 7;
#X msg 357 147 1;
#X msg 390 167 2;
#X msg 420 183 3;
#X msg 439 161 4;
#X msg 459 194 6;
#X msg 478 159 8;
#X msg 492 183 12;
#X msg 518 198 16;
#X obj 408 32 * 7.9;
#X msg 376 340 label \$1;
#X obj 376 361 s \$0-Tempo-rcv;
#X msg 376 340 label \$1;
#X obj 376 361 s \$0-Tempo-rcv;
#X obj 376 319 makesymbol %s;
#X connect 1 0 3 0;
#X connect 2 0 0 0;
#X connect 3 0 20 0;
#X connect 4 0 6 0;
#X connect 5 0 35 0;
#X connect 6 0 21 0;
#X connect 7 0 30 0;
#X connect 9 0 10 0;
#X connect 10 0 19 0;
#X connect 11 0 2 0;
#X connect 12 0 2 0;
#X connect 13 0 2 0;
#X connect 14 0 2 0;
#X connect 15 0 2 0;
#X connect 16 0 2 0;
#X connect 17 0 2 0;
#X connect 18 0 2 0;
#X connect 19 0 1 0;
#X connect 20 0 11 0;
#X connect 20 1 12 0;
#X connect 20 2 13 0;
#X connect 20 3 14 0;
#X connect 20 4 15 0;
#X connect 20 5 16 0;
#X connect 20 6 17 0;
#X connect 20 7 18 0;
#X connect 21 0 22 0;
#X connect 21 1 23 0;
#X connect 21 2 24 0;
#X connect 21 3 25 0;
#X connect 21 4 26 0;
#X connect 21 5 27 0;
#X connect 21 6 28 0;
#X connect 21 7 29 0;
#X connect 22 0 5 0;
#X connect 23 0 5 0;
#X connect 24 0 5 0;
#X connect 25 0 5 0;
#X connect 26 0 5 0;
#X connect 27 0 5 0;
#X connect 28 0 5 0;
#X connect 29 0 5 0;
#X connect 30 0 4 0;
#X connect 31 0 32 0;
#X connect 33 0 34 0;
#X connect 35 0 31 0;
#X restore 55 10 pd Vitesse;
#N canvas 2140 517 740 507 trig 0;
#X obj 160 387 outlet;
#X obj 160 223 NDmetro;
#X obj 160 364 sel 0;
#X obj 147 113 spigot;
#X msg 264 137 -1;
#X obj 265 75 t f f;
#X obj 264 114 sel 0;
#X msg 216 111 \$2 \$1;
#X obj 216 135 /;
#X obj 205 192 pack 1 1;
#X obj 216 158 t b f;
#X obj 161 329 tabread \$0-tt;
#X obj 399 139 s \$0-tt;
#X msg 371 72 8 0 1 0 1 0 0 1 0;
#X obj 161 269 + 1;
#X obj 279 277 tabread \$0-tt;
#X msg 279 255 0;
#X obj 371 97 t b a;
#X obj 192 34 inlet ND;
#X obj 109 381 bng 15 250 50 0 empty empty empty 17 7 0 10 -262144
-1 -1;
#X obj 80 165 bng 15 250 50 0 empty empty empty 17 7 0 10 -262144 -1
-1;
#X obj 341 112 tgl 15 0 empty empty empty 17 7 0 10 -262144 -1 -1 1
1;
#X floatatom 308 315 5 0 0 0 - - -, f 5;
#X floatatom 95 342 5 0 0 0 - - -, f 5;
#X msg 306 221 set \$1;
#X symbolatom 510 277 0 0 0 0 - - -;
#X obj 499 205 change;
#X obj 499 162 + 0.5;
#X obj 499 184 i;
#X obj 499 137 * 8;
#X floatatom 499 228 5 0 0 0 - - -, f 5;
#X obj 279 199 t b s;
#X obj 371 160 symbol \$0-tt;
#X obj 374 192 table \$0-tt 64;
#X obj 147 81 r SYNCHRO-clock;
#X floatatom 89 255 5 0 0 0 - - -, f 5;
#X floatatom 283 169 5 0 0 0 - - -, f 5;
#X obj 265 54 r \$0-onoff;
#X floatatom 116 425 5 0 0 0 - - -, f 5;
#X floatatom 49 293 5 0 0 0 - - -, f 5;
#X obj 398 118 list prepend O;
#X obj 500 251 makesymbol \$1-STEP-seq%s;
#X obj 506 307 table \$1-STEP-seq0 64;
#X obj 506 327 table \$1-STEP-seq1 64;
#X obj 505 347 table \$1-STEP-seq2 64;
#X obj 505 367 table \$1-STEP-seq3 64;
#X obj 505 387 table \$1-STEP-seq4 64;
#X obj 505 407 table \$1-STEP-seq5 64;
#X obj 504 427 table \$1-STEP-seq6 64;
#X obj 504 447 table \$1-STEP-seq7 64;
#X obj 504 469 table \$1-STEP-seq8 64;
#X obj 131 235 bng 15 250 50 0 empty empty empty 17 7 0 10 -262144
-1 -1;
#X obj 597 214 s \$1-STEP-seq0;
#X obj 597 158 loadbang;
#X msg 597 183 const 1 \, 0 64 \, 1 0;
#X obj 498 70 r \$1-Phrases;
#X obj 514 92 r \$1-Phrases_max;
#X obj 251 444 s \$1-toNet;
#X obj 166 294 t f f;
#X obj 221 375 pack f f;
#X obj 219 354 == 0;
#X msg 215 403 step \$2 \$1;
#X msg 291 401 nd \$2 \$1;
#X floatatom 554 144 5 0 0 0 - - -, f 5;
#X floatatom 551 120 5 0 0 0 - - -, f 5;
#X obj 500 114 m 1;
#X obj 160 247 spigot;
#X obj 219 222 unpack f f;
#X obj 218 243 != 0;
#N canvas 684 128 460 394 calctab 0;
#X obj 154 5 inlet;
#X obj 178 131 tabread \$0-tt;
#X msg 188 52 set \$1;
#X msg 171 81 1 \, 2 \, 3 \, 4 \, 5 \, 6 \, 7 \, 8 \, 9 \, 10;
#X obj 153 26 t b b s b;
#X obj 171 104 t f f;
#X obj 193 153 - 1;
#X obj 178 173 <<;
#X obj 179 198 +;
#X obj 208 198 f;
#X msg 222 174 0;
#X obj 167 223 f;
#X obj 167 246 outlet;
#X connect 0 0 4 0;
#X connect 1 0 7 0;
#X connect 2 0 1 0;
#X connect 3 0 5 0;
#X connect 4 0 11 0;
#X connect 4 1 3 0;
#X connect 4 2 2 0;
#X connect 4 3 10 0;
#X connect 5 0 1 0;
#X connect 5 1 6 0;
#X connect 6 0 7 1;
#X connect 7 0 8 0;
#X connect 8 0 9 0;
#X connect 8 0 11 1;
#X connect 9 0 8 1;
#X connect 10 0 9 0;
#X connect 11 0 12 0;
#X restore 367 388 pd calctab;
#X msg 367 409 tab \$1;
#X obj 66 408 bng 15 250 50 0 empty empty empty 17 7 0 10 -262144 -1
-1;
#N canvas 196 960 450 507 Defile 0;
#X obj 65 39 inlet tic;
#X obj 162 25 inlet trig;
#X obj 264 57 inlet seq;
#X obj 104 160 pack f f f;
#X obj 162 60 t b f;
#X obj 65 70 t b f;
#X obj 129 252 print;
#X obj 75 286 s \$1-DefileSeq;
#X connect 0 0 5 0;
#X connect 1 0 4 0;
#X connect 2 0 3 0;
#X connect 3 0 7 0;
#X connect 4 0 3 0;
#X connect 4 1 3 2;
#X connect 5 0 3 0;
#X connect 5 1 3 1;
#X restore 291 477 pd Defile;
#X connect 1 0 66 0;
#X connect 2 0 0 0;
#X connect 3 0 1 0;
#X connect 3 0 35 0;
#X connect 4 0 1 0;
#X connect 5 0 6 0;
#X connect 5 1 3 1;
#X connect 5 1 21 0;
#X connect 6 0 4 0;
#X connect 7 0 8 0;
#X connect 8 0 10 0;
#X connect 9 0 1 1;
#X connect 10 0 9 0;
#X connect 10 1 9 1;
#X connect 10 1 36 0;
#X connect 11 0 2 0;
#X connect 11 0 38 0;
#X connect 11 0 60 0;
#X connect 11 0 19 0;
#X connect 11 0 72 1;
#X connect 13 0 17 0;
#X connect 14 0 23 0;
#X connect 14 0 58 0;
#X connect 14 0 72 0;
#X connect 15 0 22 0;
#X connect 16 0 15 0;
#X connect 17 0 32 0;
#X connect 17 1 40 0;
#X connect 18 0 1 1;
#X connect 18 0 62 0;
#X connect 18 0 67 0;
#X connect 24 0 15 0;
#X connect 24 0 11 0;
#X connect 26 0 30 0;
#X connect 26 0 72 2;
#X connect 27 0 28 0;
#X connect 28 0 26 0;
#X connect 29 0 27 0;
#X connect 30 0 41 0;
#X connect 31 0 16 0;
#X connect 31 1 24 0;
#X connect 34 0 3 0;
#X connect 37 0 5 0;
#X connect 40 0 12 0;
#X connect 41 0 25 0;
#X connect 41 0 31 0;
#X connect 41 0 69 0;
#X connect 53 0 54 0;
#X connect 54 0 52 0;
#X connect 55 0 65 0;
#X connect 56 0 64 0;
#X connect 56 0 65 1;
#X connect 58 0 11 0;
#X connect 58 1 59 1;
#X connect 59 0 61 0;
#X connect 60 0 59 0;
#X connect 61 0 57 0;
#X connect 62 0 57 0;
#X connect 65 0 29 0;
#X connect 66 0 14 0;
#X connect 67 0 68 0;
#X connect 68 0 66 1;
#X connect 69 0 70 0;
#X connect 70 0 57 0;
#X restore 55 58 pd trig;
#X obj 173 58 MORPHgroup \$1 FX;
#X floatatom 173 9 5 0 0 0 - - -, f 5;
#N canvas 2089 615 313 391 vitesse_push 0;
#X obj 56 278 outlet;
#X obj 74 11 inlet;
#X obj 132 93 ++;
#X obj 147 66 * 2;
#X obj 132 160 ++;
#X obj 147 139 * 3;
#X obj 147 206 * 4;
#X obj 132 230 ++;
#X obj 74 221 t b f;
#X obj 56 253 pack f 1;
#X floatatom 132 265 5 0 0 0 - - -, f 5;
#X obj 169 342 s \$1-STEPnum;
#X obj 132 11 r \$1-1/1-lock;
#X obj 147 43 r \$1-1/2-lock;
#X obj 147 114 r \$1-1/3-lock;
#X obj 147 182 r \$1-1/4-lock;
#X connect 1 0 8 0;
#X connect 2 0 4 0;
#X connect 3 0 2 1;
#X connect 4 0 7 0;
#X connect 5 0 4 1;
#X connect 6 0 7 1;
#X connect 7 0 10 0;
#X connect 7 0 9 0;
#X connect 7 0 11 0;
#X connect 8 0 9 0;
#X connect 8 1 9 1;
#X connect 9 0 0 0;
#X connect 12 0 2 0;
#X connect 13 0 3 0;
#X connect 14 0 5 0;
#X connect 15 0 6 0;
#X restore 55 33 pd vitesse_push;
#X obj 86 188 m 1;
#X obj 348 221 nbx 5 14 -1e+37 1e+37 0 0 \$0-Tempo-snd \$0-Tempo-rcv
6 5 -8 0 10 -262144 -1 -1 0.620303 256;
#X obj -12 182 s \$0-onoff;
#X obj -12 165 tgl 15 1 empty empty empty 17 7 0 10 -262144 -1 -1 1
1;
#N canvas 2813 593 592 300 led 0;
#X obj 113 -125 tgl 15 0 empty empty empty 17 7 0 10 -262144 -1 -1
0 1;
#X obj 33 -126 tgl 15 0 empty empty empty 17 7 0 10 -262144 -1 -1 0
1;
#X obj 19 -236 change;
#X obj 111 -234 change;
#X obj 202 -233 change;
#X obj 292 -231 change;
#X obj 382 -233 change;
#X obj 207 -113 tgl 15 0 empty empty empty 17 7 0 10 -262144 -1 -1
0 1;
#X obj 19 -193 s \$1-tl1-rcv;
#X obj 111 -193 s \$1-tl2-rcv;
#X obj 202 -193 s \$1-tl3-rcv;
#X obj 292 -193 s \$1-tl4-rcv;
#X obj 382 -192 s \$1-tlREC-rcv;
#X obj 382 -271 r \$1-Lock;
#X obj 19 -271 r \$1-1/1-lock;
#X obj 111 -271 r \$1-1/2-lock;
#X obj 202 -271 r \$1-1/3-lock;
#X obj 292 -271 r \$1-1/4-lock;
#X connect 0 0 9 0;
#X connect 2 0 8 0;
#X connect 3 0 9 0;
#X connect 4 0 10 0;
#X connect 5 0 11 0;
#X connect 6 0 12 0;
#X connect 7 0 8 0;
#X connect 7 0 9 0;
#X connect 7 0 10 0;
#X connect 7 0 11 0;
#X connect 13 0 6 0;
#X connect 14 0 1 0;
#X connect 14 0 2 0;
#X connect 15 0 3 0;
#X connect 16 0 4 0;
#X connect 17 0 5 0;
#X restore 252 253 pd led;
#X obj 348 186 m 1;
#X obj 348 141 r \$1-Vitesse;
#X obj 363 163 r \$1-Vitesse_max;
#X obj 86 145 r \$1-Volume;
#X obj 101 167 r \$1-Volume_max;
#X obj 173 25 r \$1-Effet;
#X obj 86 271 m 1;
#X obj 101 208 r modsmuteck;
#X obj 101 250 != 1;
#X obj 134 229 tgl 15 0 \$1-mute-reverse-snd \$1-mute-reverse-rcv mute-reverse
17 7 0 10 -262144 -1 -1 1 1;
#X obj 161 279 param \$1 SETTING mute-reverse;
#X obj 231 189 s \$1-lrouge;
#X obj -34 141 s \$1-lvert;
#N canvas 1615 174 381 330 Gamme 0;
#N canvas 493 1192 450 382 i2l 0;
#X obj 221 41 inlet;
#X obj 221 243 outlet;
#X obj 221 90 for++ 0 11;
#X obj 221 62 t b f;
#X obj 251 133 f;
#X obj 251 156 & 1;
#X obj 280 133 >> 1;
#X obj 221 111 t f b;
#X obj 221 184 pack f f;
#X obj 145 243 print;
#X msg 167 71 1625;
#X msg 221 213 set \$1 \$2;
#X connect 0 0 3 0;
#X connect 2 0 7 0;
#X connect 3 0 2 0;
#X connect 3 1 4 1;
#X connect 4 0 5 0;
#X connect 4 0 6 0;
#X connect 5 0 8 1;
#X connect 6 0 4 1;
#X connect 7 0 8 0;
#X connect 7 1 4 0;
#X connect 8 0 11 0;
#X connect 10 0 3 0;
#X connect 11 0 1 0;
#X restore 19 177 pd i2l;
#X obj 19 56 r Gammes;
#X obj 19 154 unpack f f;
#X obj 177 16 r \$0-gamnum-snd;
#X obj 177 36 * 3.9;
#X obj 177 57 i;
#X msg 221 196 label \$1;
#X obj 221 218 s \$0-gamnum-rcv;
#X obj 177 76 change -1;
#X obj 221 175 makesymbol gam%s;
#X obj 177 96 sel 0 1;
#X obj 221 155 - 1;
#X msg 177 115 label off;
#X msg 199 135 label semi;
#X obj 80 222 tabread Gammestab;
#X obj 152 155 * 2;
#X obj 98 262 tabread Gammestab;
#X obj 98 242 + 1;
#X msg 99 154 4095 0;
#X obj 19 90 unwonk f;
#X obj 19 133 l;
#X floatatom 166 190 5 0 0 0 - - -, f 5;
#X msg 83 115 -1;
#X obj 122 114 sel 0 1;
#X obj 152 135 - 2;
#X obj 19 111 sel 0;
#X obj 19 198 s \$0-setgam;
#X obj 84 299 s \$0-transgam;
#X obj 256 95 s \$0-ongam;
#X floatatom 288 58 5 0 0 0 - - -, f 5;
#X connect 0 0 26 0;
#X connect 1 0 19 0;
#X connect 2 0 0 0;
#X connect 2 1 27 0;
#X connect 3 0 4 0;
#X connect 4 0 5 0;
#X connect 5 0 8 0;
#X connect 5 0 29 0;
#X connect 6 0 7 0;
#X connect 8 0 10 0;
#X connect 8 0 23 0;
#X connect 8 0 28 0;
#X connect 9 0 6 0;
#X connect 10 0 12 0;
#X connect 10 1 13 0;
#X connect 10 2 11 0;
#X connect 11 0 9 0;
#X connect 12 0 7 0;
#X connect 13 0 7 0;
#X connect 14 0 0 0;
#X connect 15 0 14 0;
#X connect 15 0 17 0;
#X connect 16 0 27 0;
#X connect 17 0 16 0;
#X connect 18 0 2 0;
#X connect 19 0 25 0;
#X connect 19 1 20 1;
#X connect 20 0 2 0;
#X connect 22 0 25 1;
#X connect 23 0 18 0;
#X connect 23 0 22 0;
#X connect 23 1 18 0;
#X connect 23 1 22 0;
#X connect 23 2 24 0;
#X connect 24 0 15 0;
#X connect 24 0 21 0;
#X connect 24 0 25 1;
#X connect 25 0 20 0;
#X restore 424 274 pd Gamme;
#X obj 360 305 cnv 15 72 20 empty empty gam 0 4 1 12 -260818 -1 0;
#X obj 391 305 mknob 12 100 0 1 0 0 \$0-adj-snd \$0-adj-rcv adj -2
16 1 8 -44926 -1 -1 0 1;
#X obj 370 317 tgl 8 0 \$0-gamprepost-snd \$0-gamprepost-rcv empty
0 -6 0 8 -44926 -1 -1 0 1;
#X obj 408 305 mknob 12 100 0 1 0 0 \$0-gamnum-snd \$0-gamnum-rcv gam1
-2 16 1 8 -62784 -1 -1 0 1;
#X obj 361 281 cnv 15 35 20 empty empty pitch 0 5 1 10 -24198 -258699
0;
#X obj 368 288 mknob 15 100 0 1 0 0 \$0-pitch-snd \$0-pitch-rcv empty
-2 -6 0 8 -241291 -1 -262144 0 1;
#X obj 161 300 param \$1 SETTING gamnum;
#X msg 366 251 0.5;
#X msg 401 251 0.5;
#X msg 273 19 \$1 50;
#X obj 317 18 line;
#X connect 0 0 1 0;
#X connect 1 0 2 0;
#X connect 3 0 27 0;
#X connect 4 0 3 0;
#X connect 5 0 0 0;
#X connect 5 0 28 0;
#X connect 6 0 10 0;
#X connect 7 0 5 0;
#X connect 10 0 7 0;
#X connect 11 0 22 0;
#X connect 14 0 13 0;
#X connect 16 0 12 0;
#X connect 17 0 16 0;
#X connect 18 0 16 1;
#X connect 19 0 11 0;
#X connect 20 0 11 1;
#X connect 21 0 9 0;
#X connect 21 0 8 0;
#X connect 22 0 1 1;
#X connect 23 0 24 0;
#X connect 24 0 22 1;
#X connect 25 0 24 1;
#X connect 37 0 35 0;
#X connect 38 0 31 0;
#X connect 39 0 40 0;
#X restore 113 126 pd son;
#X obj 268 440 tgl 15 1 empty empty empty 17 7 0 10 -262144 -1 -1 1
1;
#X obj 268 459 switch~;
#X obj 109 152 cnv 15 336 250 \$1-seq0-STEPcan-snd \$1-seq0-STEPcan-rcv
empty 20 12 0 14 -42246 -233017 0;
#N canvas 1278 543 262 382 sel_color_STEP 0;
#X obj 52 152 change;
#X obj 52 106 + 0.5;
#X obj 52 128 i;
#X obj 52 81 * 8;
#X obj 103 172 STEPcolor \$1 0;
#X obj 102 194 STEPcolor \$1 1;
#X obj 103 216 STEPcolor \$1 2;
#X obj 103 238 STEPcolor \$1 3;
#X obj 104 260 STEPcolor \$1 4;
#X obj 104 283 STEPcolor \$1 5;
#X obj 103 305 STEPcolor \$1 6;
#X obj 104 327 STEPcolor \$1 7;
#X obj 105 351 STEPcolor \$1 8;
#X obj 51 14 r \$1-Phrases;
#X obj 67 36 r \$1-Phrases_max;
#X floatatom 128 77 5 0 0 0 - - -, f 5;
#X obj 52 59 m 1;
#X connect 0 0 4 0;
#X connect 0 0 5 0;
#X connect 0 0 6 0;
#X connect 0 0 7 0;
#X connect 0 0 8 0;
#X connect 0 0 9 0;
#X connect 0 0 10 0;
#X connect 0 0 11 0;
#X connect 0 0 12 0;
#X connect 1 0 2 0;
#X connect 2 0 0 0;
#X connect 2 0 15 0;
#X connect 3 0 1 0;
#X connect 13 0 16 0;
#X connect 14 0 16 1;
#X connect 16 0 3 0;
#X restore 129 411 pd sel_color_STEP;
#X obj 105 27 KEPface \$1;
#X obj 54 22 MASTERtypeNO_IN \$0;
#X obj 57 687 KEPCommon \$1 \$0;
#X obj 283 562 Instru2Net \$1;
#X obj 54 110 MASTERtypeOUT \$1 1;
#X obj 349 523 param;
#X obj 115 158 STEPseq \$1 seq1 1;
#X obj 280 158 STEPseq \$1 seq2 2;
#X obj 115 219 STEPseq \$1 seq3 3;
#X obj 280 219 STEPseq \$1 seq4 4;
#X obj 115 280 STEPseq \$1 seq5 5;
#X obj 279 280 STEPseq \$1 seq6 6;
#X obj 114 341 STEPseq \$1 seq7 7;
#X obj 280 341 STEPseq \$1 seq8 8;
#X obj 315 490 r mute-OUT-\$1-1-snd;
#X obj 268 418 mainDSPswitch \$1;
#X connect 5 0 16 0;
#X connect 6 0 16 1;
#X connect 9 0 18 0;
#X connect 10 0 11 0;
#X connect 29 0 10 0;
#X coords 0 -1 1 1 42 656 2 50 10;
