#N canvas 609 463 345 312 12;
#X obj 25 38 inlet;
#X obj 26 100 outlet;
#X obj 75 206 translateXYZ 0 0 0;
#X obj 75 146 r gemhead;
#X obj 75 175 separator;
#X obj 86 100 unpack s f f f;
#X obj 26 70 mass3D masse \$1 \$2 \$3 \$4;
#X obj 230 175 r BasseR-sphR;
#X obj 186 228 loadbang;
#X obj 75 256 cube 0.3;
#X msg 177 250 draw line \, width 8;
#X connect 0 0 6 0;
#X connect 2 0 9 0;
#X connect 3 0 4 0;
#X connect 4 0 2 0;
#X connect 5 1 2 1;
#X connect 5 2 2 2;
#X connect 5 3 2 3;
#X connect 6 0 1 0;
#X connect 6 0 5 0;
#X connect 7 0 9 1;
#X connect 8 0 10 0;
#X connect 10 0 9 0;
